<svg width="430" height="1901" viewBox="0 0 430 1901" fill="none" xmlns="http://www.w3.org/2000/svg">
<g opacity="0.04">
<path d="M0 60.3306H430" stroke="#1A1C1E" stroke-width="0.5"/>
<path d="M0 100.331H430" stroke="#1A1C1E" stroke-width="0.5"/>
<path d="M0 140.331H430" stroke="#1A1C1E" stroke-width="0.5"/>
<path d="M0 180.331H430" stroke="#1A1C1E" stroke-width="0.5"/>
<path d="M0 220.331H430" stroke="#1A1C1E" stroke-width="0.5"/>
<path d="M0 260.331H430" stroke="#1A1C1E" stroke-width="0.5"/>
<path d="M0 300.331H430" stroke="#1A1C1E" stroke-width="0.5"/>
<path d="M0 340.331H430" stroke="#1A1C1E" stroke-width="0.5"/>
<path d="M0 380.331H430" stroke="#1A1C1E" stroke-width="0.5"/>
<path d="M0 420.331H430" stroke="#1A1C1E" stroke-width="0.5"/>
<path d="M0 460.331H430" stroke="#1A1C1E" stroke-width="0.5"/>
<path d="M0 500.331H430" stroke="#1A1C1E" stroke-width="0.5"/>
<path d="M0 540.331H430" stroke="#1A1C1E" stroke-width="0.5"/>
<path d="M0 580.331H430" stroke="#1A1C1E" stroke-width="0.5"/>
<path d="M0 620.331H430" stroke="#1A1C1E" stroke-width="0.5"/>
<path d="M0 660.331H430" stroke="#1A1C1E" stroke-width="0.5"/>
<path d="M0 700.331H430" stroke="#1A1C1E" stroke-width="0.5"/>
<path d="M0 740.331H430" stroke="#1A1C1E" stroke-width="0.5"/>
<path d="M0 780.331H430" stroke="#1A1C1E" stroke-width="0.5"/>
<path d="M0 820.331H430" stroke="#1A1C1E" stroke-width="0.5"/>
<path d="M0 860.331H430" stroke="#1A1C1E" stroke-width="0.5"/>
<path d="M0 900.331H430" stroke="#1A1C1E" stroke-width="0.5"/>
<path d="M0 940.331H430" stroke="#1A1C1E" stroke-width="0.5"/>
<path d="M0 980.331H430" stroke="#1A1C1E" stroke-width="0.5"/>
<path d="M0 1020.33H430" stroke="#1A1C1E" stroke-width="0.5"/>
<path d="M0 1060.33H430" stroke="#1A1C1E" stroke-width="0.5"/>
<path d="M0 1100.33H430" stroke="#1A1C1E" stroke-width="0.5"/>
<path d="M0 1140.33H430" stroke="#1A1C1E" stroke-width="0.5"/>
<path d="M0 1180.33H430" stroke="#1A1C1E" stroke-width="0.5"/>
<path d="M0 1220.33H430" stroke="#1A1C1E" stroke-width="0.5"/>
<path d="M0 1260.33H430" stroke="#1A1C1E" stroke-width="0.5"/>
<path d="M0 1300.33H430" stroke="#1A1C1E" stroke-width="0.5"/>
<path d="M0 1340.33H430" stroke="#1A1C1E" stroke-width="0.5"/>
<path d="M0 1380.33H430" stroke="#1A1C1E" stroke-width="0.5"/>
<path d="M0 1420.33H430" stroke="#1A1C1E" stroke-width="0.5"/>
<path d="M0 1460.33H430" stroke="#1A1C1E" stroke-width="0.5"/>
<path d="M0 1500.33H430" stroke="#1A1C1E" stroke-width="0.5"/>
<path d="M0 1540.33H430" stroke="#1A1C1E" stroke-width="0.5"/>
<path d="M0 1580.33H430" stroke="#1A1C1E" stroke-width="0.5"/>
<path d="M0 1620.33H430" stroke="#1A1C1E" stroke-width="0.5"/>
<path d="M0 1660.33H430" stroke="#1A1C1E" stroke-width="0.5"/>
<path d="M0 1700.33H430" stroke="#1A1C1E" stroke-width="0.5"/>
<path d="M0 1740.33H430" stroke="#1A1C1E" stroke-width="0.5"/>
<path d="M0 1780.33H430" stroke="#1A1C1E" stroke-width="0.5"/>
<path d="M0 1820.33H430" stroke="#1A1C1E" stroke-width="0.5"/>
<path d="M0 1860.33H430" stroke="#1A1C1E" stroke-width="0.5"/>
<path d="M0 1900.33H430" stroke="#1A1C1E" stroke-width="0.5"/>
<path d="M40 0V1822" stroke="#1A1C1E" stroke-width="0.5"/>
<path d="M80 0V1822" stroke="#1A1C1E" stroke-width="0.5"/>
<path d="M120 0V1822" stroke="#1A1C1E" stroke-width="0.5"/>
<path d="M160 0V1822" stroke="#1A1C1E" stroke-width="0.5"/>
<path d="M200 0V1822" stroke="#1A1C1E" stroke-width="0.5"/>
<path d="M240 0V1822" stroke="#1A1C1E" stroke-width="0.5"/>
<path d="M280 0V1822" stroke="#1A1C1E" stroke-width="0.5"/>
<path d="M320 0V1822" stroke="#1A1C1E" stroke-width="0.5"/>
<path d="M360 0V1822" stroke="#1A1C1E" stroke-width="0.5"/>
<path d="M400 0V1822" stroke="#1A1C1E" stroke-width="0.5"/>
</g>
</svg>
