<svg width="430" height="520" viewBox="0 0 430 520" fill="none" xmlns="http://www.w3.org/2000/svg">
<g opacity="0.055">
<path d="M0 40H430" stroke="#D1D1D1" stroke-width="0.5"/>
<path d="M0 80H430" stroke="#D1D1D1" stroke-width="0.5"/>
<path d="M0 120H430" stroke="#D1D1D1" stroke-width="0.5"/>
<path d="M0 160H430" stroke="#D1D1D1" stroke-width="0.5"/>
<path d="M0 200H430" stroke="#D1D1D1" stroke-width="0.5"/>
<path d="M0 240H430" stroke="#D1D1D1" stroke-width="0.5"/>
<path d="M0 280H430" stroke="#D1D1D1" stroke-width="0.5"/>
<path d="M0 320H430" stroke="#D1D1D1" stroke-width="0.5"/>
<path d="M0 360H430" stroke="#D1D1D1" stroke-width="0.5"/>
<path d="M0 400H430" stroke="#D1D1D1" stroke-width="0.5"/>
<path d="M0 440H430" stroke="#D1D1D1" stroke-width="0.5"/>
<path d="M0 480H430" stroke="#D1D1D1" stroke-width="0.5"/>
<path d="M40 0V520" stroke="#D1D1D1" stroke-width="0.5"/>
<path d="M80 0V520" stroke="#D1D1D1" stroke-width="0.5"/>
<path d="M120 0V520" stroke="#D1D1D1" stroke-width="0.5"/>
<path d="M160 0V520" stroke="#D1D1D1" stroke-width="0.5"/>
<path d="M200 0V520" stroke="#D1D1D1" stroke-width="0.5"/>
<path d="M240 0V520" stroke="#D1D1D1" stroke-width="0.5"/>
<path d="M280 0V520" stroke="#D1D1D1" stroke-width="0.5"/>
<path d="M320 0V520" stroke="#D1D1D1" stroke-width="0.5"/>
<path d="M360 0V520" stroke="#D1D1D1" stroke-width="0.5"/>
<path d="M400 0V520" stroke="#D1D1D1" stroke-width="0.5"/>
</g>
</svg>
