<svg width="430" height="240" viewBox="0 0 430 240" fill="none" xmlns="http://www.w3.org/2000/svg">
<g clip-path="url(#clip0_367_8469)">
<path d="M430 0H0V240H430V0Z" fill="#1A1C1E"/>
<path d="M320 440C463.594 440 580 323.594 580 180C580 36.406 463.594 -80 320 -80C176.406 -80 60 36.406 60 180C60 323.594 176.406 440 320 440Z" fill="#E5C185" fill-opacity="0.13"/>
<path d="M320 350C413.888 350 490 273.888 490 180C490 86.1116 413.888 10 320 10C226.112 10 150 86.1116 150 180C150 273.888 226.112 350 320 350Z" fill="#E5C185" fill-opacity="0.1"/>
<path d="M320 275C372.467 275 415 232.467 415 180C415 127.533 372.467 85 320 85C267.533 85 225 127.533 225 180C225 232.467 267.533 275 320 275Z" fill="#E5C185" fill-opacity="0.08"/>
<path d="M380 300C479.411 300 560 219.411 560 120C560 20.5887 479.411 -60 380 -60C280.589 -60 200 20.5887 200 120C200 219.411 280.589 300 380 300Z" fill="#D4A96A" fill-opacity="0.09"/>
<path d="M380 210C429.706 210 470 169.706 470 120C470 70.2944 429.706 30 380 30C330.294 30 290 70.2944 290 120C290 169.706 330.294 210 380 210Z" fill="#F5E4A0" fill-opacity="0.07"/>
<path d="M400 180C477.32 180 540 117.32 540 40C540 -37.3199 477.32 -100 400 -100C322.68 -100 260 -37.3199 260 40C260 117.32 322.68 180 400 180Z" fill="#E5C185" fill-opacity="0.07"/>
<path d="M400 110C438.66 110 470 78.6599 470 40C470 1.34007 438.66 -30 400 -30C361.34 -30 330 1.34007 330 40C330 78.6599 361.34 110 400 110Z" fill="#F5E4A0" fill-opacity="0.06"/>
<path d="M30 360C118.366 360 190 288.366 190 200C190 111.634 118.366 40 30 40C-58.3656 40 -130 111.634 -130 200C-130 288.366 -58.3656 360 30 360Z" fill="white" fill-opacity="0.03"/>
<path d="M30 280C74.1828 280 110 244.183 110 200C110 155.817 74.1828 120 30 120C-14.1828 120 -50 155.817 -50 200C-50 244.183 -14.1828 280 30 280Z" fill="white" fill-opacity="0.025"/>
<path d="M310 205C343.137 205 370 178.137 370 145C370 111.863 343.137 85 310 85C276.863 85 250 111.863 250 145C250 178.137 276.863 205 310 205Z" fill="#F5E4A0" fill-opacity="0.11"/>
<path d="M310 175C326.569 175 340 161.569 340 145C340 128.431 326.569 115 310 115C293.431 115 280 128.431 280 145C280 161.569 293.431 175 310 175Z" fill="#F5E4A0" fill-opacity="0.09"/>
<g opacity="0.06">
<path d="M0 0H430" stroke="white" stroke-width="0.4"/>
<path d="M0 40H430" stroke="white" stroke-width="0.4"/>
<path d="M0 80H430" stroke="white" stroke-width="0.4"/>
<path d="M0 120H430" stroke="white" stroke-width="0.4"/>
<path d="M0 160H430" stroke="white" stroke-width="0.4"/>
<path d="M0 200H430" stroke="white" stroke-width="0.4"/>
<path d="M0 240H430" stroke="white" stroke-width="0.4"/>
<path d="M0 0V240" stroke="white" stroke-width="0.4"/>
<path d="M40 0V240" stroke="white" stroke-width="0.4"/>
<path d="M80 0V240" stroke="white" stroke-width="0.4"/>
<path d="M120 0V240" stroke="white" stroke-width="0.4"/>
<path d="M160 0V240" stroke="white" stroke-width="0.4"/>
<path d="M200 0V240" stroke="white" stroke-width="0.4"/>
<path d="M240 0V240" stroke="white" stroke-width="0.4"/>
<path d="M280 0V240" stroke="white" stroke-width="0.4"/>
<path d="M320 0V240" stroke="white" stroke-width="0.4"/>
<path d="M360 0V240" stroke="white" stroke-width="0.4"/>
<path d="M400 0V240" stroke="white" stroke-width="0.4"/>
</g>
<path opacity="0.12" d="M334.722 221.085C429.267 190.365 494.844 131.397 481.191 89.377C467.537 47.3567 379.825 38.1957 285.279 68.9155C190.733 99.6353 125.157 158.603 138.81 200.623C152.463 242.643 240.176 251.804 334.722 221.085Z" stroke="white" stroke-width="0.7"/>
<path opacity="0.1" d="M326.996 197.308C395.279 175.122 443.024 133.717 433.638 104.828C424.251 75.939 361.288 70.5055 293.005 92.692C224.722 114.879 176.977 156.283 186.363 185.172C195.75 214.061 258.713 219.495 326.996 197.308Z" stroke="white" stroke-width="0.6"/>
<path opacity="0.14" d="M321.743 181.14C367.965 166.121 400.178 137.766 393.693 117.806C387.208 97.8467 344.48 93.8412 298.257 108.86C252.035 123.878 219.822 152.234 226.307 172.193C232.792 192.153 275.52 196.159 321.743 181.14Z" stroke="white" stroke-width="0.5"/>
<path opacity="0.18" d="M316.798 165.923C343.061 157.39 361.307 141.105 357.552 129.549C353.798 117.994 329.464 115.544 303.201 124.077C276.939 132.61 258.692 148.895 262.447 160.451C266.201 172.007 290.535 174.457 316.798 165.923Z" stroke="white" stroke-width="0.6"/>
<path opacity="0.15" d="M200 0L430 130" stroke="#E5C185" stroke-width="0.5" stroke-linecap="round"/>
<path opacity="0.1" d="M240 0L430 100" stroke="#E5C185" stroke-width="0.4" stroke-linecap="round"/>
<path opacity="0.07" d="M160 0L430 160" stroke="white" stroke-width="0.4" stroke-linecap="round"/>
<path opacity="0.08" d="M0 180L280 240" stroke="#E5C185" stroke-width="0.4" stroke-linecap="round"/>
<path d="M0 59.9999C80 19.9999 200 79.9999 310 145" stroke="white" stroke-opacity="0.1" stroke-width="0.6" stroke-linecap="round"/>
<path d="M310 145C370 120 420 80 430 50" stroke="white" stroke-opacity="0.08" stroke-width="0.5" stroke-linecap="round"/>
<path d="M60 240C160 200 250 190 310 145" stroke="white" stroke-opacity="0.07" stroke-width="0.5" stroke-linecap="round"/>
<path d="M200 240C260 200 300 170 310 145" stroke="#E5C185" stroke-opacity="0.18" stroke-width="0.7" stroke-linecap="round"/>
<path d="M310 145C360 110 420 60 430 30" stroke="#E5C185" stroke-opacity="0.14" stroke-width="0.6" stroke-linecap="round"/>
<path d="M72 48C75.3137 48 78 45.3137 78 42C78 38.6863 75.3137 36 72 36C68.6863 36 66 38.6863 66 42C66 45.3137 68.6863 48 72 48Z" stroke="white" stroke-opacity="0.18" stroke-width="0.6"/>
<path d="M72 44.5C73.3807 44.5 74.5 43.3807 74.5 42C74.5 40.6193 73.3807 39.5 72 39.5C70.6193 39.5 69.5 40.6193 69.5 42C69.5 43.3807 70.6193 44.5 72 44.5Z" fill="white" fill-opacity="0.35"/>
<path d="M155 93C157.761 93 160 90.7614 160 88C160 85.2386 157.761 83 155 83C152.239 83 150 85.2386 150 88C150 90.7614 152.239 93 155 93Z" stroke="white" stroke-opacity="0.14" stroke-width="0.6"/>
<path d="M155 90C156.105 90 157 89.1046 157 88C157 86.8954 156.105 86 155 86C153.895 86 153 86.8954 153 88C153 89.1046 153.895 90 155 90Z" fill="white" fill-opacity="0.28"/>
<path d="M230 123C232.761 123 235 120.761 235 118C235 115.239 232.761 113 230 113C227.239 113 225 115.239 225 118C225 120.761 227.239 123 230 123Z" stroke="#E5C185" stroke-opacity="0.2" stroke-width="0.6"/>
<path d="M230 120C231.105 120 232 119.105 232 118C232 116.895 231.105 116 230 116C228.895 116 228 116.895 228 118C228 119.105 228.895 120 230 120Z" fill="#E5C185" fill-opacity="0.45"/>
<path d="M390 78C393.314 78 396 75.3137 396 72C396 68.6863 393.314 66 390 66C386.686 66 384 68.6863 384 72C384 75.3137 386.686 78 390 78Z" stroke="white" stroke-opacity="0.15" stroke-width="0.6"/>
<path d="M390 74.1998C391.215 74.1998 392.2 73.2148 392.2 71.9998C392.2 70.7848 391.215 69.7998 390 69.7998C388.785 69.7998 387.8 70.7848 387.8 71.9998C387.8 73.2148 388.785 74.1998 390 74.1998Z" fill="white" fill-opacity="0.3"/>
<path d="M415 144C417.209 144 419 142.209 419 140C419 137.791 417.209 136 415 136C412.791 136 411 137.791 411 140C411 142.209 412.791 144 415 144Z" stroke="white" stroke-opacity="0.12" stroke-width="0.6"/>
<path d="M415 141.6C415.884 141.6 416.6 140.884 416.6 140C416.6 139.116 415.884 138.4 415 138.4C414.117 138.4 413.4 139.116 413.4 140C413.4 140.884 414.117 141.6 415 141.6Z" fill="white" fill-opacity="0.25"/>
<path d="M265 193C267.761 193 270 190.761 270 188C270 185.239 267.761 183 265 183C262.239 183 260 185.239 260 188C260 190.761 262.239 193 265 193Z" stroke="#E5C185" stroke-opacity="0.18" stroke-width="0.6"/>
<path d="M265 190C266.105 190 267 189.105 267 188C267 186.895 266.105 186 265 186C263.895 186 263 186.895 263 188C263 189.105 263.895 190 265 190Z" fill="#E5C185" fill-opacity="0.4"/>
<path d="M140 184C142.209 184 144 182.209 144 180C144 177.791 142.209 176 140 176C137.791 176 136 177.791 136 180C136 182.209 137.791 184 140 184Z" stroke="white" stroke-opacity="0.12" stroke-width="0.6"/>
<path d="M140 181.5C140.828 181.5 141.5 180.828 141.5 180C141.5 179.172 140.828 178.5 140 178.5C139.172 178.5 138.5 179.172 138.5 180C138.5 180.828 139.172 181.5 140 181.5Z" fill="white" fill-opacity="0.22"/>
<path d="M38 134C40.2091 134 42 132.209 42 130C42 127.791 40.2091 126 38 126C35.7909 126 34 127.791 34 130C34 132.209 35.7909 134 38 134Z" stroke="white" stroke-opacity="0.1" stroke-width="0.6"/>
<path d="M38 131.5C38.8284 131.5 39.5 130.828 39.5 130C39.5 129.172 38.8284 128.5 38 128.5C37.1716 128.5 36.5 129.172 36.5 130C36.5 130.828 37.1716 131.5 38 131.5Z" fill="white" fill-opacity="0.2"/>
<path d="M211 102.5C211.276 102.5 211.5 102.276 211.5 102C211.5 101.724 211.276 101.5 211 101.5C210.724 101.5 210.5 101.724 210.5 102C210.5 102.276 210.724 102.5 211 102.5Z" fill="white" fill-opacity="0.12"/>
<path d="M394 27.5C394.276 27.5 394.5 27.2761 394.5 27C394.5 26.7239 394.276 26.5 394 26.5C393.724 26.5 393.5 26.7239 393.5 27C393.5 27.2761 393.724 27.5 394 27.5Z" fill="#E5C185" fill-opacity="0.16"/>
<path d="M280 28.0999C280.608 28.0999 281.1 27.6074 281.1 26.9999C281.1 26.3924 280.608 25.8999 280 25.8999C279.393 25.8999 278.9 26.3924 278.9 26.9999C278.9 27.6074 279.393 28.0999 280 28.0999Z" fill="white" fill-opacity="0.18"/>
<path d="M318 155.5C318.276 155.5 318.5 155.276 318.5 155C318.5 154.724 318.276 154.5 318 154.5C317.724 154.5 317.5 154.724 317.5 155C317.5 155.276 317.724 155.5 318 155.5Z" fill="white" fill-opacity="0.26"/>
<path d="M203 225.8C203.442 225.8 203.8 225.442 203.8 225C203.8 224.558 203.442 224.2 203 224.2C202.558 224.2 202.2 224.558 202.2 225C202.2 225.442 202.558 225.8 203 225.8Z" fill="#E5C185" fill-opacity="0.11"/>
<path d="M295 91.4001C295.221 91.4001 295.4 91.221 295.4 91.0001C295.4 90.7792 295.221 90.6001 295 90.6001C294.779 90.6001 294.6 90.7792 294.6 91.0001C294.6 91.221 294.779 91.4001 295 91.4001Z" fill="#E5C185" fill-opacity="0.22"/>
<path d="M49.0004 125.6C49.3318 125.6 49.6004 125.331 49.6004 125C49.6004 124.669 49.3318 124.4 49.0004 124.4C48.669 124.4 48.4004 124.669 48.4004 125C48.4004 125.331 48.669 125.6 49.0004 125.6Z" fill="white" fill-opacity="0.09"/>
<path d="M222 57.5999C222.332 57.5999 222.6 57.3313 222.6 56.9999C222.6 56.6685 222.332 56.3999 222 56.3999C221.669 56.3999 221.4 56.6685 221.4 56.9999C221.4 57.3313 221.669 57.5999 222 57.5999Z" fill="white" fill-opacity="0.27"/>
<path d="M270 235.5C270.276 235.5 270.5 235.276 270.5 235C270.5 234.724 270.276 234.5 270 234.5C269.724 234.5 269.5 234.724 269.5 235C269.5 235.276 269.724 235.5 270 235.5Z" fill="white" fill-opacity="0.17"/>
<path d="M71.0004 61.0999C71.6079 61.0999 72.1004 60.6074 72.1004 59.9999C72.1004 59.3924 71.6079 58.8999 71.0004 58.8999C70.3929 58.8999 69.9004 59.3924 69.9004 59.9999C69.9004 60.6074 70.3929 61.0999 71.0004 61.0999Z" fill="#E5C185" fill-opacity="0.22"/>
<path d="M231 158C231.552 158 232 157.552 232 157C232 156.448 231.552 156 231 156C230.448 156 230 156.448 230 157C230 157.552 230.448 158 231 158Z" fill="white" fill-opacity="0.12"/>
<path d="M94.9996 14.4001C95.2205 14.4001 95.3996 14.221 95.3996 14.0001C95.3996 13.7792 95.2205 13.6001 94.9996 13.6001C94.7787 13.6001 94.5996 13.7792 94.5996 14.0001C94.5996 14.221 94.7787 14.4001 94.9996 14.4001Z" fill="#E5C185" fill-opacity="0.11"/>
<path d="M219 26C219.552 26 220 25.5523 220 25C220 24.4477 219.552 24 219 24C218.448 24 218 24.4477 218 25C218 25.5523 218.448 26 219 26Z" fill="white" fill-opacity="0.21"/>
<path d="M321 6.5999C321.332 6.5999 321.6 6.33127 321.6 5.9999C321.6 5.66853 321.332 5.3999 321 5.3999C320.669 5.3999 320.4 5.66853 320.4 5.9999C320.4 6.33127 320.669 6.5999 321 6.5999Z" fill="white" fill-opacity="0.11"/>
<path d="M408 19.7997C408.442 19.7997 408.8 19.4415 408.8 18.9997C408.8 18.5579 408.442 18.1997 408 18.1997C407.558 18.1997 407.2 18.5579 407.2 18.9997C407.2 19.4415 407.558 19.7997 408 19.7997Z" fill="white" fill-opacity="0.17"/>
<path d="M396 37.5999C396.332 37.5999 396.6 37.3313 396.6 36.9999C396.6 36.6685 396.332 36.3999 396 36.3999C395.669 36.3999 395.4 36.6685 395.4 36.9999C395.4 37.3313 395.669 37.5999 396 37.5999Z" fill="#E5C185" fill-opacity="0.22"/>
<path d="M72 195C72.5523 195 73 194.552 73 194C73 193.448 72.5523 193 72 193C71.4477 193 71 193.448 71 194C71 194.552 71.4477 195 72 195Z" fill="#E5C185" fill-opacity="0.2"/>
<path d="M316 109.4C316.221 109.4 316.4 109.221 316.4 109C316.4 108.779 316.221 108.6 316 108.6C315.779 108.6 315.6 108.779 315.6 109C315.6 109.221 315.779 109.4 316 109.4Z" fill="white" fill-opacity="0.1"/>
<path d="M94.9996 109.4C95.2205 109.4 95.3996 109.221 95.3996 109C95.3996 108.779 95.2205 108.6 94.9996 108.6C94.7787 108.6 94.5996 108.779 94.5996 109C94.5996 109.221 94.7787 109.4 94.9996 109.4Z" fill="white" fill-opacity="0.12"/>
<path d="M399 132.9C399.497 132.9 399.9 132.497 399.9 132C399.9 131.503 399.497 131.1 399 131.1C398.503 131.1 398.1 131.503 398.1 132C398.1 132.497 398.503 132.9 399 132.9Z" fill="white" fill-opacity="0.25"/>
<path d="M190 52.7997C190.442 52.7997 190.8 52.4415 190.8 51.9997C190.8 51.5579 190.442 51.1997 190 51.1997C189.558 51.1997 189.2 51.5579 189.2 51.9997C189.2 52.4415 189.558 52.7997 190 52.7997Z" fill="white" fill-opacity="0.18"/>
<path d="M29 91.5C29.2761 91.5 29.5 91.2761 29.5 91C29.5 90.7239 29.2761 90.5 29 90.5C28.7239 90.5 28.5 90.7239 28.5 91C28.5 91.2761 28.7239 91.5 29 91.5Z" fill="#E5C185" fill-opacity="0.16"/>
<path d="M209 103.6C209.332 103.6 209.6 103.331 209.6 103C209.6 102.669 209.332 102.4 209 102.4C208.669 102.4 208.4 102.669 208.4 103C208.4 103.331 208.669 103.6 209 103.6Z" fill="white" fill-opacity="0.15"/>
<path d="M23.9996 100.9C24.4967 100.9 24.8996 100.497 24.8996 100C24.8996 99.503 24.4967 99.1001 23.9996 99.1001C23.5026 99.1001 23.0996 99.503 23.0996 100C23.0996 100.497 23.5026 100.9 23.9996 100.9Z" fill="white" fill-opacity="0.16"/>
<path d="M164 223.8C164.442 223.8 164.8 223.442 164.8 223C164.8 222.558 164.442 222.2 164 222.2C163.558 222.2 163.2 222.558 163.2 223C163.2 223.442 163.558 223.8 164 223.8Z" fill="white" fill-opacity="0.21"/>
<path d="M357 189.6C357.332 189.6 357.6 189.331 357.6 189C357.6 188.669 357.332 188.4 357 188.4C356.669 188.4 356.4 188.669 356.4 189C356.4 189.331 356.669 189.6 357 189.6Z" fill="#E5C185" fill-opacity="0.23"/>
<path d="M369 68.5999C369.332 68.5999 369.6 68.3313 369.6 67.9999C369.6 67.6685 369.332 67.3999 369 67.3999C368.669 67.3999 368.4 67.6685 368.4 67.9999C368.4 68.3313 368.669 68.5999 369 68.5999Z" fill="#E5C185" fill-opacity="0.17"/>
<path d="M229 113.1C229.608 113.1 230.1 112.607 230.1 112C230.1 111.392 229.608 110.9 229 110.9C228.393 110.9 227.9 111.392 227.9 112C227.9 112.607 228.393 113.1 229 113.1Z" fill="white" fill-opacity="0.13"/>
<path d="M355 228.6C355.332 228.6 355.6 228.331 355.6 228C355.6 227.669 355.332 227.4 355 227.4C354.669 227.4 354.4 227.669 354.4 228C354.4 228.331 354.669 228.6 355 228.6Z" fill="white" fill-opacity="0.18"/>
<path d="M136 116C136.552 116 137 115.552 137 115C137 114.448 136.552 114 136 114C135.448 114 135 114.448 135 115C135 115.552 135.448 116 136 116Z" fill="#E5C185" fill-opacity="0.16"/>
<path d="M317 45.5C317.276 45.5 317.5 45.2761 317.5 45C317.5 44.7239 317.276 44.5 317 44.5C316.724 44.5 316.5 44.7239 316.5 45C316.5 45.2761 316.724 45.5 317 45.5Z" fill="#E5C185" fill-opacity="0.22"/>
<path d="M321 175.9C321.497 175.9 321.9 175.497 321.9 175C321.9 174.503 321.497 174.1 321 174.1C320.503 174.1 320.1 174.503 320.1 175C320.1 175.497 320.503 175.9 321 175.9Z" fill="white" fill-opacity="0.12"/>
<path d="M106 93.2997C106.166 93.2997 106.3 93.1654 106.3 92.9997C106.3 92.834 106.166 92.6997 106 92.6997C105.835 92.6997 105.7 92.834 105.7 92.9997C105.7 93.1654 105.835 93.2997 106 93.2997Z" fill="white" fill-opacity="0.15"/>
<path d="M103 233.8C103.442 233.8 103.8 233.442 103.8 233C103.8 232.558 103.442 232.2 103 232.2C102.558 232.2 102.2 232.558 102.2 233C102.2 233.442 102.558 233.8 103 233.8Z" fill="#E5C185" fill-opacity="0.11"/>
<path d="M341 111.9C341.497 111.9 341.9 111.497 341.9 111C341.9 110.503 341.497 110.1 341 110.1C340.503 110.1 340.1 110.503 340.1 111C340.1 111.497 340.503 111.9 341 111.9Z" fill="white" fill-opacity="0.25"/>
<path d="M181 173.6C181.332 173.6 181.6 173.331 181.6 173C181.6 172.669 181.332 172.4 181 172.4C180.669 172.4 180.4 172.669 180.4 173C180.4 173.331 180.669 173.6 181 173.6Z" fill="white" fill-opacity="0.1"/>
<path d="M5 138.5C5.27614 138.5 5.5 138.276 5.5 138C5.5 137.724 5.27614 137.5 5 137.5C4.72386 137.5 4.5 137.724 4.5 138C4.5 138.276 4.72386 138.5 5 138.5Z" fill="#E5C185" fill-opacity="0.21"/>
<path d="M89.9996 135.9C90.4967 135.9 90.8996 135.497 90.8996 135C90.8996 134.503 90.4967 134.1 89.9996 134.1C89.5026 134.1 89.0996 134.503 89.0996 135C89.0996 135.497 89.5026 135.9 89.9996 135.9Z" fill="white" fill-opacity="0.17"/>
<path d="M388 222.9C388.497 222.9 388.9 222.497 388.9 222C388.9 221.503 388.497 221.1 388 221.1C387.503 221.1 387.1 221.503 387.1 222C387.1 222.497 387.503 222.9 388 222.9Z" fill="white" fill-opacity="0.17"/>
<path d="M322 201.8C322.442 201.8 322.8 201.442 322.8 201C322.8 200.558 322.442 200.2 322 200.2C321.558 200.2 321.2 200.558 321.2 201C321.2 201.442 321.558 201.8 322 201.8Z" fill="#E5C185" fill-opacity="0.23"/>
<path d="M309 170C321.15 170 331 160.15 331 148C331 135.85 321.15 126 309 126C296.85 126 287 135.85 287 148C287 160.15 296.85 170 309 170Z" stroke="#E5C185" stroke-opacity="0.25" stroke-width="0.7" stroke-dasharray="3 5"/>
<path d="M309 162C316.732 162 323 155.732 323 148C323 140.268 316.732 134 309 134C301.268 134 295 140.268 295 148C295 155.732 301.268 162 309 162Z" stroke="#E5C185" stroke-opacity="0.38" stroke-width="0.9"/>
<path d="M309 158C314.523 158 319 153.523 319 148C319 142.477 314.523 138 309 138C303.477 138 299 142.477 299 148C299 153.523 303.477 158 309 158Z" fill="#E5C185" fill-opacity="0.12"/>
<path d="M309 155.5C313.142 155.5 316.5 152.142 316.5 148C316.5 143.858 313.142 140.5 309 140.5C304.858 140.5 301.5 143.858 301.5 148C301.5 152.142 304.858 155.5 309 155.5Z" fill="#1A1A18" stroke="#E5C185" stroke-opacity="0.85" stroke-width="1.4"/>
<path d="M309 149.6C309.884 149.6 310.6 148.884 310.6 148C310.6 147.116 309.884 146.4 309 146.4C308.117 146.4 307.4 147.116 307.4 148C307.4 148.884 308.117 149.6 309 149.6Z" fill="#F5E4A0"/>
<path d="M318 148H327" stroke="#E5C185" stroke-opacity="0.35" stroke-width="0.5" stroke-linecap="round"/>
<path d="M309 157V166" stroke="#E5C185" stroke-opacity="0.35" stroke-width="0.5" stroke-linecap="round"/>
<path d="M300 148H291" stroke="#E5C185" stroke-opacity="0.35" stroke-width="0.5" stroke-linecap="round"/>
<path d="M309 139V130" stroke="#E5C185" stroke-opacity="0.35" stroke-width="0.5" stroke-linecap="round"/>
<path d="M314.7 153.7L317.5 156.5" stroke="#E5C185" stroke-opacity="0.22" stroke-width="0.4" stroke-linecap="round"/>
<path d="M303.3 153.7L300.5 156.5" stroke="#E5C185" stroke-opacity="0.22" stroke-width="0.4" stroke-linecap="round"/>
<path d="M303.3 142.3L300.5 139.5" stroke="#E5C185" stroke-opacity="0.22" stroke-width="0.4" stroke-linecap="round"/>
<path d="M314.7 142.3L317.5 139.5" stroke="#E5C185" stroke-opacity="0.22" stroke-width="0.4" stroke-linecap="round"/>
</g>
<defs>
<clipPath id="clip0_367_8469">
<rect width="430" height="240" fill="white"/>
</clipPath>
</defs>
</svg>
