<svg width="430" height="1326" viewBox="0 0 430 1326" fill="none" xmlns="http://www.w3.org/2000/svg">
<g clip-path="url(#clip0_286_19453)">
<path d="M430 0H0V1326H430V0Z" fill="#F9F9F9"/>
<path opacity="0.045" d="M370 419.9C491.503 419.9 590 320.955 590 198.9C590 76.845 491.503 -22.1001 370 -22.1001C248.497 -22.1001 150 76.845 150 198.9C150 320.955 248.497 419.9 370 419.9Z" fill="#D4A017"/>
<path opacity="0.032" d="M60 861.9C159.411 861.9 240 782.744 240 685.1C240 587.456 159.411 508.3 60 508.3C-39.4113 508.3 -120 587.456 -120 685.1C-120 782.744 -39.4113 861.9 60 861.9Z" fill="#D4A017"/>
<path opacity="0.038" d="M390 1326C500.457 1326 590 1236.95 590 1127.1C590 1017.25 500.457 928.2 390 928.2C279.543 928.2 190 1017.25 190 1127.1C190 1236.95 279.543 1326 390 1326Z" fill="#D4A017"/>
<path opacity="0.022" d="M215 994.5C358.594 994.5 475 846.082 475 663C475 479.918 358.594 331.5 215 331.5C71.406 331.5 -45 479.918 -45 663C-45 846.082 71.406 994.5 215 994.5Z" fill="#D4A017"/>
<path opacity="0.4" d="M215 596.7C402.777 596.7 555 477.966 555 331.5C555 185.034 402.777 66.3003 215 66.3003C27.2232 66.3003 -125 185.034 -125 331.5C-125 477.966 27.2232 596.7 215 596.7Z" stroke="#D1D1D1" stroke-width="0.5"/>
<path opacity="0.32" d="M215 524.875C358.594 524.875 475 438.298 475 331.5C475 224.702 358.594 138.125 215 138.125C71.406 138.125 -45 224.702 -45 331.5C-45 438.298 71.406 524.875 215 524.875Z" stroke="#D1D1D1" stroke-width="0.5"/>
<path opacity="0.28" d="M215 458.575C308.888 458.575 385 401.682 385 331.5C385 261.319 308.888 204.425 215 204.425C121.112 204.425 45 261.319 45 331.5C45 401.682 121.112 458.575 215 458.575Z" stroke="#D1D1D1" stroke-width="0.5"/>
<path opacity="0.35" d="M320.172 357.619C472.496 302.93 577.993 197.428 555.807 121.976C533.62 46.5228 392.152 29.691 239.828 84.3808C87.5042 139.07 -17.9928 244.572 4.1937 320.025C26.3802 395.477 167.849 412.309 320.172 357.619Z" stroke="#D1D1D1" stroke-width="0.5"/>
<path opacity="0.28" d="M307.812 315.583C418.115 275.98 495.082 201.529 479.722 149.293C464.362 97.0563 362.492 86.8147 252.189 126.418C141.885 166.021 64.9184 240.471 80.2783 292.708C95.6382 344.944 197.508 355.186 307.812 315.583Z" stroke="#D1D1D1" stroke-width="0.5"/>
<path opacity="0.38" d="M153.953 936.732C327.999 970.643 480.753 925.053 495.138 834.902C509.524 744.752 380.093 644.18 206.047 610.268C32.001 576.357 -120.753 621.948 -135.139 712.098C-149.524 802.249 -20.0935 902.821 153.953 936.732Z" stroke="#D1D1D1" stroke-width="0.5"/>
<path opacity="0.3" d="M162.635 882.321C287.731 906.695 396.916 877.733 406.506 817.633C416.096 757.532 322.461 689.052 197.365 664.679C72.2695 640.305 -36.9151 669.267 -46.5054 729.367C-56.0958 789.467 37.5398 857.947 162.635 882.321Z" stroke="#D1D1D1" stroke-width="0.5"/>
<path opacity="0.36" d="M259.484 1313.44C423.557 1287.96 547.841 1198.72 537.081 1114.11C526.32 1029.51 384.589 981.575 220.516 1007.06C56.443 1032.54 -67.8411 1121.78 -57.0802 1206.39C-46.3194 1290.99 95.4115 1338.92 259.484 1313.44Z" stroke="#D1D1D1" stroke-width="0.5"/>
<path opacity="0.28" d="M252.526 1258.73C361.908 1241.75 444.971 1183.88 438.054 1129.49C431.136 1075.1 336.857 1044.78 227.475 1061.77C118.093 1078.75 35.0288 1136.62 41.9465 1191.01C48.8642 1245.4 143.144 1275.72 252.526 1258.73Z" stroke="#D1D1D1" stroke-width="0.5"/>
<path opacity="0.45" d="M0 88.4004L430 574.6" stroke="#D1D1D1" stroke-width="0.5"/>
<path opacity="0.35" d="M0 176.8L430 663" stroke="#D1D1D1" stroke-width="0.5"/>
<path opacity="0.38" d="M0 663L430 132.6" stroke="#D1D1D1" stroke-width="0.5"/>
<path opacity="0.3" d="M0 795.6L430 265.2" stroke="#D1D1D1" stroke-width="0.5"/>
<path opacity="0.32" d="M0 994.5L430 530.4" stroke="#D1D1D1" stroke-width="0.5"/>
<path opacity="0.28" d="M0 1160.25L430 751.4" stroke="#D1D1D1" stroke-width="0.5"/>
<path opacity="0.3" d="M430 1105L0 1326" stroke="#D1D1D1" stroke-width="0.5"/>
<path opacity="0.22" d="M107 0V1326" stroke="#D1D1D1" stroke-width="0.5"/>
<path opacity="0.18" d="M215 0V1326" stroke="#D1D1D1" stroke-width="0.5"/>
<path opacity="0.22" d="M323 0V1326" stroke="#D1D1D1" stroke-width="0.5"/>
<path opacity="0.2" d="M0 265.2H430" stroke="#D1D1D1" stroke-width="0.5"/>
<path opacity="0.2" d="M0 530.4H430" stroke="#D1D1D1" stroke-width="0.5"/>
<path opacity="0.18" d="M0 663H430" stroke="#D1D1D1" stroke-width="0.5"/>
<path opacity="0.2" d="M0 795.601H430" stroke="#D1D1D1" stroke-width="0.5"/>
<path opacity="0.2" d="M0 1060.8H430" stroke="#D1D1D1" stroke-width="0.5"/>
<path opacity="0.42" d="M62 104.975L148 68.5103" stroke="#D1D1D1" stroke-width="0.5"/>
<path opacity="0.38" d="M148 68.5103L230 119.34" stroke="#D1D1D1" stroke-width="0.5"/>
<path opacity="0.42" d="M230 119.34L310 81.77" stroke="#D1D1D1" stroke-width="0.5"/>
<path opacity="0.36" d="M310 81.77L388 130.39" stroke="#D1D1D1" stroke-width="0.5"/>
<path opacity="0.35" d="M62 104.975L90 185.64" stroke="#D1D1D1" stroke-width="0.5"/>
<path opacity="0.32" d="M230 119.34L200 209.95" stroke="#D1D1D1" stroke-width="0.5"/>
<path opacity="0.38" d="M310 81.77L338 185.64" stroke="#D1D1D1" stroke-width="0.5"/>
<path opacity="0.4" d="M38 497.251L118 464.101" stroke="#D1D1D1" stroke-width="0.5"/>
<path opacity="0.38" d="M118 464.101L185 519.351" stroke="#D1D1D1" stroke-width="0.5"/>
<path opacity="0.42" d="M185 519.35L258 480.675" stroke="#D1D1D1" stroke-width="0.5"/>
<path opacity="0.36" d="M258 480.675L340 517.14" stroke="#D1D1D1" stroke-width="0.5"/>
<path opacity="0.38" d="M340 517.14L405 475.15" stroke="#D1D1D1" stroke-width="0.5"/>
<path opacity="0.32" d="M118 464.101L100 563.551" stroke="#D1D1D1" stroke-width="0.5"/>
<path opacity="0.3" d="M258 480.675L248 580.125" stroke="#D1D1D1" stroke-width="0.5"/>
<path opacity="0.34" d="M405.001 475.15L392.001 572.39" stroke="#D1D1D1" stroke-width="0.5"/>
<path opacity="0.38" d="M52 906.1L140 872.95" stroke="#D1D1D1" stroke-width="0.5"/>
<path opacity="0.4" d="M140 872.95L215 928.2" stroke="#D1D1D1" stroke-width="0.5"/>
<path opacity="0.38" d="M215 928.2L302 895.05" stroke="#D1D1D1" stroke-width="0.5"/>
<path opacity="0.36" d="M302 895.05L378 933.725" stroke="#D1D1D1" stroke-width="0.5"/>
<path opacity="0.3" d="M140 872.95L128 966.875" stroke="#D1D1D1" stroke-width="0.5"/>
<path opacity="0.28" d="M215 928.2L210 1027.65" stroke="#D1D1D1" stroke-width="0.5"/>
<path opacity="0.32" d="M378.001 933.725L370.001 1027.65" stroke="#D1D1D1" stroke-width="0.5"/>
<path opacity="0.38" d="M80 1171.3L165 1143.68" stroke="#D1D1D1" stroke-width="0.5"/>
<path opacity="0.4" d="M165 1143.68L245 1193.4" stroke="#D1D1D1" stroke-width="0.5"/>
<path opacity="0.36" d="M245 1193.4L330 1160.25" stroke="#D1D1D1" stroke-width="0.5"/>
<path opacity="0.34" d="M330 1160.25L400 1198.93" stroke="#D1D1D1" stroke-width="0.5"/>
<path opacity="0.28" d="M165 1143.68L155 1248.65" stroke="#D1D1D1" stroke-width="0.5"/>
<path opacity="0.28" d="M330 1160.25L320 1259.7" stroke="#D1D1D1" stroke-width="0.5"/>
<path opacity="0.38" d="M0 386.75C73.3333 217.317 145 162.067 215 221C285 279.933 356.667 243.1 430 110.5" stroke="#D1D1D1" stroke-width="0.5"/>
<path opacity="0.28" d="M0 464.1C66.6667 302.034 138.333 250.467 215 309.4C291.667 368.334 363.333 331.5 430 198.9" stroke="#D1D1D1" stroke-width="0.5"/>
<path opacity="0.35" d="M0 751.4C80 633.534 151.667 604.067 215 663C278.333 721.934 350 699.834 430 596.7" stroke="#D1D1D1" stroke-width="0.5"/>
<path opacity="0.26" d="M0 861.9C80 744.034 151.667 714.567 215 773.5C278.333 832.434 350 810.334 430 707.2" stroke="#D1D1D1" stroke-width="0.5"/>
<path opacity="0.34" d="M0 1105C73.3333 1001.87 145 972.4 215 1016.6C285 1060.8 356.667 1038.7 430 950.3" stroke="#D1D1D1" stroke-width="0.5"/>
<path opacity="0.22" d="M61.9998 107.406C63.2148 107.406 64.1998 106.318 64.1998 104.975C64.1998 103.632 63.2148 102.544 61.9998 102.544C60.7848 102.544 59.7998 103.632 59.7998 104.975C59.7998 106.318 60.7848 107.406 61.9998 107.406Z" fill="#D4A017"/>
<path opacity="0.25" d="M148 71.604C149.546 71.604 150.8 70.2188 150.8 68.51C150.8 66.8012 149.546 65.416 148 65.416C146.453 65.416 145.2 66.8012 145.2 68.51C145.2 70.2188 146.453 71.604 148 71.604Z" fill="#D4A017"/>
<path opacity="0.2" d="M230 122.876C231.767 122.876 233.2 121.293 233.2 119.34C233.2 117.387 231.767 115.804 230 115.804C228.232 115.804 226.8 117.387 226.8 119.34C226.8 121.293 228.232 122.876 230 122.876Z" fill="#D4A017"/>
<path opacity="0.22" d="M310 84.5328C311.381 84.5328 312.5 83.296 312.5 81.7703C312.5 80.2446 311.381 79.0078 310 79.0078C308.619 79.0078 307.5 80.2446 307.5 81.7703C307.5 83.296 308.619 84.5328 310 84.5328Z" fill="#D4A017"/>
<path opacity="0.18" d="M388 132.6C389.105 132.6 390 131.611 390 130.39C390 129.17 389.105 128.18 388 128.18C386.895 128.18 386 129.17 386 130.39C386 131.611 386.895 132.6 388 132.6Z" fill="#D4A017"/>
<path opacity="0.16" d="M89.9997 187.629C90.9938 187.629 91.7997 186.738 91.7997 185.64C91.7997 184.541 90.9938 183.651 89.9997 183.651C89.0056 183.651 88.1997 184.541 88.1997 185.64C88.1997 186.738 89.0056 187.629 89.9997 187.629Z" fill="#D4A017"/>
<path opacity="0.17" d="M200 212.16C201.105 212.16 202 211.171 202 209.95C202 208.73 201.105 207.74 200 207.74C198.895 207.74 198 208.73 198 209.95C198 211.171 198.895 212.16 200 212.16Z" fill="#D4A017"/>
<path opacity="0.18" d="M338 188.071C339.215 188.071 340.2 186.983 340.2 185.64C340.2 184.297 339.215 183.209 338 183.209C336.785 183.209 335.8 184.297 335.8 185.64C335.8 186.983 336.785 188.071 338 188.071Z" fill="#D4A017"/>
<path opacity="0.2" d="M39.9999 324.428C40.8836 324.428 41.5999 323.636 41.5999 322.66C41.5999 321.683 40.8836 320.892 39.9999 320.892C39.1162 320.892 38.3999 321.683 38.3999 322.66C38.3999 323.636 39.1162 324.428 39.9999 324.428Z" fill="#D4A017"/>
<path opacity="0.22" d="M107 289.51C108.105 289.51 109 288.52 109 287.3C109 286.079 108.105 285.09 107 285.09C105.895 285.09 105 286.079 105 287.3C105 288.52 105.895 289.51 107 289.51Z" fill="#D4A017"/>
<path opacity="0.24" d="M215 276.692C216.325 276.692 217.4 275.505 217.4 274.04C217.4 272.576 216.325 271.388 215 271.388C213.674 271.388 212.6 272.576 212.6 274.04C212.6 275.505 213.674 276.692 215 276.692Z" fill="#D4A017"/>
<path opacity="0.22" d="M323 289.51C324.105 289.51 325 288.52 325 287.3C325 286.079 324.105 285.09 323 285.09C321.895 285.09 321 286.079 321 287.3C321 288.52 321.895 289.51 323 289.51Z" fill="#D4A017"/>
<path opacity="0.2" d="M400 331.279C400.994 331.279 401.8 330.388 401.8 329.29C401.8 328.191 400.994 327.301 400 327.301C399.006 327.301 398.2 328.191 398.2 329.29C398.2 330.388 399.006 331.279 400 331.279Z" fill="#D4A017"/>
<path opacity="0.2" d="M38 499.46C39.1046 499.46 40 498.471 40 497.25C40 496.029 39.1046 495.04 38 495.04C36.8954 495.04 36 496.029 36 497.25C36 498.471 36.8954 499.46 38 499.46Z" fill="#D4A017"/>
<path opacity="0.24" d="M118 467.194C119.546 467.194 120.8 465.809 120.8 464.1C120.8 462.391 119.546 461.006 118 461.006C116.453 461.006 115.2 462.391 115.2 464.1C115.2 465.809 116.453 467.194 118 467.194Z" fill="#D4A017"/>
<path opacity="0.22" d="M185 522.665C186.657 522.665 188 521.181 188 519.35C188 517.519 186.657 516.035 185 516.035C183.343 516.035 182 517.519 182 519.35C182 521.181 183.343 522.665 185 522.665Z" fill="#D4A017"/>
<path opacity="0.25" d="M258 483.769C259.546 483.769 260.8 482.384 260.8 480.675C260.8 478.966 259.546 477.581 258 477.581C256.453 477.581 255.2 478.966 255.2 480.675C255.2 482.384 256.453 483.769 258 483.769Z" fill="#D4A017"/>
<path opacity="0.2" d="M340 519.571C341.215 519.571 342.2 518.483 342.2 517.14C342.2 515.797 341.215 514.709 340 514.709C338.785 514.709 337.8 515.797 337.8 517.14C337.8 518.483 338.785 519.571 340 519.571Z" fill="#D4A017"/>
<path opacity="0.19" d="M405 477.36C406.105 477.36 407 476.371 407 475.15C407 473.93 406.105 472.94 405 472.94C403.895 472.94 403 473.93 403 475.15C403 476.371 403.895 477.36 405 477.36Z" fill="#D4A017"/>
<path opacity="0.17" d="M99.9997 565.539C100.994 565.539 101.8 564.649 101.8 563.551C101.8 562.452 100.994 561.562 99.9997 561.562C99.0056 561.562 98.1997 562.452 98.1997 563.551C98.1997 564.649 99.0056 565.539 99.9997 565.539Z" fill="#D4A017"/>
<path opacity="0.17" d="M248 582.114C248.994 582.114 249.8 581.223 249.8 580.125C249.8 579.026 248.994 578.136 248 578.136C247.006 578.136 246.2 579.026 246.2 580.125C246.2 581.223 247.006 582.114 248 582.114Z" fill="#D4A017"/>
<path opacity="0.17" d="M392 574.379C392.994 574.379 393.8 573.489 393.8 572.39C393.8 571.292 392.994 570.401 392 570.401C391.006 570.401 390.2 571.292 390.2 572.39C390.2 573.489 391.006 574.379 392 574.379Z" fill="#D4A017"/>
<path opacity="0.19" d="M107 267.189C107.994 267.189 108.8 266.298 108.8 265.2C108.8 264.101 107.994 263.211 107 263.211C106.006 263.211 105.2 264.101 105.2 265.2C105.2 266.298 106.006 267.189 107 267.189Z" fill="#D4A017"/>
<path opacity="0.17" d="M215 267.189C215.994 267.189 216.8 266.298 216.8 265.2C216.8 264.101 215.994 263.211 215 263.211C214.006 263.211 213.2 264.101 213.2 265.2C213.2 266.298 214.006 267.189 215 267.189Z" fill="#D4A017"/>
<path opacity="0.19" d="M323 267.189C323.994 267.189 324.8 266.298 324.8 265.2C324.8 264.101 323.994 263.211 323 263.211C322.006 263.211 321.2 264.101 321.2 265.2C321.2 266.298 322.006 267.189 323 267.189Z" fill="#D4A017"/>
<path opacity="0.19" d="M107 532.389C107.994 532.389 108.8 531.499 108.8 530.4C108.8 529.302 107.994 528.411 107 528.411C106.006 528.411 105.2 529.302 105.2 530.4C105.2 531.499 106.006 532.389 107 532.389Z" fill="#D4A017"/>
<path opacity="0.17" d="M215 532.389C215.994 532.389 216.8 531.499 216.8 530.4C216.8 529.302 215.994 528.411 215 528.411C214.006 528.411 213.2 529.302 213.2 530.4C213.2 531.499 214.006 532.389 215 532.389Z" fill="#D4A017"/>
<path opacity="0.19" d="M323 532.389C323.994 532.389 324.8 531.499 324.8 530.4C324.8 529.302 323.994 528.411 323 528.411C322.006 528.411 321.2 529.302 321.2 530.4C321.2 531.499 322.006 532.389 323 532.389Z" fill="#D4A017"/>
<path opacity="0.19" d="M107 797.589C107.994 797.589 108.8 796.699 108.8 795.6C108.8 794.502 107.994 793.611 107 793.611C106.006 793.611 105.2 794.502 105.2 795.6C105.2 796.699 106.006 797.589 107 797.589Z" fill="#D4A017"/>
<path opacity="0.17" d="M215 797.589C215.994 797.589 216.8 796.699 216.8 795.6C216.8 794.502 215.994 793.611 215 793.611C214.006 793.611 213.2 794.502 213.2 795.6C213.2 796.699 214.006 797.589 215 797.589Z" fill="#D4A017"/>
<path opacity="0.19" d="M323 797.589C323.994 797.589 324.8 796.699 324.8 795.6C324.8 794.502 323.994 793.611 323 793.611C322.006 793.611 321.2 794.502 321.2 795.6C321.2 796.699 322.006 797.589 323 797.589Z" fill="#D4A017"/>
<path opacity="0.19" d="M107 1062.79C107.994 1062.79 108.8 1061.9 108.8 1060.8C108.8 1059.7 107.994 1058.81 107 1058.81C106.006 1058.81 105.2 1059.7 105.2 1060.8C105.2 1061.9 106.006 1062.79 107 1062.79Z" fill="#D4A017"/>
<path opacity="0.17" d="M215 1062.79C215.994 1062.79 216.8 1061.9 216.8 1060.8C216.8 1059.7 215.994 1058.81 215 1058.81C214.006 1058.81 213.2 1059.7 213.2 1060.8C213.2 1061.9 214.006 1062.79 215 1062.79Z" fill="#D4A017"/>
<path opacity="0.19" d="M323 1062.79C323.994 1062.79 324.8 1061.9 324.8 1060.8C324.8 1059.7 323.994 1058.81 323 1058.81C322.006 1058.81 321.2 1059.7 321.2 1060.8C321.2 1061.9 322.006 1062.79 323 1062.79Z" fill="#D4A017"/>
<path opacity="0.2" d="M52 908.31C53.1046 908.31 54 907.32 54 906.1C54 904.879 53.1046 903.89 52 903.89C50.8954 903.89 50 904.879 50 906.1C50 907.32 50.8954 908.31 52 908.31Z" fill="#D4A017"/>
<path opacity="0.24" d="M140 876.044C141.546 876.044 142.8 874.659 142.8 872.95C142.8 871.242 141.546 869.856 140 869.856C138.453 869.856 137.2 871.242 137.2 872.95C137.2 874.659 138.453 876.044 140 876.044Z" fill="#D4A017"/>
<path opacity="0.22" d="M215 931.736C216.767 931.736 218.2 930.153 218.2 928.2C218.2 926.247 216.767 924.664 215 924.664C213.232 924.664 211.8 926.247 211.8 928.2C211.8 930.153 213.232 931.736 215 931.736Z" fill="#D4A017"/>
<path opacity="0.23" d="M302 897.812C303.381 897.812 304.5 896.575 304.5 895.05C304.5 893.524 303.381 892.287 302 892.287C300.619 892.287 299.5 893.524 299.5 895.05C299.5 896.575 300.619 897.812 302 897.812Z" fill="#D4A017"/>
<path opacity="0.21" d="M378 936.156C379.215 936.156 380.2 935.068 380.2 933.725C380.2 932.382 379.215 931.294 378 931.294C376.785 931.294 375.8 932.382 375.8 933.725C375.8 935.068 376.785 936.156 378 936.156Z" fill="#D4A017"/>
<path opacity="0.17" d="M128 968.864C128.994 968.864 129.8 967.973 129.8 966.875C129.8 965.776 128.994 964.886 128 964.886C127.006 964.886 126.2 965.776 126.2 966.875C126.2 967.973 127.006 968.864 128 968.864Z" fill="#D4A017"/>
<path opacity="0.18" d="M210 1029.86C211.105 1029.86 212 1028.87 212 1027.65C212 1026.43 211.105 1025.44 210 1025.44C208.895 1025.44 208 1026.43 208 1027.65C208 1028.87 208.895 1029.86 210 1029.86Z" fill="#D4A017"/>
<path opacity="0.17" d="M370 1029.64C370.994 1029.64 371.8 1028.75 371.8 1027.65C371.8 1026.55 370.994 1025.66 370 1025.66C369.006 1025.66 368.2 1026.55 368.2 1027.65C368.2 1028.75 369.006 1029.64 370 1029.64Z" fill="#D4A017"/>
<path opacity="0.2" d="M80 1173.51C81.1046 1173.51 82 1172.52 82 1171.3C82 1170.08 81.1046 1169.09 80 1169.09C78.8954 1169.09 78 1170.08 78 1171.3C78 1172.52 78.8954 1173.51 80 1173.51Z" fill="#D4A017"/>
<path opacity="0.24" d="M165 1146.77C166.546 1146.77 167.8 1145.38 167.8 1143.68C167.8 1141.97 166.546 1140.58 165 1140.58C163.453 1140.58 162.2 1141.97 162.2 1143.68C162.2 1145.38 163.453 1146.77 165 1146.77Z" fill="#D4A017"/>
<path opacity="0.22" d="M245 1196.71C246.657 1196.71 248 1195.23 248 1193.4C248 1191.57 246.657 1190.08 245 1190.08C243.343 1190.08 242 1191.57 242 1193.4C242 1195.23 243.343 1196.71 245 1196.71Z" fill="#D4A017"/>
<path opacity="0.23" d="M330 1163.01C331.381 1163.01 332.5 1161.78 332.5 1160.25C332.5 1158.72 331.381 1157.49 330 1157.49C328.619 1157.49 327.5 1158.72 327.5 1160.25C327.5 1161.78 328.619 1163.01 330 1163.01Z" fill="#D4A017"/>
<path opacity="0.19" d="M400 1201.13C401.105 1201.13 402 1200.15 402 1198.92C402 1197.7 401.105 1196.71 400 1196.71C398.895 1196.71 398 1197.7 398 1198.92C398 1200.15 398.895 1201.13 400 1201.13Z" fill="#D4A017"/>
<path opacity="0.17" d="M155 1250.64C155.994 1250.64 156.8 1249.75 156.8 1248.65C156.8 1247.55 155.994 1246.66 155 1246.66C154.006 1246.66 153.2 1247.55 153.2 1248.65C153.2 1249.75 154.006 1250.64 155 1250.64Z" fill="#D4A017"/>
<path opacity="0.17" d="M320 1261.69C320.994 1261.69 321.8 1260.8 321.8 1259.7C321.8 1258.6 320.994 1257.71 320 1257.71C319.006 1257.71 318.2 1258.6 318.2 1259.7C318.2 1260.8 319.006 1261.69 320 1261.69Z" fill="#D4A017"/>
<path opacity="0.18" d="M27.9998 43.3161C28.6625 43.3161 29.1998 42.7224 29.1998 41.9901C29.1998 41.2577 28.6625 40.6641 27.9998 40.6641C27.3371 40.6641 26.7998 41.2577 26.7998 41.9901C26.7998 42.7224 27.3371 43.3161 27.9998 43.3161Z" fill="#D4A017"/>
<path opacity="0.15" d="M185 25.4151C185.552 25.4151 186 24.9204 186 24.3101C186 23.6998 185.552 23.2051 185 23.2051C184.448 23.2051 184 23.6998 184 24.3101C184 24.9204 184.448 25.4151 185 25.4151Z" fill="#D4A017"/>
<path opacity="0.19" d="M355 54.5872C355.773 54.5872 356.4 53.8946 356.4 53.0402C356.4 52.1858 355.773 51.4932 355 51.4932C354.226 51.4932 353.6 52.1858 353.6 53.0402C353.6 53.8946 354.226 54.5872 355 54.5872Z" fill="#D4A017"/>
<path opacity="0.15" d="M415 222.105C415.552 222.105 416 221.61 416 221C416 220.39 415.552 219.895 415 219.895C414.448 219.895 414 220.39 414 221C414 221.61 414.448 222.105 415 222.105Z" fill="#D4A017"/>
<path opacity="0.17" d="M17.9998 377.026C18.6625 377.026 19.1998 376.432 19.1998 375.7C19.1998 374.968 18.6625 374.374 17.9998 374.374C17.3371 374.374 16.7998 374.968 16.7998 375.7C16.7998 376.432 17.3371 377.026 17.9998 377.026Z" fill="#D4A017"/>
<path opacity="0.16" d="M418 421.005C418.552 421.005 419 420.51 419 419.9C419 419.29 418.552 418.795 418 418.795C417.448 418.795 417 419.29 417 419.9C417 420.51 417.448 421.005 418 421.005Z" fill="#D4A017"/>
<path opacity="0.17" d="M21.9998 620.126C22.6625 620.126 23.1998 619.532 23.1998 618.8C23.1998 618.067 22.6625 617.474 21.9998 617.474C21.3371 617.474 20.7998 618.067 20.7998 618.8C20.7998 619.532 21.3371 620.126 21.9998 620.126Z" fill="#D4A017"/>
<path opacity="0.16" d="M415 686.205C415.552 686.205 416 685.71 416 685.1C416 684.49 415.552 683.995 415 683.995C414.448 683.995 414 684.49 414 685.1C414 685.71 414.448 686.205 415 686.205Z" fill="#D4A017"/>
<path opacity="0.17" d="M17.9998 841.126C18.6625 841.126 19.1998 840.532 19.1998 839.8C19.1998 839.067 18.6625 838.474 17.9998 838.474C17.3371 838.474 16.7998 839.067 16.7998 839.8C16.7998 840.532 17.3371 841.126 17.9998 841.126Z" fill="#D4A017"/>
<path opacity="0.16" d="M412 885.106C412.552 885.106 413 884.611 413 884.001C413 883.39 412.552 882.896 412 882.896C411.448 882.896 411 883.39 411 884.001C411 884.611 411.448 885.106 412 885.106Z" fill="#D4A017"/>
<path opacity="0.17" d="M24.9998 1106.33C25.6625 1106.33 26.1998 1105.73 26.1998 1105C26.1998 1104.27 25.6625 1103.67 24.9998 1103.67C24.3371 1103.67 23.7998 1104.27 23.7998 1105C23.7998 1105.73 24.3371 1106.33 24.9998 1106.33Z" fill="#D4A017"/>
<path opacity="0.16" d="M415 1216.6C415.552 1216.6 416 1216.11 416 1215.5C416 1214.89 415.552 1214.39 415 1214.39C414.448 1214.39 414 1214.89 414 1215.5C414 1216.11 414.448 1216.6 415 1216.6Z" fill="#D4A017"/>
<path opacity="0.15" d="M200 1305.23C200.663 1305.23 201.2 1304.63 201.2 1303.9C201.2 1303.17 200.663 1302.57 200 1302.57C199.337 1302.57 198.8 1303.17 198.8 1303.9C198.8 1304.63 199.337 1305.23 200 1305.23Z" fill="#D4A017"/>
<path opacity="0.14" d="M290 1288.43C290.552 1288.43 291 1287.94 291 1287.32C291 1286.71 290.552 1286.22 290 1286.22C289.448 1286.22 289 1286.71 289 1287.32C289 1287.94 289.448 1288.43 290 1288.43Z" fill="#D4A017"/>
<path opacity="0.14" d="M420 1288.43C420.552 1288.43 421 1287.94 421 1287.32C421 1286.71 420.552 1286.22 420 1286.22C419.448 1286.22 419 1286.71 419 1287.32C419 1287.94 419.448 1288.43 420 1288.43Z" fill="#D4A017"/>
<path opacity="0.19" d="M110 217.685C111.105 217.685 112 216.696 112 215.475C112 214.255 111.105 213.265 110 213.265C108.895 213.265 108 214.255 108 215.475C108 216.696 108.895 217.685 110 217.685Z" fill="#D4A017"/>
<path opacity="0.21" d="M215 223.652C216.325 223.652 217.4 222.465 217.4 221C217.4 219.535 216.325 218.348 215 218.348C213.674 218.348 212.6 219.535 212.6 221C212.6 222.465 213.674 223.652 215 223.652Z" fill="#D4A017"/>
<path opacity="0.19" d="M318 243.1C319.105 243.1 320 242.111 320 240.89C320 239.67 319.105 238.68 318 238.68C316.895 238.68 316 239.67 316 240.89C316 242.111 316.895 243.1 318 243.1Z" fill="#D4A017"/>
<path opacity="0.19" d="M112 656.37C113.105 656.37 114 655.381 114 654.16C114 652.94 113.105 651.95 112 651.95C110.895 651.95 110 652.94 110 654.16C110 655.381 110.895 656.37 112 656.37Z" fill="#D4A017"/>
<path opacity="0.21" d="M215 665.431C216.215 665.431 217.2 664.343 217.2 663C217.2 661.658 216.215 660.569 215 660.569C213.785 660.569 212.8 661.658 212.8 663C212.8 664.343 213.785 665.431 215 665.431Z" fill="#D4A017"/>
<path opacity="0.19" d="M316 678.47C317.105 678.47 318 677.48 318 676.26C318 675.039 317.105 674.05 316 674.05C314.895 674.05 314 675.039 314 676.26C314 677.48 314.895 678.47 316 678.47Z" fill="#D4A017"/>
<path opacity="0.19" d="M110 996.71C111.105 996.71 112 995.721 112 994.5C112 993.279 111.105 992.29 110 992.29C108.895 992.29 108 993.279 108 994.5C108 995.721 108.895 996.71 110 996.71Z" fill="#D4A017"/>
<path opacity="0.2" d="M215 1019.03C216.215 1019.03 217.2 1017.94 217.2 1016.6C217.2 1015.26 216.215 1014.17 215 1014.17C213.785 1014.17 212.8 1015.26 212.8 1016.6C212.8 1017.94 213.785 1019.03 215 1019.03Z" fill="#D4A017"/>
<path opacity="0.18" d="M318 994.5C319.105 994.5 320 993.511 320 992.29C320 991.07 319.105 990.08 318 990.08C316.895 990.08 316 991.07 316 992.29C316 993.511 316.895 994.5 318 994.5Z" fill="#D4A017"/>
</g>
<defs>
<clipPath id="clip0_286_19453">
<rect width="430" height="1326" fill="white"/>
</clipPath>
</defs>
</svg>
