<svg width="241" height="1112" viewBox="0 0 241 1112" fill="none" xmlns="http://www.w3.org/2000/svg">
<path d="M62.476 0.650171C91.1879 17.5572 126.803 73.7804 155.514 90.6874C180.325 111.196 205.735 170.22 230.545 190.729C221.642 221.942 177.424 269.561 168.52 300.774" stroke="#E5C185" stroke-opacity="0.32" stroke-width="1.3" stroke-linecap="round" stroke-linejoin="round"/>
<path d="M75.4814 410.82C62.6761 440.332 13.2557 481.349 0.450381 510.861C19.0581 535.471 29.8625 596.296 48.4702 620.907C80.6835 637.013 123.301 694.837 155.514 710.944" stroke="#CBD5E0" stroke-opacity="0.2" stroke-width="0.9" stroke-linecap="round" stroke-linejoin="round" stroke-dasharray="5 8"/>
<path d="M240.55 810.985C232.746 839.297 193.33 882.715 185.527 911.026C167.72 941.739 108.295 980.355 90.4876 1011.07C115.998 1031.38 143.009 1090.8 168.52 1111.11" stroke="#CBD5E0" stroke-opacity="0.2" stroke-width="0.9" stroke-linecap="round" stroke-linejoin="round" stroke-dasharray="5 8"/>
<path d="M168.52 300.774C117.832 337.456 86.8194 374.138 75.4814 410.82" stroke="#E5C185" stroke-opacity="0.2" stroke-width="0.9" stroke-linecap="round" stroke-dasharray="4 8"/>
<path d="M155.514 710.944C164.185 744.291 192.53 777.638 240.55 810.985" stroke="#E5C185" stroke-opacity="0.2" stroke-width="0.9" stroke-linecap="round" stroke-dasharray="4 8"/>
</svg>
