<svg width="430" height="1103" viewBox="0 0 430 1103" fill="none" xmlns="http://www.w3.org/2000/svg">
<g clip-path="url(#clip0_367_9771)">
<g clip-path="url(#clip1_367_9771)">
<path d="M430 0H0V1103H430V0Z" fill="url(#paint0_linear_367_9771)"/>
<path d="M215 331.373C469.051 331.373 675 151.221 675 -71.0086C675 -293.238 469.051 -473.391 215 -473.391C-39.051 -473.391 -245 -293.238 -245 -71.0086C-245 151.221 -39.051 331.373 215 331.373Z" fill="#E5C185" fill-opacity="0.1"/>
<path d="M215 201.191C380.685 201.191 515 79.3231 515 -71.0086C515 -221.34 380.685 -343.208 215 -343.208C49.3146 -343.208 -85 -221.34 -85 -71.0086C-85 79.3231 49.3146 201.191 215 201.191Z" fill="#E5C185" fill-opacity="0.08"/>
<path d="M215 366.878C413.823 366.878 575 229.114 575 59.1738C575 -110.766 413.823 -248.53 215 -248.53C16.1775 -248.53 -145 -110.766 -145 59.1738C-145 229.114 16.1775 366.878 215 366.878Z" fill="#E5C185" fill-opacity="0.07"/>
<path d="M215 248.53C330.98 248.53 425 163.752 425 59.1738C425 -45.4047 330.98 -130.182 215 -130.182C99.0202 -130.182 5 -45.4047 5 59.1738C5 163.752 99.0202 248.53 215 248.53Z" fill="#E5C185" fill-opacity="0.06"/>
<path d="M370 284.034C485.98 284.034 580 193.958 580 82.8433C580 -28.2714 485.98 -118.348 370 -118.348C254.02 -118.348 160 -28.2714 160 82.8433C160 193.958 254.02 284.034 370 284.034Z" fill="#E5C185" fill-opacity="0.06"/>
<path d="M370 189.356C430.751 189.356 480 141.669 480 82.8434C480 24.0179 430.751 -23.6695 370 -23.6695C309.249 -23.6695 260 24.0179 260 82.8434C260 141.669 309.249 189.356 370 189.356Z" fill="#E5C185" fill-opacity="0.05"/>
<path d="M55 307.704C159.934 307.704 245 228.225 245 130.182C245 32.14 159.934 -47.3391 55 -47.3391C-49.9341 -47.3391 -135 32.14 -135 130.182C-135 228.225 -49.9341 307.704 55 307.704Z" fill="#E5C185" fill-opacity="0.055"/>
<path d="M55 218.943C107.467 218.943 150 179.204 150 130.182C150 81.1612 107.467 41.4217 55 41.4217C2.53295 41.4217 -40 81.1612 -40 130.182C-40 179.204 2.53295 218.943 55 218.943Z" fill="#E5C185" fill-opacity="0.04"/>
<path d="M215 414.217C308.888 414.217 385 345.335 385 260.365C385 175.395 308.888 106.513 215 106.513C121.112 106.513 45 175.395 45 260.365C45 345.335 121.112 414.217 215 414.217Z" fill="#E5C185" fill-opacity="0.07"/>
<path d="M215 337.291C261.944 337.291 300 302.85 300 260.365C300 217.88 261.944 183.439 215 183.439C168.056 183.439 130 217.88 130 260.365C130 302.85 168.056 337.291 215 337.291Z" fill="#E5C185" fill-opacity="0.06"/>
<path d="M215 295.869C235.987 295.869 253 279.973 253 260.365C253 240.756 235.987 224.86 215 224.86C194.013 224.86 177 240.756 177 260.365C177 279.973 194.013 295.869 215 295.869Z" fill="#E5C185" fill-opacity="0.055"/>
<path d="M130 579.903C218.366 579.903 290 521.619 290 449.721C290 377.823 218.366 319.539 130 319.539C41.6344 319.539 -30 377.823 -30 449.721C-30 521.619 41.6344 579.903 130 579.903Z" fill="#E5C185" fill-opacity="0.041"/>
<path d="M320 538.482C397.32 538.482 460 488.145 460 426.051C460 363.958 397.32 313.621 320 313.621C242.68 313.621 180 363.958 180 426.051C180 488.145 242.68 538.482 320 538.482Z" fill="#E5C185" fill-opacity="0.04"/>
<path d="M0 0H430" stroke="#1A1C1E" stroke-opacity="0.052" stroke-width="0.4"/>
<path d="M0 47.3391H430" stroke="#1A1C1E" stroke-opacity="0.052" stroke-width="0.4"/>
<path d="M0 94.6781H430" stroke="#1A1C1E" stroke-opacity="0.052" stroke-width="0.4"/>
<path d="M0 142.017H430" stroke="#1A1C1E" stroke-opacity="0.052" stroke-width="0.4"/>
<path d="M0 189.356H430" stroke="#1A1C1E" stroke-opacity="0.052" stroke-width="0.4"/>
<path d="M0 236.695H430" stroke="#1A1C1E" stroke-opacity="0.052" stroke-width="0.4"/>
<path d="M0 284.034H430" stroke="#1A1C1E" stroke-opacity="0.052" stroke-width="0.4"/>
<path d="M0 331.373H430" stroke="#1A1C1E" stroke-opacity="0.052" stroke-width="0.4"/>
<path d="M0 378.712H430" stroke="#1A1C1E" stroke-opacity="0.052" stroke-width="0.4"/>
<path d="M0 426.052H430" stroke="#1A1C1E" stroke-opacity="0.052" stroke-width="0.4"/>
<path d="M0 473.391H430" stroke="#1A1C1E" stroke-opacity="0.052" stroke-width="0.4"/>
<path d="M0 520.73H430" stroke="#1A1C1E" stroke-opacity="0.045" stroke-width="0.4"/>
<path d="M0 568.069H430" stroke="#1A1C1E" stroke-opacity="0.037" stroke-width="0.4"/>
<path d="M0 615.408H430" stroke="#1A1C1E" stroke-opacity="0.03" stroke-width="0.4"/>
<path d="M0 662.747H430" stroke="#1A1C1E" stroke-opacity="0.022" stroke-width="0.4"/>
<path d="M0 710.086H430" stroke="#1A1C1E" stroke-opacity="0.015" stroke-width="0.4"/>
<path d="M0 757.425H430" stroke="#1A1C1E" stroke-opacity="0.01" stroke-width="0.4"/>
<path d="M0 0V828.433" stroke="#1A1C1E" stroke-opacity="0.04" stroke-width="0.4"/>
<path d="M40 0V828.433" stroke="#1A1C1E" stroke-opacity="0.04" stroke-width="0.4"/>
<path d="M80 0V828.433" stroke="#1A1C1E" stroke-opacity="0.04" stroke-width="0.4"/>
<path d="M120 0V828.433" stroke="#1A1C1E" stroke-opacity="0.04" stroke-width="0.4"/>
<path d="M160 0V828.433" stroke="#1A1C1E" stroke-opacity="0.04" stroke-width="0.4"/>
<path d="M200 0V828.433" stroke="#1A1C1E" stroke-opacity="0.04" stroke-width="0.4"/>
<path d="M240 0V828.433" stroke="#1A1C1E" stroke-opacity="0.04" stroke-width="0.4"/>
<path d="M280 0V828.433" stroke="#1A1C1E" stroke-opacity="0.04" stroke-width="0.4"/>
<path d="M320 0V828.433" stroke="#1A1C1E" stroke-opacity="0.04" stroke-width="0.4"/>
<path d="M360 0V828.433" stroke="#1A1C1E" stroke-opacity="0.04" stroke-width="0.4"/>
<path d="M400 0V828.433" stroke="#1A1C1E" stroke-opacity="0.04" stroke-width="0.4"/>
<path d="M245.771 431.692C429.445 385.488 564.565 271.326 547.57 176.705C530.576 82.0836 367.903 42.8337 184.229 89.0378C0.555934 135.242 -134.564 249.403 -117.57 344.025C-100.576 438.646 62.0978 477.896 245.771 431.692Z" stroke="white" stroke-opacity="0.1" stroke-width="0.6"/>
<path d="M236.831 381.914C369.184 348.62 466.703 267.21 454.647 200.08C442.59 132.95 325.523 105.521 193.17 138.815C60.8167 172.109 -36.7026 253.519 -24.6458 320.649C-12.5891 387.779 104.478 415.208 236.831 381.914Z" stroke="white" stroke-opacity="0.09" stroke-width="0.5"/>
<path d="M229.139 339.083C314.493 317.611 377.356 264.962 369.548 221.488C361.74 178.013 286.217 160.176 200.863 181.647C115.509 203.118 52.6452 255.767 60.4534 299.242C68.2616 342.717 143.785 360.554 229.139 339.083Z" stroke="white" stroke-opacity="0.11" stroke-width="0.6"/>
<path d="M223.317 306.669C273.017 294.167 309.583 263.301 304.99 237.727C300.397 212.154 256.384 201.558 206.684 214.06C156.984 226.562 120.418 257.429 125.011 283.002C129.604 308.575 173.617 319.172 223.317 306.669Z" stroke="white" stroke-opacity="0.13" stroke-width="0.55"/>
<path d="M219.159 283.517C244.009 277.266 262.292 261.833 259.995 249.046C257.699 236.259 235.692 230.961 210.842 237.213C185.993 243.464 167.709 258.897 170.006 271.684C172.302 284.47 194.309 289.768 219.159 283.517Z" stroke="white" stroke-opacity="0.15" stroke-width="0.6"/>
<path d="M290.781 186.185C390.635 233.93 484.664 234.316 500.801 187.046C516.939 139.777 449.073 62.7516 349.22 15.0061C249.366 -32.7395 155.337 -33.1252 139.2 14.1446C123.062 61.4143 190.928 138.439 290.781 186.185Z" stroke="white" stroke-opacity="0.07" stroke-width="0.4"/>
<path d="M302.769 151.071C361.657 179.229 417.11 179.456 426.627 151.579C436.144 123.702 396.121 78.2773 337.233 50.1197C278.345 21.9621 222.891 21.7346 213.375 49.6116C203.858 77.4886 243.881 122.914 302.769 151.071Z" stroke="white" stroke-opacity="0.08" stroke-width="0.4"/>
<path d="M125.426 262.886C199.885 219.907 248.862 157.444 234.82 123.371C220.777 89.2976 149.034 96.5173 74.575 139.496C0.116429 182.475 -48.8607 244.938 -34.8186 279.011C-20.7765 313.084 50.9675 305.865 125.426 262.886Z" stroke="white" stroke-opacity="0.07" stroke-width="0.4"/>
<path d="M0 59.1738L430 248.53" stroke="white" stroke-opacity="0.07" stroke-width="0.5" stroke-linecap="round"/>
<path d="M0 136.1L430 349.126" stroke="white" stroke-opacity="0.055" stroke-width="0.4" stroke-linecap="round"/>
<path d="M75 0L430 325.456" stroke="#E5C185" stroke-opacity="0.13" stroke-width="0.5" stroke-linecap="round"/>
<path d="M145 0L430 224.861" stroke="#E5C185" stroke-opacity="0.09" stroke-width="0.4" stroke-linecap="round"/>
<path d="M0 230.778L390 497.06" stroke="white" stroke-opacity="0.05" stroke-width="0.4" stroke-linecap="round"/>
<path d="M295 0L430 153.852" stroke="#F5E4A0" stroke-opacity="0.08" stroke-width="0.4" stroke-linecap="round"/>
<path d="M0 366.878L260 568.069" stroke="white" stroke-opacity="0.04" stroke-width="0.35" stroke-linecap="round"/>
<path d="M0 177.521C100 76.926 200 136.1 215 260.365" stroke="#E5C185" stroke-opacity="0.19" stroke-width="0.7" stroke-linecap="round"/>
<path d="M215 260.365C285 201.191 385 127.815 430 80.4764" stroke="#E5C185" stroke-opacity="0.16" stroke-width="0.65" stroke-linecap="round"/>
<path d="M0 295.869C85 218.943 165 272.2 215 260.365" stroke="white" stroke-opacity="0.1" stroke-width="0.5" stroke-linecap="round"/>
<path d="M215 260.365C305 295.869 385 345.575 430 321.906" stroke="white" stroke-opacity="0.09" stroke-width="0.5" stroke-linecap="round"/>
<path d="M35 396.465C120 319.539 182 349.126 215 260.365" stroke="white" stroke-opacity="0.07" stroke-width="0.45" stroke-linecap="round"/>
<path d="M215 260.365C265 402.382 328 443.804 430 420.134" stroke="white" stroke-opacity="0.065" stroke-width="0.45" stroke-linecap="round"/>
<path d="M0 467.473C125 420.134 205 461.556 318 506.528" stroke="white" stroke-opacity="0.043" stroke-width="0.35" stroke-linecap="round"/>
<path d="M105 556.234C205 506.528 308 530.197 388 579.903" stroke="white" stroke-opacity="0.024" stroke-width="0.3" stroke-linecap="round"/>
<path d="M85.5996 249.985C88.9133 249.985 91.5996 246.806 91.5996 242.884C91.5996 238.962 88.9133 235.783 85.5996 235.783C82.2859 235.783 79.5996 238.962 79.5996 242.884C79.5996 246.806 82.2859 249.985 85.5996 249.985Z" stroke="white" stroke-opacity="0.18" stroke-width="0.6"/>
<path d="M85.6004 245.488C86.8154 245.488 87.8004 244.322 87.8004 242.884C87.8004 241.446 86.8154 240.28 85.6004 240.28C84.3854 240.28 83.4004 241.446 83.4004 242.884C83.4004 244.322 84.3854 245.488 85.6004 245.488Z" fill="white" fill-opacity="0.3"/>
<path d="M159.6 303.241C162.361 303.241 164.6 300.592 164.6 297.324C164.6 294.056 162.361 291.406 159.6 291.406C156.838 291.406 154.6 294.056 154.6 297.324C154.6 300.592 156.838 303.241 159.6 303.241Z" stroke="#E5C185" stroke-opacity="0.22" stroke-width="0.6"/>
<path d="M159.6 299.691C160.704 299.691 161.6 298.631 161.6 297.324C161.6 296.017 160.704 294.957 159.6 294.957C158.495 294.957 157.6 296.017 157.6 297.324C157.6 298.631 158.495 299.691 159.6 299.691Z" fill="#E5C185" fill-opacity="0.46"/>
<path d="M305.6 261.82C308.913 261.82 311.6 258.64 311.6 254.719C311.6 250.797 308.913 247.618 305.6 247.618C302.286 247.618 299.6 250.797 299.6 254.719C299.6 258.64 302.286 261.82 305.6 261.82Z" stroke="white" stroke-opacity="0.17" stroke-width="0.6"/>
<path d="M305.6 257.322C306.815 257.322 307.8 256.157 307.8 254.719C307.8 253.281 306.815 252.115 305.6 252.115C304.385 252.115 303.4 253.281 303.4 254.719C303.4 256.157 304.385 257.322 305.6 257.322Z" fill="white" fill-opacity="0.28"/>
<path d="M381.6 234.6C384.361 234.6 386.6 231.95 386.6 228.682C386.6 225.414 384.361 222.765 381.6 222.765C378.838 222.765 376.6 225.414 376.6 228.682C376.6 231.95 378.838 234.6 381.6 234.6Z" stroke="#F5E4A0" stroke-opacity="0.19" stroke-width="0.6"/>
<path d="M381.6 230.812C382.594 230.812 383.4 229.859 383.4 228.682C383.4 227.506 382.594 226.552 381.6 226.552C380.606 226.552 379.8 227.506 379.8 228.682C379.8 229.859 380.606 230.812 381.6 230.812Z" fill="#F5E4A0" fill-opacity="0.36"/>
<path d="M47.5996 378.984C50.361 378.984 52.5996 376.334 52.5996 373.066C52.5996 369.798 50.361 367.149 47.5996 367.149C44.8382 367.149 42.5996 369.798 42.5996 373.066C42.5996 376.334 44.8382 378.984 47.5996 378.984Z" stroke="white" stroke-opacity="0.14" stroke-width="0.6"/>
<path d="M47.5998 375.197C48.5939 375.197 49.3998 374.243 49.3998 373.066C49.3998 371.89 48.5939 370.936 47.5998 370.936C46.6057 370.936 45.7998 371.89 45.7998 373.066C45.7998 374.243 46.6057 375.197 47.5998 375.197Z" fill="white" fill-opacity="0.24"/>
<path d="M352.6 356.498C355.913 356.498 358.6 353.318 358.6 349.397C358.6 345.475 355.913 342.296 352.6 342.296C349.286 342.296 346.6 345.475 346.6 349.397C346.6 353.318 349.286 356.498 352.6 356.498Z" stroke="#E5C185" stroke-opacity="0.21" stroke-width="0.6"/>
<path d="M352.6 351.764C353.704 351.764 354.6 350.704 354.6 349.397C354.6 348.09 353.704 347.03 352.6 347.03C351.495 347.03 350.6 348.09 350.6 349.397C350.6 350.704 351.495 351.764 352.6 351.764Z" fill="#E5C185" fill-opacity="0.42"/>
<path d="M401.6 409.162C404.085 409.162 406.1 406.778 406.1 403.837C406.1 400.895 404.085 398.511 401.6 398.511C399.114 398.511 397.1 400.895 397.1 403.837C397.1 406.778 399.114 409.162 401.6 409.162Z" stroke="white" stroke-opacity="0.15" stroke-width="0.6"/>
<path d="M401.6 405.73C402.484 405.73 403.2 404.882 403.2 403.837C403.2 402.791 402.484 401.943 401.6 401.943C400.716 401.943 400 402.791 400 403.837C400 404.882 400.716 405.73 401.6 405.73Z" fill="white" fill-opacity="0.26"/>
<path d="M37.5996 523.368C39.8087 523.368 41.5996 521.248 41.5996 518.634C41.5996 516.019 39.8087 513.9 37.5996 513.9C35.3905 513.9 33.5996 516.019 33.5996 518.634C33.5996 521.248 35.3905 523.368 37.5996 523.368Z" stroke="white" stroke-opacity="0.11" stroke-width="0.6"/>
<path d="M37.5996 520.409C38.428 520.409 39.0996 519.614 39.0996 518.634C39.0996 517.653 38.428 516.859 37.5996 516.859C36.7712 516.859 36.0996 517.653 36.0996 518.634C36.0996 519.614 36.7712 520.409 37.5996 520.409Z" fill="white" fill-opacity="0.19"/>
<path d="M412.6 541.12C414.809 541.12 416.6 539.001 416.6 536.386C416.6 533.772 414.809 531.652 412.6 531.652C410.39 531.652 408.6 533.772 408.6 536.386C408.6 539.001 410.39 541.12 412.6 541.12Z" stroke="#E5C185" stroke-opacity="0.13" stroke-width="0.6"/>
<path d="M412.6 538.161C413.428 538.161 414.1 537.366 414.1 536.386C414.1 535.406 413.428 534.611 412.6 534.611C411.771 534.611 411.1 535.406 411.1 536.386C411.1 537.366 411.771 538.161 412.6 538.161Z" fill="#E5C185" fill-opacity="0.23"/>
<path d="M135.6 594.376C137.809 594.376 139.6 592.257 139.6 589.642C139.6 587.028 137.809 584.909 135.6 584.909C133.39 584.909 131.6 587.028 131.6 589.642C131.6 592.257 133.39 594.376 135.6 594.376Z" stroke="white" stroke-opacity="0.09" stroke-width="0.6"/>
<path d="M135.6 591.418C136.428 591.418 137.1 590.623 137.1 589.643C137.1 588.662 136.428 587.867 135.6 587.867C134.771 587.867 134.1 588.662 134.1 589.643C134.1 590.623 134.771 591.418 135.6 591.418Z" fill="white" fill-opacity="0.15"/>
<path d="M322.6 635.798C324.809 635.798 326.6 633.679 326.6 631.064C326.6 628.45 324.809 626.33 322.6 626.33C320.39 626.33 318.6 628.45 318.6 631.064C318.6 633.679 320.39 635.798 322.6 635.798Z" stroke="white" stroke-opacity="0.08" stroke-width="0.6"/>
<path d="M322.6 632.839C323.428 632.839 324.1 632.045 324.1 631.064C324.1 630.084 323.428 629.289 322.6 629.289C321.771 629.289 321.1 630.084 321.1 631.064C321.1 632.045 321.771 632.839 322.6 632.839Z" fill="white" fill-opacity="0.13"/>
<path d="M61.6002 418.512C61.8211 418.512 62.0002 418.3 62.0002 418.038C62.0002 417.777 61.8211 417.565 61.6002 417.565C61.3793 417.565 61.2002 417.777 61.2002 418.038C61.2002 418.3 61.3793 418.512 61.6002 418.512Z" fill="#E5C185" fill-opacity="0.196"/>
<path d="M397.6 404.428C397.876 404.428 398.1 404.164 398.1 403.837C398.1 403.51 397.876 403.245 397.6 403.245C397.323 403.245 397.1 403.51 397.1 403.837C397.1 404.164 397.323 404.428 397.6 404.428Z" fill="#E5C185" fill-opacity="0.13"/>
<path d="M354.6 753.791C354.987 753.791 355.3 753.42 355.3 752.962C355.3 752.505 354.987 752.134 354.6 752.134C354.214 752.134 353.9 752.505 353.9 752.962C353.9 753.42 354.214 753.791 354.6 753.791Z" fill="white" fill-opacity="0.091"/>
<path d="M383.6 702.191C384.208 702.191 384.7 701.608 384.7 700.889C384.7 700.17 384.208 699.587 383.6 699.587C382.992 699.587 382.5 700.17 382.5 700.889C382.5 701.608 382.992 702.191 383.6 702.191Z" fill="white" fill-opacity="0.166"/>
<path d="M146.6 232.351C147.208 232.351 147.7 231.768 147.7 231.049C147.7 230.33 147.208 229.747 146.6 229.747C145.992 229.747 145.5 230.33 145.5 231.049C145.5 231.768 145.992 232.351 146.6 232.351Z" fill="white" fill-opacity="0.157"/>
<path d="M252.6 452.714C252.765 452.714 252.9 452.555 252.9 452.359C252.9 452.163 252.765 452.004 252.6 452.004C252.434 452.004 252.3 452.163 252.3 452.359C252.3 452.555 252.434 452.714 252.6 452.714Z" fill="white" fill-opacity="0.109"/>
<path d="M397.6 700.297C397.876 700.297 398.1 700.033 398.1 699.706C398.1 699.379 397.876 699.114 397.6 699.114C397.323 699.114 397.1 699.379 397.1 699.706C397.1 700.033 397.323 700.297 397.6 700.297Z" fill="white" fill-opacity="0.166"/>
<path d="M171.6 582.542C172.152 582.542 172.6 582.012 172.6 581.358C172.6 580.705 172.152 580.175 171.6 580.175C171.047 580.175 170.6 580.705 170.6 581.358C170.6 582.012 171.047 582.542 171.6 582.542Z" fill="#E5C185" fill-opacity="0.088"/>
<path d="M173.6 574.967C173.931 574.967 174.2 574.65 174.2 574.257C174.2 573.865 173.931 573.547 173.6 573.547C173.269 573.547 173 573.865 173 574.257C173 574.65 173.269 574.967 173.6 574.967Z" fill="white" fill-opacity="0.105"/>
<path d="M99.5996 449.401C99.8758 449.401 100.1 449.136 100.1 448.809C100.1 448.482 99.8758 448.217 99.5996 448.217C99.3235 448.217 99.0996 448.482 99.0996 448.809C99.0996 449.136 99.3235 449.401 99.5996 449.401Z" fill="white" fill-opacity="0.098"/>
<path d="M340.6 339.929C341.152 339.929 341.6 339.399 341.6 338.745C341.6 338.092 341.152 337.562 340.6 337.562C340.047 337.562 339.6 338.092 339.6 338.745C339.6 339.399 340.047 339.929 340.6 339.929Z" fill="#E5C185" fill-opacity="0.192"/>
<path d="M314.6 912.613C315.097 912.613 315.5 912.136 315.5 911.548C315.5 910.96 315.097 910.483 314.6 910.483C314.103 910.483 313.7 910.96 313.7 911.548C313.7 912.136 314.103 912.613 314.6 912.613Z" fill="#E5C185" fill-opacity="0.026"/>
<path d="M55.5998 489.402C55.7655 489.402 55.8998 489.243 55.8998 489.047C55.8998 488.851 55.7655 488.692 55.5998 488.692C55.4341 488.692 55.2998 488.851 55.2998 489.047C55.2998 489.243 55.4341 489.402 55.5998 489.402Z" fill="white" fill-opacity="0.189"/>
<path d="M175.6 508.456C175.821 508.456 176 508.244 176 507.983C176 507.721 175.821 507.509 175.6 507.509C175.379 507.509 175.2 507.721 175.2 507.983C175.2 508.244 175.379 508.456 175.6 508.456Z" fill="#E5C185" fill-opacity="0.172"/>
<path d="M269.6 771.188C269.821 771.188 270 770.976 270 770.714C270 770.453 269.821 770.241 269.6 770.241C269.379 770.241 269.2 770.453 269.2 770.714C269.2 770.976 269.379 771.188 269.6 771.188Z" fill="white" fill-opacity="0.07"/>
<path d="M158.6 453.069C158.931 453.069 159.2 452.751 159.2 452.359C159.2 451.967 158.931 451.649 158.6 451.649C158.269 451.649 158 451.967 158 452.359C158 452.751 158.269 453.069 158.6 453.069Z" fill="#E5C185" fill-opacity="0.142"/>
<path d="M340.6 516.622C340.765 516.622 340.9 516.463 340.9 516.267C340.9 516.071 340.765 515.912 340.6 515.912C340.434 515.912 340.3 516.071 340.3 516.267C340.3 516.463 340.434 516.622 340.6 516.622Z" fill="#E5C185" fill-opacity="0.11"/>
<path d="M196.6 688.581C196.931 688.581 197.2 688.263 197.2 687.871C197.2 687.479 196.931 687.161 196.6 687.161C196.269 687.161 196 687.479 196 687.871C196 688.263 196.269 688.581 196.6 688.581Z" fill="#E5C185" fill-opacity="0.112"/>
<path d="M16.6 224.658C16.9314 224.658 17.2 224.34 17.2 223.948C17.2 223.556 16.9314 223.238 16.6 223.238C16.2686 223.238 16 223.556 16 223.948C16 224.34 16.2686 224.658 16.6 224.658Z" fill="white" fill-opacity="0.184"/>
<path d="M255.6 824.563C255.876 824.563 256.1 824.298 256.1 823.971C256.1 823.644 255.876 823.379 255.6 823.379C255.323 823.379 255.1 823.644 255.1 823.971C255.1 824.298 255.323 824.563 255.6 824.563Z" fill="white" fill-opacity="0.073"/>
<path d="M265.6 434.37C266.042 434.37 266.4 433.947 266.4 433.424C266.4 432.901 266.042 432.477 265.6 432.477C265.158 432.477 264.8 432.901 264.8 433.424C264.8 433.947 265.158 434.37 265.6 434.37Z" fill="white" fill-opacity="0.216"/>
<path d="M121.6 601.122C121.987 601.122 122.3 600.751 122.3 600.294C122.3 599.836 121.987 599.465 121.6 599.465C121.214 599.465 120.9 599.836 120.9 600.294C120.9 600.751 121.214 601.122 121.6 601.122Z" fill="white" fill-opacity="0.18"/>
<path d="M39.6002 857.582C39.8211 857.582 40.0002 857.37 40.0002 857.108C40.0002 856.847 39.8211 856.635 39.6002 856.635C39.3793 856.635 39.2002 856.847 39.2002 857.108C39.2002 857.37 39.3793 857.582 39.6002 857.582Z" fill="white" fill-opacity="0.055"/>
<path d="M123.6 682.072C124.208 682.072 124.7 681.489 124.7 680.77C124.7 680.051 124.208 679.468 123.6 679.468C122.992 679.468 122.5 680.051 122.5 680.77C122.5 681.489 122.992 682.072 123.6 682.072Z" fill="white" fill-opacity="0.126"/>
<path d="M120.6 804.207C120.765 804.207 120.9 804.048 120.9 803.852C120.9 803.656 120.765 803.497 120.6 803.497C120.434 803.497 120.3 803.656 120.3 803.852C120.3 804.048 120.434 804.207 120.6 804.207Z" fill="white" fill-opacity="0.091"/>
<path d="M304.6 758.643C305.042 758.643 305.4 758.219 305.4 757.696C305.4 757.173 305.042 756.749 304.6 756.749C304.158 756.749 303.8 757.173 303.8 757.696C303.8 758.219 304.158 758.643 304.6 758.643Z" fill="#E5C185" fill-opacity="0.131"/>
<path d="M28.6004 621.241C28.987 621.241 29.3004 620.87 29.3004 620.413C29.3004 619.955 28.987 619.584 28.6004 619.584C28.2138 619.584 27.9004 619.955 27.9004 620.413C27.9004 620.87 28.2138 621.241 28.6004 621.241Z" fill="white" fill-opacity="0.086"/>
<path d="M296.6 659.586C297.208 659.586 297.7 659.003 297.7 658.284C297.7 657.565 297.208 656.982 296.6 656.982C295.992 656.982 295.5 657.565 295.5 658.284C295.5 659.003 295.992 659.586 296.6 659.586Z" fill="white" fill-opacity="0.201"/>
<path d="M399.6 346.556C399.931 346.556 400.2 346.239 400.2 345.846C400.2 345.454 399.931 345.136 399.6 345.136C399.269 345.136 399 345.454 399 345.846C399 346.239 399.269 346.556 399.6 346.556Z" fill="#E5C185" fill-opacity="0.074"/>
<path d="M386.6 248.565C387.042 248.565 387.4 248.141 387.4 247.618C387.4 247.095 387.042 246.671 386.6 246.671C386.158 246.671 385.8 247.095 385.8 247.618C385.8 248.141 386.158 248.565 386.6 248.565Z" fill="white" fill-opacity="0.209"/>
<path d="M374.6 621.951C374.765 621.951 374.9 621.792 374.9 621.596C374.9 621.4 374.765 621.241 374.6 621.241C374.434 621.241 374.3 621.4 374.3 621.596C374.3 621.792 374.434 621.951 374.6 621.951Z" fill="#E5C185" fill-opacity="0.18"/>
<path d="M50.6004 692.25C50.987 692.25 51.3004 691.879 51.3004 691.421C51.3004 690.964 50.987 690.593 50.6004 690.593C50.2138 690.593 49.9004 690.964 49.9004 691.421C49.9004 691.879 50.2138 692.25 50.6004 692.25Z" fill="white" fill-opacity="0.095"/>
<path d="M243.6 279.927C243.765 279.927 243.9 279.768 243.9 279.572C243.9 279.376 243.765 279.217 243.6 279.217C243.434 279.217 243.3 279.376 243.3 279.572C243.3 279.768 243.434 279.927 243.6 279.927Z" fill="#E5C185" fill-opacity="0.143"/>
<path d="M224.6 790.833C225.152 790.833 225.6 790.304 225.6 789.65C225.6 788.996 225.152 788.466 224.6 788.466C224.047 788.466 223.6 788.996 223.6 789.65C223.6 790.304 224.047 790.833 224.6 790.833Z" fill="white" fill-opacity="0.107"/>
<path d="M84.6002 874.742C85.0973 874.742 85.5002 874.265 85.5002 873.677C85.5002 873.089 85.0973 872.612 84.6002 872.612C84.1031 872.612 83.7002 873.089 83.7002 873.677C83.7002 874.265 84.1031 874.742 84.6002 874.742Z" fill="#E5C185" fill-opacity="0.057"/>
<path d="M359.6 788.23C360.042 788.23 360.4 787.806 360.4 787.283C360.4 786.76 360.042 786.336 359.6 786.336C359.158 786.336 358.8 786.76 358.8 787.283C358.8 787.806 359.158 788.23 359.6 788.23Z" fill="white" fill-opacity="0.092"/>
<path d="M257.6 849.179C257.765 849.179 257.9 849.02 257.9 848.824C257.9 848.628 257.765 848.469 257.6 848.469C257.434 848.469 257.3 848.628 257.3 848.824C257.3 849.02 257.434 849.179 257.6 849.179Z" fill="white" fill-opacity="0.089"/>
<path d="M322.6 310.105C323.042 310.105 323.4 309.681 323.4 309.159C323.4 308.636 323.042 308.212 322.6 308.212C322.158 308.212 321.8 308.636 321.8 309.159C321.8 309.681 322.158 310.105 322.6 310.105Z" fill="#E5C185" fill-opacity="0.077"/>
<path d="M372.6 547.511C372.821 547.511 373 547.299 373 547.037C373 546.776 372.821 546.564 372.6 546.564C372.379 546.564 372.2 546.776 372.2 547.037C372.2 547.299 372.379 547.511 372.6 547.511Z" fill="#E5C185" fill-opacity="0.225"/>
<path d="M62.5996 764.797C63.1519 764.797 63.5996 764.267 63.5996 763.613C63.5996 762.96 63.1519 762.43 62.5996 762.43C62.0473 762.43 61.5996 762.96 61.5996 763.613C61.5996 764.267 62.0473 764.797 62.5996 764.797Z" fill="white" fill-opacity="0.129"/>
<path d="M55.6002 643.372C55.8211 643.372 56.0002 643.16 56.0002 642.899C56.0002 642.637 55.8211 642.426 55.6002 642.426C55.3793 642.426 55.2002 642.637 55.2002 642.899C55.2002 643.16 55.3793 643.372 55.6002 643.372Z" fill="#E5C185" fill-opacity="0.163"/>
<path d="M217.6 222.291C217.931 222.291 218.2 221.973 218.2 221.581C218.2 221.189 217.931 220.871 217.6 220.871C217.269 220.871 217 221.189 217 221.581C217 221.973 217.269 222.291 217.6 222.291Z" fill="white" fill-opacity="0.141"/>
<path d="M46.5998 261.583C47.0416 261.583 47.3998 261.159 47.3998 260.636C47.3998 260.113 47.0416 259.689 46.5998 259.689C46.158 259.689 45.7998 260.113 45.7998 260.636C45.7998 261.159 46.158 261.583 46.5998 261.583Z" fill="#E5C185" fill-opacity="0.209"/>
<path d="M68.5996 754.737C68.8758 754.737 69.0996 754.473 69.0996 754.146C69.0996 753.819 68.8758 753.554 68.5996 753.554C68.3235 753.554 68.0996 753.819 68.0996 754.146C68.0996 754.473 68.3235 754.737 68.5996 754.737Z" fill="white" fill-opacity="0.139"/>
<path d="M408.6 660.533C409.097 660.533 409.5 660.056 409.5 659.468C409.5 658.879 409.097 658.402 408.6 658.402C408.103 658.402 407.7 658.879 407.7 659.468C407.7 660.056 408.103 660.533 408.6 660.533Z" fill="white" fill-opacity="0.205"/>
<path d="M187.6 767.046C188.097 767.046 188.5 766.569 188.5 765.98C188.5 765.392 188.097 764.915 187.6 764.915C187.103 764.915 186.7 765.392 186.7 765.98C186.7 766.569 187.103 767.046 187.6 767.046Z" fill="#E5C185" fill-opacity="0.095"/>
<path d="M150.6 753.909C151.042 753.909 151.4 753.485 151.4 752.962C151.4 752.439 151.042 752.016 150.6 752.016C150.158 752.016 149.8 752.439 149.8 752.962C149.8 753.485 150.158 753.909 150.6 753.909Z" fill="#E5C185" fill-opacity="0.129"/>
<path d="M65.5998 239.097C66.0416 239.097 66.3998 238.673 66.3998 238.15C66.3998 237.627 66.0416 237.203 65.5998 237.203C65.158 237.203 64.7998 237.627 64.7998 238.15C64.7998 238.673 65.158 239.097 65.5998 239.097Z" fill="white" fill-opacity="0.174"/>
<path d="M248.6 545.262C248.876 545.262 249.1 544.997 249.1 544.67C249.1 544.344 248.876 544.079 248.6 544.079C248.323 544.079 248.1 544.344 248.1 544.67C248.1 544.997 248.323 545.262 248.6 545.262Z" fill="#E5C185" fill-opacity="0.237"/>
<path d="M66.5996 607.395C67.1519 607.395 67.5996 606.865 67.5996 606.211C67.5996 605.558 67.1519 605.028 66.5996 605.028C66.0473 605.028 65.5996 605.558 65.5996 606.211C65.5996 606.865 66.0473 607.395 66.5996 607.395Z" fill="#E5C185" fill-opacity="0.109"/>
<path d="M64.6 344.189C64.9314 344.189 65.2 343.872 65.2 343.479C65.2 343.087 64.9314 342.769 64.6 342.769C64.2686 342.769 64 343.087 64 343.479C64 343.872 64.2686 344.189 64.6 344.189Z" fill="#E5C185" fill-opacity="0.146"/>
<path d="M102.6 674.143C102.821 674.143 103 673.931 103 673.669C103 673.408 102.821 673.196 102.6 673.196C102.379 673.196 102.2 673.408 102.2 673.669C102.2 673.931 102.379 674.143 102.6 674.143Z" fill="#E5C185" fill-opacity="0.187"/>
<path d="M414.6 292.235C414.987 292.235 415.3 291.864 415.3 291.406C415.3 290.949 414.987 290.578 414.6 290.578C414.214 290.578 413.9 290.949 413.9 291.406C413.9 291.864 414.214 292.235 414.6 292.235Z" fill="white" fill-opacity="0.183"/>
<path d="M206.6 184.42C206.931 184.42 207.2 184.102 207.2 183.71C207.2 183.318 206.931 183 206.6 183C206.269 183 206 183.318 206 183.71C206 184.102 206.269 184.42 206.6 184.42Z" fill="white" fill-opacity="0.195"/>
<path d="M120.6 471.887C120.876 471.887 121.1 471.622 121.1 471.295C121.1 470.968 120.876 470.703 120.6 470.703C120.323 470.703 120.1 470.968 120.1 471.295C120.1 471.622 120.323 471.887 120.6 471.887Z" fill="white" fill-opacity="0.104"/>
<path d="M277.6 579.82C277.987 579.82 278.3 579.449 278.3 578.991C278.3 578.534 277.987 578.163 277.6 578.163C277.214 578.163 276.9 578.534 276.9 578.991C276.9 579.449 277.214 579.82 277.6 579.82Z" fill="white" fill-opacity="0.164"/>
<path d="M216.6 800.42C217.208 800.42 217.7 799.837 217.7 799.118C217.7 798.399 217.208 797.816 216.6 797.816C215.992 797.816 215.5 798.399 215.5 799.118C215.5 799.837 215.992 800.42 216.6 800.42Z" fill="#E5C185" fill-opacity="0.059"/>
<path d="M174.6 544.789C175.208 544.789 175.7 544.206 175.7 543.487C175.7 542.768 175.208 542.185 174.6 542.185C173.992 542.185 173.5 542.768 173.5 543.487C173.5 544.206 173.992 544.789 174.6 544.789Z" fill="white" fill-opacity="0.228"/>
<path d="M60.5998 891.192C61.0416 891.192 61.3998 890.768 61.3998 890.245C61.3998 889.723 61.0416 889.299 60.5998 889.299C60.158 889.299 59.7998 889.723 59.7998 890.245C59.7998 890.768 60.158 891.192 60.5998 891.192Z" fill="white" fill-opacity="0.051"/>
<path d="M191.6 538.28C191.931 538.28 192.2 537.962 192.2 537.57C192.2 537.177 191.931 536.859 191.6 536.859C191.269 536.859 191 537.177 191 537.57C191 537.962 191.269 538.28 191.6 538.28Z" fill="white" fill-opacity="0.083"/>
<path d="M38 44.9721L52 61.5408L38 78.1094L24 61.5408L38 44.9721Z" stroke="#CBD5E0" stroke-opacity="0.32" stroke-width="0.7"/>
<path d="M38 52.073L46 61.5408L38 71.0086L30 61.5408L38 52.073Z" fill="#E5C185" fill-opacity="0.11" stroke="#E5C185" stroke-opacity="0.28" stroke-width="0.5"/>
<path d="M205 19.8824C205.442 19.8824 205.8 19.4585 205.8 18.9356C205.8 18.4127 205.442 17.9888 205 17.9888C204.558 17.9888 204.2 18.4127 204.2 18.9356C204.2 19.4585 204.558 19.8824 205 19.8824Z" fill="#CBD5E0" fill-opacity="0.28"/>
<path d="M215 20.2374C215.608 20.2374 216.1 19.6546 216.1 18.9356C216.1 18.2166 215.608 17.6338 215 17.6338C214.393 17.6338 213.9 18.2166 213.9 18.9356C213.9 19.6546 214.393 20.2374 215 20.2374Z" fill="#E5C185" fill-opacity="0.5"/>
<path d="M225 19.8824C225.442 19.8824 225.8 19.4585 225.8 18.9356C225.8 18.4127 225.442 17.9888 225 17.9888C224.558 17.9888 224.2 18.4127 224.2 18.9356C224.2 19.4585 224.558 19.8824 225 19.8824Z" fill="#CBD5E0" fill-opacity="0.28"/>
<path d="M0 47.3391H7" stroke="#CBD5E0" stroke-opacity="0.2" stroke-width="0.5"/>
<path d="M0 142.017H7" stroke="#CBD5E0" stroke-opacity="0.2" stroke-width="0.5"/>
<path d="M0 236.695H7" stroke="#CBD5E0" stroke-opacity="0.2" stroke-width="0.5"/>
<path d="M0 331.373H7" stroke="#CBD5E0" stroke-opacity="0.2" stroke-width="0.5"/>
<path d="M0 426.052H7" stroke="#CBD5E0" stroke-opacity="0.2" stroke-width="0.5"/>
<path d="M423 71.0086H430" stroke="#CBD5E0" stroke-opacity="0.2" stroke-width="0.5"/>
<path d="M423 165.687H430" stroke="#CBD5E0" stroke-opacity="0.2" stroke-width="0.5"/>
<path d="M423 260.365H430" stroke="#CBD5E0" stroke-opacity="0.2" stroke-width="0.5"/>
<path d="M423 355.043H430" stroke="#CBD5E0" stroke-opacity="0.2" stroke-width="0.5"/>
<path d="M423 449.721H430" stroke="#CBD5E0" stroke-opacity="0.2" stroke-width="0.5"/>
</g>
</g>
<defs>
<linearGradient id="paint0_linear_367_9771" x1="215" y1="0" x2="430" y2="1302.5" gradientUnits="userSpaceOnUse">
<stop stop-color="#1A1C1E"/>
<stop offset="1" stop-color="#243444"/>
</linearGradient>
<clipPath id="clip0_367_9771">
<rect width="430" height="1103" fill="white"/>
</clipPath>
<clipPath id="clip1_367_9771">
<rect width="430" height="1103" fill="white"/>
</clipPath>
</defs>
</svg>
