<svg width="382" height="25" viewBox="0 0 382 25" fill="none" xmlns="http://www.w3.org/2000/svg">
<path d="M380.25 16H1.75C0.783502 16 0 16.7835 0 17.75C0 18.7165 0.783502 19.5 1.75 19.5H380.25C381.216 19.5 382 18.7165 382 17.75C382 16.7835 381.216 16 380.25 16Z" fill="#E8EEF4"/>
<path d="M125.2 16H2.8C1.2536 16 0 16.6716 0 17.5C0 18.3284 1.2536 19 2.8 19H125.2C126.746 19 128 18.3284 128 17.5C128 16.6716 126.746 16 125.2 16Z" fill="#E5C185"/>
<path d="M127 23.5C130.314 23.5 133 20.8137 133 17.5C133 14.1863 130.314 11.5 127 11.5C123.686 11.5 121 14.1863 121 17.5C121 20.8137 123.686 23.5 127 23.5Z" fill="#1A1C1E" stroke="#E5C185" stroke-width="1.4"/>
<path d="M127 19.9001C128.325 19.9001 129.4 18.8256 129.4 17.5001C129.4 16.1746 128.325 15.1001 127 15.1001C125.674 15.1001 124.6 16.1746 124.6 17.5001C124.6 18.8256 125.674 19.9001 127 19.9001Z" fill="#E5C185"/>
<path d="M136.856 9.08789C135.459 9.08789 134.457 8.31445 134.431 7.20703H135.767C135.793 7.68164 136.25 7.99805 136.865 7.99805C137.498 7.99805 137.955 7.6377 137.946 7.12793C137.955 6.60938 137.489 6.24023 136.742 6.24023H136.153V5.26465H136.742C137.366 5.26465 137.806 4.92188 137.806 4.4209C137.806 3.9375 137.437 3.60352 136.874 3.60352C136.312 3.60352 135.846 3.91992 135.828 4.40332H134.562C134.58 3.30469 135.573 2.54883 136.874 2.54883C138.201 2.54883 139.089 3.33105 139.08 4.3418C139.089 5.05371 138.588 5.56348 137.876 5.68652V5.73926C138.808 5.85352 139.326 6.4248 139.317 7.21582C139.326 8.30566 138.289 9.08789 136.856 9.08789ZM142.604 9.08789C141.207 9.08789 140.205 8.31445 140.179 7.20703H141.515C141.541 7.68164 141.998 7.99805 142.613 7.99805C143.246 7.99805 143.703 7.6377 143.694 7.12793C143.703 6.60938 143.237 6.24023 142.49 6.24023H141.901V5.26465H142.49C143.114 5.26465 143.554 4.92188 143.554 4.4209C143.554 3.9375 143.185 3.60352 142.622 3.60352C142.06 3.60352 141.594 3.91992 141.576 4.40332H140.311C140.328 3.30469 141.321 2.54883 142.622 2.54883C143.949 2.54883 144.837 3.33105 144.828 4.3418C144.837 5.05371 144.336 5.56348 143.624 5.68652V5.73926C144.556 5.85352 145.074 6.4248 145.065 7.21582C145.074 8.30566 144.037 9.08789 142.604 9.08789ZM147.667 5.81836C146.718 5.81836 146.199 5.12402 146.199 4.12207C146.199 3.11133 146.735 2.41699 147.667 2.41699C148.625 2.41699 149.126 3.11133 149.135 4.12207C149.126 5.13281 148.607 5.81836 147.667 5.81836ZM147.667 5.03613C148.045 5.03613 148.229 4.66699 148.238 4.12207C148.229 3.57715 148.062 3.19922 147.667 3.19922C147.289 3.19922 147.096 3.58594 147.096 4.12207C147.096 4.66699 147.298 5.03613 147.667 5.03613ZM151.956 9.21094C151.016 9.21094 150.497 8.5166 150.497 7.51465C150.497 6.50391 151.033 5.80957 151.956 5.80957C152.914 5.80957 153.424 6.50391 153.433 7.51465C153.424 8.52539 152.905 9.21094 151.956 9.21094ZM151.956 8.42871C152.343 8.42871 152.527 8.06836 152.536 7.51465C152.527 6.96973 152.36 6.5918 151.956 6.60059C151.587 6.60059 151.394 6.97852 151.394 7.51465C151.394 8.06836 151.596 8.42871 151.956 8.42871ZM147.113 9L151.49 2.63672H152.475L148.098 9H147.113Z" fill="#C89840"/>
</svg>
