<svg width="391" height="161" viewBox="0 0 391 161" fill="none" xmlns="http://www.w3.org/2000/svg">
<path d="M382.5 0.5H8.5C4.08172 0.5 0.5 4.08172 0.5 8.5V152.5C0.5 156.918 4.08172 160.5 8.5 160.5H382.5C386.918 160.5 390.5 156.918 390.5 152.5V8.5C390.5 4.08172 386.918 0.5 382.5 0.5Z" fill="#EEEEEE" stroke="#E0E0E0"/>
<g opacity="0.06">
<path d="M0.5 26.5H390.5" stroke="#1A1C1E" stroke-width="0.5"/>
<path d="M0.5 54.5H390.5" stroke="#1A1C1E" stroke-width="0.5"/>
<path d="M0.5 82.5H390.5" stroke="#1A1C1E" stroke-width="0.5"/>
<path d="M0.5 110.5H390.5" stroke="#1A1C1E" stroke-width="0.5"/>
<path d="M0.5 138.5H390.5" stroke="#1A1C1E" stroke-width="0.5"/>
<path d="M80.5 0.5V160.5" stroke="#1A1C1E" stroke-width="0.5"/>
<path d="M195.5 0.5V160.5" stroke="#1A1C1E" stroke-width="0.5"/>
<path d="M310.5 0.5V160.5" stroke="#1A1C1E" stroke-width="0.5"/>
</g>
<path opacity="0.6" d="M133.5 20.5H73.5C70.1863 20.5 67.5 23.1863 67.5 26.5V114.5C67.5 117.814 70.1863 120.5 73.5 120.5H133.5C136.814 120.5 139.5 117.814 139.5 114.5V26.5C139.5 23.1863 136.814 20.5 133.5 20.5Z" fill="white" stroke="#1A1C1E" stroke-width="1.3"/>
<path opacity="0.3" d="M75.5 30.5H131.5" stroke="#1A1C1E" stroke-width="0.8"/>
<path opacity="0.35" d="M129.5 35.5H77.5C76.3954 35.5 75.5 36.3954 75.5 37.5V42.5C75.5 43.6046 76.3954 44.5 77.5 44.5H129.5C130.605 44.5 131.5 43.6046 131.5 42.5V37.5C131.5 36.3954 130.605 35.5 129.5 35.5Z" stroke="#1A1C1E" stroke-width="0.9"/>
<path opacity="0.3" d="M129.5 49.5H77.5C76.3954 49.5 75.5 50.3954 75.5 51.5V75.5C75.5 76.6046 76.3954 77.5 77.5 77.5H129.5C130.605 77.5 131.5 76.6046 131.5 75.5V51.5C131.5 50.3954 130.605 49.5 129.5 49.5Z" stroke="#1A1C1E" stroke-width="0.9"/>
<path opacity="0.22" d="M75.5 49.5L131.5 77.5" stroke="#1A1C1E" stroke-width="0.7"/>
<path opacity="0.22" d="M131.5 49.5L75.5 77.5" stroke="#1A1C1E" stroke-width="0.7"/>
<path opacity="0.28" d="M77.5 84.5H129.5" stroke="#1A1C1E" stroke-width="0.9"/>
<path opacity="0.22" d="M81.5 91.5H126.5" stroke="#1A1C1E" stroke-width="0.8"/>
<path opacity="0.28" d="M121.5 97.5H85.5C83.2909 97.5 81.5 99.2909 81.5 101.5C81.5 103.709 83.2909 105.5 85.5 105.5H121.5C123.709 105.5 125.5 103.709 125.5 101.5C125.5 99.2909 123.709 97.5 121.5 97.5Z" stroke="#1A1C1E" stroke-width="0.9"/>
<path d="M101.21 130.772H106.763V133.094H101.21V130.772ZM106.034 131.339H101.939V132.518H106.034V131.339ZM100.697 125.732H107.24V126.317H100.697V125.732ZM103.982 126.641C104.828 126.641 105.476 126.74 105.926 126.938C106.382 127.13 106.61 127.415 106.61 127.793C106.61 128.171 106.382 128.459 105.926 128.657C105.476 128.849 104.828 128.945 103.982 128.945C103.148 128.945 102.5 128.849 102.038 128.657C101.582 128.459 101.354 128.171 101.354 127.793C101.354 127.415 101.582 127.13 102.038 126.938C102.5 126.74 103.148 126.641 103.982 126.641ZM103.982 127.163C103.4 127.163 102.947 127.217 102.623 127.325C102.305 127.433 102.146 127.589 102.146 127.793C102.146 127.997 102.305 128.153 102.623 128.261C102.947 128.369 103.4 128.423 103.982 128.423C104.57 128.423 105.023 128.369 105.341 128.261C105.659 128.153 105.818 127.997 105.818 127.793C105.818 127.589 105.659 127.433 105.341 127.325C105.023 127.217 104.57 127.163 103.982 127.163ZM103.613 124.94H104.36V126.11H103.613V124.94ZM100.31 129.557H107.663V130.151H100.31V129.557ZM103.613 128.756H104.36V129.89H103.613V128.756Z" fill="#9A9090"/>
<path opacity="0.6" d="M225.5 20.5H165.5C162.186 20.5 159.5 23.1863 159.5 26.5V114.5C159.5 117.814 162.186 120.5 165.5 120.5H225.5C228.814 120.5 231.5 117.814 231.5 114.5V26.5C231.5 23.1863 228.814 20.5 225.5 20.5Z" fill="white" stroke="#1A1C1E" stroke-width="1.3"/>
<path opacity="0.3" d="M167.5 30.5H223.5" stroke="#1A1C1E" stroke-width="0.8"/>
<path opacity="0.3" d="M167.5 36.5H172.5" stroke="#1A1C1E"/>
<path opacity="0.28" d="M213.5 33.5H179.5C178.395 33.5 177.5 34.3954 177.5 35.5V38.5C177.5 39.6046 178.395 40.5 179.5 40.5H213.5C214.605 40.5 215.5 39.6046 215.5 38.5V35.5C215.5 34.3954 214.605 33.5 213.5 33.5Z" stroke="#1A1C1E" stroke-width="0.9"/>
<path opacity="0.18" d="M226.5 46.5H166.5C165.948 46.5 165.5 46.9477 165.5 47.5V51.5C165.5 52.0523 165.948 52.5 166.5 52.5H226.5C227.052 52.5 227.5 52.0523 227.5 51.5V47.5C227.5 46.9477 227.052 46.5 226.5 46.5Z" fill="#1A1C1E"/>
<path opacity="0.14" d="M214.5 56.5H166.5C165.948 56.5 165.5 56.9477 165.5 57.5V61.5C165.5 62.0523 165.948 62.5 166.5 62.5H214.5C215.052 62.5 215.5 62.0523 215.5 61.5V57.5C215.5 56.9477 215.052 56.5 214.5 56.5Z" fill="#1A1C1E"/>
<path opacity="0.22" d="M165.5 69.5H223.5" stroke="#1A1C1E" stroke-width="0.7"/>
<path opacity="0.2" d="M165.5 76.5H220.5" stroke="#1A1C1E" stroke-width="0.7"/>
<path opacity="0.2" d="M165.5 83.5H222.5" stroke="#1A1C1E" stroke-width="0.7"/>
<path opacity="0.18" d="M165.5 90.5H216.5" stroke="#1A1C1E" stroke-width="0.7"/>
<path opacity="0.25" d="M225.5 97.5H167.5C166.395 97.5 165.5 98.3954 165.5 99.5V111.5C165.5 112.605 166.395 113.5 167.5 113.5H225.5C226.605 113.5 227.5 112.605 227.5 111.5V99.5C227.5 98.3954 226.605 97.5 225.5 97.5Z" stroke="#1A1C1E" stroke-width="0.8"/>
<path opacity="0.18" d="M165.5 97.5L227.5 113.5" stroke="#1A1C1E" stroke-width="0.6"/>
<path opacity="0.18" d="M227.5 97.5L165.5 113.5" stroke="#1A1C1E" stroke-width="0.6"/>
<path d="M189.651 125.48H190.263V126.308C190.263 126.83 190.17 127.316 189.984 127.766C189.804 128.216 189.546 128.609 189.21 128.945C188.874 129.275 188.481 129.527 188.031 129.701L187.626 129.107C188.04 128.957 188.397 128.741 188.697 128.459C189.003 128.177 189.237 127.853 189.399 127.487C189.567 127.115 189.651 126.722 189.651 126.308V125.48ZM189.786 125.48H190.389V126.371C190.389 126.641 190.437 126.908 190.533 127.172C190.629 127.43 190.764 127.67 190.938 127.892C191.118 128.114 191.328 128.312 191.568 128.486C191.808 128.654 192.075 128.789 192.369 128.891L191.973 129.476C191.541 129.314 191.16 129.08 190.83 128.774C190.5 128.462 190.242 128.102 190.056 127.694C189.876 127.28 189.786 126.839 189.786 126.371V125.48ZM193.242 125.057H193.989V129.998H193.242V125.057ZM193.782 127.163H195.186V127.793H193.782V127.163ZM191.397 130.214C191.949 130.214 192.423 130.274 192.819 130.394C193.221 130.508 193.53 130.676 193.746 130.898C193.962 131.12 194.07 131.387 194.07 131.699C194.07 132.011 193.962 132.278 193.746 132.5C193.53 132.722 193.221 132.89 192.819 133.004C192.423 133.124 191.949 133.184 191.397 133.184C190.845 133.184 190.368 133.124 189.966 133.004C189.564 132.89 189.255 132.722 189.039 132.5C188.823 132.278 188.715 132.011 188.715 131.699C188.715 131.387 188.823 131.12 189.039 130.898C189.255 130.676 189.564 130.508 189.966 130.394C190.368 130.274 190.845 130.214 191.397 130.214ZM191.397 130.808C190.995 130.808 190.647 130.844 190.353 130.916C190.065 130.988 189.843 131.09 189.687 131.222C189.531 131.354 189.453 131.513 189.453 131.699C189.453 131.891 189.531 132.053 189.687 132.185C189.843 132.317 190.065 132.419 190.353 132.491C190.647 132.557 190.995 132.59 191.397 132.59C191.799 132.59 192.144 132.557 192.432 132.491C192.72 132.419 192.942 132.317 193.098 132.185C193.254 132.053 193.332 131.891 193.332 131.699C193.332 131.513 193.254 131.354 193.098 131.222C192.942 131.09 192.72 130.988 192.432 130.916C192.144 130.844 191.799 130.808 191.397 130.808ZM199.154 127.973H200.72V128.594H199.154V127.973ZM197.642 125.822H198.227V127.379C198.227 127.799 198.182 128.213 198.092 128.621C198.008 129.029 197.882 129.413 197.714 129.773C197.552 130.133 197.354 130.457 197.12 130.745C196.886 131.033 196.622 131.267 196.328 131.447L195.86 130.889C196.136 130.721 196.385 130.511 196.607 130.259C196.829 130.007 197.015 129.725 197.165 129.413C197.321 129.095 197.438 128.765 197.516 128.423C197.6 128.075 197.642 127.727 197.642 127.379V125.822ZM197.786 125.822H198.362V127.352C198.362 127.676 198.398 128.003 198.47 128.333C198.548 128.657 198.656 128.969 198.794 129.269C198.938 129.563 199.115 129.833 199.325 130.079C199.535 130.325 199.772 130.529 200.036 130.691L199.613 131.267C199.319 131.087 199.058 130.859 198.83 130.583C198.602 130.301 198.41 129.986 198.254 129.638C198.098 129.284 197.981 128.912 197.903 128.522C197.825 128.132 197.786 127.742 197.786 127.352V125.822ZM202.151 125.057H202.871V133.202H202.151V125.057ZM200.495 125.228H201.197V132.788H200.495V125.228Z" fill="#9A9090"/>
<path opacity="0.6" d="M317.5 20.5H257.5C254.186 20.5 251.5 23.1863 251.5 26.5V114.5C251.5 117.814 254.186 120.5 257.5 120.5H317.5C320.814 120.5 323.5 117.814 323.5 114.5V26.5C323.5 23.1863 320.814 20.5 317.5 20.5Z" fill="white" stroke="#1A1C1E" stroke-width="1.3"/>
<path opacity="0.3" d="M259.5 30.5H315.5" stroke="#1A1C1E" stroke-width="0.8"/>
<path opacity="0.3" d="M259.5 36.5H264.5" stroke="#1A1C1E"/>
<path opacity="0.28" d="M315.5 44.5H259.5C258.395 44.5 257.5 45.3954 257.5 46.5V50.5C257.5 51.6046 258.395 52.5 259.5 52.5H315.5C316.605 52.5 317.5 51.6046 317.5 50.5V46.5C317.5 45.3954 316.605 44.5 315.5 44.5Z" stroke="#1A1C1E" stroke-width="0.8"/>
<path opacity="0.18" d="M257.5 58.5H315.5" stroke="#1A1C1E" stroke-width="0.6"/>
<path opacity="0.25" d="M315.5 63.5H259.5C258.395 63.5 257.5 64.3954 257.5 65.5V69.5C257.5 70.6046 258.395 71.5 259.5 71.5H315.5C316.605 71.5 317.5 70.6046 317.5 69.5V65.5C317.5 64.3954 316.605 63.5 315.5 63.5Z" stroke="#1A1C1E" stroke-width="0.8"/>
<path opacity="0.18" d="M257.5 77.5H315.5" stroke="#1A1C1E" stroke-width="0.6"/>
<path opacity="0.22" d="M315.5 82.5H259.5C258.395 82.5 257.5 83.3954 257.5 84.5V88.5C257.5 89.6046 258.395 90.5 259.5 90.5H315.5C316.605 90.5 317.5 89.6046 317.5 88.5V84.5C317.5 83.3954 316.605 82.5 315.5 82.5Z" stroke="#1A1C1E" stroke-width="0.8"/>
<path opacity="0.28" d="M307.5 97.5H267.5C264.186 97.5 261.5 100.186 261.5 103.5C261.5 106.814 264.186 109.5 267.5 109.5H307.5C310.814 109.5 313.5 106.814 313.5 103.5C313.5 100.186 310.814 97.5 307.5 97.5Z" stroke="#1A1C1E"/>
<path d="M280.616 125.399H286.079V128.162H280.616V125.399ZM285.35 125.993H281.345V127.559H285.35V125.993ZM279.671 129.179H287.024V129.791H279.671V129.179ZM282.974 128.009H283.721V129.413H282.974V128.009ZM280.49 130.628H286.115V133.202H285.368V131.231H280.49V130.628ZM287.941 129.539H295.321V130.151H287.941V129.539ZM288.877 125.264H294.376V127.244H289.633V128.333H288.895V126.686H293.638V125.858H288.877V125.264ZM288.895 128.09H294.547V128.684H288.895V128.09ZM291.262 128.396H292V129.836H291.262V128.396ZM288.769 130.772H294.421V133.121H293.674V131.375H288.769V130.772Z" fill="#9A9090"/>
<path d="M165.949 146.571L165.876 146.894C165.795 146.897 165.695 146.916 165.578 146.952C165.461 146.985 165.352 147.029 165.251 147.084C165.118 147.159 165.005 147.245 164.914 147.343C164.823 147.44 164.732 147.574 164.641 147.743C164.305 148.365 163.85 149.216 163.273 150.297C162.701 151.378 162.111 152.475 161.506 153.588H161.071L160.505 148.246L157.473 153.588H157.043C156.968 152.107 156.905 150.862 156.853 149.853C156.8 148.84 156.761 148.074 156.735 147.553C156.729 147.449 156.709 147.361 156.677 147.289C156.644 147.217 156.581 147.144 156.486 147.069C156.418 147.014 156.33 146.973 156.223 146.947C156.118 146.918 156.024 146.9 155.939 146.894L156.013 146.571H158.801L158.728 146.894C158.34 146.916 158.08 146.959 157.946 147.021C157.816 147.079 157.751 147.151 157.751 147.235C157.751 147.3 157.753 147.396 157.756 147.523C157.759 147.65 157.764 147.781 157.771 147.914C157.78 148.139 157.803 148.593 157.839 149.276C157.878 149.957 157.925 150.814 157.98 151.85L160.891 146.669H161.34L161.921 151.962C162.328 151.184 162.683 150.494 162.985 149.892C163.288 149.286 163.558 148.743 163.796 148.261C163.939 147.965 164.038 147.74 164.094 147.587C164.152 147.434 164.182 147.326 164.182 147.265C164.182 147.16 164.107 147.077 163.957 147.016C163.811 146.951 163.597 146.91 163.317 146.894L163.391 146.571H165.949ZM167.497 152.968L167.424 153.28C167.124 153.401 166.885 153.484 166.706 153.529C166.527 153.578 166.374 153.603 166.247 153.603C165.987 153.603 165.791 153.536 165.661 153.402C165.531 153.266 165.466 153.098 165.466 152.899C165.466 152.825 165.472 152.746 165.485 152.665C165.498 152.584 165.52 152.481 165.549 152.357L166.066 150.282C166.092 150.168 166.117 150.046 166.14 149.916C166.166 149.786 166.179 149.675 166.179 149.584C166.179 149.402 166.148 149.281 166.086 149.223C166.027 149.161 165.905 149.13 165.72 149.13C165.648 149.13 165.552 149.141 165.432 149.164C165.314 149.187 165.225 149.206 165.163 149.223L165.236 148.91C165.49 148.796 165.718 148.712 165.92 148.656C166.122 148.601 166.281 148.573 166.398 148.573C166.665 148.573 166.859 148.637 166.979 148.764C167.1 148.891 167.16 149.062 167.16 149.276C167.16 149.335 167.154 149.415 167.141 149.516C167.128 149.617 167.108 149.717 167.082 149.818L166.56 151.894C166.527 152.021 166.498 152.146 166.472 152.27C166.449 152.39 166.438 152.489 166.438 152.567C166.438 152.753 166.478 152.88 166.56 152.948C166.644 153.017 166.779 153.051 166.965 153.051C167.027 153.051 167.115 153.043 167.229 153.026C167.346 153.01 167.435 152.991 167.497 152.968ZM167.844 146.728C167.844 146.913 167.784 147.076 167.663 147.216C167.543 147.353 167.393 147.421 167.214 147.421C167.048 147.421 166.905 147.356 166.784 147.226C166.664 147.092 166.604 146.941 166.604 146.771C166.604 146.592 166.664 146.436 166.784 146.303C166.905 146.169 167.048 146.103 167.214 146.103C167.399 146.103 167.551 146.166 167.668 146.293C167.785 146.417 167.844 146.562 167.844 146.728ZM172.443 149.369C172.443 149.46 172.43 149.561 172.404 149.672C172.378 149.779 172.341 149.869 172.292 149.94C172.233 150.028 172.168 150.097 172.097 150.146C172.028 150.191 171.929 150.214 171.799 150.214C171.623 150.214 171.491 150.17 171.403 150.082C171.315 149.994 171.271 149.896 171.271 149.789C171.271 149.688 171.296 149.576 171.345 149.452C171.394 149.325 171.444 149.2 171.496 149.076C171.457 149.076 171.392 149.088 171.301 149.11C171.213 149.13 171.105 149.171 170.979 149.232C170.852 149.294 170.707 149.387 170.544 149.511C170.384 149.634 170.214 149.799 170.031 150.004L169.245 153.5H168.337L169.05 150.336C169.066 150.258 169.089 150.141 169.118 149.984C169.151 149.828 169.167 149.713 169.167 149.638C169.167 149.455 169.136 149.333 169.074 149.271C169.012 149.21 168.889 149.179 168.703 149.179C168.632 149.179 168.54 149.192 168.43 149.218C168.319 149.241 168.233 149.26 168.171 149.276L168.244 148.964C168.498 148.85 168.723 148.765 168.918 148.71C169.113 148.655 169.281 148.627 169.421 148.627C169.681 148.627 169.867 148.699 169.978 148.842C170.088 148.982 170.144 149.193 170.144 149.477H170.173C170.56 149.141 170.853 148.907 171.052 148.773C171.254 148.64 171.464 148.573 171.682 148.573C171.786 148.573 171.887 148.586 171.984 148.612C172.082 148.638 172.165 148.682 172.233 148.744C172.305 148.812 172.357 148.892 172.39 148.983C172.425 149.071 172.443 149.2 172.443 149.369ZM176.926 149.589C176.926 149.934 176.817 150.23 176.599 150.478C176.384 150.725 176.07 150.922 175.656 151.068C175.354 151.179 175.048 151.269 174.738 151.337C174.429 151.405 174.087 151.462 173.713 151.508C173.713 152.022 173.807 152.416 173.996 152.689C174.188 152.96 174.468 153.095 174.836 153.095C175.161 153.095 175.448 153.013 175.695 152.851C175.946 152.688 176.192 152.445 176.433 152.123L176.711 152.328C176.451 152.725 176.125 153.043 175.734 153.28C175.344 153.518 174.938 153.637 174.519 153.637C173.942 153.637 173.501 153.476 173.195 153.153C172.893 152.831 172.741 152.374 172.741 151.781C172.741 151.371 172.805 150.98 172.932 150.609C173.062 150.235 173.251 149.893 173.498 149.584C173.739 149.281 174.034 149.037 174.382 148.852C174.733 148.666 175.121 148.573 175.544 148.573C176.013 148.573 176.359 148.669 176.584 148.861C176.812 149.05 176.926 149.293 176.926 149.589ZM176.027 149.467C176.027 149.34 176.009 149.241 175.974 149.169C175.938 149.094 175.892 149.039 175.837 149.003C175.778 148.964 175.716 148.939 175.651 148.93C175.586 148.92 175.52 148.915 175.451 148.915C175.061 148.915 174.699 149.13 174.367 149.56C174.038 149.989 173.83 150.525 173.742 151.166C173.97 151.133 174.227 151.088 174.514 151.029C174.8 150.967 175.038 150.888 175.227 150.79C175.497 150.65 175.697 150.471 175.827 150.253C175.961 150.032 176.027 149.77 176.027 149.467ZM179.538 149.174L178.679 153.207C178.526 153.93 178.203 154.521 177.712 154.979C177.22 155.438 176.714 155.668 176.193 155.668C175.907 155.668 175.697 155.613 175.563 155.502C175.427 155.395 175.358 155.258 175.358 155.092C175.358 154.952 175.401 154.828 175.485 154.721C175.57 154.613 175.692 154.56 175.852 154.56C175.952 154.56 176.042 154.582 176.12 154.628C176.195 154.674 176.262 154.73 176.32 154.799C176.366 154.854 176.418 154.929 176.477 155.023C176.532 155.118 176.581 155.199 176.623 155.268C176.874 155.248 177.087 155.079 177.263 154.76C177.442 154.441 177.596 153.985 177.727 153.393L178.625 149.174H177.673L177.775 148.729H178.718L178.786 148.397C178.864 148.02 178.988 147.68 179.157 147.377C179.326 147.074 179.519 146.817 179.733 146.605C179.945 146.397 180.184 146.234 180.451 146.117C180.721 145.997 180.98 145.937 181.228 145.937C181.514 145.937 181.724 145.992 181.857 146.103C181.994 146.21 182.062 146.347 182.062 146.513C182.062 146.653 182.022 146.776 181.94 146.884C181.862 146.991 181.739 147.045 181.569 147.045C181.468 147.045 181.381 147.024 181.306 146.981C181.231 146.936 181.164 146.877 181.105 146.806C181.04 146.724 180.988 146.648 180.949 146.576C180.91 146.505 180.861 146.425 180.803 146.337C180.578 146.347 180.38 146.495 180.207 146.781C180.035 147.068 179.878 147.545 179.738 148.212L179.631 148.729H180.856L180.754 149.174H179.538ZM185.07 149.369C185.07 149.46 185.057 149.561 185.031 149.672C185.005 149.779 184.968 149.869 184.919 149.94C184.86 150.028 184.795 150.097 184.724 150.146C184.655 150.191 184.556 150.214 184.426 150.214C184.25 150.214 184.118 150.17 184.03 150.082C183.942 149.994 183.898 149.896 183.898 149.789C183.898 149.688 183.923 149.576 183.972 149.452C184.021 149.325 184.071 149.2 184.123 149.076C184.084 149.076 184.019 149.088 183.928 149.11C183.84 149.13 183.732 149.171 183.605 149.232C183.479 149.294 183.334 149.387 183.171 149.511C183.011 149.634 182.84 149.799 182.658 150.004L181.872 153.5H180.964L181.677 150.336C181.693 150.258 181.716 150.141 181.745 149.984C181.778 149.828 181.794 149.713 181.794 149.638C181.794 149.455 181.763 149.333 181.701 149.271C181.639 149.21 181.516 149.179 181.33 149.179C181.258 149.179 181.167 149.192 181.057 149.218C180.946 149.241 180.86 149.26 180.798 149.276L180.871 148.964C181.125 148.85 181.35 148.765 181.545 148.71C181.74 148.655 181.908 148.627 182.048 148.627C182.308 148.627 182.494 148.699 182.604 148.842C182.715 148.982 182.771 149.193 182.771 149.477H182.8C183.187 149.141 183.48 148.907 183.679 148.773C183.881 148.64 184.09 148.573 184.309 148.573C184.413 148.573 184.514 148.586 184.611 148.612C184.709 148.638 184.792 148.682 184.86 148.744C184.932 148.812 184.984 148.892 185.017 148.983C185.052 149.071 185.07 149.2 185.07 149.369ZM188.43 152.855H188.396C188.324 152.914 188.238 152.989 188.137 153.08C188.039 153.168 187.924 153.253 187.79 153.334C187.663 153.415 187.525 153.485 187.375 153.544C187.225 153.606 187.062 153.637 186.887 153.637C186.415 153.637 186.044 153.467 185.773 153.129C185.507 152.79 185.373 152.328 185.373 151.742C185.373 151.339 185.448 150.946 185.598 150.565C185.747 150.185 185.954 149.843 186.218 149.54C186.468 149.25 186.766 149.018 187.111 148.842C187.456 148.663 187.811 148.573 188.176 148.573C188.407 148.573 188.627 148.604 188.835 148.666C189.047 148.728 189.213 148.798 189.333 148.876L190.227 148.646L190.285 148.72L189.543 151.869C189.517 151.97 189.489 152.094 189.46 152.24C189.434 152.383 189.421 152.489 189.421 152.558C189.421 152.743 189.46 152.868 189.538 152.934C189.616 152.999 189.748 153.031 189.934 153.031C189.995 153.031 190.083 153.021 190.197 153.002C190.311 152.982 190.399 152.961 190.461 152.938L190.388 153.251C190.095 153.368 189.877 153.453 189.733 153.505C189.59 153.557 189.416 153.583 189.211 153.583C188.977 153.583 188.791 153.515 188.654 153.378C188.518 153.241 188.443 153.067 188.43 152.855ZM189.128 149.77C189.128 149.662 189.117 149.56 189.094 149.462C189.071 149.364 189.024 149.273 188.952 149.188C188.887 149.107 188.798 149.042 188.684 148.993C188.57 148.944 188.426 148.92 188.254 148.92C188.016 148.92 187.785 148.998 187.561 149.154C187.336 149.311 187.134 149.521 186.955 149.784C186.786 150.032 186.647 150.331 186.54 150.683C186.433 151.034 186.379 151.391 186.379 151.752C186.379 151.951 186.39 152.126 186.413 152.279C186.436 152.432 186.48 152.572 186.545 152.699C186.607 152.823 186.696 152.919 186.813 152.987C186.931 153.056 187.079 153.09 187.258 153.09C187.44 153.09 187.631 153.039 187.829 152.938C188.031 152.834 188.257 152.654 188.508 152.396L189.128 149.77ZM199.274 152.948L199.201 153.261C198.902 153.381 198.662 153.464 198.483 153.51C198.304 153.559 198.151 153.583 198.024 153.583C197.764 153.583 197.569 153.516 197.438 153.383C197.308 153.246 197.243 153.078 197.243 152.88C197.243 152.808 197.25 152.73 197.263 152.646C197.276 152.558 197.297 152.455 197.326 152.338L197.805 150.517C197.84 150.377 197.868 150.25 197.888 150.136C197.91 150.022 197.922 149.931 197.922 149.862C197.922 149.644 197.875 149.472 197.78 149.345C197.686 149.218 197.536 149.154 197.331 149.154C197.113 149.154 196.898 149.206 196.687 149.311C196.478 149.411 196.242 149.602 195.979 149.882L195.129 153.5H194.221L194.987 150.238C195.004 150.167 195.018 150.092 195.031 150.014C195.048 149.932 195.056 149.872 195.056 149.833C195.056 149.621 195.002 149.455 194.895 149.335C194.79 149.215 194.636 149.154 194.431 149.154C194.245 149.154 194.04 149.201 193.815 149.296C193.591 149.387 193.33 149.594 193.034 149.916L192.209 153.5H191.301L192.028 150.336C192.054 150.222 192.079 150.1 192.102 149.97C192.128 149.84 192.141 149.729 192.141 149.638C192.141 149.449 192.11 149.325 192.048 149.267C191.986 149.205 191.866 149.174 191.687 149.174C191.615 149.174 191.522 149.187 191.408 149.213C191.298 149.239 191.211 149.26 191.149 149.276L191.223 148.964C191.477 148.85 191.701 148.765 191.896 148.71C192.092 148.655 192.259 148.627 192.399 148.627C192.66 148.627 192.844 148.699 192.951 148.842C193.062 148.982 193.12 149.174 193.127 149.418H193.156C193.54 149.115 193.856 148.899 194.104 148.769C194.351 148.638 194.646 148.573 194.987 148.573C195.277 148.573 195.511 148.658 195.69 148.827C195.873 148.993 195.975 149.203 195.998 149.457H196.018C196.366 149.167 196.675 148.948 196.945 148.798C197.219 148.648 197.536 148.573 197.897 148.573C198.21 148.573 198.449 148.664 198.615 148.847C198.785 149.026 198.869 149.262 198.869 149.555C198.869 149.613 198.859 149.717 198.84 149.867C198.824 150.017 198.796 150.165 198.757 150.312L198.347 151.879C198.317 151.983 198.29 152.104 198.264 152.24C198.238 152.374 198.225 152.478 198.225 152.553C198.225 152.738 198.264 152.865 198.342 152.934C198.42 152.999 198.552 153.031 198.737 153.031C198.799 153.031 198.889 153.023 199.006 153.007C199.123 152.991 199.213 152.971 199.274 152.948ZM204.084 149.589C204.084 149.934 203.975 150.23 203.757 150.478C203.542 150.725 203.228 150.922 202.814 151.068C202.512 151.179 202.206 151.269 201.896 151.337C201.587 151.405 201.245 151.462 200.871 151.508C200.871 152.022 200.965 152.416 201.154 152.689C201.346 152.96 201.626 153.095 201.994 153.095C202.32 153.095 202.606 153.013 202.854 152.851C203.104 152.688 203.35 152.445 203.591 152.123L203.869 152.328C203.609 152.725 203.283 153.043 202.893 153.28C202.502 153.518 202.097 153.637 201.677 153.637C201.101 153.637 200.66 153.476 200.354 153.153C200.051 152.831 199.899 152.374 199.899 151.781C199.899 151.371 199.963 150.98 200.09 150.609C200.22 150.235 200.409 149.893 200.656 149.584C200.897 149.281 201.192 149.037 201.54 148.852C201.892 148.666 202.279 148.573 202.702 148.573C203.171 148.573 203.518 148.669 203.742 148.861C203.97 149.05 204.084 149.293 204.084 149.589ZM203.186 149.467C203.186 149.34 203.168 149.241 203.132 149.169C203.096 149.094 203.05 149.039 202.995 149.003C202.937 148.964 202.875 148.939 202.81 148.93C202.744 148.92 202.678 148.915 202.609 148.915C202.219 148.915 201.857 149.13 201.525 149.56C201.197 149.989 200.988 150.525 200.9 151.166C201.128 151.133 201.385 151.088 201.672 151.029C201.958 150.967 202.196 150.888 202.385 150.79C202.655 150.65 202.855 150.471 202.985 150.253C203.119 150.032 203.186 149.77 203.186 149.467ZM209.099 153.642C208.698 153.642 208.347 153.593 208.044 153.495C207.744 153.394 207.502 153.279 207.316 153.148L207.038 153.505H206.647L207.126 151.132H207.521C207.538 151.415 207.575 151.68 207.634 151.928C207.696 152.175 207.795 152.398 207.932 152.597C208.068 152.802 208.246 152.961 208.464 153.075C208.682 153.186 208.952 153.241 209.274 153.241C209.759 153.241 210.148 153.108 210.441 152.841C210.734 152.571 210.881 152.203 210.881 151.737C210.881 151.487 210.819 151.264 210.695 151.068C210.572 150.873 210.386 150.722 210.139 150.614C209.904 150.513 209.672 150.424 209.44 150.346C209.213 150.264 208.988 150.17 208.767 150.062C208.474 149.923 208.238 149.722 208.059 149.462C207.88 149.198 207.79 148.902 207.79 148.573C207.79 148.261 207.858 147.973 207.995 147.709C208.135 147.445 208.319 147.217 208.547 147.025C208.768 146.84 209.035 146.692 209.348 146.581C209.663 146.47 209.976 146.415 210.285 146.415C210.575 146.415 210.848 146.449 211.105 146.518C211.366 146.586 211.626 146.715 211.887 146.903L212.155 146.571H212.546L212.053 148.871H211.657C211.647 148.62 211.621 148.362 211.579 148.095C211.54 147.828 211.472 147.606 211.374 147.431C211.267 147.239 211.117 147.089 210.925 146.981C210.733 146.871 210.477 146.815 210.158 146.815C209.774 146.815 209.452 146.949 209.191 147.216C208.931 147.479 208.801 147.794 208.801 148.158C208.801 148.399 208.848 148.604 208.942 148.773C209.04 148.939 209.19 149.075 209.392 149.179C209.606 149.289 209.831 149.385 210.065 149.467C210.303 149.545 210.515 149.628 210.7 149.716C211.075 149.892 211.366 150.103 211.574 150.351C211.786 150.598 211.892 150.901 211.892 151.259C211.892 151.604 211.817 151.926 211.667 152.226C211.517 152.525 211.317 152.776 211.066 152.978C210.803 153.192 210.507 153.357 210.178 153.471C209.852 153.585 209.493 153.642 209.099 153.642ZM217.536 149.13C217.536 149.273 217.479 149.407 217.365 149.53C217.255 149.651 217.116 149.711 216.95 149.711C216.843 149.711 216.737 149.696 216.633 149.667C216.529 149.638 216.415 149.594 216.291 149.535C216.112 149.636 215.926 149.761 215.734 149.911C215.546 150.058 215.339 150.237 215.114 150.448C215.3 150.93 215.456 151.326 215.583 151.635C215.713 151.941 215.824 152.191 215.915 152.387C216.032 152.631 216.161 152.805 216.301 152.909C216.444 153.01 216.6 153.061 216.77 153.061C216.848 153.061 216.955 153.049 217.092 153.026C217.229 153 217.334 152.974 217.409 152.948L217.336 153.271C217.033 153.394 216.796 153.477 216.623 153.52C216.451 153.562 216.276 153.583 216.101 153.583C215.892 153.583 215.713 153.526 215.563 153.412C215.417 153.295 215.275 153.085 215.139 152.782C215.005 152.493 214.886 152.208 214.782 151.928C214.678 151.645 214.576 151.378 214.475 151.127L213.903 151.615L213.483 153.5H212.575L214.025 147.216C214.048 147.115 214.063 147.045 214.069 147.006C214.079 146.967 214.084 146.918 214.084 146.859C214.084 146.742 214.064 146.653 214.025 146.591C213.986 146.526 213.931 146.477 213.859 146.444C213.791 146.415 213.705 146.396 213.601 146.386C213.496 146.376 213.391 146.365 213.283 146.352L213.352 146.054L215.163 145.941L215.212 146.015L214.021 151.098H214.04C214.408 150.701 214.742 150.357 215.041 150.067C215.344 149.774 215.66 149.477 215.988 149.174C216.223 148.959 216.408 148.812 216.545 148.734C216.682 148.653 216.828 148.612 216.984 148.612C217.15 148.612 217.284 148.66 217.385 148.754C217.486 148.845 217.536 148.97 217.536 149.13ZM222.111 149.589C222.111 149.934 222.002 150.23 221.784 150.478C221.569 150.725 221.255 150.922 220.842 151.068C220.539 151.179 220.233 151.269 219.924 151.337C219.615 151.405 219.273 151.462 218.898 151.508C218.898 152.022 218.993 152.416 219.182 152.689C219.374 152.96 219.654 153.095 220.021 153.095C220.347 153.095 220.633 153.013 220.881 152.851C221.132 152.688 221.377 152.445 221.618 152.123L221.896 152.328C221.636 152.725 221.311 153.043 220.92 153.28C220.529 153.518 220.124 153.637 219.704 153.637C219.128 153.637 218.687 153.476 218.381 153.153C218.078 152.831 217.927 152.374 217.927 151.781C217.927 151.371 217.99 150.98 218.117 150.609C218.247 150.235 218.436 149.893 218.684 149.584C218.924 149.281 219.219 149.037 219.567 148.852C219.919 148.666 220.306 148.573 220.729 148.573C221.198 148.573 221.545 148.669 221.77 148.861C221.997 149.05 222.111 149.293 222.111 149.589ZM221.213 149.467C221.213 149.34 221.195 149.241 221.159 149.169C221.123 149.094 221.078 149.039 221.022 149.003C220.964 148.964 220.902 148.939 220.837 148.93C220.772 148.92 220.705 148.915 220.637 148.915C220.246 148.915 219.885 149.13 219.553 149.56C219.224 149.989 219.016 150.525 218.928 151.166C219.156 151.133 219.413 151.088 219.699 151.029C219.986 150.967 220.223 150.888 220.412 150.79C220.682 150.65 220.882 150.471 221.013 150.253C221.146 150.032 221.213 149.77 221.213 149.467ZM223.786 153.603C223.477 153.603 223.251 153.541 223.107 153.417C222.964 153.29 222.893 153.109 222.893 152.875C222.893 152.8 222.897 152.73 222.907 152.665C222.917 152.597 222.93 152.52 222.946 152.436L223.703 149.174H222.834L222.937 148.729H223.825L224.167 147.299H225.046L224.714 148.729H226.076L225.974 149.174H224.621L223.996 151.864C223.967 151.988 223.942 152.108 223.923 152.226C223.903 152.34 223.894 152.437 223.894 152.519C223.894 152.698 223.938 152.829 224.025 152.914C224.117 152.995 224.279 153.036 224.514 153.036C224.598 153.036 224.717 153.026 224.87 153.007C225.023 152.984 225.142 152.956 225.227 152.924L225.144 153.28C224.916 153.368 224.701 153.443 224.499 153.505C224.297 153.57 224.06 153.603 223.786 153.603ZM227.956 153.637C227.386 153.637 226.936 153.471 226.604 153.139C226.275 152.807 226.11 152.335 226.11 151.723C226.11 151.316 226.172 150.927 226.296 150.556C226.423 150.181 226.599 149.849 226.823 149.56C227.048 149.27 227.331 149.034 227.673 148.852C228.018 148.666 228.4 148.573 228.82 148.573C229.286 148.573 229.639 148.673 229.88 148.871C230.124 149.066 230.246 149.314 230.246 149.613C230.246 149.838 230.192 150.035 230.085 150.204C229.981 150.373 229.823 150.458 229.611 150.458C229.436 150.458 229.304 150.414 229.216 150.326C229.128 150.238 229.084 150.141 229.084 150.033C229.084 149.929 229.12 149.787 229.191 149.608C229.263 149.426 229.32 149.28 229.362 149.169C229.326 149.081 229.247 149.018 229.123 148.979C228.999 148.936 228.871 148.915 228.737 148.915C228.295 148.915 227.912 149.174 227.59 149.691C227.271 150.206 227.111 150.837 227.111 151.586C227.111 152.048 227.214 152.416 227.419 152.689C227.627 152.96 227.907 153.095 228.259 153.095C228.575 153.095 228.854 153.01 229.099 152.841C229.346 152.672 229.582 152.432 229.807 152.123L230.085 152.328C229.86 152.683 229.554 152.991 229.167 153.251C228.783 153.508 228.379 153.637 227.956 153.637ZM235.666 152.934L235.593 153.246C235.3 153.363 235.072 153.448 234.909 153.5C234.746 153.555 234.582 153.583 234.416 153.583C234.156 153.583 233.96 153.516 233.83 153.383C233.7 153.246 233.635 153.078 233.635 152.88C233.635 152.808 233.641 152.73 233.654 152.646C233.667 152.558 233.688 152.455 233.718 152.338L234.196 150.517C234.232 150.377 234.26 150.25 234.279 150.136C234.302 150.022 234.313 149.931 234.313 149.862C234.313 149.644 234.261 149.472 234.157 149.345C234.053 149.218 233.898 149.154 233.693 149.154C233.485 149.154 233.259 149.221 233.015 149.354C232.774 149.488 232.544 149.675 232.326 149.916L231.501 153.5H230.593L232.043 147.216C232.059 147.141 232.072 147.077 232.082 147.025C232.095 146.973 232.102 146.918 232.102 146.859C232.102 146.742 232.082 146.653 232.043 146.591C232.004 146.526 231.949 146.477 231.877 146.444C231.815 146.415 231.73 146.396 231.623 146.386C231.516 146.376 231.408 146.365 231.301 146.352L231.369 146.054L233.181 145.941L233.229 146.015L232.448 149.394H232.468C232.803 149.123 233.103 148.92 233.366 148.783C233.63 148.643 233.929 148.573 234.265 148.573C234.577 148.573 234.821 148.664 234.997 148.847C235.173 149.026 235.261 149.262 235.261 149.555C235.261 149.613 235.251 149.717 235.231 149.867C235.215 150.017 235.188 150.165 235.148 150.312L234.738 151.879C234.712 151.983 234.685 152.104 234.655 152.24C234.626 152.374 234.611 152.478 234.611 152.553C234.611 152.738 234.652 152.865 234.733 152.934C234.815 152.999 234.948 153.031 235.134 153.031C235.196 153.031 235.284 153.021 235.397 153.002C235.515 152.979 235.604 152.956 235.666 152.934Z" fill="#9A9090"/>
</svg>
