<svg width="44" height="44" viewBox="0 0 44 44" fill="none" xmlns="http://www.w3.org/2000/svg">
<rect width="44" height="44" rx="10" fill="#D4A853" fill-opacity="0.2"/>
<path d="M17.25 24.75H14.25C13.6533 24.75 13.081 24.5129 12.659 24.091C12.2371 23.669 12 23.0967 12 22.5V17.25C12 16.6533 12.2371 16.081 12.659 15.659C13.081 15.2371 13.6533 15 14.25 15H29.25L33.75 19.5V24C33.75 24.5967 33.5129 25.169 33.091 25.591C32.669 26.0129 32.0967 26.25 31.5 26.25H29.25" stroke="#D4A853" stroke-width="1.4" stroke-linecap="round" stroke-linejoin="round"/>
<path d="M19.5 28.5C21.1569 28.5 22.5 27.1569 22.5 25.5C22.5 23.8431 21.1569 22.5 19.5 22.5C17.8431 22.5 16.5 23.8431 16.5 25.5C16.5 27.1569 17.8431 28.5 19.5 28.5Z" fill="#D4A853" stroke="#D4A853" stroke-opacity="0.45" stroke-width="1.4"/>
<path d="M31.5 28.5C33.1569 28.5 34.5 27.1569 34.5 25.5C34.5 23.8431 33.1569 22.5 31.5 22.5C29.8431 22.5 28.5 23.8431 28.5 25.5C28.5 27.1569 29.8431 28.5 31.5 28.5Z" fill="#D4A853" stroke="#D4A853" stroke-opacity="0.45" stroke-width="1.4"/>
</svg>
