<svg width="20" height="18" viewBox="0 0 20 18" fill="none" xmlns="http://www.w3.org/2000/svg">
<path fill-rule="evenodd" clip-rule="evenodd" d="M9.99902 0C14.3949 2.0847e-05 18.0185 3.29247 18.5453 7.5457C19.0299 7.73386 19.5156 7.93589 20 8.15608L19.7926 8.61411L19.5842 9.07214C19.2606 8.92502 18.9357 8.78763 18.6121 8.6554C18.5905 13.3951 14.7438 17.2302 9.99902 17.2302C5.25479 17.23 1.4071 13.3954 1.3849 8.65638C1.06248 8.78818 0.739263 8.92556 0.416749 9.07214L0 8.15608C0.483937 7.93612 0.968593 7.7337 1.45272 7.5457C1.97946 3.29255 5.60331 0.000225582 9.99902 0ZM17.3943 8.19245C12.4608 6.46073 7.53724 6.46122 2.6037 8.19343C2.59586 8.333 2.59092 8.47357 2.59092 8.6151C2.59094 12.7061 5.9081 16.023 9.99902 16.0232C14.0901 16.0232 17.4071 12.7062 17.4071 8.6151C17.4071 8.47322 17.4022 8.33236 17.3943 8.19245ZM9.99902 1.207C6.43453 1.20721 3.45822 3.72556 2.75113 7.07981C7.58088 5.48993 12.4171 5.49019 17.2469 7.07981C16.5397 3.72552 13.5636 1.20702 9.99902 1.207Z" fill="#C4876A"/>
</svg>
