<svg width="180" height="120" viewBox="0 0 180 120" fill="none" xmlns="http://www.w3.org/2000/svg">
<path d="M0 10C0 4.47715 4.47715 0 10 0H170C175.523 0 180 4.47715 180 10V120H0V10Z" fill="white"/>
<path d="M107.4 19H69.4004C66.0867 19 63.4004 21.6863 63.4004 25V95C63.4004 98.3137 66.0867 101 69.4004 101H107.4C110.714 101 113.4 98.3137 113.4 95V25C113.4 21.6863 110.714 19 107.4 19Z" fill="white" stroke="#C8C4BE"/>
<path d="M69.4004 29H107.4" stroke="#D4D0CA"/>
<path opacity="0.6" d="M105.4 35H71.4004C70.2958 35 69.4004 35.8954 69.4004 37V41C69.4004 42.1046 70.2958 43 71.4004 43H105.4C106.505 43 107.4 42.1046 107.4 41V37C107.4 35.8954 106.505 35 105.4 35Z" fill="#D4A853"/>
<path opacity="0.7" d="M98.4004 49H70.4004C69.8481 49 69.4004 49.4477 69.4004 50V53C69.4004 53.5523 69.8481 54 70.4004 54H98.4004C98.9527 54 99.4004 53.5523 99.4004 53V50C99.4004 49.4477 98.9527 49 98.4004 49Z" fill="#CCCCCC"/>
<path opacity="0.55" d="M102.4 60H70.4004C69.8481 60 69.4004 60.4477 69.4004 61V64C69.4004 64.5523 69.8481 65 70.4004 65H102.4C102.953 65 103.4 64.5523 103.4 64V61C103.4 60.4477 102.953 60 102.4 60Z" fill="#CCCCCC"/>
<path opacity="0.55" d="M96.4004 71H70.4004C69.8481 71 69.4004 71.4477 69.4004 72V75C69.4004 75.5523 69.8481 76 70.4004 76H96.4004C96.9527 76 97.4004 75.5523 97.4004 75V72C97.4004 71.4477 96.9527 71 96.4004 71Z" fill="#CCCCCC"/>
<path opacity="0.8" d="M101.4 82H75.4004C72.0867 82 69.4004 84.6863 69.4004 88C69.4004 91.3137 72.0867 94 75.4004 94H101.4C104.714 94 107.4 91.3137 107.4 88C107.4 84.6863 104.714 82 101.4 82Z" fill="#1A1C1E"/>
<path d="M76.6582 86.8652C76.6523 87.7031 77.2559 88.623 78.0117 88.9805L77.748 89.3438C77.1621 89.0596 76.667 88.4385 76.4355 87.7324C76.1953 88.5 75.6709 89.1738 75.0879 89.4727L74.8066 89.1094C75.5566 88.7461 76.2012 87.7559 76.207 86.8652V86.1855H74.9941V85.8047H77.8301V86.1855H76.6582V86.8652ZM78.9258 85.2656V87.375H79.7988V87.7676H78.9258V90.4746H78.4688V85.2656H78.9258ZM81.627 86.748C81.627 87.5742 82.0312 88.4707 82.7227 88.8809L82.459 89.2383C81.958 88.9336 81.5977 88.377 81.416 87.7441C81.2227 88.4355 80.8359 89.0303 80.3145 89.3496L80.0215 89.0039C80.7422 88.582 81.1816 87.6562 81.1816 86.7656V85.7578H81.627V86.748ZM84.5449 85.2656V90.4746H84.0996V85.2656H84.5449ZM83.4668 85.377V90.2109H83.0332V87.5273H82.1484V87.1348H83.0332V85.377H83.4668ZM89.5605 85.2656V90.4746H89.0977V85.2656H89.5605ZM88.5352 86.1152V86.4902H85.3828V86.1152H86.7246V85.3184H87.1875V86.1152H88.5352ZM86.9707 86.918C87.7207 86.918 88.2598 87.4102 88.2598 88.1133C88.2598 88.8164 87.7207 89.3086 86.9707 89.3086C86.2148 89.3086 85.6699 88.8164 85.6758 88.1133C85.6699 87.4102 86.2148 86.918 86.9707 86.918ZM86.9707 87.3047C86.4727 87.3047 86.1094 87.6445 86.1094 88.1133C86.1094 88.5879 86.4727 88.9219 86.9707 88.916C87.4629 88.9219 87.8203 88.5879 87.8203 88.1133C87.8203 87.6445 87.4629 87.3047 86.9707 87.3047ZM96.7266 89.4258V89.8066H91.957V89.4258H94.1016V88.3008H92.5195V85.6348H92.9824V86.5781H95.6895V85.6348H96.1406V88.3008H94.5527V89.4258H96.7266ZM92.9824 87.9258H95.6895V86.9531H92.9824V87.9258ZM101.449 85.2656V90.4746H100.986V85.2656H101.449ZM99.9082 85.834C99.9023 87.334 99.2051 88.6582 97.459 89.4961L97.207 89.1211C98.6162 88.4531 99.334 87.4541 99.4395 86.209H97.4473V85.834H99.9082Z" fill="white"/>
<path opacity="0.85" d="M49.4004 27H29.4004C27.1913 27 25.4004 28.7909 25.4004 31V39C25.4004 41.2091 27.1913 43 29.4004 43H49.4004C51.6095 43 53.4004 41.2091 53.4004 39V31C53.4004 28.7909 51.6095 27 49.4004 27Z" fill="#D4A853"/>
<path opacity="0.85" d="M33.4004 43L35.4004 47L39.4004 43" fill="#D4A853"/>
<path d="M37.8184 32.3438H38.998V36.0156C38.998 37.2578 38.0605 38.0781 36.6543 38.0781C35.248 38.0781 34.3184 37.2578 34.3184 36.0156V32.3438H35.4902V35.9219C35.4902 36.5703 35.9512 37.0469 36.6543 37.0469C37.3652 37.0469 37.8184 36.5703 37.8184 35.9219V32.3438ZM41.0371 32.3438L42.1934 34.2891H42.2324L43.3965 32.3438H44.7246L42.998 35.1719L44.7637 38H43.4043L42.2324 36.0547H42.1934L41.0215 38H39.6699L41.4434 35.1719L39.7012 32.3438H41.0371Z" fill="white"/>
<path opacity="0.8" d="M147.4 35H129.4C127.191 35 125.4 36.7909 125.4 39V47C125.4 49.2091 127.191 51 129.4 51H147.4C149.61 51 151.4 49.2091 151.4 47V39C151.4 36.7909 149.61 35 147.4 35Z" fill="#8FAF8A"/>
<path opacity="0.8" d="M131.4 51L133.4 55L137.4 51" fill="#8FAF8A"/>
<path d="M138.498 40.3438H139.678V44.0156C139.678 45.2578 138.74 46.0781 137.334 46.0781C135.928 46.0781 134.998 45.2578 134.998 44.0156V40.3438H136.17V43.9219C136.17 44.5703 136.631 45.0469 137.334 45.0469C138.045 45.0469 138.498 44.5703 138.498 43.9219V40.3438ZM141.803 40.3438V46H140.631V40.3438H141.803Z" fill="white"/>
<path opacity="0.45" d="M31.4004 68.5C32.2288 68.5 32.9004 67.8284 32.9004 67C32.9004 66.1716 32.2288 65.5 31.4004 65.5C30.572 65.5 29.9004 66.1716 29.9004 67C29.9004 67.8284 30.572 68.5 31.4004 68.5Z" fill="#D4A853"/>
<path opacity="0.4" d="M153.4 22.2001C154.063 22.2001 154.6 21.6628 154.6 21.0001C154.6 20.3373 154.063 19.8 153.4 19.8C152.737 19.8 152.2 20.3373 152.2 21.0001C152.2 21.6628 152.737 22.2001 153.4 22.2001Z" fill="#8FAF8A"/>
<path opacity="0.4" d="M147.4 90C147.953 90 148.4 89.5523 148.4 89C148.4 88.4477 147.953 88 147.4 88C146.848 88 146.4 88.4477 146.4 89C146.4 89.5523 146.848 90 147.4 90Z" fill="#C4876A"/>
</svg>
