<svg width="22" height="24" viewBox="164 3 22 24" fill="none" xmlns="http://www.w3.org/2000/svg">
<path fill-rule="evenodd" clip-rule="evenodd" d="M175.001 5.02441C176.639 5.02449 178.299 5.57078 179.557 6.68945C180.819 7.81139 181.638 9.47648 181.649 11.6318L182.611 19.3262C183.875 20.3006 184.861 21.2936 185.542 22.3145C185.674 22.5138 185.687 22.7703 185.574 22.9814C185.461 23.1927 185.24 23.3251 185.001 23.3252H178.612C178.519 24.1472 178.24 24.8551 177.711 25.3848C177.046 26.0496 176.101 26.3251 175.001 26.3252C173.901 26.3252 172.956 26.0495 172.291 25.3848C171.761 24.8551 171.481 24.1473 171.388 23.3252H165.001C164.761 23.3252 164.541 23.1927 164.427 22.9814C164.314 22.7702 164.327 22.5138 164.46 22.3145C165.14 21.2938 166.126 20.3005 167.389 19.3262L168.351 11.6318C168.362 9.47637 169.182 7.81139 170.444 6.68945C171.703 5.57081 173.362 5.02441 175.001 5.02441ZM172.698 23.3252C172.78 23.8557 172.965 24.2194 173.211 24.4648C173.546 24.7999 174.101 25.0244 175.001 25.0244C175.9 25.0244 176.456 24.7999 176.791 24.4648C177.036 24.2194 177.22 23.8556 177.302 23.3252H172.698ZM175.001 6.3252C173.639 6.3252 172.299 6.77908 171.307 7.66016C170.328 8.53077 169.651 9.85119 169.651 11.6748C169.651 11.7017 169.649 11.7291 169.645 11.7559L168.645 19.7559C168.623 19.9306 168.531 20.0886 168.39 20.1943C167.565 20.8137 166.884 21.4251 166.34 22.0244H183.662C183.117 21.4251 182.437 20.8137 181.611 20.1943C181.47 20.0886 181.378 19.9306 181.356 19.7559L180.356 11.7559C180.353 11.7291 180.35 11.7018 180.35 11.6748C180.35 9.8513 179.673 8.53077 178.694 7.66016C177.703 6.77905 176.362 6.32527 175.001 6.3252Z" fill="#4C4546"/>
<path d="M182 11.6748C184.209 11.6748 186 9.88394 186 7.6748C186 5.46567 184.209 3.6748 182 3.6748C179.791 3.6748 178 5.46567 178 7.6748C178 9.88394 179.791 11.6748 182 11.6748Z" fill="#D4A853"/>
</svg>
