<svg width="30" height="30" viewBox="0 0 30 30" fill="none" xmlns="http://www.w3.org/2000/svg">
<rect width="30" height="30" rx="4" fill="#E8941A"/>
<path d="M15.75 9.75049C15.75 9.27049 15.88 8.90049 16.14 8.64049C16.4 8.38049 16.77 8.25049 17.25 8.25049H23.94C24.42 8.25049 24.79 8.38049 25.05 8.64049C25.31 8.90049 25.44 9.27049 25.44 9.75049V10.3805C25.44 10.8605 25.31 11.2305 25.05 11.4905C24.79 11.7505 24.42 11.8805 23.94 11.8805H17.25C16.77 11.8805 16.4 11.7505 16.14 11.4905C15.88 11.2305 15.75 10.8605 15.75 10.3805V9.75049Z" fill="white"/>
<path d="M15.75 14.6705C15.75 14.1905 15.88 13.8205 16.14 13.5605C16.4 13.3005 16.77 13.1705 17.25 13.1705H23.94C24.42 13.1705 24.79 13.3005 25.05 13.5605C25.31 13.8205 25.44 14.1905 25.44 14.6705V15.3005C25.44 15.7805 25.31 16.1505 25.05 16.4105C24.79 16.6705 24.42 16.8005 23.94 16.8005H17.25C16.77 16.8005 16.4 16.6705 16.14 16.4105C15.88 16.1505 15.75 15.7805 15.75 15.3005V14.6705Z" fill="white"/>
<path d="M4.5 19.5303C4.5 19.3703 4.5 19.2753 4.5 19.2003C4.5 19.1253 4.5 18.9703 4.5 18.8103V14.6403C4.5 14.1603 4.63 13.7903 4.89 13.5303C5.15 13.2703 5.52 13.1403 6 13.1403H10.65V11.9103H6C5.52 11.9103 5.15 11.7803 4.89 11.5203C4.63 11.2603 4.5 10.8903 4.5 10.4103V9.78027C4.5 9.30027 4.63 8.93027 4.89 8.67027C5.15 8.41027 5.52 8.28027 6 8.28027H12.75C13.23 8.28027 13.6 8.41027 13.86 8.67027C14.12 8.93027 14.25 9.30027 14.25 9.78027V13.9503C14.25 14.1103 14.25 14.1753 14.25 14.2503C14.25 14.3253 14.25 14.4803 14.25 14.6403V15.3003C14.25 15.7803 14.12 16.1503 13.86 16.4103C13.6 16.6703 13.23 16.8003 12.75 16.8003H8.1V18.0303H24.015C24.495 18.0303 24.865 18.1603 25.125 18.4203C25.385 18.6803 25.515 19.0503 25.515 19.5303V20.1603C25.515 20.6403 25.385 21.0103 25.125 21.2703C24.865 21.5303 24.495 21.6603 24.015 21.6603H6C5.52 21.6603 5.15 21.5303 4.89 21.2703C4.63 21.0103 4.5 20.6403 4.5 20.1603V19.5303Z" fill="white"/>
</svg>
