<svg xmlns="http://www.w3.org/2000/svg" width="180" height="120" viewBox="0 0 180 120">
  <!-- 배경: 흰색 -->
  <rect width="180" height="120" fill="#FFFFFF"/>
  <!-- 페르소나 카드 (미드나잇차콜 배경) -->
  <rect x="8" y="8" width="74" height="104" rx="8" fill="#1A1C1E"/>
  <!-- 아바타 -->
  <circle cx="45" cy="38" r="20" fill="#2C2E32"/>
  <circle cx="45" cy="32" r="7" fill="#FFFFFF" opacity="0.55"/>
  <path d="M28 58 Q32 48 45 48 Q58 48 62 58" fill="#FFFFFF" opacity="0.55"/>
  <!-- 이름 라인 -->
  <rect x="18" y="68" width="54" height="6" rx="2" fill="#FFFFFF" opacity="0.40"/>
  <rect x="24" y="78" width="42" height="4" rx="2" fill="#FFFFFF" opacity="0.22"/>
  <!-- 태그 -->
  <rect x="18" y="88" width="26" height="12" rx="6" fill="#D4A853" opacity="0.75"/>
  <text x="31" y="97" font-family="sans-serif" font-size="6" fill="#FFFFFF"
        text-anchor="middle">32세</text>
  <rect x="48" y="88" width="26" height="12" rx="6" fill="#8FAF8A" opacity="0.65"/>
  <text x="61" y="97" font-family="sans-serif" font-size="6" fill="#FFFFFF"
        text-anchor="middle">디자인</text>
  <!-- 우측 데이터 바 -->
  <text x="92" y="22" font-family="sans-serif" font-size="7" fill="#555">관심도</text>
  <rect x="92" y="25" width="76" height="6" rx="3" fill="#E8E8E8"/>
  <rect x="92" y="25" width="58" height="6" rx="3" fill="#1A1C1E" opacity="0.65"/>
  <text x="92" y="42" font-family="sans-serif" font-size="7" fill="#555">전문성</text>
  <rect x="92" y="45" width="76" height="6" rx="3" fill="#E8E8E8"/>
  <rect x="92" y="45" width="44" height="6" rx="3" fill="#1A1C1E" opacity="0.50"/>
  <text x="92" y="62" font-family="sans-serif" font-size="7" fill="#555">동기부여</text>
  <rect x="92" y="65" width="76" height="6" rx="3" fill="#E8E8E8"/>
  <rect x="92" y="65" width="66" height="6" rx="3" fill="#1A1C1E" opacity="0.40"/>
  <text x="92" y="82" font-family="sans-serif" font-size="7" fill="#555">목표 명확성</text>
  <rect x="92" y="85" width="76" height="6" rx="3" fill="#E8E8E8"/>
  <rect x="92" y="85" width="52" height="6" rx="3" fill="#D4A853" opacity="0.80"/>
  <circle cx="164" cy="108" r="2" fill="#D4A853" opacity="0.40"/>
</svg>