<svg width="80" height="80" viewBox="0 0 80 80" fill="none" xmlns="http://www.w3.org/2000/svg">
<rect width="80" height="80" rx="10" fill="#E8E4DE"/>
<path d="M50.6504 22.75H24.6504C22.9935 22.75 21.6504 24.0931 21.6504 25.75V59.75C21.6504 61.4069 22.9935 62.75 24.6504 62.75H50.6504C52.3072 62.75 53.6504 61.4069 53.6504 59.75V25.75C53.6504 24.0931 52.3072 22.75 50.6504 22.75Z" fill="white" stroke="#D4C8BC"/>
<path d="M27.6504 32.75H47.6504" stroke="#D0C8BE" stroke-width="1.2" stroke-linecap="round"/>
<path opacity="0.7" d="M27.6504 38.75H47.6504" stroke="#D0C8BE" stroke-linecap="round"/>
<path opacity="0.7" d="M27.6504 44.75H41.6504" stroke="#D0C8BE" stroke-linecap="round"/>
<path opacity="0.9" d="M47.6504 62.75C52.0687 62.75 55.6504 59.1683 55.6504 54.75C55.6504 50.3317 52.0687 46.75 47.6504 46.75C43.2321 46.75 39.6504 50.3317 39.6504 54.75C39.6504 59.1683 43.2321 62.75 47.6504 62.75Z" fill="#D4A853"/>
<path d="M43.6504 54.75L46.6504 57.75L52.6504 50.75" stroke="white" stroke-width="1.5" stroke-linecap="round" stroke-linejoin="round"/>
<path opacity="0.55" d="M15.6504 20.25C16.4788 20.25 17.1504 19.5784 17.1504 18.75C17.1504 17.9216 16.4788 17.25 15.6504 17.25C14.822 17.25 14.1504 17.9216 14.1504 18.75C14.1504 19.5784 14.822 20.25 15.6504 20.25Z" fill="#D4A853"/>
<path opacity="0.5" d="M64.6502 53.9501C65.3129 53.9501 65.8502 53.4128 65.8502 52.7501C65.8502 52.0873 65.3129 51.55 64.6502 51.55C63.9875 51.55 63.4502 52.0873 63.4502 52.7501C63.4502 53.4128 63.9875 53.9501 64.6502 53.9501Z" fill="#8FAF8A"/>
</svg>
