<svg width="382" height="281" viewBox="0 0 382 281" fill="none" xmlns="http://www.w3.org/2000/svg">
<path d="M362.41 0H19.5897C8.77063 0 0 8.9543 0 20V260C0 271.046 8.77063 280 19.5897 280H362.41C373.229 280 382 271.046 382 260V20C382 8.9543 373.229 0 362.41 0Z" fill="url(#paint0_linear_543_9655)"/>
<g opacity="0.15" stroke="#E8E8E8" stroke-width="0.5">
<path d="M0 40H382"/>
<path d="M0 80H382"/>
<path d="M0 120H382"/>
<path d="M0 160H382"/>
<path d="M0 200H382"/>
<path d="M0 240H382"/>
<path d="M0 280H382"/>
<path d="M39.1797 0V280"/>
<path d="M117.539 0V280"/>
<path d="M195.896 0V280"/>
<path d="M274.256 0V280"/>
<path d="M352.615 0V280"/>
</g>
<!-- 일러스트 전체 30px 하단 이동 (테라코타 별 제외) -->
<g transform="translate(0,30)">
  <path opacity="0.37" d="M27.4244 21.2C28.0736 21.2 28.5998 20.6628 28.5998 20C28.5998 19.3373 28.0736 18.8 27.4244 18.8C26.7753 18.8 26.249 19.3373 26.249 20C26.249 20.6628 26.7753 21.2 27.4244 21.2Z" fill="#F9F9F9"/>
  <path opacity="0.35" d="M66.6049 35.8C67.0376 35.8 67.3885 35.4418 67.3885 35C67.3885 34.5581 67.0376 34.2 66.6049 34.2C66.1721 34.2 65.8213 34.5581 65.8213 35C65.8213 35.4418 66.1721 35.8 66.6049 35.8Z" fill="#F9F9F9"/>
  <path opacity="0.36" d="M107.743 16.5C108.554 16.5 109.212 15.8284 109.212 15C109.212 14.1716 108.554 13.5 107.743 13.5C106.931 13.5 106.273 14.1716 106.273 15C106.273 15.8284 106.931 16.5 107.743 16.5Z" fill="#F9F9F9"/>
  <path opacity="0.35" d="M148.881 30.8C149.314 30.8 149.665 30.4418 149.665 30C149.665 29.5581 149.314 29.2 148.881 29.2C148.448 29.2 148.098 29.5581 148.098 30C148.098 30.4418 148.448 30.8 148.881 30.8Z" fill="#F9F9F9"/>
  <path opacity="0.37" d="M328.128 19.2C328.777 19.2 329.303 18.6628 329.303 18C329.303 17.3373 328.777 16.8 328.128 16.8C327.478 16.8 326.952 17.3373 326.952 18C326.952 18.6628 327.478 19.2 328.128 19.2Z" fill="#F9F9F9"/>
  <path opacity="0.35" d="M367.307 35.8C367.74 35.8 368.091 35.4418 368.091 35C368.091 34.5581 367.74 34.2 367.307 34.2C366.874 34.2 366.523 34.5581 366.523 35C366.523 35.4418 366.874 35.8 367.307 35.8Z" fill="#F9F9F9"/>
  <path opacity="0.36" d="M313.434 49.5C314.246 49.5 314.903 48.8284 314.903 48C314.903 47.1716 314.246 46.5 313.434 46.5C312.623 46.5 311.965 47.1716 311.965 48C311.965 48.8284 312.623 49.5 313.434 49.5Z" fill="#F9F9F9"/>
  <path opacity="0.35" d="M29.3838 121C29.9247 121 30.3633 120.552 30.3633 120C30.3633 119.448 29.9247 119 29.3838 119C28.8428 119 28.4043 119.448 28.4043 120C28.4043 120.552 28.8428 121 29.3838 121Z" fill="#F9F9F9"/>
  <path opacity="0.36" d="M362.409 116.2C363.058 116.2 363.584 115.663 363.584 115C363.584 114.337 363.058 113.8 362.409 113.8C361.76 113.8 361.233 114.337 361.233 115C361.233 115.663 361.76 116.2 362.409 116.2Z" fill="#F9F9F9"/>
  <path opacity="0.35" d="M48.9736 231C49.5146 231 49.9531 230.552 49.9531 230C49.9531 229.448 49.5146 229 48.9736 229C48.4327 229 47.9941 229.448 47.9941 230C47.9941 230.552 48.4327 231 48.9736 231Z" fill="#F9F9F9"/>
  <path opacity="0.35" d="M342.819 226.2C343.468 226.2 343.994 225.663 343.994 225C343.994 224.337 343.468 223.8 342.819 223.8C342.17 223.8 341.644 224.337 341.644 225C341.644 225.663 342.17 226.2 342.819 226.2Z" fill="#F9F9F9"/>
  <path opacity="0.9" d="M53.8701 43C55.493 43 56.8086 41.6569 56.8086 40C56.8086 38.3431 55.493 37 53.8701 37C52.2472 37 50.9316 38.3431 50.9316 40C50.9316 41.6569 52.2472 43 53.8701 43Z" fill="#D4A853"/>
  <path opacity="0.85" d="M95.9897 70.5C97.3421 70.5 98.4385 69.3807 98.4385 68C98.4385 66.6193 97.3421 65.5 95.9897 65.5C94.6373 65.5 93.541 66.6193 93.541 68C93.541 69.3807 94.6373 70.5 95.9897 70.5Z" fill="#D4A853"/>
  <path opacity="0.9" d="M125.374 111.5C127.267 111.5 128.802 109.933 128.802 108C128.802 106.067 127.267 104.5 125.374 104.5C123.48 104.5 121.945 106.067 121.945 108C121.945 109.933 123.48 111.5 125.374 111.5Z" fill="#D4A853"/>
  <path opacity="0.85" d="M154.757 90.5C156.11 90.5 157.206 89.3807 157.206 88C157.206 86.6193 156.11 85.5 154.757 85.5C153.405 85.5 152.309 86.6193 152.309 88C152.309 89.3807 153.405 90.5 154.757 90.5Z" fill="#D4A853"/>
  <path opacity="0.95" d="M190.999 122C193.163 122 194.917 120.209 194.917 118C194.917 115.791 193.163 114 190.999 114C188.835 114 187.081 115.791 187.081 118C187.081 120.209 188.835 122 190.999 122Z" fill="#D4A853"/>
  <path opacity="0.7" d="M53.8711 40L95.989 68" stroke="#D4A853" stroke-width="1.8"/>
  <path opacity="0.7" d="M95.9883 68L125.373 108" stroke="#D4A853" stroke-width="1.8"/>
  <path opacity="0.7" d="M125.373 108L154.758 88" stroke="#D4A853" stroke-width="1.8"/>
  <path opacity="0.8" d="M154.758 88L190.999 118" stroke="#D4A853" stroke-width="2"/>
  <path opacity="0.35" d="M191 128C196.41 128 200.795 123.523 200.795 118C200.795 112.477 196.41 108 191 108C185.59 108 181.205 112.477 181.205 118C181.205 123.523 185.59 128 191 128Z" stroke="#D4A853" stroke-width="0.8"/>
  <path opacity="0.25" d="M191 136C200.737 136 208.631 127.941 208.631 118C208.631 108.059 200.737 100 191 100C181.263 100 173.369 108.059 173.369 118C173.369 127.941 181.263 136 191 136Z" stroke="#D4A853" stroke-width="0.5"/>
  <path opacity="1" d="M227.24 100C228.322 100 229.199 99.1046 229.199 98C229.199 96.8954 228.322 96 227.24 96C226.158 96 225.281 96.8954 225.281 98C225.281 99.1046 226.158 100 227.24 100Z" fill="#F2F2F2"/>
  <path opacity="1" d="M266.419 120.5C267.772 120.5 268.868 119.381 268.868 118C268.868 116.619 267.772 115.5 266.419 115.5C265.067 115.5 263.971 116.619 263.971 118C263.971 119.381 265.067 120.5 266.419 120.5Z" fill="#F2F2F2"/>
  <path opacity="1" d="M301.682 97C302.764 97 303.641 96.1046 303.641 95C303.641 93.8954 302.764 93 301.682 93C300.6 93 299.723 93.8954 299.723 95C299.723 96.1046 300.6 97 301.682 97Z" fill="#F2F2F2"/>
  <path opacity="1" d="M334.983 113.5C335.794 113.5 336.452 112.828 336.452 112C336.452 111.172 335.794 110.5 334.983 110.5C334.171 110.5 333.514 111.172 333.514 112C333.514 112.828 334.171 113.5 334.983 113.5Z" fill="#F2F2F2"/>
  <path opacity="0.37" d="M191 118L227.241 98" stroke="#F2F2F2" stroke-width="1.2" stroke-dasharray="4 5"/>
  <path opacity="0.33" d="M227.24 98L266.42 118" stroke="#F2F2F2" stroke-width="1.2" stroke-dasharray="4 5"/>
  <path opacity="0.30" d="M266.42 118L301.681 95" stroke="#F2F2F2" stroke-width="1.2" stroke-dasharray="4 5"/>
  <path opacity="0.27" d="M301.682 95L334.984 112" stroke="#F2F2F2" stroke-width="1.2" stroke-dasharray="4 5"/>
  <path opacity="1" d="M347.717 58L349.676 52L351.635 58L357.512 60L351.635 62L349.676 68L347.717 62L341.84 60L347.717 58Z" stroke="#D4A853" stroke-width="0.9" stroke-linejoin="round"/>
  <path opacity="1" d="M323.23 182L325.189 176L327.148 182L333.025 184L327.148 186L325.189 192L323.23 186L317.354 184L323.23 182Z" stroke="#8FAF8A" stroke-width="0.9" stroke-linejoin="round"/>
</g>
<!-- 테라코타 4점별만 20px 하단 이동 -->
<path transform="translate(0,20)" opacity="1" d="M31.3427 70L33.7915 63L36.2402 70L43.0966 72.5L36.2402 75L33.7915 82L31.3427 75L24.4863 72.5L31.3427 70Z" stroke="#C4876A" stroke-width="1.1" stroke-linejoin="round"/>
<defs>
<linearGradient id="paint0_linear_543_9655" x1="0" y1="0" x2="267.014" y2="364.283" gradientUnits="userSpaceOnUse">
<stop stop-color="#141828"/>
<stop offset="1" stop-color="#1E2438"/>
</linearGradient>
</defs>
</svg>
