<svg width="11" height="11" viewBox="0 0 11 11" fill="none" xmlns="http://www.w3.org/2000/svg">
<path d="M1.22222 9.77778H2.09306L8.06667 3.80417L7.19583 2.93333L1.22222 8.90694V9.77778ZM0 11V8.40278L8.06667 0.351389C8.18889 0.239352 8.32384 0.152778 8.47153 0.0916667C8.61921 0.0305556 8.77454 0 8.9375 0C9.10046 0 9.25833 0.0305556 9.41111 0.0916667C9.56389 0.152778 9.6963 0.244444 9.80833 0.366667L10.6486 1.22222C10.7708 1.33426 10.86 1.46667 10.916 1.61944C10.972 1.77222 11 1.925 11 2.07778C11 2.24074 10.972 2.39606 10.916 2.54375C10.86 2.69143 10.7708 2.82639 10.6486 2.94861L2.59722 11H0ZM9.77778 2.07778L8.92222 1.22222L9.77778 2.07778ZM7.62361 3.37639L7.19583 2.93333L8.06667 3.80417L7.62361 3.37639Z" fill="white"/>
</svg>
