<svg width="25" height="20" viewBox="0 0 25 20" fill="none" xmlns="http://www.w3.org/2000/svg">
<path d="M17.5 10V7.5H20V10H17.5ZM17.5 12.5H15V10H17.5V12.5ZM17.5 15V12.5H20V15H17.5ZM11.4688 5L8.96875 2.5H2.5V17.5H15V15H17.5V17.5H22.5V5H17.5V7.5H15V5H11.4688ZM2.5 20C1.8125 20 1.22396 19.7552 0.734375 19.2656C0.244792 18.776 0 18.1875 0 17.5V2.5C0 1.8125 0.244792 1.22396 0.734375 0.734375C1.22396 0.244792 1.8125 0 2.5 0H10L12.5 2.5H22.5C23.1875 2.5 23.776 2.74479 24.2656 3.23438C24.7552 3.72396 25 4.3125 25 5V17.5C25 18.1875 24.7552 18.776 24.2656 19.2656C23.776 19.7552 23.1875 20 22.5 20H2.5ZM2.5 17.5V5V2.5V17.5Z" fill="#1A1C1E"/>
</svg>
