<svg width="430" height="36" viewBox="0 0 430 36" fill="none" xmlns="http://www.w3.org/2000/svg">
<path d="M390 25V23H392V16C392 14.6167 392.417 13.3875 393.25 12.3125C394.083 11.2375 395.167 10.5333 396.5 10.2V9.5C396.5 9.08333 396.646 8.72917 396.938 8.4375C397.229 8.14583 397.583 8 398 8C398.417 8 398.771 8.14583 399.062 8.4375C399.354 8.72917 399.5 9.08333 399.5 9.5V10.2C400.833 10.5333 401.917 11.2375 402.75 12.3125C403.583 13.3875 404 14.6167 404 16V23H406V25H390ZM398 28C397.45 28 396.979 27.8042 396.588 27.4125C396.196 27.0208 396 26.55 396 26H400C400 26.55 399.804 27.0208 399.413 27.4125C399.021 27.8042 398.55 28 398 28ZM394 23H402V16C402 14.9 401.608 13.9583 400.825 13.175C400.042 12.3917 399.1 12 398 12C396.9 12 395.958 12.3917 395.175 13.175C394.392 13.9583 394 14.9 394 16V23Z" fill="#E8E8E8"/>
<circle cx="403.5" cy="10.5" r="2.75" fill="#D4A017" stroke="#E8E8E8" stroke-width="0.5"/>
</svg>
