<svg width="9" height="12" viewBox="0 0 9 12" fill="none" xmlns="http://www.w3.org/2000/svg">
<path d="M4.375 11.6667C4.05417 11.6667 3.77951 11.5524 3.55104 11.324C3.32257 11.0955 3.20833 10.8208 3.20833 10.5H5.54167C5.54167 10.8208 5.42743 11.0955 5.19896 11.324C4.97049 11.5524 4.69583 11.6667 4.375 11.6667ZM2.04167 9.91667V8.75H6.70833V9.91667H2.04167ZM2.1875 8.16667C1.51667 7.76806 0.984375 7.23333 0.590625 6.5625C0.196875 5.89167 0 5.1625 0 4.375C0 3.15972 0.425347 2.12674 1.27604 1.27604C2.12674 0.425347 3.15972 0 4.375 0C5.59028 0 6.62326 0.425347 7.47396 1.27604C8.32465 2.12674 8.75 3.15972 8.75 4.375C8.75 5.1625 8.55313 5.89167 8.15938 6.5625C7.76562 7.23333 7.23333 7.76806 6.5625 8.16667H2.1875ZM2.5375 7H6.2125C6.65 6.68889 6.98785 6.30486 7.22604 5.84792C7.46424 5.39097 7.58333 4.9 7.58333 4.375C7.58333 3.48056 7.27222 2.72222 6.65 2.1C6.02778 1.47778 5.26944 1.16667 4.375 1.16667C3.48056 1.16667 2.72222 1.47778 2.1 2.1C1.47778 2.72222 1.16667 3.48056 1.16667 4.375C1.16667 4.9 1.28576 5.39097 1.52396 5.84792C1.76215 6.30486 2.1 6.68889 2.5375 7Z" fill="#1A1C1E"/>
</svg>
