<svg width="45" height="48" viewBox="0 0 45 48" fill="none" xmlns="http://www.w3.org/2000/svg">
<rect width="44.83" height="48" rx="8" fill="#F9F9F9"/>
<path d="M10.415 30V28.425C10.415 27.7083 10.7817 27.125 11.515 26.675C12.2484 26.225 13.215 26 14.415 26C14.6317 26 14.84 26.0042 15.04 26.0125C15.24 26.0208 15.4317 26.0417 15.615 26.075C15.3817 26.425 15.2067 26.7917 15.09 27.175C14.9734 27.5583 14.915 27.9583 14.915 28.375V30H10.415ZM16.415 30V28.375C16.415 27.8417 16.5609 27.3542 16.8525 26.9125C17.1442 26.4708 17.5567 26.0833 18.09 25.75C18.6234 25.4167 19.2609 25.1667 20.0025 25C20.7442 24.8333 21.5484 24.75 22.415 24.75C23.2984 24.75 24.1109 24.8333 24.8525 25C25.5942 25.1667 26.2317 25.4167 26.765 25.75C27.2984 26.0833 27.7067 26.4708 27.99 26.9125C28.2734 27.3542 28.415 27.8417 28.415 28.375V30H16.415ZM29.915 30V28.375C29.915 27.9417 29.8609 27.5333 29.7525 27.15C29.6442 26.7667 29.4817 26.4083 29.265 26.075C29.4484 26.0417 29.6359 26.0208 29.8275 26.0125C30.0192 26.0042 30.215 26 30.415 26C31.615 26 32.5817 26.2208 33.315 26.6625C34.0484 27.1042 34.415 27.6917 34.415 28.425V30H29.915ZM18.54 28H26.315C26.1484 27.6667 25.6859 27.375 24.9275 27.125C24.1692 26.875 23.3317 26.75 22.415 26.75C21.4984 26.75 20.6609 26.875 19.9025 27.125C19.1442 27.375 18.69 27.6667 18.54 28ZM14.415 25C13.865 25 13.3942 24.8042 13.0025 24.4125C12.6109 24.0208 12.415 23.55 12.415 23C12.415 22.4333 12.6109 21.9583 13.0025 21.575C13.3942 21.1917 13.865 21 14.415 21C14.9817 21 15.4567 21.1917 15.84 21.575C16.2234 21.9583 16.415 22.4333 16.415 23C16.415 23.55 16.2234 24.0208 15.84 24.4125C15.4567 24.8042 14.9817 25 14.415 25ZM30.415 25C29.865 25 29.3942 24.8042 29.0025 24.4125C28.6109 24.0208 28.415 23.55 28.415 23C28.415 22.4333 28.6109 21.9583 29.0025 21.575C29.3942 21.1917 29.865 21 30.415 21C30.9817 21 31.4567 21.1917 31.84 21.575C32.2234 21.9583 32.415 22.4333 32.415 23C32.415 23.55 32.2234 24.0208 31.84 24.4125C31.4567 24.8042 30.9817 25 30.415 25ZM22.415 24C21.5817 24 20.8734 23.7083 20.29 23.125C19.7067 22.5417 19.415 21.8333 19.415 21C19.415 20.15 19.7067 19.4375 20.29 18.8625C20.8734 18.2875 21.5817 18 22.415 18C23.265 18 23.9775 18.2875 24.5525 18.8625C25.1275 19.4375 25.415 20.15 25.415 21C25.415 21.8333 25.1275 22.5417 24.5525 23.125C23.9775 23.7083 23.265 24 22.415 24ZM22.415 22C22.6984 22 22.9359 21.9042 23.1275 21.7125C23.3192 21.5208 23.415 21.2833 23.415 21C23.415 20.7167 23.3192 20.4792 23.1275 20.2875C22.9359 20.0958 22.6984 20 22.415 20C22.1317 20 21.8942 20.0958 21.7025 20.2875C21.5109 20.4792 21.415 20.7167 21.415 21C21.415 21.2833 21.5109 21.5208 21.7025 21.7125C21.8942 21.9042 22.1317 22 22.415 22Z" fill="#1A1C1E"/>
</svg>
