<svg width="46" height="48" viewBox="0 0 46 48" fill="none" xmlns="http://www.w3.org/2000/svg">
<rect width="45.66" height="48" rx="8" fill="#F9F9F9"/>
<path d="M16.6801 29.1C17.5301 28.45 18.4801 27.9375 19.5301 27.5625C20.5801 27.1875 21.6801 27 22.8301 27C23.9801 27 25.0801 27.1875 26.1301 27.5625C27.1801 27.9375 28.1301 28.45 28.9801 29.1C29.5634 28.4167 30.0176 27.6417 30.3426 26.775C30.6676 25.9083 30.8301 24.9833 30.8301 24C30.8301 21.7833 30.0509 19.8958 28.4926 18.3375C26.9342 16.7792 25.0467 16 22.8301 16C20.6134 16 18.7259 16.7792 17.1676 18.3375C15.6092 19.8958 14.8301 21.7833 14.8301 24C14.8301 24.9833 14.9926 25.9083 15.3176 26.775C15.6426 27.6417 16.0967 28.4167 16.6801 29.1ZM22.8301 25C21.8467 25 21.0176 24.6625 20.3426 23.9875C19.6676 23.3125 19.3301 22.4833 19.3301 21.5C19.3301 20.5167 19.6676 19.6875 20.3426 19.0125C21.0176 18.3375 21.8467 18 22.8301 18C23.8134 18 24.6426 18.3375 25.3176 19.0125C25.9926 19.6875 26.3301 20.5167 26.3301 21.5C26.3301 22.4833 25.9926 23.3125 25.3176 23.9875C24.6426 24.6625 23.8134 25 22.8301 25ZM22.8301 34C21.4467 34 20.1467 33.7375 18.9301 33.2125C17.7134 32.6875 16.6551 31.975 15.7551 31.075C14.8551 30.175 14.1426 29.1167 13.6176 27.9C13.0926 26.6833 12.8301 25.3833 12.8301 24C12.8301 22.6167 13.0926 21.3167 13.6176 20.1C14.1426 18.8833 14.8551 17.825 15.7551 16.925C16.6551 16.025 17.7134 15.3125 18.9301 14.7875C20.1467 14.2625 21.4467 14 22.8301 14C24.2134 14 25.5134 14.2625 26.7301 14.7875C27.9467 15.3125 29.0051 16.025 29.9051 16.925C30.8051 17.825 31.5176 18.8833 32.0426 20.1C32.5676 21.3167 32.8301 22.6167 32.8301 24C32.8301 25.3833 32.5676 26.6833 32.0426 27.9C31.5176 29.1167 30.8051 30.175 29.9051 31.075C29.0051 31.975 27.9467 32.6875 26.7301 33.2125C25.5134 33.7375 24.2134 34 22.8301 34ZM22.8301 32C23.7134 32 24.5467 31.8708 25.3301 31.6125C26.1134 31.3542 26.8301 30.9833 27.4801 30.5C26.8301 30.0167 26.1134 29.6458 25.3301 29.3875C24.5467 29.1292 23.7134 29 22.8301 29C21.9467 29 21.1134 29.1292 20.3301 29.3875C19.5467 29.6458 18.8301 30.0167 18.1801 30.5C18.8301 30.9833 19.5467 31.3542 20.3301 31.6125C21.1134 31.8708 21.9467 32 22.8301 32ZM22.8301 23C23.2634 23 23.6217 22.8583 23.9051 22.575C24.1884 22.2917 24.3301 21.9333 24.3301 21.5C24.3301 21.0667 24.1884 20.7083 23.9051 20.425C23.6217 20.1417 23.2634 20 22.8301 20C22.3967 20 22.0384 20.1417 21.7551 20.425C21.4717 20.7083 21.3301 21.0667 21.3301 21.5C21.3301 21.9333 21.4717 22.2917 21.7551 22.575C22.0384 22.8583 22.3967 23 22.8301 23Z" fill="#1A1C1E"/>
</svg>
