<svg width="44" height="48" viewBox="0 0 44 48" fill="none" xmlns="http://www.w3.org/2000/svg">
<rect width="43.84" height="48" rx="8" fill="#F9F9F9"/>
<path d="M17.4199 28.5L24.4199 26.5L26.4199 19.5L19.4199 21.5L17.4199 28.5ZM21.9199 25.5C21.5033 25.5 21.1491 25.3542 20.8574 25.0625C20.5658 24.7708 20.4199 24.4167 20.4199 24C20.4199 23.5833 20.5658 23.2292 20.8574 22.9375C21.1491 22.6458 21.5033 22.5 21.9199 22.5C22.3366 22.5 22.6908 22.6458 22.9824 22.9375C23.2741 23.2292 23.4199 23.5833 23.4199 24C23.4199 24.4167 23.2741 24.7708 22.9824 25.0625C22.6908 25.3542 22.3366 25.5 21.9199 25.5ZM21.9199 34C20.5366 34 19.2366 33.7375 18.0199 33.2125C16.8033 32.6875 15.7449 31.975 14.8449 31.075C13.9449 30.175 13.2324 29.1167 12.7074 27.9C12.1824 26.6833 11.9199 25.3833 11.9199 24C11.9199 22.6167 12.1824 21.3167 12.7074 20.1C13.2324 18.8833 13.9449 17.825 14.8449 16.925C15.7449 16.025 16.8033 15.3125 18.0199 14.7875C19.2366 14.2625 20.5366 14 21.9199 14C23.3033 14 24.6033 14.2625 25.8199 14.7875C27.0366 15.3125 28.0949 16.025 28.9949 16.925C29.8949 17.825 30.6074 18.8833 31.1324 20.1C31.6574 21.3167 31.9199 22.6167 31.9199 24C31.9199 25.3833 31.6574 26.6833 31.1324 27.9C30.6074 29.1167 29.8949 30.175 28.9949 31.075C28.0949 31.975 27.0366 32.6875 25.8199 33.2125C24.6033 33.7375 23.3033 34 21.9199 34ZM21.9199 32C24.1366 32 26.0241 31.2208 27.5824 29.6625C29.1408 28.1042 29.9199 26.2167 29.9199 24C29.9199 21.7833 29.1408 19.8958 27.5824 18.3375C26.0241 16.7792 24.1366 16 21.9199 16C19.7033 16 17.8158 16.7792 16.2574 18.3375C14.6991 19.8958 13.9199 21.7833 13.9199 24C13.9199 26.2167 14.6991 28.1042 16.2574 29.6625C17.8158 31.2208 19.7033 32 21.9199 32Z" fill="#1A1C1E"/>
</svg>
