<svg width="40" height="40" viewBox="0 0 40 40" fill="none" xmlns="http://www.w3.org/2000/svg">
<rect width="40" height="40" rx="12" fill="#F9F9F9"/>
<g opacity="0.5">
<path d="M20 29.75C19.2 29.1167 18.3333 28.625 17.4 28.275C16.4667 27.925 15.5 27.75 14.5 27.75C13.8 27.75 13.1125 27.8417 12.4375 28.025C11.7625 28.2083 11.1167 28.4667 10.5 28.8C10.15 28.9833 9.8125 28.975 9.4875 28.775C9.1625 28.575 9 28.2833 9 27.9V15.85C9 15.6667 9.04583 15.4917 9.1375 15.325C9.22917 15.1583 9.36667 15.0333 9.55 14.95C10.3167 14.55 11.1167 14.25 11.95 14.05C12.7833 13.85 13.6333 13.75 14.5 13.75C15.4667 13.75 16.4125 13.875 17.3375 14.125C18.2625 14.375 19.15 14.75 20 15.25V27.35C20.85 26.8167 21.7417 26.4167 22.675 26.15C23.6083 25.8833 24.55 25.75 25.5 25.75C26.1 25.75 26.6875 25.8 27.2625 25.9C27.8375 26 28.4167 26.15 29 26.35V14.35C29.25 14.4333 29.4958 14.5208 29.7375 14.6125C29.9792 14.7042 30.2167 14.8167 30.45 14.95C30.6333 15.0333 30.7708 15.1583 30.8625 15.325C30.9542 15.4917 31 15.6667 31 15.85V27.9C31 28.2833 30.8375 28.575 30.5125 28.775C30.1875 28.975 29.85 28.9833 29.5 28.8C28.8833 28.4667 28.2375 28.2083 27.5625 28.025C26.8875 27.8417 26.2 27.75 25.5 27.75C24.5 27.75 23.5333 27.925 22.6 28.275C21.6667 28.625 20.8 29.1167 20 29.75ZM22 24.75V15.25L27 10.25V20.25L22 24.75ZM18 26.375V16.475C17.45 16.2417 16.8792 16.0625 16.2875 15.9375C15.6958 15.8125 15.1 15.75 14.5 15.75C13.8833 15.75 13.2833 15.8083 12.7 15.925C12.1167 16.0417 11.55 16.2167 11 16.45V26.375C11.5833 26.1583 12.1625 26 12.7375 25.9C13.3125 25.8 13.9 25.75 14.5 25.75C15.1 25.75 15.6875 25.8 16.2625 25.9C16.8375 26 17.4167 26.1583 18 26.375ZM18 26.375V16.475V26.375Z" fill="#1A1C1E"/>
</g>
</svg>
