<svg width="290" height="16" viewBox="0 0 290 16" fill="none" xmlns="http://www.w3.org/2000/svg">
<path d="M287.498 5.25453H10.2588C8.87694 5.25453 7.75669 6.37478 7.75669 7.75669C7.75669 9.13859 8.87694 10.2588 10.2588 10.2588H287.498C288.88 10.2588 290 9.13859 290 7.75669C290 6.37478 288.88 5.25453 287.498 5.25453Z" fill="#F9F9F9"/>
<path d="M7.75669 14.7627C11.626 14.7627 14.7627 11.626 14.7627 7.75669C14.7627 3.88736 11.626 0.750647 7.75669 0.750647C3.88736 0.750647 0.750647 3.88736 0.750647 7.75669C0.750647 11.626 3.88736 14.7627 7.75669 14.7627Z" fill="#1A1C1E" stroke="#D4A017" stroke-width="1.5"/>
<path d="M7.75669 10.7593C9.41497 10.7593 10.7593 9.41497 10.7593 7.75669C10.7593 6.0984 9.41497 4.7541 7.75669 4.7541C6.0984 4.7541 4.7541 6.0984 4.7541 7.75669C4.7541 9.41497 6.0984 10.7593 7.75669 10.7593Z" fill="#D4A017"/>
</svg>
