<svg width="64" height="64" viewBox="0 0 64 64" fill="none" xmlns="http://www.w3.org/2000/svg">
<path d="M32 60C47.4536 60 60 47.4536 60 32C60 16.5464 47.4536 4 32 4C16.5464 4 4 16.5464 4 32C4 47.4536 16.5464 60 32 60V60" stroke="#D4A017" stroke-width="4"/>
<path d="M25.9082 35.5L23.8867 28.4297H25.4883L26.6797 33.3711H26.7383L28.0371 28.4297H29.4141L30.7129 33.3809H30.7715L31.9629 28.4297H33.5645L31.543 35.5H30.1074L28.7598 30.832H28.7012L27.3438 35.5H25.9082ZM33.8281 34.25V33.0879L36.8164 28.4297H38.6621V33.0684H39.5605V34.25H38.6621V35.5H37.2656V34.25H33.8281ZM35.3125 33.0684H37.2852V30.041H37.2168L35.3125 33.0098V33.0684Z" fill="#1A1C1E"/>
</svg>
