<svg width="64" height="64" viewBox="0 0 64 64" fill="none" xmlns="http://www.w3.org/2000/svg">
<rect width="64" height="64" rx="8" fill="#1A1C1E"/>
<rect width="64" height="64" rx="8" fill="#1A1C1E"/>
<path d="M33.5996 20.7996C33.5996 19.7756 33.8769 18.9863 34.4316 18.4316C34.9863 17.8769 35.7756 17.5996 36.7996 17.5996H51.0716C52.0956 17.5996 52.8849 17.8769 53.4396 18.4316C53.9943 18.9863 54.2716 19.7756 54.2716 20.7996V22.1436C54.2716 23.1676 53.9943 23.9569 53.4396 24.5116C52.8849 25.0663 52.0956 25.3436 51.0716 25.3436H36.7996C35.7756 25.3436 34.9863 25.0663 34.4316 24.5116C33.8769 23.9569 33.5996 23.1676 33.5996 22.1436V20.7996Z" fill="white"/>
<path d="M33.5996 31.2956C33.5996 30.2716 33.8769 29.4823 34.4316 28.9276C34.9863 28.3729 35.7756 28.0956 36.7996 28.0956H51.0716C52.0956 28.0956 52.8849 28.3729 53.4396 28.9276C53.9943 29.4823 54.2716 30.2716 54.2716 31.2956V32.6396C54.2716 33.6636 53.9943 34.4529 53.4396 35.0076C52.8849 35.5623 52.0956 35.8396 51.0716 35.8396H36.7996C35.7756 35.8396 34.9863 35.5623 34.4316 35.0076C33.8769 34.4529 33.5996 33.6636 33.5996 32.6396V31.2956Z" fill="white"/>
<path d="M9.59961 41.6638C9.59961 41.3225 9.59961 41.1198 9.59961 40.9598C9.59961 40.7998 9.59961 40.4692 9.59961 40.1278V31.2318C9.59961 30.2078 9.87694 29.4185 10.4316 28.8638C10.9863 28.3092 11.7756 28.0318 12.7996 28.0318H22.7196V25.4078H12.7996C11.7756 25.4078 10.9863 25.1305 10.4316 24.5758C9.87694 24.0212 9.59961 23.2318 9.59961 22.2078V20.8638C9.59961 19.8398 9.87694 19.0505 10.4316 18.4958C10.9863 17.9412 11.7756 17.6638 12.7996 17.6638H27.1996C28.2236 17.6638 29.0129 17.9412 29.5676 18.4958C30.1223 19.0505 30.3996 19.8398 30.3996 20.8638V29.7598C30.3996 30.1012 30.3996 30.2398 30.3996 30.3998C30.3996 30.5598 30.3996 30.8905 30.3996 31.2318V32.6398C30.3996 33.6638 30.1223 34.4531 29.5676 35.0078C29.0129 35.5625 28.2236 35.8398 27.1996 35.8398H17.2796V38.4638H51.2316C52.2556 38.4638 53.0449 38.7412 53.5996 39.2958C54.1543 39.8505 54.4316 40.6398 54.4316 41.6638V43.0078C54.4316 44.0318 54.1543 44.8212 53.5996 45.3758C53.0449 45.9305 52.2556 46.2078 51.2316 46.2078H12.7996C11.7756 46.2078 10.9863 45.9305 10.4316 45.3758C9.87694 44.8212 9.59961 44.0318 9.59961 43.0078V41.6638Z" fill="white"/>
</svg>
