<svg width="14" height="17" viewBox="0 0 14 17" fill="none" xmlns="http://www.w3.org/2000/svg">
<path d="M8.95833 15L10.625 16.6667H1.66667C1.20833 16.6667 0.815972 16.5035 0.489583 16.1771C0.163194 15.8507 0 15.4583 0 15V1.66667C0 1.20833 0.163194 0.815972 0.489583 0.489583C0.815972 0.163194 1.20833 0 1.66667 0H9.16667L13.3333 5V15C13.3333 15.2778 13.2743 15.5312 13.1562 15.7604C13.0382 15.9896 12.875 16.1806 12.6667 16.3333L8.33333 12.0417C8.09722 12.1944 7.84028 12.309 7.5625 12.3854C7.28472 12.4618 6.98611 12.5 6.66667 12.5C5.75 12.5 4.96528 12.1736 4.3125 11.5208C3.65972 10.8681 3.33333 10.0833 3.33333 9.16667C3.33333 8.25 3.65972 7.46528 4.3125 6.8125C4.96528 6.15972 5.75 5.83333 6.66667 5.83333C7.58333 5.83333 8.36806 6.15972 9.02083 6.8125C9.67361 7.46528 10 8.25 10 9.16667C10 9.48611 9.96181 9.78472 9.88542 10.0625C9.80903 10.3403 9.69444 10.5972 9.54167 10.8333L11.6667 13V5.58333L8.375 1.66667H1.66667V15H8.95833ZM6.66667 10.8333C7.125 10.8333 7.51736 10.6701 7.84375 10.3438C8.17014 10.0174 8.33333 9.625 8.33333 9.16667C8.33333 8.70833 8.17014 8.31597 7.84375 7.98958C7.51736 7.66319 7.125 7.5 6.66667 7.5C6.20833 7.5 5.81597 7.66319 5.48958 7.98958C5.16319 8.31597 5 8.70833 5 9.16667C5 9.625 5.16319 10.0174 5.48958 10.3438C5.81597 10.6701 6.20833 10.8333 6.66667 10.8333Z" fill="#D4A017"/>
</svg>
