<svg width="32" height="32" viewBox="0 0 32 32" fill="none" xmlns="http://www.w3.org/2000/svg">
<rect width="32" height="32" rx="4" fill="#F9F9F9"/>
<path d="M12.6663 21.0003H19.333V19.3337H12.6663V21.0003ZM12.6663 17.667H19.333V16.0003H12.6663V17.667ZM10.9997 24.3337C10.5413 24.3337 10.149 24.1705 9.82259 23.8441C9.4962 23.5177 9.33301 23.1253 9.33301 22.667V9.33366C9.33301 8.87533 9.4962 8.48296 9.82259 8.15658C10.149 7.83019 10.5413 7.66699 10.9997 7.66699H17.6663L22.6663 12.667V22.667C22.6663 23.1253 22.5031 23.5177 22.1768 23.8441C21.8504 24.1705 21.458 24.3337 20.9997 24.3337H10.9997ZM16.833 13.5003V9.33366H10.9997V22.667H20.9997V13.5003H16.833ZM10.9997 9.33366V13.5003V9.33366V13.5003V22.667V9.33366Z" fill="#555555"/>
</svg>
