<svg width="64" height="64" viewBox="0 0 64 64" fill="none" xmlns="http://www.w3.org/2000/svg">
<rect width="64" height="64" rx="8" fill="#E8E8E8"/>
<path d="M28 38H36V36H28V38ZM28 34H36V32H28V34ZM26 42C25.45 42 24.9792 41.8042 24.5875 41.4125C24.1958 41.0208 24 40.55 24 40V24C24 23.45 24.1958 22.9792 24.5875 22.5875C24.9792 22.1958 25.45 22 26 22H34L40 28V40C40 40.55 39.8042 41.0208 39.4125 41.4125C39.0208 41.8042 38.55 42 38 42H26ZM33 29V24H26V40H38V29H33ZM26 24V29V24V29V40V24Z" fill="#555555"/>
</svg>
