<svg width="17" height="9" viewBox="0 0 17 9" fill="none" xmlns="http://www.w3.org/2000/svg">
<path d="M7.64985 8.49983H4.24992C3.07411 8.49983 2.07183 8.08547 1.2431 7.25673C0.414367 6.428 0 5.42573 0 4.24992C0 3.07411 0.414367 2.07183 1.2431 1.2431C2.07183 0.414367 3.07411 0 4.24992 0H7.64985V1.69997H4.24992C3.5416 1.69997 2.93953 1.94788 2.4437 2.4437C1.94788 2.93953 1.69997 3.5416 1.69997 4.24992C1.69997 4.95824 1.94788 5.56031 2.4437 6.05613C2.93953 6.55196 3.5416 6.79987 4.24992 6.79987H7.64985V8.49983ZM5.0999 5.0999V3.39993H11.8998V5.0999H5.0999ZM9.34982 8.49983V6.79987H12.7498C13.4581 6.79987 14.0601 6.55196 14.556 6.05613C15.0518 5.56031 15.2997 4.95824 15.2997 4.24992C15.2997 3.5416 15.0518 2.93953 14.556 2.4437C14.0601 1.94788 13.4581 1.69997 12.7498 1.69997H9.34982V0H12.7498C13.9256 0 14.9278 0.414367 15.7566 1.2431C16.5853 2.07183 16.9997 3.07411 16.9997 4.24992C16.9997 5.42573 16.5853 6.428 15.7566 7.25673C14.9278 8.08547 13.9256 8.49983 12.7498 8.49983H9.34982Z" fill="#555555"/>
</svg>
