<svg width="15" height="18" viewBox="0 0 15 18" fill="none" xmlns="http://www.w3.org/2000/svg">
<path d="M5 12.5V8.75H3.75V7.5H6.25V12.5H5ZM7.91667 12.5C7.68056 12.5 7.48264 12.4201 7.32292 12.2604C7.16319 12.1007 7.08333 11.9028 7.08333 11.6667V8.33333C7.08333 8.09722 7.16319 7.89931 7.32292 7.73958C7.48264 7.57986 7.68056 7.5 7.91667 7.5H9.58333C9.81944 7.5 10.0174 7.57986 10.1771 7.73958C10.3368 7.89931 10.4167 8.09722 10.4167 8.33333V11.6667C10.4167 11.9028 10.3368 12.1007 10.1771 12.2604C10.0174 12.4201 9.81944 12.5 9.58333 12.5H7.91667ZM8.33333 11.25H9.16667V8.75H8.33333V11.25ZM7.5 17.5C6.45833 17.5 5.48264 17.3021 4.57292 16.9062C3.66319 16.5104 2.87153 15.9757 2.19792 15.3021C1.52431 14.6285 0.989583 13.8368 0.59375 12.9271C0.197917 12.0174 0 11.0417 0 10C0 8.95833 0.197917 7.98264 0.59375 7.07292C0.989583 6.16319 1.52431 5.37153 2.19792 4.69792C2.87153 4.02431 3.66319 3.48958 4.57292 3.09375C5.48264 2.69792 6.45833 2.5 7.5 2.5H7.625L6.33333 1.20833L7.5 0L10.8333 3.33333L7.5 6.66667L6.33333 5.45833L7.625 4.16667H7.5C5.875 4.16667 4.49653 4.73264 3.36458 5.86458C2.23264 6.99653 1.66667 8.375 1.66667 10C1.66667 11.625 2.23264 13.0035 3.36458 14.1354C4.49653 15.2674 5.875 15.8333 7.5 15.8333C9.125 15.8333 10.5035 15.2674 11.6354 14.1354C12.7674 13.0035 13.3333 11.625 13.3333 10H15C15 11.0417 14.8021 12.0174 14.4062 12.9271C14.0104 13.8368 13.4757 14.6285 12.8021 15.3021C12.1285 15.9757 11.3368 16.5104 10.4271 16.9062C9.51736 17.3021 8.54167 17.5 7.5 17.5Z" fill="#E5C185"/>
</svg>
