<svg width="22" height="35" viewBox="0 0 22 35" fill="none" xmlns="http://www.w3.org/2000/svg">
<path d="M9.42299 22.8844H12.1153V17.2643L14.2691 19.4181L16.1537 17.4998L10.7691 12.1153L5.38456 17.4998L7.30282 19.3844L9.42299 17.2643V22.8844ZM2.69228 26.9228C1.9519 26.9228 1.3181 26.6592 0.790858 26.132C0.263619 25.6047 0 24.9709 0 24.2305V2.69228C0 1.9519 0.263619 1.3181 0.790858 0.790858C1.3181 0.263619 1.9519 0 2.69228 0H13.4614L21.5383 8.07685V24.2305C21.5383 24.9709 21.2746 25.6047 20.7474 26.132C20.2202 26.6592 19.5864 26.9228 18.846 26.9228H2.69228ZM12.1153 9.42299V2.69228H2.69228V24.2305H18.846V9.42299H12.1153ZM2.69228 2.69228V9.42299V2.69228V9.42299V24.2305V2.69228Z" fill="#555555"/>
</svg>
