<svg width="15" height="24" viewBox="0 0 15 24" fill="none" xmlns="http://www.w3.org/2000/svg">
<path d="M7.5 24C6.95 24 6.47917 23.8042 6.0875 23.4125C5.69583 23.0208 5.5 22.55 5.5 22H9.5C9.5 22.55 9.30417 23.0208 8.9125 23.4125C8.52083 23.8042 8.05 24 7.5 24ZM3.5 21V19H11.5V21H3.5ZM3.75 18C2.6 17.3167 1.6875 16.4 1.0125 15.25C0.3375 14.1 0 12.85 0 11.5C0 9.41667 0.729167 7.64583 2.1875 6.1875C3.64583 4.72917 5.41667 4 7.5 4C9.58333 4 11.3542 4.72917 12.8125 6.1875C14.2708 7.64583 15 9.41667 15 11.5C15 12.85 14.6625 14.1 13.9875 15.25C13.3125 16.4 12.4 17.3167 11.25 18H3.75ZM4.35 16H10.65C11.4 15.4667 11.9792 14.8083 12.3875 14.025C12.7958 13.2417 13 12.4 13 11.5C13 9.96667 12.4667 8.66667 11.4 7.6C10.3333 6.53333 9.03333 6 7.5 6C5.96667 6 4.66667 6.53333 3.6 7.6C2.53333 8.66667 2 9.96667 2 11.5C2 12.4 2.20417 13.2417 2.6125 14.025C3.02083 14.8083 3.6 15.4667 4.35 16Z" fill="#555555"/>
</svg>
