<svg width="8" height="8" viewBox="0 0 8 8" fill="none" xmlns="http://www.w3.org/2000/svg">
<path d="M0 8V7H1.375L1.175 6.825C0.741667 6.44167 0.4375 6.00417 0.2625 5.5125C0.0875 5.02083 0 4.525 0 4.025C0 3.1 0.277083 2.27708 0.83125 1.55625C1.38542 0.835417 2.10833 0.358333 3 0.125V1.175C2.4 1.39167 1.91667 1.76042 1.55 2.28125C1.18333 2.80208 1 3.38333 1 4.025C1 4.4 1.07083 4.76458 1.2125 5.11875C1.35417 5.47292 1.575 5.8 1.875 6.1L2 6.225V5H3V8H0V8M5 7.875V6.825C5.6 6.60833 6.08333 6.23958 6.45 5.71875C6.81667 5.19792 7 4.61667 7 3.975C7 3.6 6.92917 3.23542 6.7875 2.88125C6.64583 2.52708 6.425 2.2 6.125 1.9L6 1.775V3H5V0H8V1H6.625L6.825 1.175C7.23333 1.58333 7.53125 2.02708 7.71875 2.50625C7.90625 2.98542 8 3.475 8 3.975C8 4.9 7.72292 5.72292 7.16875 6.44375C6.61458 7.16458 5.89167 7.64167 5 7.875V7.875" fill="#1A1C1E"/>
</svg>
