<svg width="40" height="40" viewBox="0 0 40 40" fill="none" xmlns="http://www.w3.org/2000/svg">
<rect width="40" height="40" rx="8" fill="#E8E8E8"/>
<path d="M17 20.5H18V18.5H19C19.2833 18.5 19.5208 18.4042 19.7125 18.2125C19.9042 18.0208 20 17.7833 20 17.5V16.5C20 16.2167 19.9042 15.9792 19.7125 15.7875C19.5208 15.5958 19.2833 15.5 19 15.5H17V20.5ZM18 17.5V16.5H19V17.5H18ZM21 20.5H23C23.2833 20.5 23.5208 20.4042 23.7125 20.2125C23.9042 20.0208 24 19.7833 24 19.5V16.5C24 16.2167 23.9042 15.9792 23.7125 15.7875C23.5208 15.5958 23.2833 15.5 23 15.5H21V20.5ZM22 19.5V16.5H23V19.5H22ZM25 20.5H26V18.5H27V17.5H26V16.5H27V15.5H25V20.5ZM16 26C15.45 26 14.9792 25.8042 14.5875 25.4125C14.1958 25.0208 14 24.55 14 24V12C14 11.45 14.1958 10.9792 14.5875 10.5875C14.9792 10.1958 15.45 10 16 10H28C28.55 10 29.0208 10.1958 29.4125 10.5875C29.8042 10.9792 30 11.45 30 12V24C30 24.55 29.8042 25.0208 29.4125 25.4125C29.0208 25.8042 28.55 26 28 26H16ZM16 24H28V12H16V24ZM12 30C11.45 30 10.9792 29.8042 10.5875 29.4125C10.1958 29.0208 10 28.55 10 28V14H12V28H26V30H12ZM16 12V24V12Z" fill="#1A1C1E"/>
</svg>
