<svg width="40" height="40" viewBox="0 0 40 40" fill="none" xmlns="http://www.w3.org/2000/svg">
<rect width="40" height="40" rx="8" fill="#E8E8E8"/>
<path d="M20 30L11 25V15L20 10L29 15V25L20 30ZM17.1 17.25C17.4833 16.85 17.925 16.5417 18.425 16.325C18.925 16.1083 19.45 16 20 16C20.55 16 21.075 16.1083 21.575 16.325C22.075 16.5417 22.5167 16.85 22.9 17.25L25.9 15.575L20 12.3L14.1 15.575L17.1 17.25ZM19 27.15V23.875C18.1 23.6417 17.375 23.1667 16.825 22.45C16.275 21.7333 16 20.9167 16 20C16 19.8167 16.0083 19.6458 16.025 19.4875C16.0417 19.3292 16.075 19.1667 16.125 19L13 17.25V23.825L19 27.15ZM20 22C20.55 22 21.0208 21.8042 21.4125 21.4125C21.8042 21.0208 22 20.55 22 20C22 19.45 21.8042 18.9792 21.4125 18.5875C21.0208 18.1958 20.55 18 20 18C19.45 18 18.9792 18.1958 18.5875 18.5875C18.1958 18.9792 18 19.45 18 20C18 20.55 18.1958 21.0208 18.5875 21.4125C18.9792 21.8042 19.45 22 20 22ZM21 27.15L27 23.825V17.25L23.875 19C23.925 19.1667 23.9583 19.3292 23.975 19.4875C23.9917 19.6458 24 19.8167 24 20C24 20.9167 23.725 21.7333 23.175 22.45C22.625 23.1667 21.9 23.6417 21 23.875V27.15Z" fill="#1A1C1E"/>
</svg>
