<svg width="33" height="29" viewBox="0 0 33 29" fill="none" xmlns="http://www.w3.org/2000/svg">
<path d="M0 28.5L16.5 0L33 28.5H0ZM5.175 25.5H27.825L16.5 6L5.175 25.5Z" fill="#1A1C1E"/>
<path d="M17.5688 23.5688C17.2813 23.8563 16.925 24 16.5 24C16.075 24 15.7187 23.8563 15.4312 23.5688C15.1437 23.2812 15 22.925 15 22.5C15 22.075 15.1437 21.7188 15.4312 21.4312C15.7187 21.1437 16.075 21 16.5 21C16.925 21 17.2813 21.1437 17.5688 21.4312C17.8563 21.7188 18 22.075 18 22.5C18 22.925 17.8563 23.2812 17.5688 23.5688Z" fill="#D4A017"/>
<path d="M18 19.5H15V12H18V19.5Z" fill="#D4A017"/>
</svg>
