<svg width="84" height="60" viewBox="0 0 84 60" fill="none" xmlns="http://www.w3.org/2000/svg">
<path opacity="0.3" d="M8.5 60L20 40C14.5 40 9.79167 38.0417 5.875 34.125C1.95833 30.2083 0 25.5 0 20C0 14.5 1.95833 9.79167 5.875 5.875C9.79167 1.95833 14.5 0 20 0C25.5 0 30.2083 1.95833 34.125 5.875C38.0417 9.79167 40 14.5 40 20C40 21.9167 39.7708 23.6875 39.3125 25.3125C38.8542 26.9375 38.1667 28.5 37.25 30L20 60H8.5ZM53.5 60L65 40C59.5 40 54.7917 38.0417 50.875 34.125C46.9583 30.2083 45 25.5 45 20C45 14.5 46.9583 9.79167 50.875 5.875C54.7917 1.95833 59.5 0 65 0C70.5 0 75.2083 1.95833 79.125 5.875C83.0417 9.79167 85 14.5 85 20C85 21.9167 84.7708 23.6875 84.3125 25.3125C83.8542 26.9375 83.1667 28.5 82.25 30L65 60H53.5ZM20 27.5C22.0833 27.5 23.8542 26.7708 25.3125 25.3125C26.7708 23.8542 27.5 22.0833 27.5 20C27.5 17.9167 26.7708 16.1458 25.3125 14.6875C23.8542 13.2292 22.0833 12.5 20 12.5C17.9167 12.5 16.1458 13.2292 14.6875 14.6875C13.2292 16.1458 12.5 17.9167 12.5 20C12.5 22.0833 13.2292 23.8542 14.6875 25.3125C16.1458 26.7708 17.9167 27.5 20 27.5ZM65 27.5C67.0833 27.5 68.8542 26.7708 70.3125 25.3125C71.7708 23.8542 72.5 22.0833 72.5 20C72.5 17.9167 71.7708 16.1458 70.3125 14.6875C68.8542 13.2292 67.0833 12.5 65 12.5C62.9167 12.5 61.1458 13.2292 59.6875 14.6875C58.2292 16.1458 57.5 17.9167 57.5 20C57.5 22.0833 58.2292 23.8542 59.6875 25.3125C61.1458 26.7708 62.9167 27.5 65 27.5Z" fill="#D4A017"/>
</svg>
