<svg width="14" height="14" viewBox="0 0 14 14" fill="none" xmlns="http://www.w3.org/2000/svg">
<path d="M1.55556 12.4444H8.55556V8.55556H12.4444V1.55556H1.55556V12.4444ZM1.55556 14C1.12778 14 0.761574 13.8477 0.456944 13.5431C0.152315 13.2384 0 12.8722 0 12.4444V1.55556C0 1.12778 0.152315 0.761574 0.456944 0.456944C0.761574 0.152315 1.12778 0 1.55556 0H12.4444C12.8722 0 13.2384 0.152315 13.5431 0.456944C13.8477 0.761574 14 1.12778 14 1.55556V9.33333L9.33333 14H1.55556ZM3.11111 8.55556V7H7V8.55556H3.11111ZM3.11111 5.44444V3.88889H10.8889V5.44444H3.11111ZM1.55556 12.4444V8.55556V1.55556V12.4444Z" fill="#555555"/>
</svg>
