<svg width="192" height="192" viewBox="0 0 192 192" fill="none" xmlns="http://www.w3.org/2000/svg">
<path d="M80.9805 123V117H92.9805V107.7C90.5305 107.15 88.343 106.113 86.418 104.588C84.493 103.062 83.0805 101.15 82.1805 98.85C78.4305 98.4 75.293 96.7625 72.768 93.9375C70.243 91.1125 68.9805 87.8 68.9805 84V81C68.9805 79.35 69.568 77.9375 70.743 76.7625C71.918 75.5875 73.3305 75 74.9805 75H80.9805V69H110.98V75H116.98C118.63 75 120.043 75.5875 121.218 76.7625C122.393 77.9375 122.98 79.35 122.98 81V84C122.98 87.8 121.718 91.1125 119.193 93.9375C116.668 96.7625 113.53 98.4 109.78 98.85C108.88 101.15 107.468 103.062 105.543 104.588C103.618 106.113 101.43 107.15 98.9805 107.7V117H110.98V123H80.9805ZM80.9805 92.4V81H74.9805V84C74.9805 85.9 75.5305 87.6125 76.6305 89.1375C77.7305 90.6625 79.1805 91.75 80.9805 92.4ZM95.9805 102C98.4805 102 100.605 101.125 102.355 99.375C104.105 97.625 104.98 95.5 104.98 93V75H86.9805V93C86.9805 95.5 87.8555 97.625 89.6055 99.375C91.3555 101.125 93.4805 102 95.9805 102ZM110.98 92.4C112.78 91.75 114.23 90.6625 115.33 89.1375C116.43 87.6125 116.98 85.9 116.98 84V81H110.98V92.4Z" fill="#D4A017"/>
<path d="M130 55L128.75 52.25L126 51L128.75 49.75L130 47L131.25 49.75L134 51L131.25 52.25L130 55ZM130 69L128.75 66.25L126 65L128.75 63.75L130 61L131.25 63.75L134 65L131.25 66.25L130 69ZM120 66L117.5 60.5L112 58L117.5 55.5L120 50L122.5 55.5L128 58L122.5 60.5L120 66ZM120 61.15L121 59L123.15 58L121 57L120 54.85L119 57L116.85 58L119 59L120 61.15Z" fill="#D4A017"/>
<rect opacity="0.2" x="72" y="126" width="48" height="4" rx="2" fill="#D4A017"/>
</svg>
