<svg width="390" height="220" viewBox="0 0 390 220" fill="none" xmlns="http://www.w3.org/2000/svg">
<defs>
  <linearGradient id="bg_book" x1="0" y1="0" x2="188" y2="334" gradientUnits="userSpaceOnUse">
    <stop stop-color="#F0EFEB"/>
    <stop offset="1" stop-color="#E8E8E8"/>
  </linearGradient>
</defs>

<!-- 배경 -->
<rect width="390" height="220" rx="12" fill="url(#bg_book)"/>

<!-- 격자 -->
<g opacity="0.05">
  <line x1="0" y1="40"  x2="390" y2="40"  stroke="#1A1C1E" stroke-width="0.5"/>
  <line x1="0" y1="80"  x2="390" y2="80"  stroke="#1A1C1E" stroke-width="0.5"/>
  <line x1="0" y1="120" x2="390" y2="120" stroke="#1A1C1E" stroke-width="0.5"/>
  <line x1="0" y1="160" x2="390" y2="160" stroke="#1A1C1E" stroke-width="0.5"/>
  <line x1="0" y1="200" x2="390" y2="200" stroke="#1A1C1E" stroke-width="0.5"/>
  <line x1="78"  y1="0" x2="78"  y2="220" stroke="#1A1C1E" stroke-width="0.5"/>
  <line x1="156" y1="0" x2="156" y2="220" stroke="#1A1C1E" stroke-width="0.5"/>
  <line x1="234" y1="0" x2="234" y2="220" stroke="#1A1C1E" stroke-width="0.5"/>
  <line x1="312" y1="0" x2="312" y2="220" stroke="#1A1C1E" stroke-width="0.5"/>
</g>

<!-- 연결선: 왼쪽 페이지 외곽 -->
<line x1="72"  y1="62"  x2="192" y2="52"  stroke="#D4A853" stroke-width="1.2" opacity="0.45"/>
<line x1="192" y1="52"  x2="192" y2="168" stroke="#D4A853" stroke-width="1.2" opacity="0.45"/>
<line x1="192" y1="168" x2="72"  y2="160" stroke="#D4A853" stroke-width="1.2" opacity="0.45"/>
<line x1="72"  y1="160" x2="72"  y2="62"  stroke="#D4A853" stroke-width="1.2" opacity="0.45"/>

<!-- 연결선: 오른쪽 페이지 외곽 -->
<line x1="198" y1="52"  x2="318" y2="62"  stroke="#D4A853" stroke-width="1.2" opacity="0.45"/>
<line x1="318" y1="62"  x2="318" y2="160" stroke="#D4A853" stroke-width="1.2" opacity="0.45"/>
<line x1="318" y1="160" x2="198" y2="168" stroke="#D4A853" stroke-width="1.2" opacity="0.45"/>
<line x1="198" y1="168" x2="198" y2="52"  stroke="#D4A853" stroke-width="1.2" opacity="0.45"/>

<!-- 연결선: 책 내용 (텍스트 줄 암시) -->
<line x1="100" y1="90"  x2="162" y2="88"  stroke="#D4A853" stroke-width="0.9" opacity="0.3"/>
<line x1="100" y1="110" x2="162" y2="108" stroke="#D4A853" stroke-width="0.9" opacity="0.3"/>
<line x1="228" y1="88"  x2="290" y2="90"  stroke="#D4A853" stroke-width="0.9" opacity="0.3"/>
<line x1="228" y1="108" x2="290" y2="110" stroke="#D4A853" stroke-width="0.9" opacity="0.3"/>

<!-- 책등 상단 연결 -->
<line x1="192" y1="52"  x2="198" y2="52"  stroke="#D4A853" stroke-width="1.4" opacity="0.6"/>
<line x1="192" y1="168" x2="198" y2="168" stroke="#D4A853" stroke-width="1.4" opacity="0.6"/>

<!-- 별: 왼쪽 페이지 TL -->
<circle cx="72"  cy="62"  r="5" fill="#D4A853" opacity="0.88"/>
<circle cx="72"  cy="62"  r="9" stroke="#D4A853" stroke-width="0.6" fill="none" opacity="0.15"/>
<!-- 별: 왼쪽 페이지 BL -->
<circle cx="72"  cy="160" r="5" fill="#D4A853" opacity="0.82"/>
<circle cx="72"  cy="160" r="9" stroke="#D4A853" stroke-width="0.6" fill="none" opacity="0.13"/>
<!-- 별: 척추 상단 -->
<circle cx="192" cy="52"  r="5.5" fill="#D4A853" opacity="0.92"/>
<circle cx="192" cy="52"  r="10"  stroke="#D4A853" stroke-width="0.7" fill="none" opacity="0.18"/>
<!-- 별: 척추 하단 -->
<circle cx="192" cy="168" r="5.5" fill="#D4A853" opacity="0.88"/>
<circle cx="192" cy="168" r="10"  stroke="#D4A853" stroke-width="0.7" fill="none" opacity="0.16"/>
<!-- 별: 오른쪽 페이지 TR -->
<circle cx="318" cy="62"  r="5" fill="#D4A853" opacity="0.85"/>
<circle cx="318" cy="62"  r="9" stroke="#D4A853" stroke-width="0.6" fill="none" opacity="0.14"/>
<!-- 별: 오른쪽 페이지 BR -->
<circle cx="318" cy="160" r="5" fill="#D4A853" opacity="0.80"/>
<circle cx="318" cy="160" r="9" stroke="#D4A853" stroke-width="0.6" fill="none" opacity="0.12"/>
<!-- 별: 텍스트 줄 (왼쪽) -->
<circle cx="100" cy="90"  r="3" fill="#D4A853" opacity="0.6"/>
<circle cx="162" cy="88"  r="3" fill="#D4A853" opacity="0.55"/>
<circle cx="100" cy="110" r="3" fill="#D4A853" opacity="0.55"/>
<circle cx="162" cy="108" r="3" fill="#D4A853" opacity="0.5"/>
<!-- 별: 텍스트 줄 (오른쪽) -->
<circle cx="228" cy="88"  r="3" fill="#D4A853" opacity="0.6"/>
<circle cx="290" cy="90"  r="3" fill="#D4A853" opacity="0.55"/>
<circle cx="228" cy="108" r="3" fill="#D4A853" opacity="0.55"/>
<circle cx="290" cy="110" r="3" fill="#D4A853" opacity="0.5"/>

<!-- 스파클 (위쪽) -->
<path d="M195 28 L196.2 24 L197.4 28 L201.4 29.2 L197.4 30.4 L196.2 34.4 L195 30.4 L191 29.2 Z" fill="#D4A853" opacity="0.35"/>
</svg>
