<svg width="390" height="220" viewBox="0 0 390 220" fill="none" xmlns="http://www.w3.org/2000/svg">
<path d="M377.749 0H12.2513C5.4851 0 0 5.37258 0 12V208C0 214.627 5.4851 220 12.2513 220H377.749C384.515 220 390 214.627 390 208V12C390 5.37258 384.515 0 377.749 0Z" fill="url(#paint0_linear_546_10579)"/>
<g opacity="0.05">
<path d="M0 40H390" stroke="#1A1C1E" stroke-width="0.5"/>
<path d="M0 80H390" stroke="#1A1C1E" stroke-width="0.5"/>
<path d="M0 120H390" stroke="#1A1C1E" stroke-width="0.5"/>
<path d="M0 160H390" stroke="#1A1C1E" stroke-width="0.5"/>
<path d="M0 200H390" stroke="#1A1C1E" stroke-width="0.5"/>
<path d="M77.5908 0V220" stroke="#1A1C1E" stroke-width="0.5"/>
<path d="M155.184 0V220" stroke="#1A1C1E" stroke-width="0.5"/>
<path d="M232.773 0V220" stroke="#1A1C1E" stroke-width="0.5"/>
<path d="M310.366 0V220" stroke="#1A1C1E" stroke-width="0.5"/>
</g>
<g opacity="0.78">
<path opacity="0.86" d="M88.8215 63C91.6408 63 93.9262 60.7614 93.9262 58C93.9262 55.2386 91.6408 53 88.8215 53C86.0023 53 83.7168 55.2386 83.7168 58C83.7168 60.7614 86.0023 63 88.8215 63Z" fill="#D4A853"/>
<path opacity="0.16" d="M88.8223 67C93.8969 67 98.0108 62.9706 98.0108 58C98.0108 53.0294 93.8969 49 88.8223 49C83.7476 49 79.6338 53.0294 79.6338 58C79.6338 62.9706 83.7476 67 88.8223 67Z" stroke="#D4A853" stroke-width="0.6"/>
<path opacity="0.82" d="M92.9058 119.5C95.4431 119.5 97.5 117.485 97.5 115C97.5 112.515 95.4431 110.5 92.9058 110.5C90.3684 110.5 88.3115 112.515 88.3115 115C88.3115 117.485 90.3684 119.5 92.9058 119.5Z" fill="#D4A853"/>
<path opacity="0.14" d="M92.9058 123C97.4166 123 101.073 119.418 101.073 115C101.073 110.582 97.4166 107 92.9058 107C88.395 107 84.7383 110.582 84.7383 115C84.7383 119.418 88.395 123 92.9058 123Z" stroke="#D4A853" stroke-width="0.5"/>
<path opacity="0.88" d="M173.56 68C176.379 68 178.665 65.7614 178.665 63C178.665 60.2386 176.379 58 173.56 58C170.741 58 168.455 60.2386 168.455 63C168.455 65.7614 170.741 68 173.56 68Z" fill="#D4A853"/>
<path opacity="0.16" d="M173.56 72C178.634 72 182.748 67.9706 182.748 63C182.748 58.0294 178.634 54 173.56 54C168.485 54 164.371 58.0294 164.371 63C164.371 67.9706 168.485 72 173.56 72Z" stroke="#D4A853" stroke-width="0.6"/>
<path opacity="0.82" d="M169.477 121.5C172.014 121.5 174.071 119.485 174.071 117C174.071 114.515 172.014 112.5 169.477 112.5C166.94 112.5 164.883 114.515 164.883 117C164.883 119.485 166.94 121.5 169.477 121.5Z" fill="#D4A853"/>
<path opacity="0.14" d="M169.476 125C173.987 125 177.644 121.418 177.644 117C177.644 112.582 173.987 109 169.476 109C164.965 109 161.309 112.582 161.309 117C161.309 121.418 164.965 125 169.476 125Z" stroke="#D4A853" stroke-width="0.5"/>
<path opacity="0.48" d="M88.8232 58L173.561 63" stroke="#D4A853" stroke-width="1.2"/>
<path opacity="0.48" d="M88.8232 58L92.907 115" stroke="#D4A853" stroke-width="1.2"/>
<path opacity="0.48" d="M92.9043 115L169.475 117" stroke="#D4A853" stroke-width="1.2"/>
<path opacity="0.48" d="M169.476 117L173.559 63" stroke="#D4A853" stroke-width="1.2"/>
<path opacity="0.62" d="M197.042 45.7997C198.621 45.7997 199.901 44.5461 199.901 42.9997C199.901 41.4533 198.621 40.1997 197.042 40.1997C195.463 40.1997 194.184 41.4533 194.184 42.9997C194.184 44.5461 195.463 45.7997 197.042 45.7997Z" fill="#D4A853"/>
<path opacity="0.55" d="M217.46 29.1998C218.7 29.1998 219.706 28.2148 219.706 26.9998C219.706 25.7848 218.7 24.7998 217.46 24.7998C216.219 24.7998 215.214 25.7848 215.214 26.9998C215.214 28.2148 216.219 29.1998 217.46 29.1998Z" fill="#D4A853"/>
<path opacity="0.42" d="M173.561 63L197.042 43" stroke="#D4A853"/>
<path opacity="0.38" d="M197.042 43L217.461 27" stroke="#D4A853" stroke-width="0.9"/>
<path opacity="0.62" d="M210.315 81.7997C211.893 81.7997 213.173 80.5461 213.173 78.9997C213.173 77.4533 211.893 76.1997 210.315 76.1997C208.736 76.1997 207.456 77.4533 207.456 78.9997C207.456 80.5461 208.736 81.7997 210.315 81.7997Z" fill="#D4A853"/>
<path opacity="0.62" d="M217.462 84.7997C219.041 84.7997 220.321 83.5461 220.321 81.9997C220.321 80.4533 219.041 79.1997 217.462 79.1997C215.883 79.1997 214.604 80.4533 214.604 81.9997C214.604 83.5461 215.883 84.7997 217.462 84.7997Z" fill="#D4A853"/>
<path opacity="0.58" d="M239.921 66.5C241.331 66.5 242.474 65.3807 242.474 64C242.474 62.6193 241.331 61.5 239.921 61.5C238.512 61.5 237.369 62.6193 237.369 64C237.369 65.3807 238.512 66.5 239.921 66.5Z" fill="#D4A853"/>
<path opacity="0.52" d="M265.446 52.1998C266.687 52.1998 267.692 51.2148 267.692 49.9998C267.692 48.7848 266.687 47.7998 265.446 47.7998C264.206 47.7998 263.2 48.7848 263.2 49.9998C263.2 51.2148 264.206 52.1998 265.446 52.1998Z" fill="#D4A853"/>
<path opacity="0.42" d="M173.561 63L210.314 79" stroke="#D4A853"/>
<path opacity="0.4" d="M210.314 79L217.461 82" stroke="#D4A853" stroke-width="0.9"/>
<path opacity="0.38" d="M217.461 82L239.922 64" stroke="#D4A853" stroke-width="0.9"/>
<path opacity="0.36" d="M239.922 64L265.445 50" stroke="#D4A853" stroke-width="0.9"/>
<path opacity="0.62" d="M197.042 137.8C198.621 137.8 199.901 136.546 199.901 135C199.901 133.453 198.621 132.2 197.042 132.2C195.463 132.2 194.184 133.453 194.184 135C194.184 136.546 195.463 137.8 197.042 137.8Z" fill="#D4A853"/>
<path opacity="0.58" d="M203.168 140.5C204.577 140.5 205.72 139.381 205.72 138C205.72 136.619 204.577 135.5 203.168 135.5C201.758 135.5 200.615 136.619 200.615 138C200.615 139.381 201.758 140.5 203.168 140.5Z" fill="#D4A853"/>
<path opacity="0.55" d="M234.817 154.5C236.227 154.5 237.369 153.381 237.369 152C237.369 150.619 236.227 149.5 234.817 149.5C233.407 149.5 232.265 150.619 232.265 152C232.265 153.381 233.407 154.5 234.817 154.5Z" fill="#D4A853"/>
<path opacity="0.5" d="M262.383 143.2C263.623 143.2 264.629 142.215 264.629 141C264.629 139.785 263.623 138.8 262.383 138.8C261.142 138.8 260.137 139.785 260.137 141C260.137 142.215 261.142 143.2 262.383 143.2Z" fill="#D4A853"/>
<path opacity="0.42" d="M169.476 117L197.041 135" stroke="#D4A853"/>
<path opacity="0.4" d="M197.042 135L203.168 138" stroke="#D4A853" stroke-width="0.9"/>
<path opacity="0.38" d="M203.168 138L234.817 152" stroke="#D4A853" stroke-width="0.9"/>
<path opacity="0.35" d="M234.816 152L262.382 141" stroke="#D4A853" stroke-width="0.8"/>
</g>
<path opacity="0.12" d="M18.3761 15.5C19.2219 15.5 19.9076 14.8284 19.9076 14C19.9076 13.1716 19.2219 12.5 18.3761 12.5C17.5304 12.5 16.8447 13.1716 16.8447 14C16.8447 14.8284 17.5304 15.5 18.3761 15.5Z" fill="#1A1C1E"/>
<path opacity="0.1" d="M371.622 9.1998C372.298 9.1998 372.847 8.66254 372.847 7.9998C372.847 7.33706 372.298 6.7998 371.622 6.7998C370.945 6.7998 370.396 7.33706 370.396 7.9998C370.396 8.66254 370.945 9.1998 371.622 9.1998Z" fill="#1A1C1E"/>
<path opacity="0.11" d="M26.5446 175.4C27.3339 175.4 27.9739 174.773 27.9739 174C27.9739 173.227 27.3339 172.6 26.5446 172.6C25.7552 172.6 25.1152 173.227 25.1152 174C25.1152 174.773 25.7552 175.4 26.5446 175.4Z" fill="#1A1C1E"/>
<path opacity="0.1" d="M375.706 185C376.27 185 376.727 184.552 376.727 184C376.727 183.448 376.27 183 375.706 183C375.143 183 374.686 183.448 374.686 184C374.686 184.552 375.143 185 375.706 185Z" fill="#1A1C1E"/>
<path opacity="0.38" d="M353.247 35.8002C354.262 35.8002 355.085 34.9943 355.085 34.0002C355.085 33.0061 354.262 32.2002 353.247 32.2002C352.232 32.2002 351.409 33.0061 351.409 34.0002C351.409 34.9943 352.232 35.8002 353.247 35.8002Z" fill="#D4A853"/>
<path opacity="0.32" d="M371.622 93C372.75 93 373.664 92.1046 373.664 91C373.664 89.8954 372.75 89 371.622 89C370.494 89 369.58 89.8954 369.58 91C369.58 92.1046 370.494 93 371.622 93Z" fill="#D4A853"/>
<path opacity="0.35" d="M34.7131 132.5C35.5588 132.5 36.2445 131.828 36.2445 131C36.2445 130.172 35.5588 129.5 34.7131 129.5C33.8673 129.5 33.1816 130.172 33.1816 131C33.1816 131.828 33.8673 132.5 34.7131 132.5Z" fill="#8FAF8A"/>
<path opacity="0.3" d="M357.33 165.8C358.345 165.8 359.168 164.994 359.168 164C359.168 163.006 358.345 162.2 357.33 162.2C356.315 162.2 355.492 163.006 355.492 164C355.492 164.994 356.315 165.8 357.33 165.8Z" fill="#8FAF8A"/>
<path opacity="0.3" d="M14.2925 67.1998C14.9691 67.1998 15.5176 66.6625 15.5176 65.9998C15.5176 65.3371 14.9691 64.7998 14.2925 64.7998C13.6159 64.7998 13.0674 65.3371 13.0674 65.9998C13.0674 66.6625 13.6159 67.1998 14.2925 67.1998Z" fill="#C4876A"/>
<path opacity="0.28" d="M32.6701 189.5C33.5159 189.5 34.2015 188.828 34.2015 188C34.2015 187.172 33.5159 186.5 32.6701 186.5C31.8243 186.5 31.1387 187.172 31.1387 188C31.1387 188.828 31.8243 189.5 32.6701 189.5Z" fill="#D4A853"/>
<path opacity="0.48" d="M355.289 44L358.351 36L361.414 44L369.582 47L361.414 50L358.351 58L355.289 50L347.121 47L355.289 44Z" stroke="#D4A853" stroke-linejoin="round"/>
<path opacity="0.4" d="M12.2507 146L14.2925 140L16.3344 146L22.4601 148L16.3344 150L14.2925 156L12.2507 150L6.125 148L12.2507 146Z" stroke="#8FAF8A" stroke-width="0.9" stroke-linejoin="round"/>
<path d="M99.4734 191.543V197.953H98.5593V191.543H99.4734ZM96.157 192.199V195.059H92.3132V196.535C94.1765 196.535 95.571 196.488 97.2585 196.207L97.364 196.969C95.6179 197.25 94.1882 197.309 92.2663 197.309H91.4226V194.332H95.2429V192.973H91.3991V192.199H96.157ZM96.0163 198.164C98.2077 198.164 99.5437 198.855 99.5437 200.051C99.5437 201.246 98.2077 201.926 96.0163 201.926C93.8249 201.926 92.5007 201.246 92.5007 200.051C92.5007 198.855 93.8249 198.164 96.0163 198.164ZM96.0163 198.902C94.3991 198.902 93.4031 199.336 93.4031 200.051C93.4031 200.766 94.3991 201.188 96.0163 201.188C97.6335 201.188 98.6179 200.766 98.6179 200.051C98.6179 199.336 97.6335 198.902 96.0163 198.902ZM109.551 192.598V193.887C109.551 195.422 109.551 196.84 109.118 198.949L108.192 198.867C108.421 197.865 108.538 196.998 108.602 196.184L102.239 196.535L102.11 195.773L108.637 195.504C108.655 194.953 108.655 194.42 108.661 193.887V193.371H102.391V192.598H109.551ZM110.735 199.711V200.484H101.243V199.711H110.735ZM121.141 196.371V197.098H111.602V196.371H121.141ZM119.946 197.93V200.145H113.688V201.141H120.286V201.809H112.762V199.512H119.032V198.621H112.751V197.93H119.946ZM119.911 191.848V194.004H113.759V194.918H120.098V195.586H112.844V193.371H118.985V192.516H112.809V191.848H119.911ZM133.598 191.531V197.121H132.684V191.531H133.598ZM127.762 197.648V198.914H132.684V197.648H133.598V201.809H126.848V197.648H127.762ZM127.762 201.059H132.684V199.652H127.762V201.059ZM127.973 192.047C129.555 192.035 130.704 193.008 130.704 194.438C130.704 195.855 129.555 196.828 127.973 196.828C126.391 196.828 125.243 195.855 125.243 194.438C125.243 193.008 126.391 192.035 127.973 192.047ZM127.973 192.82C126.907 192.809 126.134 193.488 126.145 194.438C126.134 195.387 126.907 196.066 127.973 196.066C129.028 196.066 129.801 195.387 129.801 194.438C129.801 193.488 129.028 192.809 127.973 192.82ZM140.313 192.176V195.094H136.727V196.711C138.684 196.711 139.692 196.682 140.923 196.453L141.016 197.215C139.716 197.426 138.661 197.461 136.551 197.461H135.813V194.391H139.399V192.914H135.79V192.176H140.313ZM144.005 191.543V197.941H143.079V196.008H141.005V195.246H143.079V193.84H141.005V193.09H143.079V191.543H144.005ZM144.005 198.504V201.973H143.079V199.254H136.985V198.504H144.005ZM153.801 191.531V195.832H155.548V196.594H153.801V201.949H152.887V191.531H153.801ZM151.88 193.207V193.969H145.68V193.207H148.364V191.66H149.278V193.207H151.88ZM148.833 194.836C150.309 194.836 151.376 195.82 151.387 197.227C151.376 198.633 150.309 199.617 148.833 199.617C147.344 199.617 146.266 198.633 146.278 197.227C146.266 195.82 147.344 194.836 148.833 194.836ZM148.833 195.609C147.86 195.609 147.145 196.289 147.157 197.227C147.145 198.176 147.86 198.844 148.833 198.832C149.794 198.844 150.497 198.176 150.509 197.227C150.497 196.289 149.794 195.609 148.833 195.609ZM161.384 192.445V193.371H163.821V191.543H164.747V199.148H163.821V196.371H161.384V197.309H156.602V192.445H161.384ZM157.516 193.207V196.57H160.481V193.207H157.516ZM164.981 200.953V201.727H158.009V198.469H158.934V200.953H164.981ZM161.384 195.609H163.821V194.145H161.384V195.609ZM178.282 191.531V197.625H177.356V194.531H175.727V193.77H177.356V191.531H178.282ZM178.282 198.129V201.809H171.298V198.129H178.282ZM172.2 198.867V201.059H177.368V198.867H172.2ZM171.919 193.172C171.919 193.975 172.124 195.229 172.938 196.055C173.735 195.246 173.934 194.021 173.934 193.172V192.141H174.801V193.172C174.801 194.309 175.259 195.691 176.466 196.371L175.938 197.027C175.141 196.576 174.649 195.809 174.391 194.953C174.157 195.82 173.723 196.652 172.938 197.133C172.135 196.629 171.69 195.768 171.473 194.895C171.198 195.744 170.718 196.553 169.926 197.027L169.411 196.371C170.606 195.656 171.04 194.168 171.051 193.172V192.141H171.919V193.172ZM181.294 192.668V198.504C182.419 198.492 183.485 198.428 184.739 198.164L184.868 198.961C183.473 199.254 182.313 199.312 181.036 199.312H180.38V192.668H181.294ZM188.782 191.531V201.949H187.903V191.531H188.782ZM186.555 191.789V201.422H185.676V195.809H183.298V195.047H185.676V191.789H186.555ZM193.188 191.918C194.747 191.93 195.884 192.867 195.884 194.227C195.884 195.586 194.747 196.523 193.188 196.523C191.606 196.523 190.481 195.586 190.481 194.227C190.481 192.867 191.606 191.93 193.188 191.918ZM193.188 192.691C192.145 192.691 191.372 193.324 191.384 194.227C191.372 195.141 192.145 195.773 193.188 195.773C194.219 195.773 194.993 195.141 194.993 194.227C194.993 193.324 194.219 192.691 193.188 192.691ZM198.837 191.531V196.887H197.923V191.531H198.837ZM198.837 197.391V199.898H192.989V201.07H199.212V201.809H192.087V199.207H197.923V198.129H192.063V197.391H198.837ZM209.196 191.531V201.973H208.27V191.531H209.196ZM203.653 192.34C205.2 192.352 206.313 193.758 206.313 195.973C206.313 198.188 205.2 199.594 203.653 199.594C202.094 199.594 200.993 198.188 200.993 195.973C200.993 193.758 202.094 192.352 203.653 192.34ZM203.653 193.16C202.61 193.172 201.884 194.273 201.884 195.973C201.884 197.672 202.61 198.773 203.653 198.773C204.696 198.773 205.423 197.672 205.423 195.973C205.423 194.273 204.696 193.172 203.653 193.16ZM217.516 194.73C217.505 196.406 218.712 198.246 220.223 198.961L219.696 199.688C218.524 199.119 217.534 197.877 217.071 196.465C216.591 198 215.542 199.348 214.376 199.945L213.813 199.219C215.313 198.492 216.602 196.512 216.614 194.73V193.371H214.188V192.609H219.86V193.371H217.516V194.73ZM222.051 191.531V195.75H223.798V196.535H222.051V201.949H221.137V191.531H222.051ZM233.864 196.688V197.426H224.36V196.688H228.661V195.469H225.567V192.023H232.68V192.762H226.469V194.719H232.751V195.469H229.551V196.688H233.864ZM229.106 198.188C231.344 198.188 232.68 198.867 232.692 200.062C232.68 201.27 231.344 201.938 229.106 201.949C226.856 201.938 225.509 201.27 225.509 200.062C225.509 198.867 226.856 198.188 229.106 198.188ZM229.106 198.914C227.43 198.914 226.434 199.348 226.446 200.062C226.434 200.789 227.43 201.211 229.106 201.211C230.759 201.211 231.766 200.789 231.766 200.062C231.766 199.348 230.759 198.914 229.106 198.914ZM239.477 192.211C241.657 192.211 243.286 193.348 243.286 195.07C243.286 196.805 241.657 197.941 239.477 197.93C237.298 197.941 235.669 196.805 235.669 195.07C235.669 193.348 237.298 192.211 239.477 192.211ZM239.477 192.961C237.801 192.949 236.536 193.828 236.548 195.07C236.536 196.336 237.801 197.18 239.477 197.18C241.141 197.18 242.395 196.336 242.395 195.07C242.395 193.828 241.141 192.949 239.477 192.961ZM244.27 199.793V200.566H234.731V199.793H244.27ZM254.641 199.887V200.66H245.102V199.887H249.391V197.918H246.298V194.707H252.532V193.066H246.274V192.305H253.434V195.457H247.212V197.156H253.68V197.918H250.294V199.887H254.641ZM261.532 194.73C261.532 196.395 262.387 198.105 263.817 198.867L263.278 199.559C262.241 198.99 261.491 197.924 261.11 196.664C260.735 198 259.991 199.16 258.954 199.77L258.403 199.09C259.809 198.27 260.653 196.453 260.665 194.73V194.25H258.649V193.488H260.665V191.918H261.544V193.488H263.536V194.25H261.532V194.73ZM267.438 191.531V201.949H266.548V196.535H265.13V201.422H264.251V191.754H265.13V195.75H266.548V191.531H267.438ZM277.481 191.543V201.961H276.544V199.371H274.141V198.668H276.544V191.543H277.481ZM268.809 197.027C270.801 197.027 273.438 197.016 275.735 196.688L275.794 197.379C274.762 197.555 273.69 197.66 272.653 197.719V201.633H271.727V197.766C270.725 197.807 269.776 197.812 268.938 197.812L268.809 197.027ZM272.243 192.059C273.79 192.059 274.868 192.891 274.868 194.109C274.868 195.352 273.79 196.148 272.243 196.148C270.684 196.148 269.606 195.352 269.606 194.109C269.606 192.891 270.684 192.059 272.243 192.059ZM272.243 192.773C271.188 192.773 270.462 193.324 270.473 194.109C270.462 194.906 271.188 195.434 272.243 195.434C273.262 195.434 274.001 194.906 274.001 194.109C274.001 193.324 273.262 192.773 272.243 192.773ZM287.864 191.531V201.949H286.938V197.461H284.805V196.688H286.938V195.246H284.805V194.473H286.938V191.531H287.864ZM282.837 194.625C282.837 196.254 284.079 198.223 285.567 198.973L285.016 199.676C283.88 199.084 282.878 197.795 282.403 196.359C281.934 197.936 280.915 199.295 279.766 199.934L279.157 199.23C280.645 198.492 281.899 196.488 281.911 194.625V193.371H279.532V192.609H285.216V193.371H282.837V194.625ZM299.137 199.84V200.613H289.598V199.84H291.966V197.027C291.075 196.564 290.536 195.814 290.536 194.871C290.536 193.254 292.118 192.199 294.344 192.188C296.571 192.199 298.153 193.254 298.153 194.871C298.153 195.797 297.632 196.541 296.77 197.004V199.84H299.137ZM294.344 192.949C292.634 192.938 291.426 193.711 291.426 194.871C291.426 196.031 292.634 196.816 294.344 196.816C296.044 196.816 297.262 196.031 297.262 194.871C297.262 193.711 296.044 192.938 294.344 192.949ZM292.868 199.84H295.844V197.355C295.393 197.479 294.889 197.543 294.344 197.543C293.811 197.543 293.313 197.484 292.868 197.367V199.84Z" fill="#9A9090"/>
<defs>
<linearGradient id="paint0_linear_546_10579" x1="0" y1="0" x2="188.289" y2="333.786" gradientUnits="userSpaceOnUse">
<stop stop-color="#F0EFEB"/>
<stop offset="1" stop-color="#E8E8E8"/>
</linearGradient>
</defs>
</svg>
