<svg width="390" height="220" viewBox="0 0 390 220" fill="none" xmlns="http://www.w3.org/2000/svg">
<defs>
  <linearGradient id="bg_proj" x1="0" y1="0" x2="188" y2="334" gradientUnits="userSpaceOnUse">
    <stop stop-color="#F0EFEB"/>
    <stop offset="1" stop-color="#E8E8E8"/>
  </linearGradient>
</defs>

<!-- 배경 -->
<rect width="390" height="220" rx="12" fill="url(#bg_proj)"/>

<!-- 격자 -->
<g opacity="0.05">
  <line x1="0" y1="40"  x2="390" y2="40"  stroke="#1A1C1E" stroke-width="0.5"/>
  <line x1="0" y1="80"  x2="390" y2="80"  stroke="#1A1C1E" stroke-width="0.5"/>
  <line x1="0" y1="120" x2="390" y2="120" stroke="#1A1C1E" stroke-width="0.5"/>
  <line x1="0" y1="160" x2="390" y2="160" stroke="#1A1C1E" stroke-width="0.5"/>
  <line x1="0" y1="200" x2="390" y2="200" stroke="#1A1C1E" stroke-width="0.5"/>
  <line x1="78"  y1="0" x2="78"  y2="220" stroke="#1A1C1E" stroke-width="0.5"/>
  <line x1="156" y1="0" x2="156" y2="220" stroke="#1A1C1E" stroke-width="0.5"/>
  <line x1="234" y1="0" x2="234" y2="220" stroke="#1A1C1E" stroke-width="0.5"/>
  <line x1="312" y1="0" x2="312" y2="220" stroke="#1A1C1E" stroke-width="0.5"/>
</g>

<!-- 파일 1 (뒤, 가장 흐림): y 72~172, x 72~258 -->
<line x1="72"  y1="172" x2="258" y2="172" stroke="#D4A853" stroke-width="1.1" opacity="0.28"/>
<line x1="258" y1="172" x2="258" y2="72"  stroke="#D4A853" stroke-width="1.1" opacity="0.28"/>
<line x1="258" y1="72"  x2="72"  y2="72"  stroke="#D4A853" stroke-width="1.1" opacity="0.28"/>
<line x1="72"  y1="72"  x2="72"  y2="172" stroke="#D4A853" stroke-width="1.1" opacity="0.28"/>
<circle cx="72"  cy="172" r="3.5" fill="#D4A853" opacity="0.38"/>
<circle cx="258" cy="172" r="3.5" fill="#D4A853" opacity="0.38"/>
<circle cx="258" cy="72"  r="3.5" fill="#D4A853" opacity="0.38"/>
<circle cx="72"  cy="72"  r="3.5" fill="#D4A853" opacity="0.38"/>

<!-- 파일 2 (가운데): y 57~157, x 87~273 -->
<line x1="87"  y1="157" x2="273" y2="157" stroke="#D4A853" stroke-width="1.2" opacity="0.45"/>
<line x1="273" y1="157" x2="273" y2="57"  stroke="#D4A853" stroke-width="1.2" opacity="0.45"/>
<line x1="273" y1="57"  x2="87"  y2="57"  stroke="#D4A853" stroke-width="1.2" opacity="0.45"/>
<line x1="87"  y1="57"  x2="87"  y2="157" stroke="#D4A853" stroke-width="1.2" opacity="0.45"/>
<circle cx="87"  cy="157" r="4"   fill="#D4A853" opacity="0.58"/>
<circle cx="87"  cy="157" r="7.5" stroke="#D4A853" stroke-width="0.5" fill="none" opacity="0.11"/>
<circle cx="273" cy="157" r="4"   fill="#D4A853" opacity="0.58"/>
<circle cx="273" cy="57"  r="4"   fill="#D4A853" opacity="0.58"/>
<circle cx="87"  cy="57"  r="4"   fill="#D4A853" opacity="0.58"/>

<!-- 스택 깊이 연결선 (모서리 이음) -->
<line x1="72"  y1="72"  x2="87"  y2="57"  stroke="#D4A853" stroke-width="0.9" opacity="0.30"/>
<line x1="258" y1="72"  x2="273" y2="57"  stroke="#D4A853" stroke-width="0.9" opacity="0.30"/>
<line x1="87"  y1="57"  x2="102" y2="42"  stroke="#D4A853" stroke-width="0.9" opacity="0.40"/>
<line x1="273" y1="57"  x2="288" y2="42"  stroke="#D4A853" stroke-width="0.9" opacity="0.40"/>

<!-- 파일 3 (앞, 가장 선명): y 42~142, x 102~288 -->
<line x1="102" y1="142" x2="288" y2="142" stroke="#D4A853" stroke-width="1.3" opacity="0.62"/>
<line x1="288" y1="142" x2="288" y2="42"  stroke="#D4A853" stroke-width="1.3" opacity="0.62"/>
<line x1="288" y1="42"  x2="102" y2="42"  stroke="#D4A853" stroke-width="1.3" opacity="0.62"/>
<line x1="102" y1="42"  x2="102" y2="142" stroke="#D4A853" stroke-width="1.3" opacity="0.62"/>
<circle cx="102" cy="142" r="5.5" fill="#D4A853" opacity="0.88"/>
<circle cx="102" cy="142" r="9.5" stroke="#D4A853" stroke-width="0.6" fill="none" opacity="0.15"/>
<circle cx="288" cy="142" r="5.5" fill="#D4A853" opacity="0.85"/>
<circle cx="288" cy="142" r="9.5" stroke="#D4A853" stroke-width="0.6" fill="none" opacity="0.14"/>
<circle cx="288" cy="42"  r="5.5" fill="#D4A853" opacity="0.90"/>
<circle cx="288" cy="42"  r="9.5" stroke="#D4A853" stroke-width="0.6" fill="none" opacity="0.16"/>
<circle cx="102" cy="42"  r="5.5" fill="#D4A853" opacity="0.90"/>
<circle cx="102" cy="42"  r="9.5" stroke="#D4A853" stroke-width="0.6" fill="none" opacity="0.16"/>

<!-- 파일 내용 암시 (텍스트 줄) -->
<line x1="122" y1="70"  x2="200" y2="70"  stroke="#D4A853" stroke-width="1.2" opacity="0.70"/>
<line x1="122" y1="88"  x2="220" y2="88"  stroke="#D4A853" stroke-width="1.2" opacity="0.60"/>
<line x1="122" y1="106" x2="180" y2="106" stroke="#D4A853" stroke-width="1.2" opacity="0.50"/>
<circle cx="122" cy="70"  r="2.5" fill="#D4A853" opacity="0.82"/>
<circle cx="200" cy="70"  r="2.5" fill="#D4A853" opacity="0.78"/>
<circle cx="122" cy="88"  r="2.5" fill="#D4A853" opacity="0.75"/>
<circle cx="220" cy="88"  r="2.5" fill="#D4A853" opacity="0.70"/>
<circle cx="122" cy="106" r="2.5" fill="#D4A853" opacity="0.68"/>
<circle cx="180" cy="106" r="2.5" fill="#D4A853" opacity="0.62"/>

<!-- 스파클 -->
<path d="M318 18 L319.2 14 L320.4 18 L324.4 19.2 L320.4 20.4 L319.2 24.4 L318 20.4 L314 19.2 Z" fill="#D4A853" opacity="0.35"/>
</svg>
