<svg width="200" height="200" viewBox="0 0 200 200" fill="none" xmlns="http://www.w3.org/2000/svg">
<rect x="0.25" y="0.25" width="199.5" height="199.5" rx="29.75" fill="white" stroke="#999999" stroke-width="0.5"/>
<path d="M159.6 87.5498C162.845 87.5498 165.383 88.4304 167.177 90.2236C168.97 92.0169 169.85 94.5548 169.85 97.7998V102C169.85 105.245 168.97 107.784 167.177 109.577C165.383 111.37 162.845 112.25 159.6 112.25H115C111.755 112.25 109.216 111.37 107.423 109.577C105.63 107.784 104.75 105.245 104.75 102V97.7998C104.75 94.5549 105.63 92.0168 107.423 90.2236C109.216 88.4304 111.755 87.5498 115 87.5498H159.6ZM159.6 54.75C162.845 54.75 165.383 55.6297 167.177 57.4229C168.97 59.2161 169.85 61.7548 169.85 65V69.2002C169.85 72.4452 168.97 74.9831 167.177 76.7764C165.383 78.5696 162.845 79.4502 159.6 79.4502H115C111.755 79.4502 109.216 78.5696 107.423 76.7764C105.63 74.9832 104.75 72.4451 104.75 69.2002V65C104.75 61.7548 105.63 59.2161 107.423 57.4229C109.216 55.6296 111.755 54.75 115 54.75H159.6Z" fill="#1A1C1E" stroke="#999999" stroke-width="0.5"/>
<path d="M85 54.9502C88.2452 54.9502 90.7839 55.8298 92.5771 57.623C94.3704 59.4163 95.25 61.955 95.25 65.2002V102C95.25 105.245 94.3704 107.784 92.5771 109.577C90.7839 111.37 88.2452 112.25 85 112.25H54.25V119.95H160.1C163.345 119.95 165.883 120.83 167.677 122.623C169.47 124.416 170.35 126.955 170.35 130.2V134.4C170.35 137.645 169.47 140.183 167.677 141.977C165.883 143.77 163.345 144.65 160.1 144.65H40C36.7548 144.65 34.2161 143.77 32.4229 141.977C30.6299 140.183 29.75 137.645 29.75 134.4V97.6006C29.75 94.3555 30.6297 91.8167 32.4229 90.0234C34.2161 88.2302 36.7548 87.3506 40 87.3506H70.75V79.6504H40C36.7548 79.6504 34.2161 78.7698 32.4229 76.9766C30.6299 75.1833 29.75 72.6453 29.75 69.4004V65.2002C29.75 61.955 30.6296 59.4163 32.4229 57.623C34.2161 55.8298 36.7548 54.9502 40 54.9502H85Z" fill="#1A1C1E" stroke="#999999" stroke-width="0.5"/>
</svg>
