<svg width="40" height="40" viewBox="0 0 40 40" fill="none" xmlns="http://www.w3.org/2000/svg">
<rect width="40" height="40" rx="4" fill="#1A1C1E"/>
<path d="M21 13.0002C21 12.3602 21.1733 11.8669 21.52 11.5202C21.8667 11.1736 22.36 11.0002 23 11.0002H31.92C32.56 11.0002 33.0533 11.1736 33.4 11.5202C33.7467 11.8669 33.92 12.3602 33.92 13.0002V13.8402C33.92 14.4802 33.7467 14.9736 33.4 15.3202C33.0533 15.6669 32.56 15.8402 31.92 15.8402H23C22.36 15.8402 21.8667 15.6669 21.52 15.3202C21.1733 14.9736 21 14.4802 21 13.8402V13.0002Z" fill="white"/>
<path d="M21 19.5602C21 18.9202 21.1733 18.4269 21.52 18.0802C21.8667 17.7336 22.36 17.5602 23 17.5602H31.92C32.56 17.5602 33.0533 17.7336 33.4 18.0802C33.7467 18.4269 33.92 18.9202 33.92 19.5602V20.4002C33.92 21.0402 33.7467 21.5336 33.4 21.8802C33.0533 22.2269 32.56 22.4002 31.92 22.4002H23C22.36 22.4002 21.8667 22.2269 21.52 21.8802C21.1733 21.5336 21 21.0402 21 20.4002V19.5602Z" fill="white"/>
<path d="M6 26.0402C6 25.8268 6 25.7002 6 25.6002C6 25.5002 6 25.2935 6 25.0802V19.5202C6 18.8802 6.17333 18.3868 6.52 18.0402C6.86667 17.6935 7.36 17.5202 8 17.5202H14.2V15.8802H8C7.36 15.8802 6.86667 15.7068 6.52 15.3602C6.17333 15.0135 6 14.5202 6 13.8802V13.0402C6 12.4002 6.17333 11.9068 6.52 11.5602C6.86667 11.2135 7.36 11.0402 8 11.0402H17C17.64 11.0402 18.1333 11.2135 18.48 11.5602C18.8267 11.9068 19 12.4002 19 13.0402V18.6002C19 18.8135 19 18.9002 19 19.0002C19 19.1002 19 19.3068 19 19.5202V20.4002C19 21.0402 18.8267 21.5335 18.48 21.8802C18.1333 22.2268 17.64 22.4002 17 22.4002H10.8V24.0402H32.02C32.66 24.0402 33.1533 24.2135 33.5 24.5602C33.8467 24.9068 34.02 25.4002 34.02 26.0402V26.8802C34.02 27.5202 33.8467 28.0135 33.5 28.3602C33.1533 28.7068 32.66 28.8802 32.02 28.8802H8C7.36 28.8802 6.86667 28.7068 6.52 28.3602C6.17333 28.0135 6 27.5202 6 26.8802V26.0402Z" fill="white"/>
</svg>
