<svg width="200" height="200" viewBox="0 0 200 200" fill="none" xmlns="http://www.w3.org/2000/svg">
<rect width="200" height="200" rx="30" fill="#D4A017"/>
<path d="M105 65C105 61.8 105.867 59.3333 107.6 57.6C109.333 55.8667 111.8 55 115 55H159.6C162.8 55 165.267 55.8667 167 57.6C168.733 59.3333 169.6 61.8 169.6 65V69.2C169.6 72.4 168.733 74.8667 167 76.6C165.267 78.3333 162.8 79.2 159.6 79.2H115C111.8 79.2 109.333 78.3333 107.6 76.6C105.867 74.8667 105 72.4 105 69.2V65Z" fill="white"/>
<path d="M105 97.8C105 94.6 105.867 92.1333 107.6 90.4C109.333 88.6667 111.8 87.8 115 87.8H159.6C162.8 87.8 165.267 88.6667 167 90.4C168.733 92.1333 169.6 94.6 169.6 97.8V102C169.6 105.2 168.733 107.667 167 109.4C165.267 111.133 162.8 112 159.6 112H115C111.8 112 109.333 111.133 107.6 109.4C105.867 107.667 105 105.2 105 102V97.8Z" fill="white"/>
<path d="M30 130.2C30 129.134 30 128.5 30 128C30 127.5 30 126.467 30 125.4V97.6002C30 94.4002 30.8667 91.9335 32.6 90.2002C34.3333 88.4669 36.8 87.6002 40 87.6002H71V79.4002H40C36.8 79.4002 34.3333 78.5335 32.6 76.8002C30.8667 75.0669 30 72.6002 30 69.4002V65.2002C30 62.0002 30.8667 59.5335 32.6 57.8002C34.3333 56.0669 36.8 55.2002 40 55.2002H85C88.2 55.2002 90.6667 56.0669 92.4 57.8002C94.1333 59.5335 95 62.0002 95 65.2002V93.0002C95 94.0669 95 94.5002 95 95.0002C95 95.5002 95 96.5335 95 97.6002V102C95 105.2 94.1333 107.667 92.4 109.4C90.6667 111.134 88.2 112 85 112H54V120.2H160.1C163.3 120.2 165.767 121.067 167.5 122.8C169.233 124.534 170.1 127 170.1 130.2V134.4C170.1 137.6 169.233 140.067 167.5 141.8C165.767 143.534 163.3 144.4 160.1 144.4H40C36.8 144.4 34.3333 143.534 32.6 141.8C30.8667 140.067 30 137.6 30 134.4V130.2Z" fill="white"/>
</svg>
