<svg width="383" height="184" viewBox="0 0 383 184" fill="none" xmlns="http://www.w3.org/2000/svg">
<path d="M374.5 0.5H8.5C4.08172 0.5 0.5 4.59659 0.5 9.65V174.35C0.5 179.403 4.08172 183.5 8.5 183.5H374.5C378.918 183.5 382.5 179.403 382.5 174.35V9.65C382.5 4.59659 378.918 0.5 374.5 0.5Z" fill="url(#paint0_linear_546_10408)" stroke="#E2E2E2"/>
<path opacity="0.9" d="M243.439 20.5H139.439C135.021 20.5 131.439 24.0817 131.439 28.5V62.5C131.439 66.9183 135.021 70.5 139.439 70.5H243.439C247.858 70.5 251.439 66.9183 251.439 62.5V28.5C251.439 24.0817 247.858 20.5 243.439 20.5Z" fill="#1A1C1E"/>
<path d="M141.678 28.5C146.096 28.5 149.678 24.9183 149.678 20.5C149.678 16.0817 146.096 12.5 141.678 12.5C137.259 12.5 133.678 16.0817 133.678 20.5C133.678 24.9183 137.259 28.5 141.678 28.5Z" fill="#D4A853"/>
<path d="M174.768 45.5V37.7227H177.862C179.581 37.7227 180.44 38.5498 180.44 39.7207C180.44 40.6338 179.849 41.2031 179.043 41.3857V41.4609C179.924 41.5039 180.751 42.2021 180.751 43.3516C180.751 44.5869 179.828 45.5 178.066 45.5H174.768ZM177.744 44.168C178.678 44.168 179.076 43.7812 179.076 43.2012C179.076 42.5459 178.582 42.084 177.787 42.084H176.379V44.168H177.744ZM177.625 40.9775C178.302 40.9775 178.807 40.6016 178.807 39.9785C178.807 39.4199 178.399 39.0332 177.658 39.0332H176.379V40.9775H177.625ZM185.478 43.0186V39.667H187.068V45.5H185.542V44.4473H185.478C185.209 45.124 184.586 45.5752 183.706 45.5752C182.535 45.5752 181.74 44.748 181.74 43.3838V39.667H183.33V43.1045C183.33 43.792 183.727 44.2324 184.35 44.2324C184.93 44.2324 185.478 43.8135 185.478 43.0186ZM191.375 39.667V40.8594H190.28V43.7061C190.28 44.168 190.505 44.2861 190.828 44.2969C190.989 44.2969 191.268 44.2861 191.461 44.2646V45.5215C191.29 45.5537 191.01 45.5752 190.613 45.5752C189.463 45.5752 188.679 45.0596 188.69 43.9316V40.8594H187.884V39.667H188.69V38.2705H190.28V39.667H191.375ZM195.447 39.667V40.8594H194.351V43.7061C194.351 44.168 194.577 44.2861 194.899 44.2969C195.06 44.2969 195.339 44.2861 195.533 44.2646V45.5215C195.361 45.5537 195.082 45.5752 194.684 45.5752C193.535 45.5752 192.75 45.0596 192.761 43.9316V40.8594H191.956V39.667H192.761V38.2705H194.351V39.667H195.447ZM199.002 45.6182C197.241 45.6182 196.145 44.4043 196.145 42.5996C196.145 40.7949 197.241 39.5918 199.002 39.5918C200.764 39.5918 201.871 40.7949 201.871 42.5996C201.871 44.4043 200.764 45.6182 199.002 45.6182ZM199.013 44.3828C199.83 44.3828 200.249 43.6201 200.249 42.5996C200.249 41.5684 199.83 40.8057 199.013 40.8057C198.186 40.8057 197.756 41.5684 197.756 42.5996C197.756 43.6201 198.186 44.3828 199.013 44.3828ZM204.459 42.127V45.5H202.87V39.667H204.384V40.6875H204.449C204.717 40.0107 205.34 39.5918 206.2 39.5918C207.414 39.5918 208.219 40.4189 208.208 41.7832V45.5H206.629V42.0625C206.629 41.3428 206.232 40.9131 205.577 40.9131C204.911 40.9131 204.459 41.3535 204.459 42.127Z" fill="white"/>
<path d="M161.521 54.8438H162.365L164.271 59.5H164.342L166.248 54.8438H167.092V60.5H166.428V56.2266H166.373L164.615 60.5H163.99L162.232 56.2266H162.186V60.5H161.521V54.8438ZM168.053 59.2969C168.053 58.3203 168.912 58.1016 169.646 58.0469C169.916 58.0273 170.604 57.9922 170.795 57.9844V57.6406C170.795 57.1016 170.475 56.7891 169.834 56.7891C169.295 56.7891 168.975 57.0391 168.881 57.3594H168.178C168.264 56.6797 168.928 56.2031 169.865 56.2031C170.42 56.2031 171.459 56.3672 171.459 57.7031V60.5H170.795V59.9219H170.764C170.623 60.2109 170.232 60.6016 169.498 60.6016C168.693 60.6016 168.053 60.125 168.053 59.2969ZM168.725 59.3281C168.725 59.7734 169.1 60 169.615 60C170.373 60 170.795 59.4922 170.795 58.9609V58.5312L169.725 58.6094C169.115 58.6484 168.725 58.8672 168.725 59.3281ZM172.537 60.5V56.2578H173.209V60.5H172.537ZM172.873 55.5547C172.615 55.5547 172.404 55.3594 172.404 55.1094C172.404 54.8594 172.615 54.6641 172.873 54.6641C173.131 54.6641 173.35 54.8594 173.35 55.1094C173.35 55.3594 173.131 55.5547 172.873 55.5547ZM174.951 57.9531V60.5H174.279V56.2578H174.928V56.9219H174.982C175.186 56.4922 175.576 56.2031 176.225 56.2031C177.084 56.2031 177.654 56.7266 177.654 57.8047V60.5H176.982V57.8516C176.982 57.1953 176.623 56.8047 176.021 56.8047C175.404 56.8047 174.951 57.2188 174.951 57.9531ZM184.686 56.625C184.521 55.8438 183.85 55.4219 183.107 55.4219C182.084 55.4219 181.287 56.2109 181.287 57.6719C181.287 59.1328 182.084 59.9219 183.107 59.9219C183.85 59.9219 184.514 59.5 184.686 58.7266H185.389C185.186 59.8828 184.256 60.5781 183.107 60.5781C181.654 60.5781 180.607 59.4609 180.607 57.6719C180.607 55.8828 181.654 54.7656 183.107 54.7656C184.248 54.7656 185.178 55.4531 185.389 56.625H184.686ZM188.021 60.5859C186.865 60.5859 186.084 59.7188 186.084 58.3984C186.084 57.0781 186.865 56.2031 188.021 56.2031C189.17 56.2031 189.943 57.0781 189.943 58.3984C189.943 59.7188 189.17 60.5859 188.021 60.5859ZM188.021 59.9922C188.873 59.9922 189.271 59.2422 189.271 58.3984C189.271 57.5547 188.873 56.7969 188.021 56.7969C187.154 56.7969 186.756 57.5547 186.756 58.3984C186.756 59.2422 187.154 59.9922 188.021 59.9922ZM190.826 60.5V56.2578H191.475V56.9219H191.529C191.709 56.4688 192.115 56.2031 192.67 56.2031C193.225 56.2031 193.6 56.4688 193.803 56.9219H193.85C194.068 56.4844 194.514 56.2031 195.123 56.2031C195.881 56.2031 196.42 56.6641 196.42 57.6641V60.5H195.748V57.6719C195.748 57.0469 195.35 56.8047 194.889 56.8047C194.295 56.8047 193.959 57.2031 193.959 57.7422V60.5H193.279V57.6016C193.279 57.125 192.936 56.8047 192.451 56.8047C191.943 56.8047 191.498 57.2344 191.498 57.8516V60.5H190.826ZM197.498 62.0938V56.2578H198.146V56.9297H198.225C198.365 56.7031 198.631 56.2031 199.451 56.2031C200.514 56.2031 201.256 57.0469 201.256 58.3906C201.256 59.7344 200.514 60.5859 199.459 60.5859C198.646 60.5859 198.365 60.0859 198.225 59.8516H198.17V62.0938H197.498ZM198.154 58.375C198.154 59.3281 198.584 59.9844 199.365 59.9844C200.17 59.9844 200.584 59.2812 200.584 58.375C200.584 57.4922 200.178 56.8047 199.365 56.8047C198.568 56.8047 198.154 57.4375 198.154 58.375ZM203.865 60.5859C202.709 60.5859 201.928 59.7188 201.928 58.3984C201.928 57.0781 202.709 56.2031 203.865 56.2031C205.014 56.2031 205.787 57.0781 205.787 58.3984C205.787 59.7188 205.014 60.5859 203.865 60.5859ZM203.865 59.9922C204.717 59.9922 205.115 59.2422 205.115 58.3984C205.115 57.5547 204.717 56.7969 203.865 56.7969C202.998 56.7969 202.6 57.5547 202.6 58.3984C202.6 59.2422 202.998 59.9922 203.865 59.9922ZM207.342 57.9531V60.5H206.67V56.2578H207.318V56.9219H207.373C207.576 56.4922 207.967 56.2031 208.615 56.2031C209.475 56.2031 210.045 56.7266 210.045 57.8047V60.5H209.373V57.8516C209.373 57.1953 209.014 56.8047 208.412 56.8047C207.795 56.8047 207.342 57.2188 207.342 57.9531ZM212.904 60.5859C211.678 60.5859 210.92 59.7188 210.92 58.4141C210.92 57.1094 211.686 56.2031 212.842 56.2031C213.732 56.2031 214.67 56.75 214.67 58.3203V58.6016H211.592C211.623 59.5 212.146 59.9922 212.904 59.9922C213.412 59.9922 213.732 59.7734 213.889 59.5078H214.607C214.404 60.1484 213.779 60.5859 212.904 60.5859ZM211.6 58.0312H213.99C213.99 57.3203 213.537 56.7969 212.842 56.7969C212.107 56.7969 211.639 57.375 211.6 58.0312ZM216.217 57.9531V60.5H215.545V56.2578H216.193V56.9219H216.248C216.451 56.4922 216.842 56.2031 217.49 56.2031C218.35 56.2031 218.92 56.7266 218.92 57.8047V60.5H218.248V57.8516C218.248 57.1953 217.889 56.8047 217.287 56.8047C216.67 56.8047 216.217 57.2188 216.217 57.9531ZM221.85 56.2578V56.8203H220.959V59.2812C220.959 59.8281 221.225 59.9141 221.514 59.9141C221.639 59.9141 221.811 59.9062 221.912 59.8984V60.5234C221.811 60.5391 221.639 60.5547 221.443 60.5547C220.881 60.5547 220.279 60.2031 220.279 59.4531V56.8203H219.639V56.2578H220.279V55.2422H220.959V56.2578H221.85Z" fill="#888888"/>
<g opacity="0.6">
<path d="M131.457 70.5L56.457 108.5L131.457 70.5Z" fill="#1A1C1E"/>
<path d="M131.457 70.5L56.457 108.5" stroke="#D4A853" stroke-width="1.2"/>
</g>
<g opacity="0.6">
<path d="M191.5 70.5V108.5V70.5Z" fill="#1A1C1E"/>
<path d="M191.5 70.5V108.5" stroke="#D4A853" stroke-width="1.2"/>
</g>
<g opacity="0.6">
<path d="M251.561 70.5L316.561 108.5L251.561 70.5Z" fill="#1A1C1E"/>
<path d="M251.561 70.5L316.561 108.5" stroke="#D4A853" stroke-width="1.2"/>
</g>
<path opacity="0.9" d="M78.6445 108.5H34.6445C26.9125 108.5 20.6445 114.768 20.6445 122.5C20.6445 130.232 26.9125 136.5 34.6445 136.5H78.6445C86.3765 136.5 92.6445 130.232 92.6445 122.5C92.6445 114.768 86.3765 108.5 78.6445 108.5Z" fill="#D4A853"/>
<path d="M40.6694 126.5V120.137H43.1655C44.6157 120.137 45.4419 121.024 45.4419 122.281C45.4419 123.556 44.5981 124.426 43.1304 124.426H41.9878V126.5H40.6694ZM41.9878 123.362H42.9194C43.7017 123.362 44.0796 122.923 44.0796 122.281C44.0796 121.648 43.7017 121.218 42.9194 121.218H41.9878V123.362ZM46.2505 126.5V121.728H47.5073V122.554H47.5601C47.7358 121.965 48.1753 121.657 48.7114 121.657C48.8433 121.657 49.0103 121.675 49.1245 121.701V122.861C49.0015 122.826 48.7554 122.791 48.5708 122.791C47.9819 122.791 47.5513 123.204 47.5513 123.784V126.5H46.2505ZM49.7573 126.5V121.728H51.0581V126.5H49.7573ZM50.4077 121.104C50.0122 121.104 49.6958 120.805 49.6958 120.444C49.6958 120.075 50.0122 119.776 50.4077 119.776C50.7944 119.776 51.1108 120.075 51.1108 120.444C51.1108 120.805 50.7944 121.104 50.4077 121.104ZM52.0688 126.5V121.728H53.3081V122.562H53.3608C53.563 122.009 54.0464 121.666 54.688 121.666C55.3472 121.666 55.8306 122.009 55.9888 122.562H56.0327C56.2349 122.018 56.771 121.666 57.4741 121.666C58.3618 121.666 58.9771 122.255 58.9771 123.292V126.5H57.6763V123.547C57.6763 123.002 57.3599 122.738 56.9292 122.738C56.437 122.738 56.1558 123.081 56.1558 123.582V126.5H54.8901V123.512C54.8901 123.037 54.5913 122.738 54.1519 122.738C53.7124 122.738 53.3696 123.09 53.3696 123.635V126.5H52.0688ZM59.7505 125.164C59.7505 124.101 60.6118 123.749 61.5259 123.696C61.8687 123.674 62.5103 123.644 62.7124 123.635V123.248C62.7036 122.853 62.4312 122.615 61.9478 122.615C61.5083 122.615 61.2271 122.817 61.1567 123.143H59.9175C59.9966 122.316 60.7173 121.666 61.9829 121.666C63.02 121.666 64.0044 122.132 64.0044 123.283V126.5H62.7739V125.841H62.7388C62.5015 126.28 62.0532 126.588 61.3413 126.588C60.4272 126.588 59.7505 126.113 59.7505 125.164ZM60.9985 125.129C60.9985 125.498 61.2974 125.691 61.7104 125.691C62.2993 125.691 62.7212 125.296 62.7124 124.795V124.443C62.5146 124.452 61.9609 124.483 61.7368 124.505C61.2886 124.549 60.9985 124.76 60.9985 125.129ZM64.9976 126.5V121.728H66.2544V122.554H66.3071C66.4829 121.965 66.9224 121.657 67.4585 121.657C67.5903 121.657 67.7573 121.675 67.8716 121.701V122.861C67.7485 122.826 67.5024 122.791 67.3179 122.791C66.729 122.791 66.2983 123.204 66.2983 123.784V126.5H64.9976ZM69.4185 128.293C69.1636 128.293 68.9263 128.284 68.7593 128.267V127.256C68.9263 127.265 69.1196 127.273 69.2866 127.273C69.5415 127.273 69.7524 127.247 69.9106 126.834L69.9897 126.632L68.2759 121.728H69.6382L70.6401 125.243H70.6929L71.7036 121.728H73.0835L71.2202 127.027C70.9478 127.792 70.4292 128.293 69.4185 128.293Z" fill="#1A1C1E"/>
<path d="M212.568 108.5H168.568C160.836 108.5 154.568 114.768 154.568 122.5C154.568 130.232 160.836 136.5 168.568 136.5H212.568C220.3 136.5 226.568 130.232 226.568 122.5C226.568 114.768 220.3 108.5 212.568 108.5Z" stroke="#1A1C1E" stroke-width="1.5"/>
<path d="M171.698 121.956C171.645 121.455 171.241 121.156 170.599 121.156C169.931 121.156 169.562 121.464 169.553 121.886C169.544 122.343 170.028 122.554 170.573 122.677L171.144 122.817C172.234 123.063 173.051 123.617 173.051 124.681C173.051 125.85 172.137 126.588 170.59 126.588C169.052 126.588 168.068 125.876 168.033 124.514H169.316C169.36 125.155 169.87 125.48 170.573 125.48C171.267 125.48 171.715 125.155 171.715 124.681C171.715 124.25 171.32 124.048 170.625 123.872L169.931 123.705C168.859 123.441 168.2 122.905 168.2 121.974C168.2 120.813 169.219 120.049 170.608 120.049C172.014 120.049 172.946 120.831 172.963 121.956H171.698ZM176.048 126.597C174.589 126.597 173.693 125.647 173.693 124.136C173.693 122.659 174.598 121.666 175.996 121.666C177.252 121.666 178.237 122.457 178.237 124.083V124.452H174.976C174.976 125.173 175.407 125.621 176.075 125.621C176.514 125.621 176.831 125.428 176.962 125.138H178.202C178.017 126.017 177.226 126.597 176.048 126.597ZM174.976 123.635H177.006C177.006 123.055 176.602 122.642 176.022 122.642C175.424 122.642 174.998 123.085 174.976 123.635ZM181.199 126.597C179.74 126.597 178.861 125.586 178.861 124.127C178.861 122.668 179.749 121.666 181.199 121.666C182.429 121.666 183.264 122.387 183.317 123.477H182.095C182.016 123.002 181.708 122.677 181.216 122.677C180.592 122.677 180.179 123.204 180.179 124.109C180.179 125.032 180.583 125.56 181.216 125.56C181.673 125.56 182.016 125.278 182.095 124.769H183.317C183.255 125.85 182.464 126.597 181.199 126.597ZM186.27 126.597C184.829 126.597 183.932 125.604 183.932 124.127C183.932 122.65 184.829 121.666 186.27 121.666C187.711 121.666 188.617 122.65 188.617 124.127C188.617 125.604 187.711 126.597 186.27 126.597ZM186.279 125.586C186.947 125.586 187.29 124.962 187.29 124.127C187.29 123.283 186.947 122.659 186.279 122.659C185.602 122.659 185.25 123.283 185.25 124.127C185.25 124.962 185.602 125.586 186.279 125.586ZM190.735 123.74V126.5H189.434V121.728H190.673V122.562H190.726C190.946 122.009 191.456 121.666 192.159 121.666C193.152 121.666 193.811 122.343 193.802 123.459V126.5H192.51V123.688C192.51 123.099 192.185 122.747 191.649 122.747C191.104 122.747 190.735 123.107 190.735 123.74ZM196.571 126.579C195.481 126.579 194.628 125.709 194.628 124.118C194.628 122.483 195.516 121.666 196.571 121.666C197.371 121.666 197.749 122.141 197.924 122.527H197.968V120.137H199.269V126.5H197.986V125.735H197.924C197.74 126.131 197.344 126.579 196.571 126.579ZM196.975 125.542C197.625 125.542 197.995 124.971 197.995 124.109C197.995 123.248 197.625 122.703 196.975 122.703C196.316 122.703 195.964 123.274 195.964 124.109C195.964 124.953 196.316 125.542 196.975 125.542ZM200.086 125.164C200.086 124.101 200.948 123.749 201.862 123.696C202.205 123.674 202.846 123.644 203.048 123.635V123.248C203.04 122.853 202.767 122.615 202.284 122.615C201.844 122.615 201.563 122.817 201.493 123.143H200.253C200.333 122.316 201.053 121.666 202.319 121.666C203.356 121.666 204.34 122.132 204.34 123.283V126.5H203.11V125.841H203.075C202.837 126.28 202.389 126.588 201.677 126.588C200.763 126.588 200.086 126.113 200.086 125.164ZM201.334 125.129C201.334 125.498 201.633 125.691 202.046 125.691C202.635 125.691 203.057 125.296 203.048 124.795V124.443C202.851 124.452 202.297 124.483 202.073 124.505C201.625 124.549 201.334 124.76 201.334 125.129ZM205.333 126.5V121.728H206.59V122.554H206.643C206.819 121.965 207.258 121.657 207.794 121.657C207.926 121.657 208.093 121.675 208.208 121.701V122.861C208.084 122.826 207.838 122.791 207.654 122.791C207.065 122.791 206.634 123.204 206.634 123.784V126.5H205.333ZM209.754 128.293C209.5 128.293 209.262 128.284 209.095 128.267V127.256C209.262 127.265 209.456 127.273 209.623 127.273C209.877 127.273 210.088 127.247 210.247 126.834L210.326 126.632L208.612 121.728H209.974L210.976 125.243H211.029L212.04 121.728H213.419L211.556 127.027C211.284 127.792 210.765 128.293 209.754 128.293Z" fill="#1A1C1E"/>
<path d="M360.596 108.5H296.596C294.387 108.5 292.596 110.291 292.596 112.5V132.5C292.596 134.709 294.387 136.5 296.596 136.5H360.596C362.805 136.5 364.596 134.709 364.596 132.5V112.5C364.596 110.291 362.805 108.5 360.596 108.5Z" fill="#E8E8E8"/>
<path d="M320.375 122.185C320.2 121.587 319.716 121.218 319.022 121.218C318.038 121.218 317.37 121.974 317.37 123.31C317.37 124.654 318.02 125.419 319.031 125.419C319.94 125.419 320.481 124.905 320.499 124.101H319.119V123.107H321.773V123.898C321.773 125.568 320.63 126.588 319.022 126.588C317.238 126.588 316.025 125.34 316.025 123.327C316.025 121.262 317.317 120.049 318.996 120.049C320.428 120.049 321.536 120.928 321.711 122.185H320.375ZM324.014 123.74V126.5H322.713V120.137H323.979V122.562H324.032C324.251 122.009 324.735 121.666 325.456 121.666C326.449 121.666 327.108 122.334 327.108 123.459V126.5H325.807V123.688C325.807 123.099 325.491 122.747 324.946 122.747C324.401 122.747 324.014 123.107 324.014 123.74ZM330.254 126.597C328.813 126.597 327.917 125.604 327.917 124.127C327.917 122.65 328.813 121.666 330.254 121.666C331.696 121.666 332.601 122.65 332.601 124.127C332.601 125.604 331.696 126.597 330.254 126.597ZM330.263 125.586C330.931 125.586 331.274 124.962 331.274 124.127C331.274 123.283 330.931 122.659 330.263 122.659C329.586 122.659 329.235 123.283 329.235 124.127C329.235 124.962 329.586 125.586 330.263 125.586ZM336.143 123.143C336.09 122.809 335.792 122.589 335.361 122.589C334.939 122.589 334.614 122.791 334.623 123.081C334.614 123.292 334.79 123.459 335.238 123.556L336.09 123.731C337.013 123.925 337.461 124.338 337.47 125.023C337.461 125.964 336.618 126.597 335.352 126.597C334.06 126.597 333.304 126.017 333.199 125.085H334.508C334.57 125.463 334.877 125.656 335.352 125.656C335.827 125.656 336.143 125.463 336.143 125.155C336.143 124.909 335.941 124.76 335.493 124.663L334.702 124.505C333.796 124.329 333.322 123.854 333.331 123.151C333.322 122.237 334.113 121.666 335.343 121.666C336.547 121.666 337.294 122.237 337.365 123.143H336.143ZM340.784 121.728V122.703H339.887V125.032C339.887 125.41 340.072 125.507 340.335 125.516C340.467 125.516 340.696 125.507 340.854 125.489V126.518C340.713 126.544 340.485 126.562 340.16 126.562C339.219 126.562 338.578 126.14 338.586 125.217V122.703H337.927V121.728H338.586V120.585H339.887V121.728H340.784Z" fill="#5F5E5E"/>
<path d="M32.2969 142.258L30.7266 146.5H30.0313L28.4688 142.258H29.2031L30.3594 145.625H30.4063L31.5625 142.258H32.2969ZM32.7031 145.297C32.7031 144.32 33.5625 144.102 34.2969 144.047C34.5664 144.027 35.2539 143.992 35.4453 143.984V143.641C35.4453 143.102 35.125 142.789 34.4844 142.789C33.9453 142.789 33.625 143.039 33.5313 143.359H32.8281C32.9141 142.68 33.5781 142.203 34.5156 142.203C35.0703 142.203 36.1094 142.367 36.1094 143.703V146.5H35.4453V145.922H35.4141C35.2734 146.211 34.8828 146.602 34.1484 146.602C33.3438 146.602 32.7031 146.125 32.7031 145.297ZM33.375 145.328C33.375 145.773 33.75 146 34.2656 146C35.0234 146 35.4453 145.492 35.4453 144.961V144.531L34.375 144.609C33.7656 144.648 33.375 144.867 33.375 145.328ZM37.1875 146.5V142.258H37.8359V142.906H37.8828C38.0391 142.477 38.4766 142.188 38.9766 142.188C39.0781 142.188 39.25 142.195 39.3281 142.203V142.883C39.2813 142.867 39.0938 142.836 38.9219 142.836C38.3125 142.836 37.8594 143.258 37.8594 143.828V146.5H37.1875ZM39.9844 146.5V142.258H40.6563V146.5H39.9844ZM40.3203 141.555C40.0625 141.555 39.8516 141.359 39.8516 141.109C39.8516 140.859 40.0625 140.664 40.3203 140.664C40.5781 140.664 40.7969 140.859 40.7969 141.109C40.7969 141.359 40.5781 141.555 40.3203 141.555ZM41.5234 145.297C41.5234 144.32 42.3828 144.102 43.1172 144.047C43.3867 144.027 44.0742 143.992 44.2656 143.984V143.641C44.2656 143.102 43.9453 142.789 43.3047 142.789C42.7656 142.789 42.4453 143.039 42.3516 143.359H41.6484C41.7344 142.68 42.3984 142.203 43.3359 142.203C43.8906 142.203 44.9297 142.367 44.9297 143.703V146.5H44.2656V145.922H44.2344C44.0938 146.211 43.7031 146.602 42.9688 146.602C42.1641 146.602 41.5234 146.125 41.5234 145.297ZM42.1953 145.328C42.1953 145.773 42.5703 146 43.0859 146C43.8438 146 44.2656 145.492 44.2656 144.961V144.531L43.1953 144.609C42.5859 144.648 42.1953 144.867 42.1953 145.328ZM46.6797 143.953V146.5H46.0078V142.258H46.6563V142.922H46.7109C46.9141 142.492 47.3047 142.203 47.9531 142.203C48.8125 142.203 49.3828 142.727 49.3828 143.805V146.5H48.7109V143.852C48.7109 143.195 48.3516 142.805 47.75 142.805C47.1328 142.805 46.6797 143.219 46.6797 143.953ZM52.3125 142.258V142.82H51.4219V145.281C51.4219 145.828 51.6875 145.914 51.9766 145.914C52.1016 145.914 52.2734 145.906 52.375 145.898V146.523C52.2734 146.539 52.1016 146.555 51.9063 146.555C51.3438 146.555 50.7422 146.203 50.7422 145.453V142.82H50.1016V142.258H50.7422V141.242H51.4219V142.258H52.3125ZM53.4453 143.773V143.156H56.8594V143.773H53.4453ZM53.4453 145.414V144.805H56.8594V145.414H53.4453ZM58.1953 148.094V142.258H58.8438V142.93H58.9219C59.0625 142.703 59.3281 142.203 60.1484 142.203C61.2109 142.203 61.9531 143.047 61.9531 144.391C61.9531 145.734 61.2109 146.586 60.1563 146.586C59.3438 146.586 59.0625 146.086 58.9219 145.852H58.8672V148.094H58.1953ZM58.8516 144.375C58.8516 145.328 59.2813 145.984 60.0625 145.984C60.8672 145.984 61.2813 145.281 61.2813 144.375C61.2813 143.492 60.875 142.805 60.0625 142.805C59.2656 142.805 58.8516 143.438 58.8516 144.375ZM62.8281 146.5V142.258H63.4766V142.906H63.5234C63.6797 142.477 64.1172 142.188 64.6172 142.188C64.7188 142.188 64.8906 142.195 64.9688 142.203V142.883C64.9219 142.867 64.7344 142.836 64.5625 142.836C63.9531 142.836 63.5 143.258 63.5 143.828V146.5H62.8281ZM65.625 146.5V142.258H66.2969V146.5H65.625ZM65.9609 141.555C65.7031 141.555 65.4922 141.359 65.4922 141.109C65.4922 140.859 65.7031 140.664 65.9609 140.664C66.2188 140.664 66.4375 140.859 66.4375 141.109C66.4375 141.359 66.2188 141.555 65.9609 141.555ZM67.3672 146.5V142.258H68.0156V142.922H68.0703C68.25 142.469 68.6562 142.203 69.2109 142.203C69.7656 142.203 70.1406 142.469 70.3438 142.922H70.3906C70.6094 142.484 71.0547 142.203 71.6641 142.203C72.4219 142.203 72.9609 142.664 72.9609 143.664V146.5H72.2891V143.672C72.2891 143.047 71.8906 142.805 71.4297 142.805C70.8359 142.805 70.5 143.203 70.5 143.742V146.5H69.8203V143.602C69.8203 143.125 69.4766 142.805 68.9922 142.805C68.4844 142.805 68.0391 143.234 68.0391 143.852V146.5H67.3672ZM73.8359 145.297C73.8359 144.32 74.6953 144.102 75.4297 144.047C75.6992 144.027 76.3867 143.992 76.5781 143.984V143.641C76.5781 143.102 76.2578 142.789 75.6172 142.789C75.0781 142.789 74.7578 143.039 74.6641 143.359H73.9609C74.0469 142.68 74.7109 142.203 75.6484 142.203C76.2031 142.203 77.2422 142.367 77.2422 143.703V146.5H76.5781V145.922H76.5469C76.4062 146.211 76.0156 146.602 75.2812 146.602C74.4766 146.602 73.8359 146.125 73.8359 145.297ZM74.5078 145.328C74.5078 145.773 74.8828 146 75.3984 146C76.1562 146 76.5781 145.492 76.5781 144.961V144.531L75.5078 144.609C74.8984 144.648 74.5078 144.867 74.5078 145.328ZM78.3203 146.5V142.258H78.9688V142.906H79.0156C79.1719 142.477 79.6094 142.188 80.1094 142.188C80.2109 142.188 80.3828 142.195 80.4609 142.203V142.883C80.4141 142.867 80.2266 142.836 80.0547 142.836C79.4453 142.836 78.9922 143.258 78.9922 143.828V146.5H78.3203ZM81.6797 148.094C81.5312 148.094 81.3906 148.086 81.3047 148.078V147.477C81.375 147.484 81.5312 147.492 81.6328 147.492C81.9062 147.492 82.1328 147.469 82.3594 146.852L82.4844 146.531L80.9141 142.258H81.6484L82.8047 145.625H82.8516L84.0078 142.258H84.7422L82.9453 147.109C82.6953 147.773 82.2812 148.094 81.6797 148.094Z" fill="#9A9090"/>
<path d="M160.875 142.258L159.305 146.5H158.609L157.047 142.258H157.781L158.938 145.625H158.984L160.141 142.258H160.875ZM161.281 145.297C161.281 144.32 162.141 144.102 162.875 144.047C163.145 144.027 163.832 143.992 164.023 143.984V143.641C164.023 143.102 163.703 142.789 163.062 142.789C162.523 142.789 162.203 143.039 162.109 143.359H161.406C161.492 142.68 162.156 142.203 163.094 142.203C163.648 142.203 164.688 142.367 164.688 143.703V146.5H164.023V145.922H163.992C163.852 146.211 163.461 146.602 162.727 146.602C161.922 146.602 161.281 146.125 161.281 145.297ZM161.953 145.328C161.953 145.773 162.328 146 162.844 146C163.602 146 164.023 145.492 164.023 144.961V144.531L162.953 144.609C162.344 144.648 161.953 144.867 161.953 145.328ZM165.766 146.5V142.258H166.414V142.906H166.461C166.617 142.477 167.055 142.188 167.555 142.188C167.656 142.188 167.828 142.195 167.906 142.203V142.883C167.859 142.867 167.672 142.836 167.5 142.836C166.891 142.836 166.438 143.258 166.438 143.828V146.5H165.766ZM168.562 146.5V142.258H169.234V146.5H168.562ZM168.898 141.555C168.641 141.555 168.43 141.359 168.43 141.109C168.43 140.859 168.641 140.664 168.898 140.664C169.156 140.664 169.375 140.859 169.375 141.109C169.375 141.359 169.156 141.555 168.898 141.555ZM170.102 145.297C170.102 144.32 170.961 144.102 171.695 144.047C171.965 144.027 172.652 143.992 172.844 143.984V143.641C172.844 143.102 172.523 142.789 171.883 142.789C171.344 142.789 171.023 143.039 170.93 143.359H170.227C170.312 142.68 170.977 142.203 171.914 142.203C172.469 142.203 173.508 142.367 173.508 143.703V146.5H172.844V145.922H172.812C172.672 146.211 172.281 146.602 171.547 146.602C170.742 146.602 170.102 146.125 170.102 145.297ZM170.773 145.328C170.773 145.773 171.148 146 171.664 146C172.422 146 172.844 145.492 172.844 144.961V144.531L171.773 144.609C171.164 144.648 170.773 144.867 170.773 145.328ZM175.258 143.953V146.5H174.586V142.258H175.234V142.922H175.289C175.492 142.492 175.883 142.203 176.531 142.203C177.391 142.203 177.961 142.727 177.961 143.805V146.5H177.289V143.852C177.289 143.195 176.93 142.805 176.328 142.805C175.711 142.805 175.258 143.219 175.258 143.953ZM180.891 142.258V142.82H180V145.281C180 145.828 180.266 145.914 180.555 145.914C180.68 145.914 180.852 145.906 180.953 145.898V146.523C180.852 146.539 180.68 146.555 180.484 146.555C179.922 146.555 179.32 146.203 179.32 145.453V142.82H178.68V142.258H179.32V141.242H180V142.258H180.891ZM182.023 143.773V143.156H185.438V143.773H182.023ZM182.023 145.414V144.805H185.438V145.414H182.023ZM189.133 143.359C189.039 143.008 188.773 142.773 188.273 142.773C187.75 142.773 187.375 143.055 187.375 143.414C187.375 143.695 187.602 143.891 188.102 144.008L188.734 144.164C189.492 144.344 189.867 144.719 189.867 145.312C189.867 146.047 189.266 146.586 188.203 146.586C187.25 146.586 186.68 146.164 186.57 145.391H187.273C187.352 145.805 187.656 146 188.188 146C188.789 146 189.172 145.75 189.172 145.352C189.172 145.055 188.961 144.852 188.477 144.742L187.836 144.594C187.094 144.422 186.703 144.016 186.703 143.453C186.703 142.727 187.336 142.203 188.273 142.203C189.148 142.203 189.703 142.672 189.789 143.359H189.133ZM192.523 146.586C191.297 146.586 190.539 145.719 190.539 144.414C190.539 143.109 191.305 142.203 192.461 142.203C193.352 142.203 194.289 142.75 194.289 144.32V144.602H191.211C191.242 145.5 191.766 145.992 192.523 145.992C193.031 145.992 193.352 145.773 193.508 145.508H194.227C194.023 146.148 193.398 146.586 192.523 146.586ZM191.219 144.031H193.609C193.609 143.32 193.156 142.797 192.461 142.797C191.727 142.797 191.258 143.375 191.219 144.031ZM196.898 146.586C195.695 146.586 194.961 145.672 194.961 144.398C194.961 143.109 195.727 142.203 196.883 142.203C197.789 142.203 198.461 142.734 198.57 143.539H197.898C197.805 143.148 197.461 142.797 196.898 142.797C196.141 142.797 195.633 143.422 195.633 144.375C195.633 145.359 196.125 145.984 196.898 145.984C197.398 145.984 197.781 145.719 197.898 145.25H198.57C198.461 146.008 197.844 146.586 196.898 146.586ZM201.133 146.586C199.977 146.586 199.195 145.719 199.195 144.398C199.195 143.078 199.977 142.203 201.133 142.203C202.281 142.203 203.055 143.078 203.055 144.398C203.055 145.719 202.281 146.586 201.133 146.586ZM201.133 145.992C201.984 145.992 202.383 145.242 202.383 144.398C202.383 143.555 201.984 142.797 201.133 142.797C200.266 142.797 199.867 143.555 199.867 144.398C199.867 145.242 200.266 145.992 201.133 145.992ZM204.609 143.953V146.5H203.938V142.258H204.586V142.922H204.641C204.844 142.492 205.234 142.203 205.883 142.203C206.742 142.203 207.312 142.727 207.312 143.805V146.5H206.641V143.852C206.641 143.195 206.281 142.805 205.68 142.805C205.062 142.805 204.609 143.219 204.609 143.953ZM209.992 146.586C208.938 146.586 208.188 145.734 208.188 144.391C208.188 143.047 208.938 142.203 210 142.203C210.82 142.203 211.086 142.703 211.227 142.93H211.273V140.844H211.953V146.5H211.297V145.852H211.227C211.078 146.086 210.805 146.586 209.992 146.586ZM210.086 145.984C210.859 145.984 211.297 145.328 211.297 144.375C211.297 143.438 210.875 142.805 210.086 142.805C209.273 142.805 208.867 143.492 208.867 144.375C208.867 145.281 209.281 145.984 210.086 145.984ZM212.914 145.297C212.914 144.32 213.773 144.102 214.508 144.047C214.777 144.027 215.465 143.992 215.656 143.984V143.641C215.656 143.102 215.336 142.789 214.695 142.789C214.156 142.789 213.836 143.039 213.742 143.359H213.039C213.125 142.68 213.789 142.203 214.727 142.203C215.281 142.203 216.32 142.367 216.32 143.703V146.5H215.656V145.922H215.625C215.484 146.211 215.094 146.602 214.359 146.602C213.555 146.602 212.914 146.125 212.914 145.297ZM213.586 145.328C213.586 145.773 213.961 146 214.477 146C215.234 146 215.656 145.492 215.656 144.961V144.531L214.586 144.609C213.977 144.648 213.586 144.867 213.586 145.328ZM217.398 146.5V142.258H218.047V142.906H218.094C218.25 142.477 218.688 142.188 219.188 142.188C219.289 142.188 219.461 142.195 219.539 142.203V142.883C219.492 142.867 219.305 142.836 219.133 142.836C218.523 142.836 218.07 143.258 218.07 143.828V146.5H217.398ZM220.758 148.094C220.609 148.094 220.469 148.086 220.383 148.078V147.477C220.453 147.484 220.609 147.492 220.711 147.492C220.984 147.492 221.211 147.469 221.438 146.852L221.562 146.531L219.992 142.258H220.727L221.883 145.625H221.93L223.086 142.258H223.82L222.023 147.109C221.773 147.773 221.359 148.094 220.758 148.094Z" fill="#9A9090"/>
<path d="M307.57 142.258L306 146.5H305.305L303.742 142.258H304.477L305.633 145.625H305.68L306.836 142.258H307.57ZM307.977 145.297C307.977 144.32 308.836 144.102 309.57 144.047C309.84 144.027 310.527 143.992 310.719 143.984V143.641C310.719 143.102 310.398 142.789 309.758 142.789C309.219 142.789 308.898 143.039 308.805 143.359H308.102C308.187 142.68 308.852 142.203 309.789 142.203C310.344 142.203 311.383 142.367 311.383 143.703V146.5H310.719V145.922H310.687C310.547 146.211 310.156 146.602 309.422 146.602C308.617 146.602 307.977 146.125 307.977 145.297ZM308.648 145.328C308.648 145.773 309.023 146 309.539 146C310.297 146 310.719 145.492 310.719 144.961V144.531L309.648 144.609C309.039 144.648 308.648 144.867 308.648 145.328ZM312.461 146.5V142.258H313.109V142.906H313.156C313.312 142.477 313.75 142.188 314.25 142.188C314.352 142.188 314.523 142.195 314.602 142.203V142.883C314.555 142.867 314.367 142.836 314.195 142.836C313.586 142.836 313.133 143.258 313.133 143.828V146.5H312.461ZM315.258 146.5V142.258H315.93V146.5H315.258ZM315.594 141.555C315.336 141.555 315.125 141.359 315.125 141.109C315.125 140.859 315.336 140.664 315.594 140.664C315.852 140.664 316.07 140.859 316.07 141.109C316.07 141.359 315.852 141.555 315.594 141.555ZM316.797 145.297C316.797 144.32 317.656 144.102 318.391 144.047C318.66 144.027 319.348 143.992 319.539 143.984V143.641C319.539 143.102 319.219 142.789 318.578 142.789C318.039 142.789 317.719 143.039 317.625 143.359H316.922C317.008 142.68 317.672 142.203 318.609 142.203C319.164 142.203 320.203 142.367 320.203 143.703V146.5H319.539V145.922H319.508C319.367 146.211 318.977 146.602 318.242 146.602C317.437 146.602 316.797 146.125 316.797 145.297ZM317.469 145.328C317.469 145.773 317.844 146 318.359 146C319.117 146 319.539 145.492 319.539 144.961V144.531L318.469 144.609C317.859 144.648 317.469 144.867 317.469 145.328ZM321.953 143.953V146.5H321.281V142.258H321.93V142.922H321.984C322.187 142.492 322.578 142.203 323.227 142.203C324.086 142.203 324.656 142.727 324.656 143.805V146.5H323.984V143.852C323.984 143.195 323.625 142.805 323.023 142.805C322.406 142.805 321.953 143.219 321.953 143.953ZM327.586 142.258V142.82H326.695V145.281C326.695 145.828 326.961 145.914 327.25 145.914C327.375 145.914 327.547 145.906 327.648 145.898V146.523C327.547 146.539 327.375 146.555 327.18 146.555C326.617 146.555 326.016 146.203 326.016 145.453V142.82H325.375V142.258H326.016V141.242H326.695V142.258H327.586ZM328.719 143.773V143.156H332.133V143.773H328.719ZM328.719 145.414V144.805H332.133V145.414H328.719ZM335.187 148.18C334.164 148.18 333.469 147.734 333.391 146.945H334.094C334.187 147.375 334.586 147.594 335.187 147.594C335.914 147.594 336.359 147.281 336.359 146.578V145.719H336.305C336.164 145.953 335.891 146.438 335.07 146.438C334.039 146.438 333.266 145.656 333.266 144.32C333.266 143.016 334.016 142.203 335.078 142.203C335.898 142.203 336.164 142.703 336.32 142.93H336.375V142.258H337.031V146.617C337.031 147.711 336.219 148.18 335.187 148.18ZM335.164 145.836C335.937 145.836 336.375 145.281 336.375 144.344C336.375 143.438 335.953 142.805 335.164 142.805C334.352 142.805 333.945 143.492 333.945 144.344C333.945 145.227 334.359 145.836 335.164 145.836ZM338.773 143.953V146.5H338.102V140.844H338.773V142.922H338.828C339.023 142.484 339.406 142.203 340.078 142.203C340.945 142.203 341.523 142.719 341.523 143.805V146.5H340.852V143.852C340.852 143.188 340.484 142.805 339.875 142.805C339.242 142.805 338.773 143.219 338.773 143.953ZM344.336 146.586C343.18 146.586 342.398 145.719 342.398 144.398C342.398 143.078 343.18 142.203 344.336 142.203C345.484 142.203 346.258 143.078 346.258 144.398C346.258 145.719 345.484 146.586 344.336 146.586ZM344.336 145.992C345.188 145.992 345.586 145.242 345.586 144.398C345.586 143.555 345.188 142.797 344.336 142.797C343.469 142.797 343.07 143.555 343.07 144.398C343.07 145.242 343.469 145.992 344.336 145.992ZM349.5 143.359C349.406 143.008 349.141 142.773 348.641 142.773C348.117 142.773 347.742 143.055 347.742 143.414C347.742 143.695 347.969 143.891 348.469 144.008L349.102 144.164C349.859 144.344 350.234 144.719 350.234 145.312C350.234 146.047 349.633 146.586 348.57 146.586C347.617 146.586 347.047 146.164 346.938 145.391H347.641C347.719 145.805 348.023 146 348.555 146C349.156 146 349.539 145.75 349.539 145.352C349.539 145.055 349.328 144.852 348.844 144.742L348.203 144.594C347.461 144.422 347.07 144.016 347.07 143.453C347.07 142.727 347.703 142.203 348.641 142.203C349.516 142.203 350.07 142.672 350.156 143.359H349.5ZM352.961 142.258V142.82H352.07V145.281C352.07 145.828 352.336 145.914 352.625 145.914C352.75 145.914 352.922 145.906 353.023 145.898V146.523C352.922 146.539 352.75 146.555 352.555 146.555C351.992 146.555 351.391 146.203 351.391 145.453V142.82H350.75V142.258H351.391V141.242H352.07V142.258H352.961Z" fill="#9A9090"/>
<path d="M96.9747 162.23H97.7947V171.28H96.9747V162.23ZM97.6047 165.95H99.2747V166.65H97.6047V165.95ZM90.7947 163.68H96.1247V164.36H90.7947V163.68ZM93.5047 165.1C93.9314 165.1 94.3081 165.19 94.6347 165.37C94.9681 165.55 95.2281 165.797 95.4147 166.11C95.6081 166.417 95.7047 166.773 95.7047 167.18C95.7047 167.587 95.6081 167.947 95.4147 168.26C95.2281 168.573 94.9681 168.82 94.6347 169C94.3081 169.173 93.9314 169.26 93.5047 169.26C93.0781 169.26 92.6981 169.173 92.3647 169C92.0381 168.82 91.7781 168.573 91.5847 168.26C91.3914 167.947 91.2947 167.587 91.2947 167.18C91.2947 166.773 91.3914 166.417 91.5847 166.11C91.7781 165.797 92.0381 165.55 92.3647 165.37C92.6981 165.19 93.0781 165.1 93.5047 165.1ZM93.5047 165.79C93.2314 165.79 92.9881 165.85 92.7747 165.97C92.5614 166.09 92.3914 166.253 92.2647 166.46C92.1447 166.667 92.0847 166.907 92.0847 167.18C92.0847 167.453 92.1447 167.697 92.2647 167.91C92.3914 168.117 92.5614 168.28 92.7747 168.4C92.9881 168.513 93.2314 168.57 93.5047 168.57C93.7714 168.57 94.0114 168.513 94.2247 168.4C94.4381 168.28 94.6047 168.117 94.7247 167.91C94.8514 167.697 94.9147 167.453 94.9147 167.18C94.9147 166.907 94.8514 166.667 94.7247 166.46C94.6047 166.253 94.4381 166.09 94.2247 165.97C94.0114 165.85 93.7714 165.79 93.5047 165.79ZM93.0747 162.34H93.9047V163.98H93.0747V162.34ZM106.774 165.84H108.434V166.53H106.774V165.84ZM106.164 162.23H106.994V171.27H106.164V162.23ZM100.404 163.12H101.224V168.72H100.404V163.12ZM100.404 168.29H101.124C101.784 168.29 102.461 168.26 103.154 168.2C103.854 168.14 104.577 168.033 105.324 167.88L105.424 168.58C104.651 168.733 103.911 168.84 103.204 168.9C102.504 168.953 101.811 168.98 101.124 168.98H100.404V168.29ZM112.173 162.89C112.646 162.89 113.063 162.98 113.423 163.16C113.79 163.333 114.076 163.58 114.283 163.9C114.49 164.22 114.593 164.593 114.593 165.02C114.593 165.44 114.49 165.813 114.283 166.14C114.076 166.46 113.79 166.71 113.423 166.89C113.063 167.063 112.646 167.15 112.173 167.15C111.706 167.15 111.29 167.063 110.923 166.89C110.556 166.71 110.266 166.46 110.053 166.14C109.846 165.813 109.743 165.44 109.743 165.02C109.743 164.593 109.846 164.22 110.053 163.9C110.266 163.58 110.556 163.333 110.923 163.16C111.29 162.98 111.706 162.89 112.173 162.89ZM112.173 163.61C111.866 163.61 111.59 163.67 111.343 163.79C111.103 163.903 110.913 164.067 110.773 164.28C110.633 164.493 110.563 164.74 110.563 165.02C110.563 165.3 110.633 165.547 110.773 165.76C110.913 165.973 111.103 166.14 111.343 166.26C111.59 166.373 111.866 166.43 112.173 166.43C112.486 166.43 112.763 166.373 113.003 166.26C113.243 166.14 113.433 165.973 113.573 165.76C113.713 165.547 113.783 165.3 113.783 165.02C113.783 164.74 113.713 164.493 113.573 164.28C113.433 164.067 113.243 163.903 113.003 163.79C112.763 163.67 112.486 163.61 112.173 163.61ZM115.783 162.23H116.613V171.29H115.783V162.23ZM109.403 169.31L109.293 168.61C109.846 168.61 110.453 168.607 111.113 168.6C111.773 168.587 112.453 168.56 113.153 168.52C113.86 168.473 114.54 168.4 115.193 168.3L115.263 168.91C114.583 169.037 113.893 169.13 113.193 169.19C112.5 169.243 111.83 169.277 111.183 169.29C110.536 169.303 109.943 169.31 109.403 169.31ZM123.414 166.79H124.244V168.8H123.414V166.79ZM127.424 162.24H128.254V169.11H127.424V162.24ZM122.084 170.4H128.474V171.08H122.084V170.4ZM122.084 168.44H122.914V170.58H122.084V168.44ZM120.914 167.1L120.804 166.41C121.364 166.41 121.971 166.407 122.624 166.4C123.284 166.387 123.958 166.363 124.644 166.33C125.331 166.29 125.994 166.23 126.634 166.15L126.694 166.75C126.048 166.857 125.381 166.937 124.694 166.99C124.014 167.037 123.351 167.067 122.704 167.08C122.058 167.093 121.461 167.1 120.914 167.1ZM125.584 167.58H127.644V168.18H125.584V167.58ZM123.744 162.6C124.191 162.6 124.581 162.667 124.914 162.8C125.248 162.927 125.504 163.11 125.684 163.35C125.871 163.583 125.964 163.86 125.964 164.18C125.964 164.493 125.871 164.77 125.684 165.01C125.504 165.25 125.248 165.433 124.914 165.56C124.581 165.687 124.191 165.75 123.744 165.75C123.304 165.75 122.914 165.687 122.574 165.56C122.241 165.433 121.981 165.25 121.794 165.01C121.614 164.77 121.524 164.493 121.524 164.18C121.524 163.86 121.614 163.583 121.794 163.35C121.981 163.11 122.241 162.927 122.574 162.8C122.914 162.667 123.304 162.6 123.744 162.6ZM123.744 163.22C123.318 163.22 122.971 163.307 122.704 163.48C122.438 163.653 122.304 163.887 122.304 164.18C122.304 164.467 122.438 164.697 122.704 164.87C122.971 165.043 123.318 165.13 123.744 165.13C124.164 165.13 124.508 165.043 124.774 164.87C125.041 164.697 125.174 164.467 125.174 164.18C125.174 163.98 125.114 163.81 124.994 163.67C124.874 163.53 124.708 163.42 124.494 163.34C124.281 163.26 124.031 163.22 123.744 163.22ZM131.134 162.59H131.954V163.72H136.334V162.59H137.154V166.21H131.134V162.59ZM131.954 164.38V165.54H136.334V164.38H131.954ZM130.054 167.17H138.224V167.85H130.054V167.17ZM133.724 165.81H134.554V167.47H133.724V165.81ZM131.104 170.4H137.314V171.08H131.104V170.4ZM131.104 168.57H131.934V170.63H131.104V168.57ZM147.955 168.25C148.055 168.037 148.152 167.85 148.245 167.69C148.345 167.53 148.442 167.397 148.535 167.29H142.705V166.87H148.535C148.442 166.757 148.345 166.62 148.245 166.46C148.152 166.3 148.055 166.117 147.955 165.91H148.305C148.725 166.397 149.165 166.757 149.625 166.99V167.17C149.165 167.397 148.725 167.757 148.305 168.25H147.955ZM159.983 164.968C159.983 165.362 159.896 165.713 159.72 166.022C159.547 166.332 159.324 166.589 159.051 166.794C158.764 167.009 158.444 167.172 158.089 167.282C157.734 167.39 157.363 167.443 156.976 167.443H156.131L155.633 169.582C155.626 169.611 155.621 169.642 155.618 169.675C155.615 169.707 155.613 169.735 155.613 169.758C155.613 169.829 155.626 169.893 155.652 169.948C155.678 170.004 155.73 170.048 155.809 170.08C155.857 170.103 155.955 170.124 156.102 170.144C156.251 170.163 156.385 170.174 156.502 170.178L156.429 170.5H153.455L153.528 170.178C153.61 170.171 153.725 170.16 153.875 170.144C154.025 170.127 154.134 170.106 154.202 170.08C154.319 170.035 154.407 169.969 154.466 169.885C154.528 169.797 154.57 169.696 154.593 169.582L155.76 164.533C155.766 164.504 155.771 164.471 155.774 164.436C155.781 164.4 155.784 164.366 155.784 164.333C155.784 164.265 155.771 164.203 155.745 164.147C155.719 164.092 155.67 164.05 155.599 164.021C155.494 163.981 155.384 163.952 155.267 163.933C155.149 163.913 155.042 163.9 154.944 163.894L155.018 163.571H158.099C158.655 163.571 159.108 163.697 159.456 163.947C159.808 164.195 159.983 164.535 159.983 164.968ZM158.421 166.291C158.554 166.099 158.649 165.896 158.704 165.681C158.759 165.463 158.787 165.259 158.787 165.07C158.787 164.921 158.766 164.779 158.724 164.646C158.685 164.512 158.616 164.392 158.519 164.284C158.421 164.18 158.296 164.099 158.143 164.04C157.99 163.978 157.798 163.947 157.566 163.947H156.932L156.224 167.043H156.775C157.153 167.043 157.479 166.981 157.752 166.857C158.025 166.73 158.248 166.542 158.421 166.291ZM164.339 166.369C164.339 166.46 164.326 166.561 164.3 166.672C164.274 166.779 164.236 166.869 164.188 166.94C164.129 167.028 164.064 167.097 163.992 167.146C163.924 167.191 163.825 167.214 163.694 167.214C163.519 167.214 163.387 167.17 163.299 167.082C163.211 166.994 163.167 166.896 163.167 166.789C163.167 166.688 163.191 166.576 163.24 166.452C163.289 166.325 163.34 166.2 163.392 166.076C163.353 166.076 163.287 166.088 163.196 166.11C163.108 166.13 163.001 166.171 162.874 166.232C162.747 166.294 162.602 166.387 162.439 166.511C162.28 166.634 162.109 166.799 161.927 167.004L161.141 170.5H160.232L160.945 167.336C160.962 167.258 160.984 167.141 161.014 166.984C161.046 166.828 161.062 166.713 161.062 166.638C161.062 166.455 161.032 166.333 160.97 166.271C160.908 166.21 160.784 166.179 160.599 166.179C160.527 166.179 160.436 166.192 160.325 166.218C160.215 166.241 160.128 166.26 160.066 166.276L160.14 165.964C160.394 165.85 160.618 165.765 160.813 165.71C161.009 165.655 161.176 165.627 161.316 165.627C161.577 165.627 161.762 165.699 161.873 165.842C161.984 165.982 162.039 166.193 162.039 166.477H162.068C162.456 166.141 162.749 165.907 162.947 165.773C163.149 165.64 163.359 165.573 163.577 165.573C163.681 165.573 163.782 165.586 163.88 165.612C163.978 165.638 164.061 165.682 164.129 165.744C164.201 165.812 164.253 165.892 164.285 165.983C164.321 166.071 164.339 166.2 164.339 166.369ZM169.344 167.492C169.344 167.876 169.279 168.26 169.148 168.645C169.018 169.029 168.829 169.366 168.582 169.655C168.331 169.955 168.029 170.196 167.674 170.378C167.322 170.557 166.914 170.646 166.448 170.646C165.908 170.646 165.468 170.472 165.13 170.124C164.795 169.776 164.627 169.307 164.627 168.718C164.627 168.285 164.699 167.881 164.842 167.507C164.985 167.132 165.177 166.804 165.418 166.521C165.662 166.237 165.963 166.009 166.321 165.837C166.683 165.661 167.073 165.573 167.493 165.573C168.073 165.573 168.525 165.751 168.851 166.105C169.179 166.457 169.344 166.919 169.344 167.492ZM168.348 167.307C168.348 166.844 168.265 166.498 168.099 166.267C167.936 166.035 167.7 165.92 167.391 165.92C167.12 165.92 166.865 166.003 166.624 166.169C166.386 166.335 166.181 166.605 166.009 166.979C165.875 167.263 165.778 167.578 165.716 167.927C165.654 168.272 165.623 168.591 165.623 168.884C165.623 169.349 165.703 169.702 165.862 169.943C166.025 170.181 166.269 170.3 166.595 170.3C166.884 170.3 167.142 170.209 167.366 170.026C167.591 169.844 167.773 169.613 167.913 169.333C168.053 169.06 168.16 168.747 168.235 168.396C168.31 168.041 168.348 167.678 168.348 167.307ZM175.11 167.438C175.11 167.875 175.034 168.288 174.881 168.679C174.728 169.069 174.524 169.408 174.271 169.694C173.987 170.01 173.68 170.244 173.348 170.397C173.019 170.55 172.68 170.627 172.332 170.627C172.052 170.627 171.823 170.593 171.644 170.524C171.465 170.456 171.305 170.371 171.165 170.271L170.882 171.55C170.862 171.631 170.846 171.708 170.833 171.779C170.823 171.851 170.818 171.908 170.818 171.95C170.818 172.038 170.849 172.108 170.911 172.16C170.976 172.212 171.049 172.25 171.131 172.272C171.212 172.299 171.303 172.318 171.404 172.331C171.505 172.344 171.596 172.354 171.678 172.36L171.609 172.668H168.919L168.987 172.36C169.091 172.354 169.189 172.346 169.28 172.336C169.371 172.326 169.458 172.31 169.539 172.287C169.64 172.258 169.72 172.202 169.778 172.121C169.84 172.043 169.884 171.945 169.91 171.828L170.931 167.336C170.957 167.212 170.981 167.089 171.004 166.965C171.027 166.838 171.038 166.729 171.038 166.638C171.038 166.455 171.009 166.333 170.95 166.271C170.895 166.21 170.773 166.179 170.584 166.179C170.512 166.179 170.421 166.193 170.311 166.223C170.2 166.249 170.114 166.27 170.052 166.286L170.125 165.974C170.372 165.863 170.595 165.778 170.794 165.72C170.993 165.658 171.162 165.627 171.302 165.627C171.53 165.627 171.702 165.686 171.819 165.803C171.937 165.917 172.01 166.076 172.039 166.281H172.078C172.299 166.076 172.535 165.907 172.786 165.773C173.04 165.64 173.292 165.573 173.543 165.573C174.038 165.573 174.422 165.743 174.695 166.081C174.972 166.416 175.11 166.869 175.11 167.438ZM173.587 169.455C173.753 169.188 173.88 168.885 173.968 168.547C174.059 168.205 174.104 167.844 174.104 167.463C174.104 167.29 174.088 167.118 174.056 166.945C174.026 166.77 173.978 166.625 173.909 166.511C173.838 166.384 173.74 166.286 173.616 166.218C173.493 166.146 173.33 166.11 173.128 166.11C172.978 166.11 172.812 166.156 172.63 166.247C172.451 166.338 172.231 166.509 171.971 166.76L171.346 169.528C171.368 169.714 171.468 169.888 171.644 170.051C171.823 170.21 172.037 170.29 172.288 170.29C172.545 170.29 172.786 170.215 173.011 170.065C173.235 169.916 173.427 169.712 173.587 169.455ZM179.974 166.589C179.974 166.934 179.865 167.23 179.646 167.478C179.432 167.725 179.118 167.922 178.704 168.068C178.401 168.179 178.095 168.269 177.786 168.337C177.477 168.405 177.135 168.462 176.761 168.508C176.761 169.022 176.855 169.416 177.044 169.689C177.236 169.96 177.516 170.095 177.884 170.095C178.209 170.095 178.496 170.013 178.743 169.851C178.994 169.688 179.24 169.445 179.48 169.123L179.759 169.328C179.498 169.725 179.173 170.043 178.782 170.28C178.392 170.518 177.986 170.637 177.566 170.637C176.99 170.637 176.549 170.476 176.243 170.153C175.94 169.831 175.789 169.374 175.789 168.781C175.789 168.371 175.853 167.98 175.979 167.609C176.11 167.235 176.299 166.893 176.546 166.584C176.787 166.281 177.081 166.037 177.43 165.852C177.781 165.666 178.169 165.573 178.592 165.573C179.061 165.573 179.407 165.669 179.632 165.861C179.86 166.05 179.974 166.293 179.974 166.589ZM179.075 166.467C179.075 166.34 179.057 166.241 179.021 166.169C178.986 166.094 178.94 166.039 178.885 166.003C178.826 165.964 178.764 165.939 178.699 165.93C178.634 165.92 178.567 165.915 178.499 165.915C178.108 165.915 177.747 166.13 177.415 166.56C177.086 166.989 176.878 167.525 176.79 168.166C177.018 168.133 177.275 168.088 177.562 168.029C177.848 167.967 178.086 167.888 178.274 167.79C178.545 167.65 178.745 167.471 178.875 167.253C179.008 167.032 179.075 166.77 179.075 166.467ZM184.827 166.369C184.827 166.46 184.814 166.561 184.788 166.672C184.762 166.779 184.725 166.869 184.676 166.94C184.617 167.028 184.552 167.097 184.48 167.146C184.412 167.191 184.313 167.214 184.183 167.214C184.007 167.214 183.875 167.17 183.787 167.082C183.699 166.994 183.655 166.896 183.655 166.789C183.655 166.688 183.68 166.576 183.729 166.452C183.777 166.325 183.828 166.2 183.88 166.076C183.841 166.076 183.776 166.088 183.685 166.11C183.597 166.13 183.489 166.171 183.362 166.232C183.235 166.294 183.09 166.387 182.928 166.511C182.768 166.634 182.597 166.799 182.415 167.004L181.629 170.5H180.721L181.434 167.336C181.45 167.258 181.473 167.141 181.502 166.984C181.535 166.828 181.551 166.713 181.551 166.638C181.551 166.455 181.52 166.333 181.458 166.271C181.396 166.21 181.272 166.179 181.087 166.179C181.015 166.179 180.924 166.192 180.813 166.218C180.703 166.241 180.617 166.26 180.555 166.276L180.628 165.964C180.882 165.85 181.106 165.765 181.302 165.71C181.497 165.655 181.665 165.627 181.805 165.627C182.065 165.627 182.251 165.699 182.361 165.842C182.472 165.982 182.527 166.193 182.527 166.477H182.557C182.944 166.141 183.237 165.907 183.436 165.773C183.637 165.64 183.847 165.573 184.065 165.573C184.17 165.573 184.271 165.586 184.368 165.612C184.466 165.638 184.549 165.682 184.617 165.744C184.689 165.812 184.741 165.892 184.773 165.983C184.809 166.071 184.827 166.2 184.827 166.369ZM186.268 170.603C185.958 170.603 185.732 170.541 185.589 170.417C185.446 170.29 185.374 170.109 185.374 169.875C185.374 169.8 185.379 169.73 185.389 169.665C185.398 169.597 185.411 169.52 185.428 169.436L186.185 166.174H185.315L185.418 165.729H186.307L186.648 164.299H187.527L187.195 165.729H188.558L188.455 166.174H187.103L186.478 168.864C186.448 168.988 186.424 169.108 186.404 169.226C186.385 169.34 186.375 169.437 186.375 169.519C186.375 169.698 186.419 169.829 186.507 169.914C186.598 169.995 186.761 170.036 186.995 170.036C187.08 170.036 187.199 170.026 187.352 170.007C187.505 169.984 187.623 169.956 187.708 169.924L187.625 170.28C187.397 170.368 187.182 170.443 186.98 170.505C186.779 170.57 186.541 170.603 186.268 170.603ZM190.955 169.968L190.882 170.28C190.582 170.401 190.343 170.484 190.164 170.529C189.985 170.578 189.832 170.603 189.705 170.603C189.445 170.603 189.249 170.536 189.119 170.402C188.989 170.266 188.924 170.098 188.924 169.899C188.924 169.825 188.93 169.746 188.943 169.665C188.956 169.584 188.978 169.481 189.007 169.357L189.524 167.282C189.55 167.168 189.575 167.046 189.598 166.916C189.624 166.786 189.637 166.675 189.637 166.584C189.637 166.402 189.606 166.281 189.544 166.223C189.485 166.161 189.363 166.13 189.178 166.13C189.106 166.13 189.01 166.141 188.89 166.164C188.772 166.187 188.683 166.206 188.621 166.223L188.694 165.91C188.948 165.796 189.176 165.712 189.378 165.656C189.58 165.601 189.739 165.573 189.856 165.573C190.123 165.573 190.317 165.637 190.438 165.764C190.558 165.891 190.618 166.062 190.618 166.276C190.618 166.335 190.612 166.415 190.599 166.516C190.586 166.617 190.566 166.717 190.54 166.818L190.018 168.894C189.985 169.021 189.956 169.146 189.93 169.27C189.907 169.39 189.896 169.489 189.896 169.567C189.896 169.753 189.936 169.88 190.018 169.948C190.102 170.017 190.237 170.051 190.423 170.051C190.485 170.051 190.573 170.043 190.687 170.026C190.804 170.01 190.893 169.991 190.955 169.968ZM191.302 163.728C191.302 163.913 191.242 164.076 191.121 164.216C191.001 164.353 190.851 164.421 190.672 164.421C190.506 164.421 190.363 164.356 190.242 164.226C190.122 164.092 190.062 163.941 190.062 163.771C190.062 163.592 190.122 163.436 190.242 163.303C190.363 163.169 190.506 163.103 190.672 163.103C190.857 163.103 191.009 163.166 191.126 163.293C191.243 163.417 191.302 163.562 191.302 163.728ZM195.765 166.589C195.765 166.934 195.656 167.23 195.438 167.478C195.223 167.725 194.909 167.922 194.495 168.068C194.192 168.179 193.886 168.269 193.577 168.337C193.268 168.405 192.926 168.462 192.552 168.508C192.552 169.022 192.646 169.416 192.835 169.689C193.027 169.96 193.307 170.095 193.675 170.095C194 170.095 194.287 170.013 194.534 169.851C194.785 169.688 195.031 169.445 195.271 169.123L195.55 169.328C195.289 169.725 194.964 170.043 194.573 170.28C194.183 170.518 193.777 170.637 193.357 170.637C192.781 170.637 192.34 170.476 192.034 170.153C191.731 169.831 191.58 169.374 191.58 168.781C191.58 168.371 191.644 167.98 191.771 167.609C191.901 167.235 192.09 166.893 192.337 166.584C192.578 166.281 192.872 166.037 193.221 165.852C193.572 165.666 193.96 165.573 194.383 165.573C194.852 165.573 195.198 165.669 195.423 165.861C195.651 166.05 195.765 166.293 195.765 166.589ZM194.866 166.467C194.866 166.34 194.848 166.241 194.812 166.169C194.777 166.094 194.731 166.039 194.676 166.003C194.617 165.964 194.555 165.939 194.49 165.93C194.425 165.92 194.358 165.915 194.29 165.915C193.899 165.915 193.538 166.13 193.206 166.56C192.877 166.989 192.669 167.525 192.581 168.166C192.809 168.133 193.066 168.088 193.353 168.029C193.639 167.967 193.877 167.888 194.065 167.79C194.336 167.65 194.536 167.471 194.666 167.253C194.799 167.032 194.866 166.77 194.866 166.467ZM197.728 170.642C197.246 170.642 196.844 170.557 196.521 170.388C196.202 170.215 196.043 169.991 196.043 169.714C196.043 169.584 196.09 169.462 196.185 169.348C196.279 169.234 196.395 169.177 196.531 169.177C196.661 169.177 196.766 169.208 196.844 169.27C196.925 169.328 196.989 169.398 197.034 169.479C197.083 169.564 197.125 169.665 197.161 169.782C197.2 169.899 197.233 169.995 197.259 170.07C197.308 170.126 197.374 170.178 197.459 170.227C197.547 170.272 197.672 170.295 197.835 170.295C198.187 170.295 198.452 170.207 198.631 170.031C198.813 169.855 198.904 169.618 198.904 169.318C198.904 169.097 198.82 168.921 198.65 168.791C198.481 168.658 198.229 168.535 197.894 168.425C197.773 168.386 197.632 168.327 197.469 168.249C197.306 168.168 197.176 168.081 197.078 167.99C196.961 167.886 196.867 167.762 196.795 167.619C196.723 167.476 196.688 167.307 196.688 167.111C196.688 166.695 196.873 166.335 197.244 166.032C197.618 165.726 198.077 165.573 198.621 165.573C198.748 165.573 198.885 165.58 199.031 165.593C199.178 165.606 199.339 165.642 199.515 165.7C199.668 165.752 199.798 165.83 199.905 165.935C200.013 166.035 200.066 166.167 200.066 166.33C200.066 166.464 200.021 166.586 199.93 166.696C199.842 166.804 199.725 166.857 199.578 166.857C199.458 166.857 199.358 166.831 199.28 166.779C199.202 166.727 199.137 166.657 199.085 166.569C199.033 166.481 198.991 166.387 198.958 166.286C198.925 166.185 198.89 166.086 198.851 165.988C198.789 165.962 198.733 165.944 198.685 165.935C198.636 165.925 198.571 165.92 198.489 165.92C198.17 165.92 197.928 166.006 197.762 166.179C197.599 166.348 197.518 166.55 197.518 166.784C197.518 167.012 197.591 167.185 197.737 167.302C197.887 167.416 198.133 167.535 198.475 167.658C198.917 167.818 199.238 168 199.437 168.205C199.638 168.41 199.739 168.664 199.739 168.967C199.739 169.462 199.549 169.865 199.168 170.178C198.787 170.487 198.307 170.642 197.728 170.642ZM200.776 169.47H208.976V170.16H200.776V169.47ZM204.446 167.54H205.266V169.76H204.446V167.54ZM201.776 162.9H207.956V165.64H202.616V167.45H201.796V164.98H207.136V163.58H201.776V162.9ZM201.796 167.1H208.166V167.78H201.796V167.1ZM216.048 162.55H216.778V163.06C216.778 163.407 216.711 163.733 216.578 164.04C216.444 164.34 216.261 164.617 216.028 164.87C215.801 165.123 215.534 165.35 215.228 165.55C214.921 165.75 214.588 165.917 214.228 166.05C213.874 166.183 213.511 166.28 213.138 166.34L212.798 165.67C213.131 165.623 213.454 165.543 213.768 165.43C214.088 165.317 214.384 165.18 214.658 165.02C214.931 164.853 215.171 164.667 215.378 164.46C215.591 164.253 215.754 164.033 215.868 163.8C215.988 163.56 216.048 163.313 216.048 163.06V162.55ZM216.188 162.55H216.908V163.06C216.908 163.313 216.968 163.557 217.088 163.79C217.208 164.023 217.371 164.243 217.578 164.45C217.791 164.657 218.034 164.843 218.308 165.01C218.581 165.177 218.874 165.317 219.188 165.43C219.508 165.543 219.831 165.623 220.158 165.67L219.828 166.34C219.454 166.28 219.091 166.183 218.738 166.05C218.384 165.91 218.051 165.74 217.738 165.54C217.431 165.34 217.161 165.113 216.928 164.86C216.701 164.607 216.521 164.33 216.388 164.03C216.254 163.723 216.188 163.4 216.188 163.06V162.55ZM216.048 167.84H216.868V171.28H216.048V167.84ZM212.388 167.32H220.558V168.01H212.388V167.32ZM223.937 162.53H224.627V163.38C224.627 163.933 224.52 164.45 224.307 164.93C224.094 165.41 223.794 165.83 223.407 166.19C223.02 166.55 222.57 166.82 222.057 167L221.637 166.34C221.984 166.22 222.297 166.06 222.577 165.86C222.857 165.66 223.097 165.43 223.297 165.17C223.504 164.91 223.66 164.627 223.767 164.32C223.88 164.013 223.937 163.7 223.937 163.38V162.53ZM224.087 162.53H224.777V163.38C224.777 163.687 224.83 163.987 224.937 164.28C225.05 164.567 225.207 164.833 225.407 165.08C225.614 165.327 225.857 165.543 226.137 165.73C226.417 165.917 226.724 166.067 227.057 166.18L226.657 166.83C226.277 166.703 225.93 166.53 225.617 166.31C225.304 166.083 225.034 165.82 224.807 165.52C224.58 165.213 224.404 164.88 224.277 164.52C224.15 164.16 224.087 163.78 224.087 163.38V162.53ZM228.167 162.23H228.997V167.09H228.167V162.23ZM223.177 167.54H223.987V168.63H228.177V167.54H228.997V171.16H223.177V167.54ZM223.987 169.29V170.48H228.177V169.29H223.987ZM239.318 162.23H240.148V171.27H239.318V162.23ZM239.928 165.9H241.588V166.59H239.928V165.9ZM237.008 163.2H237.818C237.818 164.06 237.678 164.883 237.398 165.67C237.118 166.45 236.678 167.173 236.078 167.84C235.478 168.5 234.688 169.073 233.708 169.56L233.248 168.92C234.088 168.5 234.785 168.01 235.338 167.45C235.898 166.883 236.315 166.257 236.588 165.57C236.868 164.877 237.008 164.13 237.008 163.33V163.2ZM233.668 163.2H237.428V163.89H233.668V163.2ZM244.787 163.53H245.467V164.99C245.467 165.47 245.401 165.943 245.267 166.41C245.134 166.87 244.947 167.307 244.707 167.72C244.474 168.127 244.201 168.487 243.887 168.8C243.574 169.113 243.237 169.36 242.877 169.54L242.397 168.88C242.724 168.72 243.031 168.503 243.317 168.23C243.611 167.957 243.867 167.643 244.087 167.29C244.307 166.937 244.477 166.563 244.597 166.17C244.724 165.777 244.787 165.383 244.787 164.99V163.53ZM244.957 163.53H245.627V164.99C245.627 165.37 245.687 165.75 245.807 166.13C245.934 166.503 246.107 166.857 246.327 167.19C246.554 167.517 246.811 167.807 247.097 168.06C247.391 168.313 247.704 168.513 248.037 168.66L247.577 169.32C247.211 169.147 246.867 168.913 246.547 168.62C246.227 168.327 245.947 167.99 245.707 167.61C245.474 167.223 245.291 166.81 245.157 166.37C245.024 165.923 244.957 165.463 244.957 164.99V163.53ZM242.687 163.16H247.737V163.85H242.687V163.16ZM248.967 162.23H249.797V171.28H248.967V162.23ZM258.329 163.89H260.929V164.57H258.329V163.89ZM258.329 165.84H260.949V166.52H258.329V165.84ZM260.619 162.24H261.449V168.93H260.619V162.24ZM255.639 170.4H261.659V171.08H255.639V170.4ZM255.639 168.28H256.469V170.74H255.639V168.28ZM254.449 162.84H255.279V164.43H257.719V162.84H258.539V167.39H254.449V162.84ZM255.279 165.08V166.72H257.719V165.08H255.279ZM268.288 164.4H270.138V165.08H268.288V164.4ZM268.278 166.16H270.118V166.84H268.278V166.16ZM263.218 163.23H268.288V163.9H263.218V163.23ZM265.778 164.36C266.185 164.36 266.541 164.43 266.848 164.57C267.155 164.71 267.395 164.907 267.568 165.16C267.741 165.407 267.828 165.7 267.828 166.04C267.828 166.373 267.741 166.667 267.568 166.92C267.395 167.167 267.155 167.36 266.848 167.5C266.541 167.64 266.185 167.71 265.778 167.71C265.378 167.71 265.025 167.64 264.718 167.5C264.411 167.36 264.171 167.167 263.998 166.92C263.825 166.667 263.738 166.373 263.738 166.04C263.738 165.7 263.825 165.407 263.998 165.16C264.171 164.907 264.411 164.71 264.718 164.57C265.025 164.43 265.378 164.36 265.778 164.36ZM265.778 165C265.398 165 265.091 165.093 264.858 165.28C264.631 165.467 264.518 165.72 264.518 166.04C264.518 166.353 264.631 166.607 264.858 166.8C265.091 166.987 265.398 167.08 265.778 167.08C266.158 167.08 266.465 166.987 266.698 166.8C266.938 166.607 267.058 166.353 267.058 166.04C267.058 165.72 266.938 165.467 266.698 165.28C266.465 165.093 266.158 165 265.778 165ZM265.378 162.15H266.198V163.69H265.378V162.15ZM269.818 162.23H270.648V168.07H269.818V162.23ZM267.688 168.17C268.315 168.17 268.851 168.23 269.298 168.35C269.745 168.47 270.088 168.647 270.328 168.88C270.575 169.113 270.698 169.393 270.698 169.72C270.698 170.04 270.575 170.317 270.328 170.55C270.088 170.783 269.745 170.96 269.298 171.08C268.851 171.2 268.315 171.26 267.688 171.26C267.061 171.26 266.521 171.2 266.068 171.08C265.621 170.96 265.275 170.783 265.028 170.55C264.788 170.317 264.668 170.04 264.668 169.72C264.668 169.393 264.788 169.113 265.028 168.88C265.275 168.647 265.621 168.47 266.068 168.35C266.521 168.23 267.061 168.17 267.688 168.17ZM267.688 168.82C267.021 168.82 266.495 168.897 266.108 169.05C265.721 169.203 265.528 169.427 265.528 169.72C265.528 170 265.721 170.22 266.108 170.38C266.495 170.54 267.021 170.62 267.688 170.62C268.348 170.62 268.868 170.54 269.248 170.38C269.635 170.22 269.828 170 269.828 169.72C269.828 169.427 269.635 169.203 269.248 169.05C268.868 168.897 268.348 168.82 267.688 168.82ZM281.699 162.23H282.489V171.28H281.699V162.23ZM278.399 165.48H280.139V166.16H278.399V165.48ZM279.889 162.44H280.669V170.81H279.889V162.44ZM276.669 163.64H277.309V164.79C277.309 165.283 277.263 165.767 277.169 166.24C277.076 166.707 276.939 167.147 276.759 167.56C276.579 167.967 276.359 168.337 276.099 168.67C275.839 168.997 275.546 169.263 275.219 169.47L274.709 168.85C275.129 168.597 275.483 168.257 275.769 167.83C276.063 167.403 276.286 166.927 276.439 166.4C276.593 165.873 276.669 165.337 276.669 164.79V163.64ZM276.839 163.64H277.469V164.79C277.469 165.31 277.543 165.82 277.689 166.32C277.843 166.82 278.059 167.273 278.339 167.68C278.626 168.08 278.976 168.4 279.389 168.64L278.889 169.26C278.449 168.987 278.076 168.623 277.769 168.17C277.469 167.71 277.239 167.19 277.079 166.61C276.919 166.023 276.839 165.417 276.839 164.79V163.64ZM274.959 163.29H279.089V163.97H274.959V163.29ZM286.429 162.93C286.869 162.93 287.259 163.06 287.599 163.32C287.939 163.573 288.202 163.937 288.389 164.41C288.582 164.883 288.679 165.44 288.679 166.08C288.679 166.72 288.582 167.277 288.389 167.75C288.202 168.223 287.939 168.59 287.599 168.85C287.259 169.11 286.869 169.24 286.429 169.24C285.995 169.24 285.605 169.11 285.259 168.85C284.919 168.59 284.652 168.223 284.459 167.75C284.272 167.277 284.179 166.72 284.179 166.08C284.179 165.44 284.272 164.883 284.459 164.41C284.652 163.937 284.919 163.573 285.259 163.32C285.605 163.06 285.995 162.93 286.429 162.93ZM286.429 163.67C286.142 163.67 285.889 163.77 285.669 163.97C285.449 164.163 285.275 164.443 285.149 164.81C285.029 165.17 284.969 165.593 284.969 166.08C284.969 166.567 285.029 166.993 285.149 167.36C285.275 167.72 285.449 168 285.669 168.2C285.889 168.4 286.142 168.5 286.429 168.5C286.722 168.5 286.979 168.4 287.199 168.2C287.419 168 287.589 167.72 287.709 167.36C287.835 166.993 287.899 166.567 287.899 166.08C287.899 165.593 287.835 165.17 287.709 164.81C287.589 164.443 287.419 164.163 287.199 163.97C286.979 163.77 286.722 163.67 286.429 163.67ZM290.639 162.23H291.459V171.29H290.639V162.23ZM288.409 165.68H291.009V166.35H288.409V165.68Z" fill="#9A9090"/>
<defs>
<linearGradient id="paint0_linear_546_10408" x1="0.5" y1="0.5" x2="143.107" y2="298.183" gradientUnits="userSpaceOnUse">
<stop stop-color="#F3F3F3"/>
<stop offset="1" stop-color="#EBEBEB"/>
</linearGradient>
</defs>
</svg>
