<svg width="383" height="161" viewBox="0 0 383 161" fill="none" xmlns="http://www.w3.org/2000/svg">
<path d="M374.5 0.5H8.5C4.08172 0.5 0.5 4.08172 0.5 8.5V152.5C0.5 156.918 4.08172 160.5 8.5 160.5H374.5C378.918 160.5 382.5 156.918 382.5 152.5V8.5C382.5 4.08172 378.918 0.5 374.5 0.5Z" fill="url(#paint0_linear_546_10160)" stroke="#E2E2E2"/>
<path d="M31.4629 80.5H151.463" stroke="#D0D0D0" stroke-width="1.5" stroke-linecap="round"/>
<path opacity="0.8" d="M31.4941 86.5C34.8078 86.5 37.4941 83.8137 37.4941 80.5C37.4941 77.1863 34.8078 74.5 31.4941 74.5C28.1804 74.5 25.4941 77.1863 25.4941 80.5C25.4941 83.8137 28.1804 86.5 31.4941 86.5Z" fill="#C4876A"/>
<path opacity="0.6" d="M31.4629 60.5V90.5" stroke="#C4876A" stroke-width="1.5" stroke-dasharray="2 2"/>
<path d="M12.2065 48.1367H13.1558L15.3003 53.375H15.3794L17.5239 48.1367H18.4731V54.5H17.7261V49.6924H17.6646L15.687 54.5H14.9839L13.0063 49.6924H12.9536V54.5H12.2065V48.1367ZM19.7827 54.5V49.7275H20.5386V54.5H19.7827ZM20.1606 48.9365C19.8706 48.9365 19.6333 48.7168 19.6333 48.4355C19.6333 48.1543 19.8706 47.9346 20.1606 47.9346C20.4507 47.9346 20.6968 48.1543 20.6968 48.4355C20.6968 48.7168 20.4507 48.9365 20.1606 48.9365ZM22.4985 51.6348V54.5H21.7427V49.7275H22.4722V50.4746H22.5337C22.7622 49.9912 23.2017 49.666 23.9312 49.666C24.898 49.666 25.5396 50.2549 25.5396 51.4678V54.5H24.7837V51.5205C24.7837 50.7822 24.3794 50.3428 23.7026 50.3428C23.0083 50.3428 22.4985 50.8086 22.4985 51.6348ZM27.2886 54.5527C26.981 54.5527 26.7173 54.2979 26.7261 53.9814C26.7173 53.6738 26.981 53.4189 27.2886 53.4189C27.5962 53.4189 27.8511 53.6738 27.8511 53.9814C27.8511 54.2979 27.5962 54.5527 27.2886 54.5527ZM27.2886 51.0195C26.981 51.0195 26.7173 50.7646 26.7261 50.4482C26.7173 50.1406 26.981 49.8857 27.2886 49.8857C27.5962 49.8857 27.8511 50.1406 27.8511 50.4482C27.8511 50.7646 27.5962 51.0195 27.2886 51.0195ZM33.4146 54.5879C32.0786 54.5879 31.147 53.8496 31.1558 52.8125C31.147 51.9863 31.7183 51.3096 32.4478 51.1953V51.1602C31.8149 51.0107 31.4019 50.4307 31.4019 49.7363C31.4019 48.7607 32.2544 48.0488 33.4146 48.0488C34.5747 48.0488 35.4272 48.7607 35.436 49.7363C35.4272 50.4307 35.0054 51.0107 34.3813 51.1602V51.1953C35.1021 51.3096 35.6733 51.9863 35.6821 52.8125C35.6733 53.8496 34.7417 54.5879 33.4146 54.5879ZM33.4146 53.8936C34.3286 53.8936 34.8911 53.4365 34.8911 52.7686C34.8911 52.0654 34.2671 51.5469 33.4146 51.5469C32.562 51.5469 31.9292 52.0654 31.9468 52.7686C31.9292 53.4365 32.5005 53.8936 33.4146 53.8936ZM33.4146 50.8789C34.1353 50.8789 34.6626 50.4395 34.6626 49.7979C34.6626 49.165 34.1616 48.7344 33.4146 48.7344C32.6587 48.7344 32.1665 49.165 32.1665 49.7979C32.1665 50.4395 32.6851 50.8789 33.4146 50.8789ZM38.8286 54.5879C37.4136 54.5879 36.605 53.4014 36.605 51.3184C36.605 49.2529 37.4312 48.0488 38.8286 48.0488C40.2261 48.0488 41.0522 49.2529 41.0522 51.3184C41.0522 53.4014 40.2349 54.5879 38.8286 54.5879ZM38.8286 53.8848C39.7427 53.8848 40.2788 52.9619 40.2788 51.3184C40.2788 49.6748 39.7427 48.7344 38.8286 48.7344C37.9146 48.7344 37.3696 49.6748 37.3696 51.3184C37.3696 52.9619 37.9058 53.8848 38.8286 53.8848ZM42.1157 56.293V49.7275H42.8452V50.4834H42.9331C43.0913 50.2285 43.3901 49.666 44.313 49.666C45.5083 49.666 46.3433 50.6152 46.3433 52.127C46.3433 53.6387 45.5083 54.5967 44.3218 54.5967C43.4077 54.5967 43.0913 54.0342 42.9331 53.7705H42.8716V56.293H42.1157ZM42.854 52.1094C42.854 53.1816 43.3374 53.9199 44.2163 53.9199C45.1216 53.9199 45.5874 53.1289 45.5874 52.1094C45.5874 51.1162 45.1304 50.3428 44.2163 50.3428C43.3198 50.3428 42.854 51.0547 42.854 52.1094ZM47.6968 49.7275L48.8218 51.6699L49.9556 49.7275H50.8257L49.2876 52.1094L50.8257 54.5H49.9644L48.8218 52.6543L47.6968 54.5H46.8267L48.3296 52.1094L46.8267 49.7275H47.6968Z" fill="#C4876A"/>
<path opacity="0.9" d="M91.3164 88.5C95.7347 88.5 99.3164 84.9183 99.3164 80.5C99.3164 76.0817 95.7347 72.5 91.3164 72.5C86.8981 72.5 83.3164 76.0817 83.3164 80.5C83.3164 84.9183 86.8981 88.5 91.3164 88.5Z" fill="#D4A853"/>
<path d="M87.2461 91.1953V96.4922H86.6289V95H85.4258V94.5H86.6289V93.5547H85.4258V93.0469H86.6289V91.1953H87.2461ZM85.4258 92.0469V92.5469H81.4961V92.0469H83.1836V91.1875H83.793V92.0469H85.4258ZM83.4805 92.9297C84.4102 92.9297 85.0664 93.4609 85.0664 94.2578C85.0664 95.0469 84.4102 95.5859 83.4805 95.5859C82.5508 95.5859 81.9023 95.0469 81.9102 94.2578C81.9023 93.4609 82.5508 92.9297 83.4805 92.9297ZM83.4805 93.4141C82.8867 93.4219 82.4805 93.7578 82.4805 94.2578C82.4805 94.7578 82.8867 95.0938 83.4805 95.0938C84.0742 95.0938 84.4805 94.7578 84.4883 94.2578C84.4805 93.7578 84.0742 93.4219 83.4805 93.4141ZM87.4023 97.4688V97.9844H82.7539V96.0234H83.3711V97.4688H87.4023ZM94.3711 91.1875V98.1328H93.7773V94.5234H92.832V97.7812H92.2461V91.3359H92.832V94H93.7773V91.1875H94.3711ZM90.457 93.0859C90.457 94.3594 90.9805 95.4766 91.9727 95.9844L91.6055 96.4609C90.9023 96.0781 90.4219 95.3906 90.1758 94.5391C89.9375 95.5078 89.4492 96.2656 88.7148 96.6953L88.332 96.2266C89.332 95.6797 89.8633 94.4922 89.8633 93.0859V92.5312H88.4961V92.0156H91.7461V92.5312H90.457V93.0859ZM100.746 91.1875V92.7891H101.793V93.3125H100.746V94.9609H100.137V91.1875H100.746ZM98.8555 91.6094C98.8555 93.3516 97.6133 94.5312 95.5664 95.0391L95.332 94.5312C97.0508 94.1172 98.0703 93.2383 98.1836 92.1172H95.6445V91.6094H98.8555ZM96.6602 95.3203V96.1641H97.9102V95.3203H98.4805V98.0391H96.0898V95.3203H96.6602ZM96.6602 97.5469H97.9102V96.6406H96.6602V97.5469ZM100.34 95.8125C100.34 96.5 100.746 97.2812 101.551 97.6328L101.223 98.1016C100.641 97.8359 100.254 97.3594 100.051 96.8125C99.8359 97.3555 99.4414 97.8359 98.8555 98.1016L98.5195 97.6328C99.3398 97.2734 99.7461 96.5 99.7539 95.8359V95.25H100.34V95.8125Z" fill="#5F5E5E"/>
<path opacity="0.8" d="M151.615 86.5C154.929 86.5 157.615 83.8137 157.615 80.5C157.615 77.1863 154.929 74.5 151.615 74.5C148.302 74.5 145.615 77.1863 145.615 80.5C145.615 83.8137 148.302 86.5 151.615 86.5Z" fill="#8FAF8A"/>
<path opacity="0.6" d="M151.584 60.5V90.5" stroke="#8FAF8A" stroke-width="1.5" stroke-dasharray="2 2"/>
<path d="M128.304 48.1367H129.253L131.398 53.375H131.477L133.622 48.1367H134.571V54.5H133.824V49.6924H133.762L131.785 54.5H131.082L129.104 49.6924H129.051V54.5H128.304V48.1367ZM135.652 53.1465C135.652 52.0479 136.619 51.8018 137.445 51.7402C137.748 51.7183 138.521 51.6787 138.737 51.6699V51.2832C138.737 50.6768 138.376 50.3252 137.656 50.3252C137.049 50.3252 136.689 50.6064 136.583 50.9668H135.792C135.889 50.2021 136.636 49.666 137.691 49.666C138.315 49.666 139.484 49.8506 139.484 51.3535V54.5H138.737V53.8496H138.702C138.543 54.1748 138.104 54.6143 137.278 54.6143C136.373 54.6143 135.652 54.0781 135.652 53.1465ZM136.408 53.1816C136.408 53.6826 136.83 53.9375 137.41 53.9375C138.262 53.9375 138.737 53.3662 138.737 52.7686V52.2852L137.533 52.373C136.847 52.417 136.408 52.6631 136.408 53.1816ZM141.268 49.7275L142.393 51.6699L143.527 49.7275H144.397L142.859 52.1094L144.397 54.5H143.536L142.393 52.6543L141.268 54.5H140.398L141.901 52.1094L140.398 49.7275H141.268ZM145.847 54.5527C145.54 54.5527 145.276 54.2979 145.285 53.9814C145.276 53.6738 145.54 53.4189 145.847 53.4189C146.155 53.4189 146.41 53.6738 146.41 53.9814C146.41 54.2979 146.155 54.5527 145.847 54.5527ZM145.847 51.0195C145.54 51.0195 145.276 50.7646 145.285 50.4482C145.276 50.1406 145.54 49.8857 145.847 49.8857C146.155 49.8857 146.41 50.1406 146.41 50.4482C146.41 50.7646 146.155 51.0195 145.847 51.0195ZM152.043 54.5879C150.778 54.5879 149.873 53.9111 149.829 52.9004H150.628C150.672 53.5068 151.279 53.8848 152.035 53.8848C152.87 53.8848 153.485 53.4277 153.485 52.7686C153.485 52.0742 152.931 51.582 151.938 51.582H151.419V50.8877H151.938C152.711 50.8877 153.248 50.457 153.248 49.7979C153.248 49.165 152.782 48.7344 152.061 48.7344C151.384 48.7344 150.76 49.1123 150.725 49.7363H149.96C150.004 48.7256 150.936 48.0488 152.07 48.0488C153.283 48.0488 154.021 48.8398 154.012 49.7539C154.021 50.4746 153.599 51.0107 152.931 51.1953V51.2393C153.757 51.3711 154.267 51.96 154.258 52.7686C154.267 53.8145 153.309 54.5879 152.043 54.5879ZM155.401 54.5L155.392 53.9199L157.563 51.6348C158.319 50.835 158.679 50.4043 158.679 49.8154C158.679 49.165 158.125 48.7344 157.414 48.7344C156.658 48.7344 156.174 49.2178 156.174 49.9297H155.427C155.418 48.8047 156.289 48.0488 157.44 48.0488C158.591 48.0488 159.417 48.8223 159.417 49.8154C159.417 50.5273 159.083 51.0811 157.958 52.2412L156.5 53.7441V53.7969H159.532V54.5H155.401ZM162.766 54.5879C161.351 54.5879 160.542 53.4014 160.542 51.3184C160.542 49.2529 161.369 48.0488 162.766 48.0488C164.164 48.0488 164.99 49.2529 164.99 51.3184C164.99 53.4014 164.172 54.5879 162.766 54.5879ZM162.766 53.8848C163.68 53.8848 164.216 52.9619 164.216 51.3184C164.216 49.6748 163.68 48.7344 162.766 48.7344C161.852 48.7344 161.307 49.6748 161.307 51.3184C161.307 52.9619 161.843 53.8848 162.766 53.8848ZM166.053 56.293V49.7275H166.783V50.4834H166.871C167.029 50.2285 167.328 49.666 168.25 49.666C169.446 49.666 170.281 50.6152 170.281 52.127C170.281 53.6387 169.446 54.5967 168.259 54.5967C167.345 54.5967 167.029 54.0342 166.871 53.7705H166.809V56.293H166.053ZM166.792 52.1094C166.792 53.1816 167.275 53.9199 168.154 53.9199C169.059 53.9199 169.525 53.1289 169.525 52.1094C169.525 51.1162 169.068 50.3428 168.154 50.3428C167.257 50.3428 166.792 51.0547 166.792 52.1094ZM171.634 49.7275L172.759 51.6699L173.893 49.7275H174.763L173.225 52.1094L174.763 54.5H173.902L172.759 52.6543L171.634 54.5H170.764L172.267 52.1094L170.764 49.7275H171.634Z" fill="#8FAF8A"/>
<path opacity="0.5" d="M248.35 60.5H204.35C199.931 60.5 196.35 64.0817 196.35 68.5V82.5C196.35 86.9183 199.931 90.5 204.35 90.5H248.35C252.768 90.5 256.35 86.9183 256.35 82.5V68.5C256.35 64.0817 252.768 60.5 248.35 60.5Z" fill="#D4A853"/>
<path d="M219.987 73.1367H220.937L223.081 78.375H223.16L225.305 73.1367H226.254V79.5H225.507V74.6924H225.445L223.468 79.5H222.765L220.787 74.6924H220.734V79.5H219.987V73.1367ZM227.563 79.5V74.7275H228.319V79.5H227.563ZM227.941 73.9365C227.651 73.9365 227.414 73.7168 227.414 73.4355C227.414 73.1543 227.651 72.9346 227.941 72.9346C228.231 72.9346 228.478 73.1543 228.478 73.4355C228.478 73.7168 228.231 73.9365 227.941 73.9365ZM230.279 76.6348V79.5H229.523V74.7275H230.253V75.4746H230.314C230.543 74.9912 230.982 74.666 231.712 74.666C232.679 74.666 233.32 75.2549 233.32 76.4678V79.5H232.564V76.5205C232.564 75.7822 232.16 75.3428 231.483 75.3428C230.789 75.3428 230.279 75.8086 230.279 76.6348Z" fill="#1A1C1E"/>
<path opacity="0.85" d="M368.482 60.5H274.482C270.064 60.5 266.482 64.0817 266.482 68.5V82.5C266.482 86.9183 270.064 90.5 274.482 90.5H368.482C372.901 90.5 376.482 86.9183 376.482 82.5V68.5C376.482 64.0817 372.901 60.5 368.482 60.5Z" fill="#D4A853"/>
<path d="M304.196 72.0098V72.9961H302.429C302.438 74.0459 303.063 75.1201 304.47 75.584L303.854 76.541C302.868 76.2285 302.194 75.584 301.813 74.7832C301.413 75.6719 300.705 76.3896 299.655 76.7266L299.021 75.7402C300.48 75.2715 301.145 74.1045 301.159 72.9961H299.372V72.0098H304.196ZM306.56 77.1953V80.3984H305.319V78.1914H300.456V77.1953H306.56ZM306.56 71.5117V76.8047H305.319V74.666H303.942V73.6504H305.319V71.5117H306.56ZM312.79 71.8535V72.8496H311.022C311.057 73.7383 311.701 74.666 313.054 75.0566L312.478 76.043C311.477 75.7549 310.788 75.1641 310.397 74.4219C309.992 75.2422 309.27 75.916 308.239 76.2285L307.634 75.2617C309.025 74.8174 309.719 73.792 309.772 72.8496H307.976V71.8535H312.79ZM315.202 71.5117V76.0332H313.962V74.3242H312.565V73.3379H313.962V71.5117H315.202ZM315.202 76.375V78.7773H310.544V79.3438H315.466V80.3105H309.294V77.8691H313.962V77.3613H309.284V76.375H315.202ZM323.405 71.5215V74.2461H324.606V75.2617H323.405V78.1523H322.155V71.5215H323.405ZM321.628 72.4492V73.4355H316.354V72.4492H318.376V71.502H319.616V72.4492H321.628ZM318.991 73.748C320.28 73.748 321.179 74.4414 321.179 75.4668C321.179 76.4922 320.28 77.166 318.991 77.166C317.692 77.166 316.784 76.4922 316.784 75.4668C316.784 74.4414 317.692 73.748 318.991 73.748ZM318.991 74.6953C318.396 74.7051 317.995 74.9785 318.005 75.4668C317.995 75.9551 318.396 76.2188 318.991 76.2188C319.587 76.2188 319.997 75.9551 319.997 75.4668C319.997 74.9785 319.587 74.7051 318.991 74.6953ZM323.728 79.2461V80.2422H317.644V77.6445H318.884V79.2461H323.728ZM334.577 72.293V73.3281C334.577 74.6172 334.577 75.8574 334.167 77.7812L332.927 77.6641C333.103 76.9219 333.2 76.2725 333.269 75.6719L328.112 75.9258L327.956 74.9297L333.327 74.7344C333.352 74.251 333.352 73.7871 333.356 73.3281V73.2891H328.229V72.293H334.577ZM335.407 78.3184V79.334H327.302V78.3184H335.407ZM343.415 71.5117V80.3984H342.155V71.5117H343.415ZM340.749 72.4395C340.749 75.1348 339.802 77.3711 336.628 78.875L335.974 77.8789C338.269 76.7949 339.279 75.3887 339.479 73.416H336.452V72.4395H340.749Z" fill="#1A1C1E"/>
<path d="M130.135 136.571L130.062 136.894C129.967 136.897 129.847 136.911 129.7 136.938C129.554 136.964 129.445 136.988 129.373 137.011C129.246 137.053 129.155 137.12 129.1 137.211C129.044 137.302 129.004 137.4 128.978 137.504L127.811 142.548C127.804 142.574 127.799 142.603 127.796 142.636C127.793 142.668 127.791 142.694 127.791 142.714C127.791 142.782 127.806 142.844 127.835 142.899C127.864 142.951 127.913 142.999 127.981 143.041C128.027 143.07 128.123 143.1 128.27 143.129C128.419 143.158 128.536 143.174 128.621 143.178L128.543 143.5H125.491L125.569 143.178C125.687 143.171 125.833 143.16 126.009 143.144C126.185 143.124 126.308 143.096 126.38 143.061C126.494 142.999 126.585 142.927 126.653 142.846C126.725 142.764 126.772 142.665 126.795 142.548L127.991 137.387H127.938L124.153 143.388H123.924L123.055 137.265H123.006L122.024 141.522C121.985 141.695 121.953 141.863 121.927 142.025C121.901 142.188 121.888 142.32 121.888 142.421C121.888 142.528 121.899 142.621 121.922 142.699C121.945 142.774 121.977 142.836 122.02 142.885C122.078 142.953 122.202 143.015 122.391 143.07C122.579 143.126 122.728 143.161 122.835 143.178L122.757 143.5H119.959L120.037 143.178C120.19 143.161 120.343 143.139 120.496 143.109C120.649 143.08 120.791 143.025 120.921 142.943C121.051 142.855 121.162 142.712 121.253 142.514C121.344 142.315 121.437 142.003 121.531 141.576L122.361 137.982C122.378 137.908 122.389 137.841 122.396 137.782C122.405 137.72 122.41 137.66 122.41 137.602C122.41 137.497 122.397 137.411 122.371 137.343C122.345 137.271 122.311 137.211 122.269 137.162C122.184 137.068 122.068 137.001 121.922 136.962C121.779 136.923 121.647 136.9 121.526 136.894L121.6 136.571H123.934L124.69 141.781L127.386 137.421C127.487 137.255 127.579 137.084 127.664 136.908C127.749 136.732 127.798 136.62 127.811 136.571H130.135ZM132.298 142.968L132.225 143.28C131.925 143.401 131.686 143.484 131.507 143.529C131.328 143.578 131.175 143.603 131.048 143.603C130.787 143.603 130.592 143.536 130.462 143.402C130.332 143.266 130.267 143.098 130.267 142.899C130.267 142.825 130.273 142.746 130.286 142.665C130.299 142.584 130.32 142.481 130.35 142.357L130.867 140.282C130.893 140.168 130.918 140.046 130.94 139.916C130.966 139.786 130.979 139.675 130.979 139.584C130.979 139.402 130.949 139.281 130.887 139.223C130.828 139.161 130.706 139.13 130.521 139.13C130.449 139.13 130.353 139.141 130.232 139.164C130.115 139.187 130.026 139.206 129.964 139.223L130.037 138.91C130.291 138.796 130.519 138.712 130.721 138.656C130.923 138.601 131.082 138.573 131.199 138.573C131.466 138.573 131.66 138.637 131.78 138.764C131.901 138.891 131.961 139.062 131.961 139.276C131.961 139.335 131.954 139.415 131.941 139.516C131.928 139.617 131.909 139.717 131.883 139.818L131.36 141.894C131.328 142.021 131.299 142.146 131.272 142.27C131.25 142.39 131.238 142.489 131.238 142.567C131.238 142.753 131.279 142.88 131.36 142.948C131.445 143.017 131.58 143.051 131.766 143.051C131.827 143.051 131.915 143.043 132.029 143.026C132.146 143.01 132.236 142.991 132.298 142.968ZM132.645 136.728C132.645 136.913 132.584 137.076 132.464 137.216C132.343 137.353 132.194 137.421 132.015 137.421C131.849 137.421 131.705 137.356 131.585 137.226C131.465 137.092 131.404 136.941 131.404 136.771C131.404 136.592 131.465 136.436 131.585 136.303C131.705 136.169 131.849 136.103 132.015 136.103C132.2 136.103 132.352 136.166 132.469 136.293C132.586 136.417 132.645 136.562 132.645 136.728ZM138.196 142.934L138.123 143.246C137.83 143.363 137.602 143.448 137.439 143.5C137.277 143.555 137.112 143.583 136.946 143.583C136.686 143.583 136.491 143.516 136.36 143.383C136.23 143.246 136.165 143.078 136.165 142.88C136.165 142.808 136.172 142.73 136.185 142.646C136.198 142.558 136.219 142.455 136.248 142.338L136.727 140.517C136.762 140.377 136.79 140.25 136.81 140.136C136.832 140.022 136.844 139.931 136.844 139.862C136.844 139.644 136.792 139.472 136.688 139.345C136.583 139.218 136.429 139.154 136.224 139.154C136.025 139.154 135.802 139.219 135.555 139.35C135.307 139.48 135.075 139.669 134.856 139.916L134.031 143.5H133.123L133.851 140.336C133.867 140.258 133.89 140.146 133.919 139.999C133.951 139.849 133.968 139.729 133.968 139.638C133.968 139.455 133.937 139.333 133.875 139.271C133.813 139.21 133.689 139.179 133.504 139.179C133.432 139.179 133.341 139.192 133.23 139.218C133.12 139.241 133.034 139.26 132.972 139.276L133.045 138.964C133.299 138.85 133.523 138.765 133.719 138.71C133.914 138.655 134.082 138.627 134.222 138.627C134.479 138.627 134.663 138.697 134.773 138.837C134.884 138.977 134.943 139.171 134.949 139.418H134.979C135.337 139.132 135.646 138.92 135.906 138.783C136.167 138.643 136.463 138.573 136.795 138.573C137.107 138.573 137.352 138.664 137.527 138.847C137.703 139.026 137.791 139.262 137.791 139.555C137.791 139.613 137.781 139.717 137.762 139.867C137.745 140.017 137.718 140.165 137.679 140.312L137.269 141.879C137.239 141.983 137.21 142.104 137.181 142.24C137.155 142.374 137.142 142.478 137.142 142.553C137.142 142.738 137.182 142.865 137.264 142.934C137.345 142.999 137.479 143.031 137.664 143.031C137.726 143.031 137.814 143.021 137.928 143.002C138.045 142.979 138.134 142.956 138.196 142.934ZM143.636 136.063L138.592 145.57H137.918L142.952 136.063H143.636ZM152.977 136.571L152.903 136.894C152.809 136.897 152.688 136.911 152.542 136.938C152.396 136.964 152.286 136.988 152.215 137.011C152.088 137.053 151.997 137.12 151.941 137.211C151.886 137.302 151.845 137.4 151.819 137.504L150.652 142.548C150.646 142.574 150.641 142.603 150.638 142.636C150.634 142.668 150.633 142.694 150.633 142.714C150.633 142.782 150.647 142.844 150.677 142.899C150.706 142.951 150.755 142.999 150.823 143.041C150.869 143.07 150.965 143.1 151.111 143.129C151.261 143.158 151.378 143.174 151.463 143.178L151.385 143.5H148.333L148.411 143.178C148.528 143.171 148.675 143.16 148.851 143.144C149.026 143.124 149.15 143.096 149.222 143.061C149.336 142.999 149.427 142.927 149.495 142.846C149.567 142.764 149.614 142.665 149.637 142.548L150.833 137.387H150.779L146.995 143.388H146.766L145.896 137.265H145.848L144.866 141.522C144.827 141.695 144.795 141.863 144.769 142.025C144.743 142.188 144.729 142.32 144.729 142.421C144.729 142.528 144.741 142.621 144.764 142.699C144.786 142.774 144.819 142.836 144.861 142.885C144.92 142.953 145.044 143.015 145.232 143.07C145.421 143.126 145.569 143.161 145.677 143.178L145.599 143.5H142.801L142.879 143.178C143.032 143.161 143.185 143.139 143.338 143.109C143.491 143.08 143.632 143.025 143.763 142.943C143.893 142.855 144.004 142.712 144.095 142.514C144.186 142.315 144.279 142.003 144.373 141.576L145.203 137.982C145.219 137.908 145.231 137.841 145.237 137.782C145.247 137.72 145.252 137.66 145.252 137.602C145.252 137.497 145.239 137.411 145.213 137.343C145.187 137.271 145.153 137.211 145.11 137.162C145.026 137.068 144.91 137.001 144.764 136.962C144.62 136.923 144.489 136.9 144.368 136.894L144.441 136.571H146.775L147.532 141.781L150.228 137.421C150.328 137.255 150.421 137.084 150.506 136.908C150.59 136.732 150.639 136.62 150.652 136.571H152.977ZM155.848 142.855H155.813C155.742 142.914 155.656 142.989 155.555 143.08C155.457 143.168 155.341 143.253 155.208 143.334C155.081 143.415 154.943 143.485 154.793 143.544C154.643 143.606 154.48 143.637 154.305 143.637C153.833 143.637 153.462 143.467 153.191 143.129C152.924 142.79 152.791 142.328 152.791 141.742C152.791 141.339 152.866 140.946 153.016 140.565C153.165 140.185 153.372 139.843 153.636 139.54C153.886 139.25 154.184 139.018 154.529 138.842C154.874 138.663 155.229 138.573 155.594 138.573C155.825 138.573 156.045 138.604 156.253 138.666C156.465 138.728 156.631 138.798 156.751 138.876L157.645 138.646L157.703 138.72L156.961 141.869C156.935 141.97 156.907 142.094 156.878 142.24C156.852 142.383 156.839 142.489 156.839 142.558C156.839 142.743 156.878 142.868 156.956 142.934C157.034 142.999 157.166 143.031 157.352 143.031C157.413 143.031 157.501 143.021 157.615 143.002C157.729 142.982 157.817 142.961 157.879 142.938L157.806 143.251C157.513 143.368 157.295 143.453 157.151 143.505C157.008 143.557 156.834 143.583 156.629 143.583C156.395 143.583 156.209 143.515 156.072 143.378C155.936 143.241 155.861 143.067 155.848 142.855ZM156.546 139.77C156.546 139.662 156.535 139.56 156.512 139.462C156.489 139.364 156.442 139.273 156.37 139.188C156.305 139.107 156.215 139.042 156.102 138.993C155.988 138.944 155.844 138.92 155.672 138.92C155.434 138.92 155.203 138.998 154.979 139.154C154.754 139.311 154.552 139.521 154.373 139.784C154.204 140.032 154.065 140.331 153.958 140.683C153.851 141.034 153.797 141.391 153.797 141.752C153.797 141.951 153.808 142.126 153.831 142.279C153.854 142.432 153.898 142.572 153.963 142.699C154.025 142.823 154.114 142.919 154.231 142.987C154.349 143.056 154.497 143.09 154.676 143.09C154.858 143.09 155.049 143.039 155.247 142.938C155.449 142.834 155.675 142.654 155.926 142.396L156.546 139.77ZM163.401 139.11C163.398 139.299 163.328 139.439 163.191 139.53C163.058 139.618 162.911 139.662 162.752 139.662C162.654 139.662 162.544 139.646 162.42 139.613C162.296 139.577 162.199 139.548 162.127 139.525C161.98 139.656 161.81 139.848 161.614 140.102C161.422 140.355 161.24 140.635 161.067 140.941C161.146 141.251 161.215 141.516 161.277 141.737C161.339 141.955 161.406 142.175 161.478 142.396C161.539 142.595 161.635 142.755 161.766 142.875C161.899 142.992 162.073 143.051 162.288 143.051C162.366 143.051 162.474 143.041 162.61 143.021C162.747 142.999 162.853 142.974 162.928 142.948L162.84 143.271C162.527 143.401 162.291 143.485 162.132 143.524C161.976 143.563 161.806 143.583 161.624 143.583C161.396 143.583 161.207 143.531 161.058 143.427C160.911 143.323 160.792 143.108 160.701 142.782C160.636 142.545 160.582 142.346 160.54 142.187C160.501 142.024 160.462 141.863 160.423 141.703C160.273 141.928 160.149 142.12 160.052 142.279C159.954 142.436 159.791 142.652 159.563 142.929C159.365 143.17 159.183 143.34 159.017 143.441C158.851 143.542 158.681 143.593 158.509 143.593C158.356 143.593 158.23 143.549 158.133 143.461C158.032 143.37 157.981 143.244 157.981 143.085C157.981 142.932 158.04 142.802 158.157 142.694C158.274 142.584 158.436 142.528 158.641 142.528C158.745 142.528 158.846 142.548 158.943 142.587C159.044 142.623 159.148 142.657 159.256 142.689C159.38 142.572 159.542 142.39 159.744 142.143C159.949 141.895 160.14 141.614 160.315 141.298C160.254 141.067 160.185 140.813 160.11 140.536C160.039 140.259 159.97 140.017 159.905 139.809C159.821 139.545 159.723 139.376 159.612 139.301C159.502 139.226 159.36 139.188 159.188 139.188C159.093 139.188 158.992 139.201 158.885 139.228C158.781 139.254 158.683 139.28 158.592 139.306L158.685 138.983C158.935 138.879 159.16 138.795 159.358 138.729C159.56 138.661 159.697 138.627 159.769 138.627C159.993 138.627 160.179 138.682 160.325 138.793C160.475 138.9 160.594 139.11 160.682 139.423C160.783 139.784 160.841 140.006 160.857 140.087C160.877 140.165 160.913 140.321 160.965 140.556C161.121 140.315 161.248 140.111 161.346 139.945C161.443 139.779 161.603 139.56 161.824 139.286C162.029 139.029 162.218 138.853 162.391 138.759C162.566 138.661 162.734 138.612 162.894 138.612C163.037 138.612 163.157 138.66 163.255 138.754C163.356 138.845 163.405 138.964 163.401 139.11ZM163.691 142.47H171.891V143.16H163.691V142.47ZM167.361 140.54H168.181V142.76H167.361V140.54ZM164.691 135.9H170.871V138.64H165.531V140.45H164.711V137.98H170.051V136.58H164.691V135.9ZM164.711 140.1H171.081V140.78H164.711V140.1ZM175.603 141.36H176.203C176.749 141.36 177.289 141.347 177.823 141.32C178.363 141.287 178.943 141.217 179.563 141.11L179.633 141.79C178.999 141.903 178.409 141.977 177.863 142.01C177.323 142.037 176.769 142.05 176.203 142.05H175.603V141.36ZM175.583 136.23H178.803V139.37H176.403V141.65H175.603V138.7H178.003V136.91H175.583V136.23ZM182.183 135.23H182.973V144.28H182.183V135.23ZM179.233 138.48H180.703V139.17H179.233V138.48ZM180.353 135.45H181.133V143.8H180.353V135.45ZM191.072 135.23H191.902V144.29H191.072V135.23ZM187.132 135.93C187.579 135.93 187.972 136.06 188.312 136.32C188.659 136.573 188.929 136.937 189.122 137.41C189.322 137.883 189.422 138.44 189.422 139.08C189.422 139.72 189.322 140.277 189.122 140.75C188.929 141.223 188.659 141.59 188.312 141.85C187.972 142.11 187.579 142.24 187.132 142.24C186.685 142.24 186.289 142.11 185.942 141.85C185.595 141.59 185.322 141.223 185.122 140.75C184.929 140.277 184.832 139.72 184.832 139.08C184.832 138.44 184.929 137.883 185.122 137.41C185.322 136.937 185.595 136.573 185.942 136.32C186.289 136.06 186.685 135.93 187.132 135.93ZM187.132 136.67C186.832 136.67 186.569 136.77 186.342 136.97C186.122 137.163 185.949 137.443 185.822 137.81C185.695 138.17 185.632 138.593 185.632 139.08C185.632 139.567 185.695 139.993 185.822 140.36C185.949 140.72 186.122 141 186.342 141.2C186.569 141.4 186.832 141.5 187.132 141.5C187.425 141.5 187.682 141.4 187.902 141.2C188.129 141 188.305 140.72 188.432 140.36C188.559 139.993 188.622 139.567 188.622 139.08C188.622 138.593 188.559 138.17 188.432 137.81C188.305 137.443 188.129 137.163 187.902 136.97C187.682 136.77 187.425 136.67 187.132 136.67ZM196.101 135.93C196.548 135.93 196.941 136.06 197.281 136.32C197.621 136.573 197.888 136.937 198.081 137.41C198.275 137.883 198.371 138.44 198.371 139.08C198.371 139.72 198.275 140.277 198.081 140.75C197.888 141.223 197.621 141.59 197.281 141.85C196.941 142.11 196.548 142.24 196.101 142.24C195.661 142.24 195.268 142.11 194.921 141.85C194.581 141.59 194.315 141.223 194.121 140.75C193.928 140.277 193.831 139.72 193.831 139.08C193.831 138.44 193.928 137.883 194.121 137.41C194.315 136.937 194.581 136.573 194.921 136.32C195.268 136.06 195.661 135.93 196.101 135.93ZM196.101 136.67C195.815 136.67 195.558 136.77 195.331 136.97C195.111 137.163 194.938 137.443 194.811 137.81C194.685 138.17 194.621 138.593 194.621 139.08C194.621 139.567 194.685 139.993 194.811 140.36C194.938 140.72 195.111 141 195.331 141.2C195.558 141.4 195.818 141.5 196.111 141.5C196.398 141.5 196.651 141.4 196.871 141.2C197.098 141 197.271 140.72 197.391 140.36C197.518 139.993 197.581 139.567 197.581 139.08C197.581 138.593 197.518 138.17 197.391 137.81C197.271 137.443 197.098 137.163 196.871 136.97C196.651 136.77 196.395 136.67 196.101 136.67ZM199.821 135.23H200.651V144.28H199.821V135.23ZM200.461 138.84H202.131V139.54H200.461V138.84ZM202.9 139.36H211.09V140.05H202.9V139.36ZM206.56 139.66H207.38V141.04H206.56V139.66ZM206.54 141.46H207.25V141.74C207.25 142.08 207.16 142.393 206.98 142.68C206.8 142.96 206.547 143.21 206.22 143.43C205.894 143.643 205.52 143.817 205.1 143.95C204.68 144.09 204.234 144.187 203.76 144.24L203.49 143.6C203.904 143.56 204.294 143.487 204.66 143.38C205.027 143.273 205.35 143.137 205.63 142.97C205.91 142.803 206.13 142.617 206.29 142.41C206.457 142.197 206.54 141.973 206.54 141.74V141.46ZM206.69 141.46H207.39V141.74C207.39 141.987 207.47 142.213 207.63 142.42C207.797 142.627 208.02 142.813 208.3 142.98C208.587 143.14 208.914 143.273 209.28 143.38C209.647 143.487 210.034 143.56 210.44 143.6L210.18 144.24C209.707 144.187 209.26 144.09 208.84 143.95C208.42 143.817 208.047 143.647 207.72 143.44C207.4 143.227 207.147 142.977 206.96 142.69C206.78 142.403 206.69 142.087 206.69 141.74V141.46ZM206.98 135.37C207.634 135.37 208.197 135.433 208.67 135.56C209.15 135.687 209.517 135.877 209.77 136.13C210.03 136.377 210.16 136.677 210.16 137.03C210.16 137.377 210.03 137.673 209.77 137.92C209.517 138.167 209.15 138.357 208.67 138.49C208.197 138.623 207.634 138.69 206.98 138.69C206.327 138.69 205.76 138.623 205.28 138.49C204.807 138.357 204.44 138.167 204.18 137.92C203.927 137.673 203.8 137.377 203.8 137.03C203.8 136.677 203.927 136.377 204.18 136.13C204.44 135.877 204.807 135.687 205.28 135.56C205.76 135.433 206.327 135.37 206.98 135.37ZM206.98 136C206.5 136 206.087 136.043 205.74 136.13C205.394 136.21 205.124 136.327 204.93 136.48C204.744 136.627 204.65 136.81 204.65 137.03C204.65 137.243 204.744 137.427 204.93 137.58C205.124 137.727 205.394 137.84 205.74 137.92C206.087 138 206.5 138.04 206.98 138.04C207.467 138.04 207.884 138 208.23 137.92C208.577 137.84 208.844 137.727 209.03 137.58C209.217 137.427 209.31 137.243 209.31 137.03C209.31 136.81 209.217 136.627 209.03 136.48C208.844 136.327 208.577 136.21 208.23 136.13C207.884 136.043 207.467 136 206.98 136ZM214.502 140.48H222.702V141.16H214.502V140.48ZM218.172 140.9H218.992V144.27H218.172V140.9ZM215.552 135.73H221.652V139.26H215.552V135.73ZM220.832 136.4H216.362V138.6H220.832V136.4ZM230.331 135.23H231.161V144.29H230.331V135.23ZM227.561 138.21H230.601V138.89H227.561V138.21ZM224.201 136.24H225.031V141.85H224.201V136.24ZM224.201 141.4H224.901C225.368 141.4 225.821 141.39 226.261 141.37C226.708 141.35 227.151 141.313 227.591 141.26C228.031 141.207 228.481 141.133 228.941 141.04L229.041 141.73C228.561 141.823 228.094 141.897 227.641 141.95C227.194 142.003 226.744 142.043 226.291 142.07C225.844 142.09 225.381 142.1 224.901 142.1H224.201V141.4ZM235.32 136.09H236.01V136.81C236.01 137.357 235.903 137.867 235.69 138.34C235.477 138.813 235.177 139.227 234.79 139.58C234.41 139.927 233.967 140.193 233.46 140.38L233.03 139.72C233.483 139.56 233.88 139.333 234.22 139.04C234.567 138.747 234.837 138.41 235.03 138.03C235.223 137.643 235.32 137.237 235.32 136.81V136.09ZM235.48 136.09H236.16V136.81C236.16 137.11 236.213 137.4 236.32 137.68C236.433 137.96 236.593 138.223 236.8 138.47C237.007 138.71 237.247 138.923 237.52 139.11C237.8 139.29 238.107 139.437 238.44 139.55L238.02 140.2C237.52 140.033 237.08 139.783 236.7 139.45C236.32 139.117 236.02 138.723 235.8 138.27C235.587 137.817 235.48 137.33 235.48 136.81V136.09ZM233.25 135.86H238.2V136.54H233.25V135.86ZM239.49 135.24H240.32V140.5H239.49V135.24ZM234.48 140.98H240.32V144.16H234.48V140.98ZM239.51 141.64H235.29V143.48H239.51V141.64ZM248.661 140.91C249.275 140.91 249.801 140.977 250.241 141.11C250.688 141.243 251.031 141.433 251.271 141.68C251.511 141.927 251.631 142.227 251.631 142.58C251.631 142.933 251.511 143.237 251.271 143.49C251.031 143.743 250.688 143.937 250.241 144.07C249.801 144.203 249.275 144.27 248.661 144.27C248.048 144.27 247.518 144.203 247.071 144.07C246.625 143.937 246.281 143.743 246.041 143.49C245.801 143.237 245.681 142.933 245.681 142.58C245.681 142.227 245.801 141.927 246.041 141.68C246.281 141.433 246.625 141.243 247.071 141.11C247.518 140.977 248.048 140.91 248.661 140.91ZM248.661 141.57C248.215 141.57 247.828 141.61 247.501 141.69C247.181 141.77 246.935 141.887 246.761 142.04C246.588 142.187 246.501 142.367 246.501 142.58C246.501 142.8 246.588 142.987 246.761 143.14C246.935 143.293 247.181 143.41 247.501 143.49C247.828 143.57 248.215 143.61 248.661 143.61C249.108 143.61 249.491 143.57 249.811 143.49C250.131 143.41 250.378 143.293 250.551 143.14C250.725 142.987 250.811 142.8 250.811 142.58C250.811 142.367 250.725 142.187 250.551 142.04C250.378 141.887 250.131 141.77 249.811 141.69C249.491 141.61 249.108 141.57 248.661 141.57ZM250.711 135.23H251.541V140.66H250.711V135.23ZM251.311 137.5H252.871V138.2H251.311V137.5ZM244.891 135.8H245.711V137.16H248.261V135.8H249.081V139.97H244.891V135.8ZM245.711 137.82V139.3H248.261V137.82H245.711ZM256.111 136.53H256.791V137.99C256.791 138.47 256.724 138.943 256.591 139.41C256.457 139.87 256.271 140.307 256.031 140.72C255.797 141.127 255.524 141.487 255.211 141.8C254.897 142.113 254.561 142.36 254.201 142.54L253.721 141.88C254.047 141.72 254.354 141.503 254.641 141.23C254.934 140.957 255.191 140.643 255.411 140.29C255.631 139.937 255.801 139.563 255.921 139.17C256.047 138.777 256.111 138.383 256.111 137.99V136.53ZM256.281 136.53H256.951V137.99C256.951 138.37 257.011 138.75 257.131 139.13C257.257 139.503 257.431 139.857 257.651 140.19C257.877 140.517 258.134 140.807 258.421 141.06C258.714 141.313 259.027 141.513 259.361 141.66L258.901 142.32C258.534 142.147 258.191 141.913 257.871 141.62C257.551 141.327 257.271 140.99 257.031 140.61C256.797 140.223 256.614 139.81 256.481 139.37C256.347 138.923 256.281 138.463 256.281 137.99V136.53ZM254.011 136.16H259.061V136.85H254.011V136.16ZM260.291 135.23H261.121V144.28H260.291V135.23Z" fill="#9A9090"/>
<defs>
<linearGradient id="paint0_linear_546_10160" x1="0.5" y1="0.5" x2="114.527" y2="272.74" gradientUnits="userSpaceOnUse">
<stop stop-color="#F3F3F3"/>
<stop offset="1" stop-color="#EBEBEB"/>
</linearGradient>
</defs>
</svg>
