<svg width="383" height="161" viewBox="0 0 383 161" fill="none" xmlns="http://www.w3.org/2000/svg">
<path d="M374.5 0.5H8.5C4.08172 0.5 0.5 4.08172 0.5 8.5V152.5C0.5 156.918 4.08172 160.5 8.5 160.5H374.5C378.918 160.5 382.5 156.918 382.5 152.5V8.5C382.5 4.08172 378.918 0.5 374.5 0.5Z" fill="url(#paint0_linear_546_10136)" stroke="#E2E2E2"/>
<path opacity="0.85" d="M115.918 51.5H79.918C71.0814 51.5 63.918 58.6634 63.918 67.5C63.918 76.3366 71.0814 83.5 79.918 83.5H115.918C124.755 83.5 131.918 76.3366 131.918 67.5C131.918 58.6634 124.755 51.5 115.918 51.5Z" fill="#D4A853"/>
<path d="M97.21 61.7129V71.5098H95.835V66.2354H94.084V65.1182H95.835V61.7129H97.21ZM92.6445 64.1621C92.6445 65.8809 93.4287 67.6748 95.083 68.3838L94.2773 69.4688C93.144 68.937 92.376 67.9111 91.957 66.665C91.5327 67.9971 90.7539 69.1089 89.6152 69.6729L88.7988 68.5879C90.4424 67.8359 91.2373 65.9775 91.2373 64.1621V63.7539H89.207V62.6582H94.6748V63.7539H92.6445V64.1621ZM104.01 62.3682V63.4639H102.065C102.076 64.6025 102.758 65.7036 104.321 66.1602L103.666 67.2344C102.586 66.9067 101.84 66.2515 101.41 65.4082C100.975 66.3965 100.18 67.1807 99.0039 67.5674L98.3057 66.4824C99.9277 65.9722 100.658 64.7046 100.68 63.4639H98.6816V62.3682H104.01ZM106.212 61.7129V63.9795H107.533V65.0967H106.212V67.5137H104.837V61.7129H106.212ZM103.011 67.707C105.041 67.6963 106.309 68.3945 106.309 69.5869C106.309 70.7793 105.041 71.4883 103.011 71.4883C100.938 71.4883 99.6592 70.7793 99.6592 69.5869C99.6592 68.3945 100.938 67.6963 103.011 67.707ZM103.011 68.7705C101.722 68.7705 101.023 69.0391 101.034 69.5869C101.023 70.1455 101.722 70.4248 103.011 70.4248C104.278 70.4248 104.955 70.1455 104.955 69.5869C104.955 69.0391 104.278 68.7705 103.011 68.7705Z" fill="#1A1C1E"/>
<path d="M63.918 38.5H71.918" stroke="#5FAFFF" stroke-width="1.2"/>
<path d="M63.918 34.5V42.5" stroke="#5FAFFF" stroke-width="1.2"/>
<path d="M72.125 34.5V42.5" stroke="#5FAFFF" stroke-width="1.2"/>
<path d="M61.9883 25.8438V31.5H61.2773V26.5781H61.2461L59.8711 27.4922V26.7812L61.2773 25.8438H61.9883ZM65.4648 31.5781C64.4805 31.5625 63.4023 30.9844 63.4023 28.8906C63.4023 26.8906 64.2227 25.7656 65.5508 25.7656C66.543 25.7656 67.2383 26.375 67.3867 27.2656H66.6914C66.5586 26.7656 66.1836 26.3906 65.5508 26.3906C64.6211 26.3906 64.0664 27.1875 64.0664 28.5469H64.1367C64.4648 28.0781 64.9805 27.7969 65.5898 27.7969C66.5977 27.7969 67.4336 28.5781 67.4336 29.6719C67.4336 30.7344 66.6523 31.5859 65.4648 31.5781ZM65.4648 30.9609C66.1992 30.9609 66.7461 30.3828 66.7539 29.6797C66.7461 28.9844 66.2227 28.4141 65.4805 28.4141C64.7383 28.4141 64.168 29.0156 64.1602 29.6875C64.1602 30.3516 64.707 30.9609 65.4648 30.9609ZM68.4102 33.0938V27.2578H69.0586V27.9297H69.1367C69.2773 27.7031 69.543 27.2031 70.3633 27.2031C71.4258 27.2031 72.168 28.0469 72.168 29.3906C72.168 30.7344 71.4258 31.5859 70.3711 31.5859C69.5586 31.5859 69.2773 31.0859 69.1367 30.8516H69.082V33.0938H68.4102ZM69.0664 29.375C69.0664 30.3281 69.4961 30.9844 70.2773 30.9844C71.082 30.9844 71.4961 30.2812 71.4961 29.375C71.4961 28.4922 71.0898 27.8047 70.2773 27.8047C69.4805 27.8047 69.0664 28.4375 69.0664 29.375ZM73.3711 27.2578L74.3711 28.9844L75.3789 27.2578H76.1523L74.7852 29.375L76.1523 31.5H75.3867L74.3711 29.8594L73.3711 31.5H72.5977L73.9336 29.375L72.5977 27.2578H73.3711Z" fill="#5FAFFF"/>
<path d="M123.979 38.5H131.979" stroke="#5FAFFF" stroke-width="1.2"/>
<path d="M123.979 34.5V42.5" stroke="#5FAFFF" stroke-width="1.2"/>
<path d="M132.186 34.5V42.5" stroke="#5FAFFF" stroke-width="1.2"/>
<path d="M122.049 25.8438V31.5H121.338V26.5781H121.307L119.932 27.4922V26.7812L121.338 25.8438H122.049ZM125.525 31.5781C124.541 31.5625 123.463 30.9844 123.463 28.8906C123.463 26.8906 124.283 25.7656 125.611 25.7656C126.604 25.7656 127.299 26.375 127.447 27.2656H126.752C126.619 26.7656 126.244 26.3906 125.611 26.3906C124.682 26.3906 124.127 27.1875 124.127 28.5469H124.197C124.525 28.0781 125.041 27.7969 125.65 27.7969C126.658 27.7969 127.494 28.5781 127.494 29.6719C127.494 30.7344 126.713 31.5859 125.525 31.5781ZM125.525 30.9609C126.26 30.9609 126.807 30.3828 126.814 29.6797C126.807 28.9844 126.283 28.4141 125.541 28.4141C124.799 28.4141 124.229 29.0156 124.221 29.6875C124.221 30.3516 124.768 30.9609 125.525 30.9609ZM128.471 33.0938V27.2578H129.119V27.9297H129.197C129.338 27.7031 129.604 27.2031 130.424 27.2031C131.486 27.2031 132.229 28.0469 132.229 29.3906C132.229 30.7344 131.486 31.5859 130.432 31.5859C129.619 31.5859 129.338 31.0859 129.197 30.8516H129.143V33.0938H128.471ZM129.127 29.375C129.127 30.3281 129.557 30.9844 130.338 30.9844C131.143 30.9844 131.557 30.2812 131.557 29.375C131.557 28.4922 131.15 27.8047 130.338 27.8047C129.541 27.8047 129.127 28.4375 129.127 29.375ZM133.432 27.2578L134.432 28.9844L135.439 27.2578H136.213L134.846 29.375L136.213 31.5H135.447L134.432 29.8594L133.432 31.5H132.658L133.994 29.375L132.658 27.2578H133.432Z" fill="#5FAFFF"/>
<path opacity="0.85" d="M310.816 51.5H194.816C185.98 51.5 178.816 58.6634 178.816 67.5C178.816 76.3366 185.98 83.5 194.816 83.5H310.816C319.653 83.5 326.816 76.3366 326.816 67.5C326.816 58.6634 319.653 51.5 310.816 51.5Z" fill="#D4A853"/>
<path d="M209.13 62.2178C211.235 62.2178 212.804 63.2812 212.814 64.8926C212.804 66.3643 211.563 67.3579 209.807 67.5566V69.2217H213.62V70.3496H204.672V69.2217H208.442V67.5459C206.691 67.3579 205.456 66.3589 205.456 64.8926C205.456 63.2812 207.024 62.2178 209.13 62.2178ZM209.13 63.3135C207.766 63.3135 206.81 63.915 206.81 64.8926C206.81 65.9238 207.766 66.5039 209.13 66.5039C210.505 66.5039 211.45 65.9238 211.461 64.8926C211.45 63.915 210.505 63.3135 209.13 63.3135ZM222.149 66.5576V67.6426H219.335V69.2969H223.127V70.3926H214.179V69.2969H217.949V67.6426H215.231V62.3896H222.074V63.4854H216.628V64.4629H221.849V65.5371H216.628V66.5576H222.149ZM227.424 62.6904V66.3965H225.275V68.0615C226.226 68.0508 227.128 68.0078 228.144 67.8145L228.262 68.9316C226.983 69.168 225.888 69.1895 224.652 69.2002H223.965V65.3115H226.103V63.7754H223.954V62.6904H227.424ZM232.14 61.7129V71.4883H230.84V61.7129H232.14ZM230.109 61.8955V71.0156H228.831V66.1602H227.832V65.0537H228.831V61.8955H230.109ZM241.378 61.7129V71.5098H239.992V61.7129H241.378ZM236.071 62.4004C237.543 62.4004 238.639 63.7539 238.639 65.8809C238.639 68.0293 237.543 69.3721 236.071 69.3721C234.567 69.3721 233.472 68.0293 233.482 65.8809C233.472 63.7539 234.567 62.4004 236.071 62.4004ZM236.071 63.6357C235.309 63.6357 234.804 64.4307 234.804 65.8809C234.804 67.3418 235.309 68.126 236.071 68.126C236.812 68.126 237.317 67.3418 237.317 65.8809C237.317 64.4307 236.812 63.6357 236.071 63.6357ZM245.331 62.4004C246.824 62.4004 247.898 63.7539 247.909 65.8809C247.898 68.0293 246.824 69.3721 245.331 69.3721C243.838 69.3721 242.742 68.0293 242.753 65.8809C242.742 63.7539 243.838 62.4004 245.331 62.4004ZM245.331 63.6357C244.579 63.6357 244.074 64.4307 244.074 65.8809C244.074 67.3418 244.579 68.126 245.331 68.126C246.094 68.126 246.588 67.3418 246.599 65.8809C246.588 64.4307 246.094 63.6357 245.331 63.6357ZM250.412 61.7129V65.3975H251.852V66.5361H250.412V71.4883H249.037V61.7129H250.412ZM261.122 65.999V67.127H257.33V68.0508H255.966V67.127H252.206V65.999H261.122ZM257.341 68.6201C257.341 69.4258 258.329 70.2314 260.488 70.4141L260.069 71.4453C258.399 71.2949 257.223 70.7471 256.632 69.9521C256.036 70.731 254.881 71.2949 253.237 71.4453L252.775 70.4141C254.902 70.2314 255.923 69.3828 255.934 68.6201V68.4268H257.341V68.6201ZM256.664 61.8311C258.855 61.8311 260.209 62.4971 260.22 63.668C260.209 64.8389 258.855 65.5156 256.664 65.5156C254.483 65.5156 253.098 64.8389 253.098 63.668C253.098 62.4971 254.483 61.8311 256.664 61.8311ZM256.664 62.8408C255.278 62.8408 254.516 63.1309 254.526 63.668C254.516 64.1943 255.278 64.4736 256.664 64.4736C258.028 64.4736 258.802 64.1943 258.802 63.668C258.802 63.1309 258.028 62.8408 256.664 62.8408ZM269.888 62.2607V63.3457H267.943C267.954 64.5005 268.642 65.6821 270.188 66.1924L269.512 67.2451C268.427 66.9014 267.686 66.1924 267.267 65.3115C266.826 66.2891 266.047 67.0786 264.893 67.4492L264.194 66.3643C265.8 65.8486 266.531 64.5649 266.547 63.3457H264.581V62.2607H269.888ZM272.487 67.9648V71.4883H271.123V69.0605H265.773V67.9648H272.487ZM272.487 61.7129V67.5352H271.123V65.1826H269.608V64.0654H271.123V61.7129H272.487ZM282.671 66.3428V67.4385H273.755V66.3428H275.764V65.1719C275.049 64.855 274.646 64.3716 274.646 63.7432C274.646 62.5615 276.032 61.8525 278.213 61.8525C280.372 61.8525 281.758 62.5615 281.769 63.7432C281.763 64.377 281.344 64.8711 280.619 65.1826V66.3428H282.671ZM278.202 67.9541C280.318 67.9541 281.597 68.5771 281.607 69.7051C281.597 70.8545 280.318 71.4775 278.202 71.4775C276.054 71.4775 274.775 70.8545 274.775 69.7051C274.775 68.5771 276.054 67.9541 278.202 67.9541ZM278.202 68.9854C276.849 68.9854 276.161 69.2217 276.172 69.7051C276.161 70.21 276.849 70.457 278.202 70.457C279.523 70.457 280.222 70.21 280.232 69.7051C280.222 69.2217 279.523 68.9854 278.202 68.9854ZM278.213 62.9053C276.827 62.9053 276.064 63.1953 276.075 63.7432C276.064 64.2803 276.827 64.5488 278.213 64.5488C279.577 64.5488 280.351 64.2803 280.351 63.7432C280.351 63.1953 279.577 62.9053 278.213 62.9053ZM277.149 66.3428H279.255V65.5264C278.933 65.564 278.583 65.5801 278.213 65.5801C277.832 65.5801 277.477 65.564 277.149 65.5156V66.3428ZM290.975 61.7129V65.5371H292.414V66.665H290.975V71.4883H289.621V61.7129H290.975ZM288.955 63.1738V64.2695H283.208V63.1738H285.421V61.8633H286.796V63.1738H288.955ZM286.108 64.8174C287.537 64.8174 288.601 65.7842 288.601 67.1484C288.601 68.5127 287.537 69.4795 286.108 69.4795C284.669 69.4795 283.605 68.5127 283.605 67.1484C283.605 65.7842 284.669 64.8174 286.108 64.8174ZM286.108 65.9238C285.421 65.9346 284.916 66.3965 284.916 67.1484C284.916 67.9111 285.421 68.3623 286.108 68.3516C286.796 68.3623 287.29 67.9111 287.29 67.1484C287.29 66.3965 286.796 65.9346 286.108 65.9238ZM300.986 61.7129V71.4883H299.601V61.7129H300.986ZM298.054 62.7334C298.054 65.6982 297.012 68.1582 293.521 69.8125L292.801 68.7168C295.325 67.5244 296.437 65.9775 296.657 63.8076H293.327V62.7334H298.054Z" fill="#1A1C1E"/>
<path d="M178.816 38.5H186.816" stroke="#5FAFFF" stroke-width="1.2"/>
<path d="M178.816 34.5V42.5" stroke="#5FAFFF" stroke-width="1.2"/>
<path d="M187.023 34.5V42.5" stroke="#5FAFFF" stroke-width="1.2"/>
<path d="M176.887 25.8438V31.5H176.176V26.5781H176.145L174.77 27.4922V26.7812L176.176 25.8438H176.887ZM180.363 31.5781C179.379 31.5625 178.301 30.9844 178.301 28.8906C178.301 26.8906 179.121 25.7656 180.449 25.7656C181.441 25.7656 182.137 26.375 182.285 27.2656H181.59C181.457 26.7656 181.082 26.3906 180.449 26.3906C179.52 26.3906 178.965 27.1875 178.965 28.5469H179.035C179.363 28.0781 179.879 27.7969 180.488 27.7969C181.496 27.7969 182.332 28.5781 182.332 29.6719C182.332 30.7344 181.551 31.5859 180.363 31.5781ZM180.363 30.9609C181.098 30.9609 181.645 30.3828 181.652 29.6797C181.645 28.9844 181.121 28.4141 180.379 28.4141C179.637 28.4141 179.066 29.0156 179.059 29.6875C179.059 30.3516 179.605 30.9609 180.363 30.9609ZM183.309 33.0938V27.2578H183.957V27.9297H184.035C184.176 27.7031 184.441 27.2031 185.262 27.2031C186.324 27.2031 187.066 28.0469 187.066 29.3906C187.066 30.7344 186.324 31.5859 185.27 31.5859C184.457 31.5859 184.176 31.0859 184.035 30.8516H183.98V33.0938H183.309ZM183.965 29.375C183.965 30.3281 184.395 30.9844 185.176 30.9844C185.98 30.9844 186.395 30.2812 186.395 29.375C186.395 28.4922 185.988 27.8047 185.176 27.8047C184.379 27.8047 183.965 28.4375 183.965 29.375ZM188.27 27.2578L189.27 28.9844L190.277 27.2578H191.051L189.684 29.375L191.051 31.5H190.285L189.27 29.8594L188.27 31.5H187.496L188.832 29.375L187.496 27.2578H188.27Z" fill="#5FAFFF"/>
<path d="M319.082 38.5H327.082" stroke="#5FAFFF" stroke-width="1.2"/>
<path d="M319.082 34.5V42.5" stroke="#5FAFFF" stroke-width="1.2"/>
<path d="M326.916 34.5V42.5" stroke="#5FAFFF" stroke-width="1.2"/>
<path d="M317.152 25.8438V31.5H316.441V26.5781H316.41L315.035 27.4922V26.7812L316.441 25.8438H317.152ZM320.629 31.5781C319.645 31.5625 318.566 30.9844 318.566 28.8906C318.566 26.8906 319.387 25.7656 320.715 25.7656C321.707 25.7656 322.402 26.375 322.551 27.2656H321.855C321.723 26.7656 321.348 26.3906 320.715 26.3906C319.785 26.3906 319.23 27.1875 319.23 28.5469H319.301C319.629 28.0781 320.145 27.7969 320.754 27.7969C321.762 27.7969 322.598 28.5781 322.598 29.6719C322.598 30.7344 321.816 31.5859 320.629 31.5781ZM320.629 30.9609C321.363 30.9609 321.91 30.3828 321.918 29.6797C321.91 28.9844 321.387 28.4141 320.645 28.4141C319.902 28.4141 319.332 29.0156 319.324 29.6875C319.324 30.3516 319.871 30.9609 320.629 30.9609ZM323.574 33.0938V27.2578H324.223V27.9297H324.301C324.441 27.7031 324.707 27.2031 325.527 27.2031C326.59 27.2031 327.332 28.0469 327.332 29.3906C327.332 30.7344 326.59 31.5859 325.535 31.5859C324.723 31.5859 324.441 31.0859 324.301 30.8516H324.246V33.0938H323.574ZM324.23 29.375C324.23 30.3281 324.66 30.9844 325.441 30.9844C326.246 30.9844 326.66 30.2812 326.66 29.375C326.66 28.4922 326.254 27.8047 325.441 27.8047C324.645 27.8047 324.23 28.4375 324.23 29.375ZM328.535 27.2578L329.535 28.9844L330.543 27.2578H331.316L329.949 29.375L331.316 31.5H330.551L329.535 29.8594L328.535 31.5H327.762L329.098 29.375L327.762 27.2578H328.535Z" fill="#5FAFFF"/>
<path opacity="0.15" d="M131.053 94.5H65.0527C63.3959 94.5 62.0527 95.8431 62.0527 97.5V107.5C62.0527 109.157 63.3959 110.5 65.0527 110.5H131.053C132.71 110.5 134.053 109.157 134.053 107.5V97.5C134.053 95.8431 132.71 94.5 131.053 94.5Z" fill="#5FAFFF"/>
<path d="M77.4512 105.5L75.7109 99.1367H76.5107L77.8379 104.287H77.8994L79.2441 99.1367H80.1318L81.4854 104.287H81.5381L82.8652 99.1367H83.665L81.9248 105.5H81.1074L79.7188 100.464H79.666L78.2686 105.5H77.4512ZM84.4121 105.5V100.728H85.168V105.5H84.4121ZM84.79 99.9365C84.5 99.9365 84.2627 99.7168 84.2627 99.4355C84.2627 99.1543 84.5 98.9346 84.79 98.9346C85.0801 98.9346 85.3262 99.1543 85.3262 99.4355C85.3262 99.7168 85.0801 99.9365 84.79 99.9365ZM88.1738 105.597C86.9873 105.597 86.1436 104.639 86.1436 103.127C86.1436 101.615 86.9873 100.666 88.1826 100.666C89.1055 100.666 89.4043 101.229 89.5625 101.483H89.6152V99.1367H90.3799V105.5H89.6416V104.771H89.5625C89.3955 105.034 89.0879 105.597 88.1738 105.597ZM88.2793 104.92C89.1494 104.92 89.6416 104.182 89.6416 103.109C89.6416 102.055 89.167 101.343 88.2793 101.343C87.3652 101.343 86.9082 102.116 86.9082 103.109C86.9082 104.129 87.374 104.92 88.2793 104.92ZM93.7725 100.728V101.36H92.7705V104.129C92.7705 104.744 93.0693 104.841 93.3945 104.841C93.5352 104.841 93.7285 104.832 93.8428 104.823V105.526C93.7285 105.544 93.5352 105.562 93.3154 105.562C92.6826 105.562 92.0059 105.166 92.0059 104.322V101.36H91.2852V100.728H92.0059V99.585H92.7705V100.728H93.7725ZM95.6094 102.635V105.5H94.8535V99.1367H95.6094V101.475H95.6709C95.8906 100.982 96.3213 100.666 97.0771 100.666C98.0527 100.666 98.7031 101.246 98.7031 102.468V105.5H97.9473V102.521C97.9473 101.773 97.5342 101.343 96.8486 101.343C96.1367 101.343 95.6094 101.809 95.6094 102.635ZM100.452 105.553C100.145 105.553 99.8809 105.298 99.8896 104.981C99.8809 104.674 100.145 104.419 100.452 104.419C100.76 104.419 101.015 104.674 101.015 104.981C101.015 105.298 100.76 105.553 100.452 105.553ZM100.452 102.02C100.145 102.02 99.8809 101.765 99.8896 101.448C99.8809 101.141 100.145 100.886 100.452 100.886C100.76 100.886 101.015 101.141 101.015 101.448C101.015 101.765 100.76 102.02 100.452 102.02ZM104.557 105.5V99.1367H105.348V101.967H108.714V99.1367H109.514V105.5H108.714V102.661H105.348V105.5H104.557ZM113.829 103.54V100.728H114.576V105.5H113.829V104.691H113.776C113.548 105.175 113.082 105.562 112.361 105.562C111.456 105.562 110.814 104.973 110.814 103.76V100.728H111.57V103.707C111.57 104.393 112.001 104.832 112.607 104.832C113.144 104.832 113.829 104.428 113.829 103.54ZM117.723 107.39C116.571 107.39 115.789 106.889 115.701 106.001H116.492C116.598 106.484 117.046 106.73 117.723 106.73C118.54 106.73 119.041 106.379 119.041 105.588V104.621H118.979C118.821 104.885 118.514 105.43 117.591 105.43C116.431 105.43 115.561 104.551 115.561 103.048C115.561 101.58 116.404 100.666 117.6 100.666C118.522 100.666 118.821 101.229 118.997 101.483H119.059V100.728H119.797V105.632C119.797 106.862 118.883 107.39 117.723 107.39ZM117.696 104.753C118.566 104.753 119.059 104.129 119.059 103.074C119.059 102.055 118.584 101.343 117.696 101.343C116.782 101.343 116.325 102.116 116.325 103.074C116.325 104.067 116.791 104.753 117.696 104.753Z" fill="#5FAFFF"/>
<path opacity="0.15" d="M325.951 94.5H179.951C178.294 94.5 176.951 95.8431 176.951 97.5V107.5C176.951 109.157 178.294 110.5 179.951 110.5H325.951C327.608 110.5 328.951 109.157 328.951 107.5V97.5C328.951 95.8431 327.608 94.5 325.951 94.5Z" fill="#5FAFFF"/>
<path d="M232.639 105.5L230.898 99.1367H231.698L233.025 104.287H233.087L234.432 99.1367H235.319L236.673 104.287H236.726L238.053 99.1367H238.853L237.112 105.5H236.295L234.906 100.464H234.854L233.456 105.5H232.639ZM239.6 105.5V100.728H240.355V105.5H239.6ZM239.978 99.9365C239.688 99.9365 239.45 99.7168 239.45 99.4355C239.45 99.1543 239.688 98.9346 239.978 98.9346C240.268 98.9346 240.514 99.1543 240.514 99.4355C240.514 99.7168 240.268 99.9365 239.978 99.9365ZM243.361 105.597C242.175 105.597 241.331 104.639 241.331 103.127C241.331 101.615 242.175 100.666 243.37 100.666C244.293 100.666 244.592 101.229 244.75 101.483H244.803V99.1367H245.567V105.5H244.829V104.771H244.75C244.583 105.034 244.275 105.597 243.361 105.597ZM243.467 104.92C244.337 104.92 244.829 104.182 244.829 103.109C244.829 102.055 244.354 101.343 243.467 101.343C242.553 101.343 242.096 102.116 242.096 103.109C242.096 104.129 242.562 104.92 243.467 104.92ZM248.96 100.728V101.36H247.958V104.129C247.958 104.744 248.257 104.841 248.582 104.841C248.723 104.841 248.916 104.832 249.03 104.823V105.526C248.916 105.544 248.723 105.562 248.503 105.562C247.87 105.562 247.193 105.166 247.193 104.322V101.36H246.473V100.728H247.193V99.585H247.958V100.728H248.96ZM250.797 102.635V105.5H250.041V99.1367H250.797V101.475H250.858C251.078 100.982 251.509 100.666 252.265 100.666C253.24 100.666 253.891 101.246 253.891 102.468V105.5H253.135V102.521C253.135 101.773 252.722 101.343 252.036 101.343C251.324 101.343 250.797 101.809 250.797 102.635ZM255.64 105.553C255.332 105.553 255.068 105.298 255.077 104.981C255.068 104.674 255.332 104.419 255.64 104.419C255.947 104.419 256.202 104.674 256.202 104.981C256.202 105.298 255.947 105.553 255.64 105.553ZM255.64 102.02C255.332 102.02 255.068 101.765 255.077 101.448C255.068 101.141 255.332 100.886 255.64 100.886C255.947 100.886 256.202 101.141 256.202 101.448C256.202 101.765 255.947 102.02 255.64 102.02ZM259.744 105.5V99.1367H260.535V101.967H263.901V99.1367H264.701V105.5H263.901V102.661H260.535V105.5H259.744ZM269.017 103.54V100.728H269.764V105.5H269.017V104.691H268.964C268.735 105.175 268.27 105.562 267.549 105.562C266.644 105.562 266.002 104.973 266.002 103.76V100.728H266.758V103.707C266.758 104.393 267.188 104.832 267.795 104.832C268.331 104.832 269.017 104.428 269.017 103.54ZM272.91 107.39C271.759 107.39 270.977 106.889 270.889 106.001H271.68C271.785 106.484 272.233 106.73 272.91 106.73C273.728 106.73 274.229 106.379 274.229 105.588V104.621H274.167C274.009 104.885 273.701 105.43 272.778 105.43C271.618 105.43 270.748 104.551 270.748 103.048C270.748 101.58 271.592 100.666 272.787 100.666C273.71 100.666 274.009 101.229 274.185 101.483H274.246V100.728H274.984V105.632C274.984 106.862 274.07 107.39 272.91 107.39ZM272.884 104.753C273.754 104.753 274.246 104.129 274.246 103.074C274.246 102.055 273.771 101.343 272.884 101.343C271.97 101.343 271.513 102.116 271.513 103.074C271.513 104.067 271.979 104.753 272.884 104.753Z" fill="#5FAFFF"/>
<path d="M139.293 127.23H140.093V136.28H139.293V127.23ZM137.853 130.87H139.593V131.56H137.853V130.87ZM137.323 127.43H138.113V135.81H137.323V127.43ZM132.493 128.37H136.673V129.05H132.493V128.37ZM132.403 134.05L132.303 133.35C132.603 133.35 132.94 133.35 133.313 133.35C133.693 133.343 134.087 133.333 134.493 133.32C134.907 133.3 135.313 133.277 135.713 133.25C136.12 133.217 136.497 133.177 136.843 133.13L136.893 133.74C136.427 133.827 135.917 133.893 135.363 133.94C134.817 133.987 134.287 134.017 133.773 134.03C133.26 134.043 132.803 134.05 132.403 134.05ZM133.263 128.81H134.023V133.54H133.263V128.81ZM135.143 128.81H135.903V133.54H135.143V128.81ZM148.183 127.23H149.013V132.79H148.183V127.23ZM142.153 131.23H142.893C143.546 131.23 144.119 131.223 144.613 131.21C145.113 131.197 145.573 131.167 145.993 131.12C146.419 131.073 146.849 131.007 147.283 130.92L147.373 131.6C146.926 131.687 146.486 131.753 146.053 131.8C145.619 131.847 145.149 131.88 144.643 131.9C144.143 131.913 143.559 131.92 142.893 131.92H142.153V131.23ZM142.153 127.94H146.403V128.62H142.973V131.61H142.153V127.94ZM146.013 132.81C146.639 132.81 147.179 132.88 147.633 133.02C148.086 133.153 148.436 133.35 148.683 133.61C148.929 133.863 149.053 134.173 149.053 134.54C149.053 134.9 148.929 135.21 148.683 135.47C148.436 135.73 148.086 135.927 147.633 136.06C147.179 136.2 146.639 136.27 146.013 136.27C145.386 136.27 144.846 136.2 144.393 136.06C143.939 135.927 143.589 135.73 143.343 135.47C143.103 135.21 142.983 134.9 142.983 134.54C142.983 134.173 143.103 133.863 143.343 133.61C143.589 133.35 143.939 133.153 144.393 133.02C144.846 132.88 145.386 132.81 146.013 132.81ZM146.013 133.47C145.553 133.47 145.156 133.513 144.823 133.6C144.496 133.68 144.246 133.8 144.073 133.96C143.899 134.12 143.813 134.313 143.813 134.54C143.813 134.76 143.899 134.95 144.073 135.11C144.246 135.27 144.496 135.393 144.823 135.48C145.156 135.567 145.553 135.61 146.013 135.61C146.473 135.61 146.866 135.567 147.193 135.48C147.519 135.393 147.773 135.27 147.953 135.11C148.133 134.95 148.223 134.76 148.223 134.54C148.223 134.313 148.133 134.12 147.953 133.96C147.773 133.8 147.519 133.68 147.193 133.6C146.866 133.513 146.473 133.47 146.013 133.47ZM154.084 128.14H159.904V128.82H154.084V128.14ZM153.214 134.32H161.384V135.01H153.214V134.32ZM156.394 131.09H157.214V134.67H156.394V131.09ZM159.584 128.14H160.414V129.03C160.414 129.403 160.407 129.797 160.394 130.21C160.387 130.623 160.361 131.077 160.314 131.57C160.274 132.063 160.197 132.613 160.084 133.22L159.244 133.12C159.417 132.253 159.517 131.493 159.544 130.84C159.571 130.18 159.584 129.577 159.584 129.03V128.14ZM167.243 129.58H169.273V130.27H167.243V129.58ZM169.023 127.23H169.853V132.62H169.023V127.23ZM166.873 132.9C167.5 132.9 168.036 132.967 168.483 133.1C168.936 133.233 169.283 133.427 169.523 133.68C169.763 133.927 169.883 134.23 169.883 134.59C169.883 135.123 169.613 135.537 169.073 135.83C168.54 136.123 167.806 136.27 166.873 136.27C165.94 136.27 165.203 136.123 164.663 135.83C164.13 135.537 163.863 135.123 163.863 134.59C163.863 134.23 163.983 133.927 164.223 133.68C164.47 133.427 164.816 133.233 165.263 133.1C165.716 132.967 166.253 132.9 166.873 132.9ZM166.873 133.55C166.42 133.55 166.03 133.59 165.703 133.67C165.376 133.75 165.123 133.867 164.943 134.02C164.77 134.173 164.683 134.363 164.683 134.59C164.683 134.803 164.77 134.987 164.943 135.14C165.123 135.293 165.376 135.413 165.703 135.5C166.03 135.58 166.42 135.62 166.873 135.62C167.333 135.62 167.723 135.58 168.043 135.5C168.37 135.413 168.62 135.293 168.793 135.14C168.973 134.987 169.063 134.803 169.063 134.59C169.063 134.363 168.973 134.173 168.793 134.02C168.62 133.867 168.37 133.75 168.043 133.67C167.723 133.59 167.333 133.55 166.873 133.55ZM164.713 128.15H165.393V128.88C165.393 129.433 165.286 129.953 165.073 130.44C164.866 130.92 164.573 131.343 164.193 131.71C163.813 132.07 163.373 132.347 162.873 132.54L162.443 131.88C162.783 131.76 163.09 131.597 163.363 131.39C163.643 131.183 163.883 130.947 164.083 130.68C164.29 130.413 164.446 130.127 164.553 129.82C164.66 129.513 164.713 129.2 164.713 128.88V128.15ZM164.873 128.15H165.553V128.87C165.553 129.257 165.643 129.633 165.823 130C166.003 130.367 166.26 130.69 166.593 130.97C166.926 131.25 167.31 131.47 167.743 131.63L167.323 132.29C166.83 132.11 166.4 131.85 166.033 131.51C165.666 131.163 165.38 130.763 165.173 130.31C164.973 129.857 164.873 129.377 164.873 128.87V128.15ZM162.703 127.89H167.533V128.57H162.703V127.89ZM180.314 133.25C180.414 133.037 180.511 132.85 180.604 132.69C180.704 132.53 180.801 132.397 180.894 132.29H175.064V131.87H180.894C180.801 131.757 180.704 131.62 180.604 131.46C180.511 131.3 180.414 131.117 180.314 130.91H180.664C181.084 131.397 181.524 131.757 181.984 131.99V132.17C181.524 132.397 181.084 132.757 180.664 133.25H180.314ZM190.327 129.61H191.867V130.29H190.327V129.61ZM186.847 131.62H187.417C187.89 131.62 188.307 131.617 188.667 131.61C189.033 131.597 189.377 131.573 189.697 131.54C190.017 131.5 190.34 131.447 190.667 131.38L190.757 132.05C190.41 132.117 190.073 132.17 189.747 132.21C189.42 132.243 189.07 132.267 188.697 132.28C188.33 132.287 187.903 132.29 187.417 132.29H186.847V131.62ZM186.847 127.88H190.267V128.55H187.647V131.91H186.847V127.88ZM187.397 129.71H189.907V130.36H187.397V129.71ZM187.967 133.26H194.057V136.28H193.237V133.94H187.967V133.26ZM193.267 127.24H194.057V132.83H193.267V127.24ZM191.517 127.43H192.307V132.76H191.517V127.43ZM199.256 127.85H199.986V128.55C199.986 128.943 199.916 129.317 199.776 129.67C199.642 130.023 199.456 130.353 199.216 130.66C198.982 130.96 198.709 131.23 198.396 131.47C198.089 131.71 197.759 131.913 197.406 132.08C197.059 132.247 196.706 132.373 196.346 132.46L195.976 131.77C196.289 131.703 196.602 131.6 196.916 131.46C197.236 131.32 197.536 131.15 197.816 130.95C198.096 130.743 198.342 130.513 198.556 130.26C198.776 130.007 198.946 129.737 199.066 129.45C199.192 129.157 199.256 128.857 199.256 128.55V127.85ZM199.416 127.85H200.126V128.55C200.126 128.857 200.189 129.157 200.316 129.45C200.442 129.737 200.612 130.007 200.826 130.26C201.046 130.513 201.296 130.743 201.576 130.95C201.856 131.15 202.152 131.323 202.466 131.47C202.786 131.61 203.106 131.71 203.426 131.77L203.046 132.46C202.686 132.373 202.332 132.247 201.986 132.08C201.639 131.913 201.309 131.71 200.996 131.47C200.689 131.23 200.416 130.96 200.176 130.66C199.936 130.353 199.749 130.023 199.616 129.67C199.482 129.317 199.416 128.943 199.416 128.55V127.85ZM195.636 134.37H203.836V135.06H195.636V134.37ZM205.885 132.11H212.095V132.78H205.885V132.11ZM204.835 134.42H213.035V135.11H204.835V134.42ZM205.885 128.01H212.005V128.69H206.725V132.31H205.885V128.01ZM206.465 130.02H211.805V130.69H206.465V130.02ZM217.704 130.75H219.404V131.43H217.704V130.75ZM220.924 127.23H221.724V136.28H220.924V127.23ZM219.124 127.42H219.914V135.82H219.124V127.42ZM216.064 127.99C216.458 127.99 216.798 128.117 217.084 128.37C217.378 128.623 217.604 128.987 217.764 129.46C217.924 129.933 218.004 130.49 218.004 131.13C218.004 131.777 217.924 132.337 217.764 132.81C217.604 133.283 217.378 133.65 217.084 133.91C216.798 134.163 216.458 134.29 216.064 134.29C215.684 134.29 215.348 134.163 215.054 133.91C214.768 133.65 214.544 133.283 214.384 132.81C214.224 132.337 214.144 131.777 214.144 131.13C214.144 130.49 214.224 129.933 214.384 129.46C214.544 128.987 214.768 128.623 215.054 128.37C215.348 128.117 215.684 127.99 216.064 127.99ZM216.064 128.76C215.831 128.76 215.628 128.857 215.454 129.05C215.281 129.243 215.148 129.517 215.054 129.87C214.961 130.223 214.914 130.643 214.914 131.13C214.914 131.617 214.961 132.04 215.054 132.4C215.148 132.753 215.281 133.027 215.454 133.22C215.628 133.413 215.831 133.51 216.064 133.51C216.304 133.51 216.511 133.413 216.684 133.22C216.864 133.027 217.001 132.753 217.094 132.4C217.188 132.04 217.234 131.617 217.234 131.13C217.234 130.643 217.188 130.223 217.094 129.87C217.001 129.517 216.864 129.243 216.684 129.05C216.511 128.857 216.304 128.76 216.064 128.76ZM231.916 127.22H232.746V136.28H231.916V127.22ZM232.376 130.78H234.046V131.48H232.376V130.78ZM225.906 133.22H226.306C226.566 133.22 226.862 133.21 227.196 133.19C227.536 133.17 227.899 133.117 228.286 133.03L228.366 133.72C227.952 133.807 227.576 133.86 227.236 133.88C226.896 133.9 226.586 133.91 226.306 133.91H225.906V133.22ZM225.906 128.18H228.196V128.86H226.736V133.55H225.906V128.18ZM228.706 133.22H229.136C229.436 133.22 229.709 133.217 229.956 133.21C230.202 133.197 230.439 133.177 230.666 133.15C230.899 133.117 231.136 133.07 231.376 133.01L231.456 133.7C231.202 133.76 230.959 133.807 230.726 133.84C230.492 133.867 230.246 133.887 229.986 133.9C229.732 133.907 229.449 133.91 229.136 133.91H228.706V133.22ZM228.706 128.18H231.096V128.86H229.516V133.56H228.706V128.18ZM240.975 127.23H241.795V136.29H240.975V127.23ZM241.605 130.82H243.275V131.52H241.605V130.82ZM235.215 133.41H235.935C236.495 133.41 237.008 133.403 237.475 133.39C237.948 133.37 238.405 133.34 238.845 133.3C239.285 133.253 239.731 133.187 240.185 133.1L240.265 133.78C239.798 133.867 239.341 133.933 238.895 133.98C238.455 134.027 237.995 134.06 237.515 134.08C237.035 134.1 236.508 134.11 235.935 134.11H235.215V133.41ZM235.195 128.07H239.275V131.32H236.035V133.69H235.215V130.63H238.455V128.75H235.195V128.07ZM253.076 127.23H253.906V136.29H253.076V127.23ZM250.306 130.21H253.346V130.89H250.306V130.21ZM246.946 128.24H247.776V133.85H246.946V128.24ZM246.946 133.4H247.646C248.113 133.4 248.566 133.39 249.006 133.37C249.453 133.35 249.896 133.313 250.336 133.26C250.776 133.207 251.226 133.133 251.686 133.04L251.786 133.73C251.306 133.823 250.839 133.897 250.386 133.95C249.939 134.003 249.489 134.043 249.036 134.07C248.589 134.09 248.126 134.1 247.646 134.1H246.946V133.4ZM262.225 127.23H263.055V136.29H262.225V127.23ZM256.165 128H256.995V130.38H259.605V128H260.425V134.11H256.165V128ZM256.995 131.04V133.42H259.605V131.04H256.995ZM269.497 128.53H270.167V129.99C270.167 130.463 270.1 130.933 269.967 131.4C269.833 131.86 269.647 132.297 269.407 132.71C269.173 133.117 268.903 133.48 268.597 133.8C268.29 134.113 267.96 134.36 267.607 134.54L267.117 133.88C267.443 133.72 267.747 133.503 268.027 133.23C268.313 132.95 268.567 132.633 268.787 132.28C269.007 131.92 269.18 131.547 269.307 131.16C269.433 130.767 269.497 130.377 269.497 129.99V128.53ZM269.657 128.53H270.317V129.99C270.317 130.35 270.373 130.713 270.487 131.08C270.607 131.447 270.773 131.797 270.987 132.13C271.2 132.463 271.447 132.763 271.727 133.03C272.013 133.29 272.317 133.5 272.637 133.66L272.167 134.32C271.813 134.14 271.483 133.9 271.177 133.6C270.87 133.293 270.603 132.947 270.377 132.56C270.15 132.173 269.973 131.76 269.847 131.32C269.72 130.88 269.657 130.437 269.657 129.99V128.53ZM267.437 128.16H272.317V128.85H267.437V128.16ZM273.387 127.23H274.217V136.28H273.387V127.23ZM274.027 130.88H275.697V131.58H274.027V130.88ZM276.466 131.69H284.646V132.36H276.466V131.69ZM280.146 130.24H280.956V131.97H280.146V130.24ZM277.496 129.98H283.686V130.65H277.496V129.98ZM277.496 127.65H283.626V128.31H278.316V130.38H277.496V127.65ZM280.546 133.01C281.512 133.01 282.269 133.153 282.816 133.44C283.362 133.72 283.636 134.12 283.636 134.64C283.636 135.16 283.362 135.56 282.816 135.84C282.269 136.127 281.512 136.27 280.546 136.27C279.579 136.27 278.819 136.127 278.266 135.84C277.719 135.56 277.446 135.16 277.446 134.64C277.446 134.12 277.719 133.72 278.266 133.44C278.819 133.153 279.579 133.01 280.546 133.01ZM280.536 133.66C280.069 133.66 279.666 133.7 279.326 133.78C278.992 133.853 278.736 133.963 278.556 134.11C278.376 134.25 278.286 134.427 278.286 134.64C278.286 134.847 278.376 135.023 278.556 135.17C278.736 135.317 278.992 135.427 279.326 135.5C279.666 135.58 280.069 135.62 280.536 135.62C281.016 135.62 281.422 135.58 281.756 135.5C282.096 135.427 282.356 135.317 282.536 135.17C282.716 135.023 282.806 134.847 282.806 134.64C282.806 134.427 282.716 134.25 282.536 134.11C282.356 133.963 282.096 133.853 281.756 133.78C281.422 133.7 281.016 133.66 280.536 133.66ZM288.077 134.43H296.277V135.12H288.077V134.43ZM291.757 132.24H292.587V134.66H291.757V132.24ZM291.737 128.38H292.447V128.93C292.447 129.303 292.377 129.657 292.237 129.99C292.104 130.317 291.917 130.623 291.677 130.91C291.444 131.19 291.17 131.44 290.857 131.66C290.55 131.873 290.22 132.06 289.867 132.22C289.52 132.373 289.17 132.487 288.817 132.56L288.477 131.9C288.784 131.847 289.094 131.757 289.407 131.63C289.72 131.497 290.014 131.337 290.287 131.15C290.567 130.963 290.814 130.753 291.027 130.52C291.247 130.287 291.42 130.037 291.547 129.77C291.674 129.503 291.737 129.223 291.737 128.93V128.38ZM291.897 128.38H292.597V128.93C292.597 129.223 292.66 129.503 292.787 129.77C292.914 130.03 293.087 130.277 293.307 130.51C293.527 130.743 293.777 130.953 294.057 131.14C294.337 131.32 294.634 131.473 294.947 131.6C295.267 131.727 295.584 131.813 295.897 131.86L295.557 132.52C295.197 132.447 294.84 132.337 294.487 132.19C294.134 132.037 293.8 131.853 293.487 131.64C293.18 131.42 292.907 131.173 292.667 130.9C292.427 130.62 292.237 130.317 292.097 129.99C291.964 129.657 291.897 129.303 291.897 128.93V128.38ZM288.757 128.05H295.577V128.74H288.757V128.05ZM302.106 129.25H304.426V129.92H302.106V129.25ZM299.566 128H300.246V128.61C300.246 129.11 300.14 129.587 299.926 130.04C299.713 130.493 299.416 130.893 299.036 131.24C298.656 131.58 298.216 131.837 297.716 132.01L297.306 131.36C297.64 131.247 297.943 131.097 298.216 130.91C298.49 130.717 298.726 130.497 298.926 130.25C299.133 130.003 299.29 129.74 299.396 129.46C299.51 129.18 299.566 128.897 299.566 128.61V128ZM299.716 128H300.396V128.61C300.396 128.97 300.486 129.317 300.666 129.65C300.853 129.983 301.11 130.283 301.436 130.55C301.763 130.81 302.143 131.007 302.576 131.14L302.186 131.8C301.693 131.633 301.26 131.393 300.886 131.08C300.52 130.76 300.233 130.39 300.026 129.97C299.82 129.543 299.716 129.09 299.716 128.61V128ZM297.556 127.7H302.386V128.38H297.556V127.7ZM303.886 127.23H304.706V131.9H303.886V127.23ZM298.886 132.35H304.706V134.53H299.726V135.93H298.906V133.9H303.886V133.02H298.886V132.35ZM298.906 135.52H305.046V136.18H298.906V135.52Z" fill="#9A9090"/>
<defs>
<linearGradient id="paint0_linear_546_10136" x1="0.5" y1="0.5" x2="114.527" y2="272.74" gradientUnits="userSpaceOnUse">
<stop stop-color="#F3F3F3"/>
<stop offset="1" stop-color="#EBEBEB"/>
</linearGradient>
</defs>
</svg>
