<svg width="390" height="202" viewBox="0 0 390 202" fill="none" xmlns="http://www.w3.org/2000/svg">
<path d="M366 2H16C7.16344 2 0 9.16344 0 18V186C0 194.837 7.16344 202 16 202H366C374.837 202 382 194.837 382 186V18C382 9.16344 374.837 2 366 2Z" fill="white"/>
<path d="M118 192C167.706 192 208 151.706 208 102C208 52.2944 167.706 12 118 12C68.2944 12 28 52.2944 28 102C28 151.706 68.2944 192 118 192Z" fill="#E5C185" fill-opacity="0.07"/>
<path d="M118 152C145.614 152 168 129.614 168 102C168 74.3858 145.614 52 118 52C90.3858 52 68 74.3858 68 102C68 129.614 90.3858 152 118 152Z" fill="#E5C185" fill-opacity="0.05"/>
<path d="M310 160C354.183 160 390 124.183 390 80C390 35.8172 354.183 0 310 0C265.817 0 230 35.8172 230 80C230 124.183 265.817 160 310 160Z" fill="#E5C185" fill-opacity="0.04"/>
</svg>
