<svg width="342" height="87" viewBox="0 0 342 87" fill="none" xmlns="http://www.w3.org/2000/svg">
<path d="M5.52522 74.3642L10.5295 80.3693L5.52522 86.3745L0.520952 80.3693L5.52522 74.3642Z" fill="#E5C185" fill-opacity="0.35" stroke="#E5C185" stroke-opacity="0.6" stroke-width="0.8"/>
<path d="M2.56957 66.7718C2.56957 67.7512 3.01527 68.7364 3.91838 69.1176L3.47855 69.7157C2.86866 69.4401 2.44642 68.9094 2.20598 68.2496C1.96261 68.968 1.52572 69.5486 0.87477 69.8447L0.423213 69.2231C1.35565 68.8302 1.80721 67.8098 1.81307 66.7718V65.9743H2.56957V66.7718ZM4.96224 65.5637V70.9121H4.20574V65.5637H4.96224ZM8.71544 65.8746V66.4727H7.65399C7.65985 67.0973 8.02931 67.7365 8.89724 68.0151L8.51605 68.5956C7.92375 68.405 7.51618 68.0239 7.28453 67.5459C7.04703 68.0678 6.62186 68.4813 6.00024 68.6836L5.60146 68.1089C6.48405 67.8245 6.88576 67.1413 6.89749 66.4727H5.80671V65.8746H8.71544ZM9.91764 65.5637V66.8598H10.639V67.4814H9.91764V68.7833H9.167V65.5637H9.91764ZM9.91764 69.012V70.9003H9.167V69.6043H6.32278V69.012H9.91764Z" fill="#C89840"/>
<path d="M333.805 19.8177C336.845 19.8177 339.31 17.3532 339.31 14.313C339.31 11.2728 336.845 8.8083 333.805 8.8083C330.765 8.8083 328.301 11.2728 328.301 14.313C328.301 17.3532 330.765 19.8177 333.805 19.8177Z" stroke="#CBD5E0" stroke-opacity="0.35" stroke-width="0.8"/>
<path d="M333.805 16.3147C334.911 16.3147 335.807 15.4185 335.807 14.313C335.807 13.2075 334.911 12.3113 333.805 12.3113C332.7 12.3113 331.804 13.2075 331.804 14.313C331.804 15.4185 332.7 16.3147 333.805 16.3147Z" fill="#E8E8E8"/>
<path d="M328.85 1.42504C328.733 1.02627 328.41 0.779962 327.947 0.779962C327.29 0.779962 326.844 1.2843 326.844 2.17568C326.844 3.07293 327.278 3.58313 327.953 3.58313C328.56 3.58313 328.92 3.24007 328.932 2.70348H328.011V2.0408H329.782V2.5686C329.782 3.68283 329.02 4.3631 327.947 4.3631C326.756 4.3631 325.947 3.53036 325.947 2.18741C325.947 0.809284 326.809 0 327.929 0C328.885 0 329.624 0.586438 329.741 1.42504H328.85ZM334.315 2.18155C334.315 3.56554 333.453 4.3631 332.333 4.3631C331.201 4.3631 330.345 3.55968 330.345 2.18155C330.345 0.797555 331.201 0 332.333 0C333.453 0 334.315 0.797555 334.315 2.18155ZM333.418 2.18155C333.418 1.27257 332.99 0.779962 332.333 0.779962C331.677 0.779962 331.243 1.27257 331.243 2.18155C331.243 3.09053 331.677 3.58313 332.333 3.58313C332.99 3.58313 333.418 3.09053 333.418 2.18155ZM335.418 4.30445H334.468L335.94 0.0586438H337.072L338.538 4.30445H337.594L337.277 3.3251H335.741L335.418 4.30445ZM335.963 2.63897H337.054L336.52 1.01454H336.491L335.963 2.63897ZM339.019 4.30445V0.0586438H339.898V3.57727H341.728V4.30445H339.019Z" fill="#D1D1D1"/>
</svg>
