<svg width="332" height="76" viewBox="0 0 332 76" fill="none" xmlns="http://www.w3.org/2000/svg">
<path d="M1.75264 73.8612C13.7707 73.8612 19.7798 53.8311 31.7979 53.8311C43.816 53.8311 49.825 37.8069 61.8431 37.8069C73.8612 37.8069 79.8703 25.7888 91.8884 25.7888C105.509 25.7888 112.319 17.7768 125.94 17.7768C137.958 17.7768 143.967 13.7707 155.985 13.7707C168.003 13.7707 174.012 15.7738 186.03 15.7738C198.048 15.7738 204.057 21.7828 216.075 21.7828C226.491 21.7828 231.699 13.7707 242.115 13.7707C253.332 13.7707 258.94 5.75867 270.157 5.75867C282.175 5.75867 288.184 1.75264 300.202 1.75264C312.22 1.75264 318.229 7.76169 330.247 7.76169" stroke="#E5C185" stroke-opacity="0.08" stroke-width="3.5" stroke-linecap="round" stroke-linejoin="round"/>
<path d="M1.75264 73.8612C11.267 66.3499 22.373 59.6655 31.7979 53.8311C42.3137 47.3213 51.8281 42.8145 61.8431 37.8069C71.1715 33.1428 85.3786 25.7888 91.8884 25.7888" stroke="#D4A017" stroke-width="1.4" stroke-linecap="round" stroke-linejoin="round"/>
<path d="M91.8884 25.7888C105.409 23.7858 112.92 20.7813 125.94 17.7768C137.958 15.0034 143.967 13.7707 155.985 13.7707C168.003 13.7707 175.514 13.7707 186.03 15.7738C196.546 17.7768 209.065 21.7828 216.075 21.7828C223.587 21.7828 233.101 16.7753 242.115 13.7707C251.128 10.7662 259.14 8.7632 270.157 5.75867C281.173 2.75415 290.187 1.75264 300.202 1.75264C310.217 1.75264 319.732 4.25641 330.247 7.76169" stroke="#CBD5E0" stroke-opacity="0.55" stroke-width="0.9" stroke-linecap="round" stroke-linejoin="round" stroke-dasharray="3 4"/>
</svg>
