<svg width="338" height="82" viewBox="0 0 338 82" fill="none" xmlns="http://www.w3.org/2000/svg">
<path d="M4.91055 81.0676C7.40098 81.0676 9.41988 79.0487 9.41988 76.5583C9.41988 74.0678 7.40098 72.0489 4.91055 72.0489C2.42012 72.0489 0.401221 74.0678 0.401221 76.5583C0.401221 79.0487 2.42012 81.0676 4.91055 81.0676Z" fill="#E8E8E8" stroke="#D1D1D1" stroke-width="0.8"/>
<path d="M4.91074 78.3622C5.90692 78.3622 6.71447 77.5547 6.71447 76.5585C6.71447 75.5623 5.90692 74.7547 4.91074 74.7547C3.91457 74.7547 3.10701 75.5623 3.10701 76.5585C3.10701 77.5547 3.91457 78.3622 4.91074 78.3622Z" fill="#D1D1D1"/>
<path d="M34.9727 61.0261C37.4632 61.0261 39.4821 59.0073 39.4821 56.5168C39.4821 54.0264 37.4632 52.0075 34.9727 52.0075C32.4823 52.0075 30.4634 54.0264 30.4634 56.5168C30.4634 59.0073 32.4823 61.0261 34.9727 61.0261Z" fill="#E8E8E8" stroke="#D1D1D1" stroke-width="0.8"/>
<path d="M34.9729 58.3208C35.9691 58.3208 36.7767 57.5132 36.7767 56.517C36.7767 55.5208 35.9691 54.7133 34.9729 54.7133C33.9768 54.7133 33.1692 55.5208 33.1692 56.517C33.1692 57.5132 33.9768 58.3208 34.9729 58.3208Z" fill="#D1D1D1"/>
<path d="M65.0349 44.993C67.5254 44.993 69.5443 42.9741 69.5443 40.4837C69.5443 37.9932 67.5254 35.9743 65.0349 35.9743C62.5445 35.9743 60.5256 37.9932 60.5256 40.4837C60.5256 42.9741 62.5445 44.993 65.0349 44.993Z" fill="#E8E8E8" stroke="#D1D1D1" stroke-width="0.8"/>
<path d="M65.0351 42.2876C66.0313 42.2876 66.8389 41.48 66.8389 40.4838C66.8389 39.4877 66.0313 38.6801 65.0351 38.6801C64.039 38.6801 63.2314 39.4877 63.2314 40.4838C63.2314 41.48 64.039 42.2876 65.0351 42.2876Z" fill="#D1D1D1"/>
<path d="M129.168 24.4505C131.381 24.4505 133.176 22.6559 133.176 20.4422C133.176 18.2285 131.381 16.4339 129.168 16.4339C126.954 16.4339 125.159 18.2285 125.159 20.4422C125.159 22.6559 126.954 24.4505 129.168 24.4505Z" stroke="#CBD5E0" stroke-opacity="0.35" stroke-width="0.8" stroke-dasharray="2 2"/>
<path d="M129.168 21.9453C129.998 21.9453 130.671 21.2723 130.671 20.4422C130.671 19.612 129.998 18.9391 129.168 18.9391C128.337 18.9391 127.664 19.612 127.664 20.4422C127.664 21.2723 128.337 21.9453 129.168 21.9453Z" fill="#E8E8E8"/>
<path d="M159.23 20.4422C161.444 20.4422 163.238 18.6476 163.238 16.4339C163.238 14.2202 161.444 12.4256 159.23 12.4256C157.016 12.4256 155.221 14.2202 155.221 16.4339C155.221 18.6476 157.016 20.4422 159.23 20.4422Z" stroke="#CBD5E0" stroke-opacity="0.35" stroke-width="0.8" stroke-dasharray="2 2"/>
<path d="M159.23 17.937C160.06 17.937 160.733 17.264 160.733 16.4339C160.733 15.6038 160.06 14.9308 159.23 14.9308C158.4 14.9308 157.727 15.6038 157.727 16.4339C157.727 17.264 158.4 17.937 159.23 17.937Z" fill="#E8E8E8"/>
<path d="M189.292 22.4463C191.506 22.4463 193.3 20.6518 193.3 18.438C193.3 16.2243 191.506 14.4298 189.292 14.4298C187.078 14.4298 185.284 16.2243 185.284 18.438C185.284 20.6518 187.078 22.4463 189.292 22.4463Z" stroke="#CBD5E0" stroke-opacity="0.35" stroke-width="0.8" stroke-dasharray="2 2"/>
<path d="M189.292 19.9412C190.122 19.9412 190.795 19.2682 190.795 18.438C190.795 17.6079 190.122 16.9349 189.292 16.9349C188.462 16.9349 187.789 17.6079 187.789 18.438C187.789 19.2682 188.462 19.9412 189.292 19.9412Z" fill="#E8E8E8"/>
<path d="M219.354 28.4588C221.568 28.4588 223.362 26.6642 223.362 24.4505C223.362 22.2368 221.568 20.4422 219.354 20.4422C217.14 20.4422 215.346 22.2368 215.346 24.4505C215.346 26.6642 217.14 28.4588 219.354 28.4588Z" stroke="#CBD5E0" stroke-opacity="0.35" stroke-width="0.8" stroke-dasharray="2 2"/>
<path d="M219.354 25.9536C220.184 25.9536 220.857 25.2806 220.857 24.4505C220.857 23.6203 220.184 22.9474 219.354 22.9474C218.524 22.9474 217.851 23.6203 217.851 24.4505C217.851 25.2806 218.524 25.9536 219.354 25.9536Z" fill="#E8E8E8"/>
<path d="M245.408 20.4422C247.622 20.4422 249.416 18.6476 249.416 16.4339C249.416 14.2202 247.622 12.4256 245.408 12.4256C243.194 12.4256 241.4 14.2202 241.4 16.4339C241.4 18.6476 243.194 20.4422 245.408 20.4422Z" stroke="#CBD5E0" stroke-opacity="0.22" stroke-width="0.8" stroke-dasharray="2 2"/>
<path d="M245.408 17.937C246.238 17.937 246.911 17.264 246.911 16.4339C246.911 15.6038 246.238 14.9308 245.408 14.9308C244.578 14.9308 243.905 15.6038 243.905 16.4339C243.905 17.264 244.578 17.937 245.408 17.937Z" fill="#E8E8E8"/>
<path d="M273.466 12.4256C275.68 12.4256 277.474 10.631 277.474 8.41732C277.474 6.2036 275.68 4.40902 273.466 4.40902C271.252 4.40902 269.458 6.2036 269.458 8.41732C269.458 10.631 271.252 12.4256 273.466 12.4256Z" stroke="#CBD5E0" stroke-opacity="0.22" stroke-width="0.8" stroke-dasharray="2 2"/>
<path d="M273.466 9.92042C274.296 9.92042 274.969 9.24746 274.969 8.41732C274.969 7.58717 274.296 6.91421 273.466 6.91421C272.636 6.91421 271.963 7.58717 271.963 8.41732C271.963 9.24746 272.636 9.92042 273.466 9.92042Z" fill="#E8E8E8"/>
<path d="M303.528 8.41732C305.742 8.41732 307.537 6.62274 307.537 4.40902C307.537 2.1953 305.742 0.400731 303.528 0.400731C301.315 0.400731 299.52 2.1953 299.52 4.40902C299.52 6.62274 301.315 8.41732 303.528 8.41732Z" stroke="#CBD5E0" stroke-opacity="0.22" stroke-width="0.8" stroke-dasharray="2 2"/>
<path d="M303.528 5.91213C304.358 5.91213 305.031 5.23917 305.031 4.40902C305.031 3.57888 304.358 2.90591 303.528 2.90591C302.698 2.90591 302.025 3.57888 302.025 4.40902C302.025 5.23917 302.698 5.91213 303.528 5.91213Z" fill="#E8E8E8"/>
<path d="M333.59 14.4298C335.804 14.4298 337.599 12.6352 337.599 10.4215C337.599 8.20774 335.804 6.41317 333.59 6.41317C331.377 6.41317 329.582 8.20774 329.582 10.4215C329.582 12.6352 331.377 14.4298 333.59 14.4298Z" stroke="#CBD5E0" stroke-opacity="0.22" stroke-width="0.8" stroke-dasharray="2 2"/>
<path d="M333.59 11.9246C334.421 11.9246 335.094 11.2516 335.094 10.4215C335.094 9.59132 334.421 8.91835 333.59 8.91835C332.76 8.91835 332.087 9.59132 332.087 10.4215C332.087 11.2516 332.76 11.9246 333.59 11.9246Z" fill="#E8E8E8"/>
</svg>
