<svg width="82" height="82" viewBox="0 0 82 82" fill="none" xmlns="http://www.w3.org/2000/svg">
<path d="M41 81.2454C63.2269 81.2454 81.2454 63.2269 81.2454 41C81.2454 18.7731 63.2269 0.754601 41 0.754601C18.7731 0.754601 0.754601 18.7731 0.754601 41C0.754601 63.2269 18.7731 81.2454 41 81.2454Z" fill="#F0EEEA" stroke="#E2E0DC" stroke-width="1.5"/>
<path opacity="0.55" d="M15.8466 35.9693L27.9202 27.9202" stroke="#D4A853" stroke-width="1.2"/>
<path opacity="0.55" d="M27.9202 27.9202L41 38.9877" stroke="#D4A853" stroke-width="1.2"/>
<path opacity="0.55" d="M41 38.9877L54.0798 27.9202" stroke="#D4A853" stroke-width="1.2"/>
<path opacity="0.55" d="M54.0798 27.9202L66.1534 35.9693" stroke="#D4A853" stroke-width="1.2"/>
<path opacity="0.75" d="M15.8466 38.9877C17.5136 38.9877 18.865 37.6363 18.865 35.9693C18.865 34.3023 17.5136 32.9509 15.8466 32.9509C14.1796 32.9509 12.8282 34.3023 12.8282 35.9693C12.8282 37.6363 14.1796 38.9877 15.8466 38.9877Z" fill="#D4A853"/>
<path opacity="0.8" d="M27.9202 31.4417C29.8651 31.4417 31.4417 29.8651 31.4417 27.9202C31.4417 25.9754 29.8651 24.3988 27.9202 24.3988C25.9754 24.3988 24.3988 25.9754 24.3988 27.9202C24.3988 29.8651 25.9754 31.4417 27.9202 31.4417Z" fill="#D4A853"/>
<path opacity="0.92" d="M41 44.0184C43.7784 44.0184 46.0307 41.7661 46.0307 38.9877C46.0307 36.2094 43.7784 33.9571 41 33.9571C38.2216 33.9571 35.9693 36.2094 35.9693 38.9877C35.9693 41.7661 38.2216 44.0184 41 44.0184Z" fill="#D4A853"/>
<path opacity="0.18" d="M41 48.0429C46.0011 48.0429 50.0552 43.9888 50.0552 38.9877C50.0552 33.9867 46.0011 29.9325 41 29.9325C35.9989 29.9325 31.9448 33.9867 31.9448 38.9877C31.9448 43.9888 35.9989 48.0429 41 48.0429Z" stroke="#D4A853" stroke-width="0.6"/>
<path opacity="0.8" d="M54.0798 31.4417C56.0246 31.4417 57.6012 29.8651 57.6012 27.9202C57.6012 25.9754 56.0246 24.3988 54.0798 24.3988C52.1349 24.3988 50.5583 25.9754 50.5583 27.9202C50.5583 29.8651 52.1349 31.4417 54.0798 31.4417Z" fill="#D4A853"/>
<path opacity="0.75" d="M66.1534 38.9877C67.8204 38.9877 69.1718 37.6363 69.1718 35.9693C69.1718 34.3023 67.8204 32.9509 66.1534 32.9509C64.4864 32.9509 63.135 34.3023 63.135 35.9693C63.135 37.6363 64.4864 38.9877 66.1534 38.9877Z" fill="#D4A853"/>
<path opacity="0.38" d="M7.79735 22.0845C8.46415 22.0845 9.00471 21.5439 9.00471 20.8771C9.00471 20.2103 8.46415 19.6697 7.79735 19.6697C7.13054 19.6697 6.58999 20.2103 6.58999 20.8771C6.58999 21.5439 7.13054 22.0845 7.79735 22.0845Z" fill="#D4A853"/>
<path opacity="0.38" d="M74.2025 23.8957C74.7581 23.8957 75.2086 23.4452 75.2086 22.8896C75.2086 22.3339 74.7581 21.8834 74.2025 21.8834C73.6468 21.8834 73.1963 22.3339 73.1963 22.8896C73.1963 23.4452 73.6468 23.8957 74.2025 23.8957Z" fill="#8FAF8A"/>
<path opacity="0.32" d="M21.8836 57.4002C22.606 57.4002 23.1916 56.8146 23.1916 56.0922C23.1916 55.3698 22.606 54.7842 21.8836 54.7842C21.1613 54.7842 20.5757 55.3698 20.5757 56.0922C20.5757 56.8146 21.1613 57.4002 21.8836 57.4002Z" fill="#D4A853"/>
<path opacity="0.32" d="M60.1166 55.0859C60.6722 55.0859 61.1227 54.6354 61.1227 54.0798C61.1227 53.5241 60.6722 53.0736 60.1166 53.0736C59.5609 53.0736 59.1104 53.5241 59.1104 54.0798C59.1104 54.6354 59.5609 55.0859 60.1166 55.0859Z" fill="#C4876A"/>
<path opacity="0.35" d="M40.9998 18.0599C41.6666 18.0599 42.2072 17.5194 42.2072 16.8526C42.2072 16.1858 41.6666 15.6452 40.9998 15.6452C40.333 15.6452 39.7924 16.1858 39.7924 16.8526C39.7924 17.5194 40.333 18.0599 40.9998 18.0599Z" fill="#D4A853"/>
<path opacity="0.45" d="M10.816 46.0307L12.3252 42.0061L13.8344 46.0307L17.8589 47.5399L13.8344 49.0491L12.3252 53.0736L10.816 49.0491L6.79141 47.5399L10.816 46.0307Z" stroke="#D4A853" stroke-width="0.7" stroke-linejoin="round"/>
<path opacity="0.4" d="M69.1718 46.0307L70.681 42.0061L72.1902 46.0307L76.2147 47.5399L72.1902 49.0491L70.681 53.0736L69.1718 49.0491L65.1472 47.5399L69.1718 46.0307Z" stroke="#8FAF8A" stroke-width="0.7" stroke-linejoin="round"/>
</svg>
