<svg width="24" height="24" viewBox="0 0 24 24" fill="none" xmlns="http://www.w3.org/2000/svg">
<path d="M12 21C16.9706 21 21 16.9706 21 12C21 7.02944 16.9706 3 12 3C7.02944 3 3 7.02944 3 12C3 16.9706 7.02944 21 12 21Z" stroke="#D1D1D1" stroke-width="1.3"/>
<path d="M12 4.5V6.2" stroke="#D1D1D1" stroke-width="1.1" stroke-linecap="round"/>
<path d="M12 17.7998V19.4998" stroke="#D1D1D1" stroke-width="1.1" stroke-linecap="round"/>
<path d="M4.5 12H6.20001" stroke="#D1D1D1" stroke-width="1.1" stroke-linecap="round"/>
<path d="M17.7998 12H19.4998" stroke="#D1D1D1" stroke-width="1.1" stroke-linecap="round"/>
<path opacity="0.9" d="M10.5996 10.6001L16.8996 7.1001L13.3996 13.4001L10.5996 10.6001Z" fill="#D1D1D1"/>
<path opacity="0.65" d="M13.3996 13.4001L7.09961 16.9001L10.5996 10.6001L13.3996 13.4001Z" fill="#D1D1D1"/>
<path opacity="0.75" d="M11.9996 13.4001C12.7728 13.4001 13.3996 12.7733 13.3996 12.0001C13.3996 11.2269 12.7728 10.6001 11.9996 10.6001C11.2264 10.6001 10.5996 11.2269 10.5996 12.0001C10.5996 12.7733 11.2264 13.4001 11.9996 13.4001Z" fill="#999999"/>
</svg>
