<svg width="430" height="932" viewBox="0 0 430 932" fill="none" xmlns="http://www.w3.org/2000/svg">
<path d="M430 0H0V932H430V0Z" fill="white"/>
<g opacity="0.04">
<path d="M0 40H430" stroke="#1A1C1E" stroke-width="0.5"/>
<path d="M0 80H430" stroke="#1A1C1E" stroke-width="0.5"/>
<path d="M0 120H430" stroke="#1A1C1E" stroke-width="0.5"/>
<path d="M0 160H430" stroke="#1A1C1E" stroke-width="0.5"/>
<path d="M0 200H430" stroke="#1A1C1E" stroke-width="0.5"/>
<path d="M0 240H430" stroke="#1A1C1E" stroke-width="0.5"/>
<path d="M0 280H430" stroke="#1A1C1E" stroke-width="0.5"/>
<path d="M0 320H430" stroke="#1A1C1E" stroke-width="0.5"/>
<path d="M0 360H430" stroke="#1A1C1E" stroke-width="0.5"/>
<path d="M0 400H430" stroke="#1A1C1E" stroke-width="0.5"/>
<path d="M0 440H430" stroke="#1A1C1E" stroke-width="0.5"/>
<path d="M0 480H430" stroke="#1A1C1E" stroke-width="0.5"/>
<path d="M0 520H430" stroke="#1A1C1E" stroke-width="0.5"/>
<path d="M0 560H430" stroke="#1A1C1E" stroke-width="0.5"/>
<path d="M0 600H430" stroke="#1A1C1E" stroke-width="0.5"/>
<path d="M40 0V932" stroke="#1A1C1E" stroke-width="0.5"/>
<path d="M80 0V932" stroke="#1A1C1E" stroke-width="0.5"/>
<path d="M120 0V932" stroke="#1A1C1E" stroke-width="0.5"/>
<path d="M160 0V932" stroke="#1A1C1E" stroke-width="0.5"/>
<path d="M200 0V932" stroke="#1A1C1E" stroke-width="0.5"/>
<path d="M240 0V932" stroke="#1A1C1E" stroke-width="0.5"/>
<path d="M280 0V932" stroke="#1A1C1E" stroke-width="0.5"/>
<path d="M320 0V932" stroke="#1A1C1E" stroke-width="0.5"/>
<path d="M360 0V932" stroke="#1A1C1E" stroke-width="0.5"/>
<path d="M400 0V932" stroke="#1A1C1E" stroke-width="0.5"/>
</g>
<path opacity="0.11" d="M52.0004 97.0999C53.1602 97.0999 54.1004 96.1597 54.1004 94.9999C54.1004 93.8401 53.1602 92.8999 52.0004 92.8999C50.8406 92.8999 49.9004 93.8401 49.9004 94.9999C49.9004 96.1597 50.8406 97.0999 52.0004 97.0999Z" fill="#1A1C1E"/>
<path opacity="0.12" d="M182 59C182.552 59 183 58.5523 183 58C183 57.4477 182.552 57 182 57C181.448 57 181 57.4477 181 58C181 58.5523 181.448 59 182 59Z" fill="#1A1C1E"/>
<path opacity="0.1" d="M342 113.7C342.939 113.7 343.7 112.939 343.7 112C343.7 111.061 342.939 110.3 342 110.3C341.061 110.3 340.3 111.061 340.3 112C340.3 112.939 341.061 113.7 342 113.7Z" fill="#1A1C1E"/>
<path opacity="0.12" d="M288 55.7999C288.442 55.7999 288.8 55.4418 288.8 55C288.8 54.5581 288.442 54.2 288 54.2C287.558 54.2 287.2 54.5581 287.2 55C287.2 55.4418 287.558 55.7999 288 55.7999Z" fill="#1A1C1E"/>
<path opacity="0.11" d="M42.0002 406.3C42.7182 406.3 43.3002 405.718 43.3002 405C43.3002 404.282 42.7182 403.7 42.0002 403.7C41.2822 403.7 40.7002 404.282 40.7002 405C40.7002 405.718 41.2822 406.3 42.0002 406.3Z" fill="#1A1C1E"/>
<path opacity="0.1" d="M395 352.1C396.16 352.1 397.1 351.16 397.1 350C397.1 348.84 396.16 347.9 395 347.9C393.841 347.9 392.9 348.84 392.9 350C392.9 351.16 393.841 352.1 395 352.1Z" fill="#1A1C1E"/>
<path opacity="0.11" d="M87.9998 281.7C88.9387 281.7 89.6998 280.939 89.6998 280C89.6998 279.061 88.9387 278.3 87.9998 278.3C87.0609 278.3 86.2998 279.061 86.2998 280C86.2998 280.939 87.0609 281.7 87.9998 281.7Z" fill="#1A1C1E"/>
<path opacity="0.12" d="M358 266C358.552 266 359 265.552 359 265C359 264.448 358.552 264 358 264C357.448 264 357 264.448 357 265C357 265.552 357.448 266 358 266Z" fill="#1A1C1E"/>
<path opacity="0.36" d="M302 89.6999C302.939 89.6999 303.7 88.9388 303.7 87.9999C303.7 87.061 302.939 86.2999 302 86.2999C301.061 86.2999 300.3 87.061 300.3 87.9999C300.3 88.9388 301.061 89.6999 302 89.6999Z" fill="#D4A853"/>
<path opacity="0.28" d="M48.0004 357.1C49.1602 357.1 50.1004 356.16 50.1004 355C50.1004 353.84 49.1602 352.9 48.0004 352.9C46.8406 352.9 45.9004 353.84 45.9004 355C45.9004 356.16 46.8406 357.1 48.0004 357.1Z" fill="#8FAF8A"/>
<path opacity="0.28" d="M390 421.3C390.718 421.3 391.3 420.718 391.3 420C391.3 419.282 390.718 418.7 390 418.7C389.282 418.7 388.7 419.282 388.7 420C388.7 420.718 389.282 421.3 390 421.3Z" fill="#C4876A"/>
<path opacity="0.45" d="M62 188L65 179L68 188L77 191L68 194L65 203L62 194L53 191L62 188Z" stroke="#D4A853" stroke-width="1.1" stroke-linejoin="round"/>
<path opacity="0.38" d="M368 158L370 152L372 158L378 160L372 162L370 168L368 162L362 160L368 158Z" stroke="#8FAF8A" stroke-width="0.9" stroke-linejoin="round"/>
<path opacity="0.35" d="M25 218L27 212L29 218L35 220L29 222L27 228L25 222L19 220L25 218Z" stroke="#C4876A" stroke-width="0.9" stroke-linejoin="round"/>
<path opacity="0.07" d="M215 450C300.604 450 370 380.604 370 295C370 209.396 300.604 140 215 140C129.396 140 60 209.396 60 295C60 380.604 129.396 450 215 450Z" stroke="#D4A853" stroke-width="0.5"/>
<path opacity="0.1" d="M215 413C280.17 413 333 360.17 333 295C333 229.83 280.17 177 215 177C149.83 177 97 229.83 97 295C97 360.17 149.83 413 215 413Z" stroke="#D4A853" stroke-width="0.5"/>
<path opacity="0.45" d="M95 225L138 252" stroke="#D4A853" stroke-width="1.2"/>
<path opacity="0.45" d="M138 252L168 248" stroke="#D4A853" stroke-width="1.2"/>
<path opacity="0.55" d="M168 248L215 295" stroke="#D4A853" stroke-width="1.4"/>
<path opacity="0.55" d="M215 295L262 332" stroke="#D4A853" stroke-width="1.4"/>
<path opacity="0.45" d="M262 332L285 248" stroke="#D4A853" stroke-width="1.2"/>
<path opacity="0.45" d="M285 248L338 220" stroke="#D4A853" stroke-width="1.2"/>
<path opacity="0.45" d="M215 295V358" stroke="#D4A853" stroke-width="1.2"/>
<path opacity="0.38" d="M215 358L228 405" stroke="#D4A853"/>
<path opacity="0.38" d="M168 248L175 195" stroke="#D4A853"/>
<path opacity="0.92" d="M215 304C219.971 304 224 299.971 224 295C224 290.029 219.971 286 215 286C210.029 286 206 290.029 206 295C206 299.971 210.029 304 215 304Z" fill="#D4A853"/>
<path opacity="0.28" d="M215 311C223.837 311 231 303.837 231 295C231 286.163 223.837 279 215 279C206.163 279 199 286.163 199 295C199 303.837 206.163 311 215 311Z" stroke="#D4A853" stroke-width="0.8"/>
<path opacity="0.14" d="M215 319C228.255 319 239 308.255 239 295C239 281.745 228.255 271 215 271C201.745 271 191 281.745 191 295C191 308.255 201.745 319 215 319Z" stroke="#D4A853" stroke-width="0.5"/>
<path opacity="0.82" d="M168 253.5C171.038 253.5 173.5 251.038 173.5 248C173.5 244.962 171.038 242.5 168 242.5C164.962 242.5 162.5 244.962 162.5 248C162.5 251.038 164.962 253.5 168 253.5Z" fill="#D4A853"/>
<path opacity="0.78" d="M262 337C264.761 337 267 334.761 267 332C267 329.239 264.761 327 262 327C259.239 327 257 329.239 257 332C257 334.761 259.239 337 262 337Z" fill="#D4A853"/>
<path opacity="0.65" d="M95 229C97.2091 229 99 227.209 99 225C99 222.791 97.2091 221 95 221C92.7909 221 91 222.791 91 225C91 227.209 92.7909 229 95 229Z" fill="#D4A853"/>
<path opacity="0.62" d="M138 255.5C139.933 255.5 141.5 253.933 141.5 252C141.5 250.067 139.933 248.5 138 248.5C136.067 248.5 134.5 250.067 134.5 252C134.5 253.933 136.067 255.5 138 255.5Z" fill="#D4A853"/>
<path opacity="0.65" d="M285 252C287.209 252 289 250.209 289 248C289 245.791 287.209 244 285 244C282.791 244 281 245.791 281 248C281 250.209 282.791 252 285 252Z" fill="#D4A853"/>
<path opacity="0.68" d="M338 224.5C340.485 224.5 342.5 222.485 342.5 220C342.5 217.515 340.485 215.5 338 215.5C335.515 215.5 333.5 217.515 333.5 220C333.5 222.485 335.515 224.5 338 224.5Z" fill="#D4A853"/>
<path opacity="0.6" d="M215 361.5C216.933 361.5 218.5 359.933 218.5 358C218.5 356.067 216.933 354.5 215 354.5C213.067 354.5 211.5 356.067 211.5 358C211.5 359.933 213.067 361.5 215 361.5Z" fill="#D4A853"/>
<path opacity="0.52" d="M228 408C229.657 408 231 406.657 231 405C231 403.343 229.657 402 228 402C226.343 402 225 403.343 225 405C225 406.657 226.343 408 228 408Z" fill="#D4A853"/>
<path opacity="0.55" d="M175 198C176.657 198 178 196.657 178 195C178 193.343 176.657 192 175 192C173.343 192 172 193.343 172 195C172 196.657 173.343 198 175 198Z" fill="#D4A853"/>
<path opacity="0.35" d="M208 286.5C208.828 286.5 209.5 285.828 209.5 285C209.5 284.172 208.828 283.5 208 283.5C207.172 283.5 206.5 284.172 206.5 285C206.5 285.828 207.172 286.5 208 286.5Z" fill="#D4A853"/>
<path opacity="0.3" d="M224 287.2C224.663 287.2 225.2 286.663 225.2 286C225.2 285.337 224.663 284.8 224 284.8C223.337 284.8 222.8 285.337 222.8 286C222.8 286.663 223.337 287.2 224 287.2Z" fill="#D4A853"/>
<path opacity="0.28" d="M222 306C222.552 306 223 305.552 223 305C223 304.448 222.552 304 222 304C221.448 304 221 304.448 221 305C221 305.552 221.448 306 222 306Z" fill="#D4A853"/>
<path opacity="0.22" d="M72 187.5C73.3807 187.5 74.5 186.381 74.5 185C74.5 183.619 73.3807 182.5 72 182.5C70.6193 182.5 69.5 183.619 69.5 185C69.5 186.381 70.6193 187.5 72 187.5Z" stroke="#D4A853" stroke-width="0.8"/>
<path opacity="0.2" d="M362 180C363.105 180 364 179.105 364 178C364 176.895 363.105 176 362 176C360.895 176 360 176.895 360 178C360 179.105 360.895 180 362 180Z" stroke="#D4A853" stroke-width="0.8"/>
<path opacity="0.25" d="M88 382C89.1046 382 90 381.105 90 380C90 378.895 89.1046 378 88 378C86.8954 378 86 378.895 86 380C86 381.105 86.8954 382 88 382Z" stroke="#8FAF8A" stroke-width="0.8"/>
<path opacity="0.22" d="M348 390.5C349.381 390.5 350.5 389.381 350.5 388C350.5 386.619 349.381 385.5 348 385.5C346.619 385.5 345.5 386.619 345.5 388C345.5 389.381 346.619 390.5 348 390.5Z" stroke="#8FAF8A" stroke-width="0.8"/>
</svg>
