<svg width="48" height="6" viewBox="0 0 48 6" fill="none" xmlns="http://www.w3.org/2000/svg">
<path opacity="0.85" d="M21 0H3C1.34315 0 0 1.34315 0 3C0 4.65685 1.34315 6 3 6H21C22.6569 6 24 4.65685 24 3C24 1.34315 22.6569 0 21 0Z" fill="#D4A853"/>
<path opacity="0.18" d="M36 3C36 1.34315 34.6569 0 33 0C31.3431 0 30 1.34315 30 3C30 4.65685 31.3431 6 33 6C34.6569 6 36 4.65685 36 3Z" fill="#1A1C1E"/>
<path opacity="0.18" d="M48 3C48 1.34315 46.6569 0 45 0C43.3431 0 42 1.34315 42 3C42 4.65685 43.3431 6 45 6C46.6569 6 48 4.65685 48 3Z" fill="#1A1C1E"/>
</svg>
