<svg width="65" height="65" viewBox="0 0 65 65" fill="none" xmlns="http://www.w3.org/2000/svg">
<g opacity="0.6">
<path d="M56.5 0.5H8.5C4.08172 0.5 0.5 4.08172 0.5 8.5V56.5C0.5 60.9183 4.08172 64.5 8.5 64.5H56.5C60.9183 64.5 64.5 60.9183 64.5 56.5V8.5C64.5 4.08172 60.9183 0.5 56.5 0.5Z" fill="white" stroke="#E2E2E2"/>
<path opacity="0.55" d="M19.5 21C20.8807 21 22 19.8807 22 18.5C22 17.1193 20.8807 16 19.5 16C18.1193 16 17 17.1193 17 18.5C17 19.8807 18.1193 21 19.5 21Z" fill="#C4876A"/>
<path opacity="0.48" d="M32.5 14.5C33.6046 14.5 34.5 13.6046 34.5 12.5C34.5 11.3954 33.6046 10.5 32.5 10.5C31.3954 10.5 30.5 11.3954 30.5 12.5C30.5 13.6046 31.3954 14.5 32.5 14.5Z" fill="#C4876A"/>
<path opacity="0.55" d="M46.5 23C47.8807 23 49 21.8807 49 20.5C49 19.1193 47.8807 18 46.5 18C45.1193 18 44 19.1193 44 20.5C44 21.8807 45.1193 23 46.5 23Z" fill="#C4876A"/>
<path opacity="0.45" d="M38.5 34.5C39.6046 34.5 40.5 33.6046 40.5 32.5C40.5 31.3954 39.6046 30.5 38.5 30.5C37.3954 30.5 36.5 31.3954 36.5 32.5C36.5 33.6046 37.3954 34.5 38.5 34.5Z" fill="#C4876A"/>
<path opacity="0.38" d="M19.5 18.5L32.5 12.5" stroke="#C4876A" stroke-width="0.8"/>
<path opacity="0.38" d="M32.5 12.5L46.5 20.5" stroke="#C4876A" stroke-width="0.8"/>
<path opacity="0.35" d="M46.5 20.5L38.5 32.5" stroke="#C4876A" stroke-width="0.8"/>
<path opacity="0.25" d="M32.5 52.5C36.366 52.5 39.5 49.366 39.5 45.5C39.5 41.634 36.366 38.5 32.5 38.5C28.634 38.5 25.5 41.634 25.5 45.5C25.5 49.366 28.634 52.5 32.5 52.5Z" fill="#C4876A"/>
<path opacity="0.7" d="M28.5 45.5L31.5 48.5L37.5 42.5" stroke="#C4876A" stroke-width="1.3" stroke-linecap="round" stroke-linejoin="round"/>
</g>
</svg>
