<svg width="434" height="2015" viewBox="0 0 434 2015" fill="none" xmlns="http://www.w3.org/2000/svg">
<path d="M430 0H0V2015H430V0Z" fill="url(#paint0_linear_577_1204)"/>
<g opacity="0.03">
<path d="M0 40.687H430" stroke="#1A1C1E" stroke-width="0.5"/>
<path d="M0 81.3735H430" stroke="#1A1C1E" stroke-width="0.5"/>
<path d="M0 122.061H430" stroke="#1A1C1E" stroke-width="0.5"/>
<path d="M0 162.748H430" stroke="#1A1C1E" stroke-width="0.5"/>
<path d="M0 203.435H430" stroke="#1A1C1E" stroke-width="0.5"/>
<path d="M0 244.121H430" stroke="#1A1C1E" stroke-width="0.5"/>
<path d="M0 284.808H430" stroke="#1A1C1E" stroke-width="0.5"/>
<path d="M0 325.495H430" stroke="#1A1C1E" stroke-width="0.5"/>
<path d="M0 366.182H430" stroke="#1A1C1E" stroke-width="0.5"/>
<path d="M0 406.869H430" stroke="#1A1C1E" stroke-width="0.5"/>
<path d="M0 447.556H430" stroke="#1A1C1E" stroke-width="0.5"/>
<path d="M0 488.242H430" stroke="#1A1C1E" stroke-width="0.5"/>
<path d="M0 528.929H430" stroke="#1A1C1E" stroke-width="0.5"/>
<path d="M0 569.616H430" stroke="#1A1C1E" stroke-width="0.5"/>
<path d="M0 610.303H430" stroke="#1A1C1E" stroke-width="0.5"/>
<path d="M0 650.99H430" stroke="#1A1C1E" stroke-width="0.5"/>
<path d="M0 691.677H430" stroke="#1A1C1E" stroke-width="0.5"/>
<path d="M0 732.364H430" stroke="#1A1C1E" stroke-width="0.5"/>
<path d="M0 773.05H430" stroke="#1A1C1E" stroke-width="0.5"/>
<path d="M0 813.737H430" stroke="#1A1C1E" stroke-width="0.5"/>
<path d="M0 854.424H430" stroke="#1A1C1E" stroke-width="0.5"/>
<path d="M0 895.111H430" stroke="#1A1C1E" stroke-width="0.5"/>
<path d="M40.001 0V2014" stroke="#1A1C1E" stroke-width="0.5"/>
<path d="M80 0V2014" stroke="#1A1C1E" stroke-width="0.5"/>
<path d="M119.999 0V2014" stroke="#1A1C1E" stroke-width="0.5"/>
<path d="M160 0V2014" stroke="#1A1C1E" stroke-width="0.5"/>
<path d="M200 0V2014" stroke="#1A1C1E" stroke-width="0.5"/>
<path d="M240 0V2014" stroke="#1A1C1E" stroke-width="0.5"/>
<path d="M280 0V2014" stroke="#1A1C1E" stroke-width="0.5"/>
<path d="M320 0V2014" stroke="#1A1C1E" stroke-width="0.5"/>
<path d="M359.999 0V2014" stroke="#1A1C1E" stroke-width="0.5"/>
<path d="M400 0V2014" stroke="#1A1C1E" stroke-width="0.5"/>
</g>
<path opacity="0.11" d="M60.2207 151.864C60.9137 151.864 61.4755 151.272 61.4755 150.542C61.4755 149.811 60.9137 149.219 60.2207 149.219C59.5276 149.219 58.9658 149.811 58.9658 150.542C58.9658 151.272 59.5276 151.864 60.2207 151.864Z" fill="#1A1C1E"/>
<path opacity="0.1" d="M384.547 196.213C385.027 196.213 385.416 195.803 385.416 195.297C385.416 194.791 385.027 194.381 384.547 194.381C384.068 194.381 383.679 194.791 383.679 195.297C383.679 195.803 384.068 196.213 384.547 196.213Z" fill="#1A1C1E"/>
<path opacity="0.09" d="M123.928 274.331C124.834 274.331 125.569 273.557 125.569 272.602C125.569 271.647 124.834 270.873 123.928 270.873C123.022 270.873 122.287 271.647 122.287 272.602C122.287 273.557 123.022 274.331 123.928 274.331Z" fill="#1A1C1E"/>
<path opacity="0.11" d="M311.19 316.34C311.723 316.34 312.155 315.885 312.155 315.323C312.155 314.762 311.723 314.306 311.19 314.306C310.657 314.306 310.225 314.762 310.225 315.323C310.225 315.885 310.657 316.34 311.19 316.34Z" fill="#1A1C1E"/>
<path opacity="0.09" d="M52.4987 530.455C53.2983 530.455 53.9466 529.772 53.9466 528.929C53.9466 528.086 53.2983 527.403 52.4987 527.403C51.699 527.403 51.0508 528.086 51.0508 528.929C51.0508 529.772 51.699 530.455 52.4987 530.455Z" fill="#1A1C1E"/>
<path opacity="0.1" d="M398.062 621.593C398.648 621.593 399.124 621.092 399.124 620.474C399.124 619.856 398.648 619.355 398.062 619.355C397.475 619.355 397 619.856 397 620.474C397 621.092 397.475 621.593 398.062 621.593Z" fill="#1A1C1E"/>
<path opacity="0.09" d="M85.3175 754.538C86.2771 754.538 87.055 753.718 87.055 752.707C87.055 751.696 86.2771 750.876 85.3175 750.876C84.358 750.876 83.5801 751.696 83.5801 752.707C83.5801 753.718 84.358 754.538 85.3175 754.538Z" fill="#1A1C1E"/>
<path opacity="0.1" d="M353.66 845.473C354.3 845.473 354.819 844.926 354.819 844.252C354.819 843.578 354.3 843.032 353.66 843.032C353.021 843.032 352.502 843.578 352.502 844.252C352.502 844.926 353.021 845.473 353.66 845.473Z" fill="#1A1C1E"/>
<path opacity="0.09" d="M69.8727 1039.04C70.6723 1039.04 71.3206 1038.36 71.3206 1037.52C71.3206 1036.67 70.6723 1035.99 69.8727 1035.99C69.073 1035.99 68.4248 1036.67 68.4248 1037.52C68.4248 1038.36 69.073 1039.04 69.8727 1039.04Z" fill="#1A1C1E"/>
<path opacity="0.1" d="M394.201 1140.25C394.734 1140.25 395.166 1139.79 395.166 1139.23C395.166 1138.67 394.734 1138.21 394.201 1138.21C393.668 1138.21 393.235 1138.67 393.235 1139.23C393.235 1139.79 393.668 1140.25 394.201 1140.25Z" fill="#1A1C1E"/>
<path opacity="0.09" d="M118.137 1303.71C119.043 1303.71 119.778 1302.93 119.778 1301.98C119.778 1301.02 119.043 1300.25 118.137 1300.25C117.231 1300.25 116.496 1301.02 116.496 1301.98C116.496 1302.93 117.231 1303.71 118.137 1303.71Z" fill="#1A1C1E"/>
<path opacity="0.1" d="M345.938 1404.92C346.577 1404.92 347.096 1404.37 347.096 1403.7C347.096 1403.02 346.577 1402.48 345.938 1402.48C345.298 1402.48 344.779 1403.02 344.779 1403.7C344.779 1404.37 345.298 1404.92 345.938 1404.92Z" fill="#1A1C1E"/>
<path opacity="0.09" d="M63.118 1588.21C63.8643 1588.21 64.4693 1587.57 64.4693 1586.79C64.4693 1586 63.8643 1585.36 63.118 1585.36C62.3716 1585.36 61.7666 1586 61.7666 1586.79C61.7666 1587.57 62.3716 1588.21 63.118 1588.21Z" fill="#1A1C1E"/>
<path opacity="0.1" d="M386.479 1709.87C387.012 1709.87 387.444 1709.41 387.444 1708.85C387.444 1708.29 387.012 1707.83 386.479 1707.83C385.946 1707.83 385.514 1708.29 385.514 1708.85C385.514 1709.41 385.946 1709.87 386.479 1709.87Z" fill="#1A1C1E"/>
<path opacity="0.38" d="M365.243 164.578C366.203 164.578 366.981 163.759 366.981 162.747C366.981 161.736 366.203 160.917 365.243 160.917C364.284 160.917 363.506 161.736 363.506 162.747C363.506 163.759 364.284 164.578 365.243 164.578Z" fill="#D4A853"/>
<path opacity="0.32" d="M94.9704 429.348C96.0899 429.348 96.9974 428.392 96.9974 427.212C96.9974 426.033 96.0899 425.076 94.9704 425.076C93.8509 425.076 92.9434 426.033 92.9434 427.212C92.9434 428.392 93.8509 429.348 94.9704 429.348Z" fill="#D4A853"/>
<path opacity="0.35" d="M403.853 489.666C404.6 489.666 405.205 489.029 405.205 488.242C405.205 487.456 404.6 486.818 403.853 486.818C403.107 486.818 402.502 487.456 402.502 488.242C402.502 489.029 403.107 489.666 403.853 489.666Z" fill="#D4A853"/>
<path opacity="0.3" d="M40.9172 693.507C41.8767 693.507 42.6546 692.688 42.6546 691.677C42.6546 690.665 41.8767 689.846 40.9172 689.846C39.9576 689.846 39.1797 690.665 39.1797 691.677C39.1797 692.688 39.9576 693.507 40.9172 693.507Z" fill="#D4A853"/>
<path opacity="0.32" d="M291.883 897.247C293.003 897.247 293.911 896.291 293.911 895.111C293.911 893.931 293.003 892.975 291.883 892.975C290.764 892.975 289.856 893.931 289.856 895.111C289.856 896.291 290.764 897.247 291.883 897.247Z" fill="#D4A853"/>
<path opacity="0.3" d="M413.507 1069.45C414.253 1069.45 414.858 1068.82 414.858 1068.03C414.858 1067.24 414.253 1066.61 413.507 1066.61C412.76 1066.61 412.155 1067.24 412.155 1068.03C412.155 1068.82 412.76 1069.45 413.507 1069.45Z" fill="#D4A853"/>
<path opacity="0.28" d="M66.0129 1202.09C66.9724 1202.09 67.7503 1201.27 67.7503 1200.26C67.7503 1199.25 66.9724 1198.43 66.0129 1198.43C65.0533 1198.43 64.2754 1199.25 64.2754 1200.26C64.2754 1201.27 65.0533 1202.09 66.0129 1202.09Z" fill="#D4A853"/>
<path opacity="0.3" d="M336.286 1487.21C337.405 1487.21 338.313 1486.25 338.313 1485.07C338.313 1483.89 337.405 1482.93 336.286 1482.93C335.166 1482.93 334.259 1483.89 334.259 1485.07C334.259 1486.25 335.166 1487.21 336.286 1487.21Z" fill="#D4A853"/>
<path opacity="0.28" d="M89.1785 1750.96C89.9248 1750.96 90.5299 1750.32 90.5299 1749.54C90.5299 1748.75 89.9248 1748.11 89.1785 1748.11C88.4322 1748.11 87.8271 1748.75 87.8271 1749.54C87.8271 1750.32 88.4322 1750.96 89.1785 1750.96Z" fill="#D4A853"/>
<path opacity="0.36" d="M147.094 194.788C147.894 194.788 148.542 194.105 148.542 193.263C148.542 192.42 147.894 191.737 147.094 191.737C146.295 191.737 145.646 192.42 145.646 193.263C145.646 194.105 146.295 194.788 147.094 194.788Z" fill="#8FAF8A"/>
<path opacity="0.3" d="M378.756 388.458C379.769 388.458 380.59 387.593 380.59 386.525C380.59 385.458 379.769 384.593 378.756 384.593C377.743 384.593 376.922 385.458 376.922 386.525C376.922 387.593 377.743 388.458 378.756 388.458Z" fill="#8FAF8A"/>
<path opacity="0.3" d="M37.0553 876.294C37.855 876.294 38.5032 875.611 38.5032 874.768C38.5032 873.925 37.855 873.242 37.0553 873.242C36.2557 873.242 35.6074 873.925 35.6074 874.768C35.6074 875.611 36.2557 876.294 37.0553 876.294Z" fill="#8FAF8A"/>
<path opacity="0.28" d="M409.646 977.705C410.285 977.705 410.804 977.158 410.804 976.484C410.804 975.81 410.285 975.264 409.646 975.264C409.006 975.264 408.487 975.81 408.487 976.484C408.487 977.158 409.006 977.705 409.646 977.705Z" fill="#8FAF8A"/>
<path opacity="0.28" d="M172.192 1120.82C173.205 1120.82 174.026 1119.96 174.026 1118.89C174.026 1117.82 173.205 1116.96 172.192 1116.96C171.179 1116.96 170.358 1117.82 170.358 1118.89C170.358 1119.96 171.179 1120.82 172.192 1120.82Z" fill="#8FAF8A"/>
<path opacity="0.26" d="M48.6383 1425.57C49.438 1425.57 50.0862 1424.88 50.0862 1424.04C50.0862 1423.2 49.438 1422.51 48.6383 1422.51C47.8387 1422.51 47.1904 1423.2 47.1904 1424.04C47.1904 1424.88 47.8387 1425.57 48.6383 1425.57Z" fill="#8FAF8A"/>
<path opacity="0.28" d="M403.854 1608.35C404.493 1608.35 405.012 1607.8 405.012 1607.13C405.012 1606.46 404.493 1605.91 403.854 1605.91C403.214 1605.91 402.695 1606.46 402.695 1607.13C402.695 1607.8 403.214 1608.35 403.854 1608.35Z" fill="#8FAF8A"/>
<path opacity="0.32" d="M81.4575 316.951C82.3105 316.951 83.0019 316.222 83.0019 315.323C83.0019 314.424 82.3105 313.696 81.4575 313.696C80.6045 313.696 79.9131 314.424 79.9131 315.323C79.9131 316.222 80.6045 316.951 81.4575 316.951Z" fill="#C4876A"/>
<path opacity="0.28" d="M392.27 733.686C392.963 733.686 393.525 733.094 393.525 732.364C393.525 731.634 392.963 731.042 392.27 731.042C391.577 731.042 391.016 731.634 391.016 732.364C391.016 733.094 391.577 733.686 392.27 733.686Z" fill="#C4876A"/>
<path opacity="0.26" d="M135.512 1008.83C136.471 1008.83 137.249 1008.01 137.249 1007C137.249 1005.99 136.471 1005.17 135.512 1005.17C134.552 1005.17 133.774 1005.99 133.774 1007C133.774 1008.01 134.552 1008.83 135.512 1008.83Z" fill="#C4876A"/>
<path opacity="0.28" d="M369.104 1262.72C369.851 1262.72 370.456 1262.08 370.456 1261.29C370.456 1260.51 369.851 1259.87 369.104 1259.87C368.358 1259.87 367.753 1260.51 367.753 1261.29C367.753 1262.08 368.358 1262.72 369.104 1262.72Z" fill="#C4876A"/>
<path opacity="0.26" d="M102.692 1649.45C103.545 1649.45 104.236 1648.72 104.236 1647.82C104.236 1646.92 103.545 1646.19 102.692 1646.19C101.839 1646.19 101.147 1646.92 101.147 1647.82C101.147 1648.72 101.839 1649.45 102.692 1649.45Z" fill="#C4876A"/>
<path opacity="0.52" d="M60.2209 231.915L63.5993 221.743L66.9777 231.915L76.6303 235.475L66.9777 239.035L63.5993 249.207L60.2209 239.035L50.5684 235.475L60.2209 231.915Z" stroke="#D4A853" stroke-width="1.1" stroke-linejoin="round"/>
<path opacity="0.42" d="M384.548 447.556L386.479 441.453L388.409 447.556L394.201 449.59L388.409 451.624L386.479 457.727L384.548 451.624L378.757 449.59L384.548 447.556Z" stroke="#D4A853" stroke-width="0.9" stroke-linejoin="round"/>
<path opacity="0.45" d="M44.7777 773.05L47.1909 764.913L49.604 773.05L57.3261 776.102L49.604 779.153L47.1909 787.291L44.7777 779.153L37.0557 776.102L44.7777 773.05Z" stroke="#8FAF8A" stroke-linejoin="round"/>
<path opacity="0.38" d="M396.132 559.444L398.063 553.341L399.993 559.444L405.785 561.479L399.993 563.513L398.063 569.616L396.132 563.513L390.341 561.479L396.132 559.444Z" stroke="#C4876A" stroke-width="0.9" stroke-linejoin="round"/>
<path opacity="0.4" d="M399.993 1068.03L402.888 1059.89L405.784 1068.03L413.506 1071.08L405.784 1074.13L402.888 1082.27L399.993 1074.13L392.271 1071.08L399.993 1068.03Z" stroke="#D4A853" stroke-linejoin="round"/>
<path opacity="0.38" d="M31.2632 1220.61L33.1937 1214.5L35.1243 1220.61L40.9158 1222.64L35.1243 1224.67L33.1937 1230.78L31.2632 1224.67L25.4717 1222.64L31.2632 1220.61Z" stroke="#8FAF8A" stroke-width="0.9" stroke-linejoin="round"/>
<path opacity="0.38" d="M382.618 1566.44L385.513 1558.31L388.409 1566.44L396.131 1569.5L388.409 1572.55L385.513 1580.68L382.618 1572.55L374.896 1569.5L382.618 1566.44Z" stroke="#D4A853" stroke-linejoin="round"/>
<path opacity="0.35" d="M50.5689 1729.19L52.4994 1723.09L54.4299 1729.19L60.2215 1731.23L54.4299 1733.26L52.4994 1739.36L50.5689 1733.26L44.7773 1731.23L50.5689 1729.19Z" stroke="#C4876A" stroke-width="0.9" stroke-linejoin="round"/>
<mask id="mask0_577_1204" style="mask-type:luminance" maskUnits="userSpaceOnUse" x="251" y="704" width="183" height="92">
<path d="M414.642 704.818L251.498 732.09L270.13 795.879L433.274 768.608L414.642 704.818Z" fill="white"/>
</mask>
<g mask="url(#mask0_577_1204)">
<path opacity="0.16" d="M367.07 803.871C416.846 794.59 453.787 773.73 449.58 757.277C445.372 740.825 401.61 735.01 351.834 744.291C302.058 753.571 265.117 774.432 269.324 790.885C273.532 807.337 317.294 813.151 367.07 803.871Z" stroke="#1A1C1E" stroke-width="1.1" stroke-linecap="round" stroke-dasharray="5 4"/>
</g>
<path opacity="0.8" d="M359.451 822.906C385.04 822.906 405.784 801.046 405.784 774.082C405.784 747.117 385.04 725.257 359.451 725.257C333.863 725.257 313.119 747.117 313.119 774.082C313.119 801.046 333.863 822.906 359.451 822.906Z" fill="#F9F9F9" stroke="#1A1C1E" stroke-width="1.2"/>
<path opacity="0.11" d="M318.911 763.91C331.781 759.841 345.295 758.824 359.452 760.858C373.609 762.892 387.123 761.875 399.993 757.807" stroke="#1A1C1E" stroke-width="0.8" stroke-linecap="round"/>
<path opacity="0.09" d="M315.05 774.081C330.494 770.012 345.295 768.995 359.452 771.03C373.609 773.064 388.409 772.047 403.853 767.978" stroke="#1A1C1E" stroke-width="0.8" stroke-linecap="round"/>
<path opacity="0.08" d="M318.911 784.253C333.068 780.862 346.582 779.845 359.452 781.201C372.322 783.236 385.836 782.558 399.993 779.167" stroke="#1A1C1E" stroke-width="0.8" stroke-linecap="round"/>
<path opacity="0.2" d="M321.807 767.979C334.033 763.91 346.582 762.893 359.452 764.927C372.322 766.961 384.87 765.944 397.097 761.875" stroke="#D4A853" stroke-width="1.4" stroke-linecap="round"/>
<path opacity="0.16" d="M322.771 777.133C334.998 773.742 347.225 773.064 359.451 775.098C371.678 777.133 383.904 776.116 396.131 772.047" stroke="#8FAF8A" stroke-linecap="round"/>
<mask id="mask1_577_1204" style="mask-type:luminance" maskUnits="userSpaceOnUse" x="262" y="758" width="172" height="68">
<path d="M422.562 758.937L262.783 787.376L273.369 825.923L433.148 797.484L422.562 758.937Z" fill="white"/>
</mask>
<g mask="url(#mask1_577_1204)">
<path d="M367.069 803.871C416.846 794.591 453.786 773.73 449.579 757.278C445.371 740.825 401.609 735.011 351.833 744.291C302.057 753.572 265.116 774.433 269.323 790.885C273.531 807.338 317.293 813.152 367.069 803.871Z" stroke="#F5F3EF" stroke-width="5"/>
</g>
<mask id="mask2_577_1204" style="mask-type:luminance" maskUnits="userSpaceOnUse" x="262" y="759" width="170" height="69">
<path d="M420.656 759.317L262.09 787.364L273.146 827.377L431.712 799.33L420.656 759.317Z" fill="white"/>
</mask>
<g mask="url(#mask2_577_1204)">
<path opacity="0.18" d="M367.069 803.87C416.846 794.589 453.786 773.729 449.579 757.276C445.371 740.824 401.609 735.009 351.833 744.29C302.057 753.57 265.116 774.431 269.323 790.884C273.531 807.336 317.293 813.15 367.069 803.87Z" stroke="#1A1C1E" stroke-width="1.1" stroke-linecap="round"/>
</g>
<path opacity="0.5" d="M274.509 757.807C276.642 757.807 278.37 755.985 278.37 753.738C278.37 751.491 276.642 749.669 274.509 749.669C272.377 749.669 270.648 751.491 270.648 753.738C270.648 755.985 272.377 757.807 274.509 757.807Z" fill="#F9F9F9" stroke="#1A1C1E"/>
<path opacity="0.4" d="M413.506 786.681C414.252 786.681 414.857 786.043 414.857 785.257C414.857 784.47 414.252 783.833 413.506 783.833C412.759 783.833 412.154 784.47 412.154 785.257C412.154 786.043 412.759 786.681 413.506 786.681Z" fill="#D4A853"/>
<path opacity="0.36" d="M309.259 884.125C309.899 884.125 310.417 883.579 310.417 882.905C310.417 882.231 309.899 881.684 309.259 881.684C308.619 881.684 308.101 882.231 308.101 882.905C308.101 883.579 308.619 884.125 309.259 884.125Z" fill="#8FAF8A"/>
<mask id="mask3_577_1204" style="mask-type:luminance" maskUnits="userSpaceOnUse" x="8" y="1396" width="131" height="61">
<path d="M138.105 1412.31L19.5234 1396.71L8.18465 1441.03L126.766 1456.63L138.105 1412.31Z" fill="white"/>
</mask>
<g mask="url(#mask3_577_1204)">
<path opacity="0.14" d="M61.7884 1463.81C95.6784 1468.92 125.043 1464.37 127.377 1453.64C129.711 1442.91 104.129 1430.07 70.2392 1424.96C36.3492 1419.84 6.98421 1424.39 4.65059 1435.12C2.31697 1445.85 27.8984 1458.7 61.7884 1463.81Z" stroke="#1A1C1E" stroke-linecap="round" stroke-dasharray="4 4"/>
</g>
<path opacity="0.75" d="M66.0123 1476.93C83.0714 1476.93 96.9005 1462.36 96.9005 1444.38C96.9005 1426.41 83.0714 1411.83 66.0123 1411.83C48.9532 1411.83 35.124 1426.41 35.124 1444.38C35.124 1462.36 48.9532 1476.93 66.0123 1476.93Z" fill="#F9F9F9" stroke="#1A1C1E" stroke-width="1.1"/>
<path opacity="0.1" d="M38.9854 1437.26C47.9944 1433.87 57.0035 1432.86 66.0126 1434.21C75.0216 1435.57 84.0307 1434.89 93.0398 1432.18" stroke="#1A1C1E" stroke-width="0.7" stroke-linecap="round"/>
<path opacity="0.08" d="M37.0557 1444.38C46.7082 1440.99 56.3608 1439.98 66.0134 1441.33C75.666 1443.37 85.3185 1442.69 94.9711 1439.3" stroke="#1A1C1E" stroke-width="0.7" stroke-linecap="round"/>
<path opacity="0.18" d="M38.9854 1451.5C47.9944 1448.79 57.0035 1448.11 66.0126 1449.47C75.0216 1450.83 84.0307 1450.15 93.0398 1447.44" stroke="#D4A853" stroke-width="1.2" stroke-linecap="round"/>
<mask id="mask4_577_1204" style="mask-type:luminance" maskUnits="userSpaceOnUse" x="3" y="1433" width="133" height="51">
<path d="M135.949 1450.81L11.1836 1433.53L3.2749 1466.05L128.04 1483.33L135.949 1450.81Z" fill="white"/>
</mask>
<g mask="url(#mask4_577_1204)">
<path opacity="0.16" d="M61.7874 1463.81C95.6774 1468.92 125.042 1464.37 127.376 1453.64C129.71 1442.91 104.128 1430.07 70.2382 1424.96C36.3482 1419.84 6.98323 1424.39 4.64961 1435.12C2.31599 1445.85 27.8975 1458.7 61.7874 1463.81Z" stroke="#1A1C1E" stroke-linecap="round"/>
</g>
<path opacity="0.45" d="M123.929 1433.19C125.528 1433.19 126.825 1431.83 126.825 1430.14C126.825 1428.46 125.528 1427.09 123.929 1427.09C122.33 1427.09 121.033 1428.46 121.033 1430.14C121.033 1431.83 122.33 1433.19 123.929 1433.19Z" fill="#F9F9F9" stroke="#1A1C1E"/>
<path opacity="0.35" d="M37.0538 1484.26C37.6935 1484.26 38.2121 1483.71 38.2121 1483.04C38.2121 1482.36 37.6935 1481.82 37.0538 1481.82C36.4141 1481.82 35.8955 1482.36 35.8955 1483.04C35.8955 1483.71 36.4141 1484.26 37.0538 1484.26Z" fill="#C4876A"/>
<path opacity="0.38" d="M106.554 1490.56C107.301 1490.56 107.906 1489.93 107.906 1489.14C107.906 1488.35 107.301 1487.71 106.554 1487.71C105.808 1487.71 105.203 1488.35 105.203 1489.14C105.203 1489.93 105.808 1490.56 106.554 1490.56Z" fill="#D4A853"/>
<defs>
<linearGradient id="paint0_linear_577_1204" x1="0" y1="0" x2="0" y2="2015" gradientUnits="userSpaceOnUse">
<stop stop-color="#F9F9F9"/>
<stop offset="1" stop-color="#F5F3EF"/>
</linearGradient>
</defs>
</svg>
