<svg width="22" height="20" viewBox="0 0 22 20" fill="none" xmlns="http://www.w3.org/2000/svg">
<path d="M10.8365 0C4.85164 0 0 3.8254 0 8.54419C0 11.595 2.02831 14.2719 5.07942 15.7835C4.91343 16.356 4.01275 19.4663 3.97691 19.7106C3.97691 19.7106 3.95534 19.8942 4.07423 19.9642C4.19312 20.0343 4.33295 19.9799 4.33295 19.9799C4.67388 19.9322 8.28651 17.3946 8.9118 16.954C9.53647 17.0424 10.1797 17.0884 10.8365 17.0884C16.8214 17.0884 21.6731 13.2631 21.6731 8.54419C21.6731 3.8254 16.8214 0 10.8365 0Z" fill="black"/>
<path d="M4.84506 11.5265C4.50027 11.5265 4.21987 11.2587 4.21987 10.9294V7.21529H3.24437C2.90604 7.21529 2.63086 6.94062 2.63086 6.60313C2.63086 6.26563 2.90615 5.99097 3.24437 5.99097H6.44574C6.78407 5.99097 7.05925 6.26563 7.05925 6.60313C7.05925 6.94062 6.78396 7.21529 6.44574 7.21529H5.47024V10.9294C5.47024 11.2587 5.18985 11.5265 4.84506 11.5265ZM10.3271 11.5183C10.0664 11.5183 9.86696 11.4125 9.80684 11.2422L9.49727 10.4318L7.59087 10.4317L7.28109 11.2426C7.22117 11.4126 7.02185 11.5183 6.76114 11.5183C6.62401 11.5185 6.48846 11.489 6.36373 11.4321C6.19139 11.3526 6.02572 11.1339 6.21557 10.5443L7.71101 6.60813C7.81635 6.30877 8.13634 6.00034 8.54355 5.99107C8.9519 6.00024 9.27189 6.30877 9.37744 6.60875L10.8723 10.5431C11.0625 11.1342 10.8968 11.3529 10.7245 11.4322C10.5997 11.489 10.4642 11.5184 10.3271 11.5183ZM9.16852 9.32435L8.54407 7.55039L7.91961 9.32435H9.16852ZM11.8784 11.4353C11.548 11.4353 11.2793 11.1781 11.2793 10.8622V6.61615C11.2793 6.27136 11.5656 5.99097 11.9175 5.99097C12.2693 5.99097 12.5557 6.27136 12.5557 6.61615V10.2891H13.8842C14.2146 10.2891 14.4833 10.5463 14.4833 10.8622C14.4833 11.1781 14.2146 11.4353 13.8842 11.4353H11.8784ZM15.3517 11.5183C15.0069 11.5183 14.7265 11.2379 14.7265 10.8931V6.61615C14.7265 6.27136 15.0069 5.99097 15.3517 5.99097C15.6965 5.99097 15.9769 6.27136 15.9769 6.61615V7.95988L17.7212 6.21562C17.8109 6.1259 17.9341 6.07651 18.0679 6.07651C18.224 6.07651 18.3807 6.14382 18.4982 6.26115C18.6077 6.37056 18.673 6.51133 18.682 6.65752C18.691 6.80496 18.6419 6.9401 18.544 7.03815L17.1193 8.46264L18.6582 10.5014C18.7079 10.5668 18.7441 10.6414 18.7647 10.7209C18.7853 10.8004 18.7899 10.8832 18.7782 10.9645C18.7671 11.0459 18.7399 11.1242 18.6983 11.195C18.6566 11.2658 18.6014 11.3276 18.5357 11.3768C18.4276 11.459 18.2954 11.5033 18.1596 11.503C18.0627 11.5035 17.9671 11.4812 17.8804 11.4381C17.7937 11.3949 17.7183 11.332 17.6602 11.2545L16.194 9.31185L15.9771 9.52878V10.8928C15.9769 11.0586 15.911 11.2176 15.7937 11.3349C15.6765 11.4521 15.5175 11.5181 15.3517 11.5183Z" fill="#FFE812"/>
</svg>
