<svg width="21" height="20" viewBox="0 0 21 20" fill="none" xmlns="http://www.w3.org/2000/svg">
<path d="M20.882 8.50115C20.882 3.82266 16.2035 0 10.441 0C4.67848 0 0 3.82266 0 8.50115C0 12.7232 3.70855 16.2035 8.72937 16.8882C9.07169 16.9452 9.52813 17.1164 9.64224 17.4017C9.75635 17.6869 9.69929 18.0863 9.69929 18.3716C9.69929 18.3716 9.58519 19.1133 9.52813 19.2845C9.47108 19.5698 9.29991 20.3115 10.441 19.855C11.5821 19.3986 16.4888 16.3176 18.6569 13.8072C20.1974 12.0956 20.882 10.384 20.882 8.50115Z" fill="white"/>
<path d="M17.4017 11.1824H14.4919C14.3778 11.1824 14.2637 11.0683 14.2637 10.9542V6.38984C14.2637 6.27573 14.3778 6.16162 14.4919 6.16162H17.4017C17.5158 6.16162 17.6299 6.27573 17.6299 6.38984V7.13155C17.6299 7.24566 17.5158 7.35977 17.4017 7.35977H15.4048V8.15853H17.4017C17.5158 8.15853 17.6299 8.27264 17.6299 8.38675V9.12846C17.6299 9.24257 17.5158 9.35668 17.4017 9.35668H15.4048V10.1554H17.4017C17.5158 10.1554 17.6299 10.2696 17.6299 10.3837V11.1254C17.6299 11.1254 17.5158 11.1824 17.4017 11.1824Z" fill="#06C755"/>
<path d="M6.56127 11.1827C6.67538 11.1827 6.78949 11.0686 6.78949 10.9545V10.2698C6.78949 10.1557 6.67538 10.0416 6.56127 10.0416H4.56436V6.39008C4.56436 6.27598 4.45025 6.16187 4.33614 6.16187H3.59443C3.48032 6.16187 3.36621 6.27598 3.36621 6.39008V10.9545C3.36621 11.0686 3.48032 11.1827 3.59443 11.1827H6.56127Z" fill="#06C755"/>
<path d="M8.33028 6.21875H7.58857C7.47446 6.21875 7.36035 6.33286 7.36035 6.44697V11.0113C7.36035 11.1255 7.47446 11.2396 7.58857 11.2396H8.33028C8.44439 11.2396 8.5585 11.1255 8.5585 11.0113V6.44697C8.50145 6.33286 8.44439 6.21875 8.33028 6.21875Z" fill="#06C755"/>
<path d="M13.3507 6.21875H12.609C12.4949 6.21875 12.3808 6.33286 12.3808 6.44697V9.12854L10.2697 6.33286H9.52802C9.41391 6.33286 9.2998 6.44697 9.2998 6.56108V11.1255C9.2998 11.2396 9.41391 11.3537 9.52802 11.3537H10.1556C10.2697 11.3537 10.3838 11.2396 10.3838 11.1255V8.38683L12.4949 11.2396L12.5519 11.2966H12.609H13.3507C13.4648 11.2966 13.5789 11.1825 13.5789 11.0684V6.50402C13.5789 6.33286 13.4648 6.21875 13.3507 6.21875Z" fill="#06C755"/>
</svg>
