<svg width="79" height="79" viewBox="0 0 79 79" fill="none" xmlns="http://www.w3.org/2000/svg">
<g clip-path="url(#clip0_542_7473)">
<g clip-path="url(#clip1_542_7473)">
<rect width="79" height="79" fill="#E8941A"/>
<path d="M41.4756 25.6747C41.4756 24.4107 41.8179 23.4363 42.5026 22.7517C43.1873 22.067 44.1616 21.7247 45.4256 21.7247H63.0426C64.3066 21.7247 65.2809 22.067 65.9656 22.7517C66.6503 23.4363 66.9926 24.4107 66.9926 25.6747V27.3337C66.9926 28.5977 66.6503 29.572 65.9656 30.2567C65.2809 30.9413 64.3066 31.2837 63.0426 31.2837H45.4256C44.1616 31.2837 43.1873 30.9413 42.5026 30.2567C41.8179 29.572 41.4756 28.5977 41.4756 27.3337V25.6747Z" fill="white"/>
<path d="M41.4756 38.6307C41.4756 37.3667 41.8179 36.3923 42.5026 35.7077C43.1873 35.023 44.1616 34.6807 45.4256 34.6807H63.0426C64.3066 34.6807 65.2809 35.023 65.9656 35.7077C66.6503 36.3923 66.9926 37.3667 66.9926 38.6307V40.2897C66.9926 41.5537 66.6503 42.528 65.9656 43.2127C65.2809 43.8973 64.3066 44.2397 63.0426 44.2397H45.4256C44.1616 44.2397 43.1873 43.8973 42.5026 43.2127C41.8179 42.528 41.4756 41.5537 41.4756 40.2897V38.6307Z" fill="white"/>
<path d="M11.8506 51.4287C11.8506 51.0074 11.8506 50.7573 11.8506 50.5598C11.8506 50.3623 11.8506 49.9541 11.8506 49.5327V38.5517C11.8506 37.2877 12.1929 36.3134 12.8776 35.6287C13.5623 34.9441 14.5366 34.6017 15.8006 34.6017H28.0456V31.3627H15.8006C14.5366 31.3627 13.5623 31.0204 12.8776 30.3357C12.1929 29.6511 11.8506 28.6767 11.8506 27.4127V25.7537C11.8506 24.4897 12.1929 23.5154 12.8776 22.8307C13.5623 22.1461 14.5366 21.8037 15.8006 21.8037H33.5756C34.8396 21.8037 35.8139 22.1461 36.4986 22.8307C37.1833 23.5154 37.5256 24.4897 37.5256 25.7537V36.7347C37.5256 37.1561 37.5256 37.3273 37.5256 37.5248C37.5256 37.7223 37.5256 38.1304 37.5256 38.5517V40.2897C37.5256 41.5537 37.1833 42.5281 36.4986 43.2127C35.8139 43.8974 34.8396 44.2397 33.5756 44.2397H21.3306V47.4787H63.2401C64.5041 47.4787 65.4784 47.8211 66.1631 48.5057C66.8478 49.1904 67.1901 50.1647 67.1901 51.4287V53.0877C67.1901 54.3517 66.8478 55.3261 66.1631 56.0107C65.4784 56.6954 64.5041 57.0377 63.2401 57.0377H15.8006C14.5366 57.0377 13.5623 56.6954 12.8776 56.0107C12.1929 55.3261 11.8506 54.3517 11.8506 53.0877V51.4287Z" fill="white"/>
</g>
</g>
<defs>
<clipPath id="clip0_542_7473">
<rect width="79" height="79" fill="white"/>
</clipPath>
<clipPath id="clip1_542_7473">
<rect width="79" height="79" rx="9.875" fill="white"/>
</clipPath>
</defs>
</svg>
