<svg width="430" height="932" viewBox="0 0 430 932" fill="none" xmlns="http://www.w3.org/2000/svg">
<path d="M430 0H0V932H430V0Z" fill="white"/>
<g opacity="0.04">
<path d="M0 40H430" stroke="#1A1C1E" stroke-width="0.5"/>
<path d="M0 80H430" stroke="#1A1C1E" stroke-width="0.5"/>
<path d="M0 120H430" stroke="#1A1C1E" stroke-width="0.5"/>
<path d="M0 160H430" stroke="#1A1C1E" stroke-width="0.5"/>
<path d="M0 200H430" stroke="#1A1C1E" stroke-width="0.5"/>
<path d="M0 240H430" stroke="#1A1C1E" stroke-width="0.5"/>
<path d="M0 280H430" stroke="#1A1C1E" stroke-width="0.5"/>
<path d="M0 320H430" stroke="#1A1C1E" stroke-width="0.5"/>
<path d="M0 360H430" stroke="#1A1C1E" stroke-width="0.5"/>
<path d="M0 400H430" stroke="#1A1C1E" stroke-width="0.5"/>
<path d="M0 440H430" stroke="#1A1C1E" stroke-width="0.5"/>
<path d="M0 480H430" stroke="#1A1C1E" stroke-width="0.5"/>
<path d="M0 520H430" stroke="#1A1C1E" stroke-width="0.5"/>
<path d="M0 560H430" stroke="#1A1C1E" stroke-width="0.5"/>
<path d="M0 600H430" stroke="#1A1C1E" stroke-width="0.5"/>
<path d="M0 640H430" stroke="#1A1C1E" stroke-width="0.5"/>
<path d="M0 680H430" stroke="#1A1C1E" stroke-width="0.5"/>
<path d="M0 720H430" stroke="#1A1C1E" stroke-width="0.5"/>
<path d="M0 760H430" stroke="#1A1C1E" stroke-width="0.5"/>
<path d="M0 800H430" stroke="#1A1C1E" stroke-width="0.5"/>
<path d="M0 840H430" stroke="#1A1C1E" stroke-width="0.5"/>
<path d="M0 880H430" stroke="#1A1C1E" stroke-width="0.5"/>
<path d="M0 920H430" stroke="#1A1C1E" stroke-width="0.5"/>
<path d="M40 0V932" stroke="#1A1C1E" stroke-width="0.5"/>
<path d="M80 0V932" stroke="#1A1C1E" stroke-width="0.5"/>
<path d="M120 0V932" stroke="#1A1C1E" stroke-width="0.5"/>
<path d="M160 0V932" stroke="#1A1C1E" stroke-width="0.5"/>
<path d="M200 0V932" stroke="#1A1C1E" stroke-width="0.5"/>
<path d="M240 0V932" stroke="#1A1C1E" stroke-width="0.5"/>
<path d="M280 0V932" stroke="#1A1C1E" stroke-width="0.5"/>
<path d="M320 0V932" stroke="#1A1C1E" stroke-width="0.5"/>
<path d="M360 0V932" stroke="#1A1C1E" stroke-width="0.5"/>
<path d="M400 0V932" stroke="#1A1C1E" stroke-width="0.5"/>
</g>
<g opacity="0.22">
<path d="M31.9998 150.2C33.2148 150.2 34.1998 149.215 34.1998 148C34.1998 146.785 33.2148 145.8 31.9998 145.8C30.7848 145.8 29.7998 146.785 29.7998 148C29.7998 149.215 30.7848 150.2 31.9998 150.2Z" fill="#1A1C1E"/>
<path d="M57.9994 119.6C58.8831 119.6 59.5994 118.884 59.5994 118C59.5994 117.116 58.8831 116.4 57.9994 116.4C57.1158 116.4 56.3994 117.116 56.3994 118C56.3994 118.884 57.1158 119.6 57.9994 119.6Z" fill="#1A1C1E"/>
<path d="M92.0002 105.8C92.9943 105.8 93.8002 104.994 93.8002 104C93.8002 103.006 92.9943 102.2 92.0002 102.2C91.0061 102.2 90.2002 103.006 90.2002 104C90.2002 104.994 91.0061 105.8 92.0002 105.8Z" fill="#1A1C1E"/>
<path d="M118 84C119.105 84 120 83.1046 120 82C120 80.8954 119.105 80 118 80C116.895 80 116 80.8954 116 82C116 83.1046 116.895 84 118 84Z" fill="#1A1C1E"/>
<path d="M147.999 69.6C148.883 69.6 149.599 68.8837 149.599 68C149.599 67.1164 148.883 66.4 147.999 66.4C147.116 66.4 146.399 67.1164 146.399 68C146.399 68.8837 147.116 69.6 147.999 69.6Z" fill="#1A1C1E"/>
<path d="M162 97.8C162.994 97.8 163.8 96.9941 163.8 96C163.8 95.0059 162.994 94.2 162 94.2C161.006 94.2 160.2 95.0059 160.2 96C160.2 96.9941 161.006 97.8 162 97.8Z" fill="#1A1C1E"/>
<path d="M139.999 119.6C140.883 119.6 141.599 118.884 141.599 118C141.599 117.116 140.883 116.4 139.999 116.4C139.116 116.4 138.399 117.116 138.399 118C138.399 118.884 139.116 119.6 139.999 119.6Z" fill="#1A1C1E"/>
<path d="M32 148L58 118" stroke="#1A1C1E" stroke-width="0.8"/>
<path d="M58 118L92 104" stroke="#1A1C1E" stroke-width="0.8"/>
<path d="M92 104L118 82" stroke="#1A1C1E" stroke-width="0.8"/>
<path d="M118 82L148 68" stroke="#1A1C1E" stroke-width="0.8"/>
<path d="M148 68L162 96" stroke="#1A1C1E" stroke-width="0.8"/>
<path d="M162 96L140 118" stroke="#1A1C1E" stroke-width="0.8"/>
<path d="M140 118L118 82" stroke="#1A1C1E" stroke-width="0.8"/>
</g>
<g opacity="0.22">
<path d="M272 119.8C272.994 119.8 273.8 118.994 273.8 118C273.8 117.006 272.994 116.2 272 116.2C271.006 116.2 270.2 117.006 270.2 118C270.2 118.994 271.006 119.8 272 119.8Z" fill="#1A1C1E"/>
<path d="M304 74C305.105 74 306 73.1046 306 72C306 70.8954 305.105 70 304 70C302.895 70 302 70.8954 302 72C302 73.1046 302.895 74 304 74Z" fill="#1A1C1E"/>
<path d="M336 97.8C336.994 97.8 337.8 96.9941 337.8 96C337.8 95.0059 336.994 94.2 336 94.2C335.006 94.2 334.2 95.0059 334.2 96C334.2 96.9941 335.006 97.8 336 97.8Z" fill="#1A1C1E"/>
<path d="M370 58C371.105 58 372 57.1046 372 56C372 54.8954 371.105 54 370 54C368.895 54 368 54.8954 368 56C368 57.1046 368.895 58 370 58Z" fill="#1A1C1E"/>
<path d="M406 89.8C406.994 89.8 407.8 88.9941 407.8 88C407.8 87.0059 406.994 86.2 406 86.2C405.006 86.2 404.2 87.0059 404.2 88C404.2 88.9941 405.006 89.8 406 89.8Z" fill="#1A1C1E"/>
<path d="M272 118L304 72" stroke="#1A1C1E" stroke-width="0.8"/>
<path d="M304 72L336 96" stroke="#1A1C1E" stroke-width="0.8"/>
<path d="M336 96L370 56" stroke="#1A1C1E" stroke-width="0.8"/>
<path d="M370 56L406 88" stroke="#1A1C1E" stroke-width="0.8"/>
<path d="M408 109.5C408.828 109.5 409.5 108.828 409.5 108C409.5 107.172 408.828 106.5 408 106.5C407.172 106.5 406.5 107.172 406.5 108C406.5 108.828 407.172 109.5 408 109.5Z" fill="#1A1C1E"/>
<path d="M406 88L408 108" stroke="#1A1C1E" stroke-width="0.8"/>
</g>
<g opacity="0.18">
<path d="M18.0002 393.8C18.9943 393.8 19.8002 392.994 19.8002 392C19.8002 391.006 18.9943 390.2 18.0002 390.2C17.0061 390.2 16.2002 391.006 16.2002 392C16.2002 392.994 17.0061 393.8 18.0002 393.8Z" fill="#1A1C1E"/>
<path d="M30 419.5C30.8284 419.5 31.5 418.828 31.5 418C31.5 417.172 30.8284 416.5 30 416.5C29.1716 416.5 28.5 417.172 28.5 418C28.5 418.828 29.1716 419.5 30 419.5Z" fill="#1A1C1E"/>
<path d="M22.0002 447.8C22.9943 447.8 23.8002 446.994 23.8002 446C23.8002 445.006 22.9943 444.2 22.0002 444.2C21.0061 444.2 20.2002 445.006 20.2002 446C20.2002 446.994 21.0061 447.8 22.0002 447.8Z" fill="#1A1C1E"/>
<path d="M34 473.5C34.8284 473.5 35.5 472.828 35.5 472C35.5 471.172 34.8284 470.5 34 470.5C33.1716 470.5 32.5 471.172 32.5 472C32.5 472.828 33.1716 473.5 34 473.5Z" fill="#1A1C1E"/>
<path d="M52 492C53.1046 492 54 491.105 54 490C54 488.895 53.1046 488 52 488C50.8954 488 50 488.895 50 490C50 491.105 50.8954 492 52 492Z" fill="#1A1C1E"/>
<path d="M72 507.5C72.8284 507.5 73.5 506.828 73.5 506C73.5 505.172 72.8284 504.5 72 504.5C71.1716 504.5 70.5 505.172 70.5 506C70.5 506.828 71.1716 507.5 72 507.5Z" fill="#1A1C1E"/>
<path d="M88 489.5C88.8284 489.5 89.5 488.828 89.5 488C89.5 487.172 88.8284 486.5 88 486.5C87.1716 486.5 86.5 487.172 86.5 488C86.5 488.828 87.1716 489.5 88 489.5Z" fill="#1A1C1E"/>
<path d="M96.0002 467.8C96.9943 467.8 97.8002 466.994 97.8002 466C97.8002 465.006 96.9943 464.2 96.0002 464.2C95.0061 464.2 94.2002 465.006 94.2002 466C94.2002 466.994 95.0061 467.8 96.0002 467.8Z" fill="#1A1C1E"/>
<path d="M18 392L30 418" stroke="#1A1C1E" stroke-width="0.8"/>
<path d="M30 418L22 446" stroke="#1A1C1E" stroke-width="0.8"/>
<path d="M22 446L34 472" stroke="#1A1C1E" stroke-width="0.8"/>
<path d="M34 472L52 490" stroke="#1A1C1E" stroke-width="0.8"/>
<path d="M52 490L72 506" stroke="#1A1C1E" stroke-width="0.8"/>
<path d="M72 506L88 488" stroke="#1A1C1E" stroke-width="0.8"/>
<path d="M88 488L96 466" stroke="#1A1C1E" stroke-width="0.8"/>
</g>
<g opacity="0.18">
<path d="M340 370C341.105 370 342 369.105 342 368C342 366.895 341.105 366 340 366C338.895 366 338 366.895 338 368C338 369.105 338.895 370 340 370Z" fill="#1A1C1E"/>
<path d="M412 359.8C412.994 359.8 413.8 358.994 413.8 358C413.8 357.006 412.994 356.2 412 356.2C411.006 356.2 410.2 357.006 410.2 358C410.2 358.994 411.006 359.8 412 359.8Z" fill="#1A1C1E"/>
<path d="M352 409.6C352.884 409.6 353.6 408.884 353.6 408C353.6 407.116 352.884 406.4 352 406.4C351.117 406.4 350.4 407.116 350.4 408C350.4 408.884 351.117 409.6 352 409.6Z" fill="#1A1C1E"/>
<path d="M376 415.6C376.884 415.6 377.6 414.884 377.6 414C377.6 413.116 376.884 412.4 376 412.4C375.117 412.4 374.4 413.116 374.4 414C374.4 414.884 375.117 415.6 376 415.6Z" fill="#1A1C1E"/>
<path d="M400 409.6C400.884 409.6 401.6 408.884 401.6 408C401.6 407.116 400.884 406.4 400 406.4C399.117 406.4 398.4 407.116 398.4 408C398.4 408.884 399.117 409.6 400 409.6Z" fill="#1A1C1E"/>
<path d="M334 457.8C334.994 457.8 335.8 456.994 335.8 456C335.8 455.006 334.994 454.2 334 454.2C333.006 454.2 332.2 455.006 332.2 456C332.2 456.994 333.006 457.8 334 457.8Z" fill="#1A1C1E"/>
<path d="M408 450C409.105 450 410 449.105 410 448C410 446.895 409.105 446 408 446C406.895 446 406 446.895 406 448C406 449.105 406.895 450 408 450Z" fill="#1A1C1E"/>
<path d="M378 337.5C378.828 337.5 379.5 336.828 379.5 336C379.5 335.172 378.828 334.5 378 334.5C377.172 334.5 376.5 335.172 376.5 336C376.5 336.828 377.172 337.5 378 337.5Z" fill="#1A1C1E"/>
<path d="M378 336L340 368" stroke="#1A1C1E" stroke-width="0.8"/>
<path d="M378 336L412 358" stroke="#1A1C1E" stroke-width="0.8"/>
<path d="M340 368L352 408" stroke="#1A1C1E" stroke-width="0.8"/>
<path d="M412 358L400 408" stroke="#1A1C1E" stroke-width="0.8"/>
<path d="M352 408L376 414" stroke="#1A1C1E" stroke-width="0.8"/>
<path d="M376 414L400 408" stroke="#1A1C1E" stroke-width="0.8"/>
<path d="M352 408L334 456" stroke="#1A1C1E" stroke-width="0.8"/>
<path d="M400 408L408 448" stroke="#1A1C1E" stroke-width="0.8"/>
</g>
<g opacity="0.18">
<path d="M28 670C29.1046 670 30 669.105 30 668C30 666.895 29.1046 666 28 666C26.8954 666 26 666.895 26 668C26 669.105 26.8954 670 28 670Z" fill="#1A1C1E"/>
<path d="M52.0004 643.6C52.884 643.6 53.6004 642.884 53.6004 642C53.6004 641.116 52.884 640.4 52.0004 640.4C51.1167 640.4 50.4004 641.116 50.4004 642C50.4004 642.884 51.1167 643.6 52.0004 643.6Z" fill="#1A1C1E"/>
<path d="M82.0002 629.8C82.9943 629.8 83.8002 628.994 83.8002 628C83.8002 627.006 82.9943 626.2 82.0002 626.2C81.0061 626.2 80.2002 627.006 80.2002 628C80.2002 628.994 81.0061 629.8 82.0002 629.8Z" fill="#1A1C1E"/>
<path d="M104 645.6C104.884 645.6 105.6 644.884 105.6 644C105.6 643.116 104.884 642.4 104 642.4C103.117 642.4 102.4 643.116 102.4 644C102.4 644.884 103.117 645.6 104 645.6Z" fill="#1A1C1E"/>
<path d="M98.0002 673.8C98.9943 673.8 99.8002 672.994 99.8002 672C99.8002 671.006 98.9943 670.2 98.0002 670.2C97.0061 670.2 96.2002 671.006 96.2002 672C96.2002 672.994 97.0061 673.8 98.0002 673.8Z" fill="#1A1C1E"/>
<path d="M68 690C69.1046 690 70 689.105 70 688C70 686.895 69.1046 686 68 686C66.8954 686 66 686.895 66 688C66 689.105 66.8954 690 68 690Z" fill="#1A1C1E"/>
<path d="M112 719.8C112.994 719.8 113.8 718.994 113.8 718C113.8 717.006 112.994 716.2 112 716.2C111.006 716.2 110.2 717.006 110.2 718C110.2 718.994 111.006 719.8 112 719.8Z" fill="#1A1C1E"/>
<path d="M148 699.6C148.884 699.6 149.6 698.884 149.6 698C149.6 697.116 148.884 696.4 148 696.4C147.117 696.4 146.4 697.116 146.4 698C146.4 698.884 147.117 699.6 148 699.6Z" fill="#1A1C1E"/>
<path d="M152 729.8C152.994 729.8 153.8 728.994 153.8 728C153.8 727.006 152.994 726.2 152 726.2C151.006 726.2 150.2 727.006 150.2 728C150.2 728.994 151.006 729.8 152 729.8Z" fill="#1A1C1E"/>
<path d="M28 668L52 642" stroke="#1A1C1E" stroke-width="0.8"/>
<path d="M52 642L82 628" stroke="#1A1C1E" stroke-width="0.8"/>
<path d="M82 628L104 644" stroke="#1A1C1E" stroke-width="0.8"/>
<path d="M104 644L98 672" stroke="#1A1C1E" stroke-width="0.8"/>
<path d="M98 672L68 688" stroke="#1A1C1E" stroke-width="0.8"/>
<path d="M68 688L28 668" stroke="#1A1C1E" stroke-width="0.8"/>
<path d="M98 672L112 718" stroke="#1A1C1E" stroke-width="0.8"/>
<path d="M112 718L148 698" stroke="#1A1C1E" stroke-width="0.8"/>
<path d="M148 698L152 728" stroke="#1A1C1E" stroke-width="0.8"/>
</g>
<g opacity="0.18">
<path d="M336.001 650.2C337.216 650.2 338.201 649.215 338.201 648C338.201 646.785 337.216 645.8 336.001 645.8C334.786 645.8 333.801 646.785 333.801 648C333.801 649.215 334.786 650.2 336.001 650.2Z" fill="#1A1C1E"/>
<path d="M316 683.6C316.884 683.6 317.6 682.884 317.6 682C317.6 681.116 316.884 680.4 316 680.4C315.117 680.4 314.4 681.116 314.4 682C314.4 682.884 315.117 683.6 316 683.6Z" fill="#1A1C1E"/>
<path d="M330 715.6C330.884 715.6 331.6 714.884 331.6 714C331.6 713.116 330.884 712.4 330 712.4C329.117 712.4 328.4 713.116 328.4 714C328.4 714.884 329.117 715.6 330 715.6Z" fill="#1A1C1E"/>
<path d="M362 719.6C362.884 719.6 363.6 718.884 363.6 718C363.6 717.116 362.884 716.4 362 716.4C361.117 716.4 360.4 717.116 360.4 718C360.4 718.884 361.117 719.6 362 719.6Z" fill="#1A1C1E"/>
<path d="M376 687.6C376.884 687.6 377.6 686.884 377.6 686C377.6 685.116 376.884 684.4 376 684.4C375.117 684.4 374.4 685.116 374.4 686C374.4 686.884 375.117 687.6 376 687.6Z" fill="#1A1C1E"/>
<path d="M336 648L316 682" stroke="#1A1C1E" stroke-width="0.8"/>
<path d="M336 648L376 686" stroke="#1A1C1E" stroke-width="0.8"/>
<path d="M316 682L330 714" stroke="#1A1C1E" stroke-width="0.8"/>
<path d="M330 714L362 718" stroke="#1A1C1E" stroke-width="0.8"/>
<path d="M362 718L376 686" stroke="#1A1C1E" stroke-width="0.8"/>
</g>
<g opacity="0.15">
<path d="M178 791.8C178.994 791.8 179.8 790.994 179.8 790C179.8 789.006 178.994 788.2 178 788.2C177.006 788.2 176.2 789.006 176.2 790C176.2 790.994 177.006 791.8 178 791.8Z" fill="#1A1C1E"/>
<path d="M212 773.6C212.884 773.6 213.6 772.884 213.6 772C213.6 771.116 212.884 770.4 212 770.4C211.117 770.4 210.4 771.116 210.4 772C210.4 772.884 211.117 773.6 212 773.6Z" fill="#1A1C1E"/>
<path d="M248 785.8C248.994 785.8 249.8 784.994 249.8 784C249.8 783.006 248.994 782.2 248 782.2C247.006 782.2 246.2 783.006 246.2 784C246.2 784.994 247.006 785.8 248 785.8Z" fill="#1A1C1E"/>
<path d="M244 821.6C244.884 821.6 245.6 820.884 245.6 820C245.6 819.116 244.884 818.4 244 818.4C243.117 818.4 242.4 819.116 242.4 820C242.4 820.884 243.117 821.6 244 821.6Z" fill="#1A1C1E"/>
<path d="M206 827.8C206.994 827.8 207.8 826.994 207.8 826C207.8 825.006 206.994 824.2 206 824.2C205.006 824.2 204.2 825.006 204.2 826C204.2 826.994 205.006 827.8 206 827.8Z" fill="#1A1C1E"/>
<path d="M178 790L212 772" stroke="#1A1C1E" stroke-width="0.8"/>
<path d="M212 772L248 784" stroke="#1A1C1E" stroke-width="0.8"/>
<path d="M248 784L244 820" stroke="#1A1C1E" stroke-width="0.8"/>
<path d="M244 820L206 826" stroke="#1A1C1E" stroke-width="0.8"/>
<path d="M206 826L178 790" stroke="#1A1C1E" stroke-width="0.8"/>
</g>
<path opacity="0.15" d="M188 45C188.552 45 189 44.5523 189 44C189 43.4477 188.552 43 188 43C187.448 43 187 43.4477 187 44C187 44.5523 187.448 45 188 45Z" fill="#1A1C1E"/>
<path opacity="0.11" d="M140 58.1C141.16 58.1 142.1 57.1598 142.1 56C142.1 54.8402 141.16 53.9 140 53.9C138.841 53.9 137.9 54.8402 137.9 56C137.9 57.1598 138.841 58.1 140 58.1Z" fill="#1A1C1E"/>
<path opacity="0.15" d="M174.001 169.7C174.94 169.7 175.701 168.939 175.701 168C175.701 167.061 174.94 166.3 174.001 166.3C173.062 166.3 172.301 167.061 172.301 168C172.301 168.939 173.062 169.7 174.001 169.7Z" fill="#1A1C1E"/>
<path opacity="0.12" d="M318.001 178.7C318.387 178.7 318.701 178.387 318.701 178C318.701 177.613 318.387 177.3 318.001 177.3C317.614 177.3 317.301 177.613 317.301 178C317.301 178.387 317.614 178.7 318.001 178.7Z" fill="#1A1C1E"/>
<path opacity="0.14" d="M268 229.3C268.718 229.3 269.3 228.718 269.3 228C269.3 227.282 268.718 226.7 268 226.7C267.282 226.7 266.7 227.282 266.7 228C266.7 228.718 267.282 229.3 268 229.3Z" fill="#1A1C1E"/>
<path opacity="0.12" d="M186 288.1C187.16 288.1 188.1 287.16 188.1 286C188.1 284.84 187.16 283.9 186 283.9C184.841 283.9 183.9 284.84 183.9 286C183.9 287.16 184.841 288.1 186 288.1Z" fill="#1A1C1E"/>
<path opacity="0.13" d="M290.001 270.7C290.387 270.7 290.701 270.387 290.701 270C290.701 269.613 290.387 269.3 290.001 269.3C289.614 269.3 289.301 269.613 289.301 270C289.301 270.387 289.614 270.7 290.001 270.7Z" fill="#1A1C1E"/>
<path opacity="0.11" d="M312.001 313.7C312.94 313.7 313.701 312.939 313.701 312C313.701 311.061 312.94 310.3 312.001 310.3C311.062 310.3 310.301 311.061 310.301 312C310.301 312.939 311.062 313.7 312.001 313.7Z" fill="#1A1C1E"/>
<path opacity="0.14" d="M130 357C130.552 357 131 356.552 131 356C131 355.448 130.552 355 130 355C129.448 355 129 355.448 129 356C129 356.552 129.448 357 130 357Z" fill="#1A1C1E"/>
<path opacity="0.11" d="M270 346.1C271.16 346.1 272.1 345.16 272.1 344C272.1 342.84 271.16 341.9 270 341.9C268.841 341.9 267.9 342.84 267.9 344C267.9 345.16 268.841 346.1 270 346.1Z" fill="#1A1C1E"/>
<path opacity="0.14" d="M224 443.3C224.718 443.3 225.3 442.718 225.3 442C225.3 441.282 224.718 440.7 224 440.7C223.282 440.7 222.7 441.282 222.7 442C222.7 442.718 223.282 443.3 224 443.3Z" fill="#1A1C1E"/>
<path opacity="0.13" d="M315.001 537.7C315.94 537.7 316.701 536.939 316.701 536C316.701 535.061 315.94 534.3 315.001 534.3C314.062 534.3 313.301 535.061 313.301 536C313.301 536.939 314.062 537.7 315.001 537.7Z" fill="#1A1C1E"/>
<path opacity="0.13" d="M220.001 560.7C220.387 560.7 220.701 560.387 220.701 560C220.701 559.613 220.387 559.3 220.001 559.3C219.614 559.3 219.301 559.613 219.301 560C219.301 560.387 219.614 560.7 220.001 560.7Z" fill="#1A1C1E"/>
<path opacity="0.12" d="M170 610.1C171.16 610.1 172.1 609.16 172.1 608C172.1 606.84 171.16 605.9 170 605.9C168.841 605.9 167.9 606.84 167.9 608C167.9 609.16 168.841 610.1 170 610.1Z" fill="#1A1C1E"/>
<path opacity="0.13" d="M168 741C168.552 741 169 740.552 169 740C169 739.448 168.552 739 168 739C167.448 739 167 739.448 167 740C167 740.552 167.448 741 168 741Z" fill="#1A1C1E"/>
<path opacity="0.12" d="M228.001 753.7C228.94 753.7 229.701 752.939 229.701 752C229.701 751.061 228.94 750.3 228.001 750.3C227.062 750.3 226.301 751.061 226.301 752C226.301 752.939 227.062 753.7 228.001 753.7Z" fill="#1A1C1E"/>
<path opacity="0.13" d="M230.001 868.7C230.387 868.7 230.701 868.387 230.701 868C230.701 867.613 230.387 867.3 230.001 867.3C229.614 867.3 229.301 867.613 229.301 868C229.301 868.387 229.614 868.7 230.001 868.7Z" fill="#1A1C1E"/>
<path opacity="0.11" d="M110 882.1C111.16 882.1 112.1 881.16 112.1 880C112.1 878.84 111.16 877.9 110 877.9C108.841 877.9 107.9 878.84 107.9 880C107.9 881.16 108.841 882.1 110 882.1Z" fill="#1A1C1E"/>
<path opacity="0.42" d="M248 220.1C249.16 220.1 250.1 219.16 250.1 218C250.1 216.84 249.16 215.9 248 215.9C246.841 215.9 245.9 216.84 245.9 218C245.9 219.16 246.841 220.1 248 220.1Z" fill="#D4A853"/>
<path opacity="0.35" d="M170 243C170.552 243 171 242.552 171 242C171 241.448 170.552 241 170 241C169.448 241 169 241.448 169 242C169 242.552 169.448 243 170 243Z" fill="#D4A853"/>
<path opacity="0.38" d="M308 253.7C308.939 253.7 309.7 252.939 309.7 252C309.7 251.061 308.939 250.3 308 250.3C307.061 250.3 306.3 251.061 306.3 252C306.3 252.939 307.061 253.7 308 253.7Z" fill="#D4A853"/>
<path opacity="0.32" d="M132 302.8C132.442 302.8 132.8 302.442 132.8 302C132.8 301.558 132.442 301.2 132 301.2C131.558 301.2 131.2 301.558 131.2 302C131.2 302.442 131.558 302.8 132 302.8Z" fill="#D4A853"/>
<path opacity="0.4" d="M356 298.1C357.16 298.1 358.1 297.16 358.1 296C358.1 294.84 357.16 293.9 356 293.9C354.841 293.9 353.9 294.84 353.9 296C353.9 297.16 354.841 298.1 356 298.1Z" fill="#D4A853"/>
<path opacity="0.3" d="M188 569.3C188.718 569.3 189.3 568.718 189.3 568C189.3 567.282 188.718 566.7 188 566.7C187.282 566.7 186.7 567.282 186.7 568C186.7 568.718 187.282 569.3 188 569.3Z" fill="#D4A853"/>
<path opacity="0.35" d="M294 559.7C294.939 559.7 295.7 558.939 295.7 558C295.7 557.061 294.939 556.3 294 556.3C293.061 556.3 292.3 557.061 292.3 558C292.3 558.939 293.061 559.7 294 559.7Z" fill="#D4A853"/>
<path opacity="0.3" d="M148 612.8C148.442 612.8 148.8 612.442 148.8 612C148.8 611.558 148.442 611.2 148 611.2C147.558 611.2 147.2 611.558 147.2 612C147.2 612.442 147.558 612.8 148 612.8Z" fill="#D4A853"/>
<path opacity="0.35" d="M332 586.1C333.16 586.1 334.1 585.16 334.1 584C334.1 582.84 333.16 581.9 332 581.9C330.841 581.9 329.9 582.84 329.9 584C329.9 585.16 330.841 586.1 332 586.1Z" fill="#D4A853"/>
<path opacity="0.32" d="M215 859.3C215.718 859.3 216.3 858.718 216.3 858C216.3 857.282 215.718 856.7 215 856.7C214.282 856.7 213.7 857.282 213.7 858C213.7 858.718 214.282 859.3 215 859.3Z" fill="#D4A853"/>
<path opacity="0.28" d="M390 580.8C390.442 580.8 390.8 580.442 390.8 580C390.8 579.558 390.442 579.2 390 579.2C389.558 579.2 389.2 579.558 389.2 580C389.2 580.442 389.558 580.8 390 580.8Z" fill="#D4A853"/>
<path opacity="0.3" d="M41.9998 273.7C42.9387 273.7 43.6998 272.939 43.6998 272C43.6998 271.061 42.9387 270.3 41.9998 270.3C41.0609 270.3 40.2998 271.061 40.2998 272C40.2998 272.939 41.0609 273.7 41.9998 273.7Z" fill="#D4A853"/>
<path opacity="0.32" d="M412 321C412.552 321 413 320.552 413 320C413 319.448 412.552 319 412 319C411.448 319 411 319.448 411 320C411 320.552 411.448 321 412 321Z" fill="#D4A853"/>
<path opacity="0.4" d="M136 198.1C137.16 198.1 138.1 197.16 138.1 196C138.1 194.84 137.16 193.9 136 193.9C134.841 193.9 133.9 194.84 133.9 196C133.9 197.16 134.841 198.1 136 198.1Z" fill="#8FAF8A"/>
<path opacity="0.35" d="M295 302.8C295.442 302.8 295.8 302.442 295.8 302C295.8 301.558 295.442 301.2 295 301.2C294.558 301.2 294.2 301.558 294.2 302C294.2 302.442 294.558 302.8 295 302.8Z" fill="#8FAF8A"/>
<path opacity="0.38" d="M380 201.7C380.939 201.7 381.7 200.939 381.7 200C381.7 199.061 380.939 198.3 380 198.3C379.061 198.3 378.3 199.061 378.3 200C378.3 200.939 379.061 201.7 380 201.7Z" fill="#8FAF8A"/>
<path opacity="0.32" d="M48 551C48.5523 551 49 550.552 49 550C49 549.448 48.5523 549 48 549C47.4477 549 47 549.448 47 550C47 550.552 47.4477 551 48 551Z" fill="#8FAF8A"/>
<path opacity="0.35" d="M160 710.1C161.16 710.1 162.1 709.16 162.1 708C162.1 706.84 161.16 705.9 160 705.9C158.841 705.9 157.9 706.84 157.9 708C157.9 709.16 158.841 710.1 160 710.1Z" fill="#8FAF8A"/>
<path opacity="0.3" d="M395 760.8C395.442 760.8 395.8 760.442 395.8 760C395.8 759.558 395.442 759.2 395 759.2C394.558 759.2 394.2 759.558 394.2 760C394.2 760.442 394.558 760.8 395 760.8Z" fill="#8FAF8A"/>
<path opacity="0.32" d="M112 773.3C112.718 773.3 113.3 772.718 113.3 772C113.3 771.282 112.718 770.7 112 770.7C111.282 770.7 110.7 771.282 110.7 772C110.7 772.718 111.282 773.3 112 773.3Z" fill="#8FAF8A"/>
<path opacity="0.28" d="M270 891.7C270.939 891.7 271.7 890.939 271.7 890C271.7 889.061 270.939 888.3 270 888.3C269.061 888.3 268.3 889.061 268.3 890C268.3 890.939 269.061 891.7 270 891.7Z" fill="#8FAF8A"/>
<path opacity="0.3" d="M420 836.8C420.442 836.8 420.8 836.442 420.8 836C420.8 835.558 420.442 835.2 420 835.2C419.558 835.2 419.2 835.558 419.2 836C419.2 836.442 419.558 836.8 420 836.8Z" fill="#8FAF8A"/>
<path opacity="0.38" d="M52.0004 622.1C53.1602 622.1 54.1004 621.16 54.1004 620C54.1004 618.84 53.1602 617.9 52.0004 617.9C50.8406 617.9 49.9004 618.84 49.9004 620C49.9004 621.16 50.8406 622.1 52.0004 622.1Z" fill="#C4876A"/>
<path opacity="0.32" d="M404 642.8C404.442 642.8 404.8 642.442 404.8 642C404.8 641.558 404.442 641.2 404 641.2C403.558 641.2 403.2 641.558 403.2 642C403.2 642.442 403.558 642.8 404 642.8Z" fill="#C4876A"/>
<path opacity="0.3" d="M178 409.7C178.939 409.7 179.7 408.939 179.7 408C179.7 407.061 178.939 406.3 178 406.3C177.061 406.3 176.3 407.061 176.3 408C176.3 408.939 177.061 409.7 178 409.7Z" fill="#C4876A"/>
<path opacity="0.32" d="M316 433C316.552 433 317 432.552 317 432C317 431.448 316.552 431 316 431C315.448 431 315 431.448 315 432C315 432.552 315.448 433 316 433Z" fill="#C4876A"/>
<path opacity="0.35" d="M68.0002 805.3C68.7182 805.3 69.3002 804.718 69.3002 804C69.3002 803.282 68.7182 802.7 68.0002 802.7C67.2822 802.7 66.7002 803.282 66.7002 804C66.7002 804.718 67.2822 805.3 68.0002 805.3Z" fill="#C4876A"/>
<path opacity="0.3" d="M368 810.1C369.16 810.1 370.1 809.16 370.1 808C370.1 806.84 369.16 805.9 368 805.9C366.841 805.9 365.9 806.84 365.9 808C365.9 809.16 366.841 810.1 368 810.1Z" fill="#C4876A"/>
<path opacity="0.28" d="M198 840.8C198.442 840.8 198.8 840.442 198.8 840C198.8 839.558 198.442 839.2 198 839.2C197.558 839.2 197.2 839.558 197.2 840C197.2 840.442 197.558 840.8 198 840.8Z" fill="#C4876A"/>
<path opacity="0.3" d="M410 189.7C410.939 189.7 411.7 188.939 411.7 188C411.7 187.061 410.939 186.3 410 186.3C409.061 186.3 408.3 187.061 408.3 188C408.3 188.939 409.061 189.7 410 189.7Z" fill="#C4876A"/>
<path opacity="0.55" d="M200 186L204 175L208 186L219 190L208 194L204 205L200 194L189 190L200 186Z" stroke="#D4A853" stroke-width="1.2" stroke-linejoin="round"/>
<path opacity="0.45" d="M360 174L363 166L366 174L374 177L366 180L363 188L360 180L352 177L360 174Z" stroke="#D4A853" stroke-linejoin="round"/>
<path opacity="0.4" d="M70 260L72 254L74 260L80 262L74 264L72 270L70 264L64 262L70 260Z" stroke="#D4A853" stroke-width="0.9" stroke-linejoin="round"/>
<path opacity="0.38" d="M388 526L390 520L392 526L398 528L392 530L390 536L388 530L382 528L388 526Z" stroke="#D4A853" stroke-width="0.9" stroke-linejoin="round"/>
<path opacity="0.45" d="M145 820L148 812L151 820L159 823L151 826L148 834L145 826L137 823L145 820Z" stroke="#8FAF8A" stroke-linejoin="round"/>
<path opacity="0.38" d="M32 340L34 334L36 340L42 342L36 344L34 350L32 344L26 342L32 340Z" stroke="#8FAF8A" stroke-width="0.9" stroke-linejoin="round"/>
<path opacity="0.4" d="M290 848L292 842L294 848L300 850L294 852L292 858L290 852L284 850L290 848Z" stroke="#C4876A" stroke-width="0.9" stroke-linejoin="round"/>
<path opacity="0.35" d="M415 440L417 434L419 440L425 442L419 444L417 450L415 444L409 442L415 440Z" stroke="#C4876A" stroke-width="0.9" stroke-linejoin="round"/>
<path opacity="0.05" d="M215 416C300.604 416 370 403.464 370 388C370 372.536 300.604 360 215 360C129.396 360 60 372.536 60 388C60 403.464 129.396 416 215 416Z" stroke="#1A1C1E" stroke-width="0.5"/>
<path opacity="0.04" d="M215 406C274.647 406 323 397.941 323 388C323 378.059 274.647 370 215 370C155.353 370 107 378.059 107 388C107 397.941 155.353 406 215 406Z" stroke="#1A1C1E" stroke-width="0.4"/>
</svg>
