<svg width="349" height="94" viewBox="0 0 349 94" fill="none" xmlns="http://www.w3.org/2000/svg">
<path d="M16.3138 93.4802C25.158 93.4802 32.3276 86.3106 32.3276 77.4664C32.3276 68.6223 25.158 61.4527 16.3138 61.4527C7.46966 61.4527 0.300062 68.6223 0.300062 77.4664C0.300062 86.3106 7.46966 93.4802 16.3138 93.4802Z" stroke="#E5C185" stroke-opacity="0.2" stroke-width="0.6" stroke-dasharray="2.5 4"/>
<path d="M16.3138 87.9755C22.1178 87.9755 26.8228 83.2704 26.8228 77.4664C26.8228 71.6625 22.1178 66.9574 16.3138 66.9574C10.5098 66.9574 5.80479 71.6625 5.80479 77.4664C5.80479 83.2704 10.5098 87.9755 16.3138 87.9755Z" stroke="#E5C185" stroke-opacity="0.4" stroke-width="0.8"/>
<path d="M16.3138 85.4733C20.7359 85.4733 24.3207 81.8885 24.3207 77.4664C24.3207 73.0444 20.7359 69.4596 16.3138 69.4596C11.8917 69.4596 8.30694 73.0444 8.30694 77.4664C8.30694 81.8885 11.8917 85.4733 16.3138 85.4733Z" fill="#E5C185" fill-opacity="0.1"/>
<path d="M16.3138 83.972C19.9068 83.972 22.8194 81.0594 22.8194 77.4664C22.8194 73.8735 19.9068 70.9609 16.3138 70.9609C12.7209 70.9609 9.80823 73.8735 9.80823 77.4664C9.80823 81.0594 12.7209 83.972 16.3138 83.972Z" fill="#F9F9F9" stroke="#E5C185" stroke-width="1.3"/>
<path d="M16.0767 77.5187L15.1604 78.3871C14.9195 78.6198 14.7861 78.9231 14.7861 79.2471C14.7861 79.9202 15.3669 80.4686 16.0767 80.4686C16.7865 80.4686 17.3673 79.9202 17.3673 79.2471C17.3673 78.9231 17.2339 78.6156 16.993 78.3871L16.0767 77.5187Z" fill="#E5C185"/>
<path d="M17.4594 75.0321L17.3073 75.2479C16.8994 75.8245 16.0767 75.4989 16.0767 74.7575V73.463C16.0767 73.463 13.3112 75.0321 13.3112 77.778C13.3112 78.9235 13.8505 79.9238 14.6559 80.469C14.4624 80.1591 14.3483 79.7786 14.3483 79.3707C14.3483 78.8529 14.528 78.3664 14.8564 77.9977L16.0767 76.6404L17.297 78.0016C17.6254 78.3664 17.8051 78.8529 17.8051 79.3746C17.8051 79.7747 17.698 80.1434 17.5113 80.4533C18.1646 80.0022 18.6486 79.253 18.7938 78.3743C19.0219 76.9817 18.4239 75.6676 17.4594 75.0321Z" fill="#E5C185"/>
<path d="M23.8203 77.4664H29.325" stroke="#E5C185" stroke-opacity="0.28" stroke-width="0.5" stroke-linecap="round"/>
<path d="M16.3138 84.9729V90.4776" stroke="#E5C185" stroke-opacity="0.28" stroke-width="0.5" stroke-linecap="round"/>
<path d="M8.80737 77.4664H3.30264" stroke="#E5C185" stroke-opacity="0.28" stroke-width="0.5" stroke-linecap="round"/>
<path d="M16.3138 69.96V64.4553" stroke="#E5C185" stroke-opacity="0.28" stroke-width="0.5" stroke-linecap="round"/>
<path d="M46.3396 60.4518C48.5507 60.4518 50.3431 58.6594 50.3431 56.4484C50.3431 54.2374 48.5507 52.445 46.3396 52.445C44.1286 52.445 42.3362 54.2374 42.3362 56.4484C42.3362 58.6594 44.1286 60.4518 46.3396 60.4518Z" stroke="#CBD5E0" stroke-opacity="0.35" stroke-width="0.8" stroke-dasharray="2 2"/>
<path d="M46.3396 57.9497C47.1688 57.9497 47.8409 57.2775 47.8409 56.4484C47.8409 55.6193 47.1688 54.9471 46.3396 54.9471C45.5105 54.9471 44.8383 55.6193 44.8383 56.4484C44.8383 57.2775 45.5105 57.9497 46.3396 57.9497Z" fill="#E8E8E8"/>
<path d="M76.3654 44.4381C78.5764 44.4381 80.3688 42.6457 80.3688 40.4346C80.3688 38.2236 78.5764 36.4312 76.3654 36.4312C74.1544 36.4312 72.362 38.2236 72.362 40.4346C72.362 42.6457 74.1544 44.4381 76.3654 44.4381Z" stroke="#CBD5E0" stroke-opacity="0.35" stroke-width="0.8" stroke-dasharray="2 2"/>
<path d="M76.3654 41.9359C77.1945 41.9359 77.8667 41.2638 77.8667 40.4346C77.8667 39.6055 77.1945 38.9333 76.3654 38.9333C75.5363 38.9333 74.8641 39.6055 74.8641 40.4346C74.8641 41.2638 75.5363 41.9359 76.3654 41.9359Z" fill="#E8E8E8"/>
<path d="M105.39 32.4278C107.601 32.4278 109.394 30.6354 109.394 28.4243C109.394 26.2133 107.601 24.4209 105.39 24.4209C103.179 24.4209 101.387 26.2133 101.387 28.4243C101.387 30.6354 103.179 32.4278 105.39 32.4278Z" stroke="#CBD5E0" stroke-opacity="0.35" stroke-width="0.8" stroke-dasharray="2 2"/>
<path d="M105.39 29.9256C106.219 29.9256 106.892 29.2535 106.892 28.4243C106.892 27.5952 106.219 26.923 105.39 26.923C104.561 26.923 103.889 27.5952 103.889 28.4243C103.889 29.2535 104.561 29.9256 105.39 29.9256Z" fill="#E8E8E8"/>
<path d="M140.42 24.4209C142.631 24.4209 144.424 22.6285 144.424 20.4174C144.424 18.2064 142.631 16.414 140.42 16.414C138.209 16.414 136.417 18.2064 136.417 20.4174C136.417 22.6285 138.209 24.4209 140.42 24.4209Z" stroke="#CBD5E0" stroke-opacity="0.35" stroke-width="0.8" stroke-dasharray="2 2"/>
<path d="M140.42 21.9187C141.25 21.9187 141.922 21.2466 141.922 20.4174C141.922 19.5883 141.25 18.9162 140.42 18.9162C139.591 18.9162 138.919 19.5883 138.919 20.4174C138.919 21.2466 139.591 21.9187 140.42 21.9187Z" fill="#E8E8E8"/>
<path d="M169.445 20.4174C171.656 20.4174 173.449 18.625 173.449 16.414C173.449 14.203 171.656 12.4106 169.445 12.4106C167.234 12.4106 165.442 14.203 165.442 16.414C165.442 18.625 167.234 20.4174 169.445 20.4174Z" stroke="#CBD5E0" stroke-opacity="0.35" stroke-width="0.8" stroke-dasharray="2 2"/>
<path d="M169.445 17.9153C170.275 17.9153 170.947 17.2431 170.947 16.414C170.947 15.5849 170.275 14.9127 169.445 14.9127C168.616 14.9127 167.944 15.5849 167.944 16.414C167.944 17.2431 168.616 17.9153 169.445 17.9153Z" fill="#E8E8E8"/>
<path d="M199.471 22.4192C201.682 22.4192 203.475 20.6268 203.475 18.4157C203.475 16.2047 201.682 14.4123 199.471 14.4123C197.26 14.4123 195.468 16.2047 195.468 18.4157C195.468 20.6268 197.26 22.4192 199.471 22.4192Z" stroke="#CBD5E0" stroke-opacity="0.35" stroke-width="0.8" stroke-dasharray="2 2"/>
<path d="M199.471 19.917C200.3 19.917 200.972 19.2449 200.972 18.4157C200.972 17.5866 200.3 16.9144 199.471 16.9144C198.642 16.9144 197.97 17.5866 197.97 18.4157C197.97 19.2449 198.642 19.917 199.471 19.917Z" fill="#E8E8E8"/>
<path d="M230.498 28.4243C232.709 28.4243 234.501 26.6319 234.501 24.4209C234.501 22.2098 232.709 20.4174 230.498 20.4174C228.287 20.4174 226.494 22.2098 226.494 24.4209C226.494 26.6319 228.287 28.4243 230.498 28.4243Z" stroke="#CBD5E0" stroke-opacity="0.35" stroke-width="0.8" stroke-dasharray="2 2"/>
<path d="M230.498 25.9222C231.327 25.9222 231.999 25.25 231.999 24.4209C231.999 23.5917 231.327 22.9196 230.498 22.9196C229.669 22.9196 228.997 23.5917 228.997 24.4209C228.997 25.25 229.669 25.9222 230.498 25.9222Z" fill="#E8E8E8"/>
<path d="M256.52 20.4174C258.731 20.4174 260.524 18.625 260.524 16.414C260.524 14.203 258.731 12.4106 256.52 12.4106C254.309 12.4106 252.517 14.203 252.517 16.414C252.517 18.625 254.309 20.4174 256.52 20.4174Z" stroke="#CBD5E0" stroke-opacity="0.35" stroke-width="0.8" stroke-dasharray="2 2"/>
<path d="M256.52 17.9153C257.349 17.9153 258.021 17.2431 258.021 16.414C258.021 15.5849 257.349 14.9127 256.52 14.9127C255.691 14.9127 255.019 15.5849 255.019 16.414C255.019 17.2431 255.691 17.9153 256.52 17.9153Z" fill="#E8E8E8"/>
<path d="M284.544 12.4106C286.755 12.4106 288.548 10.6182 288.548 8.40712C288.548 6.19609 286.755 4.40369 284.544 4.40369C282.333 4.40369 280.541 6.19609 280.541 8.40712C280.541 10.6182 282.333 12.4106 284.544 12.4106Z" stroke="#CBD5E0" stroke-opacity="0.35" stroke-width="0.8" stroke-dasharray="2 2"/>
<path d="M284.544 9.90841C285.373 9.90841 286.046 9.23626 286.046 8.40712C286.046 7.57798 285.373 6.90583 284.544 6.90583C283.715 6.90583 283.043 7.57798 283.043 8.40712C283.043 9.23626 283.715 9.90841 284.544 9.90841Z" fill="#E8E8E8"/>
<path d="M313.569 8.40712C315.78 8.40712 317.573 6.61472 317.573 4.40369C317.573 2.19265 315.78 0.400246 313.569 0.400246C311.358 0.400246 309.566 2.19265 309.566 4.40369C309.566 6.61472 311.358 8.40712 313.569 8.40712Z" stroke="#CBD5E0" stroke-opacity="0.35" stroke-width="0.8" stroke-dasharray="2 2"/>
<path d="M313.569 5.90497C314.398 5.90497 315.07 5.23282 315.07 4.40369C315.07 3.57455 314.398 2.9024 313.569 2.9024C312.74 2.9024 312.068 3.57455 312.068 4.40369C312.068 5.23282 312.74 5.90497 313.569 5.90497Z" fill="#E8E8E8"/>
<path d="M344.596 14.4123C346.807 14.4123 348.599 12.6199 348.599 10.4088C348.599 8.19781 346.807 6.4054 344.596 6.4054C342.385 6.4054 340.592 8.19781 340.592 10.4088C340.592 12.6199 342.385 14.4123 344.596 14.4123Z" stroke="#CBD5E0" stroke-opacity="0.35" stroke-width="0.8" stroke-dasharray="2 2"/>
<path d="M344.596 11.9101C345.425 11.9101 346.097 11.238 346.097 10.4088C346.097 9.5797 345.425 8.90755 344.596 8.90755C343.767 8.90755 343.095 9.5797 343.095 10.4088C343.095 11.238 343.767 11.9101 344.596 11.9101Z" fill="#E8E8E8"/>
</svg>
