<svg width="329" height="73" viewBox="0 0 329 73" fill="none" xmlns="http://www.w3.org/2000/svg">
<path d="M0.450332 72.4721C9.95321 64.9699 21.0459 58.2935 30.4594 52.4661C40.9626 45.9641 50.4655 41.4627 60.4685 36.4612C69.7856 31.8027 84.4758 25.9581 90.4776 24.4576" stroke="#CBD5E0" stroke-opacity="0.55" stroke-width="0.9" stroke-linecap="round" stroke-linejoin="round" stroke-dasharray="3 4"/>
<path d="M90.4776 24.4576C103.482 21.4567 111.484 19.4561 124.488 16.4552C136.492 13.6851 142.493 12.454 154.497 12.454C166.501 12.454 174.003 12.454 184.506 14.4546C195.009 16.4552 207.513 20.4564 214.515 20.4564C222.017 20.4564 231.52 15.4549 240.523 12.454C249.526 9.45306 257.528 7.45245 268.531 4.45154C279.535 1.45063 288.538 0.450332 298.541 0.450332C308.544 0.450332 318.046 2.95109 328.55 6.45215" stroke="#CBD5E0" stroke-opacity="0.55" stroke-width="0.9" stroke-linecap="round" stroke-linejoin="round" stroke-dasharray="3 4"/>
</svg>
