<svg width="290" height="20" viewBox="0 0 290 20" fill="none" xmlns="http://www.w3.org/2000/svg">
<path d="M0.000244433 8.64999V3.34091H2.08281C3.29275 3.34091 3.98206 4.08154 3.98206 5.13016C3.98206 6.19344 3.27809 6.9194 2.05348 6.9194H1.10019V8.64999H0.000244433ZM1.10019 6.03211H1.87749C2.53012 6.03211 2.84544 5.66546 2.84544 5.13016C2.84544 4.60218 2.53012 4.24287 1.87749 4.24287H1.10019V6.03211ZM5.74197 6.34743V8.64999H4.65669V3.34091H5.71264V5.36481H5.75664C5.93996 4.90283 6.34328 4.61685 6.94458 4.61685C7.77321 4.61685 8.32318 5.17415 8.32318 6.11278V8.64999H7.2379V6.30343C7.2379 5.81212 6.97391 5.5188 6.51927 5.5188C6.06462 5.5188 5.74197 5.81946 5.74197 6.34743ZM8.96849 7.53538C8.96849 6.64808 9.68712 6.35476 10.4497 6.31077C10.7357 6.29243 11.271 6.26677 11.4397 6.25944V5.93678C11.4324 5.6068 11.205 5.40881 10.8017 5.40881C10.4351 5.40881 10.2004 5.57747 10.1418 5.84879H9.10781C9.17381 5.15949 9.77511 4.61685 10.8311 4.61685C11.6964 4.61685 12.5176 5.0055 12.5176 5.96612V8.64999H11.491V8.10002H11.4617C11.2637 8.46666 10.8897 8.72332 10.2958 8.72332C9.53312 8.72332 8.96849 8.32734 8.96849 7.53538ZM10.0098 7.50604C10.0098 7.81403 10.2591 7.97535 10.6037 7.97535C11.0951 7.97535 11.447 7.64537 11.4397 7.22739V6.93407C11.2747 6.9414 10.8127 6.96707 10.6257 6.9854C10.2518 7.02207 10.0098 7.19806 10.0098 7.50604ZM15.6195 5.84879C15.5755 5.57014 15.3262 5.38681 14.9669 5.38681C14.6149 5.38681 14.3436 5.55547 14.3509 5.79746C14.3436 5.97345 14.4902 6.11278 14.8642 6.19344L15.5755 6.3401C16.3455 6.50142 16.7195 6.84607 16.7268 7.41805C16.7195 8.20268 16.0155 8.73065 14.9595 8.73065C13.8816 8.73065 13.2509 8.24667 13.163 7.46938H14.2556C14.3069 7.7847 14.5636 7.94602 14.9595 7.94602C15.3555 7.94602 15.6195 7.7847 15.6195 7.52804C15.6195 7.32272 15.4508 7.19806 15.0769 7.1174L14.4169 6.9854C13.6616 6.83874 13.2656 6.44276 13.2729 5.85612C13.2656 5.09349 13.9256 4.61685 14.9522 4.61685C15.9568 4.61685 16.5801 5.09349 16.6388 5.84879H15.6195ZM19.198 8.73065C17.9807 8.73065 17.2328 7.93869 17.2328 6.67742C17.2328 5.44547 17.9881 4.61685 19.154 4.61685C20.2026 4.61685 21.0239 5.27682 21.0239 6.63342V6.9414H18.3034C18.3034 7.54271 18.6627 7.91669 19.22 7.91669C19.5866 7.91669 19.8506 7.75536 19.9606 7.51338H20.9946C20.8406 8.24667 20.1806 8.73065 19.198 8.73065ZM18.3034 6.25944H19.9973C19.9973 5.77546 19.66 5.43081 19.176 5.43081C18.6774 5.43081 18.3217 5.80112 18.3034 6.25944ZM25.717 3.34091V8.64999H24.6097V4.38952H24.5804L23.3631 5.15216V4.17687L24.6757 3.34091H25.717ZM28.8482 6.62609C28.8482 5.24748 29.2735 4.10354 29.9775 3.11359H31.0114C30.5055 3.84688 29.9775 5.31348 29.9775 6.62609C29.9775 7.94602 30.5055 9.41262 31.0114 10.1459H29.9775C29.2735 9.15597 28.8482 8.00469 28.8482 6.62609ZM33.8933 3.34091V8.64999H32.786V4.38952H32.7567L31.5394 5.15216V4.17687L32.852 3.34091H33.8933ZM37.6038 5.5628V6.42809H35.1839V5.5628H37.6038ZM38.4104 7.71137V6.83874L40.6543 3.34091H42.0402V6.82408H42.7149V7.71137H42.0402V8.64999H40.9916V7.71137H38.4104ZM39.525 6.82408H41.0063V4.55085H40.955L39.525 6.78008V6.82408ZM49.2999 6.33277V7.08073H46.704V9.32462H45.7801V7.08073H43.2135V6.33277H49.2999ZM48.7573 3.00359V3.73689H46.814C46.9057 4.38952 47.6426 5.04583 49.0139 5.21082L48.6766 5.94412C47.5033 5.78646 46.6637 5.28415 46.264 4.59485C45.8534 5.28415 45.0211 5.78646 43.8588 5.94412L43.5142 5.21082C44.8634 5.04583 45.6077 4.38952 45.7141 3.73689H43.7635V3.00359H48.7573ZM51.8444 6.62609C51.8444 8.00469 51.4191 9.15597 50.7152 10.1459H49.6812C50.1872 9.41262 50.7152 7.94602 50.7152 6.62609C50.7152 5.31348 50.1872 3.84688 49.6812 3.11359H50.7152C51.4191 4.10354 51.8444 5.24748 51.8444 6.62609Z" fill="#1A1C1E"/>
<path d="M11.3388 13.6325V19.7169H10.7981V13.6325H11.3388ZM9.53875 14.2964C9.5319 16.0485 8.71745 17.5953 6.6779 18.574L6.38361 18.1359C8.02962 17.3557 8.86802 16.1888 8.99122 14.7344H6.66422V14.2964H9.53875ZM17.9365 18.4987V18.9504H12.3654V18.4987H14.8772V17.1025H15.4042V18.4987H17.9365ZM17.4026 14.6044V15.0492H15.4178C15.4213 16.004 16.4342 16.7055 17.6011 16.8972L17.3958 17.3215C16.4205 17.147 15.5274 16.6576 15.1441 15.8979C14.7574 16.6576 13.8642 17.147 12.8855 17.3215L12.6734 16.8972C13.8471 16.7055 14.8669 16.004 14.8703 15.0492H12.8855V14.6044H14.8772V13.7625H15.4042V14.6044H17.4026ZM25.2255 17.5542V19.7169H24.6848V17.9854H21.1327V17.5542H25.2255ZM25.2255 13.6325V17.2188H24.6848V16.3428H23.1175C22.8334 16.6884 22.3852 16.8937 21.8582 16.8903C20.9479 16.8972 20.2772 16.2949 20.2772 15.4325C20.2772 14.5838 20.9479 13.9816 21.8582 13.9816C22.3817 13.9816 22.83 14.1869 23.1175 14.5291H24.6848V13.6325H25.2255ZM21.8582 14.4401C21.2353 14.4401 20.7905 14.8576 20.7905 15.4325C20.7905 16.0279 21.2353 16.4386 21.8582 16.4386C22.4536 16.4386 22.9122 16.0279 22.9122 15.4325C22.9122 14.8576 22.4536 14.4401 21.8582 14.4401ZM23.357 15.8979H24.6848V14.974H23.357C23.4049 15.1177 23.4323 15.2683 23.4323 15.4325C23.4323 15.5968 23.4049 15.7542 23.357 15.8979ZM31.919 14.5907V15.0424H30.9951V15.8705H31.919V16.3291H30.9951V17.3215H30.4612V13.6394H30.9951V14.5907H31.919ZM29.2567 14.0158V15.6584H27.0392V16.507C28.1205 16.507 28.9042 16.4694 29.8521 16.3086L29.9068 16.7603C28.9281 16.9245 28.1137 16.9587 26.9844 16.9587H26.5122V15.234H28.7297V14.4606H26.4985V14.0158H29.2567ZM29.0445 17.4994C30.2833 17.4994 31.0498 17.9101 31.0498 18.6082C31.0498 19.3063 30.2833 19.7032 29.0445 19.7032C27.7852 19.7032 27.0255 19.3063 27.0255 18.6082C27.0255 17.9101 27.7852 17.4994 29.0445 17.4994ZM29.0445 17.9238C28.1137 17.9238 27.5456 18.177 27.5525 18.6082C27.5456 19.0325 28.1137 19.2858 29.0445 19.2858C29.9684 19.2858 30.5297 19.0325 30.5297 18.6082C30.5297 18.177 29.9684 17.9238 29.0445 17.9238ZM38.811 13.6325V15.2203H39.7282V15.6652H38.811V17.2873H38.2772V13.6325H38.811ZM37.1548 14.0842C37.1548 15.631 36.0597 16.774 34.2871 17.2941L34.0612 16.8561C35.5293 16.4318 36.4669 15.5865 36.5799 14.5291H34.3281V14.0842H37.1548ZM36.8878 17.3557C38.1129 17.3557 38.8795 17.8006 38.8795 18.5261C38.8795 19.2652 38.1129 19.7032 36.8878 19.7032C35.6764 19.7032 34.8894 19.2652 34.8962 18.5261C34.8894 17.8006 35.6764 17.3557 36.8878 17.3557ZM36.8878 17.7869C35.9981 17.78 35.4232 18.0675 35.4301 18.5261C35.4232 18.9846 35.9981 19.2721 36.8878 19.2721C37.7844 19.2721 38.3593 18.9846 38.3593 18.5261C38.3593 18.0675 37.7844 17.78 36.8878 17.7869ZM44.8339 13.6325V16.2264H45.8057V16.6781H44.8339V19.7169H44.2932V13.6325H44.8339ZM40.0361 18.0949C40.5323 18.0949 41.1107 18.0949 41.713 18.0743V17.3968C41.0046 17.3181 40.5426 16.904 40.5495 16.3017C40.5426 15.6173 41.1244 15.1724 41.9867 15.1724C42.8354 15.1724 43.424 15.6173 43.4308 16.3017C43.424 16.904 42.9552 17.3181 42.2536 17.4036V18.0538C42.8217 18.0264 43.3932 17.9819 43.9236 17.9032L43.9578 18.3139C42.6301 18.5397 41.1928 18.5534 40.1251 18.5534L40.0361 18.0949ZM43.8141 14.3785V14.8165H40.1456V14.3785H41.713V13.6462H42.2536V14.3785H43.8141ZM41.9867 15.5899C41.4255 15.5899 41.0491 15.8774 41.0491 16.3017C41.0491 16.726 41.4255 16.9998 41.9867 16.993C42.5411 16.9998 42.9175 16.726 42.9175 16.3017C42.9175 15.8774 42.5411 15.5899 41.9867 15.5899Z" fill="#505359"/>
<path d="M106.054 5.6464V0.337317H108.137C109.347 0.337317 110.036 1.07795 110.036 2.12657C110.036 3.18985 109.332 3.91581 108.107 3.91581H107.154V5.6464H106.054ZM107.154 3.02852H107.931C108.584 3.02852 108.899 2.66187 108.899 2.12657C108.899 1.59859 108.584 1.23927 107.931 1.23927H107.154V3.02852ZM111.796 3.34384V5.6464H110.71V0.337317H111.766V2.36122H111.81C111.994 1.89924 112.397 1.61326 112.998 1.61326C113.827 1.61326 114.377 2.17056 114.377 3.10919V5.6464H113.292V3.29984C113.292 2.80853 113.028 2.51521 112.573 2.51521C112.118 2.51521 111.796 2.81587 111.796 3.34384ZM115.022 4.53178C115.022 3.64449 115.741 3.35117 116.504 3.30718C116.79 3.28884 117.325 3.26318 117.493 3.25585V2.93319C117.486 2.60321 117.259 2.40522 116.856 2.40522C116.489 2.40522 116.254 2.57388 116.196 2.8452H115.162C115.228 2.1559 115.829 1.61326 116.885 1.61326C117.75 1.61326 118.571 2.0019 118.571 2.96253V5.6464H117.545V5.09642H117.515C117.317 5.46307 116.944 5.71973 116.35 5.71973C115.587 5.71973 115.022 5.32375 115.022 4.53178ZM116.064 4.50245C116.064 4.81044 116.313 4.97176 116.658 4.97176C117.149 4.97176 117.501 4.64178 117.493 4.2238V3.93048C117.328 3.93781 116.867 3.96348 116.68 3.98181C116.306 4.01848 116.064 4.19447 116.064 4.50245ZM121.673 2.8452C121.629 2.56654 121.38 2.38322 121.021 2.38322C120.669 2.38322 120.397 2.55188 120.405 2.79387C120.397 2.96986 120.544 3.10919 120.918 3.18985L121.629 3.33651C122.399 3.49783 122.773 3.84248 122.781 4.41446C122.773 5.19909 122.069 5.72706 121.013 5.72706C119.935 5.72706 119.305 5.24308 119.217 4.46579H120.309C120.361 4.78111 120.617 4.94243 121.013 4.94243C121.409 4.94243 121.673 4.78111 121.673 4.52445C121.673 4.31913 121.505 4.19447 121.131 4.1138L120.471 3.98181C119.715 3.83515 119.319 3.43917 119.327 2.85253C119.319 2.0899 119.979 1.61326 121.006 1.61326C122.011 1.61326 122.634 2.0899 122.693 2.8452H121.673ZM125.252 5.72706C124.035 5.72706 123.287 4.9351 123.287 3.67383C123.287 2.44188 124.042 1.61326 125.208 1.61326C126.256 1.61326 127.078 2.27323 127.078 3.62983V3.93781H124.357C124.357 4.53912 124.716 4.9131 125.274 4.9131C125.64 4.9131 125.904 4.75177 126.014 4.50979H127.048C126.894 5.24308 126.234 5.72706 125.252 5.72706ZM124.357 3.25585H126.051C126.051 2.77187 125.714 2.42722 125.23 2.42722C124.731 2.42722 124.375 2.79753 124.357 3.25585ZM129.483 5.6464L129.476 4.8471L131.382 3.09452C131.881 2.61788 132.145 2.32456 132.145 1.90658C132.145 1.43727 131.785 1.14395 131.301 1.14395C130.803 1.14395 130.48 1.45926 130.48 1.96524H129.432C129.424 0.923956 130.194 0.263987 131.316 0.263987C132.453 0.263987 133.208 0.90929 133.208 1.83325C133.208 2.43455 132.915 2.93319 131.822 3.92315L131.016 4.70778V4.73711H133.281V5.6464H129.483ZM135.965 3.62249C135.965 2.24389 136.391 1.09995 137.095 0.109995H138.129C137.623 0.843293 137.095 2.30989 137.095 3.62249C137.095 4.94243 137.623 6.40903 138.129 7.14233H137.095C136.391 6.15237 135.965 5.0011 135.965 3.62249ZM140.673 5.71973C139.566 5.71973 138.759 5.06709 138.737 4.15047H139.808C139.83 4.56845 140.211 4.8471 140.673 4.8471C141.223 4.8471 141.612 4.45845 141.612 3.90848C141.612 3.34384 141.216 2.95519 140.658 2.94786C140.262 2.94786 139.984 3.09452 139.822 3.39517H138.825L139.111 0.337317H142.382V1.23927H140.02L139.874 2.58121H139.918C140.116 2.31722 140.512 2.1339 140.981 2.1339C141.956 2.1339 142.682 2.85986 142.682 3.87915C142.682 4.94976 141.868 5.71973 140.673 5.71973ZM145.909 2.55921V3.4245H143.489V2.55921H145.909ZM148.798 5.71973C147.588 5.71973 146.715 5.08176 146.715 4.21647C146.715 3.54916 147.229 3.00652 147.889 2.90386V2.8672C147.317 2.7572 146.921 2.27323 146.921 1.69392C146.921 0.865292 147.713 0.263987 148.798 0.263987C149.883 0.263987 150.675 0.865292 150.683 1.69392C150.675 2.28056 150.272 2.7572 149.715 2.8672V2.90386C150.36 3.00652 150.881 3.54916 150.881 4.21647C150.881 5.08176 150.008 5.71973 148.798 5.71973ZM148.798 4.87643C149.355 4.87643 149.729 4.56112 149.729 4.10647C149.729 3.64449 149.341 3.30718 148.798 3.30718C148.255 3.30718 147.859 3.64449 147.867 4.10647C147.859 4.56112 148.233 4.87643 148.798 4.87643ZM148.798 2.52988C149.267 2.52988 149.605 2.22923 149.605 1.80391C149.605 1.39327 149.275 1.09995 148.798 1.09995C148.321 1.09995 147.999 1.38593 147.999 1.80391C147.999 2.22923 148.329 2.52988 148.798 2.52988ZM157.502 3.32918V4.07714H154.906V6.32103H153.982V4.07714H151.416V3.32918H157.502ZM156.96 0V0.733298H155.016C155.108 1.38593 155.845 2.04224 157.216 2.20723L156.879 2.94053C155.706 2.78287 154.866 2.28056 154.466 1.59126C154.056 2.28056 153.223 2.78287 152.061 2.94053L151.717 2.20723C153.066 2.04224 153.81 1.38593 153.916 0.733298H151.966V0H156.96ZM160.047 3.62249C160.047 5.0011 159.621 6.15237 158.918 7.14233H157.884C158.39 6.40903 158.918 4.94243 158.918 3.62249C158.918 2.30989 158.39 0.843293 157.884 0.109995H158.918C159.621 1.09995 160.047 2.24389 160.047 3.62249Z" fill="#D1D1D1"/>
<path d="M119.333 11.1295V14.2847H118.806V11.1295H119.333ZM119.339 14.5926V16.0504H115.924V16.7075H119.558V17.1455H115.397V15.6329H118.806V15.0238H115.384V14.5926H119.339ZM116.472 11.7729C116.465 12.6352 117.122 13.3949 118.025 13.6892L117.758 14.1067C117.047 13.8637 116.479 13.3539 116.205 12.6968C115.931 13.4052 115.36 13.963 114.638 14.2231L114.357 13.7987C115.274 13.477 115.924 12.6694 115.924 11.7729V11.3075H116.472V11.7729ZM125.417 11.1364V15.5987H124.876V13.2649H123.624V12.82H124.876V11.1364H125.417ZM125.588 16.6322V17.0839H121.509V15.1949H122.05V16.6322H125.588ZM122.488 12.3888C122.488 13.1759 123.097 13.9424 123.987 14.2436L123.706 14.6748C123.018 14.4284 122.488 13.9151 122.228 13.2854C121.964 13.9869 121.403 14.5482 120.681 14.8185L120.4 14.3805C121.297 14.0656 121.947 13.2649 121.947 12.3888V12.074H120.571V11.6291H123.85V12.074H122.488V12.3888ZM133.76 15.9752V16.4337H128.189V15.9752H133.76ZM133.226 11.7455V12.1904H132.261V14.3189H133.212V14.7569H128.695V14.3189H129.647V12.1904H128.682V11.7455H133.226ZM130.181 14.3189H131.734V12.1904H130.181V14.3189ZM139.817 16.0094V16.4611H134.246V16.0094H136.751V14.8596H134.944V12.9843H138.585V12.0261H134.93V11.5812H139.112V13.4223H135.478V14.4147H139.256V14.8596H137.278V16.0094H139.817ZM144.286 11.2664V14.798H143.766V13.1485H142.835V12.7037H143.766V11.2664H144.286ZM142.103 12.4367C142.103 13.1006 142.548 13.8193 143.321 14.1409L143.041 14.5516C142.469 14.312 142.069 13.8569 141.863 13.3333C141.648 13.9253 141.224 14.4352 140.618 14.7021L140.33 14.2778C141.124 13.9424 141.583 13.1622 141.583 12.4367V12.074H140.447V11.6291H143.178V12.074H142.103V12.4367ZM145.47 11.1295V14.8527H144.957V11.1295H145.47ZM145.47 15.1196V17.2139H144.943V15.5577H141.371V15.1196H145.47ZM151.288 14.4215V14.8596H147.079V11.6565H151.219V12.1082H147.626V13.0116H151.089V13.4428H147.626V14.4215H151.288ZM151.931 15.9752V16.42H146.36V15.9752H151.931Z" fill="#D1D1D1"/>
<path d="M232.407 5.6464V0.337317H234.49C235.699 0.337317 236.389 1.07795 236.389 2.12657C236.389 3.18985 235.685 3.91581 234.46 3.91581H233.507V5.6464H232.407ZM233.507 3.02852H234.284C234.937 3.02852 235.252 2.66187 235.252 2.12657C235.252 1.59859 234.937 1.23927 234.284 1.23927H233.507V3.02852ZM238.149 3.34384V5.6464H237.063V0.337317H238.119V2.36122H238.163C238.347 1.89924 238.75 1.61326 239.351 1.61326C240.18 1.61326 240.73 2.17056 240.73 3.10919V5.6464H239.645V3.29984C239.645 2.80853 239.381 2.51521 238.926 2.51521C238.471 2.51521 238.149 2.81587 238.149 3.34384ZM241.375 4.53178C241.375 3.64449 242.094 3.35117 242.856 3.30718C243.142 3.28884 243.678 3.26318 243.846 3.25585V2.93319C243.839 2.60321 243.612 2.40522 243.208 2.40522C242.842 2.40522 242.607 2.57388 242.548 2.8452H241.515C241.581 2.1559 242.182 1.61326 243.238 1.61326C244.103 1.61326 244.924 2.0019 244.924 2.96253V5.6464H243.898V5.09642H243.868C243.67 5.46307 243.296 5.71973 242.702 5.71973C241.94 5.71973 241.375 5.32375 241.375 4.53178ZM242.417 4.50245C242.417 4.81044 242.666 4.97176 243.01 4.97176C243.502 4.97176 243.854 4.64178 243.846 4.2238V3.93048C243.681 3.93781 243.219 3.96348 243.032 3.98181C242.658 4.01848 242.417 4.19447 242.417 4.50245ZM248.026 2.8452C247.982 2.56654 247.733 2.38322 247.374 2.38322C247.022 2.38322 246.75 2.55188 246.758 2.79387C246.75 2.96986 246.897 3.10919 247.271 3.18985L247.982 3.33651C248.752 3.49783 249.126 3.84248 249.134 4.41446C249.126 5.19909 248.422 5.72706 247.366 5.72706C246.288 5.72706 245.658 5.24308 245.57 4.46579H246.662C246.714 4.78111 246.97 4.94243 247.366 4.94243C247.762 4.94243 248.026 4.78111 248.026 4.52445C248.026 4.31913 247.858 4.19447 247.484 4.1138L246.824 3.98181C246.068 3.83515 245.672 3.43917 245.68 2.85253C245.672 2.0899 246.332 1.61326 247.359 1.61326C248.364 1.61326 248.987 2.0899 249.046 2.8452H248.026ZM251.605 5.72706C250.387 5.72706 249.639 4.9351 249.639 3.67383C249.639 2.44188 250.395 1.61326 251.561 1.61326C252.609 1.61326 253.431 2.27323 253.431 3.62983V3.93781H250.71C250.71 4.53912 251.069 4.9131 251.627 4.9131C251.993 4.9131 252.257 4.75177 252.367 4.50979H253.401C253.247 5.24308 252.587 5.72706 251.605 5.72706ZM250.71 3.25585H252.404C252.404 2.77187 252.067 2.42722 251.583 2.42722C251.084 2.42722 250.728 2.79753 250.71 3.25585ZM257.801 5.71973C256.635 5.71973 255.799 5.07443 255.777 4.15047H256.892C256.914 4.54645 257.295 4.81044 257.808 4.81044C258.336 4.81044 258.718 4.50979 258.71 4.08447C258.718 3.65183 258.329 3.34384 257.706 3.34384H257.214V2.52988H257.706C258.226 2.52988 258.593 2.24389 258.593 1.82591C258.593 1.4226 258.285 1.14395 257.816 1.14395C257.346 1.14395 256.958 1.40793 256.943 1.81125H255.887C255.902 0.894624 256.73 0.263987 257.816 0.263987C258.923 0.263987 259.664 0.916623 259.656 1.75992C259.664 2.35389 259.246 2.7792 258.652 2.88186V2.92586C259.429 3.02119 259.862 3.49783 259.854 4.1578C259.862 5.06709 258.996 5.71973 257.801 5.71973ZM262.531 3.62249C262.531 2.24389 262.956 1.09995 263.66 0.109995H264.694C264.188 0.843293 263.66 2.30989 263.66 3.62249C263.66 4.94243 264.188 6.40903 264.694 7.14233H263.66C262.956 6.15237 262.531 5.0011 262.531 3.62249ZM267.224 0.263987C268.324 0.27132 269.365 0.923956 269.365 2.85253C269.373 4.65645 268.515 5.71973 267.18 5.71973C266.109 5.71973 265.383 5.05243 265.273 4.15047H266.359C266.447 4.53912 266.755 4.77377 267.18 4.77377C267.906 4.77377 268.287 4.12847 268.287 3.06519H268.243C267.994 3.5345 267.473 3.81315 266.879 3.81315C265.926 3.81315 265.222 3.09452 265.215 2.10457C265.215 1.03395 266.021 0.256654 267.224 0.263987ZM267.231 1.12928C266.689 1.12928 266.285 1.54726 266.293 2.07523C266.293 2.59588 266.681 3.00652 267.224 3.00652C267.759 3.00652 268.177 2.58121 268.177 2.0679C268.17 1.56193 267.774 1.12928 267.231 1.12928ZM272.592 2.55921V3.4245H270.172V2.55921H272.592ZM275.774 0.337317V5.6464H274.667V1.38593H274.638L273.42 2.14856V1.17328L274.733 0.337317H275.774ZM277.006 5.6464L276.999 4.8471L278.905 3.09452C279.404 2.61788 279.668 2.32456 279.668 1.90658C279.668 1.43727 279.309 1.14395 278.825 1.14395C278.326 1.14395 278.003 1.45926 278.003 1.96524H276.955C276.948 0.923956 277.717 0.263987 278.839 0.263987C279.976 0.263987 280.731 0.90929 280.731 1.83325C280.731 2.43455 280.438 2.93319 279.345 3.92315L278.539 4.70778V4.73711H280.805V5.6464H277.006ZM287.456 3.32918V4.07714H284.86V6.32103H283.936V4.07714H281.369V3.32918H287.456ZM286.913 0V0.733298H284.97C285.061 1.38593 285.798 2.04224 287.17 2.20723L286.832 2.94053C285.659 2.78287 284.819 2.28056 284.42 1.59126C284.009 2.28056 283.177 2.78287 282.015 2.94053L281.67 2.20723C283.019 2.04224 283.764 1.38593 283.87 0.733298H281.919V0H286.913ZM290 3.62249C290 5.0011 289.575 6.15237 288.871 7.14233H287.837C288.343 6.40903 288.871 4.94243 288.871 3.62249C288.871 2.30989 288.343 0.843293 287.837 0.109995H288.871C289.575 1.09995 290 2.24389 290 3.62249Z" fill="#D1D1D1"/>
<path d="M245.012 16.0025V16.4611H239.441V16.0025H241.939V14.5995H239.947V14.1683H240.898V12.1698H239.933V11.725H244.478V12.1698H243.513V14.1683H244.464V14.5995H242.466V16.0025H245.012ZM241.432 14.1683H242.986V12.1698H241.432V14.1683ZM250.425 14.4215V14.8596H246.216V11.6565H250.357V12.1082H246.764V13.0116H250.227V13.4428H246.764V14.4215H250.425ZM251.069 15.9752V16.42H245.498V15.9752H251.069ZM256.571 11.2938V11.7113H255.634V12.9021H256.551V13.3128H254.587V13.9082H257.098V14.3394H251.555V13.9082H254.053V13.3128H252.095V12.9021H253.012V11.7113H252.075V11.2938H256.571ZM256.387 14.8253V16.1326H252.773V16.7348H256.571V17.1455H252.239V15.7425H255.86V15.2223H252.225V14.8253H256.387ZM253.546 12.9021H255.1V11.7113H253.546V12.9021ZM262.635 11.1295V17.2276H262.101V11.1295H262.635ZM260.787 11.6976V13.8603H258.515V15.2976C259.525 15.2976 260.425 15.2531 261.513 15.0786L261.568 15.5303C260.445 15.7082 259.521 15.7493 258.474 15.7493H257.968V13.4223H260.247V12.1424H257.954V11.6976H260.787ZM266.441 11.5265C267.734 11.5333 268.665 12.163 268.665 13.1212C268.665 14.028 267.857 14.6303 266.701 14.7021V15.982H269.24V16.4337H263.669V15.982H266.174V14.7021C265.02 14.6269 264.216 14.0246 264.216 13.1212C264.216 12.163 265.147 11.5333 266.441 11.5265ZM266.441 11.9713C265.455 11.9713 264.736 12.4367 264.736 13.1212C264.736 13.8261 265.455 14.2778 266.441 14.2847C267.426 14.2778 268.145 13.8261 268.145 13.1212C268.145 12.4367 267.426 11.9713 266.441 11.9713ZM273.339 11.417C274.229 11.417 274.852 11.8961 274.852 12.6215C274.852 13.2478 274.359 13.7029 273.627 13.7919V14.3873C274.195 14.3634 274.773 14.312 275.304 14.2299L275.345 14.6337C274.058 14.8664 272.6 14.8801 271.546 14.8801L271.478 14.4352C271.95 14.4386 272.504 14.4352 273.086 14.4147V13.7987C272.333 13.7166 271.827 13.258 271.834 12.6215C271.827 11.8961 272.45 11.417 273.339 11.417ZM273.339 11.8345C272.751 11.8345 272.333 12.1493 272.34 12.6215C272.333 13.0801 272.751 13.3949 273.339 13.4018C273.935 13.3949 274.339 13.0801 274.346 12.6215C274.339 12.1493 273.935 11.8345 273.339 11.8345ZM276.235 11.1364V13.1964H277.145V13.655H276.235V15.7904H275.694V11.1364H276.235ZM276.454 16.6253V17.0771H272.368V15.3866H272.908V16.6253H276.454ZM279.636 12.0877C279.629 12.9569 280.245 13.7234 281.142 14.0246L280.841 14.4421C280.17 14.1888 279.643 13.6961 279.383 13.0527C279.119 13.7816 278.562 14.3497 277.829 14.6269L277.535 14.1888C278.473 13.8603 279.095 13.0527 279.102 12.1082V11.4786H279.636V12.0877ZM282.586 11.1295V14.7364H282.045V12.8816H280.69V12.4367H282.045V11.1295H282.586ZM280.567 14.9143C281.833 14.9143 282.606 15.3318 282.606 16.0641C282.606 16.7896 281.833 17.2002 280.567 17.2002C279.301 17.2002 278.527 16.7896 278.527 16.0641C278.527 15.3318 279.301 14.9143 280.567 14.9143ZM280.567 15.3386C279.636 15.3386 279.054 15.6124 279.061 16.0641C279.054 16.5021 279.636 16.7691 280.567 16.7691C281.498 16.7691 282.073 16.5021 282.073 16.0641C282.073 15.6124 281.498 15.3386 280.567 15.3386Z" fill="#D1D1D1"/>
</svg>
