<svg width="33" height="33" viewBox="0 0 33 33" fill="none" xmlns="http://www.w3.org/2000/svg">
<path d="M16.5 32.6961C25.445 32.6961 32.6963 25.4448 32.6963 16.4998C32.6963 7.55483 25.445 0.303483 16.5 0.303483C7.55501 0.303483 0.303669 7.55483 0.303669 16.4998C0.303669 25.4448 7.55501 32.6961 16.5 32.6961Z" stroke="#E5C185" stroke-opacity="0.2" stroke-width="0.6" stroke-dasharray="2.5 4"/>
<path d="M16.5 27.1287C22.3701 27.1287 27.1288 22.37 27.1288 16.4998C27.1288 10.6297 22.3701 5.87097 16.5 5.87097C10.6299 5.87097 5.87116 10.6297 5.87116 16.4998C5.87116 22.37 10.6299 27.1287 16.5 27.1287Z" stroke="#E5C185" stroke-opacity="0.4" stroke-width="0.8"/>
<path d="M16.5 24.598C20.9725 24.598 24.5982 20.9723 24.5982 16.4998C24.5982 12.0273 20.9725 8.40165 16.5 8.40165C12.0275 8.40165 8.40183 12.0273 8.40183 16.4998C8.40183 20.9723 12.0275 24.598 16.5 24.598Z" fill="#E5C185" fill-opacity="0.1"/>
<path d="M16.5 23.0796C20.1339 23.0796 23.0798 20.1337 23.0798 16.4998C23.0798 12.8659 20.1339 9.92006 16.5 9.92006C12.8661 9.92006 9.92024 12.8659 9.92024 16.4998C9.92024 20.1337 12.8661 23.0796 16.5 23.0796Z" fill="#F9F9F9" stroke="#E5C185" stroke-width="1.3"/>
<path d="M16.2604 16.5527L15.3337 17.431C15.09 17.6663 14.9552 17.973 14.9552 18.3008C14.9552 18.9816 15.5425 19.5362 16.2604 19.5362C16.9784 19.5362 17.5657 18.9816 17.5657 18.3008C17.5657 17.973 17.4309 17.6621 17.1872 17.431L16.2604 16.5527Z" fill="#E5C185"/>
<path d="M17.6587 14.0377L17.5048 14.2559C17.0923 14.8391 16.2602 14.5098 16.2602 13.76V12.4507C16.2602 12.4507 13.4632 14.0377 13.4632 16.8149C13.4632 17.9734 14.0086 18.9851 14.8232 19.5366C14.6274 19.2232 14.5121 18.8384 14.5121 18.4257C14.5121 17.902 14.6939 17.4101 15.026 17.0371L16.2602 15.6644L17.4944 17.0411C17.8265 17.4101 18.0083 17.902 18.0083 18.4297C18.0083 18.8344 17.8999 19.2073 17.7111 19.5208C18.3719 19.0645 18.8614 18.3067 19.0082 17.418C19.239 16.0095 18.6341 14.6804 17.6587 14.0377Z" fill="#E5C185"/>
<path d="M24.092 16.4998H29.6595" stroke="#E5C185" stroke-opacity="0.28" stroke-width="0.5" stroke-linecap="round"/>
<path d="M16.5 24.0918V29.6593" stroke="#E5C185" stroke-opacity="0.28" stroke-width="0.5" stroke-linecap="round"/>
<path d="M8.90797 16.4998H3.34048" stroke="#E5C185" stroke-opacity="0.28" stroke-width="0.5" stroke-linecap="round"/>
<path d="M16.5 8.90778V3.3403" stroke="#E5C185" stroke-opacity="0.28" stroke-width="0.5" stroke-linecap="round"/>
</svg>
