<svg width="343" height="88" viewBox="0 0 343 88" fill="none" xmlns="http://www.w3.org/2000/svg">
<path d="M6.0299 74.3685L11.5349 80.8744L6.0299 87.3803L0.524892 80.8744L6.0299 74.3685Z" fill="#E5C185" fill-opacity="0.35" stroke="#E5C185" stroke-opacity="0.6" stroke-width="0.8"/>
<path d="M334.829 19.8188C337.869 19.8188 340.334 17.3541 340.334 14.3138C340.334 11.2735 337.869 8.8088 334.829 8.8088C331.789 8.8088 329.324 11.2735 329.324 14.3138C329.324 17.3541 331.789 19.8188 334.829 19.8188Z" stroke="#CBD5E0" stroke-opacity="0.35" stroke-width="0.8"/>
<path d="M334.829 16.3156C335.935 16.3156 336.831 15.4194 336.831 14.3138C336.831 13.2082 335.935 12.312 334.829 12.312C333.724 12.312 332.827 13.2082 332.827 14.3138C332.827 15.4194 333.724 16.3156 334.829 16.3156Z" fill="#E8E8E8"/>
<path d="M329.873 1.42512C329.756 1.02632 329.434 0.780007 328.97 0.780007C328.313 0.780007 327.868 1.28437 327.868 2.17581C327.868 3.07311 328.302 3.58334 328.976 3.58334C329.583 3.58334 329.944 3.24025 329.956 2.70363H329.035V2.04092H330.806V2.56874C330.806 3.68304 330.043 4.36335 328.97 4.36335C327.78 4.36335 326.97 3.53056 326.97 2.18754C326.97 0.80933 327.833 0 328.953 0C329.909 0 330.648 0.586471 330.765 1.42512H329.873ZM335.339 2.18167C335.339 3.56574 334.477 4.36335 333.357 4.36335C332.225 4.36335 331.369 3.55988 331.369 2.18167C331.369 0.797601 332.225 0 333.357 0C334.477 0 335.339 0.797601 335.339 2.18167ZM334.442 2.18167C334.442 1.27264 334.014 0.780007 333.357 0.780007C332.7 0.780007 332.266 1.27264 332.266 2.18167C332.266 3.0907 332.7 3.58334 333.357 3.58334C334.014 3.58334 334.442 3.0907 334.442 2.18167ZM336.442 4.3047H335.492L336.964 0.0586471H338.096L339.562 4.3047H338.618L338.301 3.32529H336.764L336.442 4.3047ZM336.987 2.63912H338.078L337.544 1.0146H337.515L336.987 2.63912ZM340.043 4.3047V0.0586471H340.923V3.57747H342.752V4.3047H340.043Z" fill="#D1D1D1"/>
</svg>
