<svg width="281" height="156" viewBox="0 0 281 156" fill="none" xmlns="http://www.w3.org/2000/svg">
<path d="M89.6718 15.2002V155.579" stroke="#CBD5E0" stroke-opacity="0.45" stroke-width="0.6" stroke-dasharray="2 4"/>
<path d="M209.997 15.2002V155.579" stroke="#CBD5E0" stroke-opacity="0.45" stroke-width="0.6" stroke-dasharray="2 4"/>
<path d="M0.000244802 4.6718V0.0636484H3.03628V0.852889H0.954971V1.9731H2.83896V2.76234H0.954971V4.6718H0.000244802ZM7.88629 2.36772C7.88629 3.86982 6.95065 4.73544 5.73497 4.73544C4.50655 4.73544 3.57729 3.86346 3.57729 2.36772C3.57729 0.865619 4.50655 0 5.73497 0C6.95065 0 7.88629 0.865619 7.88629 2.36772ZM6.91246 2.36772C6.91246 1.38117 6.44783 0.846524 5.73497 0.846524C5.02211 0.846524 4.55111 1.38117 4.55111 2.36772C4.55111 3.35427 5.02211 3.88892 5.73497 3.88892C6.44783 3.88892 6.91246 3.35427 6.91246 2.36772ZM11.4251 0.0636484H12.3862V3.05512C12.3862 4.06713 11.6224 4.73544 10.4768 4.73544C9.33111 4.73544 8.57369 4.06713 8.57369 3.05512V0.0636484H9.52842V2.97875C9.52842 3.50703 9.90394 3.89528 10.4768 3.89528C11.056 3.89528 11.4251 3.50703 11.4251 2.97875V0.0636484ZM17.0071 0.0636484V4.6718H16.1797L14.1557 1.74397H14.1175V4.6718H13.1627V0.0636484H14.0029L16.0142 2.99148H16.0587V0.0636484H17.0071ZM19.4067 4.6718H17.7836V0.0636484H19.4257C20.8133 0.0636484 21.6598 0.929267 21.6598 2.36136C21.6598 3.80618 20.8133 4.6718 19.4067 4.6718ZM18.7383 3.85073H19.3685C20.2468 3.85073 20.7051 3.39246 20.7051 2.36136C20.7051 1.33662 20.2468 0.884713 19.3748 0.884713H18.7383V3.85073ZM22.8628 4.6718H21.8317L23.4292 0.0636484H24.6576L26.2489 4.6718H25.2241L24.8804 3.60887H23.2128L22.8628 4.6718ZM23.4547 2.86418H24.6386L24.0594 1.10112H24.0275L23.4547 2.86418ZM26.0261 0.852889V0.0636484H29.8004V0.852889H28.3874V4.6718H27.4391V0.852889H26.0261ZM31.3471 0.0636484V4.6718H30.3924V0.0636484H31.3471ZM36.3435 2.36772C36.3435 3.86982 35.4079 4.73544 34.1922 4.73544C32.9638 4.73544 32.0345 3.86346 32.0345 2.36772C32.0345 0.865619 32.9638 0 34.1922 0C35.4079 0 36.3435 0.865619 36.3435 2.36772ZM35.3697 2.36772C35.3697 1.38117 34.905 0.846524 34.1922 0.846524C33.4793 0.846524 33.0083 1.38117 33.0083 2.36772C33.0083 3.35427 33.4793 3.88892 34.1922 3.88892C34.905 3.88892 35.3697 3.35427 35.3697 2.36772ZM40.8753 0.0636484V4.6718H40.0478L38.0238 1.74397H37.9856V4.6718H37.0309V0.0636484H37.8711L39.8824 2.99148H39.9269V0.0636484H40.8753ZM44.1532 1.38117C44.115 1.01837 43.8222 0.80197 43.3576 0.80197C42.8738 0.80197 42.6065 1.02474 42.6001 1.33025C42.5938 1.66122 42.9438 1.81398 43.3385 1.90309L43.7522 2.00493C44.5414 2.18314 45.1333 2.58413 45.1333 3.35427C45.1333 4.2008 44.4714 4.73544 43.3512 4.73544C42.2373 4.73544 41.5245 4.21989 41.499 3.23334H42.4283C42.4601 3.69797 42.8293 3.93347 43.3385 3.93347C43.8413 3.93347 44.1659 3.69797 44.1659 3.35427C44.1659 3.0424 43.8795 2.896 43.3767 2.76871L42.8738 2.64777C42.0973 2.45683 41.62 2.06857 41.62 1.3939C41.62 0.553741 42.3583 0 43.3639 0C44.3823 0 45.057 0.566471 45.0697 1.38117H44.1532Z" fill="#D4A017"/>
<path opacity="0.5" d="M1.43356 7.17856H43.5473" stroke="#D4A017" stroke-width="0.5"/>
<path d="M140.778 1.54666C140.65 1.11385 140.3 0.846524 139.797 0.846524C139.085 0.846524 138.601 1.3939 138.601 2.36136C138.601 3.33518 139.072 3.88892 139.804 3.88892C140.463 3.88892 140.854 3.51658 140.867 2.93419H139.867V2.21497H141.79V2.7878C141.79 3.99712 140.962 4.73544 139.797 4.73544C138.505 4.73544 137.627 3.83164 137.627 2.37409C137.627 0.878348 138.563 0 139.778 0C140.816 0 141.618 0.636484 141.745 1.54666H140.778ZM142.49 4.6718V0.0636484H144.297C145.348 0.0636484 145.946 0.655579 145.946 1.56575C145.946 2.19587 145.656 2.65414 145.131 2.87691L146.111 4.6718H145.055L144.176 3.03603H143.444V4.6718H142.49ZM143.444 2.25952H144.119C144.686 2.25952 144.959 2.02402 144.959 1.56575C144.959 1.10112 144.686 0.846524 144.119 0.846524H143.444V2.25952ZM150.828 2.36772C150.828 3.86982 149.892 4.73544 148.676 4.73544C147.448 4.73544 146.519 3.86346 146.519 2.36772C146.519 0.865619 147.448 0 148.676 0C149.892 0 150.828 0.865619 150.828 2.36772ZM149.854 2.36772C149.854 1.38117 149.389 0.846524 148.676 0.846524C147.964 0.846524 147.493 1.38117 147.493 2.36772C147.493 3.35427 147.964 3.88892 148.676 3.88892C149.389 3.88892 149.854 3.35427 149.854 2.36772ZM152.381 4.6718L151.063 0.0636484H152.107L152.884 3.28426H152.922L153.768 0.0636484H154.666L155.512 3.29062H155.55L156.327 0.0636484H157.371L156.053 4.6718H155.118L154.239 1.6294H154.201L153.316 4.6718H152.381ZM157.683 0.852889V0.0636484H161.457V0.852889H160.044V4.6718H159.096V0.852889H157.683ZM162.049 4.6718V0.0636484H163.004V1.9731H165.002V0.0636484H165.963V4.6718H165.002V2.76234H163.004V4.6718H162.049Z" fill="#D1D1D1"/>
<path d="M245.28 4.6718V0.0636484H248.374V0.852889H246.235V1.9731H248.215V2.76234H246.235V3.88255H248.38V4.6718H245.28ZM250.003 0.0636484L250.945 1.64849H250.977L251.925 0.0636484H253.007L251.601 2.36772L253.039 4.6718H251.932L250.977 3.08695H250.945L249.99 4.6718H248.889L250.334 2.36772L248.915 0.0636484H250.003ZM253.587 4.6718V0.0636484H255.394C256.444 0.0636484 257.043 0.706498 257.043 1.61667C257.043 2.53957 256.432 3.16969 255.369 3.16969H254.541V4.6718H253.587ZM254.541 2.39955H255.216C255.782 2.39955 256.056 2.0813 256.056 1.61667C256.056 1.1584 255.782 0.846524 255.216 0.846524H254.541V2.39955ZM257.883 4.6718H256.852L258.449 0.0636484H259.678L261.269 4.6718H260.244L259.901 3.60887H258.233L257.883 4.6718ZM258.475 2.86418H259.659L259.079 1.10112H259.048L258.475 2.86418ZM265.635 0.0636484V4.6718H264.808L262.784 1.74397H262.746V4.6718H261.791V0.0636484H262.631L264.642 2.99148H264.687V0.0636484H265.635ZM268.913 1.38117C268.875 1.01837 268.582 0.80197 268.118 0.80197C267.634 0.80197 267.367 1.02474 267.36 1.33025C267.354 1.66122 267.704 1.81398 268.098 1.90309L268.512 2.00493C269.301 2.18314 269.893 2.58413 269.893 3.35427C269.893 4.2008 269.231 4.73544 268.111 4.73544C266.997 4.73544 266.284 4.21989 266.259 3.23334H267.188C267.22 3.69797 267.589 3.93347 268.098 3.93347C268.601 3.93347 268.926 3.69797 268.926 3.35427C268.926 3.0424 268.639 2.896 268.137 2.76871L267.634 2.64777C266.857 2.45683 266.38 2.06857 266.38 1.3939C266.38 0.553741 267.118 0 268.124 0C269.142 0 269.817 0.566471 269.83 1.38117H268.913ZM271.472 0.0636484V4.6718H270.517V0.0636484H271.472ZM276.468 2.36772C276.468 3.86982 275.533 4.73544 274.317 4.73544C273.088 4.73544 272.159 3.86346 272.159 2.36772C272.159 0.865619 273.088 0 274.317 0C275.533 0 276.468 0.865619 276.468 2.36772ZM275.494 2.36772C275.494 1.38117 275.03 0.846524 274.317 0.846524C273.604 0.846524 273.133 1.38117 273.133 2.36772C273.133 3.35427 273.604 3.88892 274.317 3.88892C275.03 3.88892 275.494 3.35427 275.494 2.36772ZM281 0.0636484V4.6718H280.173L278.149 1.74397H278.11V4.6718H277.156V0.0636484H277.996L280.007 2.99148H280.052V0.0636484H281Z" fill="#D1D1D1"/>
</svg>
