<svg width="382" height="200" viewBox="0 0 382 200" fill="none" xmlns="http://www.w3.org/2000/svg">
<g opacity="0.06">
<path d="M0 20H382" stroke="#1A1C1E" stroke-width="0.4"/>
<path d="M0 40H382" stroke="#1A1C1E" stroke-width="0.4"/>
<path d="M0 60H382" stroke="#1A1C1E" stroke-width="0.4"/>
<path d="M0 80H382" stroke="#1A1C1E" stroke-width="0.4"/>
<path d="M0 100H382" stroke="#1A1C1E" stroke-width="0.4"/>
<path d="M0 120H382" stroke="#1A1C1E" stroke-width="0.4"/>
<path d="M0 140H382" stroke="#1A1C1E" stroke-width="0.4"/>
<path d="M0 160H382" stroke="#1A1C1E" stroke-width="0.4"/>
<path d="M0 180H382" stroke="#1A1C1E" stroke-width="0.4"/>
<path d="M20 0V200" stroke="#1A1C1E" stroke-width="0.4"/>
<path d="M40 0V200" stroke="#1A1C1E" stroke-width="0.4"/>
<path d="M60 0V200" stroke="#1A1C1E" stroke-width="0.4"/>
<path d="M80 0V200" stroke="#1A1C1E" stroke-width="0.4"/>
<path d="M100 0V200" stroke="#1A1C1E" stroke-width="0.4"/>
<path d="M120 0V200" stroke="#1A1C1E" stroke-width="0.4"/>
<path d="M140 0V200" stroke="#1A1C1E" stroke-width="0.4"/>
<path d="M160 0V200" stroke="#1A1C1E" stroke-width="0.4"/>
<path d="M180 0V200" stroke="#1A1C1E" stroke-width="0.4"/>
<path d="M200 0V200" stroke="#1A1C1E" stroke-width="0.4"/>
<path d="M220 0V200" stroke="#1A1C1E" stroke-width="0.4"/>
<path d="M240 0V200" stroke="#1A1C1E" stroke-width="0.4"/>
<path d="M260 0V200" stroke="#1A1C1E" stroke-width="0.4"/>
<path d="M280 0V200" stroke="#1A1C1E" stroke-width="0.4"/>
<path d="M300 0V200" stroke="#1A1C1E" stroke-width="0.4"/>
<path d="M320 0V200" stroke="#1A1C1E" stroke-width="0.4"/>
<path d="M340 0V200" stroke="#1A1C1E" stroke-width="0.4"/>
<path d="M360 0V200" stroke="#1A1C1E" stroke-width="0.4"/>
<path d="M380 0V200" stroke="#1A1C1E" stroke-width="0.4"/>
</g>
</svg>
