<svg width="352" height="70" viewBox="0 0 352 70" fill="none" xmlns="http://www.w3.org/2000/svg">
<path d="M103.062 60.174L101.744 55.5663H102.788L103.565 58.7866H103.603L104.449 55.5663H105.347L106.193 58.793H106.231L107.008 55.5663H108.051L106.734 60.174H105.798L104.92 57.1319H104.882L103.997 60.174H103.062ZM108.223 59.3594V58.602L110.171 55.5663H111.374V58.5893H111.959V59.3594H111.374V60.174H110.463V59.3594H108.223ZM109.191 58.5893H110.476V56.6164H110.432L109.191 58.5511V58.5893Z" fill="#D1D1D1"/>
<path d="M13.2346 65.6022C13.2346 66.5832 13.6811 67.5702 14.5858 67.952L14.1452 68.5512C13.5342 68.2751 13.1112 67.7435 12.8704 67.0826C12.6266 67.8022 12.1889 68.3838 11.5368 68.6805L11.0845 68.0578C12.0185 67.6642 12.4709 66.642 12.4768 65.6022V64.8032H13.2346V65.6022ZM15.6315 64.392V69.7497H14.8736V64.392H15.6315ZM19.3912 64.7034V65.3026H18.3279C18.3338 65.9282 18.7039 66.5686 19.5733 66.8476L19.1915 67.4292C18.5982 67.2383 18.1899 66.8564 17.9578 66.3776C17.7199 66.9005 17.294 67.3146 16.6713 67.5173L16.2718 66.9416C17.1559 66.6567 17.5583 65.9723 17.5701 65.3026H16.4774V64.7034H19.3912ZM20.5955 64.392V65.6903H21.3181V66.313H20.5955V67.6172H19.8436V64.392H20.5955ZM20.5955 67.8463V69.7379H19.8436V68.4396H16.9944V67.8463H20.5955Z" fill="#D4A017"/>
<path d="M1.41873 61.1766L0 56.2145H1.12402L1.96017 59.6825H2.0013L2.91285 56.2145H3.87922L4.79077 59.6893H4.8319L5.66805 56.2145H6.79207L5.37334 61.1766H4.36584L3.42002 57.9005H3.3789L2.42623 61.1766H1.41873ZM9.43077 56.2145V61.1766H8.39585V57.1946H8.36843L7.23071 57.9074V56.9958L8.45753 56.2145H9.43077ZM12.8028 59.5797C12.4807 59.5797 12.2202 59.3192 12.2271 59.004C12.2202 58.6887 12.4807 58.4351 12.8028 58.4351C13.1044 58.4351 13.3717 58.6887 13.3717 59.004C13.3717 59.3192 13.1044 59.5797 12.8028 59.5797ZM19.965 56.2145V61.1766H19.074L16.8945 58.0239H16.8534V61.1766H15.8253V56.2145H16.73L18.8958 59.3672H18.9438V56.2145H19.965ZM25.3452 58.6956C25.3452 60.313 24.3377 61.2451 23.0286 61.2451C21.7058 61.2451 20.7052 60.3062 20.7052 58.6956C20.7052 57.0781 21.7058 56.146 23.0286 56.146C24.3377 56.146 25.3452 57.0781 25.3452 58.6956ZM24.2966 58.6956C24.2966 57.6332 23.7962 57.0575 23.0286 57.0575C22.261 57.0575 21.7538 57.6332 21.7538 58.6956C21.7538 59.7579 22.261 60.3336 23.0286 60.3336C23.7962 60.3336 24.2966 59.7579 24.2966 58.6956ZM27.0175 61.1766L25.5988 56.2145H26.7228L27.5589 59.6825H27.6001L28.5116 56.2145H29.478L30.3895 59.6893H30.4307L31.2668 56.2145H32.3908L30.9721 61.1766H29.9646L29.0188 57.9005H28.9777L28.025 61.1766H27.0175Z" fill="#D4A017"/>
<path d="M226.518 27.088L225.099 22.1259H226.223L227.059 25.5939H227.1L228.012 22.1259H228.978L229.89 25.6007H229.931L230.767 22.1259H231.891L230.472 27.088H229.465L228.519 23.8119H228.478L227.525 27.088H226.518ZM234.255 27.1565C233.125 27.1565 232.309 26.5603 232.309 25.7515C232.309 25.1278 232.789 24.6206 233.406 24.5247V24.4904C232.871 24.3876 232.501 23.9353 232.501 23.3938C232.501 22.6193 233.241 22.0573 234.255 22.0573C235.27 22.0573 236.01 22.6193 236.017 23.3938C236.01 23.9421 235.633 24.3876 235.112 24.4904V24.5247C235.715 24.6206 236.202 25.1278 236.202 25.7515C236.202 26.5603 235.386 27.1565 234.255 27.1565ZM234.255 26.3684C234.776 26.3684 235.126 26.0736 235.126 25.6487C235.126 25.2169 234.763 24.9016 234.255 24.9016C233.748 24.9016 233.378 25.2169 233.385 25.6487C233.378 26.0736 233.728 26.3684 234.255 26.3684ZM234.255 24.1751C234.694 24.1751 235.009 23.8941 235.009 23.4966C235.009 23.1128 234.701 22.8387 234.255 22.8387C233.81 22.8387 233.508 23.106 233.508 23.4966C233.508 23.8941 233.817 24.1751 234.255 24.1751Z" fill="#D1D1D1"/>
<path d="M339.286 5.03066L337.868 0.0685375H338.992L339.828 3.53654H339.869L340.78 0.0685375H341.747L342.658 3.54339H342.699L343.536 0.0685375H344.66L343.241 5.03066H342.233L341.288 1.75456H341.246L340.294 5.03066H339.286ZM347.298 0.0685375V5.03066H346.263V1.04862H346.236L345.098 1.76141V0.849866L346.325 0.0685375H347.298ZM348.45 5.03066L348.443 4.2836L350.225 2.64555C350.691 2.20006 350.938 1.9259 350.938 1.53524C350.938 1.0966 350.602 0.82245 350.149 0.82245C349.683 0.82245 349.382 1.11716 349.382 1.59007H348.402C348.395 0.616838 349.115 0 350.163 0C351.226 0 351.931 0.60313 351.931 1.4667C351.931 2.02871 351.657 2.49477 350.636 3.42002L349.882 4.15338V4.18079H352V5.03066H348.45Z" fill="#D1D1D1"/>
</svg>
