<svg width="361" height="141" viewBox="0 0 361 141" fill="none" xmlns="http://www.w3.org/2000/svg">
<path d="M328.236 21.1409C328.402 21.1409 328.536 21.0064 328.536 20.8404C328.536 20.6744 328.402 20.5398 328.236 20.5398C328.07 20.5398 327.935 20.6744 327.935 20.8404C327.935 21.0064 328.07 21.1409 328.236 21.1409Z" fill="#CBD5E0" fill-opacity="0.1"/>
<path d="M52.7023 132.456C52.9236 132.456 53.1031 132.277 53.1031 132.056C53.1031 131.834 52.9236 131.655 52.7023 131.655C52.4809 131.655 52.3015 131.834 52.3015 132.056C52.3015 132.277 52.4809 132.456 52.7023 132.456Z" fill="#CBD5E0" fill-opacity="0.12"/>
<path d="M111.817 52.5019C112.149 52.5019 112.418 52.2327 112.418 51.9007C112.418 51.5687 112.149 51.2996 111.817 51.2996C111.485 51.2996 111.215 51.5687 111.215 51.9007C111.215 52.2327 111.485 52.5019 111.817 52.5019Z" fill="#CBD5E0" fill-opacity="0.06"/>
<path d="M333.245 132.657C333.577 132.657 333.847 132.388 333.847 132.056C333.847 131.724 333.577 131.455 333.245 131.455C332.913 131.455 332.644 131.724 332.644 132.056C332.644 132.388 332.913 132.657 333.245 132.657Z" fill="#CBD5E0" fill-opacity="0.12"/>
<path d="M3.60738 33.5651C3.99473 33.5651 4.30874 33.2511 4.30874 32.8637C4.30874 32.4764 3.99473 32.1624 3.60738 32.1624C3.22003 32.1624 2.90602 32.4764 2.90602 32.8637C2.90602 33.2511 3.22003 33.5651 3.60738 33.5651Z" fill="#CBD5E0" fill-opacity="0.11"/>
<path d="M172.935 19.2372C173.156 19.2372 173.336 19.0577 173.336 18.8364C173.336 18.615 173.156 18.4356 172.935 18.4356C172.714 18.4356 172.534 18.615 172.534 18.8364C172.534 19.0577 172.714 19.2372 172.935 19.2372Z" fill="#E5C185" fill-opacity="0.07"/>
<path d="M310.201 60.7176C310.643 60.7176 311.002 60.3587 311.002 59.9161C311.002 59.4734 310.643 59.1145 310.201 59.1145C309.758 59.1145 309.399 59.4734 309.399 59.9161C309.399 60.3587 309.758 60.7176 310.201 60.7176Z" fill="#CBD5E0" fill-opacity="0.16"/>
<path d="M193.976 13.4262C194.308 13.4262 194.577 13.157 194.577 12.825C194.577 12.493 194.308 12.2239 193.976 12.2239C193.644 12.2239 193.375 12.493 193.375 12.825C193.375 13.157 193.644 13.4262 193.976 13.4262Z" fill="#E5C185" fill-opacity="0.18"/>
<path d="M185.96 140.472C186.182 140.472 186.361 140.293 186.361 140.071C186.361 139.85 186.182 139.67 185.96 139.67C185.739 139.67 185.56 139.85 185.56 140.071C185.56 140.293 185.739 140.472 185.96 140.472Z" fill="#E5C185" fill-opacity="0.07"/>
<path d="M148.888 13.6264C149.331 13.6264 149.69 13.2675 149.69 12.8248C149.69 12.3822 149.331 12.0233 148.888 12.0233C148.446 12.0233 148.087 12.3822 148.087 12.8248C148.087 13.2675 148.446 13.6264 148.888 13.6264Z" fill="#CBD5E0" fill-opacity="0.18"/>
<path d="M233.052 86.3672C233.273 86.3672 233.452 86.1878 233.452 85.9664C233.452 85.7451 233.273 85.5656 233.052 85.5656C232.83 85.5656 232.651 85.7451 232.651 85.9664C232.651 86.1878 232.83 86.3672 233.052 86.3672Z" fill="#E5C185" fill-opacity="0.11"/>
<path d="M360.298 11.5224C360.686 11.5224 361 11.2084 361 10.8211C361 10.4337 360.686 10.1197 360.298 10.1197C359.911 10.1197 359.597 10.4337 359.597 10.8211C359.597 11.2084 359.911 11.5224 360.298 11.5224Z" fill="#E5C185" fill-opacity="0.08"/>
<path d="M83.7618 111.516C84.0385 111.516 84.2628 111.292 84.2628 111.015C84.2628 110.738 84.0385 110.514 83.7618 110.514C83.4852 110.514 83.2609 110.738 83.2609 111.015C83.2609 111.292 83.4852 111.516 83.7618 111.516Z" fill="#E5C185" fill-opacity="0.2"/>
<path d="M286.155 49.5962C286.542 49.5962 286.856 49.2821 286.856 48.8948C286.856 48.5074 286.542 48.1934 286.155 48.1934C285.767 48.1934 285.453 48.5074 285.453 48.8948C285.453 49.2821 285.767 49.5962 286.155 49.5962Z" fill="#E5C185" fill-opacity="0.18"/>
<path d="M117.828 1.6031C118.271 1.6031 118.63 1.24424 118.63 0.801552C118.63 0.358867 118.271 0 117.828 0C117.385 0 117.026 0.358867 117.026 0.801552C117.026 1.24424 117.385 1.6031 117.828 1.6031Z" fill="#CBD5E0" fill-opacity="0.12"/>
<path d="M291.164 73.342C291.385 73.342 291.565 73.1625 291.565 72.9412C291.565 72.7198 291.385 72.5404 291.164 72.5404C290.943 72.5404 290.763 72.7198 290.763 72.9412C290.763 73.1625 290.943 73.342 291.164 73.342Z" fill="#E5C185" fill-opacity="0.13"/>
<path d="M330.24 110.414C330.461 110.414 330.641 110.234 330.641 110.013C330.641 109.792 330.461 109.612 330.24 109.612C330.018 109.612 329.839 109.792 329.839 110.013C329.839 110.234 330.018 110.414 330.24 110.414Z" fill="#E5C185" fill-opacity="0.08"/>
<path d="M276.135 60.6175C276.523 60.6175 276.837 60.3035 276.837 59.9161C276.837 59.5288 276.523 59.2148 276.135 59.2148C275.748 59.2148 275.434 59.5288 275.434 59.9161C275.434 60.3035 275.748 60.6175 276.135 60.6175Z" fill="#E5C185" fill-opacity="0.12"/>
<path d="M185.96 49.7964C186.458 49.7964 186.862 49.3926 186.862 48.8946C186.862 48.3966 186.458 47.9929 185.96 47.9929C185.462 47.9929 185.059 48.3966 185.059 48.8946C185.059 49.3926 185.462 49.7964 185.96 49.7964Z" fill="#CBD5E0" fill-opacity="0.08"/>
<path d="M24.6479 21.241C24.8693 21.241 25.0487 21.0616 25.0487 20.8403C25.0487 20.6189 24.8693 20.4395 24.6479 20.4395C24.4266 20.4395 24.2472 20.6189 24.2472 20.8403C24.2472 21.0616 24.4266 21.241 24.6479 21.241Z" fill="#E5C185" fill-opacity="0.08"/>
<path d="M306.193 9.31785C306.469 9.31785 306.694 9.09356 306.694 8.81688C306.694 8.5402 306.469 8.31591 306.193 8.31591C305.916 8.31591 305.692 8.5402 305.692 8.81688C305.692 9.09356 305.916 9.31785 306.193 9.31785Z" fill="#CBD5E0" fill-opacity="0.14"/>
<path d="M128.849 134.861C129.292 134.861 129.651 134.502 129.651 134.06C129.651 133.617 129.292 133.258 128.849 133.258C128.407 133.258 128.048 133.617 128.048 134.06C128.048 134.502 128.407 134.861 128.849 134.861Z" fill="#E5C185" fill-opacity="0.06"/>
<path d="M350.278 130.853C350.721 130.853 351.08 130.495 351.08 130.052C351.08 129.609 350.721 129.25 350.278 129.25C349.836 129.25 349.477 129.609 349.477 130.052C349.477 130.495 349.836 130.853 350.278 130.853Z" fill="#CBD5E0" fill-opacity="0.17"/>
<path d="M150.892 104.402C151.114 104.402 151.293 104.223 151.293 104.001C151.293 103.78 151.114 103.601 150.892 103.601C150.671 103.601 150.492 103.78 150.492 104.001C150.492 104.223 150.671 104.402 150.892 104.402Z" fill="#E5C185" fill-opacity="0.06"/>
<path d="M134.861 121.836C135.304 121.836 135.663 121.477 135.663 121.034C135.663 120.592 135.304 120.233 134.861 120.233C134.418 120.233 134.059 120.592 134.059 121.034C134.059 121.477 134.418 121.836 134.861 121.836Z" fill="#CBD5E0" fill-opacity="0.13"/>
<path d="M321.222 69.7351C321.665 69.7351 322.024 69.3762 322.024 68.9335C322.024 68.4908 321.665 68.132 321.222 68.132C320.779 68.132 320.42 68.4908 320.42 68.9335C320.42 69.3762 320.779 69.7351 321.222 69.7351Z" fill="#CBD5E0" fill-opacity="0.13"/>
<path d="M191.972 34.467C192.304 34.467 192.573 34.1978 192.573 33.8658C192.573 33.5338 192.304 33.2646 191.972 33.2646C191.64 33.2646 191.371 33.5338 191.371 33.8658C191.371 34.1978 191.64 34.467 191.972 34.467Z" fill="#CBD5E0" fill-opacity="0.17"/>
<path d="M0.601164 75.5465C0.933178 75.5465 1.20233 75.2774 1.20233 74.9454C1.20233 74.6133 0.933178 74.3442 0.601164 74.3442C0.26915 74.3442 0 74.6133 0 74.9454C0 75.2774 0.26915 75.5465 0.601164 75.5465Z" fill="#CBD5E0" fill-opacity="0.08"/>
</svg>
