<svg width="22" height="5" viewBox="0 0 22 5" fill="none" xmlns="http://www.w3.org/2000/svg">
<path opacity="0.55" d="M2.28301 4.566C3.54388 4.566 4.56602 3.54386 4.56602 2.283C4.56602 1.02213 3.54388 0 2.28301 0C1.02215 0 0 1.02213 0 2.283C0 3.54386 1.02215 4.566 2.28301 4.566Z" fill="#5F5E5E"/>
<path opacity="0.55" d="M11.0003 4.566C12.2612 4.566 13.2833 3.54386 13.2833 2.283C13.2833 1.02213 12.2612 0 11.0003 0C9.73945 0 8.71731 1.02213 8.71731 2.283C8.71731 3.54386 9.73945 4.566 11.0003 4.566Z" fill="#5F5E5E"/>
<path opacity="0.55" d="M19.7166 4.566C20.9775 4.566 21.9996 3.54386 21.9996 2.283C21.9996 1.02213 20.9775 0 19.7166 0C18.4557 0 17.4336 1.02213 17.4336 2.283C17.4336 3.54386 18.4557 4.566 19.7166 4.566Z" fill="#5F5E5E"/>
</svg>
