<svg width="390" height="220" viewBox="0 0 390 220" fill="none" xmlns="http://www.w3.org/2000/svg">
<g opacity="0.06">
<path d="M0 20H390" stroke="#1A1C1E" stroke-width="0.5"/>
<path d="M0 40H390" stroke="#1A1C1E" stroke-width="0.5"/>
<path d="M0 60H390" stroke="#1A1C1E" stroke-width="0.5"/>
<path d="M0 80H390" stroke="#1A1C1E" stroke-width="0.5"/>
<path d="M0 100H390" stroke="#1A1C1E" stroke-width="0.5"/>
<path d="M0 120H390" stroke="#1A1C1E" stroke-width="0.5"/>
<path d="M0 140H390" stroke="#1A1C1E" stroke-width="0.5"/>
<path d="M0 160H390" stroke="#1A1C1E" stroke-width="0.5"/>
<path d="M0 180H390" stroke="#1A1C1E" stroke-width="0.5"/>
<path d="M0 200H390" stroke="#1A1C1E" stroke-width="0.5"/>
<path d="M39 0V220" stroke="#1A1C1E" stroke-width="0.5"/>
<path d="M78 0V220" stroke="#1A1C1E" stroke-width="0.5"/>
<path d="M117 0V220" stroke="#1A1C1E" stroke-width="0.5"/>
<path d="M156 0V220" stroke="#1A1C1E" stroke-width="0.5"/>
<path d="M195 0V220" stroke="#1A1C1E" stroke-width="0.5"/>
<path d="M234 0V220" stroke="#1A1C1E" stroke-width="0.5"/>
<path d="M273 0V220" stroke="#1A1C1E" stroke-width="0.5"/>
<path d="M312 0V220" stroke="#1A1C1E" stroke-width="0.5"/>
<path d="M351 0V220" stroke="#1A1C1E" stroke-width="0.5"/>
</g>
<path opacity="0.8" d="M171 51H115C110.582 51 107 54.5817 107 59V161C107 165.418 110.582 169 115 169H171C175.418 169 179 165.418 179 161V59C179 54.5817 175.418 51 171 51Z" fill="white" fill-opacity="0.5" stroke="#1A1C1E" stroke-width="1.8"/>
<path opacity="0.35" d="M119 64H167" stroke="#1A1C1E" stroke-width="0.8"/>
<path opacity="0.38" d="M169 70H117C115.895 70 115 70.8954 115 72V79C115 80.1046 115.895 81 117 81H169C170.105 81 171 80.1046 171 79V72C171 70.8954 170.105 70 169 70Z" stroke="#1A1C1E"/>
<path opacity="0.32" d="M169 86H117C115.895 86 115 86.8954 115 88V112C115 113.105 115.895 114 117 114H169C170.105 114 171 113.105 171 112V88C171 86.8954 170.105 86 169 86Z" stroke="#1A1C1E"/>
<path opacity="0.22" d="M115 86L171 114" stroke="#1A1C1E" stroke-width="0.7"/>
<path opacity="0.22" d="M171 86L115 114" stroke="#1A1C1E" stroke-width="0.7"/>
<path opacity="0.28" d="M115 121H165" stroke="#1A1C1E"/>
<path opacity="0.22" d="M115 129H158" stroke="#1A1C1E" stroke-width="0.8"/>
<path opacity="0.22" d="M115 137H160" stroke="#1A1C1E" stroke-width="0.8"/>
<path opacity="0.3" d="M162 144H124C121.239 144 119 146.239 119 149C119 151.761 121.239 154 124 154H162C164.761 154 167 151.761 167 149C167 146.239 164.761 144 162 144Z" stroke="#1A1C1E"/>
<path d="M129.284 174.071L129.211 174.394C129.13 174.397 129.03 174.416 128.913 174.452C128.796 174.485 128.687 174.529 128.586 174.584C128.452 174.659 128.34 174.745 128.249 174.843C128.158 174.94 128.067 175.074 127.976 175.243C127.64 175.865 127.185 176.716 126.608 177.797C126.035 178.878 125.446 179.975 124.841 181.088H124.406L123.84 175.746L120.808 181.088H120.378C120.303 179.607 120.24 178.362 120.188 177.353C120.135 176.34 120.096 175.574 120.07 175.053C120.064 174.949 120.044 174.861 120.012 174.789C119.979 174.717 119.916 174.644 119.821 174.569C119.753 174.514 119.665 174.473 119.558 174.447C119.453 174.418 119.359 174.4 119.274 174.394L119.348 174.071H122.136L122.062 174.394C121.675 174.416 121.415 174.459 121.281 174.521C121.151 174.579 121.086 174.651 121.086 174.735C121.086 174.8 121.088 174.896 121.091 175.023C121.094 175.15 121.099 175.281 121.105 175.414C121.115 175.639 121.138 176.093 121.174 176.776C121.213 177.457 121.26 178.314 121.315 179.35L124.226 174.169H124.675L125.256 179.462C125.663 178.684 126.018 177.994 126.32 177.392C126.623 176.786 126.893 176.243 127.131 175.761C127.274 175.465 127.373 175.24 127.429 175.087C127.487 174.934 127.517 174.826 127.517 174.765C127.517 174.66 127.442 174.577 127.292 174.516C127.146 174.451 126.932 174.41 126.652 174.394L126.726 174.071H129.284ZM130.832 180.468L130.759 180.78C130.459 180.901 130.22 180.984 130.041 181.029C129.862 181.078 129.709 181.103 129.582 181.103C129.322 181.103 129.126 181.036 128.996 180.902C128.866 180.766 128.801 180.598 128.801 180.399C128.801 180.325 128.807 180.246 128.82 180.165C128.833 180.084 128.854 179.981 128.884 179.857L129.401 177.782C129.427 177.668 129.452 177.546 129.475 177.416C129.501 177.286 129.514 177.175 129.514 177.084C129.514 176.902 129.483 176.781 129.421 176.723C129.362 176.661 129.24 176.63 129.055 176.63C128.983 176.63 128.887 176.641 128.767 176.664C128.649 176.687 128.56 176.706 128.498 176.723L128.571 176.41C128.825 176.296 129.053 176.212 129.255 176.156C129.457 176.101 129.616 176.073 129.733 176.073C130 176.073 130.194 176.137 130.314 176.264C130.435 176.391 130.495 176.562 130.495 176.776C130.495 176.835 130.489 176.915 130.476 177.016C130.463 177.117 130.443 177.217 130.417 177.318L129.895 179.394C129.862 179.521 129.833 179.646 129.807 179.77C129.784 179.89 129.772 179.989 129.772 180.067C129.772 180.253 129.813 180.38 129.895 180.448C129.979 180.517 130.114 180.551 130.3 180.551C130.362 180.551 130.45 180.543 130.563 180.526C130.681 180.51 130.77 180.491 130.832 180.468ZM131.179 174.228C131.179 174.413 131.118 174.576 130.998 174.716C130.878 174.853 130.728 174.921 130.549 174.921C130.383 174.921 130.24 174.856 130.119 174.726C129.999 174.592 129.938 174.441 129.938 174.271C129.938 174.092 129.999 173.936 130.119 173.803C130.24 173.669 130.383 173.603 130.549 173.603C130.734 173.603 130.886 173.666 131.003 173.793C131.12 173.917 131.179 174.062 131.179 174.228ZM135.778 176.869C135.778 176.96 135.765 177.061 135.739 177.172C135.713 177.279 135.676 177.369 135.627 177.44C135.568 177.528 135.503 177.597 135.432 177.646C135.363 177.691 135.264 177.714 135.134 177.714C134.958 177.714 134.826 177.67 134.738 177.582C134.65 177.494 134.606 177.396 134.606 177.289C134.606 177.188 134.631 177.076 134.68 176.952C134.729 176.825 134.779 176.7 134.831 176.576C134.792 176.576 134.727 176.588 134.636 176.61C134.548 176.63 134.44 176.671 134.313 176.732C134.187 176.794 134.042 176.887 133.879 177.011C133.719 177.134 133.549 177.299 133.366 177.504L132.58 181H131.672L132.385 177.836C132.401 177.758 132.424 177.641 132.453 177.484C132.486 177.328 132.502 177.213 132.502 177.138C132.502 176.955 132.471 176.833 132.409 176.771C132.347 176.71 132.224 176.679 132.038 176.679C131.966 176.679 131.875 176.692 131.765 176.718C131.654 176.741 131.568 176.76 131.506 176.776L131.579 176.464C131.833 176.35 132.058 176.265 132.253 176.21C132.448 176.155 132.616 176.127 132.756 176.127C133.016 176.127 133.202 176.199 133.312 176.342C133.423 176.482 133.479 176.693 133.479 176.977H133.508C133.895 176.641 134.188 176.407 134.387 176.273C134.589 176.14 134.799 176.073 135.017 176.073C135.121 176.073 135.222 176.086 135.319 176.112C135.417 176.138 135.5 176.182 135.568 176.244C135.64 176.312 135.692 176.392 135.725 176.483C135.76 176.571 135.778 176.7 135.778 176.869ZM140.261 177.089C140.261 177.434 140.152 177.73 139.934 177.978C139.719 178.225 139.405 178.422 138.991 178.568C138.688 178.679 138.382 178.769 138.073 178.837C137.764 178.905 137.422 178.962 137.048 179.008C137.048 179.522 137.142 179.916 137.331 180.189C137.523 180.46 137.803 180.595 138.171 180.595C138.496 180.595 138.783 180.513 139.03 180.351C139.281 180.188 139.527 179.945 139.768 179.623L140.046 179.828C139.785 180.225 139.46 180.543 139.069 180.78C138.679 181.018 138.273 181.137 137.854 181.137C137.277 181.137 136.836 180.976 136.53 180.653C136.228 180.331 136.076 179.874 136.076 179.281C136.076 178.871 136.14 178.48 136.267 178.109C136.397 177.735 136.586 177.393 136.833 177.084C137.074 176.781 137.368 176.537 137.717 176.352C138.068 176.166 138.456 176.073 138.879 176.073C139.348 176.073 139.694 176.169 139.919 176.361C140.147 176.55 140.261 176.793 140.261 177.089ZM139.362 176.967C139.362 176.84 139.344 176.741 139.309 176.669C139.273 176.594 139.227 176.539 139.172 176.503C139.113 176.464 139.051 176.439 138.986 176.43C138.921 176.42 138.854 176.415 138.786 176.415C138.396 176.415 138.034 176.63 137.702 177.06C137.373 177.489 137.165 178.025 137.077 178.666C137.305 178.633 137.562 178.588 137.849 178.529C138.135 178.467 138.373 178.388 138.562 178.29C138.832 178.15 139.032 177.971 139.162 177.753C139.296 177.532 139.362 177.27 139.362 176.967ZM142.873 176.674L142.014 180.707C141.861 181.43 141.538 182.021 141.047 182.479C140.555 182.938 140.049 183.168 139.528 183.168C139.242 183.168 139.032 183.113 138.898 183.002C138.762 182.895 138.693 182.758 138.693 182.592C138.693 182.452 138.736 182.328 138.82 182.221C138.905 182.113 139.027 182.06 139.187 182.06C139.287 182.06 139.377 182.082 139.455 182.128C139.53 182.174 139.597 182.23 139.655 182.299C139.701 182.354 139.753 182.429 139.812 182.523C139.867 182.618 139.916 182.699 139.958 182.768C140.209 182.748 140.422 182.579 140.598 182.26C140.777 181.941 140.931 181.485 141.062 180.893L141.96 176.674H141.008L141.11 176.229H142.053L142.121 175.897C142.199 175.52 142.323 175.18 142.492 174.877C142.661 174.574 142.854 174.317 143.068 174.105C143.28 173.897 143.519 173.734 143.786 173.617C144.056 173.497 144.315 173.437 144.562 173.437C144.849 173.437 145.059 173.492 145.192 173.603C145.329 173.71 145.397 173.847 145.397 174.013C145.397 174.153 145.357 174.276 145.275 174.384C145.197 174.491 145.074 174.545 144.904 174.545C144.803 174.545 144.715 174.524 144.641 174.481C144.566 174.436 144.499 174.377 144.44 174.306C144.375 174.224 144.323 174.148 144.284 174.076C144.245 174.005 144.196 173.925 144.138 173.837C143.913 173.847 143.715 173.995 143.542 174.281C143.369 174.568 143.213 175.045 143.073 175.712L142.966 176.229H144.191L144.089 176.674H142.873ZM148.405 176.869C148.405 176.96 148.392 177.061 148.366 177.172C148.34 177.279 148.303 177.369 148.254 177.44C148.195 177.528 148.13 177.597 148.059 177.646C147.99 177.691 147.891 177.714 147.761 177.714C147.585 177.714 147.453 177.67 147.365 177.582C147.277 177.494 147.233 177.396 147.233 177.289C147.233 177.188 147.258 177.076 147.307 176.952C147.355 176.825 147.406 176.7 147.458 176.576C147.419 176.576 147.354 176.588 147.263 176.61C147.175 176.63 147.067 176.671 146.94 176.732C146.813 176.794 146.669 176.887 146.506 177.011C146.346 177.134 146.175 177.299 145.993 177.504L145.207 181H144.299L145.012 177.836C145.028 177.758 145.051 177.641 145.08 177.484C145.113 177.328 145.129 177.213 145.129 177.138C145.129 176.955 145.098 176.833 145.036 176.771C144.974 176.71 144.851 176.679 144.665 176.679C144.593 176.679 144.502 176.692 144.392 176.718C144.281 176.741 144.195 176.76 144.133 176.776L144.206 176.464C144.46 176.35 144.685 176.265 144.88 176.21C145.075 176.155 145.243 176.127 145.383 176.127C145.643 176.127 145.829 176.199 145.939 176.342C146.05 176.482 146.105 176.693 146.105 176.977H146.135C146.522 176.641 146.815 176.407 147.014 176.273C147.215 176.14 147.425 176.073 147.644 176.073C147.748 176.073 147.849 176.086 147.946 176.112C148.044 176.138 148.127 176.182 148.195 176.244C148.267 176.312 148.319 176.392 148.352 176.483C148.387 176.571 148.405 176.7 148.405 176.869ZM151.765 180.355H151.73C151.659 180.414 151.573 180.489 151.472 180.58C151.374 180.668 151.258 180.753 151.125 180.834C150.998 180.915 150.86 180.985 150.71 181.044C150.56 181.106 150.397 181.137 150.222 181.137C149.75 181.137 149.379 180.967 149.108 180.629C148.841 180.29 148.708 179.828 148.708 179.242C148.708 178.839 148.783 178.446 148.933 178.065C149.082 177.685 149.289 177.343 149.553 177.04C149.803 176.75 150.101 176.518 150.446 176.342C150.791 176.163 151.146 176.073 151.511 176.073C151.742 176.073 151.962 176.104 152.17 176.166C152.382 176.228 152.548 176.298 152.668 176.376L153.562 176.146L153.62 176.22L152.878 179.369C152.852 179.47 152.824 179.594 152.795 179.74C152.769 179.883 152.756 179.989 152.756 180.058C152.756 180.243 152.795 180.368 152.873 180.434C152.951 180.499 153.083 180.531 153.269 180.531C153.33 180.531 153.418 180.521 153.532 180.502C153.646 180.482 153.734 180.461 153.796 180.438L153.723 180.751C153.43 180.868 153.212 180.953 153.068 181.005C152.925 181.057 152.751 181.083 152.546 181.083C152.312 181.083 152.126 181.015 151.989 180.878C151.853 180.741 151.778 180.567 151.765 180.355ZM152.463 177.27C152.463 177.162 152.451 177.06 152.429 176.962C152.406 176.864 152.359 176.773 152.287 176.688C152.222 176.607 152.132 176.542 152.019 176.493C151.905 176.444 151.761 176.42 151.589 176.42C151.351 176.42 151.12 176.498 150.896 176.654C150.671 176.811 150.469 177.021 150.29 177.284C150.121 177.532 149.982 177.831 149.875 178.183C149.768 178.534 149.714 178.891 149.714 179.252C149.714 179.451 149.725 179.626 149.748 179.779C149.771 179.932 149.815 180.072 149.88 180.199C149.942 180.323 150.031 180.419 150.148 180.487C150.266 180.556 150.414 180.59 150.593 180.59C150.775 180.59 150.965 180.539 151.164 180.438C151.366 180.334 151.592 180.154 151.843 179.896L152.463 177.27ZM162.609 180.448L162.536 180.761C162.237 180.881 161.997 180.964 161.818 181.01C161.639 181.059 161.486 181.083 161.359 181.083C161.099 181.083 160.904 181.016 160.773 180.883C160.643 180.746 160.578 180.578 160.578 180.38C160.578 180.308 160.585 180.23 160.598 180.146C160.611 180.058 160.632 179.955 160.661 179.838L161.14 178.017C161.175 177.877 161.203 177.75 161.223 177.636C161.245 177.522 161.257 177.431 161.257 177.362C161.257 177.144 161.21 176.972 161.115 176.845C161.021 176.718 160.871 176.654 160.666 176.654C160.448 176.654 160.233 176.706 160.021 176.811C159.813 176.911 159.577 177.102 159.313 177.382L158.464 181H157.556L158.322 177.738C158.339 177.667 158.353 177.592 158.366 177.514C158.382 177.432 158.391 177.372 158.391 177.333C158.391 177.121 158.337 176.955 158.229 176.835C158.125 176.715 157.971 176.654 157.766 176.654C157.58 176.654 157.375 176.701 157.15 176.796C156.926 176.887 156.665 177.094 156.369 177.416L155.544 181H154.636L155.363 177.836C155.389 177.722 155.414 177.6 155.437 177.47C155.463 177.34 155.476 177.229 155.476 177.138C155.476 176.949 155.445 176.825 155.383 176.767C155.321 176.705 155.201 176.674 155.021 176.674C154.95 176.674 154.857 176.687 154.743 176.713C154.632 176.739 154.546 176.76 154.484 176.776L154.558 176.464C154.812 176.35 155.036 176.265 155.231 176.21C155.427 176.155 155.594 176.127 155.734 176.127C155.995 176.127 156.179 176.199 156.286 176.342C156.397 176.482 156.455 176.674 156.462 176.918H156.491C156.875 176.615 157.191 176.399 157.438 176.269C157.686 176.138 157.98 176.073 158.322 176.073C158.612 176.073 158.846 176.158 159.025 176.327C159.208 176.493 159.31 176.703 159.333 176.957H159.353C159.701 176.667 160.01 176.448 160.28 176.298C160.554 176.148 160.871 176.073 161.232 176.073C161.545 176.073 161.784 176.164 161.95 176.347C162.119 176.526 162.204 176.762 162.204 177.055C162.204 177.113 162.194 177.217 162.175 177.367C162.159 177.517 162.131 177.665 162.092 177.812L161.682 179.379C161.652 179.483 161.625 179.604 161.599 179.74C161.573 179.874 161.56 179.978 161.56 180.053C161.56 180.238 161.599 180.365 161.677 180.434C161.755 180.499 161.887 180.531 162.072 180.531C162.134 180.531 162.224 180.523 162.341 180.507C162.458 180.491 162.548 180.471 162.609 180.448ZM167.419 177.089C167.419 177.434 167.31 177.73 167.092 177.978C166.877 178.225 166.563 178.422 166.149 178.568C165.847 178.679 165.541 178.769 165.231 178.837C164.922 178.905 164.58 178.962 164.206 179.008C164.206 179.522 164.3 179.916 164.489 180.189C164.681 180.46 164.961 180.595 165.329 180.595C165.655 180.595 165.941 180.513 166.188 180.351C166.439 180.188 166.685 179.945 166.926 179.623L167.204 179.828C166.944 180.225 166.618 180.543 166.228 180.78C165.837 181.018 165.432 181.137 165.012 181.137C164.436 181.137 163.994 180.976 163.688 180.653C163.386 180.331 163.234 179.874 163.234 179.281C163.234 178.871 163.298 178.48 163.425 178.109C163.555 177.735 163.744 177.393 163.991 177.084C164.232 176.781 164.527 176.537 164.875 176.352C165.227 176.166 165.614 176.073 166.037 176.073C166.506 176.073 166.853 176.169 167.077 176.361C167.305 176.55 167.419 176.793 167.419 177.089ZM166.521 176.967C166.521 176.84 166.503 176.741 166.467 176.669C166.431 176.594 166.385 176.539 166.33 176.503C166.271 176.464 166.21 176.439 166.145 176.43C166.079 176.42 166.013 176.415 165.944 176.415C165.554 176.415 165.192 176.63 164.86 177.06C164.532 177.489 164.323 178.025 164.235 178.666C164.463 178.633 164.72 178.588 165.007 178.529C165.293 178.467 165.531 178.388 165.72 178.29C165.99 178.15 166.19 177.971 166.32 177.753C166.454 177.532 166.521 177.27 166.521 176.967Z" fill="#5F5E5E"/>
<path opacity="0.85" d="M184 110H202M196 104L204 110L196 116" stroke="#D4A853" stroke-width="1.8" stroke-linecap="round" stroke-linejoin="round"/>
<path opacity="0.8" d="M275 51H219C214.582 51 211 54.5817 211 59V161C211 165.418 214.582 169 219 169H275C279.418 169 283 165.418 283 161V59C283 54.5817 279.418 51 275 51Z" fill="white" fill-opacity="0.5" stroke="#1A1C1E" stroke-width="1.8"/>
<path opacity="0.35" d="M223 64H271" stroke="#1A1C1E" stroke-width="0.8"/>
<path opacity="0.55" d="M273 70H221C219.895 70 219 70.8954 219 72V79C219 80.1046 219.895 81 221 81H273C274.105 81 275 80.1046 275 79V72C275 70.8954 274.105 70 273 70Z" fill="#D4A853"/>
<path opacity="0.42" d="M273 86H221C219.895 86 219 86.8954 219 88V112C219 113.105 219.895 114 221 114H273C274.105 114 275 113.105 275 112V88C275 86.8954 274.105 86 273 86Z" fill="#8FAF8A"/>
<path opacity="0.18" d="M267 121H221C219.895 121 219 121.895 219 123V124C219 125.105 219.895 126 221 126H267C268.105 126 269 125.105 269 124V123C269 121.895 268.105 121 267 121Z" fill="#1A1C1E"/>
<path opacity="0.13" d="M261 130H221C219.895 130 219 130.895 219 132C219 133.105 219.895 134 221 134H261C262.105 134 263 133.105 263 132C263 130.895 262.105 130 261 130Z" fill="#1A1C1E"/>
<path opacity="0.13" d="M263 138H221C219.895 138 219 138.895 219 140C219 141.105 219.895 142 221 142H263C264.105 142 265 141.105 265 140C265 138.895 264.105 138 263 138Z" fill="#1A1C1E"/>
<path opacity="0.68" d="M266 146H228C225.239 146 223 148.239 223 151C223 153.761 225.239 156 228 156H266C268.761 156 271 153.761 271 151C271 148.239 268.761 146 266 146Z" fill="#D4A853"/>
<path opacity="0.65" d="M233 165C234.105 165 235 164.105 235 163C235 161.895 234.105 161 233 161C231.895 161 231 161.895 231 163C231 164.105 231.895 165 233 165Z" fill="#D4A853"/>
<path opacity="0.2" d="M247 165C248.105 165 249 164.105 249 163C249 161.895 248.105 161 247 161C245.895 161 245 161.895 245 163C245 164.105 245.895 165 247 165Z" fill="#1A1C1E"/>
<path opacity="0.2" d="M259 165C260.105 165 261 164.105 261 163C261 161.895 260.105 161 259 161C257.895 161 257 161.895 257 163C257 164.105 257.895 165 259 165Z" fill="#1A1C1E"/>
<path d="M231.15 175.468C231.15 175.862 231.062 176.213 230.887 176.522C230.714 176.832 230.491 177.089 230.218 177.294C229.931 177.509 229.611 177.672 229.256 177.782C228.901 177.89 228.53 177.943 228.143 177.943H227.298L226.8 180.082C226.793 180.111 226.788 180.142 226.785 180.175C226.782 180.207 226.78 180.235 226.78 180.258C226.78 180.329 226.793 180.393 226.819 180.448C226.845 180.504 226.897 180.548 226.976 180.58C227.024 180.603 227.122 180.624 227.269 180.644C227.418 180.663 227.552 180.674 227.669 180.678L227.596 181H224.622L224.695 180.678C224.777 180.671 224.892 180.66 225.042 180.644C225.192 180.627 225.301 180.606 225.369 180.58C225.486 180.535 225.574 180.469 225.633 180.385C225.695 180.297 225.737 180.196 225.76 180.082L226.927 175.033C226.933 175.004 226.938 174.971 226.941 174.936C226.948 174.9 226.951 174.866 226.951 174.833C226.951 174.765 226.938 174.703 226.912 174.647C226.886 174.592 226.837 174.55 226.766 174.521C226.661 174.481 226.551 174.452 226.434 174.433C226.316 174.413 226.209 174.4 226.111 174.394L226.185 174.071H229.266C229.822 174.071 230.275 174.197 230.623 174.447C230.975 174.695 231.15 175.035 231.15 175.468ZM229.588 176.791C229.721 176.599 229.816 176.396 229.871 176.181C229.926 175.963 229.954 175.759 229.954 175.57C229.954 175.421 229.933 175.279 229.891 175.146C229.852 175.012 229.783 174.892 229.686 174.784C229.588 174.68 229.463 174.599 229.31 174.54C229.157 174.478 228.965 174.447 228.733 174.447H228.099L227.391 177.543H227.942C228.32 177.543 228.646 177.481 228.919 177.357C229.192 177.23 229.415 177.042 229.588 176.791ZM235.506 176.869C235.506 176.96 235.493 177.061 235.467 177.172C235.441 177.279 235.403 177.369 235.354 177.44C235.296 177.528 235.231 177.597 235.159 177.646C235.091 177.691 234.992 177.714 234.861 177.714C234.686 177.714 234.554 177.67 234.466 177.582C234.378 177.494 234.334 177.396 234.334 177.289C234.334 177.188 234.358 177.076 234.407 176.952C234.456 176.825 234.507 176.7 234.559 176.576C234.52 176.576 234.454 176.588 234.363 176.61C234.275 176.63 234.168 176.671 234.041 176.732C233.914 176.794 233.769 176.887 233.606 177.011C233.447 177.134 233.276 177.299 233.094 177.504L232.308 181H231.399L232.112 177.836C232.129 177.758 232.151 177.641 232.181 177.484C232.213 177.328 232.229 177.213 232.229 177.138C232.229 176.955 232.199 176.833 232.137 176.771C232.075 176.71 231.951 176.679 231.766 176.679C231.694 176.679 231.603 176.692 231.492 176.718C231.382 176.741 231.295 176.76 231.233 176.776L231.307 176.464C231.561 176.35 231.785 176.265 231.98 176.21C232.176 176.155 232.343 176.127 232.483 176.127C232.744 176.127 232.929 176.199 233.04 176.342C233.151 176.482 233.206 176.693 233.206 176.977H233.235C233.623 176.641 233.916 176.407 234.114 176.273C234.316 176.14 234.526 176.073 234.744 176.073C234.848 176.073 234.949 176.086 235.047 176.112C235.145 176.138 235.228 176.182 235.296 176.244C235.368 176.312 235.42 176.392 235.452 176.483C235.488 176.571 235.506 176.7 235.506 176.869ZM240.511 177.992C240.511 178.376 240.446 178.76 240.315 179.145C240.185 179.529 239.996 179.866 239.749 180.155C239.498 180.455 239.196 180.696 238.841 180.878C238.489 181.057 238.081 181.146 237.615 181.146C237.075 181.146 236.635 180.972 236.297 180.624C235.962 180.276 235.794 179.807 235.794 179.218C235.794 178.785 235.866 178.381 236.009 178.007C236.152 177.632 236.344 177.304 236.585 177.021C236.829 176.737 237.13 176.509 237.488 176.337C237.85 176.161 238.24 176.073 238.66 176.073C239.24 176.073 239.692 176.251 240.018 176.605C240.346 176.957 240.511 177.419 240.511 177.992ZM239.515 177.807C239.515 177.344 239.432 176.998 239.266 176.767C239.103 176.535 238.867 176.42 238.558 176.42C238.287 176.42 238.032 176.503 237.791 176.669C237.553 176.835 237.348 177.105 237.176 177.479C237.042 177.763 236.945 178.078 236.883 178.427C236.821 178.772 236.79 179.091 236.79 179.384C236.79 179.849 236.87 180.202 237.029 180.443C237.192 180.681 237.436 180.8 237.762 180.8C238.051 180.8 238.309 180.709 238.533 180.526C238.758 180.344 238.94 180.113 239.08 179.833C239.22 179.56 239.327 179.247 239.402 178.896C239.477 178.541 239.515 178.178 239.515 177.807ZM242.317 181.103C242.008 181.103 241.782 181.041 241.639 180.917C241.495 180.79 241.424 180.609 241.424 180.375C241.424 180.3 241.429 180.23 241.438 180.165C241.448 180.097 241.461 180.02 241.478 179.936L242.234 176.674H241.365L241.468 176.229H242.356L242.698 174.799H243.577L243.245 176.229H244.607L244.505 176.674H243.152L242.527 179.364C242.498 179.488 242.474 179.608 242.454 179.726C242.435 179.84 242.425 179.937 242.425 180.019C242.425 180.198 242.469 180.329 242.557 180.414C242.648 180.495 242.811 180.536 243.045 180.536C243.13 180.536 243.248 180.526 243.401 180.507C243.554 180.484 243.673 180.456 243.758 180.424L243.675 180.78C243.447 180.868 243.232 180.943 243.03 181.005C242.828 181.07 242.591 181.103 242.317 181.103ZM249.358 177.992C249.358 178.376 249.293 178.76 249.163 179.145C249.033 179.529 248.844 179.866 248.597 180.155C248.346 180.455 248.043 180.696 247.688 180.878C247.337 181.057 246.928 181.146 246.463 181.146C245.923 181.146 245.483 180.972 245.145 180.624C244.809 180.276 244.642 179.807 244.642 179.218C244.642 178.785 244.713 178.381 244.856 178.007C245 177.632 245.192 177.304 245.433 177.021C245.677 176.737 245.978 176.509 246.336 176.337C246.697 176.161 247.088 176.073 247.508 176.073C248.087 176.073 248.54 176.251 248.865 176.605C249.194 176.957 249.358 177.419 249.358 177.992ZM248.362 177.807C248.362 177.344 248.279 176.998 248.113 176.767C247.951 176.535 247.715 176.42 247.405 176.42C247.135 176.42 246.88 176.503 246.639 176.669C246.401 176.835 246.196 177.105 246.023 177.479C245.89 177.763 245.792 178.078 245.73 178.427C245.669 178.772 245.638 179.091 245.638 179.384C245.638 179.849 245.717 180.202 245.877 180.443C246.04 180.681 246.284 180.8 246.609 180.8C246.899 180.8 247.156 180.709 247.381 180.526C247.605 180.344 247.788 180.113 247.928 179.833C248.068 179.56 248.175 179.247 248.25 178.896C248.325 178.541 248.362 178.178 248.362 177.807ZM251.165 181.103C250.856 181.103 250.63 181.041 250.486 180.917C250.343 180.79 250.271 180.609 250.271 180.375C250.271 180.3 250.276 180.23 250.286 180.165C250.296 180.097 250.309 180.02 250.325 179.936L251.082 176.674H250.213L250.315 176.229H251.204L251.546 174.799H252.425L252.093 176.229H253.455L253.353 176.674H252L251.375 179.364C251.346 179.488 251.321 179.608 251.302 179.726C251.282 179.84 251.272 179.937 251.272 180.019C251.272 180.198 251.316 180.329 251.404 180.414C251.495 180.495 251.658 180.536 251.893 180.536C251.977 180.536 252.096 180.526 252.249 180.507C252.402 180.484 252.521 180.456 252.605 180.424L252.522 180.78C252.295 180.868 252.08 180.943 251.878 181.005C251.676 181.07 251.438 181.103 251.165 181.103ZM256.663 180.292H256.634C256.334 180.543 256.049 180.74 255.779 180.883C255.509 181.026 255.201 181.098 254.856 181.098C254.544 181.098 254.297 181.008 254.114 180.829C253.932 180.647 253.841 180.409 253.841 180.116C253.841 180.038 253.847 179.945 253.86 179.838C253.873 179.73 253.904 179.571 253.953 179.359L254.334 177.836C254.37 177.689 254.397 177.562 254.417 177.455C254.437 177.344 254.446 177.239 254.446 177.138C254.446 176.955 254.415 176.835 254.354 176.776C254.295 176.715 254.173 176.684 253.987 176.684C253.916 176.684 253.825 176.697 253.714 176.723C253.603 176.749 253.517 176.77 253.455 176.786L253.528 176.474C253.782 176.36 254.005 176.273 254.197 176.215C254.393 176.156 254.549 176.127 254.666 176.127C254.926 176.127 255.118 176.186 255.242 176.303C255.369 176.42 255.433 176.596 255.433 176.83C255.433 176.889 255.426 176.968 255.413 177.069C255.4 177.17 255.381 177.271 255.354 177.372L254.91 179.154C254.878 179.291 254.85 179.42 254.827 179.54C254.804 179.657 254.793 179.747 254.793 179.809C254.793 180.027 254.845 180.199 254.949 180.326C255.057 180.453 255.213 180.517 255.418 180.517C255.656 180.517 255.887 180.458 256.111 180.341C256.339 180.224 256.552 180.062 256.751 179.857L257.562 176.205L258.406 176.146L258.465 176.22L257.625 180.043C257.501 180.603 257.343 181.081 257.151 181.479C256.959 181.876 256.735 182.196 256.478 182.44C256.207 182.698 255.916 182.883 255.604 182.997C255.291 183.111 254.935 183.168 254.534 183.168C254.257 183.168 254.038 183.148 253.875 183.109C253.712 183.07 253.584 183.017 253.489 182.948C253.395 182.883 253.331 182.81 253.299 182.729C253.266 182.647 253.25 182.566 253.25 182.484C253.25 182.344 253.292 182.221 253.377 182.113C253.462 182.006 253.584 181.952 253.743 181.952C253.864 181.952 253.966 181.986 254.051 182.055C254.135 182.123 254.204 182.198 254.256 182.279C254.314 182.367 254.368 182.466 254.417 182.577C254.466 182.688 254.505 182.776 254.534 182.841H254.651C254.837 182.841 255.032 182.795 255.237 182.704C255.446 182.613 255.636 182.471 255.809 182.279C255.994 182.071 256.16 181.802 256.307 181.474C256.456 181.145 256.575 180.751 256.663 180.292ZM264.197 177.938C264.197 178.375 264.121 178.788 263.968 179.179C263.815 179.569 263.611 179.908 263.357 180.194C263.074 180.51 262.767 180.744 262.435 180.897C262.106 181.05 261.767 181.127 261.419 181.127C261.139 181.127 260.91 181.093 260.73 181.024C260.551 180.956 260.392 180.871 260.252 180.771L259.969 182.05C259.949 182.131 259.933 182.208 259.92 182.279C259.91 182.351 259.905 182.408 259.905 182.45C259.905 182.538 259.936 182.608 259.998 182.66C260.063 182.712 260.136 182.75 260.218 182.772C260.299 182.799 260.39 182.818 260.491 182.831C260.592 182.844 260.683 182.854 260.765 182.86L260.696 183.168H258.006L258.074 182.86C258.178 182.854 258.276 182.846 258.367 182.836C258.458 182.826 258.545 182.81 258.626 182.787C258.727 182.758 258.807 182.702 258.865 182.621C258.927 182.543 258.971 182.445 258.997 182.328L260.018 177.836C260.044 177.712 260.068 177.589 260.091 177.465C260.114 177.338 260.125 177.229 260.125 177.138C260.125 176.955 260.096 176.833 260.037 176.771C259.982 176.71 259.86 176.679 259.671 176.679C259.599 176.679 259.508 176.693 259.397 176.723C259.287 176.749 259.201 176.77 259.139 176.786L259.212 176.474C259.459 176.363 259.682 176.278 259.881 176.22C260.079 176.158 260.249 176.127 260.389 176.127C260.617 176.127 260.789 176.186 260.906 176.303C261.023 176.417 261.097 176.576 261.126 176.781H261.165C261.386 176.576 261.622 176.407 261.873 176.273C262.127 176.14 262.379 176.073 262.63 176.073C263.125 176.073 263.509 176.243 263.782 176.581C264.059 176.916 264.197 177.369 264.197 177.938ZM262.674 179.955C262.84 179.688 262.967 179.385 263.055 179.047C263.146 178.705 263.191 178.344 263.191 177.963C263.191 177.79 263.175 177.618 263.143 177.445C263.113 177.27 263.064 177.125 262.996 177.011C262.924 176.884 262.827 176.786 262.703 176.718C262.579 176.646 262.417 176.61 262.215 176.61C262.065 176.61 261.899 176.656 261.717 176.747C261.538 176.838 261.318 177.009 261.058 177.26L260.433 180.028C260.455 180.214 260.555 180.388 260.73 180.551C260.91 180.71 261.124 180.79 261.375 180.79C261.632 180.79 261.873 180.715 262.098 180.565C262.322 180.416 262.514 180.212 262.674 179.955ZM269.061 177.089C269.061 177.434 268.951 177.73 268.733 177.978C268.519 178.225 268.204 178.422 267.791 178.568C267.488 178.679 267.182 178.769 266.873 178.837C266.564 178.905 266.222 178.962 265.848 179.008C265.848 179.522 265.942 179.916 266.131 180.189C266.323 180.46 266.603 180.595 266.971 180.595C267.296 180.595 267.583 180.513 267.83 180.351C268.081 180.188 268.326 179.945 268.567 179.623L268.846 179.828C268.585 180.225 268.26 180.543 267.869 180.78C267.479 181.018 267.073 181.137 266.653 181.137C266.077 181.137 265.636 180.976 265.33 180.653C265.027 180.331 264.876 179.874 264.876 179.281C264.876 178.871 264.939 178.48 265.066 178.109C265.197 177.735 265.385 177.393 265.633 177.084C265.874 176.781 266.168 176.537 266.517 176.352C266.868 176.166 267.256 176.073 267.679 176.073C268.147 176.073 268.494 176.169 268.719 176.361C268.947 176.55 269.061 176.793 269.061 177.089ZM268.162 176.967C268.162 176.84 268.144 176.741 268.108 176.669C268.073 176.594 268.027 176.539 267.972 176.503C267.913 176.464 267.851 176.439 267.786 176.43C267.721 176.42 267.654 176.415 267.586 176.415C267.195 176.415 266.834 176.63 266.502 177.06C266.173 177.489 265.965 178.025 265.877 178.666C266.105 178.633 266.362 178.588 266.648 178.529C266.935 178.467 267.173 178.388 267.361 178.29C267.632 178.15 267.832 177.971 267.962 177.753C268.095 177.532 268.162 177.27 268.162 176.967Z" fill="#5F5E5E"/>
<path opacity="0.52" d="M348 15L351 7L354 15L362 18L354 21L351 29L348 21L340 18L348 15Z" stroke="#D4A853" stroke-width="1.2" stroke-linejoin="round"/>
<path opacity="0.42" d="M22 15.5C22.8284 15.5 23.5 14.8284 23.5 14C23.5 13.1716 22.8284 12.5 22 12.5C21.1716 12.5 20.5 13.1716 20.5 14C20.5 14.8284 21.1716 15.5 22 15.5Z" fill="#D4A853"/>
<path opacity="0.42" d="M368 211.8C368.994 211.8 369.8 210.994 369.8 210C369.8 209.006 368.994 208.2 368 208.2C367.006 208.2 366.2 209.006 366.2 210C366.2 210.994 367.006 211.8 368 211.8Z" fill="#8FAF8A"/>
<path opacity="0.38" d="M15.9998 205.2C16.6625 205.2 17.1998 204.663 17.1998 204C17.1998 203.337 16.6625 202.8 15.9998 202.8C15.3371 202.8 14.7998 203.337 14.7998 204C14.7998 204.663 15.3371 205.2 15.9998 205.2Z" fill="#C4876A"/>
<path opacity="0.38" d="M376 53C376.828 53 377.5 52.3284 377.5 51.5C377.5 50.6716 376.828 50 376 50C375.172 50 374.5 50.6716 374.5 51.5C374.5 52.3284 375.172 53 376 53Z" fill="#D4A853"/>
<g opacity="0.14">
<path d="M20 31.5C20.8284 31.5 21.5 30.8284 21.5 30C21.5 29.1716 20.8284 28.5 20 28.5C19.1716 28.5 18.5 29.1716 18.5 30C18.5 30.8284 19.1716 31.5 20 31.5Z" fill="#1A1C1E"/>
<path d="M39.9998 15.2C40.6625 15.2 41.1998 14.6628 41.1998 14C41.1998 13.3373 40.6625 12.8 39.9998 12.8C39.3371 12.8 38.7998 13.3373 38.7998 14C38.7998 14.6628 39.3371 15.2 39.9998 15.2Z" fill="#1A1C1E"/>
<path d="M16 171.5C16.8284 171.5 17.5 170.828 17.5 170C17.5 169.172 16.8284 168.5 16 168.5C15.1716 168.5 14.5 169.172 14.5 170C14.5 170.828 15.1716 171.5 16 171.5Z" fill="#1A1C1E"/>
<path d="M35.9998 183.2C36.6625 183.2 37.1998 182.663 37.1998 182C37.1998 181.337 36.6625 180.8 35.9998 180.8C35.3371 180.8 34.7998 181.337 34.7998 182C34.7998 182.663 35.3371 183.2 35.9998 183.2Z" fill="#1A1C1E"/>
<path d="M56 173.5C56.8284 173.5 57.5 172.828 57.5 172C57.5 171.172 56.8284 170.5 56 170.5C55.1716 170.5 54.5 171.172 54.5 172C54.5 172.828 55.1716 173.5 56 173.5Z" fill="#1A1C1E"/>
<path d="M358 42.7C358.663 42.7 359.2 42.1628 359.2 41.5C359.2 40.8373 358.663 40.3 358 40.3C357.337 40.3 356.8 40.8373 356.8 41.5C356.8 42.1628 357.337 42.7 358 42.7Z" fill="#1A1C1E"/>
<path d="M376 33C376.828 33 377.5 32.3284 377.5 31.5C377.5 30.6716 376.828 30 376 30C375.172 30 374.5 30.6716 374.5 31.5C374.5 32.3284 375.172 33 376 33Z" fill="#1A1C1E"/>
<path d="M356 175.5C356.828 175.5 357.5 174.828 357.5 174C357.5 173.172 356.828 172.5 356 172.5C355.172 172.5 354.5 173.172 354.5 174C354.5 174.828 355.172 175.5 356 175.5Z" fill="#1A1C1E"/>
<path d="M376 163.2C376.663 163.2 377.2 162.663 377.2 162C377.2 161.337 376.663 160.8 376 160.8C375.337 160.8 374.8 161.337 374.8 162C374.8 162.663 375.337 163.2 376 163.2Z" fill="#1A1C1E"/>
<path d="M20 30L40 14" stroke="#1A1C1E" stroke-width="0.8"/>
<path d="M16 170L36 182" stroke="#1A1C1E" stroke-width="0.8"/>
<path d="M36 182L56 172" stroke="#1A1C1E" stroke-width="0.8"/>
<path d="M358 41.5L376 31.5" stroke="#1A1C1E" stroke-width="0.8"/>
<path d="M356 174L376 162" stroke="#1A1C1E" stroke-width="0.8"/>
</g>
</svg>
