<svg width="391" height="161" viewBox="0 0 391 161" fill="none" xmlns="http://www.w3.org/2000/svg">
<path d="M382.5 0.5H8.5C4.08172 0.5 0.5 4.08172 0.5 8.5V152.5C0.5 156.918 4.08172 160.5 8.5 160.5H382.5C386.918 160.5 390.5 156.918 390.5 152.5V8.5C390.5 4.08172 386.918 0.5 382.5 0.5Z" fill="#EEEEEE" stroke="#E0E0E0"/>
<g opacity="0.05">
<path d="M0.5 22.5H390.5" stroke="#1A1C1E" stroke-width="0.5"/>
<path d="M0.5 52.5H390.5" stroke="#1A1C1E" stroke-width="0.5"/>
<path d="M0.5 82.5H390.5" stroke="#1A1C1E" stroke-width="0.5"/>
<path d="M0.5 112.5H390.5" stroke="#1A1C1E" stroke-width="0.5"/>
</g>
<path opacity="0.85" d="M129.5 25.5H81.5C78.1863 25.5 75.5 28.1863 75.5 31.5V109.5C75.5 112.814 78.1863 115.5 81.5 115.5H129.5C132.814 115.5 135.5 112.814 135.5 109.5V31.5C135.5 28.1863 132.814 25.5 129.5 25.5Z" fill="white" stroke="#D4A853" stroke-width="1.5"/>
<path opacity="0.45" d="M129.5 31.5H81.5C80.3954 31.5 79.5 32.3954 79.5 33.5V39.5C79.5 40.6046 80.3954 41.5 81.5 41.5H129.5C130.605 41.5 131.5 40.6046 131.5 39.5V33.5C131.5 32.3954 130.605 31.5 129.5 31.5Z" fill="#D4A853"/>
<path opacity="0.6" d="M129.5 46.5H81.5C80.3954 46.5 79.5 47.3954 79.5 48.5V68.5C79.5 69.6046 80.3954 70.5 81.5 70.5H129.5C130.605 70.5 131.5 69.6046 131.5 68.5V48.5C131.5 47.3954 130.605 46.5 129.5 46.5Z" fill="#E8E8E8"/>
<path opacity="0.55" d="M111.5 76.5H83.5C81.2909 76.5 79.5 78.2909 79.5 80.5C79.5 82.7091 81.2909 84.5 83.5 84.5H111.5C113.709 84.5 115.5 82.7091 115.5 80.5C115.5 78.2909 113.709 76.5 111.5 76.5Z" fill="#D4A853"/>
<path d="M101 120.398V123.729H102.248V124.31H101V128.212H100.306V120.398H101ZM94.8389 126.129C95.4761 126.129 96.2188 126.129 96.9922 126.103V125.232C96.0825 125.131 95.4893 124.6 95.498 123.826C95.4893 122.947 96.2363 122.376 97.3438 122.376C98.4336 122.376 99.1895 122.947 99.1982 123.826C99.1895 124.6 98.5874 125.131 97.6865 125.241V126.076C98.416 126.041 99.1499 125.984 99.8311 125.883L99.875 126.41C98.1699 126.7 96.3242 126.718 94.9531 126.718L94.8389 126.129ZM99.6904 121.356V121.919H94.9795V121.356H96.9922V120.416H97.6865V121.356H99.6904ZM97.3438 122.912C96.623 122.912 96.1396 123.281 96.1396 123.826C96.1396 124.371 96.623 124.723 97.3438 124.714C98.0557 124.723 98.5391 124.371 98.5391 123.826C98.5391 123.281 98.0557 122.912 97.3438 122.912ZM106.669 121.084V121.778H108.497V120.407H109.191V126.111H108.497V124.028H106.669V124.731H103.083V121.084H106.669ZM103.769 121.655V124.178H105.992V121.655H103.769ZM109.367 127.465V128.045H104.138V125.602H104.832V127.465H109.367ZM106.669 123.457H108.497V122.358H106.669V123.457ZM115.282 121.137V127.5H114.482V121.963H114.447L112.9 122.991V122.191L114.482 121.137H115.282Z" fill="#9A9090"/>
<path opacity="0.8" d="M142.5 70.5H163.5M157.5 65.5L164.5 70.5L157.5 75.5" stroke="#D4A853" stroke-width="1.8" stroke-linecap="round" stroke-linejoin="round"/>
<path d="M150.074 59.2578V59.8203H149.184V62.2812C149.184 62.8281 149.449 62.9141 149.738 62.9141C149.863 62.9141 150.035 62.9062 150.137 62.8984V63.5234C150.035 63.5391 149.863 63.5547 149.668 63.5547C149.105 63.5547 148.504 63.2031 148.504 62.4531V59.8203H147.863V59.2578H148.504V58.2422H149.184V59.2578H150.074ZM150.738 62.2969C150.738 61.3203 151.598 61.1016 152.332 61.0469C152.602 61.0273 153.289 60.9922 153.48 60.9844V60.6406C153.48 60.1016 153.16 59.7891 152.52 59.7891C151.98 59.7891 151.66 60.0391 151.566 60.3594H150.863C150.949 59.6797 151.613 59.2031 152.551 59.2031C153.105 59.2031 154.145 59.3672 154.145 60.7031V63.5H153.48V62.9219H153.449C153.309 63.2109 152.918 63.6016 152.184 63.6016C151.379 63.6016 150.738 63.125 150.738 62.2969ZM151.41 62.3281C151.41 62.7734 151.785 63 152.301 63C153.059 63 153.48 62.4922 153.48 61.9609V61.5312L152.41 61.6094C151.801 61.6484 151.41 61.8672 151.41 62.3281ZM155.223 65.0938V59.2578H155.871V59.9297H155.949C156.09 59.7031 156.355 59.2031 157.176 59.2031C158.238 59.2031 158.98 60.0469 158.98 61.3906C158.98 62.7344 158.238 63.5859 157.184 63.5859C156.371 63.5859 156.09 63.0859 155.949 62.8516H155.895V65.0938H155.223ZM155.879 61.375C155.879 62.3281 156.309 62.9844 157.09 62.9844C157.895 62.9844 158.309 62.2812 158.309 61.375C158.309 60.4922 157.902 59.8047 157.09 59.8047C156.293 59.8047 155.879 60.4375 155.879 61.375Z" fill="#5F5E5E"/>
<path opacity="0.85" d="M219.5 25.5H171.5C168.186 25.5 165.5 28.1863 165.5 31.5V109.5C165.5 112.814 168.186 115.5 171.5 115.5H219.5C222.814 115.5 225.5 112.814 225.5 109.5V31.5C225.5 28.1863 222.814 25.5 219.5 25.5Z" fill="white" stroke="#8FAF8A" stroke-width="1.5"/>
<path opacity="0.45" d="M219.5 31.5H171.5C170.395 31.5 169.5 32.3954 169.5 33.5V39.5C169.5 40.6046 170.395 41.5 171.5 41.5H219.5C220.605 41.5 221.5 40.6046 221.5 39.5V33.5C221.5 32.3954 220.605 31.5 219.5 31.5Z" fill="#8FAF8A"/>
<path opacity="0.55" d="M219.5 46.5H171.5C170.395 46.5 169.5 47.3954 169.5 48.5V58.5C169.5 59.6046 170.395 60.5 171.5 60.5H219.5C220.605 60.5 221.5 59.6046 221.5 58.5V48.5C221.5 47.3954 220.605 46.5 219.5 46.5Z" fill="#E8E8E8"/>
<path opacity="0.45" d="M219.5 64.5H171.5C170.395 64.5 169.5 65.3954 169.5 66.5V70.5C169.5 71.6046 170.395 72.5 171.5 72.5H219.5C220.605 72.5 221.5 71.6046 221.5 70.5V66.5C221.5 65.3954 220.605 64.5 219.5 64.5Z" fill="#E8E8E8"/>
<path opacity="0.4" d="M219.5 76.5H171.5C170.395 76.5 169.5 77.3954 169.5 78.5V82.5C169.5 83.6046 170.395 84.5 171.5 84.5H219.5C220.605 84.5 221.5 83.6046 221.5 82.5V78.5C221.5 77.3954 220.605 76.5 219.5 76.5Z" fill="#E8E8E8"/>
<path opacity="0.55" d="M201.5 88.5H173.5C171.291 88.5 169.5 90.2909 169.5 92.5C169.5 94.7091 171.291 96.5 173.5 96.5H201.5C203.709 96.5 205.5 94.7091 205.5 92.5C205.5 90.2909 203.709 88.5 201.5 88.5Z" fill="#8FAF8A"/>
<path d="M190.332 120.398V123.729H191.58V124.31H190.332V128.212H189.638V120.398H190.332ZM184.171 126.129C184.808 126.129 185.551 126.129 186.324 126.103V125.232C185.415 125.131 184.821 124.6 184.83 123.826C184.821 122.947 185.568 122.376 186.676 122.376C187.766 122.376 188.521 122.947 188.53 123.826C188.521 124.6 187.919 125.131 187.019 125.241V126.076C187.748 126.041 188.482 125.984 189.163 125.883L189.207 126.41C187.502 126.7 185.656 126.718 184.285 126.718L184.171 126.129ZM189.022 121.356V121.919H184.312V121.356H186.324V120.416H187.019V121.356H189.022ZM186.676 122.912C185.955 122.912 185.472 123.281 185.472 123.826C185.472 124.371 185.955 124.723 186.676 124.714C187.388 124.723 187.871 124.371 187.871 123.826C187.871 123.281 187.388 122.912 186.676 122.912ZM196.001 121.084V121.778H197.829V120.407H198.523V126.111H197.829V124.028H196.001V124.731H192.415V121.084H196.001ZM193.101 121.655V124.178H195.324V121.655H193.101ZM198.699 127.465V128.045H193.47V125.602H194.164V127.465H198.699ZM196.001 123.457H197.829V122.358H196.001V123.457ZM202.364 127.5L202.355 126.92L204.526 124.635C205.282 123.835 205.643 123.404 205.643 122.815C205.643 122.165 205.089 121.734 204.377 121.734C203.621 121.734 203.138 122.218 203.138 122.93H202.391C202.382 121.805 203.252 121.049 204.403 121.049C205.555 121.049 206.381 121.822 206.381 122.815C206.381 123.527 206.047 124.081 204.922 125.241L203.463 126.744V126.797H206.495V127.5H202.364Z" fill="#9A9090"/>
<path opacity="0.8" d="M232.5 70.5H253.5M247.5 65.5L254.5 70.5L247.5 75.5" stroke="#D4A853" stroke-width="1.8" stroke-linecap="round" stroke-linejoin="round"/>
<path d="M235.906 60.3594C235.812 60.0078 235.547 59.7734 235.047 59.7734C234.523 59.7734 234.148 60.0547 234.148 60.4141C234.148 60.6953 234.375 60.8906 234.875 61.0078L235.508 61.1641C236.266 61.3438 236.641 61.7188 236.641 62.3125C236.641 63.0469 236.039 63.5859 234.977 63.5859C234.023 63.5859 233.453 63.1641 233.344 62.3906H234.047C234.125 62.8047 234.43 63 234.961 63C235.562 63 235.945 62.75 235.945 62.3516C235.945 62.0547 235.734 61.8516 235.25 61.7422L234.609 61.5938C233.867 61.4219 233.477 61.0156 233.477 60.4531C233.477 59.7266 234.109 59.2031 235.047 59.2031C235.922 59.2031 236.477 59.6719 236.562 60.3594H235.906ZM238.469 63.5L237.18 59.2578H237.891L238.797 62.4922H238.836L239.734 59.2578H240.453L241.336 62.4766H241.383L242.289 59.2578H242.992L241.703 63.5H241.039L240.117 60.2656H240.055L239.141 63.5H238.469ZM243.734 63.5V59.2578H244.406V63.5H243.734ZM244.07 58.5547C243.812 58.5547 243.602 58.3594 243.602 58.1094C243.602 57.8594 243.812 57.6641 244.07 57.6641C244.328 57.6641 244.547 57.8594 244.547 58.1094C244.547 58.3594 244.328 58.5547 244.07 58.5547ZM245.477 65.0938V59.2578H246.125V59.9297H246.203C246.344 59.7031 246.609 59.2031 247.43 59.2031C248.492 59.2031 249.234 60.0469 249.234 61.3906C249.234 62.7344 248.492 63.5859 247.438 63.5859C246.625 63.5859 246.344 63.0859 246.203 62.8516H246.148V65.0938H245.477ZM246.133 61.375C246.133 62.3281 246.562 62.9844 247.344 62.9844C248.148 62.9844 248.562 62.2812 248.562 61.375C248.562 60.4922 248.156 59.8047 247.344 59.8047C246.547 59.8047 246.133 60.4375 246.133 61.375ZM251.891 63.5859C250.664 63.5859 249.906 62.7188 249.906 61.4141C249.906 60.1094 250.672 59.2031 251.828 59.2031C252.719 59.2031 253.656 59.75 253.656 61.3203V61.6016H250.578C250.609 62.5 251.133 62.9922 251.891 62.9922C252.398 62.9922 252.719 62.7734 252.875 62.5078H253.594C253.391 63.1484 252.766 63.5859 251.891 63.5859ZM250.586 61.0312H252.977C252.977 60.3203 252.523 59.7969 251.828 59.7969C251.094 59.7969 250.625 60.375 250.586 61.0312Z" fill="#5F5E5E"/>
<path opacity="0.85" d="M309.5 25.5H261.5C258.186 25.5 255.5 28.1863 255.5 31.5V109.5C255.5 112.814 258.186 115.5 261.5 115.5H309.5C312.814 115.5 315.5 112.814 315.5 109.5V31.5C315.5 28.1863 312.814 25.5 309.5 25.5Z" fill="white" stroke="#C4876A" stroke-width="1.5"/>
<path opacity="0.45" d="M309.5 31.5H261.5C260.395 31.5 259.5 32.3954 259.5 33.5V39.5C259.5 40.6046 260.395 41.5 261.5 41.5H309.5C310.605 41.5 311.5 40.6046 311.5 39.5V33.5C311.5 32.3954 310.605 31.5 309.5 31.5Z" fill="#C4876A"/>
<path opacity="0.12" d="M285.5 86.5C294.337 86.5 301.5 79.3366 301.5 70.5C301.5 61.6634 294.337 54.5 285.5 54.5C276.663 54.5 269.5 61.6634 269.5 70.5C269.5 79.3366 276.663 86.5 285.5 86.5Z" fill="#C4876A"/>
<path opacity="0.8" d="M276.5 70.5L282.5 76.5L294.5 64.5" stroke="#C4876A" stroke-width="2" stroke-linecap="round" stroke-linejoin="round"/>
<path d="M280.42 120.768C281.562 120.768 282.362 121.383 282.362 122.314C282.362 123.119 281.729 123.703 280.789 123.817V124.582C281.519 124.551 282.261 124.485 282.942 124.38L282.995 124.898C281.343 125.197 279.471 125.215 278.117 125.215L278.029 124.644C278.636 124.648 279.348 124.644 280.095 124.617V123.826C279.128 123.721 278.478 123.132 278.486 122.314C278.478 121.383 279.277 120.768 280.42 120.768ZM280.42 121.304C279.664 121.304 279.128 121.708 279.137 122.314C279.128 122.903 279.664 123.308 280.42 123.316C281.185 123.308 281.703 122.903 281.712 122.314C281.703 121.708 281.185 121.304 280.42 121.304ZM284.138 120.407V123.053H285.307V123.642H284.138V126.384H283.443V120.407H284.138ZM284.419 127.456V128.036H279.172V125.865H279.866V127.456H284.419ZM292.971 126.665V127.245H285.816V126.665H287.829V125.18H286.713V122.771H291.389V121.55H286.695V120.979H292.065V123.343H287.398V124.608H292.25V125.18H291.028V126.665H292.971ZM288.506 126.665H290.352V125.18H288.506V126.665Z" fill="#9A9090"/>
<path d="M139.396 140.571L139.323 140.894C139.222 140.897 139.09 140.911 138.928 140.938C138.765 140.964 138.645 140.988 138.566 141.011C138.43 141.053 138.332 141.118 138.273 141.206C138.215 141.294 138.173 141.39 138.146 141.494L136.975 146.558C136.968 146.58 136.963 146.606 136.96 146.636C136.957 146.665 136.955 146.691 136.955 146.714C136.955 146.789 136.971 146.852 137.004 146.904C137.036 146.956 137.095 147.002 137.18 147.041C137.229 147.064 137.336 147.091 137.502 147.124C137.668 147.153 137.792 147.171 137.873 147.178L137.8 147.5H134.68L134.753 147.178C134.844 147.171 134.974 147.161 135.144 147.148C135.313 147.135 135.433 147.116 135.505 147.09C135.632 147.044 135.728 146.982 135.793 146.904C135.858 146.823 135.902 146.725 135.925 146.611L137.092 141.543C137.098 141.514 137.103 141.484 137.106 141.455C137.11 141.426 137.111 141.396 137.111 141.367C137.111 141.302 137.097 141.245 137.067 141.196C137.041 141.147 136.984 141.104 136.896 141.064C136.809 141.025 136.688 140.99 136.535 140.957C136.385 140.921 136.275 140.9 136.203 140.894L136.276 140.571H139.396ZM144.401 146.934L144.328 147.246C144.035 147.363 143.807 147.448 143.645 147.5C143.482 147.555 143.317 147.583 143.151 147.583C142.891 147.583 142.696 147.516 142.565 147.383C142.435 147.246 142.37 147.078 142.37 146.88C142.37 146.808 142.377 146.73 142.39 146.646C142.403 146.558 142.424 146.455 142.453 146.338L142.932 144.517C142.967 144.377 142.995 144.25 143.015 144.136C143.037 144.022 143.049 143.931 143.049 143.862C143.049 143.644 142.997 143.472 142.893 143.345C142.788 143.218 142.634 143.154 142.429 143.154C142.23 143.154 142.007 143.219 141.76 143.35C141.512 143.48 141.28 143.669 141.062 143.916L140.236 147.5H139.328L140.056 144.336C140.072 144.258 140.095 144.146 140.124 143.999C140.157 143.849 140.173 143.729 140.173 143.638C140.173 143.455 140.142 143.333 140.08 143.271C140.018 143.21 139.895 143.179 139.709 143.179C139.637 143.179 139.546 143.192 139.436 143.218C139.325 143.241 139.239 143.26 139.177 143.276L139.25 142.964C139.504 142.85 139.729 142.765 139.924 142.71C140.119 142.655 140.287 142.627 140.427 142.627C140.684 142.627 140.868 142.697 140.979 142.837C141.089 142.977 141.148 143.171 141.154 143.418H141.184C141.542 143.132 141.851 142.92 142.111 142.783C142.372 142.643 142.668 142.573 143 142.573C143.312 142.573 143.557 142.664 143.732 142.847C143.908 143.026 143.996 143.262 143.996 143.555C143.996 143.613 143.986 143.717 143.967 143.867C143.951 144.017 143.923 144.165 143.884 144.312L143.474 145.879C143.444 145.983 143.415 146.104 143.386 146.24C143.36 146.374 143.347 146.478 143.347 146.553C143.347 146.738 143.387 146.865 143.469 146.934C143.55 146.999 143.684 147.031 143.869 147.031C143.931 147.031 144.019 147.021 144.133 147.002C144.25 146.979 144.34 146.956 144.401 146.934ZM146.169 147.603C145.86 147.603 145.633 147.541 145.49 147.417C145.347 147.29 145.275 147.109 145.275 146.875C145.275 146.8 145.28 146.73 145.29 146.665C145.3 146.597 145.313 146.52 145.329 146.436L146.086 143.174H145.217L145.319 142.729H146.208L146.55 141.299H147.429L147.097 142.729H148.459L148.356 143.174H147.004L146.379 145.864C146.35 145.988 146.325 146.108 146.306 146.226C146.286 146.34 146.276 146.437 146.276 146.519C146.276 146.698 146.32 146.829 146.408 146.914C146.499 146.995 146.662 147.036 146.896 147.036C146.981 147.036 147.1 147.026 147.253 147.007C147.406 146.984 147.525 146.956 147.609 146.924L147.526 147.28C147.299 147.368 147.084 147.443 146.882 147.505C146.68 147.57 146.442 147.603 146.169 147.603ZM152.688 143.589C152.688 143.934 152.578 144.23 152.36 144.478C152.146 144.725 151.831 144.922 151.418 145.068C151.115 145.179 150.809 145.269 150.5 145.337C150.191 145.405 149.849 145.462 149.475 145.508C149.475 146.022 149.569 146.416 149.758 146.689C149.95 146.96 150.23 147.095 150.598 147.095C150.923 147.095 151.21 147.013 151.457 146.851C151.708 146.688 151.953 146.445 152.194 146.123L152.473 146.328C152.212 146.725 151.887 147.043 151.496 147.28C151.105 147.518 150.7 147.637 150.28 147.637C149.704 147.637 149.263 147.476 148.957 147.153C148.654 146.831 148.503 146.374 148.503 145.781C148.503 145.371 148.566 144.98 148.693 144.609C148.824 144.235 149.012 143.893 149.26 143.584C149.501 143.281 149.795 143.037 150.144 142.852C150.495 142.666 150.882 142.573 151.306 142.573C151.774 142.573 152.121 142.669 152.346 142.861C152.574 143.05 152.688 143.293 152.688 143.589ZM151.789 143.467C151.789 143.34 151.771 143.241 151.735 143.169C151.7 143.094 151.654 143.039 151.599 143.003C151.54 142.964 151.478 142.939 151.413 142.93C151.348 142.92 151.281 142.915 151.213 142.915C150.822 142.915 150.461 143.13 150.129 143.56C149.8 143.989 149.592 144.525 149.504 145.166C149.732 145.133 149.989 145.088 150.275 145.029C150.562 144.967 150.799 144.888 150.988 144.79C151.258 144.65 151.459 144.471 151.589 144.253C151.722 144.032 151.789 143.77 151.789 143.467ZM157.541 143.369C157.541 143.46 157.528 143.561 157.502 143.672C157.476 143.779 157.438 143.869 157.39 143.94C157.331 144.028 157.266 144.097 157.194 144.146C157.126 144.191 157.027 144.214 156.896 144.214C156.721 144.214 156.589 144.17 156.501 144.082C156.413 143.994 156.369 143.896 156.369 143.789C156.369 143.688 156.394 143.576 156.442 143.452C156.491 143.325 156.542 143.2 156.594 143.076C156.555 143.076 156.49 143.088 156.398 143.11C156.311 143.13 156.203 143.171 156.076 143.232C155.949 143.294 155.804 143.387 155.642 143.511C155.482 143.634 155.311 143.799 155.129 144.004L154.343 147.5H153.435L154.147 144.336C154.164 144.258 154.187 144.141 154.216 143.984C154.248 143.828 154.265 143.713 154.265 143.638C154.265 143.455 154.234 143.333 154.172 143.271C154.11 143.21 153.986 143.179 153.801 143.179C153.729 143.179 153.638 143.192 153.527 143.218C153.417 143.241 153.33 143.26 153.269 143.276L153.342 142.964C153.596 142.85 153.82 142.765 154.016 142.71C154.211 142.655 154.379 142.627 154.519 142.627C154.779 142.627 154.965 142.699 155.075 142.842C155.186 142.982 155.241 143.193 155.241 143.477H155.271C155.658 143.141 155.951 142.907 156.149 142.773C156.351 142.64 156.561 142.573 156.779 142.573C156.883 142.573 156.984 142.586 157.082 142.612C157.18 142.638 157.263 142.682 157.331 142.744C157.403 142.812 157.455 142.892 157.487 142.983C157.523 143.071 157.541 143.2 157.541 143.369ZM160.9 146.855H160.866C160.795 146.914 160.708 146.989 160.607 147.08C160.51 147.168 160.394 147.253 160.261 147.334C160.134 147.415 159.995 147.485 159.846 147.544C159.696 147.606 159.533 147.637 159.357 147.637C158.885 147.637 158.514 147.467 158.244 147.129C157.977 146.79 157.844 146.328 157.844 145.742C157.844 145.339 157.919 144.946 158.068 144.565C158.218 144.185 158.425 143.843 158.688 143.54C158.939 143.25 159.237 143.018 159.582 142.842C159.927 142.663 160.282 142.573 160.646 142.573C160.878 142.573 161.097 142.604 161.306 142.666C161.517 142.728 161.683 142.798 161.804 142.876L162.697 142.646L162.756 142.72L162.014 145.869C161.988 145.97 161.96 146.094 161.931 146.24C161.905 146.383 161.892 146.489 161.892 146.558C161.892 146.743 161.931 146.868 162.009 146.934C162.087 146.999 162.219 147.031 162.404 147.031C162.466 147.031 162.554 147.021 162.668 147.002C162.782 146.982 162.87 146.961 162.932 146.938L162.858 147.251C162.565 147.368 162.347 147.453 162.204 147.505C162.061 147.557 161.887 147.583 161.682 147.583C161.447 147.583 161.262 147.515 161.125 147.378C160.988 147.241 160.913 147.067 160.9 146.855ZM161.599 143.77C161.599 143.662 161.587 143.56 161.564 143.462C161.542 143.364 161.494 143.273 161.423 143.188C161.358 143.107 161.268 143.042 161.154 142.993C161.04 142.944 160.897 142.92 160.725 142.92C160.487 142.92 160.256 142.998 160.031 143.154C159.807 143.311 159.605 143.521 159.426 143.784C159.257 144.032 159.118 144.331 159.011 144.683C158.903 145.034 158.85 145.391 158.85 145.752C158.85 145.951 158.861 146.126 158.884 146.279C158.907 146.432 158.951 146.572 159.016 146.699C159.077 146.823 159.167 146.919 159.284 146.987C159.401 147.056 159.549 147.09 159.729 147.09C159.911 147.09 160.101 147.039 160.3 146.938C160.502 146.834 160.728 146.654 160.979 146.396L161.599 143.77ZM165.407 147.637C164.838 147.637 164.387 147.471 164.055 147.139C163.726 146.807 163.562 146.335 163.562 145.723C163.562 145.316 163.623 144.927 163.747 144.556C163.874 144.181 164.05 143.849 164.274 143.56C164.499 143.27 164.782 143.034 165.124 142.852C165.469 142.666 165.852 142.573 166.271 142.573C166.737 142.573 167.09 142.673 167.331 142.871C167.575 143.066 167.697 143.314 167.697 143.613C167.697 143.838 167.644 144.035 167.536 144.204C167.432 144.373 167.274 144.458 167.062 144.458C166.887 144.458 166.755 144.414 166.667 144.326C166.579 144.238 166.535 144.141 166.535 144.033C166.535 143.929 166.571 143.787 166.643 143.608C166.714 143.426 166.771 143.28 166.813 143.169C166.778 143.081 166.698 143.018 166.574 142.979C166.451 142.936 166.322 142.915 166.188 142.915C165.746 142.915 165.363 143.174 165.041 143.691C164.722 144.206 164.562 144.837 164.562 145.586C164.562 146.048 164.665 146.416 164.87 146.689C165.078 146.96 165.358 147.095 165.71 147.095C166.026 147.095 166.306 147.01 166.55 146.841C166.797 146.672 167.033 146.432 167.258 146.123L167.536 146.328C167.312 146.683 167.006 146.991 166.618 147.251C166.234 147.508 165.83 147.637 165.407 147.637ZM169.255 147.603C168.946 147.603 168.719 147.541 168.576 147.417C168.433 147.29 168.361 147.109 168.361 146.875C168.361 146.8 168.366 146.73 168.376 146.665C168.386 146.597 168.399 146.52 168.415 146.436L169.172 143.174H168.303L168.405 142.729H169.294L169.636 141.299H170.515L170.183 142.729H171.545L171.442 143.174H170.09L169.465 145.864C169.436 145.988 169.411 146.108 169.392 146.226C169.372 146.34 169.362 146.437 169.362 146.519C169.362 146.698 169.406 146.829 169.494 146.914C169.585 146.995 169.748 147.036 169.982 147.036C170.067 147.036 170.186 147.026 170.339 147.007C170.492 146.984 170.611 146.956 170.695 146.924L170.612 147.28C170.384 147.368 170.17 147.443 169.968 147.505C169.766 147.57 169.528 147.603 169.255 147.603ZM173.942 146.968L173.869 147.28C173.57 147.401 173.33 147.484 173.151 147.529C172.972 147.578 172.819 147.603 172.692 147.603C172.432 147.603 172.237 147.536 172.106 147.402C171.976 147.266 171.911 147.098 171.911 146.899C171.911 146.825 171.918 146.746 171.931 146.665C171.944 146.584 171.965 146.481 171.994 146.357L172.512 144.282C172.538 144.168 172.562 144.046 172.585 143.916C172.611 143.786 172.624 143.675 172.624 143.584C172.624 143.402 172.593 143.281 172.531 143.223C172.473 143.161 172.351 143.13 172.165 143.13C172.093 143.13 171.997 143.141 171.877 143.164C171.76 143.187 171.67 143.206 171.608 143.223L171.682 142.91C171.936 142.796 172.163 142.712 172.365 142.656C172.567 142.601 172.727 142.573 172.844 142.573C173.111 142.573 173.304 142.637 173.425 142.764C173.545 142.891 173.605 143.062 173.605 143.276C173.605 143.335 173.599 143.415 173.586 143.516C173.573 143.617 173.553 143.717 173.527 143.818L173.005 145.894C172.972 146.021 172.943 146.146 172.917 146.27C172.894 146.39 172.883 146.489 172.883 146.567C172.883 146.753 172.924 146.88 173.005 146.948C173.09 147.017 173.225 147.051 173.41 147.051C173.472 147.051 173.56 147.043 173.674 147.026C173.791 147.01 173.881 146.991 173.942 146.968ZM174.289 140.728C174.289 140.913 174.229 141.076 174.108 141.216C173.988 141.353 173.838 141.421 173.659 141.421C173.493 141.421 173.35 141.356 173.229 141.226C173.109 141.092 173.049 140.941 173.049 140.771C173.049 140.592 173.109 140.436 173.229 140.303C173.35 140.169 173.493 140.103 173.659 140.103C173.845 140.103 173.996 140.166 174.113 140.293C174.23 140.417 174.289 140.562 174.289 140.728ZM179.304 143.477C179.304 143.971 179.229 144.474 179.079 144.985C178.929 145.493 178.724 145.938 178.464 146.318C178.2 146.712 177.886 147.033 177.521 147.28C177.157 147.524 176.757 147.646 176.32 147.646C175.894 147.646 175.554 147.529 175.3 147.295C175.046 147.057 174.919 146.74 174.919 146.343C174.919 146.268 174.927 146.183 174.943 146.089C174.963 145.994 174.976 145.931 174.982 145.898L175.407 144.336C175.44 144.209 175.467 144.085 175.49 143.965C175.516 143.841 175.529 143.734 175.529 143.643C175.529 143.46 175.497 143.338 175.432 143.276C175.37 143.215 175.246 143.184 175.061 143.184C174.992 143.184 174.899 143.198 174.782 143.228C174.665 143.257 174.577 143.28 174.519 143.296L174.592 142.983C174.846 142.869 175.07 142.782 175.266 142.72C175.464 142.658 175.622 142.627 175.739 142.627C176 142.627 176.192 142.687 176.315 142.808C176.442 142.928 176.506 143.102 176.506 143.33C176.506 143.395 176.499 143.475 176.486 143.569C176.477 143.66 176.457 143.761 176.428 143.872L175.959 145.693C175.926 145.817 175.902 145.936 175.886 146.05C175.869 146.164 175.861 146.237 175.861 146.27C175.861 146.439 175.887 146.577 175.939 146.685C175.995 146.789 176.063 146.87 176.145 146.929C176.223 146.984 176.307 147.023 176.398 147.046C176.493 147.069 176.589 147.08 176.687 147.08C176.908 147.08 177.136 147.01 177.37 146.87C177.608 146.73 177.814 146.548 177.99 146.323C178.182 146.079 178.337 145.807 178.454 145.508C178.571 145.205 178.63 144.871 178.63 144.507C178.63 144.312 178.602 144.162 178.547 144.058C178.495 143.95 178.436 143.857 178.371 143.779C178.306 143.698 178.246 143.613 178.19 143.525C178.138 143.434 178.112 143.307 178.112 143.145C178.112 142.959 178.174 142.817 178.298 142.72C178.422 142.622 178.552 142.573 178.688 142.573C178.881 142.573 179.03 142.651 179.138 142.808C179.248 142.961 179.304 143.184 179.304 143.477ZM184.133 143.589C184.133 143.934 184.024 144.23 183.806 144.478C183.591 144.725 183.277 144.922 182.863 145.068C182.561 145.179 182.255 145.269 181.945 145.337C181.636 145.405 181.294 145.462 180.92 145.508C180.92 146.022 181.014 146.416 181.203 146.689C181.395 146.96 181.675 147.095 182.043 147.095C182.368 147.095 182.655 147.013 182.902 146.851C183.153 146.688 183.399 146.445 183.64 146.123L183.918 146.328C183.658 146.725 183.332 147.043 182.941 147.28C182.551 147.518 182.146 147.637 181.726 147.637C181.149 147.637 180.708 147.476 180.402 147.153C180.1 146.831 179.948 146.374 179.948 145.781C179.948 145.371 180.012 144.98 180.139 144.609C180.269 144.235 180.458 143.893 180.705 143.584C180.946 143.281 181.241 143.037 181.589 142.852C181.94 142.666 182.328 142.573 182.751 142.573C183.22 142.573 183.566 142.669 183.791 142.861C184.019 143.05 184.133 143.293 184.133 143.589ZM183.234 143.467C183.234 143.34 183.216 143.241 183.181 143.169C183.145 143.094 183.099 143.039 183.044 143.003C182.985 142.964 182.924 142.939 182.858 142.93C182.793 142.92 182.727 142.915 182.658 142.915C182.268 142.915 181.906 143.13 181.574 143.56C181.245 143.989 181.037 144.525 180.949 145.166C181.177 145.133 181.434 145.088 181.721 145.029C182.007 144.967 182.245 144.888 182.434 144.79C182.704 144.65 182.904 144.471 183.034 144.253C183.168 144.032 183.234 143.77 183.234 143.467ZM193.146 141.968C193.146 142.362 193.059 142.713 192.883 143.022C192.71 143.332 192.487 143.589 192.214 143.794C191.927 144.009 191.607 144.172 191.252 144.282C190.897 144.39 190.526 144.443 190.139 144.443H189.294L188.796 146.582C188.789 146.611 188.785 146.642 188.781 146.675C188.778 146.707 188.776 146.735 188.776 146.758C188.776 146.829 188.789 146.893 188.815 146.948C188.841 147.004 188.894 147.048 188.972 147.08C189.021 147.103 189.118 147.124 189.265 147.144C189.414 147.163 189.548 147.174 189.665 147.178L189.592 147.5H186.618L186.691 147.178C186.773 147.171 186.888 147.16 187.038 147.144C187.188 147.127 187.297 147.106 187.365 147.08C187.482 147.035 187.57 146.969 187.629 146.885C187.691 146.797 187.733 146.696 187.756 146.582L188.923 141.533C188.929 141.504 188.934 141.471 188.938 141.436C188.944 141.4 188.947 141.366 188.947 141.333C188.947 141.265 188.934 141.203 188.908 141.147C188.882 141.092 188.833 141.05 188.762 141.021C188.658 140.981 188.547 140.952 188.43 140.933C188.312 140.913 188.205 140.9 188.107 140.894L188.181 140.571H191.262C191.818 140.571 192.271 140.697 192.619 140.947C192.971 141.195 193.146 141.535 193.146 141.968ZM191.584 143.291C191.717 143.099 191.812 142.896 191.867 142.681C191.923 142.463 191.95 142.259 191.95 142.07C191.95 141.921 191.929 141.779 191.887 141.646C191.848 141.512 191.779 141.392 191.682 141.284C191.584 141.18 191.459 141.099 191.306 141.04C191.153 140.978 190.961 140.947 190.729 140.947H190.095L189.387 144.043H189.938C190.316 144.043 190.642 143.981 190.915 143.857C191.188 143.73 191.411 143.542 191.584 143.291ZM197.502 143.369C197.502 143.46 197.489 143.561 197.463 143.672C197.437 143.779 197.399 143.869 197.351 143.94C197.292 144.028 197.227 144.097 197.155 144.146C197.087 144.191 196.988 144.214 196.857 144.214C196.682 144.214 196.55 144.17 196.462 144.082C196.374 143.994 196.33 143.896 196.33 143.789C196.33 143.688 196.354 143.576 196.403 143.452C196.452 143.325 196.503 143.2 196.555 143.076C196.516 143.076 196.451 143.088 196.359 143.11C196.271 143.13 196.164 143.171 196.037 143.232C195.91 143.294 195.765 143.387 195.603 143.511C195.443 143.634 195.272 143.799 195.09 144.004L194.304 147.5H193.396L194.108 144.336C194.125 144.258 194.147 144.141 194.177 143.984C194.209 143.828 194.226 143.713 194.226 143.638C194.226 143.455 194.195 143.333 194.133 143.271C194.071 143.21 193.947 143.179 193.762 143.179C193.69 143.179 193.599 143.192 193.488 143.218C193.378 143.241 193.291 143.26 193.229 143.276L193.303 142.964C193.557 142.85 193.781 142.765 193.977 142.71C194.172 142.655 194.34 142.627 194.479 142.627C194.74 142.627 194.925 142.699 195.036 142.842C195.147 142.982 195.202 143.193 195.202 143.477H195.231C195.619 143.141 195.912 142.907 196.11 142.773C196.312 142.64 196.522 142.573 196.74 142.573C196.844 142.573 196.945 142.586 197.043 142.612C197.141 142.638 197.224 142.682 197.292 142.744C197.364 142.812 197.416 142.892 197.448 142.983C197.484 143.071 197.502 143.2 197.502 143.369ZM202.507 144.492C202.507 144.876 202.442 145.26 202.312 145.645C202.181 146.029 201.993 146.366 201.745 146.655C201.494 146.955 201.192 147.196 200.837 147.378C200.485 147.557 200.077 147.646 199.611 147.646C199.071 147.646 198.632 147.472 198.293 147.124C197.958 146.776 197.79 146.307 197.79 145.718C197.79 145.285 197.862 144.881 198.005 144.507C198.148 144.132 198.34 143.804 198.581 143.521C198.825 143.237 199.126 143.009 199.484 142.837C199.846 142.661 200.236 142.573 200.656 142.573C201.236 142.573 201.688 142.751 202.014 143.105C202.342 143.457 202.507 143.919 202.507 144.492ZM201.511 144.307C201.511 143.844 201.428 143.498 201.262 143.267C201.099 143.035 200.863 142.92 200.554 142.92C200.284 142.92 200.028 143.003 199.787 143.169C199.549 143.335 199.344 143.605 199.172 143.979C199.038 144.263 198.941 144.578 198.879 144.927C198.817 145.272 198.786 145.591 198.786 145.884C198.786 146.349 198.866 146.702 199.025 146.943C199.188 147.181 199.432 147.3 199.758 147.3C200.048 147.3 200.305 147.209 200.529 147.026C200.754 146.844 200.936 146.613 201.076 146.333C201.216 146.06 201.324 145.747 201.398 145.396C201.473 145.041 201.511 144.678 201.511 144.307ZM204.313 147.603C204.004 147.603 203.778 147.541 203.635 147.417C203.492 147.29 203.42 147.109 203.42 146.875C203.42 146.8 203.425 146.73 203.435 146.665C203.444 146.597 203.457 146.52 203.474 146.436L204.23 143.174H203.361L203.464 142.729H204.353L204.694 141.299H205.573L205.241 142.729H206.604L206.501 143.174H205.148L204.523 145.864C204.494 145.988 204.47 146.108 204.45 146.226C204.431 146.34 204.421 146.437 204.421 146.519C204.421 146.698 204.465 146.829 204.553 146.914C204.644 146.995 204.807 147.036 205.041 147.036C205.126 147.036 205.244 147.026 205.397 147.007C205.55 146.984 205.669 146.956 205.754 146.924L205.671 147.28C205.443 147.368 205.228 147.443 205.026 147.505C204.825 147.57 204.587 147.603 204.313 147.603ZM211.354 144.492C211.354 144.876 211.289 145.26 211.159 145.645C211.029 146.029 210.84 146.366 210.593 146.655C210.342 146.955 210.039 147.196 209.685 147.378C209.333 147.557 208.924 147.646 208.459 147.646C207.919 147.646 207.479 147.472 207.141 147.124C206.805 146.776 206.638 146.307 206.638 145.718C206.638 145.285 206.709 144.881 206.853 144.507C206.996 144.132 207.188 143.804 207.429 143.521C207.673 143.237 207.974 143.009 208.332 142.837C208.693 142.661 209.084 142.573 209.504 142.573C210.083 142.573 210.536 142.751 210.861 143.105C211.19 143.457 211.354 143.919 211.354 144.492ZM210.358 144.307C210.358 143.844 210.275 143.498 210.109 143.267C209.947 143.035 209.711 142.92 209.401 142.92C209.131 142.92 208.876 143.003 208.635 143.169C208.397 143.335 208.192 143.605 208.02 143.979C207.886 144.263 207.788 144.578 207.727 144.927C207.665 145.272 207.634 145.591 207.634 145.884C207.634 146.349 207.714 146.702 207.873 146.943C208.036 147.181 208.28 147.3 208.605 147.3C208.895 147.3 209.152 147.209 209.377 147.026C209.602 146.844 209.784 146.613 209.924 146.333C210.064 146.06 210.171 145.747 210.246 145.396C210.321 145.041 210.358 144.678 210.358 144.307ZM213.161 147.603C212.852 147.603 212.626 147.541 212.482 147.417C212.339 147.29 212.268 147.109 212.268 146.875C212.268 146.8 212.272 146.73 212.282 146.665C212.292 146.597 212.305 146.52 212.321 146.436L213.078 143.174H212.209L212.312 142.729H213.2L213.542 141.299H214.421L214.089 142.729H215.451L215.349 143.174H213.996L213.371 145.864C213.342 145.988 213.317 146.108 213.298 146.226C213.278 146.34 213.269 146.437 213.269 146.519C213.269 146.698 213.312 146.829 213.4 146.914C213.492 146.995 213.654 147.036 213.889 147.036C213.973 147.036 214.092 147.026 214.245 147.007C214.398 146.984 214.517 146.956 214.602 146.924L214.519 147.28C214.291 147.368 214.076 147.443 213.874 147.505C213.672 147.57 213.435 147.603 213.161 147.603ZM218.659 146.792H218.63C218.33 147.043 218.046 147.24 217.775 147.383C217.505 147.526 217.198 147.598 216.853 147.598C216.54 147.598 216.293 147.508 216.11 147.329C215.928 147.147 215.837 146.909 215.837 146.616C215.837 146.538 215.843 146.445 215.856 146.338C215.869 146.23 215.9 146.071 215.949 145.859L216.33 144.336C216.366 144.189 216.394 144.062 216.413 143.955C216.433 143.844 216.442 143.739 216.442 143.638C216.442 143.455 216.411 143.335 216.35 143.276C216.291 143.215 216.169 143.184 215.983 143.184C215.912 143.184 215.821 143.197 215.71 143.223C215.599 143.249 215.513 143.27 215.451 143.286L215.524 142.974C215.778 142.86 216.001 142.773 216.193 142.715C216.389 142.656 216.545 142.627 216.662 142.627C216.923 142.627 217.115 142.686 217.238 142.803C217.365 142.92 217.429 143.096 217.429 143.33C217.429 143.389 217.422 143.468 217.409 143.569C217.396 143.67 217.377 143.771 217.351 143.872L216.906 145.654C216.874 145.791 216.846 145.92 216.823 146.04C216.8 146.157 216.789 146.247 216.789 146.309C216.789 146.527 216.841 146.699 216.945 146.826C217.053 146.953 217.209 147.017 217.414 147.017C217.652 147.017 217.883 146.958 218.107 146.841C218.335 146.724 218.549 146.562 218.747 146.357L219.558 142.705L220.402 142.646L220.461 142.72L219.621 146.543C219.497 147.103 219.34 147.581 219.147 147.979C218.955 148.376 218.731 148.696 218.474 148.94C218.203 149.198 217.912 149.383 217.6 149.497C217.287 149.611 216.931 149.668 216.53 149.668C216.254 149.668 216.034 149.648 215.871 149.609C215.708 149.57 215.58 149.517 215.485 149.448C215.391 149.383 215.327 149.31 215.295 149.229C215.262 149.147 215.246 149.066 215.246 148.984C215.246 148.844 215.288 148.721 215.373 148.613C215.458 148.506 215.58 148.452 215.739 148.452C215.86 148.452 215.962 148.486 216.047 148.555C216.132 148.623 216.2 148.698 216.252 148.779C216.311 148.867 216.364 148.966 216.413 149.077C216.462 149.188 216.501 149.276 216.53 149.341H216.647C216.833 149.341 217.028 149.295 217.233 149.204C217.442 149.113 217.632 148.971 217.805 148.779C217.99 148.571 218.156 148.302 218.303 147.974C218.452 147.645 218.571 147.251 218.659 146.792ZM226.193 144.438C226.193 144.875 226.117 145.288 225.964 145.679C225.811 146.069 225.607 146.408 225.354 146.694C225.07 147.01 224.763 147.244 224.431 147.397C224.102 147.55 223.763 147.627 223.415 147.627C223.135 147.627 222.906 147.593 222.727 147.524C222.548 147.456 222.388 147.371 222.248 147.271L221.965 148.55C221.945 148.631 221.929 148.708 221.916 148.779C221.906 148.851 221.901 148.908 221.901 148.95C221.901 149.038 221.932 149.108 221.994 149.16C222.059 149.212 222.132 149.25 222.214 149.272C222.295 149.299 222.386 149.318 222.487 149.331C222.588 149.344 222.679 149.354 222.761 149.36L222.692 149.668H220.002L220.07 149.36C220.174 149.354 220.272 149.346 220.363 149.336C220.454 149.326 220.541 149.31 220.622 149.287C220.723 149.258 220.803 149.202 220.861 149.121C220.923 149.043 220.967 148.945 220.993 148.828L222.014 144.336C222.04 144.212 222.064 144.089 222.087 143.965C222.11 143.838 222.121 143.729 222.121 143.638C222.121 143.455 222.092 143.333 222.033 143.271C221.978 143.21 221.856 143.179 221.667 143.179C221.595 143.179 221.504 143.193 221.394 143.223C221.283 143.249 221.197 143.27 221.135 143.286L221.208 142.974C221.455 142.863 221.678 142.778 221.877 142.72C222.076 142.658 222.245 142.627 222.385 142.627C222.613 142.627 222.785 142.686 222.902 142.803C223.02 142.917 223.093 143.076 223.122 143.281H223.161C223.382 143.076 223.618 142.907 223.869 142.773C224.123 142.64 224.375 142.573 224.626 142.573C225.121 142.573 225.505 142.743 225.778 143.081C226.055 143.416 226.193 143.869 226.193 144.438ZM224.67 146.455C224.836 146.188 224.963 145.885 225.051 145.547C225.142 145.205 225.188 144.844 225.188 144.463C225.188 144.29 225.171 144.118 225.139 143.945C225.109 143.77 225.061 143.625 224.992 143.511C224.921 143.384 224.823 143.286 224.699 143.218C224.576 143.146 224.413 143.11 224.211 143.11C224.061 143.11 223.895 143.156 223.713 143.247C223.534 143.338 223.314 143.509 223.054 143.76L222.429 146.528C222.451 146.714 222.551 146.888 222.727 147.051C222.906 147.21 223.12 147.29 223.371 147.29C223.628 147.29 223.869 147.215 224.094 147.065C224.318 146.916 224.51 146.712 224.67 146.455ZM231.057 143.589C231.057 143.934 230.948 144.23 230.729 144.478C230.515 144.725 230.201 144.922 229.787 145.068C229.484 145.179 229.178 145.269 228.869 145.337C228.56 145.405 228.218 145.462 227.844 145.508C227.844 146.022 227.938 146.416 228.127 146.689C228.319 146.96 228.599 147.095 228.967 147.095C229.292 147.095 229.579 147.013 229.826 146.851C230.077 146.688 230.323 146.445 230.563 146.123L230.842 146.328C230.581 146.725 230.256 147.043 229.865 147.28C229.475 147.518 229.069 147.637 228.649 147.637C228.073 147.637 227.632 147.476 227.326 147.153C227.023 146.831 226.872 146.374 226.872 145.781C226.872 145.371 226.936 144.98 227.062 144.609C227.193 144.235 227.382 143.893 227.629 143.584C227.87 143.281 228.164 143.037 228.513 142.852C228.864 142.666 229.252 142.573 229.675 142.573C230.144 142.573 230.49 142.669 230.715 142.861C230.943 143.05 231.057 143.293 231.057 143.589ZM230.158 143.467C230.158 143.34 230.14 143.241 230.104 143.169C230.069 143.094 230.023 143.039 229.968 143.003C229.909 142.964 229.847 142.939 229.782 142.93C229.717 142.92 229.65 142.915 229.582 142.915C229.191 142.915 228.83 143.13 228.498 143.56C228.169 143.989 227.961 144.525 227.873 145.166C228.101 145.133 228.358 145.088 228.645 145.029C228.931 144.967 229.169 144.888 229.357 144.79C229.628 144.65 229.828 144.471 229.958 144.253C230.091 144.032 230.158 143.77 230.158 143.467ZM240.52 140.571L240.119 142.305H239.753C239.74 141.956 239.665 141.655 239.528 141.401C239.395 141.144 239.23 141.001 239.035 140.972C238.934 140.959 238.815 140.949 238.679 140.942C238.545 140.936 238.391 140.933 238.215 140.933H237.028L236.379 143.75H237.175C237.364 143.75 237.536 143.73 237.692 143.691C237.849 143.649 238 143.563 238.146 143.433C238.221 143.364 238.304 143.254 238.396 143.101C238.49 142.948 238.565 142.785 238.62 142.612H238.991L238.366 145.332H237.995C237.998 145.293 238.002 145.247 238.005 145.195C238.011 145.143 238.015 145.086 238.015 145.024C238.015 144.933 238.008 144.829 237.995 144.712C237.982 144.595 237.958 144.507 237.922 144.448C237.834 144.315 237.72 144.227 237.58 144.185C237.44 144.142 237.274 144.121 237.082 144.121H236.286L235.729 146.548C235.723 146.574 235.718 146.602 235.715 146.631C235.712 146.657 235.71 146.683 235.71 146.709C235.71 146.781 235.725 146.844 235.754 146.899C235.783 146.951 235.834 146.999 235.905 147.041C235.957 147.067 236.06 147.095 236.213 147.124C236.366 147.153 236.491 147.171 236.589 147.178L236.511 147.5H233.493L233.571 147.178C233.672 147.171 233.802 147.161 233.962 147.148C234.121 147.132 234.23 147.113 234.289 147.09C234.403 147.044 234.489 146.981 234.548 146.899C234.606 146.815 234.649 146.715 234.675 146.602L235.842 141.553C235.848 141.52 235.853 141.489 235.856 141.46C235.863 141.427 235.866 141.395 235.866 141.362C235.866 141.297 235.853 141.242 235.827 141.196C235.804 141.147 235.754 141.104 235.676 141.064C235.604 141.025 235.498 140.99 235.358 140.957C235.218 140.924 235.101 140.903 235.007 140.894L235.085 140.571H240.52ZM242.59 140.015L241.228 145.894C241.198 146.017 241.171 146.141 241.145 146.265C241.118 146.388 241.105 146.489 241.105 146.567C241.105 146.753 241.146 146.88 241.228 146.948C241.312 147.017 241.447 147.051 241.633 147.051C241.698 147.051 241.794 147.043 241.921 147.026C242.051 147.01 242.149 146.991 242.214 146.968L242.141 147.28C241.848 147.397 241.621 147.48 241.462 147.529C241.306 147.578 241.128 147.603 240.93 147.603C240.669 147.603 240.471 147.536 240.334 147.402C240.201 147.266 240.134 147.098 240.134 146.899C240.134 146.825 240.14 146.746 240.153 146.665C240.17 146.584 240.191 146.481 240.217 146.357L241.403 141.216C241.426 141.115 241.441 141.045 241.447 141.006C241.457 140.967 241.462 140.918 241.462 140.859C241.462 140.742 241.442 140.653 241.403 140.591C241.364 140.526 241.309 140.477 241.237 140.444C241.169 140.415 241.083 140.396 240.979 140.386C240.874 140.376 240.769 140.365 240.661 140.352L240.729 140.054L242.541 139.941L242.59 140.015ZM247.556 144.492C247.556 144.876 247.491 145.26 247.36 145.645C247.23 146.029 247.041 146.366 246.794 146.655C246.543 146.955 246.241 147.196 245.886 147.378C245.534 147.557 245.126 147.646 244.66 147.646C244.12 147.646 243.68 147.472 243.342 147.124C243.007 146.776 242.839 146.307 242.839 145.718C242.839 145.285 242.91 144.881 243.054 144.507C243.197 144.132 243.389 143.804 243.63 143.521C243.874 143.237 244.175 143.009 244.533 142.837C244.895 142.661 245.285 142.573 245.705 142.573C246.285 142.573 246.737 142.751 247.062 143.105C247.391 143.457 247.556 143.919 247.556 144.492ZM246.56 144.307C246.56 143.844 246.477 143.498 246.311 143.267C246.148 143.035 245.912 142.92 245.603 142.92C245.332 142.92 245.077 143.003 244.836 143.169C244.598 143.335 244.393 143.605 244.221 143.979C244.087 144.263 243.99 144.578 243.928 144.927C243.866 145.272 243.835 145.591 243.835 145.884C243.835 146.349 243.915 146.702 244.074 146.943C244.237 147.181 244.481 147.3 244.807 147.3C245.096 147.3 245.354 147.209 245.578 147.026C245.803 146.844 245.985 146.613 246.125 146.333C246.265 146.06 246.372 145.747 246.447 145.396C246.522 145.041 246.56 144.678 246.56 144.307ZM255.798 143.477C255.798 143.988 255.725 144.494 255.578 144.995C255.432 145.496 255.231 145.938 254.978 146.318C254.694 146.742 254.374 147.069 254.016 147.3C253.658 147.531 253.269 147.646 252.849 147.646C252.543 147.646 252.259 147.562 251.999 147.393C251.742 147.223 251.569 146.991 251.481 146.694C251.364 146.808 251.255 146.914 251.154 147.012C251.057 147.109 250.928 147.21 250.769 147.314C250.609 147.419 250.463 147.498 250.329 147.554C250.199 147.609 250.031 147.637 249.826 147.637C249.579 147.637 249.374 147.598 249.211 147.52C249.051 147.445 248.923 147.345 248.825 147.222C248.734 147.104 248.669 146.973 248.63 146.826C248.591 146.676 248.571 146.52 248.571 146.357C248.571 146.296 248.578 146.217 248.591 146.123C248.607 146.029 248.623 145.947 248.64 145.879L249.055 144.336C249.094 144.189 249.121 144.056 249.138 143.936C249.157 143.815 249.167 143.716 249.167 143.638C249.167 143.455 249.136 143.335 249.074 143.276C249.016 143.215 248.894 143.184 248.708 143.184C248.636 143.184 248.545 143.197 248.435 143.223C248.324 143.249 248.238 143.27 248.176 143.286L248.249 142.974C248.503 142.86 248.726 142.773 248.918 142.715C249.113 142.656 249.27 142.627 249.387 142.627C249.647 142.627 249.838 142.689 249.958 142.812C250.082 142.933 250.144 143.105 250.144 143.33C250.144 143.389 250.137 143.468 250.124 143.569C250.111 143.67 250.091 143.771 250.065 143.872L249.611 145.674C249.582 145.794 249.558 145.918 249.538 146.045C249.519 146.172 249.509 146.266 249.509 146.328C249.509 146.572 249.558 146.758 249.655 146.885C249.753 147.008 249.917 147.07 250.148 147.07C250.354 147.07 250.568 147.015 250.793 146.904C251.018 146.79 251.223 146.626 251.408 146.411L252.272 142.705L253.122 142.646L253.181 142.72L252.492 145.693C252.469 145.791 252.445 145.911 252.419 146.055C252.396 146.195 252.385 146.283 252.385 146.318C252.385 146.497 252.412 146.639 252.468 146.743C252.526 146.847 252.6 146.924 252.688 146.973C252.772 147.021 252.86 147.052 252.951 147.065C253.042 147.075 253.13 147.08 253.215 147.08C253.436 147.08 253.662 147.01 253.894 146.87C254.128 146.73 254.331 146.548 254.504 146.323C254.696 146.073 254.847 145.796 254.958 145.493C255.069 145.187 255.124 144.858 255.124 144.507C255.124 144.312 255.096 144.162 255.041 144.058C254.989 143.95 254.93 143.857 254.865 143.779C254.8 143.698 254.74 143.613 254.685 143.525C254.632 143.434 254.606 143.307 254.606 143.145C254.606 142.959 254.668 142.817 254.792 142.72C254.916 142.622 255.046 142.573 255.183 142.573C255.375 142.573 255.524 142.651 255.632 142.808C255.743 142.961 255.798 143.184 255.798 143.477Z" fill="#9A9090"/>
</svg>
