<svg width="44" height="44" viewBox="0 0 44 44" fill="none" xmlns="http://www.w3.org/2000/svg">
<rect width="44" height="44" rx="10" fill="#D4A853" fill-opacity="0.2"/>
<path d="M31.5 14H12.5C11.1193 14 10 15.1193 10 16.5V27.5C10 28.8807 11.1193 30 12.5 30H31.5C32.8807 30 34 28.8807 34 27.5V16.5C34 15.1193 32.8807 14 31.5 14Z" stroke="#D4A853" stroke-width="1.4"/>
<path d="M10 20H34H10Z" fill="#D4A853"/>
<path d="M10 20H34" stroke="#D4A853" stroke-width="1.4" stroke-linecap="round"/>
<path d="M17 24H14C13.4477 24 13 24.4477 13 25C13 25.5523 13.4477 26 14 26H17C17.5523 26 18 25.5523 18 25C18 24.4477 17.5523 24 17 24Z" fill="#D4A853" fill-opacity="0.75"/>
<path d="M22 24H21C20.4477 24 20 24.4477 20 25C20 25.5523 20.4477 26 21 26H22C22.5523 26 23 25.5523 23 25C23 24.4477 22.5523 24 22 24Z" fill="#D4A853" fill-opacity="0.75"/>
</svg>
