<svg width="44" height="44" viewBox="0 0 44 44" fill="none" xmlns="http://www.w3.org/2000/svg">
<rect width="44" height="44" rx="10" fill="#D4A853" fill-opacity="0.2"/>
<path d="M28.0252 17.0253C27.7002 16.7002 27.3143 16.4424 26.8897 16.2665C26.465 16.0906 26.0098 16 25.5502 16C25.0905 16 24.6354 16.0906 24.2107 16.2665C23.786 16.4424 23.4002 16.7002 23.0752 17.0253L22.5252 17.5753L21.9752 17.0253C21.3188 16.3689 20.4285 16.0001 19.5002 16.0001C18.5719 16.0001 17.6816 16.3689 17.0252 17.0253C16.3688 17.6817 16 18.572 16 19.5003C16 20.4286 16.3688 21.3189 17.0252 21.9753L17.5752 22.5253L22.5252 27.5253L27.4752 22.5753L28.0252 22.0253C28.3578 21.6994 28.622 21.3104 28.8024 20.8811C28.9828 20.4519 29.0757 19.9909 29.0757 19.5253C29.0757 19.0596 28.9828 18.5987 28.8024 18.1694C28.622 17.7401 28.3578 17.3511 28.0252 17.0253Z" stroke="#D4A853" stroke-width="1.4" stroke-linecap="round" stroke-linejoin="round"/>
<path d="M20.0254 22.0253H25.0254M22.5254 19.5253V24.5253" stroke="#D4A853" stroke-width="1.4" stroke-linecap="round"/>
</svg>
