<svg width="430" height="1409" viewBox="0 0 430 1409" fill="none" xmlns="http://www.w3.org/2000/svg">
<path d="M430 0H0V1409H430V0Z" fill="#F9F9F9"/>
<g opacity="0.035">
<path d="M0 40H430" stroke="#1A1C1E" stroke-width="0.5"/>
<path d="M0 80H430" stroke="#1A1C1E" stroke-width="0.5"/>
<path d="M0 120H430" stroke="#1A1C1E" stroke-width="0.5"/>
<path d="M0 160H430" stroke="#1A1C1E" stroke-width="0.5"/>
<path d="M0 200H430" stroke="#1A1C1E" stroke-width="0.5"/>
<path d="M0 240H430" stroke="#1A1C1E" stroke-width="0.5"/>
<path d="M0 280H430" stroke="#1A1C1E" stroke-width="0.5"/>
<path d="M0 320H430" stroke="#1A1C1E" stroke-width="0.5"/>
<path d="M0 360H430" stroke="#1A1C1E" stroke-width="0.5"/>
<path d="M0 400H430" stroke="#1A1C1E" stroke-width="0.5"/>
<path d="M0 440H430" stroke="#1A1C1E" stroke-width="0.5"/>
<path d="M0 480H430" stroke="#1A1C1E" stroke-width="0.5"/>
<path d="M0 520H430" stroke="#1A1C1E" stroke-width="0.5"/>
<path d="M0 560H430" stroke="#1A1C1E" stroke-width="0.5"/>
<path d="M0 600H430" stroke="#1A1C1E" stroke-width="0.5"/>
<path d="M0 640H430" stroke="#1A1C1E" stroke-width="0.5"/>
<path d="M0 680H430" stroke="#1A1C1E" stroke-width="0.5"/>
<path d="M0 720H430" stroke="#1A1C1E" stroke-width="0.5"/>
<path d="M0 760H430" stroke="#1A1C1E" stroke-width="0.5"/>
<path d="M0 800H430" stroke="#1A1C1E" stroke-width="0.5"/>
<path d="M0 840H430" stroke="#1A1C1E" stroke-width="0.5"/>
<path d="M0 880H430" stroke="#1A1C1E" stroke-width="0.5"/>
<path d="M0 920H430" stroke="#1A1C1E" stroke-width="0.5"/>
<path d="M0 960H430" stroke="#1A1C1E" stroke-width="0.5"/>
<path d="M0 1000H430" stroke="#1A1C1E" stroke-width="0.5"/>
<path d="M0 1040H430" stroke="#1A1C1E" stroke-width="0.5"/>
<path d="M0 1080H430" stroke="#1A1C1E" stroke-width="0.5"/>
<path d="M0 1120H430" stroke="#1A1C1E" stroke-width="0.5"/>
<path d="M0 1160H430" stroke="#1A1C1E" stroke-width="0.5"/>
<path d="M0 1200H430" stroke="#1A1C1E" stroke-width="0.5"/>
<path d="M0 1240H430" stroke="#1A1C1E" stroke-width="0.5"/>
<path d="M0 1280H430" stroke="#1A1C1E" stroke-width="0.5"/>
<path d="M0 1320H430" stroke="#1A1C1E" stroke-width="0.5"/>
<path d="M0 1360H430" stroke="#1A1C1E" stroke-width="0.5"/>
<path d="M0 1400H430" stroke="#1A1C1E" stroke-width="0.5"/>
<path d="M40 0V1409" stroke="#1A1C1E" stroke-width="0.5"/>
<path d="M80 0V1409" stroke="#1A1C1E" stroke-width="0.5"/>
<path d="M120 0V1409" stroke="#1A1C1E" stroke-width="0.5"/>
<path d="M160 0V1409" stroke="#1A1C1E" stroke-width="0.5"/>
<path d="M200 0V1409" stroke="#1A1C1E" stroke-width="0.5"/>
<path d="M240 0V1409" stroke="#1A1C1E" stroke-width="0.5"/>
<path d="M280 0V1409" stroke="#1A1C1E" stroke-width="0.5"/>
<path d="M320 0V1409" stroke="#1A1C1E" stroke-width="0.5"/>
<path d="M360 0V1409" stroke="#1A1C1E" stroke-width="0.5"/>
<path d="M400 0V1409" stroke="#1A1C1E" stroke-width="0.5"/>
</g>
<g opacity="0.09">
<path d="M310 89.8002C310.994 89.8002 311.8 88.9943 311.8 88.0002C311.8 87.0061 310.994 86.2002 310 86.2002C309.006 86.2002 308.2 87.0061 308.2 88.0002C308.2 88.9943 309.006 89.8002 310 89.8002Z" fill="#1A1C1E"/>
<path d="M342 63.6004C342.884 63.6004 343.6 62.884 343.6 62.0004C343.6 61.1167 342.884 60.4004 342 60.4004C341.117 60.4004 340.4 61.1167 340.4 62.0004C340.4 62.884 341.117 63.6004 342 63.6004Z" fill="#1A1C1E"/>
<path d="M370 81.8002C370.994 81.8002 371.8 80.9943 371.8 80.0002C371.8 79.0061 370.994 78.2002 370 78.2002C369.006 78.2002 368.2 79.0061 368.2 80.0002C368.2 80.9943 369.006 81.8002 370 81.8002Z" fill="#1A1C1E"/>
<path d="M398 57.6004C398.884 57.6004 399.6 56.884 399.6 56.0004C399.6 55.1167 398.884 54.4004 398 54.4004C397.117 54.4004 396.4 55.1167 396.4 56.0004C396.4 56.884 397.117 57.6004 398 57.6004Z" fill="#1A1C1E"/>
<path d="M420 77.5C420.828 77.5 421.5 76.8284 421.5 76C421.5 75.1716 420.828 74.5 420 74.5C419.172 74.5 418.5 75.1716 418.5 76C418.5 76.8284 419.172 77.5 420 77.5Z" fill="#1A1C1E"/>
<path d="M310 88L342 62" stroke="#1A1C1E" stroke-width="0.6"/>
<path d="M342 62L370 80" stroke="#1A1C1E" stroke-width="0.6"/>
<path d="M370 80L398 56" stroke="#1A1C1E" stroke-width="0.6"/>
<path d="M398 56L420 76" stroke="#1A1C1E" stroke-width="0.6"/>
</g>
<path opacity="0.22" d="M27.9998 201.2C28.6625 201.2 29.1998 200.663 29.1998 200C29.1998 199.337 28.6625 198.8 27.9998 198.8C27.3371 198.8 26.7998 199.337 26.7998 200C26.7998 200.663 27.3371 201.2 27.9998 201.2Z" fill="#D4A853"/>
<path opacity="0.2" d="M408 441C408.552 441 409 440.552 409 440C409 439.448 408.552 439 408 439C407.448 439 407 439.448 407 440C407 440.552 407.448 441 408 441Z" fill="#8FAF8A"/>
<path opacity="0.18" d="M23.9996 721.4C24.7728 721.4 25.3996 720.773 25.3996 720C25.3996 719.226 24.7728 718.6 23.9996 718.6C23.2264 718.6 22.5996 719.226 22.5996 720C22.5996 720.773 23.2264 721.4 23.9996 721.4Z" fill="#D4A853"/>
<path opacity="0.18" d="M412 881C412.552 881 413 880.552 413 880C413 879.448 412.552 879 412 879C411.448 879 411 879.448 411 880C411 880.552 411.448 881 412 881Z" fill="#C4876A"/>
<path opacity="0.18" d="M27.9998 1101.2C28.6625 1101.2 29.1998 1100.66 29.1998 1100C29.1998 1099.34 28.6625 1098.8 27.9998 1098.8C27.3371 1098.8 26.7998 1099.34 26.7998 1100C26.7998 1100.66 27.3371 1101.2 27.9998 1101.2Z" fill="#8FAF8A"/>
<path opacity="0.28" d="M400 120L402 114L404 120L410 122L404 124L402 130L400 124L394 122L400 120Z" stroke="#D4A853" stroke-width="0.8" stroke-linejoin="round"/>
</svg>
