<svg width="80" height="80" viewBox="0 0 80 80" fill="none" xmlns="http://www.w3.org/2000/svg">
<rect width="80" height="80" rx="10" fill="#E8E4DE"/>
<path opacity="0.6" d="M41.1494 59.25C49.986 59.25 57.1494 52.0866 57.1494 43.25C57.1494 34.4134 49.986 27.25 41.1494 27.25C32.3129 27.25 25.1494 34.4134 25.1494 43.25C25.1494 52.0866 32.3129 59.25 41.1494 59.25Z" stroke="#C4876A" stroke-width="1.2"/>
<path opacity="0.45" d="M41.1494 53.25C46.6723 53.25 51.1494 48.7728 51.1494 43.25C51.1494 37.7272 46.6723 33.25 41.1494 33.25C35.6266 33.25 31.1494 37.7272 31.1494 43.25C31.1494 48.7728 35.6266 53.25 41.1494 53.25Z" stroke="#C4876A" stroke-width="0.8"/>
<path opacity="0.55" d="M25.1494 43.25H13.1494" stroke="#C4876A"/>
<path opacity="0.55" d="M57.1494 43.25H69.1494" stroke="#C4876A"/>
<path opacity="0.55" d="M41.1494 27.25V15.25" stroke="#C4876A"/>
<path opacity="0.55" d="M41.1494 59.25V73.25" stroke="#C4876A"/>
<path opacity="0.7" d="M13.1494 45.75C14.5301 45.75 15.6494 44.6307 15.6494 43.25C15.6494 41.8693 14.5301 40.75 13.1494 40.75C11.7687 40.75 10.6494 41.8693 10.6494 43.25C10.6494 44.6307 11.7687 45.75 13.1494 45.75Z" fill="#C4876A"/>
<path opacity="0.7" d="M69.1494 45.75C70.5301 45.75 71.6494 44.6307 71.6494 43.25C71.6494 41.8693 70.5301 40.75 69.1494 40.75C67.7687 40.75 66.6494 41.8693 66.6494 43.25C66.6494 44.6307 67.7687 45.75 69.1494 45.75Z" fill="#C4876A"/>
<path opacity="0.7" d="M41.1494 17.75C42.5301 17.75 43.6494 16.6307 43.6494 15.25C43.6494 13.8693 42.5301 12.75 41.1494 12.75C39.7687 12.75 38.6494 13.8693 38.6494 15.25C38.6494 16.6307 39.7687 17.75 41.1494 17.75Z" fill="#D4A853"/>
<path opacity="0.7" d="M41.1494 75.75C42.5301 75.75 43.6494 74.6307 43.6494 73.25C43.6494 71.8693 42.5301 70.75 41.1494 70.75C39.7687 70.75 38.6494 71.8693 38.6494 73.25C38.6494 74.6307 39.7687 75.75 41.1494 75.75Z" fill="#C4876A"/>
<path d="M42.7974 46.25H39.4004V45.9072C39.5586 45.8955 39.7446 45.8677 39.9585 45.8237C40.1724 45.7769 40.2793 45.7197 40.2793 45.6523C40.2793 45.6289 40.2764 45.6025 40.2705 45.5732C40.2676 45.5439 40.2559 45.5044 40.2354 45.4546L39.7036 44.1626H37.5503C37.5005 44.2827 37.4448 44.4233 37.3833 44.5845C37.3247 44.7456 37.2734 44.8892 37.2295 45.0151C37.1738 45.1792 37.1401 45.2979 37.1284 45.3711C37.1196 45.4443 37.1152 45.4956 37.1152 45.5249C37.1152 45.6187 37.1855 45.6992 37.3262 45.7666C37.4697 45.8311 37.707 45.8779 38.0381 45.9072V46.25H35.4805V45.9072C35.5771 45.9014 35.6855 45.8867 35.8057 45.8633C35.9287 45.8369 36.0254 45.8018 36.0957 45.7578C36.2158 45.6875 36.3169 45.6011 36.3989 45.4985C36.4839 45.396 36.5542 45.2744 36.6099 45.1338C36.9497 44.3105 37.2896 43.4858 37.6294 42.6597C37.9722 41.8335 38.3501 40.9224 38.7632 39.9263H39.6421C40.2163 41.3384 40.666 42.4546 40.9912 43.2749C41.3164 44.0952 41.5933 44.7749 41.8218 45.314C41.8599 45.4019 41.9082 45.4824 41.9668 45.5557C42.0254 45.626 42.1089 45.6934 42.2173 45.7578C42.2993 45.8047 42.3945 45.8398 42.5029 45.8633C42.6113 45.8867 42.7095 45.9014 42.7974 45.9072V46.25ZM39.5234 43.7275L38.6182 41.4688L37.7261 43.7275H39.5234ZM46.291 46.25H42.8325V45.9072C42.9116 45.9014 43.0273 45.8926 43.1797 45.8809C43.335 45.8691 43.4419 45.8516 43.5005 45.8281C43.6089 45.7842 43.6821 45.7271 43.7202 45.6567C43.7612 45.5835 43.7817 45.4912 43.7817 45.3799V40.959C43.7817 40.8594 43.7627 40.7715 43.7246 40.6953C43.6865 40.6191 43.6118 40.5576 43.5005 40.5107C43.4302 40.4814 43.3262 40.4521 43.1885 40.4229C43.0508 40.3906 42.9321 40.3687 42.8325 40.3569V40.0142H46.291V40.3569C46.2031 40.3657 46.0933 40.3789 45.9614 40.3965C45.8296 40.4111 45.7183 40.4331 45.6274 40.4624C45.5132 40.5005 45.437 40.5605 45.3989 40.6426C45.3608 40.7217 45.3418 40.8125 45.3418 40.915V45.3315C45.3418 45.437 45.3608 45.5278 45.3989 45.604C45.4399 45.6772 45.5161 45.7373 45.6274 45.7842C45.689 45.8105 45.79 45.8369 45.9307 45.8633C46.0742 45.8867 46.1943 45.9014 46.291 45.9072V46.25Z" fill="#C4876A"/>
<path opacity="0.6" d="M63.1494 9.25L65.1494 4.25L67.1494 9.25L72.1494 11.25L67.1494 13.25L65.1494 18.25L63.1494 13.25L58.1494 11.25L63.1494 9.25Z" stroke="#D4A853" stroke-width="0.8" stroke-linejoin="round"/>
<path opacity="0.5" d="M9.14961 24.5499C9.86758 24.5499 10.4496 23.9679 10.4496 23.2499C10.4496 22.532 9.86758 21.95 9.14961 21.95C8.43164 21.95 7.84961 22.532 7.84961 23.2499C7.84961 23.9679 8.43164 24.5499 9.14961 24.5499Z" fill="#8FAF8A"/>
</svg>
