<svg width="382" height="30" viewBox="0 0 382 30" fill="none" xmlns="http://www.w3.org/2000/svg">
<path fill-rule="evenodd" clip-rule="evenodd" d="M371.001 5.02441C372.639 5.02449 374.299 5.57078 375.557 6.68945C376.819 7.81139 377.638 9.47648 377.649 11.6318L378.611 19.3262C379.875 20.3006 380.861 21.2936 381.542 22.3145C381.674 22.5138 381.687 22.7703 381.574 22.9814C381.461 23.1927 381.24 23.3251 381.001 23.3252H374.612C374.519 24.1472 374.24 24.8551 373.711 25.3848C373.046 26.0496 372.101 26.3251 371.001 26.3252C369.901 26.3252 368.956 26.0495 368.291 25.3848C367.761 24.8551 367.481 24.1473 367.388 23.3252H361.001C360.761 23.3252 360.541 23.1927 360.427 22.9814C360.314 22.7702 360.327 22.5138 360.46 22.3145C361.14 21.2938 362.126 20.3005 363.389 19.3262L364.351 11.6318C364.362 9.47637 365.182 7.81139 366.444 6.68945C367.703 5.57081 369.362 5.02441 371.001 5.02441ZM368.698 23.3252C368.78 23.8557 368.965 24.2194 369.211 24.4648C369.546 24.7999 370.101 25.0244 371.001 25.0244C371.9 25.0244 372.456 24.7999 372.791 24.4648C373.036 24.2194 373.22 23.8556 373.302 23.3252H368.698ZM371.001 6.3252C369.639 6.3252 368.299 6.77908 367.307 7.66016C366.328 8.53077 365.651 9.85119 365.651 11.6748C365.651 11.7017 365.649 11.7291 365.645 11.7559L364.645 19.7559C364.623 19.9306 364.531 20.0886 364.39 20.1943C363.565 20.8137 362.884 21.4251 362.34 22.0244H379.662C379.117 21.4251 378.437 20.8137 377.611 20.1943C377.47 20.0886 377.378 19.9306 377.356 19.7559L376.356 11.7559C376.353 11.7291 376.35 11.7018 376.35 11.6748C376.35 9.8513 375.673 8.53077 374.694 7.66016C373.703 6.77905 372.362 6.32527 371.001 6.3252Z" fill="#4C4546"/>
<path d="M378 11.6748C380.209 11.6748 382 9.88394 382 7.6748C382 5.46567 380.209 3.6748 378 3.6748C375.791 3.6748 374 5.46567 374 7.6748C374 9.88394 375.791 11.6748 378 11.6748Z" fill="#D4A853"/>
</svg>
