<svg width="80" height="80" viewBox="0 0 80 80" fill="none" xmlns="http://www.w3.org/2000/svg">
<rect width="80" height="80" rx="10" fill="#1A1C1E"/>
<path d="M69 11H11C9.34315 11 8 12.3431 8 14V52C8 53.6569 9.34315 55 11 55H69C70.6569 55 72 53.6569 72 52V14C72 12.3431 70.6569 11 69 11Z" fill="#2A2C32"/>
<path opacity="0.7" d="M64 20H16C14.8954 20 14 20.8954 14 22V48C14 49.1046 14.8954 50 16 50H64C65.1046 50 66 49.1046 66 48V22C66 20.8954 65.1046 20 64 20Z" stroke="#5FAFFF" stroke-width="0.8" stroke-dasharray="2 1.5"/>
<path d="M31 16H15C14.4477 16 14 16.4477 14 17V23C14 23.5523 14.4477 24 15 24H31C31.5523 24 32 23.5523 32 23V17C32 16.4477 31.5523 16 31 16Z" fill="#5FAFFF"/>
<path d="M20.7295 22H19.9385L21.1641 18.4648H22.1064L23.3271 22H22.541L22.2773 21.1846H20.998L20.7295 22ZM21.1836 20.6133H22.0918L21.6475 19.2607H21.623L21.1836 20.6133ZM23.7275 22V18.4648H24.46V21.3945H25.9834V22H23.7275Z" fill="white"/>
<path opacity="0.85" d="M32 31H22C19.7909 31 18 32.7909 18 35C18 37.2091 19.7909 39 22 39H32C34.2091 39 36 37.2091 36 35C36 32.7909 34.2091 31 32 31Z" fill="#D4A853"/>
<path opacity="0.55" d="M54 31H44C41.7909 31 40 32.7909 40 35C40 37.2091 41.7909 39 44 39H54C56.2091 39 58 37.2091 58 35C58 32.7909 56.2091 31 54 31Z" fill="#D4A853"/>
<path opacity="0.7" d="M14 35H18" stroke="#FF6B6B" stroke-width="0.8"/>
<path opacity="0.7" d="M36 35H40" stroke="#FF6B6B" stroke-width="0.8"/>
<path d="M70 58H10C8.89543 58 8 58.8954 8 60V72C8 73.1046 8.89543 74 10 74H70C71.1046 74 72 73.1046 72 72V60C72 58.8954 71.1046 58 70 58Z" fill="#16181C"/>
<path d="M12.3906 67V63.4648H12.8301V65.0371H14.7002V63.4648H15.1445V67H14.7002V65.4229H12.8301V67H12.3906ZM17.542 65.9111V64.3486H17.957V67H17.542V66.5508H17.5127C17.3857 66.8193 17.127 67.0342 16.7266 67.0342C16.2236 67.0342 15.8672 66.707 15.8672 66.0332V64.3486H16.2871V66.0039C16.2871 66.3848 16.5264 66.6289 16.8633 66.6289C17.1611 66.6289 17.542 66.4043 17.542 65.9111ZM19.7051 68.0498C19.0654 68.0498 18.6309 67.7715 18.582 67.2783H19.0215C19.0801 67.5469 19.3291 67.6836 19.7051 67.6836C20.1592 67.6836 20.4375 67.4883 20.4375 67.0488V66.5117H20.4033C20.3154 66.6582 20.1445 66.9609 19.6318 66.9609C18.9873 66.9609 18.5039 66.4727 18.5039 65.6377C18.5039 64.8223 18.9727 64.3145 19.6367 64.3145C20.1494 64.3145 20.3154 64.627 20.4131 64.7686H20.4473V64.3486H20.8574V67.0732C20.8574 67.7568 20.3496 68.0498 19.7051 68.0498ZM19.6904 66.585C20.1738 66.585 20.4473 66.2383 20.4473 65.6523C20.4473 65.0859 20.1836 64.6904 19.6904 64.6904C19.1826 64.6904 18.9287 65.1201 18.9287 65.6523C18.9287 66.2041 19.1875 66.585 19.6904 66.585ZM24.7295 68.0596L23.1816 66.5117L23.4502 66.2383L24.5391 67.3223V63.6455L23.4502 64.7344L23.1816 64.4658L24.7295 62.9131L26.2822 64.4658L26.0137 64.7344L24.9248 63.6455V67.3223L26.0137 66.2383L26.2822 66.5117L24.7295 68.0596ZM31.0674 64.5684C30.916 64.1143 30.5693 63.8262 30.0664 63.8262C29.4414 63.8262 28.9434 64.3193 28.9434 65.2324C28.9434 66.1455 29.4414 66.6387 30.0957 66.6387C30.6938 66.6387 31.1016 66.2383 31.1113 65.6133H30.1885V65.2275H31.541V65.6084C31.541 66.4873 30.9355 67.0488 30.0957 67.0488C29.1533 67.0488 28.5186 66.3506 28.5186 65.2324C28.5186 64.1143 29.1582 63.416 30.0664 63.416C30.8135 63.416 31.3896 63.8848 31.5215 64.5684H31.0674ZM32.0195 66.248C32.0195 65.6377 32.5566 65.501 33.0156 65.4668C33.1841 65.4546 33.6138 65.4326 33.7334 65.4277V65.2129C33.7334 64.876 33.5332 64.6807 33.1328 64.6807C32.7959 64.6807 32.5957 64.8369 32.5371 65.0371H32.0977C32.1514 64.6123 32.5664 64.3145 33.1523 64.3145C33.499 64.3145 34.1484 64.417 34.1484 65.252V67H33.7334V66.6387H33.7139C33.626 66.8193 33.3818 67.0635 32.9229 67.0635C32.4199 67.0635 32.0195 66.7656 32.0195 66.248ZM32.4395 66.2676C32.4395 66.5459 32.6738 66.6875 32.9961 66.6875C33.4697 66.6875 33.7334 66.3701 33.7334 66.0381V65.7695L33.0645 65.8184C32.6836 65.8428 32.4395 65.9795 32.4395 66.2676ZM34.8223 67.9961V64.3486H35.2275V64.7686H35.2764C35.3643 64.627 35.5303 64.3145 36.043 64.3145C36.707 64.3145 37.1709 64.8418 37.1709 65.6816C37.1709 66.5215 36.707 67.0537 36.0479 67.0537C35.54 67.0537 35.3643 66.7412 35.2764 66.5947H35.2422V67.9961H34.8223ZM35.2324 65.6719C35.2324 66.2676 35.501 66.6777 35.9893 66.6777C36.4922 66.6777 36.751 66.2383 36.751 65.6719C36.751 65.1201 36.4971 64.6904 35.9893 64.6904C35.4912 64.6904 35.2324 65.0859 35.2324 65.6719ZM40.2178 63.4648V67H39.7734V63.9238H39.7539L38.8945 64.4951V64.0508L39.7734 63.4648H40.2178ZM42.3906 67.0488C41.7754 67.0391 41.1016 66.6777 41.1016 65.3691C41.1016 64.1191 41.6143 63.416 42.4443 63.416C43.0645 63.416 43.499 63.7969 43.5918 64.3535H43.1572C43.0742 64.041 42.8398 63.8066 42.4443 63.8066C41.8633 63.8066 41.5166 64.3047 41.5166 65.1543H41.5605C41.7656 64.8613 42.0879 64.6855 42.4688 64.6855C43.0986 64.6855 43.6211 65.1738 43.6211 65.8574C43.6211 66.5215 43.1328 67.0537 42.3906 67.0488ZM42.3906 66.6631C42.8496 66.6631 43.1914 66.3018 43.1963 65.8623C43.1914 65.4277 42.8643 65.0713 42.4004 65.0713C41.9365 65.0713 41.5801 65.4473 41.5752 65.8672C41.5752 66.2822 41.917 66.6631 42.3906 66.6631ZM45.54 67V63.4648H46.7412C47.5713 63.4648 47.9473 63.958 47.9473 64.5879C47.9473 65.2129 47.5713 65.7158 46.7461 65.7158H45.9795V67H45.54ZM45.9795 65.3252H46.7266C47.2881 65.3252 47.5127 65.0078 47.5127 64.5879C47.5127 64.1631 47.2881 63.8555 46.7217 63.8555H45.9795V65.3252ZM48.3818 66.248C48.3818 65.6377 48.9189 65.501 49.3779 65.4668C49.5464 65.4546 49.9761 65.4326 50.0957 65.4277V65.2129C50.0957 64.876 49.8955 64.6807 49.4951 64.6807C49.1582 64.6807 48.958 64.8369 48.8994 65.0371H48.46C48.5137 64.6123 48.9287 64.3145 49.5146 64.3145C49.8613 64.3145 50.5107 64.417 50.5107 65.252V67H50.0957V66.6387H50.0762C49.9883 66.8193 49.7441 67.0635 49.2852 67.0635C48.7822 67.0635 48.3818 66.7656 48.3818 66.248ZM48.8018 66.2676C48.8018 66.5459 49.0361 66.6875 49.3584 66.6875C49.832 66.6875 50.0957 66.3701 50.0957 66.0381V65.7695L49.4268 65.8184C49.0459 65.8428 48.8018 65.9795 48.8018 66.2676ZM52.1855 67.0537C51.5264 67.0537 51.0576 66.5215 51.0576 65.6816C51.0576 64.8418 51.5264 64.3145 52.1904 64.3145C52.7031 64.3145 52.8691 64.627 52.957 64.7686H52.9863V63.4648H53.4111V67H53.001V66.5947H52.957C52.8643 66.7412 52.6934 67.0537 52.1855 67.0537ZM52.2441 66.6777C52.7275 66.6777 53.001 66.2676 53.001 65.6719C53.001 65.0859 52.7373 64.6904 52.2441 64.6904C51.7363 64.6904 51.4824 65.1201 51.4824 65.6719C51.4824 66.2383 51.7412 66.6777 52.2441 66.6777ZM56.6387 63.4648V67H56.1943V63.9238H56.1748L55.3154 64.4951V64.0508L56.1943 63.4648H56.6387ZM57.5811 67L57.5762 66.6777L58.7822 65.4082C59.2021 64.9639 59.4023 64.7246 59.4023 64.3975C59.4023 64.0361 59.0947 63.7969 58.6992 63.7969C58.2793 63.7969 58.0107 64.0654 58.0107 64.4609H57.5957C57.5908 63.8359 58.0742 63.416 58.7139 63.416C59.3535 63.416 59.8125 63.8457 59.8125 64.3975C59.8125 64.793 59.627 65.1006 59.002 65.7451L58.1914 66.5801V66.6094H59.876V67H57.5811Z" fill="#888888"/>
<path opacity="0.85" d="M60 16C62.7614 16 65 13.7614 65 11C65 8.23858 62.7614 6 60 6C57.2386 6 55 8.23858 55 11C55 13.7614 57.2386 16 60 16Z" fill="#D4A853"/>
<path d="M61.9219 9.95312H61.6963C61.6396 9.79102 61.5391 9.61914 61.3945 9.4375C61.252 9.25391 61.1162 9.15332 60.9873 9.13574C60.9287 9.12793 60.8506 9.12109 60.7529 9.11523C60.6553 9.10938 60.5654 9.10645 60.4834 9.10645H59.8359V10.7383H60.249C60.3662 10.7383 60.4678 10.7256 60.5537 10.7002C60.6396 10.6729 60.7158 10.625 60.7822 10.5566C60.8311 10.5078 60.8779 10.4268 60.9229 10.3135C60.9697 10.1982 60.998 10.0996 61.0078 10.0176H61.2305V11.7666H61.0078C61 11.6787 60.9697 11.5723 60.917 11.4473C60.8643 11.3203 60.8193 11.2363 60.7822 11.1953C60.7256 11.1328 60.6533 11.0869 60.5654 11.0576C60.4775 11.0264 60.3721 11.0107 60.249 11.0107H59.8359V12.3877C59.8359 12.458 59.8486 12.5186 59.874 12.5693C59.9014 12.6182 59.9521 12.6582 60.0264 12.6895C60.0693 12.707 60.1279 12.7236 60.2021 12.7393C60.2783 12.7529 60.3535 12.7637 60.4277 12.7715V13H58.1865V12.7715C58.2432 12.7656 58.3184 12.7578 58.4121 12.748C58.5059 12.7363 58.5713 12.7227 58.6084 12.707C58.6787 12.6797 58.7275 12.6416 58.7549 12.5928C58.7822 12.5439 58.7959 12.4814 58.7959 12.4053V9.47266C58.7959 9.40625 58.7832 9.34863 58.7578 9.2998C58.7344 9.24902 58.6846 9.20703 58.6084 9.17383C58.5537 9.15039 58.4814 9.12891 58.3916 9.10938C58.3018 9.08984 58.2334 9.07715 58.1865 9.07129V8.84277H61.9219V9.95312Z" fill="#1A1C1E"/>
</svg>
