<svg xmlns="http://www.w3.org/2000/svg" width="80" height="80" viewBox="0 0 80 80">
  <rect width="80" height="80" rx="10" fill="#F0EDE8"/>
  <circle cx="32" cy="40" r="14" fill="none" stroke="#C4876A" stroke-width="1.2" opacity="0.75"/>
  <circle cx="32" cy="40" r="8" fill="none" stroke="#C4876A" stroke-width="0.8" opacity="0.55"/>
  <text x="32" y="43" font-family="sans-serif" font-size="7" font-weight="700" fill="#C4876A" text-anchor="middle" opacity="0.85">AI</text>
  <line x1="18" y1="40" x2="10" y2="40" stroke="#C4876A" stroke-width="1" opacity="0.60"/>
  <line x1="46" y1="40" x2="54" y2="40" stroke="#C4876A" stroke-width="1" opacity="0.60"/>
  <line x1="32" y1="26" x2="32" y2="18" stroke="#C4876A" stroke-width="1" opacity="0.60"/>
  <line x1="32" y1="54" x2="32" y2="62" stroke="#C4876A" stroke-width="1" opacity="0.60"/>
  <circle cx="10" cy="40" r="2.5" fill="#C4876A" opacity="0.75"/>
  <circle cx="54" cy="40" r="2.5" fill="#C4876A" opacity="0.75"/>
  <circle cx="32" cy="18" r="2.5" fill="#D4A853" opacity="0.80"/>
  <circle cx="32" cy="62" r="2.5" fill="#C4876A" opacity="0.65"/>
  <path d="M57 13 L59 8 L61 13 L66 15 L61 17 L59 22 L57 17 L52 15 Z" stroke="#D4A853" stroke-width="0.8" fill="none" stroke-linejoin="round" opacity="0.65"/>
  <circle cx="14" cy="17" r="1.5" fill="#D4A853" opacity="0.45"/>
  <circle cx="66" cy="58" r="1.2" fill="#C4876A" opacity="0.38"/>
</svg>