<svg width="180" height="120" viewBox="0 0 180 120" fill="none" xmlns="http://www.w3.org/2000/svg">
<path d="M0 10C0 4.47715 4.47715 0 10 0H170C175.523 0 180 4.47715 180 10V120H0V10Z" fill="white"/>
<path opacity="0.85" d="M120.101 18.25H60.1006C57.8914 18.25 56.1006 20.0409 56.1006 22.25V36.25C56.1006 38.4591 57.8914 40.25 60.1006 40.25H120.101C122.31 40.25 124.101 38.4591 124.101 36.25V22.25C124.101 20.0409 122.31 18.25 120.101 18.25Z" fill="#1A1C1E"/>
<path opacity="0.9" d="M62.1006 32.25C63.7574 32.25 65.1006 30.9069 65.1006 29.25C65.1006 27.5931 63.7574 26.25 62.1006 26.25C60.4437 26.25 59.1006 27.5931 59.1006 29.25C59.1006 30.9069 60.4437 32.25 62.1006 32.25Z" fill="#D4A853"/>
<path d="M81.8262 29.0234C81.7441 28.4766 81.3203 28.1416 80.7461 28.1416C79.9736 28.1416 79.4678 28.7363 79.4678 29.7754C79.4678 30.8418 79.9805 31.4092 80.7393 31.4092C81.3066 31.4092 81.7236 31.0947 81.8262 30.5615L82.8652 30.5684C82.749 31.4844 81.9834 32.3184 80.7256 32.3184C79.3994 32.3184 78.4219 31.3887 78.4219 29.7754C78.4219 28.1621 79.4199 27.2324 80.7256 27.2324C81.8672 27.2324 82.7285 27.8887 82.8652 29.0234H81.8262ZM85.2305 32.3252C84.1094 32.3252 83.4121 31.5527 83.4121 30.4043C83.4121 29.2559 84.1094 28.4902 85.2305 28.4902C86.3516 28.4902 87.0557 29.2559 87.0557 30.4043C87.0557 31.5527 86.3516 32.3252 85.2305 32.3252ZM85.2373 31.5391C85.7568 31.5391 86.0234 31.0537 86.0234 30.4043C86.0234 29.748 85.7568 29.2627 85.2373 29.2627C84.7109 29.2627 84.4375 29.748 84.4375 30.4043C84.4375 31.0537 84.7109 31.5391 85.2373 31.5391ZM87.6914 32.25V28.5381H88.6553V29.1875H88.6963C88.8535 28.7568 89.2295 28.4902 89.7285 28.4902C90.2412 28.4902 90.6172 28.7568 90.7402 29.1875H90.7744C90.9316 28.7637 91.3486 28.4902 91.8955 28.4902C92.5859 28.4902 93.0645 28.9482 93.0645 29.7549V32.25H92.0527V29.9531C92.0527 29.5293 91.8066 29.3242 91.4717 29.3242C91.0889 29.3242 90.8701 29.5908 90.8701 29.9805V32.25H89.8857V29.9258C89.8857 29.5566 89.6533 29.3242 89.3115 29.3242C88.9697 29.3242 88.7031 29.5977 88.7031 30.0215V32.25H87.6914ZM93.8438 33.6445V28.5381H94.8418V29.1602H94.8828C95.0195 28.8594 95.3203 28.4902 95.9424 28.4902C96.7627 28.4902 97.4463 29.126 97.4463 30.3975C97.4463 31.6348 96.79 32.3115 95.9424 32.3115C95.334 32.3115 95.0264 31.9629 94.8828 31.6553H94.8555V33.6445H93.8438ZM94.835 30.3906C94.835 31.0605 95.1221 31.5049 95.6211 31.5049C96.1406 31.5049 96.4141 31.0469 96.4141 30.3906C96.4141 29.7412 96.1406 29.2969 95.6211 29.2969C95.1152 29.2969 94.835 29.7207 94.835 30.3906ZM99.7705 32.3252C98.6494 32.3252 97.9521 31.5527 97.9521 30.4043C97.9521 29.2559 98.6494 28.4902 99.7705 28.4902C100.892 28.4902 101.596 29.2559 101.596 30.4043C101.596 31.5527 100.892 32.3252 99.7705 32.3252ZM99.7773 31.5391C100.297 31.5391 100.563 31.0537 100.563 30.4043C100.563 29.748 100.297 29.2627 99.7773 29.2627C99.251 29.2627 98.9775 29.748 98.9775 30.4043C98.9775 31.0537 99.251 31.5391 99.7773 31.5391ZM103.243 30.1035V32.25H102.231V28.5381H103.195V29.1875H103.236C103.407 28.7568 103.804 28.4902 104.351 28.4902C105.123 28.4902 105.636 29.0166 105.629 29.8848V32.25H104.624V30.0625C104.624 29.6045 104.371 29.3311 103.954 29.3311C103.53 29.3311 103.243 29.6113 103.243 30.1035ZM108.097 32.3252C106.962 32.3252 106.265 31.5869 106.265 30.4111C106.265 29.2627 106.969 28.4902 108.056 28.4902C109.033 28.4902 109.799 29.1055 109.799 30.3701V30.6572H107.263C107.263 31.2178 107.598 31.5664 108.117 31.5664C108.459 31.5664 108.705 31.416 108.808 31.1904H109.771C109.628 31.874 109.013 32.3252 108.097 32.3252ZM107.263 30.0215H108.842C108.842 29.5703 108.527 29.249 108.076 29.249C107.611 29.249 107.28 29.5942 107.263 30.0215ZM111.446 30.1035V32.25H110.435V28.5381H111.398V29.1875H111.439C111.61 28.7568 112.007 28.4902 112.554 28.4902C113.326 28.4902 113.839 29.0166 113.832 29.8848V32.25H112.827V30.0625C112.827 29.6045 112.574 29.3311 112.157 29.3311C111.733 29.3311 111.446 29.6113 111.446 30.1035ZM116.573 28.5381V29.2969H115.876V31.1084C115.876 31.4023 116.02 31.4775 116.225 31.4844C116.327 31.4844 116.505 31.4775 116.628 31.4639V32.2637C116.519 32.2842 116.341 32.2979 116.088 32.2979C115.356 32.2979 114.857 31.9697 114.864 31.252V29.2969H114.352V28.5381H114.864V27.6494H115.876V28.5381H116.573Z" fill="white"/>
<path d="M90.1006 40.25L42.1006 64.25" stroke="#D1D1D1"/>
<path d="M90.1006 40.25V64.25" stroke="#D1D1D1"/>
<path d="M90.1006 40.25L138.101 64.25" stroke="#D1D1D1"/>
<path opacity="0.7" d="M63.1006 64.25H19.1006C17.4437 64.25 16.1006 65.5931 16.1006 67.25V79.25C16.1006 80.9069 17.4437 82.25 19.1006 82.25H63.1006C64.7574 82.25 66.1006 80.9069 66.1006 79.25V67.25C66.1006 65.5931 64.7574 64.25 63.1006 64.25Z" fill="#D4A853"/>
<path d="M29.5447 75.75V71.1543H31.3474C32.3948 71.1543 32.9915 71.7954 32.9915 72.7031C32.9915 73.6235 32.3821 74.252 31.322 74.252H30.4968V75.75H29.5447ZM30.4968 73.4839H31.1697C31.7346 73.4839 32.0076 73.1665 32.0076 72.7031C32.0076 72.2461 31.7346 71.9351 31.1697 71.9351H30.4968V73.4839ZM33.5754 75.75V72.3032H34.4832V72.8999H34.5212C34.6482 72.4746 34.9656 72.2524 35.3528 72.2524C35.448 72.2524 35.5686 72.2651 35.6511 72.2842V73.1221C35.5623 73.0967 35.3845 73.0713 35.2512 73.0713C34.8259 73.0713 34.5149 73.3696 34.5149 73.7886V75.75H33.5754ZM36.1082 75.75V72.3032H37.0476V75.75H36.1082ZM36.5779 71.8525C36.2922 71.8525 36.0637 71.6367 36.0637 71.3765C36.0637 71.1099 36.2922 70.894 36.5779 70.894C36.8572 70.894 37.0857 71.1099 37.0857 71.3765C37.0857 71.6367 36.8572 71.8525 36.5779 71.8525ZM37.7776 75.75V72.3032H38.6726V72.9062H38.7107C38.8567 72.5063 39.2058 72.2588 39.6692 72.2588C40.1453 72.2588 40.4944 72.5063 40.6086 72.9062H40.6404C40.7864 72.5127 41.1736 72.2588 41.6814 72.2588C42.3225 72.2588 42.7668 72.6841 42.7668 73.4331V75.75H41.8274V73.6172C41.8274 73.2236 41.5989 73.0332 41.2878 73.0332C40.9324 73.0332 40.7292 73.2808 40.7292 73.6426V75.75H39.8152V73.5918C39.8152 73.249 39.5994 73.0332 39.282 73.0332C38.9646 73.0332 38.717 73.2871 38.717 73.6807V75.75H37.7776ZM43.3254 74.7852C43.3254 74.0171 43.9475 73.7632 44.6077 73.7251C44.8552 73.7092 45.3186 73.687 45.4646 73.6807V73.4014C45.4583 73.1157 45.2615 72.9443 44.9124 72.9443C44.595 72.9443 44.3918 73.0903 44.3411 73.3252H43.446C43.5032 72.7285 44.0237 72.2588 44.9377 72.2588C45.6868 72.2588 46.3977 72.5952 46.3977 73.4268V75.75H45.509V75.2739H45.4836C45.3123 75.5913 44.9885 75.8135 44.4744 75.8135C43.8142 75.8135 43.3254 75.4707 43.3254 74.7852ZM44.2268 74.7598C44.2268 75.0264 44.4426 75.166 44.741 75.166C45.1663 75.166 45.4709 74.8804 45.4646 74.5186V74.2646C45.3218 74.271 44.9219 74.2932 44.76 74.3091C44.4363 74.3408 44.2268 74.4932 44.2268 74.7598ZM47.115 75.75V72.3032H48.0227V72.8999H48.0608C48.1877 72.4746 48.5051 72.2524 48.8923 72.2524C48.9875 72.2524 49.1082 72.2651 49.1907 72.2842V73.1221C49.1018 73.0967 48.9241 73.0713 48.7908 73.0713C48.3655 73.0713 48.0544 73.3696 48.0544 73.7886V75.75H47.115ZM50.3079 77.0449C50.1238 77.0449 49.9524 77.0386 49.8318 77.0259V76.2959C49.9524 76.3022 50.092 76.3086 50.2126 76.3086C50.3967 76.3086 50.5491 76.2896 50.6633 75.9912L50.7205 75.8452L49.4827 72.3032H50.4666L51.1902 74.8423H51.2283L51.9583 72.3032H52.9548L51.6091 76.1309C51.4124 76.6831 51.0378 77.0449 50.3079 77.0449Z" fill="#1A1C1E"/>
<path opacity="0.8" d="M112.101 64.25H68.1006C66.4437 64.25 65.1006 65.5931 65.1006 67.25V79.25C65.1006 80.9069 66.4437 82.25 68.1006 82.25H112.101C113.757 82.25 115.101 80.9069 115.101 79.25V67.25C115.101 65.5931 113.757 64.25 112.101 64.25Z" stroke="#C8C4BE"/>
<path d="M77.4021 72.3096C77.3513 71.8589 76.9387 71.5986 76.3865 71.5986C75.7771 71.5986 75.3772 71.916 75.3772 72.354C75.3772 72.8364 75.9167 73.0142 76.2659 73.103L76.7229 73.23C77.218 73.3569 78.0242 73.6426 78.0242 74.4995C78.0242 75.2485 77.4211 75.8325 76.3547 75.8325C75.3645 75.8325 74.7488 75.3184 74.698 74.5566H75.282C75.3328 75.0708 75.8088 75.312 76.3547 75.312C76.9895 75.312 77.4656 74.9883 77.4656 74.4868C77.4656 74.0425 77.0403 73.8711 76.5579 73.7314L75.9929 73.5791C75.2693 73.3696 74.825 73.0015 74.825 72.3794C74.825 71.605 75.5168 71.0908 76.4055 71.0908C77.2942 71.0908 77.9353 71.6113 77.9607 72.3096H77.4021ZM80.2205 75.8198C79.2239 75.8198 78.6082 75.1152 78.6082 74.0552C78.6082 72.9951 79.2302 72.2588 80.1697 72.2588C80.8933 72.2588 81.655 72.7031 81.655 73.979V74.2075H79.1541C79.1794 74.9375 79.6047 75.3374 80.2205 75.3374C80.6331 75.3374 80.8933 75.1597 81.0203 74.9438H81.6042C81.4392 75.4644 80.9314 75.8198 80.2205 75.8198ZM79.1604 73.7441H81.1028C81.1028 73.1665 80.7346 72.7412 80.1697 72.7412C79.573 72.7412 79.1921 73.2109 79.1604 73.7441ZM83.7751 75.8198C82.7976 75.8198 82.2009 75.0771 82.2009 74.0425C82.2009 72.9951 82.823 72.2588 83.7625 72.2588C84.4988 72.2588 85.0447 72.6904 85.1335 73.3442H84.5876C84.5115 73.0269 84.2322 72.7412 83.7751 72.7412C83.1594 72.7412 82.7468 73.249 82.7468 74.0234C82.7468 74.8232 83.1467 75.3311 83.7751 75.3311C84.1814 75.3311 84.4924 75.1152 84.5876 74.7344H85.1335C85.0447 75.3501 84.5432 75.8198 83.7751 75.8198ZM87.2156 75.8198C86.2761 75.8198 85.6414 75.1152 85.6414 74.0425C85.6414 72.9697 86.2761 72.2588 87.2156 72.2588C88.1487 72.2588 88.7771 72.9697 88.7771 74.0425C88.7771 75.1152 88.1487 75.8198 87.2156 75.8198ZM87.2156 75.3374C87.9075 75.3374 88.2312 74.728 88.2312 74.0425C88.2312 73.3569 87.9075 72.7412 87.2156 72.7412C86.511 72.7412 86.1873 73.3569 86.1873 74.0425C86.1873 74.728 86.511 75.3374 87.2156 75.3374ZM90.0403 73.6807V75.75H89.4944V72.3032H90.0212V72.8428H90.0657C90.2307 72.4937 90.5481 72.2588 91.075 72.2588C91.7732 72.2588 92.2366 72.6841 92.2366 73.5601V75.75H91.6907V73.5981C91.6907 73.0649 91.3987 72.7476 90.9099 72.7476C90.4084 72.7476 90.0403 73.084 90.0403 73.6807ZM94.4138 75.8198C93.5569 75.8198 92.9475 75.1279 92.9475 74.0361C92.9475 72.9443 93.5569 72.2588 94.4202 72.2588C95.0867 72.2588 95.3025 72.665 95.4167 72.8491H95.4548V71.1543H96.0071V75.75H95.4739V75.2231H95.4167C95.2961 75.4136 95.074 75.8198 94.4138 75.8198ZM94.49 75.3311C95.1184 75.3311 95.4739 74.7979 95.4739 74.0234C95.4739 73.2617 95.1311 72.7476 94.49 72.7476C93.8298 72.7476 93.4998 73.3062 93.4998 74.0234C93.4998 74.7598 93.8362 75.3311 94.49 75.3311ZM96.7878 74.7725C96.7878 73.979 97.4861 73.8013 98.0828 73.7568C98.3018 73.741 98.8604 73.7124 99.0159 73.7061V73.4268C99.0159 72.9888 98.7556 72.7349 98.2351 72.7349C97.7971 72.7349 97.5369 72.938 97.4607 73.1982H96.8894C96.9592 72.646 97.4988 72.2588 98.2605 72.2588C98.7112 72.2588 99.5554 72.3921 99.5554 73.4775V75.75H99.0159V75.2803H98.9905C98.8762 75.5151 98.5588 75.8325 97.9622 75.8325C97.3083 75.8325 96.7878 75.4453 96.7878 74.7725ZM97.3337 74.7979C97.3337 75.1597 97.6384 75.3438 98.0574 75.3438C98.6731 75.3438 99.0159 74.9312 99.0159 74.4995V74.1504L98.1462 74.2139C97.6511 74.2456 97.3337 74.4233 97.3337 74.7979ZM100.431 75.75V72.3032H100.958V72.8301H100.996C101.123 72.481 101.479 72.2461 101.885 72.2461C101.968 72.2461 102.107 72.2524 102.171 72.2588V72.811C102.133 72.7983 101.98 72.7729 101.841 72.7729C101.345 72.7729 100.977 73.1157 100.977 73.5791V75.75H100.431ZM103.161 77.0449C103.04 77.0449 102.926 77.0386 102.856 77.0322V76.5435C102.913 76.5498 103.04 76.5562 103.123 76.5562C103.345 76.5562 103.529 76.5371 103.713 76.0356L103.815 75.7754L102.539 72.3032H103.135L104.075 75.0391H104.113L105.052 72.3032H105.649L104.189 76.2451C103.986 76.7847 103.65 77.0449 103.161 77.0449Z" fill="#555555"/>
<path opacity="0.9" d="M162.101 64.25H118.101C116.444 64.25 115.101 65.5931 115.101 67.25V79.25C115.101 80.9069 116.444 82.25 118.101 82.25H162.101C163.757 82.25 165.101 80.9069 165.101 79.25V67.25C165.101 65.5931 163.757 64.25 162.101 64.25Z" fill="#F0EEEA"/>
<path d="M135.051 72.5889C134.854 71.9985 134.404 71.624 133.75 71.624C132.937 71.624 132.29 72.2651 132.29 73.4521C132.29 74.6392 132.937 75.2803 133.788 75.2803C134.565 75.2803 135.095 74.7598 135.108 73.9473H133.908V73.4458H135.667V73.9409C135.667 75.0835 134.88 75.8135 133.788 75.8135C132.563 75.8135 131.738 74.9058 131.738 73.4521C131.738 71.9985 132.569 71.0908 133.75 71.0908C134.721 71.0908 135.47 71.7002 135.641 72.5889H135.051ZM137 73.6807V75.75H136.454V71.1543H137V72.8428H137.044C137.203 72.4873 137.514 72.2588 138.06 72.2588C138.764 72.2588 139.234 72.6777 139.234 73.5601V75.75H138.688V73.5981C138.688 73.0586 138.39 72.7476 137.895 72.7476C137.381 72.7476 137 73.084 137 73.6807ZM141.519 75.8198C140.58 75.8198 139.945 75.1152 139.945 74.0425C139.945 72.9697 140.58 72.2588 141.519 72.2588C142.452 72.2588 143.081 72.9697 143.081 74.0425C143.081 75.1152 142.452 75.8198 141.519 75.8198ZM141.519 75.3374C142.211 75.3374 142.535 74.728 142.535 74.0425C142.535 73.3569 142.211 72.7412 141.519 72.7412C140.815 72.7412 140.491 73.3569 140.491 74.0425C140.491 74.728 140.815 75.3374 141.519 75.3374ZM145.715 73.1982C145.639 72.9126 145.423 72.7222 145.017 72.7222C144.592 72.7222 144.287 72.9507 144.287 73.2427C144.287 73.4712 144.471 73.6299 144.877 73.7251L145.391 73.8521C146.007 73.998 146.312 74.3027 146.312 74.7852C146.312 75.3818 145.823 75.8198 144.96 75.8198C144.185 75.8198 143.722 75.4771 143.633 74.8486H144.204C144.268 75.1851 144.515 75.3438 144.947 75.3438C145.436 75.3438 145.747 75.1406 145.747 74.8169C145.747 74.5757 145.575 74.4106 145.182 74.3218L144.661 74.2012C144.058 74.0615 143.741 73.7314 143.741 73.2744C143.741 72.6841 144.255 72.2588 145.017 72.2588C145.728 72.2588 146.178 72.6396 146.248 73.1982H145.715ZM148.527 72.3032V72.7603H147.803V74.7598C147.803 75.2041 148.019 75.2739 148.254 75.2739C148.356 75.2739 148.495 75.2676 148.578 75.2612V75.769C148.495 75.7817 148.356 75.7944 148.197 75.7944C147.74 75.7944 147.251 75.5088 147.251 74.8994V72.7603H146.731V72.3032H147.251V71.478H147.803V72.3032H148.527Z" fill="#555555"/>
<path d="M24.1006 107.25C27.9666 107.25 31.1006 104.116 31.1006 100.25C31.1006 96.384 27.9666 93.25 24.1006 93.25C20.2346 93.25 17.1006 96.384 17.1006 100.25C17.1006 104.116 20.2346 107.25 24.1006 107.25Z" fill="#D4A853"/>
<path d="M40.1006 107.25C43.9666 107.25 47.1006 104.116 47.1006 100.25C47.1006 96.384 43.9666 93.25 40.1006 93.25C36.2346 93.25 33.1006 96.384 33.1006 100.25C33.1006 104.116 36.2346 107.25 40.1006 107.25Z" fill="#8FAF8A"/>
<path d="M56.1006 107.25C59.9666 107.25 63.1006 104.116 63.1006 100.25C63.1006 96.384 59.9666 93.25 56.1006 93.25C52.2346 93.25 49.1006 96.384 49.1006 100.25C49.1006 104.116 52.2346 107.25 56.1006 107.25Z" fill="#C4876A"/>
<path d="M72.1006 107.25C75.9666 107.25 79.1006 104.116 79.1006 100.25C79.1006 96.384 75.9666 93.25 72.1006 93.25C68.2346 93.25 65.1006 96.384 65.1006 100.25C65.1006 104.116 68.2346 107.25 72.1006 107.25Z" fill="#1A1C1E"/>
<path d="M88.1006 107.25C91.9666 107.25 95.1006 104.116 95.1006 100.25C95.1006 96.384 91.9666 93.25 88.1006 93.25C84.2346 93.25 81.1006 96.384 81.1006 100.25C81.1006 104.116 84.2346 107.25 88.1006 107.25Z" fill="#E8E8E8" stroke="#D0D0D0" stroke-width="0.8"/>
<path opacity="0.4" d="M140.101 15.75C140.929 15.75 141.601 15.0784 141.601 14.25C141.601 13.4216 140.929 12.75 140.101 12.75C139.272 12.75 138.601 13.4216 138.601 14.25C138.601 15.0784 139.272 15.75 140.101 15.75Z" fill="#D4A853"/>
<path opacity="0.38" d="M16.1004 23.4501C16.7631 23.4501 17.3004 22.9128 17.3004 22.2501C17.3004 21.5873 16.7631 21.05 16.1004 21.05C15.4376 21.05 14.9004 21.5873 14.9004 22.2501C14.9004 22.9128 15.4376 23.4501 16.1004 23.4501Z" fill="#8FAF8A"/>
</svg>
