<svg xmlns="http://www.w3.org/2000/svg" width="180" height="120" viewBox="0 0 180 120">
  <!-- 배경: 미드나잇차콜 -->
  <rect width="180" height="120" fill="#1A1C1E"/>
  <!-- 12컬럼 그리드 (연한 Gold) -->
  <g opacity="0.14">
    <rect x="6"   y="0" width="10" height="120" fill="#D4A853"/>
    <rect x="18"  y="0" width="10" height="120" fill="#D4A853"/>
    <rect x="30"  y="0" width="10" height="120" fill="#D4A853"/>
    <rect x="42"  y="0" width="10" height="120" fill="#D4A853"/>
    <rect x="54"  y="0" width="10" height="120" fill="#D4A853"/>
    <rect x="66"  y="0" width="10" height="120" fill="#D4A853"/>
    <rect x="78"  y="0" width="10" height="120" fill="#D4A853"/>
    <rect x="90"  y="0" width="10" height="120" fill="#D4A853"/>
    <rect x="102" y="0" width="10" height="120" fill="#D4A853"/>
    <rect x="114" y="0" width="10" height="120" fill="#D4A853"/>
    <rect x="126" y="0" width="10" height="120" fill="#D4A853"/>
    <rect x="138" y="0" width="36" height="120" fill="#D4A853"/>
  </g>
  <!-- 콘텐츠 블록 -->
  <rect x="6"  y="16" width="82" height="42" rx="3" fill="#FFFFFF" opacity="0.90"/>
  <rect x="6"  y="64" width="52" height="8"  rx="2" fill="#FFFFFF" opacity="0.45"/>
  <rect x="6"  y="76" width="68" height="8"  rx="2" fill="#FFFFFF" opacity="0.30"/>
  <rect x="6"  y="88" width="40" height="8"  rx="2" fill="#D4A853" opacity="0.80"/>
  <!-- 8px 수치 -->
  <text x="98" y="42" font-family="Courier New,monospace" font-size="14"
        font-weight="700" fill="#D4A853" opacity="0.95">8px</text>
  <line x1="96"  y1="16" x2="96"  y2="58" stroke="#D4A853" stroke-width="1" opacity="0.50"/>
  <line x1="174" y1="16" x2="174" y2="58" stroke="#D4A853" stroke-width="1" opacity="0.50"/>
  <!-- 12 워터마크 -->
  <text x="152" y="112" font-family="Georgia,serif" font-size="32" font-weight="700"
        fill="#D4A853" opacity="0.22">12</text>
  <circle cx="12" cy="108" r="2" fill="#D4A853" opacity="0.35"/>
</svg>