<svg width="28" height="28" viewBox="0 0 28 28" fill="none" xmlns="http://www.w3.org/2000/svg">
<rect x="0.25" y="0.25" width="27.5" height="27.5" rx="13.75" fill="white"/>
<rect x="0.25" y="0.25" width="27.5" height="27.5" rx="13.75" stroke="#D1D1D1" stroke-width="0.5"/>
<path d="M10 18V17H11.375L11.175 16.825C10.7417 16.4417 10.4375 16.0042 10.2625 15.5125C10.0875 15.0208 10 14.525 10 14.025C10 13.1 10.2771 12.2771 10.8313 11.5562C11.3854 10.8354 12.1083 10.3583 13 10.125V11.175C12.4 11.3917 11.9167 11.7604 11.55 12.2812C11.1833 12.8021 11 13.3833 11 14.025C11 14.4 11.0708 14.7646 11.2125 15.1188C11.3542 15.4729 11.575 15.8 11.875 16.1L12 16.225V15H13V18H10ZM15 17.875V16.825C15.6 16.6083 16.0833 16.2396 16.45 15.7188C16.8167 15.1979 17 14.6167 17 13.975C17 13.6 16.9292 13.2354 16.7875 12.8812C16.6458 12.5271 16.425 12.2 16.125 11.9L16 11.775V13H15V10H18V11H16.625L16.825 11.175C17.2333 11.5833 17.5312 12.0271 17.7188 12.5062C17.9062 12.9854 18 13.475 18 13.975C18 14.9 17.7229 15.7229 17.1687 16.4437C16.6146 17.1646 15.8917 17.6417 15 17.875Z" fill="#1A1C1E"/>
</svg>
