<svg width="40" height="40" viewBox="0 0 40 40" fill="none" xmlns="http://www.w3.org/2000/svg">
<rect width="40" height="40" rx="4" fill="#E8941A"/>
<path d="M21 13.0004C21 12.3604 21.1733 11.867 21.52 11.5204C21.8667 11.1737 22.36 11.0004 23 11.0004H31.92C32.56 11.0004 33.0533 11.1737 33.4 11.5204C33.7467 11.867 33.92 12.3604 33.92 13.0004V13.8404C33.92 14.4804 33.7467 14.9737 33.4 15.3204C33.0533 15.667 32.56 15.8404 31.92 15.8404H23C22.36 15.8404 21.8667 15.667 21.52 15.3204C21.1733 14.9737 21 14.4804 21 13.8404V13.0004Z" fill="white"/>
<path d="M21 19.5604C21 18.9204 21.1733 18.427 21.52 18.0804C21.8667 17.7337 22.36 17.5604 23 17.5604H31.92C32.56 17.5604 33.0533 17.7337 33.4 18.0804C33.7467 18.427 33.92 18.9204 33.92 19.5604V20.4004C33.92 21.0404 33.7467 21.5337 33.4 21.8804C33.0533 22.227 32.56 22.4004 31.92 22.4004H23C22.36 22.4004 21.8667 22.227 21.52 21.8804C21.1733 21.5337 21 21.0404 21 20.4004V19.5604Z" fill="white"/>
<path d="M6 26.0402C6 25.8269 6 25.7002 6 25.6002C6 25.5002 6 25.2936 6 25.0802V19.5202C6 18.8802 6.17333 18.3869 6.52 18.0402C6.86667 17.6936 7.36 17.5202 8 17.5202H14.2V15.8802H8C7.36 15.8802 6.86667 15.7069 6.52 15.3602C6.17333 15.0136 6 14.5202 6 13.8802V13.0402C6 12.4002 6.17333 11.9069 6.52 11.5602C6.86667 11.2136 7.36 11.0402 8 11.0402H17C17.64 11.0402 18.1333 11.2136 18.48 11.5602C18.8267 11.9069 19 12.4002 19 13.0402V18.6002C19 18.8136 19 18.9002 19 19.0002C19 19.1002 19 19.3069 19 19.5202V20.4002C19 21.0402 18.8267 21.5336 18.48 21.8802C18.1333 22.2269 17.64 22.4002 17 22.4002H10.8V24.0402H32.02C32.66 24.0402 33.1533 24.2136 33.5 24.5602C33.8467 24.9069 34.02 25.4002 34.02 26.0402V26.8802C34.02 27.5202 33.8467 28.0136 33.5 28.3602C33.1533 28.7069 32.66 28.8802 32.02 28.8802H8C7.36 28.8802 6.86667 28.7069 6.52 28.3602C6.17333 28.0136 6 27.5202 6 26.8802V26.0402Z" fill="white"/>
</svg>
