<svg width="382" height="237" viewBox="0 0 382 237" fill="none" xmlns="http://www.w3.org/2000/svg">
<path d="M373.824 0H7.99624C3.58004 0 0 3.58172 0 8V229C0 233.418 3.58004 237 7.99624 237H373.824C378.241 237 381.821 233.418 381.821 229V8C381.821 3.58172 378.241 0 373.824 0Z" fill="url(#paint0_linear_546_10132)"/>
<path d="M51.9756 0H7.99624C3.58004 0 0 3.58172 0 8V229C0 233.418 3.58004 237 7.99624 237H51.9756C56.3918 237 59.9718 233.418 59.9718 229V8C59.9718 3.58172 56.3918 0 51.9756 0Z" fill="#16181C"/>
<path d="M61.0318 0H60.0322V237H61.0318V0Z" fill="#3A3C42"/>
<path d="M29.9232 18H15.9298C13.7217 18 11.9316 19.7909 11.9316 22V36C11.9316 38.2091 13.7217 40 15.9298 40H29.9232C32.1313 40 33.9213 38.2091 33.9213 36V22C33.9213 19.7909 32.1313 18 29.9232 18Z" fill="#3A3C42"/>
<path d="M29.9232 48H15.9298C13.7217 48 11.9316 49.7909 11.9316 52V66C11.9316 68.2091 13.7217 70 15.9298 70H29.9232C32.1313 70 33.9213 68.2091 33.9213 66V52C33.9213 49.7909 32.1313 48 29.9232 48Z" fill="#3A3C42"/>
<path opacity="0.8" d="M29.9232 78H15.9298C13.7217 78 11.9316 79.7909 11.9316 82V96C11.9316 98.2091 13.7217 100 15.9298 100H29.9232C32.1313 100 33.9213 98.2091 33.9213 96V82C33.9213 79.7909 32.1313 78 29.9232 78Z" fill="#D4A853"/>
<path d="M29.9232 108H15.9298C13.7217 108 11.9316 109.791 11.9316 112V126C11.9316 128.209 13.7217 130 15.9298 130H29.9232C32.1313 130 33.9213 128.209 33.9213 126V112C33.9213 109.791 32.1313 108 29.9232 108Z" fill="#3A3C42"/>
<path d="M29.9232 138H15.9298C13.7217 138 11.9316 139.791 11.9316 142V156C11.9316 158.209 13.7217 160 15.9298 160H29.9232C32.1313 160 33.9213 158.209 33.9213 156V142C33.9213 139.791 32.1313 138 29.9232 138Z" fill="#3A3C42"/>
<path d="M17.1523 29H29.1467" stroke="#666666" stroke-width="1.2"/>
<path d="M17.1523 34H26.1481" stroke="#666666" stroke-width="1.2"/>
<path d="M17.1523 59H29.1467" stroke="#666666" stroke-width="1.2"/>
<path d="M17.1523 64H26.1481" stroke="#666666" stroke-width="1.2"/>
<path d="M26.5382 86.4141H26.1246C26.0207 86.1169 25.8363 85.8018 25.5714 85.4688C25.31 85.1322 25.0611 84.9478 24.8248 84.9155C24.7174 84.9012 24.5741 84.8887 24.3951 84.8779C24.2161 84.8672 24.0513 84.8618 23.901 84.8618H22.7139V87.8535H23.4713C23.6861 87.8535 23.8723 87.8302 24.0299 87.7837C24.1874 87.7336 24.3271 87.6458 24.4488 87.5205C24.5383 87.431 24.6243 87.2824 24.7066 87.0747C24.7926 86.8634 24.8445 86.6826 24.8624 86.5322H25.2706V89.7388H24.8624C24.8481 89.5776 24.7926 89.3825 24.6959 89.1533C24.5992 88.9206 24.5168 88.7666 24.4488 88.6914C24.345 88.5768 24.2125 88.4927 24.0513 88.439C23.8902 88.3817 23.6969 88.353 23.4713 88.353H22.7139V90.8774C22.7139 91.0063 22.7372 91.1174 22.7838 91.2104C22.8339 91.3 22.927 91.3734 23.0631 91.4307C23.1418 91.4629 23.2493 91.4933 23.3853 91.522C23.525 91.547 23.6628 91.5667 23.7989 91.5811V92H19.69V91.5811C19.7939 91.5703 19.9317 91.556 20.1036 91.5381C20.2755 91.5166 20.3954 91.4915 20.4635 91.4629C20.5924 91.4128 20.6819 91.3429 20.732 91.2534C20.7821 91.1639 20.8072 91.0493 20.8072 90.9097V85.5332C20.8072 85.4115 20.7839 85.3058 20.7374 85.2163C20.6944 85.1232 20.6031 85.0462 20.4635 84.9854C20.3632 84.9424 20.2307 84.903 20.066 84.8672C19.9013 84.8314 19.776 84.8081 19.69 84.7974V84.3784H26.5382V86.4141Z" fill="#D4A853"/>
<path d="M382 0H61.1504V32H382V0Z" fill="#1A1C20"/>
<path d="M382 32H61.1504V33H382V32Z" fill="#3A3C42"/>
<path d="M104.845 8H70.8609C69.2048 8 67.8623 9.34315 67.8623 11V21C67.8623 22.6569 69.2048 24 70.8609 24H104.845C106.501 24 107.844 22.6569 107.844 21V11C107.844 9.34315 106.501 8 104.845 8Z" fill="#3A3C42"/>
<path d="M151.081 8H117.097C115.441 8 114.099 9.34315 114.099 11V21C114.099 22.6569 115.441 24 117.097 24H151.081C152.737 24 154.08 22.6569 154.08 21V11C154.08 9.34315 152.737 8 151.081 8Z" fill="#3A3C42"/>
<path d="M196.945 8H162.961C161.304 8 159.962 9.34315 159.962 11V21C159.962 22.6569 161.304 24 162.961 24H196.945C198.601 24 199.943 22.6569 199.943 21V11C199.943 9.34315 198.601 8 196.945 8Z" fill="#3A3C42"/>
<path opacity="0.75" d="M317.833 8H268.856C267.2 8 265.857 9.34315 265.857 11V21C265.857 22.6569 267.2 24 268.856 24H317.833C319.489 24 320.832 22.6569 320.832 21V11C320.832 9.34315 319.489 8 317.833 8Z" fill="#D4A853"/>
<path d="M73.7852 19V12.6367H77.6172V13.3398H74.5762V15.4668H77.3271V16.1611H74.5762V19H73.7852ZM78.6982 19V14.2275H79.4541V19H78.6982ZM79.0762 13.4365C78.7861 13.4365 78.5488 13.2168 78.5488 12.9355C78.5488 12.6543 78.7861 12.4346 79.0762 12.4346C79.3662 12.4346 79.6123 12.6543 79.6123 12.9355C79.6123 13.2168 79.3662 13.4365 79.0762 13.4365ZM81.4141 12.6367V19H80.6582V12.6367H81.4141ZM84.6221 19.0967C83.2422 19.0967 82.3896 18.1211 82.3896 16.6533C82.3896 15.1855 83.251 14.166 84.5518 14.166C85.5537 14.166 86.6084 14.7812 86.6084 16.5479V16.8643H83.1455C83.1807 17.875 83.7695 18.4287 84.6221 18.4287C85.1934 18.4287 85.5537 18.1826 85.7295 17.8838H86.5381C86.3096 18.6045 85.6064 19.0967 84.6221 19.0967ZM83.1543 16.2227H85.8438C85.8438 15.4229 85.334 14.834 84.5518 14.834C83.7256 14.834 83.1982 15.4844 83.1543 16.2227Z" fill="#888888"/>
<path d="M119.649 19V12.6367H123.508V13.3398H120.44V15.4668H123.306V16.1611H120.44V18.2969H123.552V19H119.649ZM126.461 19.0967C125.274 19.0967 124.431 18.1387 124.431 16.627C124.431 15.1152 125.274 14.166 126.47 14.166C127.393 14.166 127.691 14.7285 127.85 14.9834H127.902V12.6367H128.667V19H127.929V18.2705H127.85C127.683 18.5342 127.375 19.0967 126.461 19.0967ZM126.566 18.4199C127.437 18.4199 127.929 17.6816 127.929 16.6094C127.929 15.5547 127.454 14.8428 126.566 14.8428C125.652 14.8428 125.195 15.6162 125.195 16.6094C125.195 17.6289 125.661 18.4199 126.566 18.4199ZM129.977 19V14.2275H130.732V19H129.977ZM130.354 13.4365C130.064 13.4365 129.827 13.2168 129.827 12.9355C129.827 12.6543 130.064 12.4346 130.354 12.4346C130.645 12.4346 130.891 12.6543 130.891 12.9355C130.891 13.2168 130.645 13.4365 130.354 13.4365ZM134.02 14.2275V14.8604H133.018V17.6289C133.018 18.2441 133.316 18.3408 133.642 18.3408C133.782 18.3408 133.976 18.332 134.09 18.3232V19.0264C133.976 19.0439 133.782 19.0615 133.562 19.0615C132.93 19.0615 132.253 18.666 132.253 17.8223V14.8604H131.532V14.2275H132.253V13.085H133.018V14.2275H134.02Z" fill="#888888"/>
<path d="M165.803 12.6367L167.675 17.9717H167.745L169.626 12.6367H170.461L168.132 19H167.297L164.968 12.6367H165.803ZM171.226 19V14.2275H171.981V19H171.226ZM171.604 13.4365C171.313 13.4365 171.076 13.2168 171.076 12.9355C171.076 12.6543 171.313 12.4346 171.604 12.4346C171.894 12.4346 172.14 12.6543 172.14 12.9355C172.14 13.2168 171.894 13.4365 171.604 13.4365ZM175.189 19.0967C173.81 19.0967 172.957 18.1211 172.957 16.6533C172.957 15.1855 173.818 14.166 175.119 14.166C176.121 14.166 177.176 14.7812 177.176 16.5479V16.8643H173.713C173.748 17.875 174.337 18.4287 175.189 18.4287C175.761 18.4287 176.121 18.1826 176.297 17.8838H177.105C176.877 18.6045 176.174 19.0967 175.189 19.0967ZM173.722 16.2227H176.411C176.411 15.4229 175.901 14.834 175.119 14.834C174.293 14.834 173.766 15.4844 173.722 16.2227ZM179.232 19L177.782 14.2275H178.582L179.602 17.8662H179.646L180.656 14.2275H181.465L182.458 17.8486H182.511L183.53 14.2275H184.321L182.871 19H182.124L181.087 15.3613H181.017L179.988 19H179.232Z" fill="#888888"/>
<path d="M284.58 14.4561C284.527 13.9551 284.123 13.6562 283.481 13.6562C282.813 13.6562 282.444 13.9639 282.436 14.3857C282.427 14.8428 282.91 15.0537 283.455 15.1768L284.026 15.3174C285.116 15.5635 285.934 16.1172 285.934 17.1807C285.934 18.3496 285.02 19.0879 283.473 19.0879C281.935 19.0879 280.95 18.376 280.915 17.0137H282.198C282.242 17.6553 282.752 17.9805 283.455 17.9805C284.149 17.9805 284.598 17.6553 284.598 17.1807C284.598 16.75 284.202 16.5479 283.508 16.3721L282.813 16.2051C281.741 15.9414 281.082 15.4053 281.082 14.4736C281.082 13.3135 282.102 12.5488 283.49 12.5488C284.896 12.5488 285.828 13.3311 285.846 14.4561H284.58ZM288.069 16.2402V19H286.769V12.6367H288.034V15.0625H288.087C288.307 14.5088 288.79 14.166 289.511 14.166C290.504 14.166 291.163 14.834 291.163 15.959V19H289.862V16.1875C289.862 15.5986 289.546 15.2471 289.001 15.2471C288.456 15.2471 288.069 15.6074 288.069 16.2402ZM291.937 17.6641C291.937 16.6006 292.798 16.249 293.712 16.1963C294.055 16.1743 294.696 16.1436 294.898 16.1348V15.748C294.89 15.3525 294.617 15.1152 294.134 15.1152C293.694 15.1152 293.413 15.3174 293.343 15.6426H292.104C292.183 14.8164 292.903 14.166 294.169 14.166C295.206 14.166 296.19 14.6318 296.19 15.7832V19H294.96V18.3408H294.925C294.687 18.7803 294.239 19.0879 293.527 19.0879C292.613 19.0879 291.937 18.6133 291.937 17.6641ZM293.185 17.6289C293.185 17.998 293.483 18.1914 293.896 18.1914C294.485 18.1914 294.907 17.7959 294.898 17.2949V16.9434C294.701 16.9521 294.147 16.9829 293.923 17.0049C293.475 17.0488 293.185 17.2598 293.185 17.6289ZM297.184 19V14.2275H298.44V15.0537H298.493C298.669 14.4648 299.108 14.1572 299.645 14.1572C299.776 14.1572 299.943 14.1748 300.058 14.2012V15.3613C299.935 15.3262 299.688 15.291 299.504 15.291C298.915 15.291 298.484 15.7041 298.484 16.2842V19H297.184ZM302.703 19.0967C301.244 19.0967 300.348 18.1475 300.348 16.6357C300.348 15.1592 301.253 14.166 302.65 14.166C303.907 14.166 304.892 14.957 304.892 16.583V16.9521H301.631C301.631 17.6729 302.062 18.1211 302.729 18.1211C303.169 18.1211 303.485 17.9277 303.617 17.6377H304.856C304.672 18.5166 303.881 19.0967 302.703 19.0967ZM301.631 16.1348H303.661C303.661 15.5547 303.257 15.1416 302.677 15.1416C302.079 15.1416 301.653 15.5854 301.631 16.1348Z" fill="#1A1C1E"/>
<path d="M287.044 33H61.1504V237H287.044V33Z" fill="#2A2C32"/>
<path opacity="0.85" d="M160.098 62H92.13C88.8178 62 86.1328 64.6863 86.1328 68V84C86.1328 87.3137 88.8178 90 92.13 90H160.098C163.41 90 166.095 87.3137 166.095 84V68C166.095 64.6863 163.41 62 160.098 62Z" fill="#D4A853"/>
<path opacity="0.4" d="M160.098 62H92.13C88.8178 62 86.1328 64.6863 86.1328 68V84C86.1328 87.3137 88.8178 90 92.13 90H160.098C163.41 90 166.095 87.3137 166.095 84V68C166.095 64.6863 163.41 62 160.098 62Z" stroke="#D4A853"/>
<path d="M110.809 80V72.9297H113.621C115.184 72.9297 115.965 73.6816 115.965 74.7461C115.965 75.5762 115.428 76.0938 114.696 76.2598V76.3281C115.496 76.3672 116.248 77.002 116.248 78.0469C116.248 79.1699 115.409 80 113.807 80H110.809ZM113.514 78.7891C114.364 78.7891 114.725 78.4375 114.725 77.9102C114.725 77.3145 114.276 76.8945 113.553 76.8945H112.274V78.7891H113.514ZM113.407 75.8887C114.022 75.8887 114.481 75.5469 114.481 74.9805C114.481 74.4727 114.11 74.1211 113.436 74.1211H112.274V75.8887H113.407ZM120.545 77.7441V74.6973H121.991V80H120.604V79.043H120.545C120.301 79.6582 119.735 80.0684 118.934 80.0684C117.869 80.0684 117.147 79.3164 117.147 78.0762V74.6973H118.592V77.8223C118.592 78.4473 118.953 78.8477 119.52 78.8477C120.047 78.8477 120.545 78.4668 120.545 77.7441ZM125.907 74.6973V75.7812H124.91V78.3691C124.91 78.7891 125.116 78.8965 125.409 78.9062C125.555 78.9062 125.809 78.8965 125.985 78.877V80.0195C125.828 80.0488 125.575 80.0684 125.213 80.0684C124.168 80.0684 123.455 79.5996 123.465 78.5742V75.7812H122.733V74.6973H123.465V73.4277H124.91V74.6973H125.907ZM129.608 74.6973V75.7812H128.612V78.3691C128.612 78.7891 128.817 78.8965 129.11 78.9062C129.256 78.9062 129.51 78.8965 129.686 78.877V80.0195C129.53 80.0488 129.276 80.0684 128.914 80.0684C127.869 80.0684 127.157 79.5996 127.166 78.5742V75.7812H126.434V74.6973H127.166V73.4277H128.612V74.6973H129.608ZM132.84 80.1074C131.239 80.1074 130.242 79.0039 130.242 77.3633C130.242 75.7227 131.239 74.6289 132.84 74.6289C134.442 74.6289 135.448 75.7227 135.448 77.3633C135.448 79.0039 134.442 80.1074 132.84 80.1074ZM132.85 78.9844C133.592 78.9844 133.973 78.291 133.973 77.3633C133.973 76.4258 133.592 75.7324 132.85 75.7324C132.098 75.7324 131.707 76.4258 131.707 77.3633C131.707 78.291 132.098 78.9844 132.85 78.9844ZM137.801 76.9336V80H136.356V74.6973H137.733V75.625H137.791C138.035 75.0098 138.602 74.6289 139.383 74.6289C140.487 74.6289 141.219 75.3809 141.209 76.6211V80H139.774V76.875C139.774 76.2207 139.412 75.8301 138.817 75.8301C138.211 75.8301 137.801 76.2305 137.801 76.9336Z" fill="#1A1C1E"/>
<path d="M83.8955 76H85.8946" stroke="#5FAFFF" stroke-width="1.5"/>
<path d="M165.928 76H167.927" stroke="#5FAFFF" stroke-width="1.5"/>
<path d="M242.837 107H88.9093C84.4931 107 80.9131 110.582 80.9131 115V179C80.9131 183.418 84.4931 187 88.9093 187H242.837C247.253 187 250.833 183.418 250.833 179V115C250.833 110.582 247.253 107 242.837 107Z" fill="#32343C" stroke="#4A4C54"/>
<path d="M145.091 115H93.1153C90.9072 115 89.1172 116.791 89.1172 119V149C89.1172 151.209 90.9072 153 93.1153 153H145.091C147.299 153 149.089 151.209 149.089 149V119C149.089 116.791 147.299 115 145.091 115Z" fill="#3E4048"/>
<path d="M156.979 122H238.941" stroke="#5A5C64" stroke-width="1.2"/>
<path d="M156.979 130H225.947" stroke="#5A5C64" stroke-width="1.2"/>
<path d="M156.979 138H233.943" stroke="#5A5C64" stroke-width="1.2"/>
<path opacity="0.6" d="M230.051 160H98.113C93.1447 160 89.1172 164.029 89.1172 169C89.1172 173.971 93.1447 178 98.113 178H230.051C235.019 178 239.047 173.971 239.047 169C239.047 164.029 235.019 160 230.051 160Z" fill="#D4A853"/>
<path d="M156.279 165.609V172.734H155.279V168.898H154.005V168.086H155.279V165.609H156.279ZM152.958 167.391C152.958 168.641 153.529 169.945 154.732 170.461L154.146 171.25C153.322 170.863 152.763 170.117 152.458 169.211C152.15 170.18 151.583 170.988 150.755 171.398L150.161 170.609C151.357 170.062 151.935 168.711 151.935 167.391V167.094H150.458V166.297H154.435V167.094H152.958V167.391ZM161.224 166.086V166.883H159.81C159.818 167.711 160.314 168.512 161.45 168.844L160.974 169.625C160.189 169.387 159.646 168.91 159.333 168.297C159.017 169.016 158.439 169.586 157.583 169.867L157.075 169.078C158.255 168.707 158.786 167.785 158.802 166.883H157.349V166.086H161.224ZM162.825 165.609V167.258H163.786V168.07H162.825V169.828H161.825V165.609H162.825ZM160.497 169.969C161.974 169.961 162.896 170.469 162.896 171.336C162.896 172.203 161.974 172.719 160.497 172.719C158.99 172.719 158.06 172.203 158.06 171.336C158.06 170.469 158.99 169.961 160.497 169.969ZM160.497 170.742C159.56 170.742 159.052 170.938 159.06 171.336C159.052 171.742 159.56 171.945 160.497 171.945C161.419 171.945 161.911 171.742 161.911 171.336C161.911 170.938 161.419 170.742 160.497 170.742ZM169.708 165.609V168.391H170.755V169.211H169.708V172.719H168.724V165.609H169.708ZM168.24 166.672V167.469H164.06V166.672H165.669V165.719H166.669V166.672H168.24ZM166.169 167.867C167.208 167.867 167.982 168.57 167.982 169.562C167.982 170.555 167.208 171.258 166.169 171.258C165.122 171.258 164.349 170.555 164.349 169.562C164.349 168.57 165.122 167.867 166.169 167.867ZM166.169 168.672C165.669 168.68 165.302 169.016 165.302 169.562C165.302 170.117 165.669 170.445 166.169 170.438C166.669 170.445 167.029 170.117 167.029 169.562C167.029 169.016 166.669 168.68 166.169 168.672ZM176.99 165.609V172.719H175.982V165.609H176.99ZM174.857 166.352C174.857 168.508 174.099 170.297 171.56 171.5L171.036 170.703C172.872 169.836 173.681 168.711 173.841 167.133H171.419V166.352H174.857Z" fill="#1A1C1E"/>
<path opacity="0.6" d="M245.97 105H88.0446C83.0764 105 79.0488 109.029 79.0488 114V180C79.0488 184.971 83.0764 189 88.0446 189H245.97C250.939 189 254.966 184.971 254.966 180V114C254.966 109.029 250.939 105 245.97 105Z" stroke="#5FAFFF" stroke-dasharray="3 2"/>
<path opacity="0.8" d="M79.064 108C80.7201 108 82.0626 106.657 82.0626 105C82.0626 103.343 80.7201 102 79.064 102C77.4079 102 76.0654 103.343 76.0654 105C76.0654 106.657 77.4079 108 79.064 108Z" fill="#5FAFFF"/>
<path opacity="0.8" d="M255.059 108C256.715 108 258.058 106.657 258.058 105C258.058 103.343 256.715 102 255.059 102C253.403 102 252.061 103.343 252.061 105C252.061 106.657 253.403 108 255.059 108Z" fill="#5FAFFF"/>
<path opacity="0.8" d="M79.064 192C80.7201 192 82.0626 190.657 82.0626 189C82.0626 187.343 80.7201 186 79.064 186C77.4079 186 76.0654 187.343 76.0654 189C76.0654 190.657 77.4079 192 79.064 192Z" fill="#5FAFFF"/>
<path opacity="0.8" d="M255.059 192C256.715 192 258.058 190.657 258.058 189C258.058 187.343 256.715 186 255.059 186C253.403 186 252.061 187.343 252.061 189C252.061 190.657 253.403 192 255.059 192Z" fill="#5FAFFF"/>
<path opacity="0.9" d="M103.783 92H81.793C80.689 92 79.7939 92.8954 79.7939 94V102C79.7939 103.105 80.689 104 81.793 104H103.783C104.887 104 105.782 103.105 105.782 102V94C105.782 92.8954 104.887 92 103.783 92Z" fill="#5FAFFF"/>
<path d="M89.4896 101H88.224L90.1849 95.3438H91.6927L93.6459 101H92.388L91.9662 99.6953H89.9193L89.4896 101ZM90.2162 98.7812H91.6693L90.9584 96.6172H90.9193L90.2162 98.7812ZM94.2865 101V95.3438H95.4584V100.031H97.8959V101H94.2865Z" fill="white"/>
<path d="M381.694 33H286.738V237H381.694V33Z" fill="#1A1C20"/>
<path d="M286.738 33V237" stroke="#3A3C42"/>
<path d="M295.926 50H295.1L297.429 43.6367H298.264L300.593 50H299.758L299.125 48.207H296.567L295.926 50ZM296.805 47.5127H298.879L297.868 44.665H297.815L296.805 47.5127ZM304.372 48.04V45.2275H305.119V50H304.372V49.1914H304.319C304.091 49.6748 303.625 50.0615 302.904 50.0615C301.999 50.0615 301.357 49.4727 301.357 48.2598V45.2275H302.113V48.207C302.113 48.8926 302.544 49.332 303.15 49.332C303.687 49.332 304.372 48.9277 304.372 48.04ZM308.415 45.2275V45.8604H307.413V48.6289C307.413 49.2441 307.712 49.3408 308.037 49.3408C308.178 49.3408 308.371 49.332 308.485 49.3232V50.0264C308.371 50.0439 308.178 50.0615 307.958 50.0615C307.325 50.0615 306.648 49.666 306.648 48.8223V45.8604H305.928V45.2275H306.648V44.085H307.413V45.2275H308.415ZM311.289 50.0967C309.988 50.0967 309.109 49.1211 309.109 47.6357C309.109 46.1504 309.988 45.166 311.289 45.166C312.581 45.166 313.451 46.1504 313.451 47.6357C313.451 49.1211 312.581 50.0967 311.289 50.0967ZM311.289 49.4287C312.247 49.4287 312.695 48.585 312.695 47.6357C312.695 46.6865 312.247 45.834 311.289 45.834C310.313 45.834 309.865 46.6865 309.865 47.6357C309.865 48.585 310.313 49.4287 311.289 49.4287ZM316.8 50V43.6367H317.591V49.2969H320.544V50H316.8ZM321.273 48.6465C321.273 47.5479 322.24 47.3018 323.066 47.2402C323.37 47.2183 324.143 47.1787 324.358 47.1699V46.7832C324.358 46.1768 323.998 45.8252 323.277 45.8252C322.671 45.8252 322.311 46.1064 322.205 46.4668H321.414C321.511 45.7021 322.258 45.166 323.312 45.166C323.937 45.166 325.105 45.3506 325.105 46.8535V50H324.358V49.3496H324.323C324.165 49.6748 323.726 50.1143 322.899 50.1143C321.994 50.1143 321.273 49.5781 321.273 48.6465ZM322.029 48.6816C322.029 49.1826 322.451 49.4375 323.031 49.4375C323.884 49.4375 324.358 48.8662 324.358 48.2686V47.7852L323.154 47.873C322.469 47.917 322.029 48.1631 322.029 48.6816ZM326.626 51.793C326.459 51.793 326.301 51.7842 326.204 51.7754V51.0986C326.283 51.1074 326.459 51.1162 326.573 51.1162C326.881 51.1162 327.136 51.0898 327.391 50.3955L327.531 50.0352L325.765 45.2275H326.591L327.892 49.0156H327.944L329.245 45.2275H330.071L328.05 50.6855C327.769 51.4326 327.303 51.793 326.626 51.793ZM332.682 50.0967C331.381 50.0967 330.502 49.1211 330.502 47.6357C330.502 46.1504 331.381 45.166 332.682 45.166C333.974 45.166 334.844 46.1504 334.844 47.6357C334.844 49.1211 333.974 50.0967 332.682 50.0967ZM332.682 49.4287C333.64 49.4287 334.088 48.585 334.088 47.6357C334.088 46.6865 333.64 45.834 332.682 45.834C331.706 45.834 331.258 46.6865 331.258 47.6357C331.258 48.585 331.706 49.4287 332.682 49.4287ZM338.852 48.04V45.2275H339.599V50H338.852V49.1914H338.799C338.57 49.6748 338.104 50.0615 337.384 50.0615C336.479 50.0615 335.837 49.4727 335.837 48.2598V45.2275H336.593V48.207C336.593 48.8926 337.023 49.332 337.63 49.332C338.166 49.332 338.852 48.9277 338.852 48.04ZM342.895 45.2275V45.8604H341.893V48.6289C341.893 49.2441 342.191 49.3408 342.517 49.3408C342.657 49.3408 342.851 49.332 342.965 49.3232V50.0264C342.851 50.0439 342.657 50.0615 342.438 50.0615C341.805 50.0615 341.128 49.666 341.128 48.8223V45.8604H340.407V45.2275H341.128V44.085H341.893V45.2275H342.895Z" fill="#888888"/>
<path d="M294.941 55H372.905" stroke="#3A3C42" stroke-width="0.5"/>
<path d="M308.935 60H296.94C295.836 60 294.941 60.8954 294.941 62V74C294.941 75.1046 295.836 76 296.94 76H308.935C310.039 76 310.934 75.1046 310.934 74V62C310.934 60.8954 310.039 60 308.935 60Z" fill="#3A3C42"/>
<path opacity="0.7" d="M328.698 60H316.703C315.599 60 314.704 60.8954 314.704 62V74C314.704 75.1046 315.599 76 316.703 76H328.698C329.802 76 330.697 75.1046 330.697 74V62C330.697 60.8954 329.802 60 328.698 60Z" fill="#5FAFFF"/>
<path d="M299.426 86.1094C299.184 85.3828 298.629 84.9219 297.824 84.9219C296.824 84.9219 296.027 85.7109 296.027 87.1719C296.027 88.6328 296.824 89.4219 297.871 89.4219C298.828 89.4219 299.48 88.7812 299.496 87.7812H298.02V87.1641H300.184V87.7734C300.184 89.1797 299.215 90.0781 297.871 90.0781C296.363 90.0781 295.348 88.9609 295.348 87.1719C295.348 85.3828 296.371 84.2656 297.824 84.2656C299.02 84.2656 299.941 85.0156 300.152 86.1094H299.426ZM300.949 88.7969C300.949 87.8203 301.809 87.6016 302.543 87.5469C302.812 87.5273 303.5 87.4922 303.691 87.4844V87.1406C303.691 86.6016 303.371 86.2891 302.73 86.2891C302.191 86.2891 301.871 86.5391 301.777 86.8594H301.074C301.16 86.1797 301.824 85.7031 302.762 85.7031C303.316 85.7031 304.355 85.8672 304.355 87.2031V90H303.691V89.4219H303.66C303.52 89.7109 303.129 90.1016 302.395 90.1016C301.59 90.1016 300.949 89.625 300.949 88.7969ZM301.621 88.8281C301.621 89.2734 301.996 89.5 302.512 89.5C303.27 89.5 303.691 88.9922 303.691 88.4609V88.0312L302.621 88.1094C302.012 88.1484 301.621 88.3672 301.621 88.8281ZM305.434 91.5938V85.7578H306.082V86.4297H306.16C306.301 86.2031 306.566 85.7031 307.387 85.7031C308.449 85.7031 309.191 86.5469 309.191 87.8906C309.191 89.2344 308.449 90.0859 307.395 90.0859C306.582 90.0859 306.301 89.5859 306.16 89.3516H306.105V91.5938H305.434ZM306.09 87.875C306.09 88.8281 306.52 89.4844 307.301 89.4844C308.105 89.4844 308.52 88.7812 308.52 87.875C308.52 86.9922 308.113 86.3047 307.301 86.3047C306.504 86.3047 306.09 86.9375 306.09 87.875Z" fill="#888888"/>
<path d="M348.688 80H316.703C315.599 80 314.704 80.8954 314.704 82V92C314.704 93.1046 315.599 94 316.703 94H348.688C349.792 94 350.687 93.1046 350.687 92V82C350.687 80.8954 349.792 80 348.688 80Z" fill="#3A3C42"/>
<path d="M330.866 83.6367V90H330.066V84.4629H330.031L328.484 85.4912V84.6914L330.066 83.6367H330.866ZM334.777 90.0879C333.67 90.0703 332.457 89.4199 332.457 87.0645C332.457 84.8145 333.38 83.5488 334.874 83.5488C335.99 83.5488 336.773 84.2344 336.94 85.2363H336.157C336.008 84.6738 335.586 84.252 334.874 84.252C333.828 84.252 333.204 85.1484 333.204 86.6777H333.283C333.652 86.1504 334.233 85.834 334.918 85.834C336.052 85.834 336.992 86.7129 336.992 87.9434C336.992 89.1387 336.113 90.0967 334.777 90.0879ZM334.777 89.3936C335.604 89.3936 336.219 88.7432 336.228 87.9521C336.219 87.1699 335.63 86.5283 334.795 86.5283C333.96 86.5283 333.318 87.2051 333.31 87.9609C333.31 88.708 333.925 89.3936 334.777 89.3936Z" fill="#CCCCCC"/>
<path d="M295.566 110V104.344H297.488C298.816 104.344 299.418 105.133 299.418 106.141C299.418 107.141 298.816 107.945 297.496 107.945H296.27V110H295.566ZM296.27 107.32H297.465C298.363 107.32 298.723 106.812 298.723 106.141C298.723 105.461 298.363 104.969 297.457 104.969H296.27V107.32ZM300.105 108.797C300.105 107.82 300.965 107.602 301.699 107.547C301.969 107.527 302.656 107.492 302.848 107.484V107.141C302.848 106.602 302.527 106.289 301.887 106.289C301.348 106.289 301.027 106.539 300.934 106.859H300.23C300.316 106.18 300.98 105.703 301.918 105.703C302.473 105.703 303.512 105.867 303.512 107.203V110H302.848V109.422H302.816C302.676 109.711 302.285 110.102 301.551 110.102C300.746 110.102 300.105 109.625 300.105 108.797ZM300.777 108.828C300.777 109.273 301.152 109.5 301.668 109.5C302.426 109.5 302.848 108.992 302.848 108.461V108.031L301.777 108.109C301.168 108.148 300.777 108.367 300.777 108.828ZM306.191 110.086C305.137 110.086 304.387 109.234 304.387 107.891C304.387 106.547 305.137 105.703 306.199 105.703C307.02 105.703 307.285 106.203 307.426 106.43H307.473V104.344H308.152V110H307.496V109.352H307.426C307.277 109.586 307.004 110.086 306.191 110.086ZM306.285 109.484C307.059 109.484 307.496 108.828 307.496 107.875C307.496 106.938 307.074 106.305 306.285 106.305C305.473 106.305 305.066 106.992 305.066 107.875C305.066 108.781 305.48 109.484 306.285 109.484ZM310.918 110.086C309.863 110.086 309.113 109.234 309.113 107.891C309.113 106.547 309.863 105.703 310.926 105.703C311.746 105.703 312.012 106.203 312.152 106.43H312.199V104.344H312.879V110H312.223V109.352H312.152C312.004 109.586 311.73 110.086 310.918 110.086ZM311.012 109.484C311.785 109.484 312.223 108.828 312.223 107.875C312.223 106.938 311.801 106.305 311.012 106.305C310.199 106.305 309.793 106.992 309.793 107.875C309.793 108.781 310.207 109.484 311.012 109.484ZM314.043 110V105.758H314.715V110H314.043ZM314.379 105.055C314.121 105.055 313.91 104.859 313.91 104.609C313.91 104.359 314.121 104.164 314.379 104.164C314.637 104.164 314.855 104.359 314.855 104.609C314.855 104.859 314.637 105.055 314.379 105.055ZM316.457 107.453V110H315.785V105.758H316.434V106.422H316.488C316.691 105.992 317.082 105.703 317.73 105.703C318.59 105.703 319.16 106.227 319.16 107.305V110H318.488V107.352C318.488 106.695 318.129 106.305 317.527 106.305C316.91 106.305 316.457 106.719 316.457 107.453ZM321.957 111.68C320.934 111.68 320.238 111.234 320.16 110.445H320.863C320.957 110.875 321.355 111.094 321.957 111.094C322.684 111.094 323.129 110.781 323.129 110.078V109.219H323.074C322.934 109.453 322.66 109.938 321.84 109.938C320.809 109.938 320.035 109.156 320.035 107.82C320.035 106.516 320.785 105.703 321.848 105.703C322.668 105.703 322.934 106.203 323.09 106.43H323.145V105.758H323.801V110.117C323.801 111.211 322.988 111.68 321.957 111.68ZM321.934 109.336C322.707 109.336 323.145 108.781 323.145 107.844C323.145 106.938 322.723 106.305 321.934 106.305C321.121 106.305 320.715 106.992 320.715 107.844C320.715 108.727 321.129 109.336 321.934 109.336Z" fill="#888888"/>
<path d="M328.925 114H296.94C295.836 114 294.941 114.895 294.941 116V126C294.941 127.105 295.836 128 296.94 128H328.925C330.029 128 330.924 127.105 330.924 126V116C330.924 114.895 330.029 114 328.925 114Z" fill="#3A3C42"/>
<path d="M311.223 117.637V124H310.423V118.463H310.388L308.841 119.491V118.691L310.423 117.637H311.223ZM312.92 124L312.911 123.42L315.082 121.135C315.837 120.335 316.198 119.904 316.198 119.315C316.198 118.665 315.644 118.234 314.932 118.234C314.176 118.234 313.693 118.718 313.693 119.43H312.946C312.937 118.305 313.807 117.549 314.959 117.549C316.11 117.549 316.936 118.322 316.936 119.315C316.936 120.027 316.602 120.581 315.477 121.741L314.018 123.244V123.297H317.05V124H312.92Z" fill="#CCCCCC"/>
<path d="M368.823 114H336.838C335.734 114 334.839 114.895 334.839 116V126C334.839 127.105 335.734 128 336.838 128H368.823C369.927 128 370.822 127.105 370.822 126V116C370.822 114.895 369.927 114 368.823 114Z" fill="#3A3C42"/>
<path d="M348.233 124L348.224 123.42L350.395 121.135C351.151 120.335 351.511 119.904 351.511 119.315C351.511 118.665 350.957 118.234 350.245 118.234C349.49 118.234 349.006 118.718 349.006 119.43H348.259C348.25 118.305 349.12 117.549 350.272 117.549C351.423 117.549 352.249 118.322 352.249 119.315C352.249 120.027 351.915 120.581 350.79 121.741L349.331 123.244V123.297H352.364V124H348.233ZM353.216 122.699V122.049L356.081 117.637H357.057V122.005H357.945V122.699H357.057V124H356.301V122.699H353.216ZM354.069 122.005H356.301V118.639H356.222L354.069 121.952V122.005Z" fill="#CCCCCC"/>
<path d="M295.566 144V138.344H297.488C298.816 138.344 299.418 139.078 299.418 140.086C299.418 140.832 299.082 141.422 298.363 141.672L299.637 144H298.816L297.637 141.797L297.496 141.805H296.27V144H295.566ZM296.27 141.164H297.465C298.363 141.164 298.723 140.758 298.723 140.086C298.723 139.406 298.363 138.969 297.457 138.969H296.27V141.164ZM302.082 144.086C300.855 144.086 300.098 143.219 300.098 141.914C300.098 140.609 300.863 139.703 302.02 139.703C302.91 139.703 303.848 140.25 303.848 141.82V142.102H300.77C300.801 143 301.324 143.492 302.082 143.492C302.59 143.492 302.91 143.273 303.066 143.008H303.785C303.582 143.648 302.957 144.086 302.082 144.086ZM300.777 141.531H303.168C303.168 140.82 302.715 140.297 302.02 140.297C301.285 140.297 300.816 140.875 300.777 141.531ZM307.082 140.859C306.988 140.508 306.723 140.273 306.223 140.273C305.699 140.273 305.324 140.555 305.324 140.914C305.324 141.195 305.551 141.391 306.051 141.508L306.684 141.664C307.441 141.844 307.816 142.219 307.816 142.812C307.816 143.547 307.215 144.086 306.152 144.086C305.199 144.086 304.629 143.664 304.52 142.891H305.223C305.301 143.305 305.605 143.5 306.137 143.5C306.738 143.5 307.121 143.25 307.121 142.852C307.121 142.555 306.91 142.352 306.426 142.242L305.785 142.094C305.043 141.922 304.652 141.516 304.652 140.953C304.652 140.227 305.285 139.703 306.223 139.703C307.098 139.703 307.652 140.172 307.738 140.859H307.082ZM308.691 144V139.758H309.363V144H308.691ZM309.027 139.055C308.77 139.055 308.559 138.859 308.559 138.609C308.559 138.359 308.77 138.164 309.027 138.164C309.285 138.164 309.504 138.359 309.504 138.609C309.504 138.859 309.285 139.055 309.027 139.055ZM310.309 144V143.492L312.699 140.422V140.375H310.387V139.758H313.566V140.289L311.246 143.336V143.383H313.645V144H310.309ZM314.535 144V139.758H315.207V144H314.535ZM314.871 139.055C314.613 139.055 314.402 138.859 314.402 138.609C314.402 138.359 314.613 138.164 314.871 138.164C315.129 138.164 315.348 138.359 315.348 138.609C315.348 138.859 315.129 139.055 314.871 139.055ZM316.949 141.453V144H316.277V139.758H316.926V140.422H316.98C317.184 139.992 317.574 139.703 318.223 139.703C319.082 139.703 319.652 140.227 319.652 141.305V144H318.98V141.352C318.98 140.695 318.621 140.305 318.02 140.305C317.402 140.305 316.949 140.719 316.949 141.453ZM322.449 145.68C321.426 145.68 320.73 145.234 320.652 144.445H321.355C321.449 144.875 321.848 145.094 322.449 145.094C323.176 145.094 323.621 144.781 323.621 144.078V143.219H323.566C323.426 143.453 323.152 143.938 322.332 143.938C321.301 143.938 320.527 143.156 320.527 141.82C320.527 140.516 321.277 139.703 322.34 139.703C323.16 139.703 323.426 140.203 323.582 140.43H323.637V139.758H324.293V144.117C324.293 145.211 323.48 145.68 322.449 145.68ZM322.426 143.336C323.199 143.336 323.637 142.781 323.637 141.844C323.637 140.938 323.215 140.305 322.426 140.305C321.613 140.305 321.207 140.992 321.207 141.844C321.207 142.727 321.621 143.336 322.426 143.336Z" fill="#888888"/>
<path d="M367.907 148H296.94C295.836 148 294.941 148.895 294.941 150V160C294.941 161.105 295.836 162 296.94 162H367.907C369.011 162 369.906 161.105 369.906 160V150C369.906 148.895 369.011 148 367.907 148Z" fill="#3A3C42"/>
<path d="M318.874 158V151.637H319.665V154.467H323.032V151.637H323.831V158H323.032V155.161H319.665V158H318.874ZM328.147 156.04V153.228H328.894V158H328.147V157.191H328.094C327.865 157.675 327.4 158.062 326.679 158.062C325.774 158.062 325.132 157.473 325.132 156.26V153.228H325.888V156.207C325.888 156.893 326.319 157.332 326.925 157.332C327.461 157.332 328.147 156.928 328.147 156.04ZM332.04 159.89C330.889 159.89 330.107 159.389 330.019 158.501H330.81C330.915 158.984 331.364 159.23 332.04 159.23C332.858 159.23 333.359 158.879 333.359 158.088V157.121H333.297C333.139 157.385 332.831 157.93 331.908 157.93C330.748 157.93 329.878 157.051 329.878 155.548C329.878 154.08 330.722 153.166 331.917 153.166C332.84 153.166 333.139 153.729 333.315 153.983H333.376V153.228H334.115V158.132C334.115 159.362 333.2 159.89 332.04 159.89ZM332.014 157.253C332.884 157.253 333.376 156.629 333.376 155.574C333.376 154.555 332.902 153.843 332.014 153.843C331.1 153.843 330.643 154.616 330.643 155.574C330.643 156.567 331.109 157.253 332.014 157.253ZM341.084 159.907L338.298 157.121L338.782 156.629L340.741 158.58V151.962L338.782 153.922L338.298 153.438L341.084 150.644L343.879 153.438L343.396 153.922L341.436 151.962V158.58L343.396 156.629L343.879 157.121L341.084 159.907Z" fill="#D4A853"/>
<path d="M304.937 172H296.94C295.836 172 294.941 172.895 294.941 174V182C294.941 183.105 295.836 184 296.94 184H304.937C306.041 184 306.936 183.105 306.936 182V174C306.936 172.895 306.041 172 304.937 172Z" fill="#D4A853"/>
<path d="M366.949 172H312.975C311.871 172 310.976 172.895 310.976 174V182C310.976 183.105 311.871 184 312.975 184H366.949C368.053 184 368.948 183.105 368.948 182V174C368.948 172.895 368.053 172 366.949 172Z" fill="#3A3C42"/>
<path d="M325.591 181H323.613V174.637H325.67C327.524 174.637 328.623 175.832 328.623 177.81C328.623 179.796 327.524 181 325.591 181ZM324.404 180.297H325.538C327.102 180.297 327.849 179.356 327.849 177.81C327.849 176.271 327.102 175.34 325.617 175.34H324.404V180.297ZM329.519 179.699V179.049L332.385 174.637H333.36V179.005H334.248V179.699H333.36V181H332.604V179.699H329.519ZM330.372 179.005H332.604V175.639H332.525L330.372 178.952V179.005ZM335.68 181H334.854L337.183 174.637H338.018L340.347 181H339.513L338.88 179.207H336.322L335.68 181ZM336.559 178.513H338.634L337.623 175.665H337.57L336.559 178.513ZM343.23 181.088C341.894 181.088 340.963 180.35 340.972 179.312C340.963 178.486 341.534 177.81 342.264 177.695V177.66C341.631 177.511 341.218 176.931 341.218 176.236C341.218 175.261 342.07 174.549 343.23 174.549C344.39 174.549 345.243 175.261 345.252 176.236C345.243 176.931 344.821 177.511 344.197 177.66V177.695C344.918 177.81 345.489 178.486 345.498 179.312C345.489 180.35 344.557 181.088 343.23 181.088ZM343.23 180.394C344.144 180.394 344.707 179.937 344.707 179.269C344.707 178.565 344.083 178.047 343.23 178.047C342.378 178.047 341.745 178.565 341.763 179.269C341.745 179.937 342.316 180.394 343.23 180.394ZM343.23 177.379C343.951 177.379 344.478 176.939 344.478 176.298C344.478 175.665 343.977 175.234 343.23 175.234C342.474 175.234 341.982 175.665 341.982 176.298C341.982 176.939 342.501 177.379 343.23 177.379ZM348.636 181.088C347.484 181.088 346.614 180.376 346.57 179.4H347.335C347.396 179.972 347.95 180.394 348.636 180.394C349.462 180.394 350.059 179.787 350.059 178.987C350.059 178.161 349.435 177.555 348.583 177.546C348.047 177.537 347.634 177.704 347.396 178.117H346.632L347.08 174.637H350.525V175.34H347.739L347.502 177.203H347.563C347.845 176.983 348.275 176.834 348.723 176.834C349.936 176.834 350.833 177.73 350.833 178.97C350.833 180.2 349.901 181.088 348.636 181.088ZM354.129 181.088C352.863 181.088 351.958 180.411 351.914 179.4H352.714C352.758 180.007 353.364 180.385 354.12 180.385C354.955 180.385 355.57 179.928 355.57 179.269C355.57 178.574 355.016 178.082 354.023 178.082H353.505V177.388H354.023C354.797 177.388 355.333 176.957 355.333 176.298C355.333 175.665 354.867 175.234 354.146 175.234C353.47 175.234 352.846 175.612 352.81 176.236H352.046C352.09 175.226 353.021 174.549 354.155 174.549C355.368 174.549 356.106 175.34 356.097 176.254C356.106 176.975 355.684 177.511 355.016 177.695V177.739C355.843 177.871 356.352 178.46 356.344 179.269C356.352 180.314 355.394 181.088 354.129 181.088Z" fill="#CCCCCC"/>
<path d="M382 218H61.1504V237H382V218Z" fill="#16181C"/>
<path d="M70.3936 224.344V230H69.6826V225.078H69.6514L68.2764 225.992V225.281L69.6826 224.344H70.3936ZM73.7529 230.078C72.4951 230.078 71.7764 229.023 71.7764 227.172C71.7764 225.336 72.5107 224.266 73.7529 224.266C74.9951 224.266 75.7295 225.336 75.7295 227.172C75.7295 229.023 75.0029 230.078 73.7529 230.078ZM73.7529 229.453C74.5654 229.453 75.042 228.633 75.042 227.172C75.042 225.711 74.5654 224.875 73.7529 224.875C72.9404 224.875 72.4561 225.711 72.4561 227.172C72.4561 228.633 72.9326 229.453 73.7529 229.453ZM78.5186 230.078C77.2607 230.078 76.542 229.023 76.542 227.172C76.542 225.336 77.2764 224.266 78.5186 224.266C79.7607 224.266 80.4951 225.336 80.4951 227.172C80.4951 229.023 79.7686 230.078 78.5186 230.078ZM78.5186 229.453C79.3311 229.453 79.8076 228.633 79.8076 227.172C79.8076 225.711 79.3311 224.875 78.5186 224.875C77.7061 224.875 77.2217 225.711 77.2217 227.172C77.2217 228.633 77.6982 229.453 78.5186 229.453ZM82.6279 226.969C81.8936 226.969 81.4951 226.422 81.4951 225.609C81.4951 224.812 81.9092 224.258 82.6279 224.258C83.3701 224.258 83.7607 224.812 83.7607 225.609C83.7607 226.422 83.3545 226.969 82.6279 226.969ZM82.6279 226.484C83.0107 226.484 83.1904 226.141 83.1904 225.609C83.1904 225.086 83.0264 224.734 82.6279 224.742C82.2529 224.742 82.0654 225.086 82.0654 225.609C82.0654 226.141 82.2529 226.484 82.6279 226.484ZM86.0811 230.078C85.3467 230.086 84.9404 229.531 84.9482 228.727C84.9404 227.922 85.3623 227.367 86.0811 227.367C86.8154 227.367 87.2061 227.922 87.2061 228.727C87.2061 229.531 86.7998 230.086 86.0811 230.078ZM86.0811 229.594C86.4561 229.594 86.6357 229.25 86.6357 228.727C86.6357 228.195 86.4717 227.844 86.0811 227.852C85.7061 227.859 85.5107 228.195 85.5107 228.727C85.5107 229.25 85.6982 229.594 86.0811 229.594ZM82.0498 230L85.9404 224.344H86.5732L82.6826 230H82.0498ZM90.8232 228.031C90.5498 228.031 90.3154 227.805 90.3232 227.523C90.3154 227.25 90.5498 227.023 90.8232 227.023C91.0967 227.023 91.3232 227.25 91.3232 227.523C91.3232 227.805 91.0967 228.031 90.8232 228.031ZM94.7217 230H93.9873L96.0576 224.344H96.7998L98.8701 230H98.1279L97.5654 228.406H95.292L94.7217 230ZM95.5029 227.789H97.3467L96.4482 225.258H96.4014L95.5029 227.789ZM102.229 228.258V225.758H102.894V230H102.229V229.281H102.183C101.979 229.711 101.565 230.055 100.925 230.055C100.12 230.055 99.5498 229.531 99.5498 228.453V225.758H100.222V228.406C100.222 229.016 100.604 229.406 101.144 229.406C101.62 229.406 102.229 229.047 102.229 228.258ZM105.823 225.758V226.32H104.933V228.781C104.933 229.328 105.198 229.414 105.487 229.414C105.612 229.414 105.784 229.406 105.886 229.398V230.023C105.784 230.039 105.612 230.055 105.417 230.055C104.854 230.055 104.253 229.703 104.253 228.953V226.32H103.612V225.758H104.253V224.742H104.933V225.758H105.823ZM108.378 230.086C107.222 230.086 106.44 229.219 106.44 227.898C106.44 226.578 107.222 225.703 108.378 225.703C109.526 225.703 110.3 226.578 110.3 227.898C110.3 229.219 109.526 230.086 108.378 230.086ZM108.378 229.492C109.229 229.492 109.628 228.742 109.628 227.898C109.628 227.055 109.229 226.297 108.378 226.297C107.511 226.297 107.112 227.055 107.112 227.898C107.112 228.742 107.511 229.492 108.378 229.492ZM113.276 230V224.344H113.979V229.375H116.604V230H113.276ZM117.253 228.797C117.253 227.82 118.112 227.602 118.847 227.547C119.116 227.527 119.804 227.492 119.995 227.484V227.141C119.995 226.602 119.675 226.289 119.034 226.289C118.495 226.289 118.175 226.539 118.081 226.859H117.378C117.464 226.18 118.128 225.703 119.065 225.703C119.62 225.703 120.659 225.867 120.659 227.203V230H119.995V229.422H119.964C119.823 229.711 119.433 230.102 118.698 230.102C117.894 230.102 117.253 229.625 117.253 228.797ZM117.925 228.828C117.925 229.273 118.3 229.5 118.815 229.5C119.573 229.5 119.995 228.992 119.995 228.461V228.031L118.925 228.109C118.315 228.148 117.925 228.367 117.925 228.828ZM122.011 231.594C121.862 231.594 121.722 231.586 121.636 231.578V230.977C121.706 230.984 121.862 230.992 121.964 230.992C122.237 230.992 122.464 230.969 122.69 230.352L122.815 230.031L121.245 225.758H121.979L123.136 229.125H123.183L124.339 225.758H125.073L123.276 230.609C123.026 231.273 122.612 231.594 122.011 231.594ZM127.394 230.086C126.237 230.086 125.456 229.219 125.456 227.898C125.456 226.578 126.237 225.703 127.394 225.703C128.542 225.703 129.315 226.578 129.315 227.898C129.315 229.219 128.542 230.086 127.394 230.086ZM127.394 229.492C128.245 229.492 128.644 228.742 128.644 227.898C128.644 227.055 128.245 226.297 127.394 226.297C126.526 226.297 126.128 227.055 126.128 227.898C126.128 228.742 126.526 229.492 127.394 229.492ZM132.878 228.258V225.758H133.542V230H132.878V229.281H132.831C132.628 229.711 132.214 230.055 131.573 230.055C130.769 230.055 130.198 229.531 130.198 228.453V225.758H130.87V228.406C130.87 229.016 131.253 229.406 131.792 229.406C132.269 229.406 132.878 229.047 132.878 228.258ZM136.472 225.758V226.32H135.581V228.781C135.581 229.328 135.847 229.414 136.136 229.414C136.261 229.414 136.433 229.406 136.534 229.398V230.023C136.433 230.039 136.261 230.055 136.065 230.055C135.503 230.055 134.901 229.703 134.901 228.953V226.32H134.261V225.758H134.901V224.742H135.581V225.758H136.472ZM139.823 228.031C139.55 228.031 139.315 227.805 139.323 227.523C139.315 227.25 139.55 227.023 139.823 227.023C140.097 227.023 140.323 227.25 140.323 227.523C140.323 227.805 140.097 228.031 139.823 228.031ZM143.472 230V224.344H146.878V224.969H144.175V226.859H146.62V227.477H144.175V230H143.472ZM147.792 230V225.758H148.44V226.406H148.487C148.644 225.977 149.081 225.688 149.581 225.688C149.683 225.688 149.854 225.695 149.933 225.703V226.383C149.886 226.367 149.698 226.336 149.526 226.336C148.917 226.336 148.464 226.758 148.464 227.328V230H147.792ZM150.378 228.797C150.378 227.82 151.237 227.602 151.972 227.547C152.241 227.527 152.929 227.492 153.12 227.484V227.141C153.12 226.602 152.8 226.289 152.159 226.289C151.62 226.289 151.3 226.539 151.206 226.859H150.503C150.589 226.18 151.253 225.703 152.19 225.703C152.745 225.703 153.784 225.867 153.784 227.203V230H153.12V229.422H153.089C152.948 229.711 152.558 230.102 151.823 230.102C151.019 230.102 150.378 229.625 150.378 228.797ZM151.05 228.828C151.05 229.273 151.425 229.5 151.94 229.5C152.698 229.5 153.12 228.992 153.12 228.461V228.031L152.05 228.109C151.44 228.148 151.05 228.367 151.05 228.828ZM154.862 230V225.758H155.511V226.422H155.565C155.745 225.969 156.151 225.703 156.706 225.703C157.261 225.703 157.636 225.969 157.839 226.422H157.886C158.104 225.984 158.55 225.703 159.159 225.703C159.917 225.703 160.456 226.164 160.456 227.164V230H159.784V227.172C159.784 226.547 159.386 226.305 158.925 226.305C158.331 226.305 157.995 226.703 157.995 227.242V230H157.315V227.102C157.315 226.625 156.972 226.305 156.487 226.305C155.979 226.305 155.534 226.734 155.534 227.352V230H154.862ZM163.315 230.086C162.089 230.086 161.331 229.219 161.331 227.914C161.331 226.609 162.097 225.703 163.253 225.703C164.144 225.703 165.081 226.25 165.081 227.82V228.102H162.003C162.034 229 162.558 229.492 163.315 229.492C163.823 229.492 164.144 229.273 164.3 229.008H165.019C164.815 229.648 164.19 230.086 163.315 230.086ZM162.011 227.531H164.401C164.401 226.82 163.948 226.297 163.253 226.297C162.519 226.297 162.05 226.875 162.011 227.531Z" fill="#666666"/>
<path opacity="0.15" d="M202.006 196H80.0636C77.8554 196 76.0654 197.791 76.0654 200V210C76.0654 212.209 77.8554 214 80.0636 214H202.006C204.214 214 206.004 212.209 206.004 210V200C206.004 197.791 204.214 196 202.006 196Z" fill="#D4A853"/>
<path d="M95.6335 208H94.2096L96.4157 201.637H98.112L100.309 208H98.8942L98.4196 206.532H96.1169L95.6335 208ZM96.4508 205.504H98.0856L97.2858 203.069H97.2419L96.4508 205.504ZM104.062 205.97V203.228H105.363V208H104.115V207.139H104.062C103.842 207.692 103.333 208.062 102.612 208.062C101.654 208.062 101.004 207.385 101.004 206.269V203.228H102.304V206.04C102.304 206.603 102.63 206.963 103.139 206.963C103.614 206.963 104.062 206.62 104.062 205.97ZM108.887 203.228V204.203H107.991V206.532C107.991 206.91 108.175 207.007 108.439 207.016C108.571 207.016 108.799 207.007 108.958 206.989V208.018C108.817 208.044 108.589 208.062 108.263 208.062C107.323 208.062 106.681 207.64 106.69 206.717V204.203H106.031V203.228H106.69V202.085H107.991V203.228H108.887ZM111.797 208.097C110.355 208.097 109.459 207.104 109.459 205.627C109.459 204.15 110.355 203.166 111.797 203.166C113.238 203.166 114.143 204.15 114.143 205.627C114.143 207.104 113.238 208.097 111.797 208.097ZM111.805 207.086C112.473 207.086 112.816 206.462 112.816 205.627C112.816 204.783 112.473 204.159 111.805 204.159C111.129 204.159 110.777 204.783 110.777 205.627C110.777 206.462 111.129 207.086 111.805 207.086ZM117.061 208V201.637H118.38V206.91H121.122V208H117.061ZM121.719 206.664C121.719 205.601 122.581 205.249 123.495 205.196C123.838 205.174 124.479 205.144 124.681 205.135V204.748C124.673 204.353 124.4 204.115 123.917 204.115C123.477 204.115 123.196 204.317 123.126 204.643H121.886C121.965 203.816 122.686 203.166 123.952 203.166C124.989 203.166 125.973 203.632 125.973 204.783V208H124.743V207.341H124.708C124.47 207.78 124.022 208.088 123.31 208.088C122.396 208.088 121.719 207.613 121.719 206.664ZM122.967 206.629C122.967 206.998 123.266 207.191 123.679 207.191C124.268 207.191 124.69 206.796 124.681 206.295V205.943C124.484 205.952 123.93 205.983 123.706 206.005C123.257 206.049 122.967 206.26 122.967 206.629ZM127.555 209.793C127.3 209.793 127.063 209.784 126.896 209.767V208.756C127.063 208.765 127.257 208.773 127.423 208.773C127.678 208.773 127.889 208.747 128.048 208.334L128.127 208.132L126.413 203.228H127.775L128.777 206.743H128.83L129.84 203.228H131.22L129.357 208.527C129.085 209.292 128.566 209.793 127.555 209.793ZM133.84 208.097C132.398 208.097 131.502 207.104 131.502 205.627C131.502 204.15 132.398 203.166 133.84 203.166C135.281 203.166 136.186 204.15 136.186 205.627C136.186 207.104 135.281 208.097 133.84 208.097ZM133.848 207.086C134.516 207.086 134.859 206.462 134.859 205.627C134.859 204.783 134.516 204.159 133.848 204.159C133.172 204.159 132.82 204.783 132.82 205.627C132.82 206.462 133.172 207.086 133.848 207.086ZM140.062 205.97V203.228H141.363V208H140.115V207.139H140.062C139.842 207.692 139.333 208.062 138.612 208.062C137.654 208.062 137.004 207.385 137.004 206.269V203.228H138.304V206.04C138.304 206.603 138.63 206.963 139.139 206.963C139.614 206.963 140.062 206.62 140.062 205.97ZM144.887 203.228V204.203H143.991V206.532C143.991 206.91 144.175 207.007 144.439 207.016C144.571 207.016 144.799 207.007 144.958 206.989V208.018C144.817 208.044 144.589 208.062 144.263 208.062C143.323 208.062 142.681 207.64 142.69 206.717V204.203H142.031V203.228H142.69V202.085H143.991V203.228H144.887ZM153.905 200.811V202.7H154.924V203.632H153.905V205.521H152.78V200.811H153.905ZM153.905 205.803V207.596H149.616V208.009H154.169V208.756H148.491V206.919H152.78V206.55H148.482V205.803H153.905ZM147.419 204.66C148.003 204.665 148.667 204.665 149.361 204.643V204.291C148.486 204.19 147.946 203.825 147.955 203.254C147.946 202.604 148.719 202.226 149.915 202.226C151.101 202.226 151.866 202.604 151.875 203.254C151.866 203.825 151.339 204.186 150.477 204.291V204.607C151.132 204.577 151.791 204.524 152.411 204.44L152.49 205.135C150.785 205.425 148.93 205.434 147.533 205.434L147.419 204.66ZM152.209 201.312V202.059H147.63V201.312H149.361V200.74H150.477V201.312H152.209ZM149.915 202.92C149.343 202.92 149.018 203.025 149.027 203.254C149.018 203.491 149.343 203.614 149.915 203.623C150.477 203.614 150.794 203.491 150.802 203.254C150.794 203.025 150.477 202.92 149.915 202.92ZM158.308 201.9C158.299 202.973 158.853 203.957 160.136 204.353L159.548 205.231C158.686 204.933 158.102 204.379 157.772 203.658C157.412 204.493 156.766 205.152 155.803 205.478L155.215 204.581C156.586 204.142 157.166 203.069 157.174 201.953V201.224H158.308V201.9ZM162.026 200.811V205.495H160.91V203.192H159.407V202.278H160.91V200.811H162.026ZM159.293 205.706C160.998 205.706 162.044 206.277 162.052 207.262C162.044 208.246 160.998 208.809 159.293 208.809C157.588 208.809 156.542 208.246 156.542 207.262C156.542 206.277 157.588 205.706 159.293 205.706ZM159.293 206.576C158.229 206.576 157.658 206.805 157.658 207.262C157.658 207.701 158.229 207.938 159.293 207.938C160.356 207.938 160.936 207.701 160.936 207.262C160.936 206.805 160.356 206.576 159.293 206.576ZM169.462 200.811V204.062H170.507V204.994H169.462V208.809H168.328V200.811H169.462ZM162.966 206.55C163.551 206.55 164.232 206.55 164.944 206.532V205.847C164.091 205.68 163.538 205.139 163.547 204.396C163.538 203.5 164.346 202.894 165.515 202.894C166.658 202.894 167.475 203.5 167.484 204.396C167.475 205.139 166.913 205.684 166.069 205.847V206.488C166.702 206.458 167.339 206.405 167.932 206.321L168.003 207.139C166.298 207.455 164.469 207.464 163.116 207.464L162.966 206.55ZM167.871 201.698V202.577H163.125V201.698H164.944V200.854H166.069V201.698H167.871ZM165.515 203.746C164.97 203.746 164.601 203.983 164.61 204.396C164.601 204.818 164.97 205.047 165.515 205.047C166.043 205.047 166.403 204.818 166.403 204.396C166.403 203.983 166.043 203.746 165.515 203.746ZM177.574 200.819V205.671H176.458V200.819H177.574ZM170.903 204.616C171.514 204.616 172.213 204.612 172.942 204.59V203.869H171.553V201.215H175.456V202.12H172.678V202.973H175.5V203.869H174.076V204.546C174.717 204.506 175.359 204.454 175.965 204.37L176.036 205.144C174.322 205.451 172.432 205.469 171.017 205.469L170.903 204.616ZM177.574 205.996V208.721H172.133V205.996H177.574ZM173.232 206.884V207.824H176.484V206.884H173.232ZM181.09 205.319L181.951 204.458L183.401 205.882L186.6 202.691L187.462 203.553L183.401 207.604L181.09 205.319Z" fill="#D4A853"/>
<defs>
<linearGradient id="paint0_linear_546_10132" x1="0" y1="0" x2="212.388" y2="342.169" gradientUnits="userSpaceOnUse">
<stop stop-color="#1E1F23"/>
<stop offset="1" stop-color="#2C2E35"/>
</linearGradient>
</defs>
</svg>
