<svg width="383" height="187" viewBox="0 0 383 187" fill="none" xmlns="http://www.w3.org/2000/svg">
<rect x="0.5" y="0.5" width="382" height="186" fill="url(#paint0_linear_546_10141)"/>
<rect x="0.5" y="0.5" width="382" height="186" stroke="#E2E2E2"/>
<path d="M153.5 16.5H39.5C35.0817 16.5 31.5 20.0817 31.5 24.5V88.5C31.5 92.9183 35.0817 96.5 39.5 96.5H153.5C157.918 96.5 161.5 92.9183 161.5 88.5V24.5C161.5 20.0817 157.918 16.5 153.5 16.5Z" fill="white" stroke="#E2E2E2"/>
<path d="M150.5 24.5H42.5C40.8431 24.5 39.5 25.8431 39.5 27.5V37.5C39.5 39.1569 40.8431 40.5 42.5 40.5H150.5C152.157 40.5 153.5 39.1569 153.5 37.5V27.5C153.5 25.8431 152.157 24.5 150.5 24.5Z" fill="#E8E8E8"/>
<path d="M39.5 48.5H139.5" stroke="#D0D0D0"/>
<path d="M39.5 56.5H126.5" stroke="#D0D0D0"/>
<path d="M78.0869 108.884C78.0781 109.354 78.2539 110.158 78.8252 110.677C79.3701 110.171 79.5459 109.398 79.5547 108.884V108.418H78.9922V107.847H81.1807V108.418H80.2139V108.884C80.2051 109.525 80.6006 110.431 81.4795 110.844L81.1279 111.345C80.5039 111.05 80.1128 110.519 79.9062 109.947C79.7393 110.527 79.4185 111.099 78.8164 111.424C78.2188 111.099 77.8979 110.519 77.7354 109.938C77.5244 110.51 77.1333 111.05 76.5137 111.345L76.1709 110.844C77.0322 110.422 77.4365 109.499 77.4365 108.884V108.418H76.4434V107.847H78.6494V108.418H78.0869V108.884ZM80.6533 111.898V112.9H81.8926V111.898H82.5078V115.124H80.0205V111.898H80.6533ZM80.6533 114.579H81.8926V113.428H80.6533V114.579ZM82.5078 107.398V109.06H83.5273V109.648H82.5078V111.468H81.8223V107.398H82.5078ZM79.5459 111.969V113.744H77.7617V114.597C78.5791 114.597 79.0757 114.583 79.7129 114.447L79.7744 114.975C79.0537 115.115 78.5 115.124 77.5068 115.124H77.1025V113.234H78.8691V112.496H77.085V111.969H79.5459ZM91.1387 111.521V112.083H84.0195V111.521H91.1387ZM90.3477 114.465V115.045H84.9424V112.769H85.6367V114.465H90.3477ZM87.5791 107.68C89.2578 107.671 90.3389 108.251 90.3389 109.227C90.3389 110.202 89.2578 110.782 87.5791 110.782C85.8828 110.782 84.8105 110.202 84.8105 109.227C84.8105 108.251 85.8828 107.671 87.5791 107.68ZM87.5791 108.233C86.3223 108.233 85.5137 108.611 85.5225 109.227C85.5137 109.842 86.3223 110.22 87.5791 110.22C88.8271 110.22 89.6357 109.842 89.6357 109.227C89.6357 108.611 88.8271 108.233 87.5791 108.233ZM97.4053 107.961V108.523H95.085V109.543H97.0801V110.097H95.085V111.195C96.2144 111.191 96.9175 111.151 97.7568 110.984L97.8271 111.556C96.9219 111.731 96.1836 111.758 94.918 111.758H94.4258V107.961H97.4053ZM100.692 112.602V115.212H100.016V113.173H95.3926V112.602H100.692ZM100.692 107.407V112.232H100.033V107.407H100.692ZM99.1719 107.574V112.18H98.5039V110.035H97.4492V109.455H98.5039V107.574H99.1719ZM105.729 108.55C105.729 109.886 107.258 111.081 108.62 111.336L108.304 111.916C107.126 111.644 105.882 110.804 105.377 109.648C104.872 110.8 103.632 111.639 102.45 111.916L102.134 111.336C103.487 111.072 105.008 109.895 105.008 108.55V107.952H105.729V108.55ZM108.989 113.577V114.148H101.835V113.577H108.989ZM115.941 111.626V112.188H110.536V108.075H115.854V108.655H111.239V109.815H115.687V110.369H111.239V111.626H115.941ZM116.768 113.621V114.192H109.613V113.621H116.768Z" fill="#9A9090"/>
<path opacity="0.5" d="M159.5 110.5H33.5C32.3954 110.5 31.5 111.395 31.5 112.5C31.5 113.605 32.3954 114.5 33.5 114.5H159.5C160.605 114.5 161.5 113.605 161.5 112.5C161.5 111.395 160.605 110.5 159.5 110.5Z" fill="#8FAF8A"/>
<path d="M343.5 16.5H229.5C225.082 16.5 221.5 20.0817 221.5 24.5V128.5C221.5 132.918 225.082 136.5 229.5 136.5H343.5C347.918 136.5 351.5 132.918 351.5 128.5V24.5C351.5 20.0817 347.918 16.5 343.5 16.5Z" fill="white" stroke="#E2E2E2"/>
<path d="M340.5 24.5H232.5C230.843 24.5 229.5 25.8431 229.5 27.5V37.5C229.5 39.1569 230.843 40.5 232.5 40.5H340.5C342.157 40.5 343.5 39.1569 343.5 37.5V27.5C343.5 25.8431 342.157 24.5 340.5 24.5Z" fill="#E8E8E8"/>
<path d="M229.5 48.5H343.5" stroke="#D0D0D0"/>
<path d="M229.5 56.5H330.5" stroke="#D0D0D0"/>
<path d="M229.5 64.5H338.5" stroke="#D0D0D0"/>
<path d="M229.5 72.5H324.5" stroke="#D0D0D0"/>
<path d="M229.5 80.5H334.5" stroke="#D0D0D0"/>
<path d="M276.573 145.407V151.085H275.878V145.407H276.573ZM274.305 145.996C274.296 148.018 272.837 149.521 270.543 150.232L270.262 149.67C272.156 149.094 273.391 147.974 273.541 146.576H270.675V145.996H274.305ZM276.784 152.465V153.045H271.484V150.619H272.178V152.465H276.784ZM283.516 145.961V146.523H281.196V147.543H283.191V148.097H281.196V149.195C282.325 149.191 283.028 149.151 283.868 148.984L283.938 149.556C283.033 149.731 282.294 149.758 281.029 149.758H280.537V145.961H283.516ZM286.803 150.602V153.212H286.126V151.173H281.503V150.602H286.803ZM286.803 145.407V150.232H286.144V145.407H286.803ZM285.283 145.574V150.18H284.615V148.035H283.56V147.455H284.615V145.574H285.283ZM291.839 146.55C291.839 147.886 293.369 149.081 294.731 149.336L294.415 149.916C293.237 149.644 291.993 148.804 291.488 147.648C290.982 148.8 289.743 149.639 288.561 149.916L288.245 149.336C289.598 149.072 291.119 147.895 291.119 146.55V145.952H291.839V146.55ZM295.1 151.577V152.148H287.946V151.577H295.1ZM302.052 149.626V150.188H296.647V146.075H301.964V146.655H297.35V147.815H301.797V148.369H297.35V149.626H302.052ZM302.878 151.621V152.192H295.724V151.621H302.878Z" fill="#9A9090"/>
<path opacity="0.6" d="M349.5 146.5H223.5C222.395 146.5 221.5 147.395 221.5 148.5C221.5 149.605 222.395 150.5 223.5 150.5H349.5C350.605 150.5 351.5 149.605 351.5 148.5C351.5 147.395 350.605 146.5 349.5 146.5Z" fill="#D4A853"/>
<path opacity="0.5" d="M169.5 26.5H221.5H169.5ZM169.5 134.5H221.5H169.5ZM169.5 26.5V134.5V26.5ZM221.5 26.5V134.5V26.5Z" fill="black" stroke="#5FAFFF" stroke-width="0.8" stroke-dasharray="3 2"/>
<path d="M195.5 107.65H189.137V106.859H191.967V103.493H189.137V102.693H195.5V103.493H192.661V106.859H195.5V107.65ZM195.597 99.3887C195.597 100.769 194.621 101.621 193.153 101.621C191.686 101.621 190.666 100.76 190.666 99.459C190.666 98.457 191.281 97.4023 193.048 97.4023H193.364V100.865C194.375 100.83 194.929 100.241 194.929 99.3887C194.929 98.8174 194.683 98.457 194.384 98.2812V97.4727C195.104 97.7012 195.597 98.4043 195.597 99.3887ZM192.723 100.856V98.167C191.923 98.167 191.334 98.6768 191.334 99.459C191.334 100.285 191.984 100.812 192.723 100.856ZM195.5 96.418H190.728V95.6621H195.5V96.418ZM189.937 96.04C189.937 96.3301 189.717 96.5674 189.436 96.5674C189.154 96.5674 188.935 96.3301 188.935 96.04C188.935 95.75 189.154 95.5039 189.436 95.5039C189.717 95.5039 189.937 95.75 189.937 96.04ZM197.39 92.5244C197.39 93.6758 196.889 94.458 196.001 94.5459V93.7549C196.484 93.6494 196.73 93.2012 196.73 92.5244C196.73 91.707 196.379 91.2061 195.588 91.2061H194.621V91.2676C194.885 91.4258 195.43 91.7334 195.43 92.6562C195.43 93.8164 194.551 94.6865 193.048 94.6865C191.58 94.6865 190.666 93.8428 190.666 92.6475C190.666 91.7246 191.229 91.4258 191.483 91.25V91.1885H190.728V90.4502H195.632C196.862 90.4502 197.39 91.3643 197.39 92.5244ZM194.753 92.5508C194.753 91.6807 194.129 91.1885 193.074 91.1885C192.055 91.1885 191.343 91.6631 191.343 92.5508C191.343 93.4648 192.116 93.9219 193.074 93.9219C194.067 93.9219 194.753 93.4561 194.753 92.5508ZM192.635 88.4902H195.5V89.2461H189.137V88.4902H191.475V88.4287C190.982 88.209 190.666 87.7783 190.666 87.0225C190.666 86.0469 191.246 85.3965 192.468 85.3965H195.5V86.1523H192.521C191.773 86.1523 191.343 86.5654 191.343 87.251C191.343 87.9629 191.809 88.4902 192.635 88.4902ZM190.728 82.1006H191.36V83.1025H194.129C194.744 83.1025 194.841 82.8037 194.841 82.4785C194.841 82.3379 194.832 82.1445 194.823 82.0303H195.526C195.544 82.1445 195.562 82.3379 195.562 82.5576C195.562 83.1904 195.166 83.8672 194.322 83.8672H191.36V84.5879H190.728V83.8672H189.585V83.1025H190.728V82.1006ZM195.553 80.5889C195.553 80.8965 195.298 81.1602 194.981 81.1514C194.674 81.1602 194.419 80.8965 194.419 80.5889C194.419 80.2812 194.674 80.0264 194.981 80.0264C195.298 80.0264 195.553 80.2812 195.553 80.5889ZM192.02 80.5889C192.02 80.8965 191.765 81.1602 191.448 81.1514C191.141 81.1602 190.886 80.8965 190.886 80.5889C190.886 80.2812 191.141 80.0264 191.448 80.0264C191.765 80.0264 192.02 80.2812 192.02 80.5889ZM195.5 76.4844H189.137V75.6934H191.967V72.3271H189.137V71.5273H195.5V72.3271H192.661V75.6934H195.5V76.4844ZM193.54 67.2119H190.728V66.4648H195.5V67.2119H194.691V67.2646C195.175 67.4932 195.562 67.959 195.562 68.6797C195.562 69.585 194.973 70.2266 193.76 70.2266H190.728V69.4707H193.707C194.393 69.4707 194.832 69.04 194.832 68.4336C194.832 67.8975 194.428 67.2119 193.54 67.2119ZM197.39 63.3184C197.39 64.4697 196.889 65.252 196.001 65.3398V64.5488C196.484 64.4434 196.73 63.9951 196.73 63.3184C196.73 62.501 196.379 62 195.588 62H194.621V62.0615C194.885 62.2197 195.43 62.5273 195.43 63.4502C195.43 64.6104 194.551 65.4805 193.048 65.4805C191.58 65.4805 190.666 64.6367 190.666 63.4414C190.666 62.5186 191.229 62.2197 191.483 62.0439V61.9824H190.728V61.2441H195.632C196.862 61.2441 197.39 62.1582 197.39 63.3184ZM194.753 63.3447C194.753 62.4746 194.129 61.9824 193.074 61.9824C192.055 61.9824 191.343 62.457 191.343 63.3447C191.343 64.2588 192.116 64.7158 193.074 64.7158C194.067 64.7158 194.753 64.25 194.753 63.3447Z" fill="#5FAFFF"/>
<path d="M100.854 164.54H107.004V165.22H100.854V164.54ZM100.854 162.43H101.674V164.98H100.854V162.43ZM99.7441 166.35H107.914V167.02H99.7441V166.35ZM103.414 164.99H104.244V166.8H103.414V164.99ZM100.654 167.92H107.014V168.59H100.654V167.92ZM100.574 170.48H107.094V171.16H100.574V170.48ZM102.024 168.11H102.844V170.79H102.024V168.11ZM104.824 168.11H105.644V170.79H104.824V168.11ZM115.513 162.23H116.343V171.29H115.513V162.23ZM111.573 162.93C112.02 162.93 112.413 163.06 112.753 163.32C113.1 163.573 113.37 163.937 113.563 164.41C113.763 164.883 113.863 165.44 113.863 166.08C113.863 166.72 113.763 167.277 113.563 167.75C113.37 168.223 113.1 168.59 112.753 168.85C112.413 169.11 112.02 169.24 111.573 169.24C111.127 169.24 110.73 169.11 110.383 168.85C110.037 168.59 109.763 168.223 109.563 167.75C109.37 167.277 109.273 166.72 109.273 166.08C109.273 165.44 109.37 164.883 109.563 164.41C109.763 163.937 110.037 163.573 110.383 163.32C110.73 163.06 111.127 162.93 111.573 162.93ZM111.573 163.67C111.273 163.67 111.01 163.77 110.783 163.97C110.563 164.163 110.39 164.443 110.263 164.81C110.137 165.17 110.073 165.593 110.073 166.08C110.073 166.567 110.137 166.993 110.263 167.36C110.39 167.72 110.563 168 110.783 168.2C111.01 168.4 111.273 168.5 111.573 168.5C111.867 168.5 112.123 168.4 112.343 168.2C112.57 168 112.747 167.72 112.873 167.36C113 166.993 113.063 166.567 113.063 166.08C113.063 165.593 113 165.17 112.873 164.81C112.747 164.443 112.57 164.163 112.343 163.97C112.123 163.77 111.867 163.67 111.573 163.67ZM128.702 163.571L128.629 163.894C128.538 163.897 128.424 163.911 128.287 163.938C128.15 163.964 128.046 163.988 127.975 164.011C127.848 164.053 127.757 164.12 127.701 164.211C127.646 164.302 127.605 164.4 127.579 164.504L126.417 169.548C126.41 169.574 126.406 169.603 126.402 169.636C126.399 169.668 126.397 169.696 126.397 169.719C126.397 169.787 126.412 169.847 126.441 169.899C126.471 169.951 126.518 169.999 126.583 170.041C126.632 170.07 126.72 170.1 126.847 170.129C126.977 170.158 127.088 170.174 127.179 170.178L127.105 170.5H124.229L124.303 170.178C124.384 170.171 124.5 170.161 124.649 170.148C124.799 170.135 124.905 170.116 124.967 170.09C125.081 170.048 125.169 169.986 125.23 169.904C125.292 169.823 125.336 169.722 125.362 169.602L125.938 167.102H122.682L122.12 169.548C122.114 169.574 122.109 169.602 122.105 169.631C122.102 169.66 122.101 169.688 122.101 169.714C122.101 169.779 122.115 169.841 122.145 169.899C122.177 169.958 122.224 170.005 122.286 170.041C122.335 170.07 122.423 170.1 122.55 170.129C122.68 170.158 122.791 170.174 122.882 170.178L122.809 170.5H119.933L120.006 170.178C120.087 170.171 120.203 170.161 120.353 170.148C120.502 170.135 120.608 170.116 120.67 170.09C120.784 170.048 120.872 169.986 120.934 169.904C120.995 169.823 121.039 169.722 121.065 169.602L122.232 164.553C122.239 164.527 122.244 164.501 122.247 164.475C122.25 164.445 122.252 164.416 122.252 164.387C122.252 164.315 122.237 164.253 122.208 164.201C122.182 164.149 122.133 164.104 122.062 164.064C121.983 164.022 121.886 163.985 121.769 163.952C121.651 163.92 121.547 163.9 121.456 163.894L121.529 163.571H124.405L124.332 163.894C124.241 163.897 124.127 163.911 123.99 163.938C123.854 163.964 123.749 163.988 123.678 164.011C123.551 164.053 123.46 164.12 123.404 164.211C123.349 164.302 123.308 164.4 123.282 164.504L122.784 166.687H126.041L126.529 164.553C126.536 164.527 126.541 164.501 126.544 164.475C126.547 164.445 126.549 164.418 126.549 164.392C126.549 164.32 126.534 164.258 126.505 164.206C126.479 164.151 126.43 164.104 126.358 164.064C126.28 164.022 126.183 163.985 126.065 163.952C125.948 163.92 125.844 163.9 125.753 163.894L125.826 163.571H128.702ZM131.661 169.816H131.632C131.482 169.937 131.339 170.048 131.202 170.148C131.065 170.249 130.93 170.334 130.797 170.402C130.641 170.48 130.499 170.536 130.372 170.568C130.245 170.604 130.079 170.622 129.874 170.622C129.562 170.622 129.319 170.533 129.146 170.354C128.974 170.171 128.888 169.934 128.888 169.641C128.888 169.562 128.894 169.47 128.907 169.362C128.92 169.255 128.951 169.095 129 168.884L129.381 167.336C129.413 167.193 129.439 167.066 129.459 166.955C129.482 166.844 129.493 166.739 129.493 166.638C129.493 166.455 129.462 166.335 129.4 166.276C129.342 166.215 129.22 166.184 129.034 166.184C128.963 166.184 128.871 166.197 128.761 166.223C128.65 166.249 128.564 166.27 128.502 166.286L128.575 165.974C128.829 165.86 129.052 165.773 129.244 165.715C129.439 165.656 129.596 165.627 129.713 165.627C129.973 165.627 130.164 165.689 130.284 165.812C130.408 165.933 130.47 166.105 130.47 166.33C130.47 166.389 130.463 166.468 130.45 166.569C130.437 166.67 130.418 166.771 130.392 166.872L129.957 168.679C129.924 168.815 129.897 168.944 129.874 169.064C129.854 169.182 129.845 169.271 129.845 169.333C129.845 169.551 129.892 169.724 129.986 169.851C130.081 169.978 130.23 170.041 130.436 170.041C130.644 170.041 130.857 169.987 131.075 169.88C131.297 169.769 131.518 169.603 131.739 169.382L132.594 165.705L133.443 165.646L133.502 165.72L132.774 168.864C132.742 168.998 132.713 169.133 132.687 169.27C132.66 169.403 132.647 169.497 132.647 169.553C132.647 169.738 132.687 169.865 132.765 169.934C132.846 169.999 132.979 170.031 133.165 170.031C133.227 170.031 133.315 170.021 133.429 170.002C133.543 169.982 133.631 169.961 133.692 169.938L133.619 170.251C133.349 170.362 133.123 170.445 132.94 170.5C132.761 170.555 132.595 170.583 132.442 170.583C132.179 170.583 131.982 170.507 131.852 170.354C131.725 170.201 131.661 170.021 131.661 169.816ZM137.423 169.841L137.389 169.831C137.324 169.883 137.231 169.956 137.11 170.051C136.993 170.145 136.869 170.228 136.739 170.3C136.59 170.388 136.438 170.459 136.285 170.515C136.132 170.57 135.963 170.598 135.777 170.598C135.305 170.598 134.941 170.432 134.684 170.1C134.43 169.764 134.303 169.304 134.303 168.718C134.303 168.314 134.376 167.922 134.522 167.541C134.672 167.16 134.876 166.822 135.133 166.525C135.38 166.239 135.676 166.009 136.021 165.837C136.367 165.661 136.728 165.573 137.105 165.573C137.34 165.573 137.561 165.604 137.77 165.666C137.978 165.725 138.146 165.795 138.272 165.876L139.166 165.646L139.225 165.72L138.404 169.567C138.281 170.15 138.121 170.642 137.926 171.042C137.734 171.446 137.511 171.765 137.257 171.999C136.996 172.24 136.708 172.411 136.393 172.512C136.08 172.616 135.725 172.668 135.328 172.668C135.058 172.668 134.837 172.647 134.664 172.604C134.495 172.562 134.361 172.507 134.264 172.438C134.166 172.37 134.099 172.292 134.063 172.204C134.031 172.119 134.015 172.038 134.015 171.96C134.015 171.813 134.059 171.69 134.146 171.589C134.234 171.491 134.355 171.442 134.508 171.442C134.628 171.442 134.731 171.477 134.815 171.545C134.9 171.617 134.968 171.693 135.021 171.774C135.076 171.859 135.13 171.96 135.182 172.077C135.234 172.194 135.273 172.282 135.299 172.341H135.445C135.624 172.341 135.816 172.3 136.021 172.219C136.227 172.137 136.414 172.006 136.583 171.823C136.756 171.634 136.917 171.381 137.066 171.062C137.216 170.746 137.335 170.339 137.423 169.841ZM138.077 166.721C138.077 166.63 138.062 166.537 138.033 166.442C138.007 166.345 137.957 166.255 137.882 166.174C137.81 166.096 137.719 166.034 137.608 165.988C137.498 165.943 137.356 165.92 137.184 165.92C136.933 165.92 136.695 165.996 136.471 166.149C136.249 166.299 136.049 166.506 135.87 166.77C135.704 167.017 135.569 167.316 135.465 167.668C135.361 168.02 135.309 168.373 135.309 168.728C135.309 168.92 135.322 169.097 135.348 169.26C135.377 169.419 135.426 169.559 135.494 169.68C135.562 169.8 135.652 169.895 135.763 169.963C135.877 170.028 136.023 170.061 136.202 170.061C136.43 170.061 136.656 169.995 136.881 169.865C137.105 169.732 137.319 169.562 137.521 169.357L138.077 166.721ZM147.245 163.87H149.565V164.55H147.245V163.87ZM149.215 162.23H150.045V166.9H149.215V162.23ZM144.225 167.36H150.045V169.53H145.055V170.9H144.245V168.9H149.225V168.02H144.225V167.36ZM144.245 170.49H150.375V171.16H144.245V170.49ZM144.865 162.52H145.535V163.36C145.535 163.913 145.432 164.43 145.225 164.91C145.019 165.383 144.729 165.793 144.355 166.14C143.982 166.48 143.542 166.74 143.035 166.92L142.595 166.26C143.049 166.107 143.445 165.887 143.785 165.6C144.125 165.313 144.389 164.98 144.575 164.6C144.769 164.213 144.865 163.8 144.865 163.36V162.52ZM144.995 162.52H145.675V163.36C145.675 163.653 145.729 163.94 145.835 164.22C145.942 164.493 146.092 164.75 146.285 164.99C146.485 165.23 146.722 165.443 146.995 165.63C147.269 165.81 147.569 165.953 147.895 166.06L147.455 166.71C146.969 166.537 146.539 166.287 146.165 165.96C145.799 165.627 145.512 165.24 145.305 164.8C145.099 164.353 144.995 163.873 144.995 163.36V162.52ZM156.635 164.58H158.665V165.27H156.635V164.58ZM158.415 162.23H159.245V167.62H158.415V162.23ZM156.265 167.9C156.891 167.9 157.428 167.967 157.875 168.1C158.328 168.233 158.675 168.427 158.915 168.68C159.155 168.927 159.275 169.23 159.275 169.59C159.275 170.123 159.005 170.537 158.465 170.83C157.931 171.123 157.198 171.27 156.265 171.27C155.331 171.27 154.595 171.123 154.055 170.83C153.521 170.537 153.255 170.123 153.255 169.59C153.255 169.23 153.375 168.927 153.615 168.68C153.861 168.427 154.208 168.233 154.655 168.1C155.108 167.967 155.645 167.9 156.265 167.9ZM156.265 168.55C155.811 168.55 155.421 168.59 155.095 168.67C154.768 168.75 154.515 168.867 154.335 169.02C154.161 169.173 154.075 169.363 154.075 169.59C154.075 169.803 154.161 169.987 154.335 170.14C154.515 170.293 154.768 170.413 155.095 170.5C155.421 170.58 155.811 170.62 156.265 170.62C156.725 170.62 157.115 170.58 157.435 170.5C157.761 170.413 158.011 170.293 158.185 170.14C158.365 169.987 158.455 169.803 158.455 169.59C158.455 169.363 158.365 169.173 158.185 169.02C158.011 168.867 157.761 168.75 157.435 168.67C157.115 168.59 156.725 168.55 156.265 168.55ZM154.105 163.15H154.785V163.88C154.785 164.433 154.678 164.953 154.465 165.44C154.258 165.92 153.965 166.343 153.585 166.71C153.205 167.07 152.765 167.347 152.265 167.54L151.835 166.88C152.175 166.76 152.481 166.597 152.755 166.39C153.035 166.183 153.275 165.947 153.475 165.68C153.681 165.413 153.838 165.127 153.945 164.82C154.051 164.513 154.105 164.2 154.105 163.88V163.15ZM154.265 163.15H154.945V163.87C154.945 164.257 155.035 164.633 155.215 165C155.395 165.367 155.651 165.69 155.985 165.97C156.318 166.25 156.701 166.47 157.135 166.63L156.715 167.29C156.221 167.11 155.791 166.85 155.425 166.51C155.058 166.163 154.771 165.763 154.565 165.31C154.365 164.857 154.265 164.377 154.265 163.87V163.15ZM152.095 162.89H156.925V163.57H152.095V162.89ZM169.706 168.25C169.806 168.037 169.903 167.85 169.996 167.69C170.096 167.53 170.193 167.397 170.286 167.29H164.456V166.87H170.286C170.193 166.757 170.096 166.62 169.996 166.46C169.903 166.3 169.806 166.117 169.706 165.91H170.056C170.476 166.397 170.916 166.757 171.376 166.99V167.17C170.916 167.397 170.476 167.757 170.056 168.25H169.706ZM176.798 162.66H182.618V163.34H176.798V162.66ZM182.168 162.66H182.988V163.43C182.988 163.85 182.978 164.3 182.958 164.78C182.938 165.26 182.865 165.81 182.738 166.43L181.918 166.36C182.045 165.753 182.118 165.217 182.138 164.75C182.158 164.283 182.168 163.843 182.168 163.43V162.66ZM182.398 164.32V164.94L176.698 165.2L176.578 164.5L182.398 164.32ZM175.838 167.03H183.988V167.7H175.838V167.03ZM179.148 165.72H179.978V167.46H179.148V165.72ZM176.868 170.46H183.188V171.14H176.868V170.46ZM176.868 168.47H177.698V170.73H176.868V168.47ZM188.917 164.8H190.457V165.47H188.917V164.8ZM191.857 162.24H192.647V169.02H191.857V162.24ZM190.107 162.42H190.897V168.78H190.107V162.42ZM186.787 170.4H192.917V171.08H186.787V170.4ZM186.787 168.27H187.617V170.8H186.787V168.27ZM185.437 166.84H186.007C186.481 166.84 186.897 166.837 187.257 166.83C187.624 166.817 187.967 166.793 188.287 166.76C188.607 166.72 188.931 166.67 189.257 166.61L189.347 167.27C189.001 167.343 188.664 167.4 188.337 167.44C188.011 167.473 187.661 167.497 187.287 167.51C186.921 167.517 186.494 167.52 186.007 167.52H185.437V166.84ZM185.437 162.98H188.857V163.66H186.237V167.09H185.437V162.98ZM185.987 164.89H188.497V165.54H185.987V164.89ZM194.227 169.43H202.427V170.12H194.227V169.43ZM197.897 164.15H198.637V164.35C198.637 164.83 198.54 165.27 198.347 165.67C198.153 166.063 197.89 166.413 197.557 166.72C197.23 167.02 196.85 167.273 196.417 167.48C195.983 167.687 195.523 167.837 195.037 167.93L194.707 167.26C195.14 167.18 195.547 167.053 195.927 166.88C196.313 166.707 196.653 166.493 196.947 166.24C197.247 165.987 197.48 165.7 197.647 165.38C197.813 165.06 197.897 164.717 197.897 164.35V164.15ZM198.007 164.15H198.737V164.35C198.737 164.717 198.82 165.06 198.987 165.38C199.153 165.7 199.383 165.987 199.677 166.24C199.977 166.493 200.317 166.707 200.697 166.88C201.083 167.053 201.493 167.18 201.927 167.26L201.597 167.93C201.11 167.837 200.65 167.687 200.217 167.48C199.79 167.273 199.41 167.02 199.077 166.72C198.743 166.413 198.48 166.063 198.287 165.67C198.1 165.27 198.007 164.83 198.007 164.35V164.15ZM194.987 163.68H201.647V164.36H194.987V163.68ZM197.907 162.44H198.727V163.92H197.907V162.44ZM207.096 165.75H208.796V166.43H207.096V165.75ZM210.316 162.23H211.116V171.28H210.316V162.23ZM208.516 162.42H209.306V170.82H208.516V162.42ZM205.456 162.99C205.849 162.99 206.189 163.117 206.476 163.37C206.769 163.623 206.996 163.987 207.156 164.46C207.316 164.933 207.396 165.49 207.396 166.13C207.396 166.777 207.316 167.337 207.156 167.81C206.996 168.283 206.769 168.65 206.476 168.91C206.189 169.163 205.849 169.29 205.456 169.29C205.076 169.29 204.739 169.163 204.446 168.91C204.159 168.65 203.936 168.283 203.776 167.81C203.616 167.337 203.536 166.777 203.536 166.13C203.536 165.49 203.616 164.933 203.776 164.46C203.936 163.987 204.159 163.623 204.446 163.37C204.739 163.117 205.076 162.99 205.456 162.99ZM205.456 163.76C205.222 163.76 205.019 163.857 204.846 164.05C204.672 164.243 204.539 164.517 204.446 164.87C204.352 165.223 204.306 165.643 204.306 166.13C204.306 166.617 204.352 167.04 204.446 167.4C204.539 167.753 204.672 168.027 204.846 168.22C205.019 168.413 205.222 168.51 205.456 168.51C205.696 168.51 205.902 168.413 206.076 168.22C206.256 168.027 206.392 167.753 206.486 167.4C206.579 167.04 206.626 166.617 206.626 166.13C206.626 165.643 206.579 165.223 206.486 164.87C206.392 164.517 206.256 164.243 206.076 164.05C205.902 163.857 205.696 163.76 205.456 163.76ZM215.407 162.85H219.567V166.72H215.407V162.85ZM218.757 163.52H216.217V166.05H218.757V163.52ZM221.227 162.23H222.057V167.39H221.227V162.23ZM221.827 164.4H223.387V165.09H221.827V164.4ZM218.817 168.23H219.517V168.47C219.517 168.823 219.43 169.153 219.257 169.46C219.09 169.767 218.854 170.04 218.547 170.28C218.247 170.52 217.9 170.72 217.507 170.88C217.114 171.047 216.694 171.167 216.247 171.24L215.937 170.6C216.324 170.547 216.69 170.453 217.037 170.32C217.384 170.187 217.69 170.027 217.957 169.84C218.224 169.647 218.434 169.433 218.587 169.2C218.74 168.967 218.817 168.723 218.817 168.47V168.23ZM218.967 168.23H219.677V168.47C219.677 168.723 219.754 168.963 219.907 169.19C220.067 169.417 220.28 169.627 220.547 169.82C220.814 170.013 221.117 170.18 221.457 170.32C221.804 170.453 222.17 170.55 222.557 170.61L222.247 171.25C221.8 171.17 221.38 171.047 220.987 170.88C220.594 170.72 220.244 170.52 219.937 170.28C219.637 170.033 219.4 169.757 219.227 169.45C219.054 169.143 218.967 168.817 218.967 168.47V168.23ZM216.287 167.92H222.207V168.59H216.287V167.92ZM231.126 162.23H231.926V171.28H231.126V162.23ZM227.196 165.93H229.476V166.6H227.196V165.93ZM229.246 162.47H230.026V170.82H229.246V162.47ZM227.306 163.38H228.106C228.106 164.167 227.993 164.923 227.766 165.65C227.546 166.37 227.186 167.043 226.686 167.67C226.186 168.29 225.53 168.843 224.716 169.33L224.236 168.73C224.943 168.303 225.523 167.823 225.976 167.29C226.43 166.75 226.763 166.167 226.976 165.54C227.196 164.907 227.306 164.237 227.306 163.53V163.38ZM224.626 163.38H227.616V164.06H224.626V163.38ZM238.078 163.53H238.748V164.99C238.748 165.463 238.681 165.933 238.548 166.4C238.414 166.86 238.228 167.297 237.988 167.71C237.754 168.117 237.484 168.48 237.178 168.8C236.871 169.113 236.541 169.36 236.188 169.54L235.698 168.88C236.024 168.72 236.328 168.503 236.608 168.23C236.894 167.95 237.148 167.633 237.368 167.28C237.588 166.92 237.761 166.547 237.888 166.16C238.014 165.767 238.078 165.377 238.078 164.99V163.53ZM238.238 163.53H238.898V164.99C238.898 165.35 238.954 165.713 239.068 166.08C239.188 166.447 239.354 166.797 239.568 167.13C239.781 167.463 240.028 167.763 240.308 168.03C240.594 168.29 240.898 168.5 241.218 168.66L240.748 169.32C240.394 169.14 240.064 168.9 239.758 168.6C239.451 168.293 239.184 167.947 238.958 167.56C238.731 167.173 238.554 166.76 238.428 166.32C238.301 165.88 238.238 165.437 238.238 164.99V163.53ZM236.018 163.16H240.898V163.85H236.018V163.16ZM241.968 162.23H242.798V171.28H241.968V162.23ZM242.608 165.88H244.278V166.58H242.608V165.88ZM245.047 166.69H253.227V167.36H245.047V166.69ZM248.727 165.24H249.537V166.97H248.727V165.24ZM246.077 164.98H252.267V165.65H246.077V164.98ZM246.077 162.65H252.207V163.31H246.897V165.38H246.077V162.65ZM249.127 168.01C250.094 168.01 250.85 168.153 251.397 168.44C251.944 168.72 252.217 169.12 252.217 169.64C252.217 170.16 251.944 170.56 251.397 170.84C250.85 171.127 250.094 171.27 249.127 171.27C248.16 171.27 247.4 171.127 246.847 170.84C246.3 170.56 246.027 170.16 246.027 169.64C246.027 169.12 246.3 168.72 246.847 168.44C247.4 168.153 248.16 168.01 249.127 168.01ZM249.117 168.66C248.65 168.66 248.247 168.7 247.907 168.78C247.574 168.853 247.317 168.963 247.137 169.11C246.957 169.25 246.867 169.427 246.867 169.64C246.867 169.847 246.957 170.023 247.137 170.17C247.317 170.317 247.574 170.427 247.907 170.5C248.247 170.58 248.65 170.62 249.117 170.62C249.597 170.62 250.004 170.58 250.337 170.5C250.677 170.427 250.937 170.317 251.117 170.17C251.297 170.023 251.387 169.847 251.387 169.64C251.387 169.427 251.297 169.25 251.117 169.11C250.937 168.963 250.677 168.853 250.337 168.78C250.004 168.7 249.597 168.66 249.117 168.66ZM257.758 164.38H263.888V165.06H257.758V164.38ZM256.648 165.94H264.848V166.62H256.648V165.94ZM257.758 162.37H258.568V164.7H257.758V162.37ZM257.668 167.42H263.808V169.55H258.518V170.71H257.688V168.93H262.988V168.07H257.668V167.42ZM257.688 170.5H264.118V171.16H257.688V170.5ZM268.267 162.93C268.707 162.93 269.097 163.06 269.437 163.32C269.777 163.573 270.041 163.937 270.227 164.41C270.421 164.883 270.517 165.44 270.517 166.08C270.517 166.72 270.421 167.277 270.227 167.75C270.041 168.223 269.777 168.59 269.437 168.85C269.097 169.11 268.707 169.24 268.267 169.24C267.834 169.24 267.444 169.11 267.097 168.85C266.757 168.59 266.491 168.223 266.297 167.75C266.111 167.277 266.017 166.72 266.017 166.08C266.017 165.44 266.111 164.883 266.297 164.41C266.491 163.937 266.757 163.573 267.097 163.32C267.444 163.06 267.834 162.93 268.267 162.93ZM268.267 163.67C267.981 163.67 267.727 163.77 267.507 163.97C267.287 164.163 267.114 164.443 266.987 164.81C266.867 165.17 266.807 165.593 266.807 166.08C266.807 166.567 266.867 166.993 266.987 167.36C267.114 167.72 267.287 168 267.507 168.2C267.727 168.4 267.981 168.5 268.267 168.5C268.561 168.5 268.817 168.4 269.037 168.2C269.257 168 269.427 167.72 269.547 167.36C269.674 166.993 269.737 166.567 269.737 166.08C269.737 165.593 269.674 165.17 269.547 164.81C269.427 164.443 269.257 164.163 269.037 163.97C268.817 163.77 268.561 163.67 268.267 163.67ZM272.477 162.23H273.297V171.29H272.477V162.23ZM270.247 165.68H272.847V166.35H270.247V165.68ZM281.247 162.24H282.077V167.35H281.247V162.24ZM281.857 164.31H283.417V165H281.857V164.31ZM276.377 167.84H282.077V171.15H276.377V167.84ZM281.267 168.5H277.187V170.48H281.267V168.5ZM275.487 162.69H276.317V166.31H275.487V162.69ZM275.487 165.97H276.207C276.86 165.97 277.527 165.943 278.207 165.89C278.887 165.83 279.593 165.723 280.327 165.57L280.427 166.26C279.667 166.413 278.94 166.52 278.247 166.58C277.56 166.633 276.88 166.66 276.207 166.66H275.487V165.97Z" fill="#9A9090"/>
<defs>
<linearGradient id="paint0_linear_546_10141" x1="0.5" y1="0.5" x2="146.918" y2="301.208" gradientUnits="userSpaceOnUse">
<stop stop-color="#F3F3F3"/>
<stop offset="1" stop-color="#EBEBEB"/>
</linearGradient>
</defs>
</svg>
