<svg width="383" height="161" viewBox="0 0 383 161" fill="none" xmlns="http://www.w3.org/2000/svg">
<path d="M374.5 0.5H8.5C4.08172 0.5 0.5 4.08172 0.5 8.5V152.5C0.5 156.918 4.08172 160.5 8.5 160.5H374.5C378.918 160.5 382.5 156.918 382.5 152.5V8.5C382.5 4.08172 378.918 0.5 374.5 0.5Z" fill="url(#paint0_linear_546_10170)" stroke="#E2E2E2"/>
<path d="M33.043 34.8398V34.1367H37.8418V34.8398H35.8467V40.5H35.0469V34.8398H33.043ZM40.0566 40.5967C38.7559 40.5967 37.877 39.6211 37.877 38.1357C37.877 36.6504 38.7559 35.666 40.0566 35.666C41.3486 35.666 42.2188 36.6504 42.2188 38.1357C42.2188 39.6211 41.3486 40.5967 40.0566 40.5967ZM40.0566 39.9287C41.0146 39.9287 41.4629 39.085 41.4629 38.1357C41.4629 37.1865 41.0146 36.334 40.0566 36.334C39.0811 36.334 38.6328 37.1865 38.6328 38.1357C38.6328 39.085 39.0811 39.9287 40.0566 39.9287ZM43.2119 42.293V35.7275H43.9414V36.4834H44.0293C44.1875 36.2285 44.4863 35.666 45.4092 35.666C46.6045 35.666 47.4395 36.6152 47.4395 38.127C47.4395 39.6387 46.6045 40.5967 45.418 40.5967C44.5039 40.5967 44.1875 40.0342 44.0293 39.7705H43.9678V42.293H43.2119ZM43.9502 38.1094C43.9502 39.1816 44.4336 39.9199 45.3125 39.9199C46.2178 39.9199 46.6836 39.1289 46.6836 38.1094C46.6836 37.1162 46.2266 36.3428 45.3125 36.3428C44.416 36.3428 43.9502 37.0547 43.9502 38.1094ZM56.8701 33.3984V38.0566H56.1758V36.0088H54.6025V35.4375H56.1758V33.3984H56.8701ZM54.2773 38.3027C55.9033 38.3027 56.8965 38.8301 56.8965 39.7529C56.8965 40.6758 55.9033 41.2031 54.2773 41.2119C52.6514 41.2031 51.6582 40.6758 51.6582 39.7529C51.6582 38.8301 52.6514 38.3027 54.2773 38.3027ZM54.2773 38.8389C53.082 38.8389 52.335 39.1816 52.3438 39.7529C52.335 40.3154 53.082 40.6582 54.2773 40.6582C55.4727 40.6582 56.2109 40.3154 56.2109 39.7529C56.2109 39.1816 55.4727 38.8389 54.2773 38.8389ZM53.1084 34.8311C53.1084 35.8506 53.8906 36.8174 55.0332 37.2129L54.6729 37.7666C53.7939 37.4502 53.1128 36.7954 52.7832 35.9824C52.4404 36.9009 51.7153 37.6348 50.7881 37.9863L50.4277 37.4326C51.5879 37.0107 52.4141 35.9561 52.4141 34.8398V34.5498H50.6475V33.9697H54.8574V34.5498H53.1084V34.8311ZM61.8799 33.7852V35.7363H59.1904V36.6855C60.333 36.6943 61.2295 36.6636 62.3369 36.501L62.3896 37.0459C61.2207 37.2217 60.2891 37.248 59.0586 37.248H58.5049V35.2002H61.1943V34.3213H58.4873V33.7852H61.8799ZM64.6484 37.8984V39.7354H60.2363V40.6055H64.9561V41.1504H59.5508V39.2168H63.9629V38.4346H59.5332V37.8984H64.6484ZM64.6484 33.3984V37.5205H63.9541V36.3252H62.3984V35.7539H63.9541V34.9277H62.3984V34.3652H63.9541V33.3984H64.6484ZM68.6914 38.0742C68.7002 36.4131 69.1484 35.0332 69.957 33.8643H70.625C70.0273 34.7344 69.4736 36.5098 69.4736 38.0742C69.4736 39.6387 70.0273 41.4229 70.625 42.293H69.957C69.1484 41.1152 68.7002 39.7354 68.6914 38.0742ZM71.6621 40.5V34.1367H73.8945C75.2305 34.1367 75.8545 34.8838 75.8545 35.8242C75.8545 36.6416 75.3711 37.0107 74.8174 37.1602V37.2217C75.4062 37.2568 76.1094 37.8018 76.1094 38.8125C76.1094 39.7705 75.4766 40.5 73.9736 40.5H71.6621ZM73.9648 39.7969C74.958 39.7969 75.3447 39.3574 75.3447 38.8037C75.3447 38.1533 74.8262 37.6084 74.0088 37.6084H72.4531V39.7969H73.9648ZM73.8682 36.9229C74.5537 36.9229 75.0986 36.501 75.0986 35.833C75.0986 35.2793 74.7295 34.8398 73.8945 34.8398H72.4531V36.9229H73.8682ZM79.1416 40.5967C77.7617 40.5967 76.9092 39.6211 76.9092 38.1533C76.9092 36.6855 77.7705 35.666 79.0713 35.666C80.0732 35.666 81.1279 36.2812 81.1279 38.0479V38.3643H77.665C77.7002 39.375 78.2891 39.9287 79.1416 39.9287C79.7129 39.9287 80.0732 39.6826 80.249 39.3838H81.0576C80.8291 40.1045 80.126 40.5967 79.1416 40.5967ZM77.6738 37.7227H80.3633C80.3633 36.9229 79.8535 36.334 79.0713 36.334C78.2451 36.334 77.7178 36.9844 77.6738 37.7227ZM84.248 35.7275V36.3604H83.1934V40.5H82.4287V36.3604H81.6641V35.7275H82.4287V35.0771C82.4287 34.3037 82.9473 33.8379 83.791 33.8379C83.9756 33.8379 84.1953 33.8643 84.3535 33.8906V34.5674C84.1953 34.541 84.0547 34.5322 83.958 34.5322C83.4307 34.5322 83.1934 34.752 83.1934 35.2441V35.7275H84.248ZM86.8936 40.5967C85.5928 40.5967 84.7139 39.6211 84.7139 38.1357C84.7139 36.6504 85.5928 35.666 86.8936 35.666C88.1855 35.666 89.0557 36.6504 89.0557 38.1357C89.0557 39.6211 88.1855 40.5967 86.8936 40.5967ZM86.8936 39.9287C87.8516 39.9287 88.2998 39.085 88.2998 38.1357C88.2998 37.1865 87.8516 36.334 86.8936 36.334C85.918 36.334 85.4697 37.1865 85.4697 38.1357C85.4697 39.085 85.918 39.9287 86.8936 39.9287ZM90.0488 40.5V35.7275H90.7783V36.457H90.8311C91.0068 35.9736 91.499 35.6484 92.0615 35.6484C92.1758 35.6484 92.3691 35.6572 92.457 35.666V36.4307C92.4043 36.4131 92.1934 36.3779 92 36.3779C91.3145 36.3779 90.8047 36.8525 90.8047 37.4941V40.5H90.0488ZM95.041 40.5967C93.6611 40.5967 92.8086 39.6211 92.8086 38.1533C92.8086 36.6855 93.6699 35.666 94.9707 35.666C95.9727 35.666 97.0273 36.2812 97.0273 38.0479V38.3643H93.5645C93.5996 39.375 94.1885 39.9287 95.041 39.9287C95.6123 39.9287 95.9727 39.6826 96.1484 39.3838H96.957C96.7285 40.1045 96.0254 40.5967 95.041 40.5967ZM93.5732 37.7227H96.2627C96.2627 36.9229 95.7529 36.334 94.9707 36.334C94.1445 36.334 93.6172 36.9844 93.5732 37.7227ZM99.6729 38.0742C99.6641 39.7354 99.2158 41.1152 98.4072 42.293H97.7393C98.3369 41.4229 98.8906 39.6387 98.8906 38.0742C98.8906 36.5098 98.3369 34.7344 97.7393 33.8643H98.4072C99.2158 35.0332 99.6641 36.4131 99.6729 38.0742Z" fill="#9A9090"/>
<path d="M106.645 46.5H26.6445C23.3308 46.5 20.6445 49.1863 20.6445 52.5V120.5C20.6445 123.814 23.3308 126.5 26.6445 126.5H106.645C109.958 126.5 112.645 123.814 112.645 120.5V52.5C112.645 49.1863 109.958 46.5 106.645 46.5Z" fill="white" stroke="#E2E2E2"/>
<path d="M43.668 69.7148C40.252 69.7148 37.8027 67.8242 37.7383 65.1172H41.0039C41.0684 66.2773 42.1855 67.0508 43.6895 67.0508C45.2363 67.0508 46.3535 66.1699 46.332 64.9238C46.3535 63.6562 45.2148 62.7539 43.3887 62.7539H41.9492V60.3691H43.3887C44.9141 60.3691 45.9883 59.5312 45.9883 58.3066C45.9883 57.125 45.0859 56.3086 43.7109 56.3086C42.3359 56.3086 41.1973 57.082 41.1543 58.2637H38.0605C38.1035 55.5781 40.5312 53.7305 43.7109 53.7305C46.9551 53.7305 49.125 55.6426 49.1035 58.1133C49.125 59.8535 47.9004 61.0996 46.1602 61.4004V61.5293C48.4375 61.8086 49.7051 63.2051 49.6836 65.1387C49.7051 67.8027 47.1699 69.7148 43.668 69.7148ZM51.9609 69.5L51.9395 67.1582L57.5254 62.0234C58.9863 60.627 59.7598 59.7676 59.7598 58.543C59.7598 57.168 58.707 56.3086 57.2891 56.3086C55.8281 56.3086 54.8828 57.2324 54.8828 58.7148H51.8105C51.7891 55.6641 54.0449 53.7305 57.332 53.7305C60.6621 53.7305 62.875 55.6211 62.875 58.3281C62.875 60.0898 62.0156 61.5508 58.8145 64.4512L56.4512 66.75V66.8359H63.0898V69.5H51.9609Z" fill="#1A1C1C"/>
<path d="M75.6602 64.4688V65.1885H66.916V64.4688H70.8369V62.2666H67.7109V61.5898H69.2041V58.4531H67.6895V57.7549H74.8223V58.4531H73.3076V61.5898H74.8008V62.2666H71.6641V64.4688H75.6602ZM70.042 61.5898H72.4805V58.4531H70.042V61.5898ZM84.3076 56.8311V63.8135H83.4697V56.8311H84.3076ZM84.6084 65.457V66.166H78.1416V63.1045H78.9795V65.457H84.6084ZM79.1514 57.4971C80.5801 57.4971 81.6543 58.4639 81.6543 59.8389C81.6543 61.2354 80.5801 62.1914 79.1514 62.1914C77.7227 62.1914 76.6484 61.2354 76.6484 59.8389C76.6484 58.4639 77.7227 57.4971 79.1514 57.4971ZM79.1514 58.2383C78.1846 58.2383 77.4648 58.9043 77.4756 59.8389C77.4648 60.7949 78.1846 61.4502 79.1514 61.4502C80.0967 61.4502 80.8271 60.7949 80.8271 59.8389C80.8271 58.9043 80.0967 58.2383 79.1514 58.2383ZM93.6641 61.9873V62.6748H87.0576V57.6475H93.5566V58.3564H87.917V59.7744H93.3525V60.4512H87.917V61.9873H93.6641ZM94.6738 64.4258V65.124H85.9297V64.4258H94.6738Z" fill="#5F5E5E"/>
<path opacity="0.6" d="M20.6445 102.5H112.645" stroke="#C4876A" stroke-dasharray="3 2"/>
<path d="M47.5986 130.398V138.212H46.9043V130.398H47.5986ZM45.2871 131.251C45.2783 133.501 44.2324 135.487 41.6133 136.744L41.2354 136.182C43.3491 135.18 44.4258 133.681 44.584 131.813H41.5957V131.251H45.2871ZM52.9248 131.374C52.916 132.332 54.2344 133.114 55.6143 133.308L55.3418 133.853C54.0806 133.672 52.9028 133.04 52.4766 132.121C52.0547 133.04 50.8813 133.672 49.6113 133.853L49.3564 133.308C50.7363 133.114 52.0283 132.332 52.0283 131.374V131.356H49.5674V130.794H55.4033V131.356H52.9248V131.374ZM56.0625 134.424V134.995H52.8809V136.595H52.1953V134.995H48.9082V134.424H56.0625ZM55.2627 137.465V138.045H49.8223V135.812H50.5166V137.465H55.2627ZM59.3672 131.875C59.3672 132.965 60.1582 133.993 61.3008 134.406L60.9141 134.942C60.0571 134.6 59.376 133.918 59.042 133.07C58.708 134.015 57.9961 134.767 57.0732 135.136L56.7041 134.573C57.873 134.143 58.6816 133.053 58.6904 131.849V130.882H59.3672V131.875ZM63.1729 130.407V136.261H62.4785V132.824H60.7383V132.244H62.4785V130.407H63.1729ZM63.3486 137.465V138.045H58.1191V135.593H58.8135V137.465H63.3486ZM72.8408 130.398V132.78H74.0186V133.36H72.8408V136.164H72.1553V130.398H72.8408ZM73.2012 137.465V138.045H67.9541V135.566H68.6309V137.465H73.2012ZM68.9297 130.952C70.0986 130.952 70.9775 131.743 70.9863 132.877C70.9775 134.011 70.0986 134.802 68.9297 134.802C67.7607 134.802 66.873 134.011 66.8818 132.877C66.873 131.743 67.7607 130.952 68.9297 130.952ZM68.9297 131.559C68.1562 131.559 67.5498 132.104 67.5586 132.877C67.5498 133.65 68.1562 134.195 68.9297 134.195C69.7207 134.195 70.3096 133.65 70.3096 132.877C70.3096 132.104 69.7207 131.559 68.9297 131.559ZM80.7158 130.935V134.274H77.1035V130.935H80.7158ZM77.7803 131.497V133.712H80.0479V131.497H77.7803ZM82.8779 130.398V132.279H84.0557V132.859H82.8779V134.863H82.1924V130.398H82.8779ZM83.0186 135.32V135.883H80.8037C80.8784 136.718 82.043 137.447 83.3174 137.649L83.0625 138.186C81.9199 137.997 80.8828 137.43 80.4346 136.647C79.9907 137.434 78.9624 137.992 77.8242 138.177L77.5605 137.649C78.8525 137.447 79.9951 136.731 80.083 135.883H77.8682V135.32H83.0186ZM88.1074 130.574C89.8037 130.574 90.8672 131.119 90.8672 132.06C90.8672 132.982 89.8037 133.519 88.1074 133.519C86.4111 133.519 85.3389 132.982 85.3389 132.06C85.3389 131.119 86.4111 130.574 88.1074 130.574ZM88.1074 131.128C86.8418 131.128 86.042 131.479 86.0508 132.06C86.042 132.631 86.8418 132.965 88.1074 132.974C89.3555 132.965 90.1641 132.631 90.1641 132.06C90.1641 131.479 89.3555 131.128 88.1074 131.128ZM90.7969 135.54V138.106H85.418V135.54H90.7969ZM86.1035 136.094V137.544H90.1201V136.094H86.1035ZM91.667 134.195V134.767H84.5479V134.195H91.667Z" fill="#C4876A"/>
<path d="M237.391 40.5V34.1367H239.624C240.959 34.1367 241.583 34.8838 241.583 35.8242C241.583 36.6416 241.1 37.0107 240.546 37.1602V37.2217C241.135 37.2568 241.838 37.8018 241.838 38.8125C241.838 39.7705 241.206 40.5 239.703 40.5H237.391ZM239.694 39.7969C240.687 39.7969 241.074 39.3574 241.074 38.8037C241.074 38.1533 240.555 37.6084 239.738 37.6084H238.182V39.7969H239.694ZM239.597 36.9229C240.283 36.9229 240.828 36.501 240.828 35.833C240.828 35.2793 240.458 34.8398 239.624 34.8398H238.182V36.9229H239.597ZM242.638 39.1465C242.638 38.0479 243.605 37.8018 244.431 37.7402C244.734 37.7183 245.508 37.6787 245.723 37.6699V37.2832C245.723 36.6768 245.363 36.3252 244.642 36.3252C244.036 36.3252 243.675 36.6064 243.57 36.9668H242.779C242.875 36.2021 243.623 35.666 244.677 35.666C245.301 35.666 246.47 35.8506 246.47 37.3535V40.5H245.723V39.8496H245.688C245.53 40.1748 245.09 40.6143 244.264 40.6143C243.359 40.6143 242.638 40.0781 242.638 39.1465ZM243.394 39.1816C243.394 39.6826 243.816 39.9375 244.396 39.9375C245.249 39.9375 245.723 39.3662 245.723 38.7686V38.2852L244.519 38.373C243.833 38.417 243.394 38.6631 243.394 39.1816ZM250.337 36.9668C250.232 36.5713 249.933 36.3076 249.371 36.3076C248.782 36.3076 248.36 36.624 248.36 37.0283C248.36 37.3447 248.615 37.5645 249.177 37.6963L249.889 37.8721C250.742 38.0742 251.164 38.4961 251.164 39.1641C251.164 39.9902 250.487 40.5967 249.292 40.5967C248.219 40.5967 247.578 40.1221 247.455 39.252H248.246C248.333 39.7178 248.676 39.9375 249.274 39.9375C249.951 39.9375 250.381 39.6562 250.381 39.208C250.381 38.874 250.144 38.6455 249.599 38.5225L248.878 38.3555C248.043 38.1621 247.604 37.7051 247.604 37.0723C247.604 36.2549 248.316 35.666 249.371 35.666C250.355 35.666 250.979 36.1934 251.076 36.9668H250.337ZM254.152 40.5967C252.772 40.5967 251.919 39.6211 251.919 38.1533C251.919 36.6855 252.781 35.666 254.082 35.666C255.083 35.666 256.138 36.2812 256.138 38.0479V38.3643H252.675C252.71 39.375 253.299 39.9287 254.152 39.9287C254.723 39.9287 255.083 39.6826 255.259 39.3838H256.068C255.839 40.1045 255.136 40.5967 254.152 40.5967ZM252.684 37.7227H255.374C255.374 36.9229 254.864 36.334 254.082 36.334C253.255 36.334 252.728 36.9844 252.684 37.7227ZM257.878 34.1367V40.5H257.123V34.1367H257.878ZM259.083 40.5V35.7275H259.838V40.5H259.083ZM259.46 34.9365C259.17 34.9365 258.933 34.7168 258.933 34.4355C258.933 34.1543 259.17 33.9346 259.46 33.9346C259.75 33.9346 259.997 34.1543 259.997 34.4355C259.997 34.7168 259.75 34.9365 259.46 34.9365ZM261.798 37.6348V40.5H261.042V35.7275H261.772V36.4746H261.833C262.062 35.9912 262.501 35.666 263.231 35.666C264.198 35.666 264.839 36.2549 264.839 37.4678V40.5H264.083V37.5205C264.083 36.7822 263.679 36.3428 263.002 36.3428C262.308 36.3428 261.798 36.8086 261.798 37.6348ZM268.056 40.5967C266.676 40.5967 265.824 39.6211 265.824 38.1533C265.824 36.6855 266.685 35.666 267.986 35.666C268.988 35.666 270.042 36.2812 270.042 38.0479V38.3643H266.58C266.615 39.375 267.204 39.9287 268.056 39.9287C268.627 39.9287 268.988 39.6826 269.164 39.3838H269.972C269.744 40.1045 269.041 40.5967 268.056 40.5967ZM266.588 37.7227H269.278C269.278 36.9229 268.768 36.334 267.986 36.334C267.16 36.334 266.632 36.9844 266.588 37.7227ZM279.473 33.3984V38.0566H278.779V36.0088H277.206V35.4375H278.779V33.3984H279.473ZM276.88 38.3027C278.506 38.3027 279.5 38.8301 279.5 39.7529C279.5 40.6758 278.506 41.2031 276.88 41.2119C275.254 41.2031 274.261 40.6758 274.261 39.7529C274.261 38.8301 275.254 38.3027 276.88 38.3027ZM276.88 38.8389C275.685 38.8389 274.938 39.1816 274.947 39.7529C274.938 40.3154 275.685 40.6582 276.88 40.6582C278.076 40.6582 278.814 40.3154 278.814 39.7529C278.814 39.1816 278.076 38.8389 276.88 38.8389ZM275.711 34.8311C275.711 35.8506 276.494 36.8174 277.636 37.2129L277.276 37.7666C276.397 37.4502 275.716 36.7954 275.386 35.9824C275.043 36.9009 274.318 37.6348 273.391 37.9863L273.031 37.4326C274.191 37.0107 275.017 35.9561 275.017 34.8398V34.5498H273.25V33.9697H277.46V34.5498H275.711V34.8311ZM284.483 33.7852V35.7363H281.793V36.6855C282.936 36.6943 283.833 36.6636 284.94 36.501L284.993 37.0459C283.824 37.2217 282.892 37.248 281.662 37.248H281.108V35.2002H283.797V34.3213H281.09V33.7852H284.483ZM287.251 37.8984V39.7354H282.839V40.6055H287.559V41.1504H282.154V39.2168H286.566V38.4346H282.136V37.8984H287.251ZM287.251 33.3984V37.5205H286.557V36.3252H285.001V35.7539H286.557V34.9277H285.001V34.3652H286.557V33.3984H287.251ZM291.294 38.0742C291.303 36.4131 291.751 35.0332 292.56 33.8643H293.228C292.63 34.7344 292.077 36.5098 292.077 38.0742C292.077 39.6387 292.63 41.4229 293.228 42.293H292.56C291.751 41.1152 291.303 39.7354 291.294 38.0742ZM294.546 40.5H293.72L296.049 34.1367H296.884L299.213 40.5H298.378L297.746 38.707H295.188L294.546 40.5ZM295.425 38.0127H297.5L296.489 35.165H296.436L295.425 38.0127ZM302.105 35.7275V36.3604H301.05V40.5H300.286V36.3604H299.521V35.7275H300.286V35.0771C300.286 34.3037 300.804 33.8379 301.648 33.8379C301.833 33.8379 302.052 33.8643 302.21 33.8906V34.5674C302.052 34.541 301.912 34.5322 301.815 34.5322C301.288 34.5322 301.05 34.752 301.05 35.2441V35.7275H302.105ZM305.084 35.7275V36.3604H304.083V39.1289C304.083 39.7441 304.381 39.8408 304.707 39.8408C304.847 39.8408 305.041 39.832 305.155 39.8232V40.5264C305.041 40.5439 304.847 40.5615 304.627 40.5615C303.995 40.5615 303.318 40.166 303.318 39.3223V36.3604H302.597V35.7275H303.318V34.585H304.083V35.7275H305.084ZM308.011 40.5967C306.631 40.5967 305.779 39.6211 305.779 38.1533C305.779 36.6855 306.64 35.666 307.941 35.666C308.943 35.666 309.998 36.2812 309.998 38.0479V38.3643H306.535C306.57 39.375 307.159 39.9287 308.011 39.9287C308.583 39.9287 308.943 39.6826 309.119 39.3838H309.927C309.699 40.1045 308.996 40.5967 308.011 40.5967ZM306.543 37.7227H309.233C309.233 36.9229 308.723 36.334 307.941 36.334C307.115 36.334 306.587 36.9844 306.543 37.7227ZM310.982 40.5V35.7275H311.711V36.457H311.764C311.94 35.9736 312.432 35.6484 312.995 35.6484C313.109 35.6484 313.302 35.6572 313.39 35.666V36.4307C313.337 36.4131 313.126 36.3779 312.933 36.3779C312.248 36.3779 311.738 36.8525 311.738 37.4941V40.5H310.982ZM315.79 38.0742C315.781 39.7354 315.333 41.1152 314.524 42.293H313.856C314.454 41.4229 315.007 39.6387 315.007 38.0742C315.007 36.5098 314.454 34.7344 313.856 33.8643H314.524C315.333 35.0332 315.781 36.4131 315.79 38.0742Z" fill="#9A9090"/>
<path d="M316.67 46.5H236.67C233.356 46.5 230.67 49.1863 230.67 52.5V120.5C230.67 123.814 233.356 126.5 236.67 126.5H316.67C319.984 126.5 322.67 123.814 322.67 120.5V52.5C322.67 49.1863 319.984 46.5 316.67 46.5Z" fill="white" stroke="#E2E2E2"/>
<path d="M253.32 91.7148C249.904 91.7148 247.455 89.8242 247.391 87.1172H250.656C250.721 88.2773 251.838 89.0508 253.342 89.0508C254.889 89.0508 256.006 88.1699 255.984 86.9238C256.006 85.6562 254.867 84.7539 253.041 84.7539H251.602V82.3691H253.041C254.566 82.3691 255.641 81.5312 255.641 80.3066C255.641 79.125 254.738 78.3086 253.363 78.3086C251.988 78.3086 250.85 79.082 250.807 80.2637H247.713C247.756 77.5781 250.184 75.7305 253.363 75.7305C256.607 75.7305 258.777 77.6426 258.756 80.1133C258.777 81.8535 257.553 83.0996 255.812 83.4004V83.5293C258.09 83.8086 259.357 85.2051 259.336 87.1387C259.357 89.8027 256.822 91.7148 253.32 91.7148ZM261.613 91.5L261.592 89.1582L267.178 84.0234C268.639 82.627 269.412 81.7676 269.412 80.543C269.412 79.168 268.359 78.3086 266.941 78.3086C265.48 78.3086 264.535 79.2324 264.535 80.7148H261.463C261.441 77.6641 263.697 75.7305 266.984 75.7305C270.314 75.7305 272.527 77.6211 272.527 80.3281C272.527 82.0898 271.668 83.5508 268.467 86.4512L266.104 88.75V88.8359H272.742V91.5H261.613Z" fill="#1A1C1C"/>
<path d="M287.551 90.4688V91.1885H278.807V90.4688H282.728V88.2666H279.602V87.5898H281.095V84.4531H279.58V83.7549H286.713V84.4531H285.198V87.5898H286.691V88.2666H283.555V90.4688H287.551ZM281.933 87.5898H284.371V84.4531H281.933V87.5898ZM296.198 82.8311V89.8135H295.36V82.8311H296.198ZM296.499 91.457V92.166H290.032V89.1045H290.87V91.457H296.499ZM291.042 83.4971C292.471 83.4971 293.545 84.4639 293.545 85.8389C293.545 87.2354 292.471 88.1914 291.042 88.1914C289.613 88.1914 288.539 87.2354 288.539 85.8389C288.539 84.4639 289.613 83.4971 291.042 83.4971ZM291.042 84.2383C290.075 84.2383 289.355 84.9043 289.366 85.8389C289.355 86.7949 290.075 87.4502 291.042 87.4502C291.987 87.4502 292.718 86.7949 292.718 85.8389C292.718 84.9043 291.987 84.2383 291.042 84.2383ZM305.555 87.9873V88.6748H298.948V83.6475H305.447V84.3564H299.808V85.7744H305.243V86.4512H299.808V87.9873H305.555ZM306.564 90.4258V91.124H297.82V90.4258H306.564Z" fill="#5F5E5E"/>
<path opacity="0.7" d="M230.67 92.5H322.67" stroke="#8FAF8A" stroke-width="1.5"/>
<path d="M253.983 130.398V138.212H253.289V130.398H253.983ZM251.671 131.251C251.663 133.501 250.617 135.487 247.998 136.744L247.62 136.182C249.733 135.18 250.81 133.681 250.968 131.813H247.98V131.251H251.671ZM259.309 131.374C259.3 132.332 260.619 133.114 261.999 133.308L261.726 133.853C260.465 133.672 259.287 133.04 258.861 132.121C258.439 133.04 257.266 133.672 255.996 133.853L255.741 133.308C257.121 133.114 258.413 132.332 258.413 131.374V131.356H255.952V130.794H261.788V131.356H259.309V131.374ZM262.447 134.424V134.995H259.265V136.595H258.58V134.995H255.292V134.424H262.447ZM261.647 137.465V138.045H256.207V135.812H256.901V137.465H261.647ZM265.751 131.875C265.751 132.965 266.542 133.993 267.685 134.406L267.298 134.942C266.441 134.6 265.76 133.918 265.426 133.07C265.092 134.015 264.38 134.767 263.458 135.136L263.088 134.573C264.257 134.143 265.066 133.053 265.075 131.849V130.882H265.751V131.875ZM269.557 130.407V136.261H268.863V132.824H267.123V132.244H268.863V130.407H269.557ZM269.733 137.465V138.045H264.503V135.593H265.198V137.465H269.733ZM279.594 130.398V135.057H278.9V133.009H277.327V132.438H278.9V130.398H279.594ZM277.001 135.303C278.627 135.303 279.621 135.83 279.621 136.753C279.621 137.676 278.627 138.203 277.001 138.212C275.375 138.203 274.382 137.676 274.382 136.753C274.382 135.83 275.375 135.303 277.001 135.303ZM277.001 135.839C275.806 135.839 275.059 136.182 275.068 136.753C275.059 137.315 275.806 137.658 277.001 137.658C278.197 137.658 278.935 137.315 278.935 136.753C278.935 136.182 278.197 135.839 277.001 135.839ZM275.833 131.831C275.833 132.851 276.615 133.817 277.757 134.213L277.397 134.767C276.518 134.45 275.837 133.795 275.507 132.982C275.165 133.901 274.439 134.635 273.512 134.986L273.152 134.433C274.312 134.011 275.138 132.956 275.138 131.84V131.55H273.372V130.97H277.582V131.55H275.833V131.831ZM284.604 130.785V132.736H281.915V133.686C283.057 133.694 283.954 133.664 285.061 133.501L285.114 134.046C283.945 134.222 283.013 134.248 281.783 134.248H281.229V132.2H283.918V131.321H281.211V130.785H284.604ZM287.373 134.898V136.735H282.96V137.605H287.68V138.15H282.275V136.217H286.687V135.435H282.257V134.898H287.373ZM287.373 130.398V134.521H286.678V133.325H285.123V132.754H286.678V131.928H285.123V131.365H286.678V130.398H287.373ZM295.125 130.407V135.153H294.439V130.407H295.125ZM288.726 134.266C289.385 134.266 290.15 134.261 290.95 134.23V133.299H289.42V130.838H293.208V131.409H290.115V132.736H293.27V133.299H291.644V134.204C292.374 134.165 293.107 134.103 293.797 134.011L293.841 134.512C292.127 134.793 290.22 134.811 288.814 134.811L288.726 134.266ZM295.125 135.54V138.106H289.983V135.54H295.125ZM290.66 136.094V137.544H294.457V136.094H290.66ZM299.167 134.635L299.66 134.134L301.294 135.742L304.678 132.376L305.179 132.868L301.294 136.744L299.167 134.635Z" fill="#8FAF8A"/>
<path d="M102.159 144.845C102.338 144.942 102.478 145.073 102.579 145.235C102.68 145.395 102.73 145.582 102.73 145.797C102.73 146.093 102.672 146.354 102.555 146.578C102.438 146.803 102.285 146.992 102.096 147.145C101.904 147.301 101.686 147.431 101.441 147.535C101.201 147.636 100.956 147.711 100.709 147.76V147.804C100.898 147.826 101.093 147.872 101.295 147.94C101.497 148.006 101.679 148.093 101.842 148.204C102.014 148.318 102.154 148.466 102.262 148.648C102.372 148.827 102.428 149.041 102.428 149.288C102.428 149.656 102.341 149.981 102.169 150.265C102 150.545 101.785 150.772 101.524 150.948C101.244 151.137 100.943 151.277 100.621 151.368C100.302 151.456 99.9733 151.5 99.6348 151.5H96.251L96.3291 151.178C96.4072 151.171 96.5244 151.158 96.6807 151.139C96.8369 151.116 96.9492 151.09 97.0176 151.061C97.1315 151.015 97.2178 150.953 97.2764 150.875C97.3382 150.794 97.3822 150.696 97.4082 150.582L98.5654 145.553C98.5719 145.52 98.5768 145.489 98.5801 145.46C98.5866 145.427 98.5898 145.395 98.5898 145.362C98.5898 145.294 98.5752 145.235 98.5459 145.187C98.5199 145.134 98.4727 145.09 98.4043 145.055C98.3099 145.003 98.209 144.965 98.1016 144.942C97.9974 144.916 97.8997 144.9 97.8086 144.894L97.8867 144.571H100.943C101.174 144.571 101.389 144.592 101.588 144.635C101.79 144.674 101.98 144.744 102.159 144.845ZM101.124 147.096C101.277 146.917 101.386 146.728 101.451 146.529C101.52 146.327 101.554 146.1 101.554 145.846C101.554 145.673 101.523 145.527 101.461 145.406C101.399 145.286 101.314 145.19 101.207 145.118C101.1 145.05 100.981 145.003 100.851 144.977C100.72 144.947 100.584 144.933 100.44 144.933C100.333 144.933 100.213 144.936 100.079 144.942C99.9489 144.946 99.8382 144.949 99.7471 144.952L99.127 147.647H99.7373C100.056 147.647 100.331 147.597 100.562 147.496C100.797 147.395 100.984 147.262 101.124 147.096ZM100.807 150.445C100.947 150.253 101.052 150.043 101.124 149.815C101.196 149.588 101.231 149.363 101.231 149.142C101.231 148.793 101.114 148.52 100.88 148.321C100.646 148.123 100.317 148.023 99.8936 148.023C99.6885 148.023 99.5127 148.027 99.3662 148.033C99.2197 148.036 99.109 148.04 99.0342 148.043L98.4824 150.431C98.4727 150.476 98.4645 150.519 98.458 150.558C98.4548 150.597 98.4531 150.634 98.4531 150.67C98.4531 150.839 98.5394 150.961 98.7119 151.036C98.8844 151.111 99.1042 151.148 99.3711 151.148C99.6999 151.148 99.9847 151.082 100.226 150.948C100.47 150.812 100.663 150.644 100.807 150.445ZM106.334 150.855H106.3C106.228 150.914 106.142 150.989 106.041 151.08C105.943 151.168 105.828 151.253 105.694 151.334C105.567 151.415 105.429 151.485 105.279 151.544C105.13 151.606 104.967 151.637 104.791 151.637C104.319 151.637 103.948 151.467 103.678 151.129C103.411 150.79 103.277 150.328 103.277 149.742C103.277 149.339 103.352 148.946 103.502 148.565C103.652 148.185 103.858 147.843 104.122 147.54C104.373 147.25 104.671 147.018 105.016 146.842C105.361 146.663 105.715 146.573 106.08 146.573C106.311 146.573 106.531 146.604 106.739 146.666C106.951 146.728 107.117 146.798 107.237 146.876L108.131 146.646L108.189 146.72L107.447 149.869C107.421 149.97 107.394 150.094 107.364 150.24C107.338 150.383 107.325 150.489 107.325 150.558C107.325 150.743 107.364 150.868 107.442 150.934C107.521 150.999 107.652 151.031 107.838 151.031C107.9 151.031 107.988 151.021 108.102 151.002C108.215 150.982 108.303 150.961 108.365 150.938L108.292 151.251C107.999 151.368 107.781 151.453 107.638 151.505C107.494 151.557 107.32 151.583 107.115 151.583C106.881 151.583 106.695 151.515 106.559 151.378C106.422 151.241 106.347 151.067 106.334 150.855ZM107.032 147.77C107.032 147.662 107.021 147.56 106.998 147.462C106.975 147.364 106.928 147.273 106.856 147.188C106.791 147.107 106.702 147.042 106.588 146.993C106.474 146.944 106.331 146.92 106.158 146.92C105.921 146.92 105.689 146.998 105.465 147.154C105.24 147.311 105.038 147.521 104.859 147.784C104.69 148.032 104.552 148.331 104.444 148.683C104.337 149.034 104.283 149.391 104.283 149.752C104.283 149.951 104.295 150.126 104.317 150.279C104.34 150.432 104.384 150.572 104.449 150.699C104.511 150.823 104.601 150.919 104.718 150.987C104.835 151.056 104.983 151.09 105.162 151.09C105.344 151.09 105.535 151.039 105.733 150.938C105.935 150.834 106.161 150.654 106.412 150.396L107.032 147.77ZM110.436 151.642C109.954 151.642 109.552 151.557 109.229 151.388C108.91 151.215 108.751 150.991 108.751 150.714C108.751 150.584 108.798 150.462 108.893 150.348C108.987 150.234 109.103 150.177 109.239 150.177C109.369 150.177 109.474 150.208 109.552 150.27C109.633 150.328 109.697 150.398 109.742 150.479C109.791 150.564 109.833 150.665 109.869 150.782C109.908 150.899 109.941 150.995 109.967 151.07C110.016 151.126 110.082 151.178 110.167 151.227C110.255 151.272 110.38 151.295 110.543 151.295C110.895 151.295 111.16 151.207 111.339 151.031C111.521 150.855 111.612 150.618 111.612 150.318C111.612 150.097 111.528 149.921 111.358 149.791C111.189 149.658 110.937 149.535 110.602 149.425C110.481 149.386 110.34 149.327 110.177 149.249C110.014 149.168 109.884 149.081 109.786 148.99C109.669 148.886 109.575 148.762 109.503 148.619C109.431 148.476 109.396 148.307 109.396 148.111C109.396 147.695 109.581 147.335 109.952 147.032C110.326 146.726 110.785 146.573 111.329 146.573C111.456 146.573 111.593 146.58 111.739 146.593C111.886 146.606 112.047 146.642 112.223 146.7C112.376 146.752 112.506 146.83 112.613 146.935C112.721 147.035 112.774 147.167 112.774 147.33C112.774 147.464 112.729 147.586 112.638 147.696C112.55 147.804 112.433 147.857 112.286 147.857C112.166 147.857 112.066 147.831 111.988 147.779C111.91 147.727 111.845 147.657 111.793 147.569C111.741 147.481 111.699 147.387 111.666 147.286C111.633 147.185 111.598 147.086 111.559 146.988C111.497 146.962 111.441 146.944 111.393 146.935C111.344 146.925 111.279 146.92 111.197 146.92C110.878 146.92 110.636 147.006 110.47 147.179C110.307 147.348 110.226 147.55 110.226 147.784C110.226 148.012 110.299 148.185 110.445 148.302C110.595 148.416 110.841 148.535 111.183 148.658C111.625 148.818 111.946 149 112.145 149.205C112.346 149.41 112.447 149.664 112.447 149.967C112.447 150.462 112.257 150.865 111.876 151.178C111.495 151.487 111.015 151.642 110.436 151.642ZM117.506 147.589C117.506 147.934 117.397 148.23 117.179 148.478C116.964 148.725 116.65 148.922 116.236 149.068C115.934 149.179 115.628 149.269 115.318 149.337C115.009 149.405 114.667 149.462 114.293 149.508C114.293 150.022 114.387 150.416 114.576 150.689C114.768 150.96 115.048 151.095 115.416 151.095C115.742 151.095 116.028 151.013 116.275 150.851C116.526 150.688 116.772 150.445 117.013 150.123L117.291 150.328C117.031 150.725 116.705 151.043 116.314 151.28C115.924 151.518 115.519 151.637 115.099 151.637C114.522 151.637 114.081 151.476 113.775 151.153C113.473 150.831 113.321 150.374 113.321 149.781C113.321 149.371 113.385 148.98 113.512 148.609C113.642 148.235 113.831 147.893 114.078 147.584C114.319 147.281 114.614 147.037 114.962 146.852C115.313 146.666 115.701 146.573 116.124 146.573C116.593 146.573 116.939 146.669 117.164 146.861C117.392 147.05 117.506 147.293 117.506 147.589ZM116.607 147.467C116.607 147.34 116.59 147.241 116.554 147.169C116.518 147.094 116.472 147.039 116.417 147.003C116.358 146.964 116.297 146.939 116.231 146.93C116.166 146.92 116.1 146.915 116.031 146.915C115.641 146.915 115.279 147.13 114.947 147.56C114.618 147.989 114.41 148.525 114.322 149.166C114.55 149.133 114.807 149.088 115.094 149.029C115.38 148.967 115.618 148.888 115.807 148.79C116.077 148.65 116.277 148.471 116.407 148.253C116.541 148.032 116.607 147.77 116.607 147.467ZM120.631 144.015L119.269 149.894C119.239 150.017 119.212 150.141 119.186 150.265C119.16 150.388 119.146 150.489 119.146 150.567C119.146 150.753 119.187 150.88 119.269 150.948C119.353 151.017 119.488 151.051 119.674 151.051C119.739 151.051 119.835 151.043 119.962 151.026C120.092 151.01 120.19 150.991 120.255 150.968L120.182 151.28C119.889 151.397 119.662 151.48 119.503 151.529C119.347 151.578 119.169 151.603 118.971 151.603C118.71 151.603 118.512 151.536 118.375 151.402C118.242 151.266 118.175 151.098 118.175 150.899C118.175 150.825 118.181 150.746 118.194 150.665C118.211 150.584 118.232 150.481 118.258 150.357L119.444 145.216C119.467 145.115 119.482 145.045 119.488 145.006C119.498 144.967 119.503 144.918 119.503 144.859C119.503 144.742 119.483 144.653 119.444 144.591C119.405 144.526 119.35 144.477 119.278 144.444C119.21 144.415 119.124 144.396 119.02 144.386C118.915 144.376 118.81 144.365 118.702 144.352L118.771 144.054L120.582 143.941L120.631 144.015ZM123.243 150.968L123.17 151.28C122.87 151.401 122.631 151.484 122.452 151.529C122.273 151.578 122.12 151.603 121.993 151.603C121.733 151.603 121.537 151.536 121.407 151.402C121.277 151.266 121.212 151.098 121.212 150.899C121.212 150.825 121.218 150.746 121.231 150.665C121.244 150.584 121.266 150.481 121.295 150.357L121.812 148.282C121.839 148.168 121.863 148.046 121.886 147.916C121.912 147.786 121.925 147.675 121.925 147.584C121.925 147.402 121.894 147.281 121.832 147.223C121.773 147.161 121.651 147.13 121.466 147.13C121.394 147.13 121.298 147.141 121.178 147.164C121.061 147.187 120.971 147.206 120.909 147.223L120.982 146.91C121.236 146.796 121.464 146.712 121.666 146.656C121.868 146.601 122.027 146.573 122.145 146.573C122.411 146.573 122.605 146.637 122.726 146.764C122.846 146.891 122.906 147.062 122.906 147.276C122.906 147.335 122.9 147.415 122.887 147.516C122.874 147.617 122.854 147.717 122.828 147.818L122.306 149.894C122.273 150.021 122.244 150.146 122.218 150.27C122.195 150.39 122.184 150.489 122.184 150.567C122.184 150.753 122.224 150.88 122.306 150.948C122.39 151.017 122.525 151.051 122.711 151.051C122.773 151.051 122.861 151.043 122.975 151.026C123.092 151.01 123.181 150.991 123.243 150.968ZM123.59 144.728C123.59 144.913 123.53 145.076 123.409 145.216C123.289 145.353 123.139 145.421 122.96 145.421C122.794 145.421 122.651 145.356 122.53 145.226C122.41 145.092 122.35 144.941 122.35 144.771C122.35 144.592 122.41 144.436 122.53 144.303C122.651 144.169 122.794 144.103 122.96 144.103C123.146 144.103 123.297 144.166 123.414 144.293C123.531 144.417 123.59 144.562 123.59 144.728ZM129.142 150.934L129.068 151.246C128.775 151.363 128.548 151.448 128.385 151.5C128.222 151.555 128.058 151.583 127.892 151.583C127.631 151.583 127.436 151.516 127.306 151.383C127.175 151.246 127.11 151.078 127.11 150.88C127.11 150.808 127.117 150.73 127.13 150.646C127.143 150.558 127.164 150.455 127.193 150.338L127.672 148.517C127.708 148.377 127.735 148.25 127.755 148.136C127.778 148.022 127.789 147.931 127.789 147.862C127.789 147.644 127.737 147.472 127.633 147.345C127.529 147.218 127.374 147.154 127.169 147.154C126.97 147.154 126.747 147.219 126.5 147.35C126.253 147.48 126.02 147.669 125.802 147.916L124.977 151.5H124.068L124.796 148.336C124.812 148.258 124.835 148.146 124.864 147.999C124.897 147.849 124.913 147.729 124.913 147.638C124.913 147.455 124.882 147.333 124.82 147.271C124.758 147.21 124.635 147.179 124.449 147.179C124.378 147.179 124.286 147.192 124.176 147.218C124.065 147.241 123.979 147.26 123.917 147.276L123.99 146.964C124.244 146.85 124.469 146.765 124.664 146.71C124.859 146.655 125.027 146.627 125.167 146.627C125.424 146.627 125.608 146.697 125.719 146.837C125.829 146.977 125.888 147.171 125.895 147.418H125.924C126.282 147.132 126.591 146.92 126.852 146.783C127.112 146.643 127.408 146.573 127.74 146.573C128.053 146.573 128.297 146.664 128.473 146.847C128.648 147.026 128.736 147.262 128.736 147.555C128.736 147.613 128.727 147.717 128.707 147.867C128.691 148.017 128.663 148.165 128.624 148.312L128.214 149.879C128.185 149.983 128.155 150.104 128.126 150.24C128.1 150.374 128.087 150.478 128.087 150.553C128.087 150.738 128.128 150.865 128.209 150.934C128.29 150.999 128.424 151.031 128.609 151.031C128.671 151.031 128.759 151.021 128.873 151.002C128.99 150.979 129.08 150.956 129.142 150.934ZM133.951 147.589C133.951 147.934 133.842 148.23 133.624 148.478C133.409 148.725 133.095 148.922 132.682 149.068C132.379 149.179 132.073 149.269 131.764 149.337C131.454 149.405 131.113 149.462 130.738 149.508C130.738 150.022 130.833 150.416 131.021 150.689C131.214 150.96 131.493 151.095 131.861 151.095C132.187 151.095 132.473 151.013 132.721 150.851C132.971 150.688 133.217 150.445 133.458 150.123L133.736 150.328C133.476 150.725 133.15 151.043 132.76 151.28C132.369 151.518 131.964 151.637 131.544 151.637C130.968 151.637 130.527 151.476 130.221 151.153C129.918 150.831 129.767 150.374 129.767 149.781C129.767 149.371 129.83 148.98 129.957 148.609C130.087 148.235 130.276 147.893 130.523 147.584C130.764 147.281 131.059 147.037 131.407 146.852C131.759 146.666 132.146 146.573 132.569 146.573C133.038 146.573 133.385 146.669 133.609 146.861C133.837 147.05 133.951 147.293 133.951 147.589ZM133.053 147.467C133.053 147.34 133.035 147.241 132.999 147.169C132.963 147.094 132.918 147.039 132.862 147.003C132.804 146.964 132.742 146.939 132.677 146.93C132.612 146.92 132.545 146.915 132.477 146.915C132.086 146.915 131.725 147.13 131.393 147.56C131.064 147.989 130.855 148.525 130.768 149.166C130.995 149.133 131.253 149.088 131.539 149.029C131.826 148.967 132.063 148.888 132.252 148.79C132.522 148.65 132.722 148.471 132.853 148.253C132.986 148.032 133.053 147.77 133.053 147.467ZM137.429 143.85H141.589V147.72H137.429V143.85ZM140.779 144.52H138.239V147.05H140.779V144.52ZM143.249 143.23H144.079V148.39H143.249V143.23ZM143.849 145.4H145.409V146.09H143.849V145.4ZM140.839 149.23H141.539V149.47C141.539 149.823 141.452 150.153 141.279 150.46C141.112 150.767 140.875 151.04 140.569 151.28C140.269 151.52 139.922 151.72 139.529 151.88C139.135 152.047 138.715 152.167 138.269 152.24L137.959 151.6C138.345 151.547 138.712 151.453 139.059 151.32C139.405 151.187 139.712 151.027 139.979 150.84C140.245 150.647 140.455 150.433 140.609 150.2C140.762 149.967 140.839 149.723 140.839 149.47V149.23ZM140.989 149.23H141.699V149.47C141.699 149.723 141.775 149.963 141.929 150.19C142.089 150.417 142.302 150.627 142.569 150.82C142.835 151.013 143.139 151.18 143.479 151.32C143.825 151.453 144.192 151.55 144.579 151.61L144.269 152.25C143.822 152.17 143.402 152.047 143.009 151.88C142.615 151.72 142.265 151.52 141.959 151.28C141.659 151.033 141.422 150.757 141.249 150.45C141.075 150.143 140.989 149.817 140.989 149.47V149.23ZM138.309 148.92H144.229V149.59H138.309V148.92ZM149.928 148.22H150.748V149.64H149.928V148.22ZM146.258 147.7H154.428V148.37H146.258V147.7ZM149.928 143.18H150.748V144.44H149.928V143.18ZM149.888 144.52H150.618V144.66C150.618 145.027 150.521 145.357 150.328 145.65C150.141 145.937 149.878 146.187 149.538 146.4C149.204 146.607 148.818 146.773 148.378 146.9C147.938 147.027 147.471 147.117 146.978 147.17L146.728 146.54C147.168 146.507 147.578 146.437 147.958 146.33C148.344 146.223 148.681 146.09 148.968 145.93C149.254 145.77 149.478 145.583 149.638 145.37C149.804 145.15 149.888 144.913 149.888 144.66V144.52ZM150.068 144.52H150.788V144.66C150.788 144.913 150.868 145.15 151.028 145.37C151.194 145.583 151.421 145.77 151.708 145.93C152.001 146.09 152.338 146.223 152.718 146.33C153.098 146.437 153.508 146.507 153.948 146.54L153.708 147.17C153.208 147.117 152.738 147.027 152.298 146.9C151.864 146.773 151.478 146.607 151.138 146.4C150.804 146.187 150.541 145.937 150.348 145.65C150.161 145.357 150.068 145.027 150.068 144.66V144.52ZM147.098 144.08H153.598V144.74H147.098V144.08ZM147.258 149.35H153.428V152.16H147.258V149.35ZM152.618 150.02H148.068V151.48H152.618V150.02ZM159.537 143.81C160.17 143.81 160.734 143.913 161.227 144.12C161.72 144.327 162.11 144.617 162.397 144.99C162.684 145.363 162.827 145.8 162.827 146.3C162.827 146.807 162.684 147.247 162.397 147.62C162.11 147.993 161.72 148.283 161.227 148.49C160.734 148.697 160.17 148.8 159.537 148.8C158.917 148.8 158.357 148.697 157.857 148.49C157.364 148.283 156.974 147.993 156.687 147.62C156.4 147.247 156.257 146.807 156.257 146.3C156.257 145.8 156.4 145.363 156.687 144.99C156.974 144.617 157.364 144.327 157.857 144.12C158.357 143.913 158.917 143.81 159.537 143.81ZM159.537 144.48C159.064 144.48 158.64 144.557 158.267 144.71C157.894 144.863 157.597 145.077 157.377 145.35C157.157 145.617 157.047 145.933 157.047 146.3C157.047 146.66 157.157 146.977 157.377 147.25C157.597 147.523 157.894 147.737 158.267 147.89C158.64 148.043 159.064 148.12 159.537 148.12C160.017 148.12 160.444 148.043 160.817 147.89C161.19 147.737 161.484 147.523 161.697 147.25C161.917 146.977 162.027 146.66 162.027 146.3C162.027 145.933 161.917 145.617 161.697 145.35C161.484 145.077 161.19 144.863 160.817 144.71C160.444 144.557 160.017 144.48 159.537 144.48ZM155.457 150.39H163.657V151.08H155.457V150.39ZM164.656 150.47H172.856V151.16H164.656V150.47ZM168.326 148.54H169.146V150.76H168.326V148.54ZM165.656 143.9H171.836V146.64H166.496V148.45H165.676V145.98H171.016V144.58H165.656V143.9ZM165.676 148.1H172.046V148.78H165.676V148.1ZM180.158 145.61H181.698V146.29H180.158V145.61ZM176.678 147.62H177.248C177.721 147.62 178.138 147.617 178.498 147.61C178.864 147.597 179.208 147.573 179.528 147.54C179.848 147.5 180.171 147.447 180.498 147.38L180.588 148.05C180.241 148.117 179.904 148.17 179.578 148.21C179.251 148.243 178.901 148.267 178.528 148.28C178.161 148.287 177.734 148.29 177.248 148.29H176.678V147.62ZM176.678 143.88H180.098V144.55H177.478V147.91H176.678V143.88ZM177.228 145.71H179.738V146.36H177.228V145.71ZM177.798 149.26H183.888V152.28H183.068V149.94H177.798V149.26ZM183.098 143.24H183.888V148.83H183.098V143.24ZM181.348 143.43H182.138V148.76H181.348V143.43ZM189.087 143.85H189.817V144.55C189.817 144.943 189.747 145.317 189.607 145.67C189.473 146.023 189.287 146.353 189.047 146.66C188.813 146.96 188.54 147.23 188.227 147.47C187.92 147.71 187.59 147.913 187.237 148.08C186.89 148.247 186.537 148.373 186.177 148.46L185.807 147.77C186.12 147.703 186.433 147.6 186.747 147.46C187.067 147.32 187.367 147.15 187.647 146.95C187.927 146.743 188.173 146.513 188.387 146.26C188.607 146.007 188.777 145.737 188.897 145.45C189.023 145.157 189.087 144.857 189.087 144.55V143.85ZM189.247 143.85H189.957V144.55C189.957 144.857 190.02 145.157 190.147 145.45C190.273 145.737 190.443 146.007 190.657 146.26C190.877 146.513 191.127 146.743 191.407 146.95C191.687 147.15 191.983 147.323 192.297 147.47C192.617 147.61 192.937 147.71 193.257 147.77L192.877 148.46C192.517 148.373 192.163 148.247 191.817 148.08C191.47 147.913 191.14 147.71 190.827 147.47C190.52 147.23 190.247 146.96 190.007 146.66C189.767 146.353 189.58 146.023 189.447 145.67C189.313 145.317 189.247 144.943 189.247 144.55V143.85ZM185.467 150.37H193.667V151.06H185.467V150.37ZM195.716 148.11H201.926V148.78H195.716V148.11ZM194.666 150.42H202.866V151.11H194.666V150.42ZM195.716 144.01H201.836V144.69H196.556V148.31H195.716V144.01ZM196.296 146.02H201.636V146.69H196.296V146.02ZM206.277 148.57H214.447V149.23H206.277V148.57ZM209.947 147.61H210.777V148.86H209.947V147.61ZM207.327 151.41H213.537V152.08H207.327V151.41ZM207.327 149.82H208.157V151.77H207.327V149.82ZM206.707 144.07H213.977V144.71H206.707V144.07ZM210.357 145.11C211.284 145.11 212.001 145.227 212.507 145.46C213.021 145.693 213.277 146.033 213.277 146.48C213.277 146.927 213.021 147.27 212.507 147.51C212.001 147.743 211.284 147.86 210.357 147.86C209.431 147.86 208.711 147.743 208.197 147.51C207.691 147.27 207.437 146.927 207.437 146.48C207.437 146.033 207.691 145.693 208.197 145.46C208.711 145.227 209.431 145.11 210.357 145.11ZM210.357 145.71C209.691 145.71 209.177 145.777 208.817 145.91C208.457 146.037 208.277 146.227 208.277 146.48C208.277 146.733 208.457 146.927 208.817 147.06C209.177 147.187 209.691 147.25 210.357 147.25C211.024 147.25 211.537 147.187 211.897 147.06C212.257 146.927 212.437 146.733 212.437 146.48C212.437 146.227 212.257 146.037 211.897 145.91C211.537 145.777 211.024 145.71 210.357 145.71ZM209.947 143.13H210.777V144.43H209.947V143.13ZM217.487 146.3H218.317V148H217.487V146.3ZM220.807 146.3H221.627V148H220.807V146.3ZM215.477 147.7H223.647V148.37H215.477V147.7ZM219.557 149.06C220.523 149.06 221.28 149.197 221.827 149.47C222.373 149.743 222.647 150.137 222.647 150.65C222.647 151.17 222.373 151.567 221.827 151.84C221.28 152.12 220.523 152.26 219.557 152.26C218.59 152.26 217.83 152.12 217.277 151.84C216.73 151.567 216.457 151.17 216.457 150.65C216.457 150.137 216.73 149.743 217.277 149.47C217.83 149.197 218.59 149.06 219.557 149.06ZM219.557 149.7C219.083 149.7 218.677 149.737 218.337 149.81C218.003 149.883 217.747 149.993 217.567 150.14C217.387 150.28 217.297 150.45 217.297 150.65C217.297 150.863 217.387 151.043 217.567 151.19C217.747 151.33 218.003 151.437 218.337 151.51C218.677 151.583 219.083 151.62 219.557 151.62C220.03 151.62 220.433 151.583 220.767 151.51C221.107 151.437 221.367 151.33 221.547 151.19C221.727 151.043 221.817 150.863 221.817 150.65C221.817 150.45 221.727 150.28 221.547 150.14C221.367 149.993 221.107 149.883 220.767 149.81C220.433 149.737 220.03 149.7 219.557 149.7ZM219.557 143.4C220.21 143.4 220.773 143.467 221.247 143.6C221.727 143.733 222.093 143.927 222.347 144.18C222.607 144.427 222.737 144.727 222.737 145.08C222.737 145.427 222.607 145.727 222.347 145.98C222.093 146.233 221.727 146.427 221.247 146.56C220.773 146.687 220.21 146.75 219.557 146.75C218.903 146.75 218.337 146.687 217.857 146.56C217.383 146.427 217.017 146.233 216.757 145.98C216.503 145.727 216.377 145.427 216.377 145.08C216.377 144.727 216.503 144.427 216.757 144.18C217.017 143.927 217.383 143.733 217.857 143.6C218.337 143.467 218.903 143.4 219.557 143.4ZM219.557 144.05C219.083 144.05 218.67 144.09 218.317 144.17C217.97 144.25 217.7 144.367 217.507 144.52C217.32 144.673 217.227 144.86 217.227 145.08C217.227 145.293 217.32 145.48 217.507 145.64C217.7 145.793 217.97 145.91 218.317 145.99C218.67 146.07 219.083 146.11 219.557 146.11C220.043 146.11 220.46 146.07 220.807 145.99C221.153 145.91 221.42 145.793 221.607 145.64C221.793 145.48 221.887 145.293 221.887 145.08C221.887 144.86 221.793 144.673 221.607 144.52C221.42 144.367 221.153 144.25 220.807 144.17C220.46 144.09 220.043 144.05 219.557 144.05ZM229.468 144.01H230.158V145.63C230.158 146.15 230.091 146.657 229.958 147.15C229.831 147.637 229.648 148.093 229.408 148.52C229.175 148.94 228.898 149.313 228.578 149.64C228.265 149.96 227.921 150.213 227.548 150.4L227.038 149.71C227.378 149.557 227.695 149.337 227.988 149.05C228.281 148.763 228.538 148.44 228.758 148.08C228.978 147.713 229.151 147.32 229.278 146.9C229.405 146.48 229.468 146.057 229.468 145.63V144.01ZM229.608 144.01H230.298V145.63C230.298 146.043 230.358 146.45 230.478 146.85C230.605 147.25 230.778 147.63 230.998 147.99C231.225 148.343 231.481 148.657 231.768 148.93C232.061 149.197 232.375 149.407 232.708 149.56L232.208 150.22C231.841 150.047 231.501 149.803 231.188 149.49C230.875 149.177 230.598 148.817 230.358 148.41C230.125 148.003 229.941 147.563 229.808 147.09C229.675 146.617 229.608 146.13 229.608 145.63V144.01ZM233.658 143.23H234.488V152.29H233.658V143.23ZM243.529 145.58H245.559V146.27H243.529V145.58ZM245.309 143.23H246.139V148.62H245.309V143.23ZM243.159 148.9C243.786 148.9 244.323 148.967 244.769 149.1C245.223 149.233 245.569 149.427 245.809 149.68C246.049 149.927 246.169 150.23 246.169 150.59C246.169 151.123 245.899 151.537 245.359 151.83C244.826 152.123 244.093 152.27 243.159 152.27C242.226 152.27 241.489 152.123 240.949 151.83C240.416 151.537 240.149 151.123 240.149 150.59C240.149 150.23 240.269 149.927 240.509 149.68C240.756 149.427 241.103 149.233 241.549 149.1C242.003 148.967 242.539 148.9 243.159 148.9ZM243.159 149.55C242.706 149.55 242.316 149.59 241.989 149.67C241.663 149.75 241.409 149.867 241.229 150.02C241.056 150.173 240.969 150.363 240.969 150.59C240.969 150.803 241.056 150.987 241.229 151.14C241.409 151.293 241.663 151.413 241.989 151.5C242.316 151.58 242.706 151.62 243.159 151.62C243.619 151.62 244.009 151.58 244.329 151.5C244.656 151.413 244.906 151.293 245.079 151.14C245.259 150.987 245.349 150.803 245.349 150.59C245.349 150.363 245.259 150.173 245.079 150.02C244.906 149.867 244.656 149.75 244.329 149.67C244.009 149.59 243.619 149.55 243.159 149.55ZM240.999 144.15H241.679V144.88C241.679 145.433 241.573 145.953 241.359 146.44C241.153 146.92 240.859 147.343 240.479 147.71C240.099 148.07 239.659 148.347 239.159 148.54L238.729 147.88C239.069 147.76 239.376 147.597 239.649 147.39C239.929 147.183 240.169 146.947 240.369 146.68C240.576 146.413 240.733 146.127 240.839 145.82C240.946 145.513 240.999 145.2 240.999 144.88V144.15ZM241.159 144.15H241.839V144.87C241.839 145.257 241.929 145.633 242.109 146C242.289 146.367 242.546 146.69 242.879 146.97C243.213 147.25 243.596 147.47 244.029 147.63L243.609 148.29C243.116 148.11 242.686 147.85 242.319 147.51C241.953 147.163 241.666 146.763 241.459 146.31C241.259 145.857 241.159 145.377 241.159 144.87V144.15ZM238.989 143.89H243.819V144.57H238.989V143.89ZM247.898 147.99H256.078V148.66H247.898V147.99ZM251.568 146.51H252.398V148.34H251.568V146.51ZM248.928 146.14H255.138V146.82H248.928V146.14ZM248.928 143.69H255.058V144.37H249.758V146.42H248.928V143.69ZM248.948 151.4H255.208V152.08H248.948V151.4ZM248.948 149.48H249.768V151.62H248.948V149.48ZM257.948 146.19H262.308V146.86H257.948V146.19ZM259.688 146.6H260.518V148.4H259.688V146.6ZM257.948 143.82H262.238V144.5H258.778V146.48H257.948V143.82ZM263.668 143.24H264.498V150H263.668V143.24ZM258.648 151.4H264.798V152.08H258.648V151.4ZM258.648 149.55H259.478V151.69H258.648V149.55ZM257.258 148.86L257.138 148.18C257.718 148.173 258.338 148.163 258.998 148.15C259.658 148.137 260.324 148.113 260.998 148.08C261.671 148.04 262.318 147.987 262.938 147.92L262.998 148.53C262.358 148.617 261.701 148.687 261.028 148.74C260.361 148.787 259.704 148.82 259.058 148.84C258.418 148.853 257.818 148.86 257.258 148.86ZM269.709 147.32H275.969V148.01H269.709V147.32ZM268.709 150.34H276.909V151.04H268.709V150.34ZM269.709 144.02H270.539V147.63H269.709V144.02ZM279.858 143.83H280.628C280.628 144.423 280.558 144.967 280.418 145.46C280.285 145.953 280.065 146.407 279.758 146.82C279.458 147.227 279.055 147.607 278.548 147.96L278.008 147.43C278.448 147.137 278.802 146.823 279.068 146.49C279.342 146.157 279.542 145.783 279.668 145.37C279.795 144.957 279.858 144.483 279.858 143.95V143.83ZM278.238 143.83H280.258V144.5H278.238V143.83ZM282.458 143.83H283.218C283.218 144.437 283.158 145.01 283.038 145.55C282.918 146.083 282.715 146.583 282.428 147.05C282.148 147.517 281.755 147.957 281.248 148.37L280.658 147.89C281.105 147.537 281.458 147.16 281.718 146.76C281.978 146.36 282.165 145.93 282.278 145.47C282.398 145.003 282.458 144.493 282.458 143.94V143.83ZM280.978 143.83H282.798V144.5H280.978V143.83ZM284.478 143.24H285.308V148.46H284.478V143.24ZM279.418 148.89H285.308V152.16H279.418V148.89ZM284.498 149.56H280.228V151.48H284.498V149.56Z" fill="#9A9090"/>
<defs>
<linearGradient id="paint0_linear_546_10170" x1="0.5" y1="0.5" x2="114.527" y2="272.74" gradientUnits="userSpaceOnUse">
<stop stop-color="#F3F3F3"/>
<stop offset="1" stop-color="#EBEBEB"/>
</linearGradient>
</defs>
</svg>
