<svg width="383" height="161" viewBox="0 0 383 161" fill="none" xmlns="http://www.w3.org/2000/svg">
<path d="M374.5 0.5H8.5C4.08172 0.5 0.5 4.08172 0.5 8.5V152.5C0.5 156.918 4.08172 160.5 8.5 160.5H374.5C378.918 160.5 382.5 156.918 382.5 152.5V8.5C382.5 4.08172 378.918 0.5 374.5 0.5Z" fill="url(#paint0_linear_546_10164)" stroke="#E2E2E2"/>
<path d="M126.611 108.5C142.075 108.5 154.611 95.964 154.611 80.5C154.611 65.036 142.075 52.5 126.611 52.5C111.147 52.5 98.6113 65.036 98.6113 80.5C98.6113 95.964 111.147 108.5 126.611 108.5Z" fill="#E8E8E8" stroke="#F3F3F3" stroke-width="3"/>
<path d="M127.443 73.6016H129.48V80.5059C129.48 82.4336 128.127 83.6367 126.131 83.6367C124.34 83.6367 122.932 82.6934 122.945 80.7383H124.996C125.01 81.5176 125.488 81.9824 126.227 81.9824C127.006 81.9824 127.443 81.4766 127.443 80.5059V73.6016Z" fill="#5F5E5E"/>
<path opacity="0.85" d="M150.486 108.5C165.95 108.5 178.486 95.964 178.486 80.5C178.486 65.036 165.95 52.5 150.486 52.5C135.022 52.5 122.486 65.036 122.486 80.5C122.486 95.964 135.022 108.5 150.486 108.5Z" fill="#D4A853" stroke="#F3F3F3" stroke-width="3"/>
<path d="M146.808 83.5V73.6016H148.858V77.9902H148.995L152.591 73.6016H155.065L151.374 78.0312L155.106 83.5H152.646L149.897 79.4121L148.858 80.6699V83.5H146.808Z" fill="white"/>
<path opacity="0.85" d="M174.361 108.5C189.825 108.5 202.361 95.964 202.361 80.5C202.361 65.036 189.825 52.5 174.361 52.5C158.897 52.5 146.361 65.036 146.361 80.5C146.361 95.964 158.897 108.5 174.361 108.5Z" fill="#8FAF8A" stroke="#F3F3F3" stroke-width="3"/>
<path d="M171.622 83.5V73.6016H173.673V81.8047H177.938V83.5H171.622Z" fill="white"/>
<path opacity="0.85" d="M198.609 108.5C214.073 108.5 226.609 95.964 226.609 80.5C226.609 65.036 214.073 52.5 198.609 52.5C183.145 52.5 170.609 65.036 170.609 80.5C170.609 95.964 183.145 108.5 198.609 108.5Z" fill="#C4876A" stroke="#F3F3F3" stroke-width="3"/>
<path d="M193.027 73.6016H195.57L198.318 80.3145H198.428L201.176 73.6016H203.719V83.5H201.723V77.0195H201.641L199.057 83.459H197.689L195.105 76.9922H195.023V83.5H193.027V73.6016Z" fill="white"/>
<path opacity="0.8" d="M222.484 108.5C237.948 108.5 250.484 95.964 250.484 80.5C250.484 65.036 237.948 52.5 222.484 52.5C207.02 52.5 194.484 65.036 194.484 80.5C194.484 95.964 207.02 108.5 222.484 108.5Z" fill="#1A1C1E" stroke="#F3F3F3" stroke-width="3"/>
<path d="M218.094 82.1992V80.0078H215.902V78.543H218.094V76.3516H219.559V78.543H221.75V80.0078H219.559V82.1992H218.094ZM226.496 83.6172C224.633 83.6172 223.297 82.5859 223.262 81.1094H225.043C225.078 81.7422 225.688 82.1641 226.508 82.1641C227.352 82.1641 227.961 81.6836 227.949 81.0039C227.961 80.3125 227.34 79.8203 226.344 79.8203H225.559V78.5195H226.344C227.176 78.5195 227.762 78.0625 227.762 77.3945C227.762 76.75 227.27 76.3047 226.52 76.3047C225.77 76.3047 225.148 76.7266 225.125 77.3711H223.438C223.461 75.9062 224.785 74.8984 226.52 74.8984C228.289 74.8984 229.473 75.9414 229.461 77.2891C229.473 78.2383 228.805 78.918 227.855 79.082V79.1523C229.098 79.3047 229.789 80.0664 229.777 81.1211C229.789 82.5742 228.406 83.6172 226.496 83.6172Z" fill="white"/>
<path opacity="0.15" d="M221.352 113.5H127.352C125.695 113.5 124.352 114.843 124.352 116.5V124.5C124.352 126.157 125.695 127.5 127.352 127.5H221.352C223.008 127.5 224.352 126.157 224.352 124.5V116.5C224.352 114.843 223.008 113.5 221.352 113.5Z" fill="#5FAFFF"/>
<path d="M145.177 119.123C144.905 118.306 144.281 117.787 143.375 117.787C142.25 117.787 141.354 118.675 141.354 120.318C141.354 121.962 142.25 122.85 143.428 122.85C144.505 122.85 145.239 122.129 145.256 121.004H143.595V120.31H146.03V120.995C146.03 122.577 144.94 123.588 143.428 123.588C141.732 123.588 140.589 122.331 140.589 120.318C140.589 118.306 141.741 117.049 143.375 117.049C144.72 117.049 145.757 117.893 145.995 119.123H145.177ZM146.891 122.146C146.891 121.048 147.858 120.802 148.684 120.74C148.987 120.718 149.761 120.679 149.976 120.67V120.283C149.976 119.677 149.616 119.325 148.895 119.325C148.289 119.325 147.928 119.606 147.823 119.967H147.032C147.128 119.202 147.875 118.666 148.93 118.666C149.554 118.666 150.723 118.851 150.723 120.354V123.5H149.976V122.85H149.941C149.783 123.175 149.343 123.614 148.517 123.614C147.612 123.614 146.891 123.078 146.891 122.146ZM147.647 122.182C147.647 122.683 148.069 122.938 148.649 122.938C149.501 122.938 149.976 122.366 149.976 121.769V121.285L148.772 121.373C148.086 121.417 147.647 121.663 147.647 122.182ZM151.936 125.293V118.728H152.666V119.483H152.753C152.912 119.229 153.21 118.666 154.133 118.666C155.329 118.666 156.164 119.615 156.164 121.127C156.164 122.639 155.329 123.597 154.142 123.597C153.228 123.597 152.912 123.034 152.753 122.771H152.692V125.293H151.936ZM152.674 121.109C152.674 122.182 153.158 122.92 154.037 122.92C154.942 122.92 155.408 122.129 155.408 121.109C155.408 120.116 154.951 119.343 154.037 119.343C153.14 119.343 152.674 120.055 152.674 121.109ZM157.684 123.553C157.376 123.553 157.113 123.298 157.122 122.981C157.113 122.674 157.376 122.419 157.684 122.419C157.992 122.419 158.247 122.674 158.247 122.981C158.247 123.298 157.992 123.553 157.684 123.553ZM157.684 120.02C157.376 120.02 157.113 119.765 157.122 119.448C157.113 119.141 157.376 118.886 157.684 118.886C157.992 118.886 158.247 119.141 158.247 119.448C158.247 119.765 157.992 120.02 157.684 120.02ZM164.425 120.433V121.127H161.639V120.433H164.425ZM165.287 123.5L165.278 122.92L167.449 120.635C168.205 119.835 168.565 119.404 168.565 118.815C168.565 118.165 168.011 117.734 167.299 117.734C166.543 117.734 166.06 118.218 166.06 118.93H165.313C165.304 117.805 166.174 117.049 167.326 117.049C168.477 117.049 169.303 117.822 169.303 118.815C169.303 119.527 168.969 120.081 167.844 121.241L166.385 122.744V122.797H169.417V123.5H165.287ZM172.652 123.588C171.237 123.588 170.428 122.401 170.428 120.318C170.428 118.253 171.254 117.049 172.652 117.049C174.049 117.049 174.875 118.253 174.875 120.318C174.875 122.401 174.058 123.588 172.652 123.588ZM172.652 122.885C173.566 122.885 174.102 121.962 174.102 120.318C174.102 118.675 173.566 117.734 172.652 117.734C171.738 117.734 171.193 118.675 171.193 120.318C171.193 121.962 171.729 122.885 172.652 122.885ZM175.939 125.293V118.728H176.668V119.483H176.756C176.915 119.229 177.213 118.666 178.136 118.666C179.332 118.666 180.167 119.615 180.167 121.127C180.167 122.639 179.332 123.597 178.145 123.597C177.231 123.597 176.915 123.034 176.756 122.771H176.695V125.293H175.939ZM176.677 121.109C176.677 122.182 177.161 122.92 178.04 122.92C178.945 122.92 179.411 122.129 179.411 121.109C179.411 120.116 178.954 119.343 178.04 119.343C177.143 119.343 176.677 120.055 176.677 121.109ZM181.52 118.728L182.645 120.67L183.779 118.728H184.649L183.111 121.109L184.649 123.5H183.788L182.645 121.654L181.52 123.5H180.65L182.153 121.109L180.65 118.728H181.52ZM188.015 121.074C188.024 119.413 188.472 118.033 189.281 116.864H189.949C189.351 117.734 188.797 119.51 188.797 121.074C188.797 122.639 189.351 124.423 189.949 125.293H189.281C188.472 124.115 188.024 122.735 188.015 121.074ZM194.66 116.882C194.66 117.146 194.633 117.396 194.589 117.638H196.382V116.398H197.068V120.6H196.382V119.809H194.317V119.22H196.382V118.2H194.422C193.926 119.448 192.717 120.323 190.968 120.775L190.705 120.222C192.643 119.734 193.776 118.754 193.913 117.462H191.1V116.882H194.66ZM192.682 120.995V121.979H196.382V120.995H197.068V124.106H191.988V120.995H192.682ZM192.682 123.553H196.382V122.533H192.682V123.553ZM201.216 117.989C201.216 118.982 202.069 119.861 203.238 120.195L202.913 120.74C201.99 120.463 201.247 119.861 200.891 119.079C200.54 119.936 199.801 120.6 198.87 120.907L198.536 120.371C199.696 119.993 200.531 119.053 200.531 117.989V117.884H198.729V117.33H200.531V116.363H201.225V117.33H203.009V117.884H201.216V117.989ZM204.829 116.407V121.039H204.143V116.407H204.829ZM204.829 121.435V124.106H199.749V121.435H204.829ZM200.425 121.997V123.544H204.152V121.997H200.425ZM208.107 121.074C208.098 122.735 207.65 124.115 206.841 125.293H206.173C206.771 124.423 207.325 122.639 207.325 121.074C207.325 119.51 206.771 117.734 206.173 116.864H206.841C207.65 118.033 208.098 119.413 208.107 121.074Z" fill="#5FAFFF"/>
<path d="M88.0107 135.43C88.664 135.43 89.2273 135.5 89.7007 135.64C90.1807 135.773 90.5473 135.967 90.8007 136.22C91.0607 136.473 91.1907 136.783 91.1907 137.15C91.1907 137.503 91.0607 137.81 90.8007 138.07C90.5473 138.323 90.1807 138.517 89.7007 138.65C89.2273 138.783 88.664 138.85 88.0107 138.85C87.364 138.85 86.8007 138.783 86.3207 138.65C85.8473 138.517 85.4807 138.323 85.2207 138.07C84.9607 137.81 84.8307 137.503 84.8307 137.15C84.8307 136.783 84.9607 136.473 85.2207 136.22C85.4807 135.967 85.8473 135.773 86.3207 135.64C86.8007 135.5 87.364 135.43 88.0107 135.43ZM88.0107 136.09C87.5373 136.09 87.124 136.133 86.7707 136.22C86.424 136.3 86.154 136.42 85.9607 136.58C85.774 136.733 85.6807 136.923 85.6807 137.15C85.6807 137.363 85.774 137.55 85.9607 137.71C86.154 137.863 86.424 137.983 86.7707 138.07C87.124 138.15 87.5373 138.19 88.0107 138.19C88.4907 138.19 88.904 138.15 89.2507 138.07C89.604 137.983 89.874 137.863 90.0607 137.71C90.2473 137.55 90.3407 137.363 90.3407 137.15C90.3407 136.923 90.2473 136.733 90.0607 136.58C89.874 136.42 89.604 136.3 89.2507 136.22C88.904 136.133 88.4907 136.09 88.0107 136.09ZM84.9307 141.18H91.1007V144.16H84.9307V141.18ZM90.2907 141.85H85.7407V143.48H90.2907V141.85ZM83.9307 139.62H92.1007V140.3H83.9307V139.62ZM96.7899 135.55H97.5199V136.06C97.5199 136.407 97.4532 136.733 97.3199 137.04C97.1865 137.34 97.0032 137.617 96.7699 137.87C96.5432 138.123 96.2765 138.35 95.9699 138.55C95.6632 138.75 95.3299 138.917 94.9699 139.05C94.6165 139.183 94.2532 139.28 93.8799 139.34L93.5399 138.67C93.8732 138.623 94.1965 138.543 94.5099 138.43C94.8299 138.317 95.1265 138.18 95.3999 138.02C95.6732 137.853 95.9132 137.667 96.1199 137.46C96.3332 137.253 96.4965 137.033 96.6099 136.8C96.7299 136.56 96.7899 136.313 96.7899 136.06V135.55ZM96.9299 135.55H97.6499V136.06C97.6499 136.313 97.7099 136.557 97.8299 136.79C97.9499 137.023 98.1132 137.243 98.3199 137.45C98.5332 137.657 98.7765 137.843 99.0499 138.01C99.3232 138.177 99.6165 138.317 99.9299 138.43C100.25 138.543 100.573 138.623 100.9 138.67L100.57 139.34C100.197 139.28 99.8332 139.183 99.4799 139.05C99.1265 138.91 98.7932 138.74 98.4799 138.54C98.1732 138.34 97.9032 138.113 97.6699 137.86C97.4432 137.607 97.2632 137.33 97.1299 137.03C96.9965 136.723 96.9299 136.4 96.9299 136.06V135.55ZM96.7899 140.84H97.6099V144.28H96.7899V140.84ZM93.1299 140.32H101.3V141.01H93.1299V140.32ZM107.498 143.661C107.107 143.661 106.744 143.599 106.409 143.476C106.074 143.352 105.781 143.17 105.53 142.929C105.28 142.688 105.083 142.395 104.939 142.05C104.799 141.705 104.729 141.309 104.729 140.863C104.729 140.235 104.839 139.652 105.057 139.115C105.278 138.575 105.579 138.103 105.96 137.699C106.334 137.299 106.777 136.985 107.288 136.757C107.799 136.526 108.338 136.41 108.904 136.41C109.354 136.41 109.738 136.462 110.057 136.566C110.379 136.667 110.631 136.78 110.813 136.903L111.087 136.571H111.478L110.965 138.993H110.564C110.558 138.723 110.535 138.458 110.496 138.197C110.457 137.937 110.376 137.702 110.252 137.494C110.125 137.283 109.951 137.115 109.729 136.991C109.508 136.868 109.199 136.806 108.802 136.806C108.401 136.806 108.022 136.91 107.664 137.118C107.309 137.323 106.997 137.613 106.727 137.987C106.463 138.349 106.255 138.783 106.102 139.291C105.952 139.799 105.877 140.342 105.877 140.922C105.877 141.645 106.048 142.214 106.39 142.631C106.731 143.048 107.203 143.256 107.806 143.256C108.092 143.256 108.341 143.214 108.553 143.129C108.764 143.044 108.932 142.95 109.056 142.846C109.101 142.712 109.144 142.572 109.183 142.426C109.225 142.276 109.271 142.094 109.319 141.879L109.412 141.459C109.419 141.423 109.425 141.381 109.432 141.332C109.441 141.283 109.446 141.238 109.446 141.195C109.446 141.114 109.435 141.047 109.412 140.995C109.393 140.943 109.342 140.899 109.261 140.863C109.166 140.814 109.028 140.779 108.846 140.756C108.667 140.73 108.528 140.714 108.431 140.707L108.504 140.375H111.546L111.473 140.707C111.388 140.717 111.277 140.733 111.141 140.756C111.007 140.775 110.895 140.805 110.804 140.844C110.687 140.896 110.599 140.966 110.54 141.054C110.485 141.142 110.442 141.246 110.413 141.366L110.286 141.928C110.211 142.237 110.159 142.468 110.13 142.621C110.101 142.774 110.075 142.919 110.052 143.056C109.837 143.144 109.645 143.22 109.476 143.285C109.31 143.35 109.101 143.414 108.851 143.476C108.623 143.534 108.403 143.58 108.191 143.612C107.983 143.645 107.752 143.661 107.498 143.661ZM114.896 142.855H114.861C114.79 142.914 114.703 142.989 114.603 143.08C114.505 143.168 114.389 143.253 114.256 143.334C114.129 143.415 113.991 143.485 113.841 143.544C113.691 143.606 113.528 143.637 113.353 143.637C112.881 143.637 112.509 143.467 112.239 143.129C111.972 142.79 111.839 142.328 111.839 141.742C111.839 141.339 111.914 140.946 112.063 140.565C112.213 140.185 112.42 139.843 112.684 139.54C112.934 139.25 113.232 139.018 113.577 138.842C113.922 138.663 114.277 138.573 114.642 138.573C114.873 138.573 115.092 138.604 115.301 138.666C115.512 138.728 115.678 138.798 115.799 138.876L116.692 138.646L116.751 138.72L116.009 141.869C115.983 141.97 115.955 142.094 115.926 142.24C115.9 142.383 115.887 142.489 115.887 142.558C115.887 142.743 115.926 142.868 116.004 142.934C116.082 142.999 116.214 143.031 116.399 143.031C116.461 143.031 116.549 143.021 116.663 143.002C116.777 142.982 116.865 142.961 116.927 142.938L116.854 143.251C116.561 143.368 116.342 143.453 116.199 143.505C116.056 143.557 115.882 143.583 115.677 143.583C115.442 143.583 115.257 143.515 115.12 143.378C114.983 143.241 114.909 143.067 114.896 142.855ZM115.594 139.77C115.594 139.662 115.582 139.56 115.56 139.462C115.537 139.364 115.49 139.273 115.418 139.188C115.353 139.107 115.263 139.042 115.149 138.993C115.035 138.944 114.892 138.92 114.72 138.92C114.482 138.92 114.251 138.998 114.026 139.154C113.802 139.311 113.6 139.521 113.421 139.784C113.252 140.032 113.113 140.331 113.006 140.683C112.898 141.034 112.845 141.391 112.845 141.752C112.845 141.951 112.856 142.126 112.879 142.279C112.902 142.432 112.946 142.572 113.011 142.699C113.073 142.823 113.162 142.919 113.279 142.987C113.396 143.056 113.545 143.09 113.724 143.09C113.906 143.09 114.096 143.039 114.295 142.938C114.497 142.834 114.723 142.654 114.974 142.396L115.594 139.77ZM122.669 140.438C122.669 140.875 122.592 141.288 122.439 141.679C122.286 142.069 122.083 142.408 121.829 142.694C121.546 143.01 121.238 143.244 120.906 143.397C120.577 143.55 120.239 143.627 119.891 143.627C119.611 143.627 119.381 143.593 119.202 143.524C119.023 143.456 118.864 143.371 118.724 143.271L118.44 144.55C118.421 144.631 118.405 144.708 118.392 144.779C118.382 144.851 118.377 144.908 118.377 144.95C118.377 145.038 118.408 145.108 118.47 145.16C118.535 145.212 118.608 145.25 118.689 145.272C118.771 145.299 118.862 145.318 118.963 145.331C119.064 145.344 119.155 145.354 119.236 145.36L119.168 145.668H116.478L116.546 145.36C116.65 145.354 116.748 145.346 116.839 145.336C116.93 145.326 117.016 145.31 117.098 145.287C117.199 145.258 117.278 145.202 117.337 145.121C117.399 145.043 117.443 144.945 117.469 144.828L118.489 140.336C118.515 140.212 118.54 140.089 118.562 139.965C118.585 139.838 118.597 139.729 118.597 139.638C118.597 139.455 118.567 139.333 118.509 139.271C118.453 139.21 118.331 139.179 118.143 139.179C118.071 139.179 117.98 139.193 117.869 139.223C117.758 139.249 117.672 139.27 117.61 139.286L117.684 138.974C117.931 138.863 118.154 138.778 118.353 138.72C118.551 138.658 118.72 138.627 118.86 138.627C119.088 138.627 119.261 138.686 119.378 138.803C119.495 138.917 119.568 139.076 119.598 139.281H119.637C119.858 139.076 120.094 138.907 120.345 138.773C120.599 138.64 120.851 138.573 121.102 138.573C121.596 138.573 121.98 138.743 122.254 139.081C122.531 139.416 122.669 139.869 122.669 140.438ZM121.146 142.455C121.312 142.188 121.438 141.885 121.526 141.547C121.618 141.205 121.663 140.844 121.663 140.463C121.663 140.29 121.647 140.118 121.614 139.945C121.585 139.77 121.536 139.625 121.468 139.511C121.396 139.384 121.298 139.286 121.175 139.218C121.051 139.146 120.888 139.11 120.687 139.11C120.537 139.11 120.371 139.156 120.188 139.247C120.009 139.338 119.79 139.509 119.529 139.76L118.904 142.528C118.927 142.714 119.026 142.888 119.202 143.051C119.381 143.21 119.596 143.29 119.847 143.29C120.104 143.29 120.345 143.215 120.569 143.065C120.794 142.916 120.986 142.712 121.146 142.455ZM131.272 141.073H129.07V143.275H128.45V141.073H126.248V140.463H128.45V138.261H129.07V140.463H131.272V141.073ZM137.352 143.661C136.997 143.661 136.661 143.599 136.346 143.476C136.03 143.352 135.755 143.171 135.521 142.934C135.283 142.693 135.096 142.401 134.959 142.06C134.826 141.718 134.759 141.332 134.759 140.902C134.759 140.287 134.863 139.713 135.071 139.179C135.28 138.645 135.566 138.168 135.931 137.748C136.282 137.344 136.704 137.021 137.195 136.776C137.69 136.532 138.206 136.41 138.743 136.41C139.15 136.41 139.507 136.457 139.812 136.552C140.122 136.646 140.376 136.763 140.574 136.903L140.848 136.571H141.238L140.711 139.042H140.311V138.847C140.311 138.58 140.289 138.326 140.247 138.085C140.205 137.841 140.123 137.621 140.003 137.426C139.886 137.237 139.725 137.087 139.52 136.977C139.318 136.863 139.059 136.806 138.743 136.806C138.343 136.806 137.97 136.913 137.625 137.128C137.283 137.34 136.987 137.623 136.736 137.978C136.489 138.323 136.29 138.747 136.141 139.252C135.991 139.757 135.916 140.271 135.916 140.795C135.916 141.488 136.085 142.051 136.424 142.484C136.766 142.914 137.223 143.129 137.796 143.129C138.274 143.129 138.714 142.987 139.114 142.704C139.518 142.421 139.847 142.042 140.101 141.566L140.452 141.752C140.042 142.452 139.585 142.945 139.08 143.231C138.576 143.518 137.999 143.661 137.352 143.661ZM144.095 142.855H144.061C143.989 142.914 143.903 142.989 143.802 143.08C143.704 143.168 143.589 143.253 143.455 143.334C143.328 143.415 143.19 143.485 143.04 143.544C142.89 143.606 142.728 143.637 142.552 143.637C142.08 143.637 141.709 143.467 141.438 143.129C141.172 142.79 141.038 142.328 141.038 141.742C141.038 141.339 141.113 140.946 141.263 140.565C141.412 140.185 141.619 139.843 141.883 139.54C142.133 139.25 142.431 139.018 142.776 138.842C143.121 138.663 143.476 138.573 143.841 138.573C144.072 138.573 144.292 138.604 144.5 138.666C144.712 138.728 144.878 138.798 144.998 138.876L145.892 138.646L145.95 138.72L145.208 141.869C145.182 141.97 145.154 142.094 145.125 142.24C145.099 142.383 145.086 142.489 145.086 142.558C145.086 142.743 145.125 142.868 145.203 142.934C145.281 142.999 145.413 143.031 145.599 143.031C145.66 143.031 145.748 143.021 145.862 143.002C145.976 142.982 146.064 142.961 146.126 142.938L146.053 143.251C145.76 143.368 145.542 143.453 145.398 143.505C145.255 143.557 145.081 143.583 144.876 143.583C144.642 143.583 144.456 143.515 144.319 143.378C144.183 143.241 144.108 143.067 144.095 142.855ZM144.793 139.77C144.793 139.662 144.782 139.56 144.759 139.462C144.736 139.364 144.689 139.273 144.617 139.188C144.552 139.107 144.463 139.042 144.349 138.993C144.235 138.944 144.091 138.92 143.919 138.92C143.681 138.92 143.45 138.998 143.226 139.154C143.001 139.311 142.799 139.521 142.62 139.784C142.451 140.032 142.312 140.331 142.205 140.683C142.098 141.034 142.044 141.391 142.044 141.752C142.044 141.951 142.055 142.126 142.078 142.279C142.101 142.432 142.145 142.572 142.21 142.699C142.272 142.823 142.361 142.919 142.479 142.987C142.596 143.056 142.744 143.09 142.923 143.09C143.105 143.09 143.296 143.039 143.494 142.938C143.696 142.834 143.922 142.654 144.173 142.396L144.793 139.77ZM152.039 142.934L151.966 143.246C151.673 143.363 151.445 143.448 151.282 143.5C151.119 143.555 150.955 143.583 150.789 143.583C150.529 143.583 150.333 143.516 150.203 143.383C150.073 143.246 150.008 143.078 150.008 142.88C150.008 142.808 150.014 142.73 150.027 142.646C150.04 142.558 150.062 142.455 150.091 142.338L150.569 140.517C150.605 140.377 150.633 140.25 150.652 140.136C150.675 140.022 150.687 139.931 150.687 139.862C150.687 139.644 150.634 139.472 150.53 139.345C150.426 139.218 150.271 139.154 150.066 139.154C149.868 139.154 149.645 139.219 149.397 139.35C149.15 139.48 148.917 139.669 148.699 139.916L147.874 143.5H146.966L147.693 140.336C147.71 140.258 147.732 140.146 147.762 139.999C147.794 139.849 147.811 139.729 147.811 139.638C147.811 139.455 147.78 139.333 147.718 139.271C147.656 139.21 147.532 139.179 147.347 139.179C147.275 139.179 147.184 139.192 147.073 139.218C146.963 139.241 146.876 139.26 146.814 139.276L146.888 138.964C147.142 138.85 147.366 138.765 147.562 138.71C147.757 138.655 147.924 138.627 148.064 138.627C148.322 138.627 148.506 138.697 148.616 138.837C148.727 138.977 148.785 139.171 148.792 139.418H148.821C149.179 139.132 149.489 138.92 149.749 138.783C150.009 138.643 150.306 138.573 150.638 138.573C150.95 138.573 151.194 138.664 151.37 138.847C151.546 139.026 151.634 139.262 151.634 139.555C151.634 139.613 151.624 139.717 151.604 139.867C151.588 140.017 151.561 140.165 151.521 140.312L151.111 141.879C151.082 141.983 151.053 142.104 151.023 142.24C150.997 142.374 150.984 142.478 150.984 142.553C150.984 142.738 151.025 142.865 151.106 142.934C151.188 142.999 151.321 143.031 151.507 143.031C151.569 143.031 151.657 143.021 151.771 143.002C151.888 142.979 151.977 142.956 152.039 142.934ZM157.4 139.477C157.4 139.971 157.326 140.474 157.176 140.985C157.026 141.493 156.821 141.938 156.561 142.318C156.297 142.712 155.983 143.033 155.618 143.28C155.254 143.524 154.853 143.646 154.417 143.646C153.991 143.646 153.65 143.529 153.396 143.295C153.143 143.057 153.016 142.74 153.016 142.343C153.016 142.268 153.024 142.183 153.04 142.089C153.06 141.994 153.073 141.931 153.079 141.898L153.504 140.336C153.536 140.209 153.564 140.085 153.587 139.965C153.613 139.841 153.626 139.734 153.626 139.643C153.626 139.46 153.593 139.338 153.528 139.276C153.466 139.215 153.343 139.184 153.157 139.184C153.089 139.184 152.996 139.198 152.879 139.228C152.762 139.257 152.674 139.28 152.615 139.296L152.688 138.983C152.942 138.869 153.167 138.782 153.362 138.72C153.561 138.658 153.719 138.627 153.836 138.627C154.096 138.627 154.288 138.687 154.412 138.808C154.539 138.928 154.603 139.102 154.603 139.33C154.603 139.395 154.596 139.475 154.583 139.569C154.573 139.66 154.554 139.761 154.524 139.872L154.056 141.693C154.023 141.817 153.999 141.936 153.982 142.05C153.966 142.164 153.958 142.237 153.958 142.27C153.958 142.439 153.984 142.577 154.036 142.685C154.091 142.789 154.16 142.87 154.241 142.929C154.319 142.984 154.404 143.023 154.495 143.046C154.59 143.069 154.686 143.08 154.783 143.08C155.005 143.08 155.232 143.01 155.467 142.87C155.704 142.73 155.911 142.548 156.087 142.323C156.279 142.079 156.434 141.807 156.551 141.508C156.668 141.205 156.727 140.871 156.727 140.507C156.727 140.312 156.699 140.162 156.644 140.058C156.591 139.95 156.533 139.857 156.468 139.779C156.403 139.698 156.342 139.613 156.287 139.525C156.235 139.434 156.209 139.307 156.209 139.145C156.209 138.959 156.271 138.817 156.395 138.72C156.518 138.622 156.648 138.573 156.785 138.573C156.977 138.573 157.127 138.651 157.234 138.808C157.345 138.961 157.4 139.184 157.4 139.477ZM161.106 142.855H161.072C161.001 142.914 160.914 142.989 160.813 143.08C160.716 143.168 160.6 143.253 160.467 143.334C160.34 143.415 160.201 143.485 160.052 143.544C159.902 143.606 159.739 143.637 159.563 143.637C159.091 143.637 158.72 143.467 158.45 143.129C158.183 142.79 158.05 142.328 158.05 141.742C158.05 141.339 158.125 140.946 158.274 140.565C158.424 140.185 158.631 139.843 158.895 139.54C159.145 139.25 159.443 139.018 159.788 138.842C160.133 138.663 160.488 138.573 160.853 138.573C161.084 138.573 161.303 138.604 161.512 138.666C161.723 138.728 161.889 138.798 162.01 138.876L162.903 138.646L162.962 138.72L162.22 141.869C162.194 141.97 162.166 142.094 162.137 142.24C162.111 142.383 162.098 142.489 162.098 142.558C162.098 142.743 162.137 142.868 162.215 142.934C162.293 142.999 162.425 143.031 162.61 143.031C162.672 143.031 162.76 143.021 162.874 143.002C162.988 142.982 163.076 142.961 163.138 142.938L163.064 143.251C162.771 143.368 162.553 143.453 162.41 143.505C162.267 143.557 162.093 143.583 161.888 143.583C161.653 143.583 161.468 143.515 161.331 143.378C161.194 143.241 161.119 143.067 161.106 142.855ZM161.805 139.77C161.805 139.662 161.793 139.56 161.771 139.462C161.748 139.364 161.701 139.273 161.629 139.188C161.564 139.107 161.474 139.042 161.36 138.993C161.246 138.944 161.103 138.92 160.931 138.92C160.693 138.92 160.462 138.998 160.237 139.154C160.013 139.311 159.811 139.521 159.632 139.784C159.463 140.032 159.324 140.331 159.217 140.683C159.109 141.034 159.056 141.391 159.056 141.752C159.056 141.951 159.067 142.126 159.09 142.279C159.113 142.432 159.157 142.572 159.222 142.699C159.284 142.823 159.373 142.919 159.49 142.987C159.607 143.056 159.756 143.09 159.935 143.09C160.117 143.09 160.307 143.039 160.506 142.938C160.708 142.834 160.934 142.654 161.185 142.396L161.805 139.77ZM165.208 143.642C164.726 143.642 164.324 143.557 164.002 143.388C163.683 143.215 163.523 142.991 163.523 142.714C163.523 142.584 163.571 142.462 163.665 142.348C163.759 142.234 163.875 142.177 164.012 142.177C164.142 142.177 164.246 142.208 164.324 142.27C164.406 142.328 164.469 142.398 164.515 142.479C164.563 142.564 164.606 142.665 164.642 142.782C164.681 142.899 164.713 142.995 164.739 143.07C164.788 143.126 164.855 143.178 164.939 143.227C165.027 143.272 165.153 143.295 165.315 143.295C165.667 143.295 165.932 143.207 166.111 143.031C166.294 142.855 166.385 142.618 166.385 142.318C166.385 142.097 166.3 141.921 166.131 141.791C165.962 141.658 165.709 141.535 165.374 141.425C165.254 141.386 165.112 141.327 164.949 141.249C164.786 141.168 164.656 141.081 164.559 140.99C164.441 140.886 164.347 140.762 164.275 140.619C164.204 140.476 164.168 140.307 164.168 140.111C164.168 139.695 164.354 139.335 164.725 139.032C165.099 138.726 165.558 138.573 166.102 138.573C166.229 138.573 166.365 138.58 166.512 138.593C166.658 138.606 166.819 138.642 166.995 138.7C167.148 138.752 167.278 138.83 167.386 138.935C167.493 139.035 167.547 139.167 167.547 139.33C167.547 139.464 167.501 139.586 167.41 139.696C167.322 139.804 167.205 139.857 167.059 139.857C166.938 139.857 166.839 139.831 166.761 139.779C166.683 139.727 166.618 139.657 166.565 139.569C166.513 139.481 166.471 139.387 166.438 139.286C166.406 139.185 166.37 139.086 166.331 138.988C166.269 138.962 166.214 138.944 166.165 138.935C166.116 138.925 166.051 138.92 165.97 138.92C165.651 138.92 165.408 139.006 165.242 139.179C165.079 139.348 164.998 139.55 164.998 139.784C164.998 140.012 165.071 140.185 165.218 140.302C165.368 140.416 165.613 140.535 165.955 140.658C166.398 140.818 166.718 141 166.917 141.205C167.119 141.41 167.22 141.664 167.22 141.967C167.22 142.462 167.029 142.865 166.648 143.178C166.268 143.487 165.787 143.642 165.208 143.642ZM172.576 143.642C172.176 143.642 171.824 143.593 171.521 143.495C171.222 143.394 170.979 143.279 170.794 143.148L170.516 143.505H170.125L170.604 141.132H170.999C171.015 141.415 171.053 141.68 171.111 141.928C171.173 142.175 171.272 142.398 171.409 142.597C171.546 142.802 171.723 142.961 171.941 143.075C172.159 143.186 172.43 143.241 172.752 143.241C173.237 143.241 173.626 143.108 173.919 142.841C174.212 142.571 174.358 142.203 174.358 141.737C174.358 141.487 174.297 141.264 174.173 141.068C174.049 140.873 173.864 140.722 173.616 140.614C173.382 140.513 173.149 140.424 172.918 140.346C172.69 140.264 172.465 140.17 172.244 140.062C171.951 139.923 171.715 139.722 171.536 139.462C171.357 139.198 171.268 138.902 171.268 138.573C171.268 138.261 171.336 137.973 171.473 137.709C171.613 137.445 171.797 137.217 172.024 137.025C172.246 136.84 172.513 136.692 172.825 136.581C173.141 136.47 173.453 136.415 173.763 136.415C174.052 136.415 174.326 136.449 174.583 136.518C174.843 136.586 175.104 136.715 175.364 136.903L175.633 136.571H176.023L175.53 138.871H175.135C175.125 138.62 175.099 138.362 175.057 138.095C175.018 137.828 174.949 137.606 174.852 137.431C174.744 137.239 174.594 137.089 174.402 136.981C174.21 136.871 173.955 136.815 173.636 136.815C173.252 136.815 172.929 136.949 172.669 137.216C172.409 137.479 172.278 137.794 172.278 138.158C172.278 138.399 172.326 138.604 172.42 138.773C172.518 138.939 172.667 139.075 172.869 139.179C173.084 139.289 173.309 139.385 173.543 139.467C173.781 139.545 173.992 139.628 174.178 139.716C174.552 139.892 174.843 140.103 175.052 140.351C175.263 140.598 175.369 140.901 175.369 141.259C175.369 141.604 175.294 141.926 175.145 142.226C174.995 142.525 174.795 142.776 174.544 142.978C174.28 143.192 173.984 143.357 173.655 143.471C173.33 143.585 172.97 143.642 172.576 143.642ZM177.264 143.603C176.954 143.603 176.728 143.541 176.585 143.417C176.442 143.29 176.37 143.109 176.37 142.875C176.37 142.8 176.375 142.73 176.385 142.665C176.395 142.597 176.408 142.52 176.424 142.436L177.181 139.174H176.312L176.414 138.729H177.303L177.645 137.299H178.523L178.191 138.729H179.554L179.451 139.174H178.099L177.474 141.864C177.444 141.988 177.42 142.108 177.4 142.226C177.381 142.34 177.371 142.437 177.371 142.519C177.371 142.698 177.415 142.829 177.503 142.914C177.594 142.995 177.757 143.036 177.991 143.036C178.076 143.036 178.195 143.026 178.348 143.007C178.501 142.984 178.619 142.956 178.704 142.924L178.621 143.28C178.393 143.368 178.178 143.443 177.977 143.505C177.775 143.57 177.537 143.603 177.264 143.603ZM182.659 142.855H182.625C182.553 142.914 182.467 142.989 182.366 143.08C182.269 143.168 182.153 143.253 182.02 143.334C181.893 143.415 181.754 143.485 181.604 143.544C181.455 143.606 181.292 143.637 181.116 143.637C180.644 143.637 180.273 143.467 180.003 143.129C179.736 142.79 179.603 142.328 179.603 141.742C179.603 141.339 179.677 140.946 179.827 140.565C179.977 140.185 180.184 139.843 180.447 139.54C180.698 139.25 180.996 139.018 181.341 138.842C181.686 138.663 182.041 138.573 182.405 138.573C182.636 138.573 182.856 138.604 183.064 138.666C183.276 138.728 183.442 138.798 183.562 138.876L184.456 138.646L184.515 138.72L183.772 141.869C183.746 141.97 183.719 142.094 183.689 142.24C183.663 142.383 183.65 142.489 183.65 142.558C183.65 142.743 183.689 142.868 183.768 142.934C183.846 142.999 183.978 143.031 184.163 143.031C184.225 143.031 184.313 143.021 184.427 143.002C184.541 142.982 184.629 142.961 184.69 142.938L184.617 143.251C184.324 143.368 184.106 143.453 183.963 143.505C183.82 143.557 183.646 143.583 183.44 143.583C183.206 143.583 183.021 143.515 182.884 143.378C182.747 143.241 182.672 143.067 182.659 142.855ZM183.357 139.77C183.357 139.662 183.346 139.56 183.323 139.462C183.3 139.364 183.253 139.273 183.182 139.188C183.117 139.107 183.027 139.042 182.913 138.993C182.799 138.944 182.656 138.92 182.483 138.92C182.246 138.92 182.015 138.998 181.79 139.154C181.565 139.311 181.364 139.521 181.185 139.784C181.015 140.032 180.877 140.331 180.77 140.683C180.662 141.034 180.608 141.391 180.608 141.752C180.608 141.951 180.62 142.126 180.643 142.279C180.665 142.432 180.709 142.572 180.774 142.699C180.836 142.823 180.926 142.919 181.043 142.987C181.16 143.056 181.308 143.09 181.487 143.09C181.67 143.09 181.86 143.039 182.059 142.938C182.26 142.834 182.487 142.654 182.737 142.396L183.357 139.77ZM187.166 143.637C186.596 143.637 186.146 143.471 185.813 143.139C185.485 142.807 185.32 142.335 185.32 141.723C185.32 141.316 185.382 140.927 185.506 140.556C185.633 140.181 185.809 139.849 186.033 139.56C186.258 139.27 186.541 139.034 186.883 138.852C187.228 138.666 187.61 138.573 188.03 138.573C188.496 138.573 188.849 138.673 189.09 138.871C189.334 139.066 189.456 139.314 189.456 139.613C189.456 139.838 189.402 140.035 189.295 140.204C189.191 140.373 189.033 140.458 188.821 140.458C188.646 140.458 188.514 140.414 188.426 140.326C188.338 140.238 188.294 140.141 188.294 140.033C188.294 139.929 188.33 139.787 188.401 139.608C188.473 139.426 188.53 139.28 188.572 139.169C188.536 139.081 188.457 139.018 188.333 138.979C188.209 138.936 188.081 138.915 187.947 138.915C187.505 138.915 187.122 139.174 186.8 139.691C186.481 140.206 186.321 140.837 186.321 141.586C186.321 142.048 186.424 142.416 186.629 142.689C186.837 142.96 187.117 143.095 187.469 143.095C187.784 143.095 188.064 143.01 188.309 142.841C188.556 142.672 188.792 142.432 189.017 142.123L189.295 142.328C189.07 142.683 188.764 142.991 188.377 143.251C187.993 143.508 187.589 143.637 187.166 143.637ZM194.764 139.13C194.764 139.273 194.707 139.407 194.593 139.53C194.482 139.651 194.344 139.711 194.178 139.711C194.07 139.711 193.965 139.696 193.86 139.667C193.756 139.638 193.642 139.594 193.519 139.535C193.34 139.636 193.154 139.761 192.962 139.911C192.773 140.058 192.566 140.237 192.342 140.448C192.527 140.93 192.684 141.326 192.811 141.635C192.941 141.941 193.051 142.191 193.143 142.387C193.26 142.631 193.388 142.805 193.528 142.909C193.672 143.01 193.828 143.061 193.997 143.061C194.075 143.061 194.183 143.049 194.319 143.026C194.456 143 194.562 142.974 194.637 142.948L194.563 143.271C194.261 143.394 194.023 143.477 193.851 143.52C193.678 143.562 193.504 143.583 193.328 143.583C193.12 143.583 192.941 143.526 192.791 143.412C192.645 143.295 192.503 143.085 192.366 142.782C192.233 142.493 192.114 142.208 192.01 141.928C191.906 141.645 191.803 141.378 191.702 141.127L191.131 141.615L190.711 143.5H189.803L191.253 137.216C191.276 137.115 191.29 137.045 191.297 137.006C191.307 136.967 191.312 136.918 191.312 136.859C191.312 136.742 191.292 136.653 191.253 136.591C191.214 136.526 191.159 136.477 191.087 136.444C191.019 136.415 190.932 136.396 190.828 136.386C190.724 136.376 190.618 136.365 190.511 136.352L190.579 136.054L192.391 135.941L192.439 136.015L191.248 141.098H191.268C191.635 140.701 191.969 140.357 192.269 140.067C192.571 139.774 192.887 139.477 193.216 139.174C193.45 138.959 193.636 138.812 193.772 138.734C193.909 138.653 194.056 138.612 194.212 138.612C194.378 138.612 194.511 138.66 194.612 138.754C194.713 138.845 194.764 138.97 194.764 139.13ZM197.508 142.968L197.435 143.28C197.135 143.401 196.896 143.484 196.717 143.529C196.538 143.578 196.385 143.603 196.258 143.603C195.997 143.603 195.802 143.536 195.672 143.402C195.542 143.266 195.477 143.098 195.477 142.899C195.477 142.825 195.483 142.746 195.496 142.665C195.509 142.584 195.53 142.481 195.56 142.357L196.077 140.282C196.103 140.168 196.128 140.046 196.15 139.916C196.176 139.786 196.189 139.675 196.189 139.584C196.189 139.402 196.159 139.281 196.097 139.223C196.038 139.161 195.916 139.13 195.73 139.13C195.659 139.13 195.563 139.141 195.442 139.164C195.325 139.187 195.236 139.206 195.174 139.223L195.247 138.91C195.501 138.796 195.729 138.712 195.931 138.656C196.132 138.601 196.292 138.573 196.409 138.573C196.676 138.573 196.87 138.637 196.99 138.764C197.111 138.891 197.171 139.062 197.171 139.276C197.171 139.335 197.164 139.415 197.151 139.516C197.138 139.617 197.119 139.717 197.093 139.818L196.57 141.894C196.538 142.021 196.508 142.146 196.482 142.27C196.46 142.39 196.448 142.489 196.448 142.567C196.448 142.753 196.489 142.88 196.57 142.948C196.655 143.017 196.79 143.051 196.976 143.051C197.037 143.051 197.125 143.043 197.239 143.026C197.356 143.01 197.446 142.991 197.508 142.968ZM197.854 136.728C197.854 136.913 197.794 137.076 197.674 137.216C197.553 137.353 197.404 137.421 197.225 137.421C197.059 137.421 196.915 137.356 196.795 137.226C196.674 137.092 196.614 136.941 196.614 136.771C196.614 136.592 196.674 136.436 196.795 136.303C196.915 136.169 197.059 136.103 197.225 136.103C197.41 136.103 197.562 136.166 197.679 136.293C197.796 136.417 197.854 136.562 197.854 136.728ZM203.406 142.934L203.333 143.246C203.04 143.363 202.812 143.448 202.649 143.5C202.487 143.555 202.322 143.583 202.156 143.583C201.896 143.583 201.701 143.516 201.57 143.383C201.44 143.246 201.375 143.078 201.375 142.88C201.375 142.808 201.382 142.73 201.395 142.646C201.408 142.558 201.429 142.455 201.458 142.338L201.937 140.517C201.972 140.377 202 140.25 202.02 140.136C202.042 140.022 202.054 139.931 202.054 139.862C202.054 139.644 202.002 139.472 201.897 139.345C201.793 139.218 201.639 139.154 201.434 139.154C201.235 139.154 201.012 139.219 200.765 139.35C200.517 139.48 200.284 139.669 200.066 139.916L199.241 143.5H198.333L199.061 140.336C199.077 140.258 199.1 140.146 199.129 139.999C199.161 139.849 199.178 139.729 199.178 139.638C199.178 139.455 199.147 139.333 199.085 139.271C199.023 139.21 198.899 139.179 198.714 139.179C198.642 139.179 198.551 139.192 198.44 139.218C198.33 139.241 198.243 139.26 198.182 139.276L198.255 138.964C198.509 138.85 198.733 138.765 198.929 138.71C199.124 138.655 199.292 138.627 199.432 138.627C199.689 138.627 199.873 138.697 199.983 138.837C200.094 138.977 200.153 139.171 200.159 139.418H200.188C200.547 139.132 200.856 138.92 201.116 138.783C201.377 138.643 201.673 138.573 202.005 138.573C202.317 138.573 202.562 138.664 202.737 138.847C202.913 139.026 203.001 139.262 203.001 139.555C203.001 139.613 202.991 139.717 202.972 139.867C202.955 140.017 202.928 140.165 202.889 140.312L202.479 141.879C202.449 141.983 202.42 142.104 202.391 142.24C202.365 142.374 202.352 142.478 202.352 142.553C202.352 142.738 202.392 142.865 202.474 142.934C202.555 142.999 202.688 143.031 202.874 143.031C202.936 143.031 203.024 143.021 203.138 143.002C203.255 142.979 203.344 142.956 203.406 142.934ZM207.156 142.841L207.122 142.831C207.057 142.883 206.964 142.956 206.844 143.051C206.727 143.145 206.603 143.228 206.473 143.3C206.323 143.388 206.172 143.459 206.019 143.515C205.866 143.57 205.696 143.598 205.511 143.598C205.039 143.598 204.674 143.432 204.417 143.1C204.163 142.764 204.036 142.304 204.036 141.718C204.036 141.314 204.109 140.922 204.256 140.541C204.406 140.16 204.609 139.822 204.866 139.525C205.114 139.239 205.41 139.009 205.755 138.837C206.1 138.661 206.461 138.573 206.839 138.573C207.073 138.573 207.295 138.604 207.503 138.666C207.711 138.725 207.879 138.795 208.006 138.876L208.899 138.646L208.958 138.72L208.138 142.567C208.014 143.15 207.854 143.642 207.659 144.042C207.467 144.446 207.244 144.765 206.99 144.999C206.73 145.24 206.442 145.411 206.126 145.512C205.813 145.616 205.459 145.668 205.062 145.668C204.791 145.668 204.57 145.647 204.397 145.604C204.228 145.562 204.095 145.507 203.997 145.438C203.899 145.37 203.833 145.292 203.797 145.204C203.764 145.119 203.748 145.038 203.748 144.96C203.748 144.813 203.792 144.69 203.88 144.589C203.968 144.491 204.088 144.442 204.241 144.442C204.362 144.442 204.464 144.477 204.549 144.545C204.633 144.617 204.702 144.693 204.754 144.774C204.809 144.859 204.863 144.96 204.915 145.077C204.967 145.194 205.006 145.282 205.032 145.341H205.179C205.358 145.341 205.55 145.3 205.755 145.219C205.96 145.137 206.147 145.006 206.316 144.823C206.489 144.634 206.65 144.381 206.8 144.062C206.95 143.746 207.068 143.339 207.156 142.841ZM207.811 139.721C207.811 139.63 207.796 139.537 207.767 139.442C207.741 139.345 207.69 139.255 207.615 139.174C207.544 139.096 207.452 139.034 207.342 138.988C207.231 138.943 207.09 138.92 206.917 138.92C206.666 138.92 206.429 138.996 206.204 139.149C205.983 139.299 205.783 139.506 205.604 139.77C205.437 140.017 205.302 140.316 205.198 140.668C205.094 141.02 205.042 141.373 205.042 141.728C205.042 141.92 205.055 142.097 205.081 142.26C205.11 142.419 205.159 142.559 205.228 142.68C205.296 142.8 205.385 142.895 205.496 142.963C205.61 143.028 205.757 143.061 205.936 143.061C206.163 143.061 206.39 142.995 206.614 142.865C206.839 142.732 207.052 142.562 207.254 142.357L207.811 139.721ZM214.007 135.81C214.64 135.81 215.203 135.913 215.697 136.12C216.19 136.327 216.58 136.617 216.867 136.99C217.153 137.363 217.297 137.8 217.297 138.3C217.297 138.807 217.153 139.247 216.867 139.62C216.58 139.993 216.19 140.283 215.697 140.49C215.203 140.697 214.64 140.8 214.007 140.8C213.387 140.8 212.827 140.697 212.327 140.49C211.833 140.283 211.443 139.993 211.157 139.62C210.87 139.247 210.727 138.807 210.727 138.3C210.727 137.8 210.87 137.363 211.157 136.99C211.443 136.617 211.833 136.327 212.327 136.12C212.827 135.913 213.387 135.81 214.007 135.81ZM214.007 136.48C213.533 136.48 213.11 136.557 212.737 136.71C212.363 136.863 212.067 137.077 211.847 137.35C211.627 137.617 211.517 137.933 211.517 138.3C211.517 138.66 211.627 138.977 211.847 139.25C212.067 139.523 212.363 139.737 212.737 139.89C213.11 140.043 213.533 140.12 214.007 140.12C214.487 140.12 214.913 140.043 215.287 139.89C215.66 139.737 215.953 139.523 216.167 139.25C216.387 138.977 216.497 138.66 216.497 138.3C216.497 137.933 216.387 137.617 216.167 137.35C215.953 137.077 215.66 136.863 215.287 136.71C214.913 136.557 214.487 136.48 214.007 136.48ZM209.927 142.39H218.127V143.08H209.927V142.39ZM219.126 142.47H227.326V143.16H219.126V142.47ZM222.796 140.54H223.616V142.76H222.796V140.54ZM220.126 135.9H226.306V138.64H220.966V140.45H220.146V137.98H225.486V136.58H220.126V135.9ZM220.146 140.1H226.516V140.78H220.146V140.1ZM233.137 135.93C233.584 135.93 233.977 136.06 234.317 136.32C234.657 136.573 234.924 136.937 235.117 137.41C235.311 137.883 235.407 138.44 235.407 139.08C235.407 139.72 235.311 140.277 235.117 140.75C234.924 141.223 234.657 141.59 234.317 141.85C233.977 142.11 233.584 142.24 233.137 142.24C232.697 142.24 232.304 142.11 231.957 141.85C231.617 141.59 231.351 141.223 231.157 140.75C230.964 140.277 230.867 139.72 230.867 139.08C230.867 138.44 230.964 137.883 231.157 137.41C231.351 136.937 231.617 136.573 231.957 136.32C232.304 136.06 232.697 135.93 233.137 135.93ZM233.137 136.67C232.851 136.67 232.594 136.77 232.367 136.97C232.147 137.163 231.974 137.443 231.847 137.81C231.721 138.17 231.657 138.593 231.657 139.08C231.657 139.567 231.721 139.993 231.847 140.36C231.974 140.72 232.147 141 232.367 141.2C232.594 141.4 232.854 141.5 233.147 141.5C233.434 141.5 233.687 141.4 233.907 141.2C234.134 141 234.307 140.72 234.427 140.36C234.554 139.993 234.617 139.567 234.617 139.08C234.617 138.593 234.554 138.17 234.427 137.81C234.307 137.443 234.134 137.163 233.907 136.97C233.687 136.77 233.431 136.67 233.137 136.67ZM236.857 135.23H237.687V144.28H236.857V135.23ZM237.497 138.84H239.167V139.54H237.497V138.84ZM246.057 135.23H246.887V144.28H246.057V135.23ZM246.697 138.79H248.367V139.5H246.697V138.79ZM240.297 136H241.117V138.38H243.687V136H244.507V142.11H240.297V136ZM241.117 139.04V141.42H243.687V139.04H241.117ZM249.526 141.41H250.236C250.789 141.41 251.296 141.403 251.756 141.39C252.216 141.377 252.659 141.35 253.086 141.31C253.519 141.27 253.962 141.21 254.416 141.13L254.496 141.81C254.036 141.89 253.586 141.953 253.146 142C252.706 142.04 252.249 142.067 251.776 142.08C251.309 142.093 250.796 142.1 250.236 142.1H249.526V141.41ZM249.526 136.05H253.736V136.74H250.356V141.65H249.526V136.05ZM250.146 138.59H253.536V139.26H250.146V138.59ZM255.256 135.23H256.086V144.28H255.256V135.23ZM255.896 138.86H257.566V139.56H255.896V138.86ZM264.367 135.85H265.097V136.55C265.097 136.943 265.027 137.317 264.887 137.67C264.754 138.023 264.567 138.353 264.327 138.66C264.094 138.96 263.82 139.23 263.507 139.47C263.2 139.71 262.87 139.913 262.517 140.08C262.17 140.247 261.817 140.373 261.457 140.46L261.087 139.77C261.4 139.703 261.714 139.6 262.027 139.46C262.347 139.32 262.647 139.15 262.927 138.95C263.207 138.743 263.454 138.513 263.667 138.26C263.887 138.007 264.057 137.737 264.177 137.45C264.304 137.157 264.367 136.857 264.367 136.55V135.85ZM264.527 135.85H265.237V136.55C265.237 136.857 265.3 137.157 265.427 137.45C265.554 137.737 265.724 138.007 265.937 138.26C266.157 138.513 266.407 138.743 266.687 138.95C266.967 139.15 267.264 139.323 267.577 139.47C267.897 139.61 268.217 139.71 268.537 139.77L268.157 140.46C267.797 140.373 267.444 140.247 267.097 140.08C266.75 139.913 266.42 139.71 266.107 139.47C265.8 139.23 265.527 138.96 265.287 138.66C265.047 138.353 264.86 138.023 264.727 137.67C264.594 137.317 264.527 136.943 264.527 136.55V135.85ZM260.747 142.37H268.947V143.06H260.747V142.37ZM270.336 139.56H270.906C271.386 139.56 271.806 139.557 272.166 139.55C272.533 139.537 272.876 139.513 273.196 139.48C273.516 139.44 273.843 139.387 274.176 139.32L274.266 140C273.92 140.067 273.58 140.12 273.246 140.16C272.92 140.193 272.57 140.217 272.196 140.23C271.823 140.243 271.393 140.25 270.906 140.25H270.336V139.56ZM270.336 135.89H273.826V136.57H271.136V139.93H270.336V135.89ZM270.886 137.69H273.726V138.34H270.886V137.69ZM276.776 135.24H277.566V140.72H276.776V135.24ZM275.316 137.59H277.016V138.27H275.316V137.59ZM274.776 135.41H275.556V140.66H274.776V135.41ZM271.506 141.19H277.566V144.28H276.746V141.87H271.506V141.19ZM282.578 135.82H288.238V136.49H282.578V135.82ZM281.558 139.7H289.728V140.39H281.558V139.7ZM285.208 140.16H286.038V144.29H285.208V140.16ZM287.838 135.82H288.658V136.61C288.658 136.923 288.651 137.253 288.638 137.6C288.631 137.947 288.604 138.33 288.558 138.75C288.511 139.163 288.431 139.623 288.318 140.13L287.488 140.02C287.668 139.293 287.771 138.657 287.798 138.11C287.824 137.563 287.838 137.063 287.838 136.61V135.82ZM297.367 135.24H298.197V142.14H297.367V135.24ZM295.837 137.64H297.707V138.32H295.837V137.64ZM295.837 139.54H297.707V140.21H295.837V139.54ZM290.767 136.34H295.837V137.01H290.767V136.34ZM293.327 137.5C293.734 137.5 294.09 137.573 294.397 137.72C294.704 137.867 294.944 138.07 295.117 138.33C295.29 138.59 295.377 138.89 295.377 139.23C295.377 139.57 295.29 139.873 295.117 140.14C294.944 140.4 294.704 140.603 294.397 140.75C294.09 140.89 293.734 140.96 293.327 140.96C292.927 140.96 292.574 140.89 292.267 140.75C291.96 140.603 291.72 140.4 291.547 140.14C291.374 139.873 291.287 139.57 291.287 139.23C291.287 138.89 291.374 138.59 291.547 138.33C291.72 138.07 291.96 137.867 292.267 137.72C292.574 137.573 292.927 137.5 293.327 137.5ZM293.327 138.16C292.954 138.16 292.65 138.26 292.417 138.46C292.184 138.653 292.067 138.91 292.067 139.23C292.067 139.557 292.184 139.82 292.417 140.02C292.65 140.213 292.954 140.31 293.327 140.31C293.7 140.31 294.004 140.213 294.237 140.02C294.477 139.82 294.597 139.557 294.597 139.23C294.597 138.91 294.477 138.653 294.237 138.46C294.004 138.26 293.7 138.16 293.327 138.16ZM292.927 135.23H293.747V136.76H292.927V135.23ZM292.387 143.4H298.407V144.08H292.387V143.4ZM292.387 141.54H293.217V143.72H292.387V141.54Z" fill="#9A9090"/>
<defs>
<linearGradient id="paint0_linear_546_10164" x1="0.5" y1="0.5" x2="114.527" y2="272.74" gradientUnits="userSpaceOnUse">
<stop stop-color="#F3F3F3"/>
<stop offset="1" stop-color="#EBEBEB"/>
</linearGradient>
</defs>
</svg>
