<svg width="383" height="161" viewBox="0 0 383 161" fill="none" xmlns="http://www.w3.org/2000/svg">
<path d="M374.5 0.5H8.5C4.08172 0.5 0.5 4.08172 0.5 8.5V152.5C0.5 156.918 4.08172 160.5 8.5 160.5H374.5C378.918 160.5 382.5 156.918 382.5 152.5V8.5C382.5 4.08172 378.918 0.5 374.5 0.5Z" fill="url(#paint0_linear_546_10156)" stroke="#E2E2E2"/>
<path opacity="0.7" d="M59.6445 20.5H33.6445C26.4648 20.5 20.6445 26.3203 20.6445 33.5C20.6445 40.6797 26.4648 46.5 33.6445 46.5H59.6445C66.8242 46.5 72.6445 40.6797 72.6445 33.5C72.6445 26.3203 66.8242 20.5 59.6445 20.5Z" fill="#D4A853"/>
<path d="M40.874 28.6094V37.3105H40.1025V28.6094H40.874ZM38.4131 29.4395V30.084H35.0537V34.4883C36.7432 34.4883 37.8564 34.4346 39.1553 34.2051L39.2334 34.8496C37.8857 35.0938 36.7432 35.1426 34.9854 35.1523H34.2822V29.4395H38.4131ZM45.2979 31.2754C45.2881 32.6719 46.2939 34.2051 47.5537 34.8008L47.1143 35.4062C46.1377 34.9326 45.3125 33.8975 44.9268 32.7207C44.5264 34 43.6523 35.123 42.6807 35.6211L42.2119 35.0156C43.4619 34.4102 44.5361 32.7598 44.5459 31.2754V30.1426H42.5244V29.5078H47.251V30.1426H45.2979V31.2754ZM49.0771 28.6094V32.125H50.5322V32.7793H49.0771V37.291H48.3154V28.6094H49.0771ZM58.1689 28.6191V34.9668H57.4072V28.6191H58.1689ZM58.4424 36.4609V37.1055H52.5635V34.3223H53.3252V36.4609H58.4424ZM53.4814 29.2246C54.7803 29.2246 55.7568 30.1035 55.7568 31.3535C55.7568 32.623 54.7803 33.4922 53.4814 33.4922C52.1826 33.4922 51.2061 32.623 51.2061 31.3535C51.2061 30.1035 52.1826 29.2246 53.4814 29.2246ZM53.4814 29.8984C52.6025 29.8984 51.9482 30.5039 51.958 31.3535C51.9482 32.2227 52.6025 32.8184 53.4814 32.8184C54.3408 32.8184 55.0049 32.2227 55.0049 31.3535C55.0049 30.5039 54.3408 29.8984 53.4814 29.8984Z" fill="white"/>
<path opacity="0.7" d="M119.332 20.5H93.332C86.1523 20.5 80.332 26.3203 80.332 33.5C80.332 40.6797 86.1523 46.5 93.332 46.5H119.332C126.512 46.5 132.332 40.6797 132.332 33.5C132.332 26.3203 126.512 20.5 119.332 20.5Z" fill="#8FAF8A"/>
<path d="M105.613 28.6094V37.291H104.861V32.75H103.66V36.8613H102.928V28.8438H103.66V32.1152H104.861V28.6094H105.613ZM101.941 29.7422C101.932 31.9492 101.16 34.0391 98.6602 35.4258L98.2109 34.8887C100.228 33.7656 101.062 32.1738 101.189 30.377H98.543V29.7422H101.941ZM107.967 28.9805V30.2305H110.496V28.9805H111.258V32.7598H107.215V28.9805H107.967ZM107.967 32.1348H110.496V30.8262H107.967V32.1348ZM113.631 28.6094V30.4941H114.939V31.1387H113.631V33.1016H112.869V28.6094H113.631ZM113.631 33.5117V35.6113H108.865V36.5684H113.953V37.1934H108.113V35.0254H112.869V34.127H108.094V33.5117H113.631Z" fill="white"/>
<path opacity="0.7" d="M191.393 20.5H153.393C146.213 20.5 140.393 26.3203 140.393 33.5C140.393 40.6797 146.213 46.5 153.393 46.5H191.393C198.572 46.5 204.393 40.6797 204.393 33.5C204.393 26.3203 198.572 20.5 191.393 20.5Z" fill="#C4876A"/>
<path d="M150.74 29.1758C152.586 29.1855 153.914 30.084 153.914 31.4512C153.914 32.7451 152.762 33.6045 151.111 33.707V35.5332H154.734V36.1777H146.785V35.5332H150.359V33.707C148.714 33.5996 147.566 32.7402 147.566 31.4512C147.566 30.084 148.895 29.1855 150.74 29.1758ZM150.74 29.8105C149.334 29.8105 148.309 30.4746 148.309 31.4512C148.309 32.457 149.334 33.1016 150.74 33.1113C152.146 33.1016 153.172 32.457 153.172 31.4512C153.172 30.4746 152.146 29.8105 150.74 29.8105ZM162.459 33.1309V33.7559H159.764V35.5723H163.377V36.207H155.428V35.5723H159.002V33.7559H156.453V29.3223H162.361V29.957H157.234V31.1973H162.176V31.8223H157.234V33.1309H162.459ZM167.459 29.5762V32.5742H165.105V34.5078C166.106 34.5029 167.054 34.4688 168.211 34.2637L168.27 34.8984C167.029 35.123 166.043 35.1426 164.939 35.1523H164.363V31.9395H166.727V30.2109H164.344V29.5762H167.459ZM171.492 28.6094V37.291H170.76V28.6094H171.492ZM169.715 28.8242V36.832H168.992V32.3691H167.879V31.7441H168.992V28.8242H169.715ZM179.871 28.6094V37.3105H179.1V28.6094H179.871ZM175.252 29.2832C176.541 29.293 177.469 30.4648 177.469 32.3105C177.469 34.1562 176.541 35.3281 175.252 35.3281C173.953 35.3281 173.035 34.1562 173.035 32.3105C173.035 30.4648 173.953 29.293 175.252 29.2832ZM175.252 29.9668C174.383 29.9766 173.777 30.8945 173.777 32.3105C173.777 33.7266 174.383 34.6445 175.252 34.6445C176.121 34.6445 176.727 33.7266 176.727 32.3105C176.727 30.8945 176.121 29.9766 175.252 29.9668ZM183.68 29.2832C184.959 29.293 185.867 30.4648 185.877 32.3105C185.867 34.1562 184.959 35.3281 183.68 35.3281C182.391 35.3281 181.492 34.1562 181.492 32.3105C181.492 30.4648 182.391 29.293 183.68 29.2832ZM183.68 29.9668C182.82 29.9766 182.215 30.8945 182.215 32.3105C182.215 33.7266 182.82 34.6445 183.68 34.6445C184.549 34.6445 185.135 33.7266 185.135 32.3105C185.135 30.8945 184.549 29.9766 183.68 29.9668ZM188.074 28.6094V32.0762H189.529V32.7402H188.074V37.291H187.312V28.6094H188.074ZM197.938 32.5742V33.2383H194.314V34.1855H193.562V33.2383H189.998V32.5742H197.938ZM194.324 34.8594C194.324 35.8164 195.73 36.5098 197.303 36.666L197.059 37.252C195.687 37.1055 194.451 36.5781 193.934 35.7383C193.416 36.5684 192.19 37.1055 190.828 37.252L190.574 36.666C192.127 36.5098 193.543 35.8066 193.543 34.8594V34.5762H194.324V34.8594ZM193.953 28.7559C195.857 28.7559 197.02 29.3223 197.02 30.3379C197.02 31.3438 195.857 31.9297 193.953 31.9199C192.049 31.9297 190.877 31.3438 190.877 30.3379C190.877 29.3223 192.049 28.7559 193.953 28.7559ZM193.953 29.3418C192.537 29.332 191.658 29.7129 191.668 30.3379C191.658 30.9531 192.537 31.3242 193.953 31.3242C195.359 31.3242 196.238 30.9531 196.238 30.3379C196.238 29.7129 195.359 29.332 193.953 29.3418Z" fill="white"/>
<path opacity="0.5" d="M251.391 20.5H225.391C218.211 20.5 212.391 26.3203 212.391 33.5C212.391 40.6797 218.211 46.5 225.391 46.5H251.391C258.57 46.5 264.391 40.6797 264.391 33.5C264.391 26.3203 258.57 20.5 251.391 20.5Z" fill="#5FAFFF"/>
<path d="M237.438 28.6094V37.291H236.666V28.6094H237.438ZM234.869 29.5566C234.859 32.0566 233.697 34.2637 230.787 35.6602L230.367 35.0352C232.716 33.9219 233.912 32.2568 234.088 30.1816H230.768V29.5566H234.869ZM244.361 29.4102V29.9961H239.234V29.4102H241.412V28.5605H242.174V29.4102H244.361ZM241.803 30.3281C243.043 30.3281 243.873 30.8262 243.883 31.627C243.873 32.335 243.204 32.8037 242.174 32.8867V33.4629C242.984 33.4287 243.805 33.3652 244.566 33.2578L244.625 33.8047C242.721 34.1172 240.621 34.1465 239.059 34.1465L238.941 33.5312C239.679 33.5312 240.528 33.5264 241.412 33.4922V32.8867C240.377 32.7988 239.723 32.335 239.732 31.627C239.723 30.8262 240.543 30.3281 241.803 30.3281ZM241.803 30.875C240.992 30.8652 240.455 31.1582 240.455 31.627C240.455 32.0762 240.992 32.3691 241.803 32.3594C242.604 32.3691 243.141 32.0762 243.141 31.627C243.141 31.1582 242.604 30.8652 241.803 30.875ZM246.061 28.6387V34.4199H245.289V28.6387H246.061ZM246.061 34.8301V37.291H245.289V35.4453H240.201V34.8301H246.061Z" fill="white"/>
<path opacity="0.5" d="M323.451 20.5H285.451C278.271 20.5 272.451 26.3203 272.451 33.5C272.451 40.6797 278.271 46.5 285.451 46.5H323.451C330.631 46.5 336.451 40.6797 336.451 33.5C336.451 26.3203 330.631 20.5 323.451 20.5Z" fill="#D4A853"/>
<path d="M292.088 29.127C292.078 31.3145 290.818 32.916 288.113 33.7559L287.801 33.1211C289.236 32.6963 290.193 32.0664 290.74 31.2656L287.889 31.4902L287.752 30.8555L291.043 30.6992C291.165 30.4014 291.238 30.084 291.277 29.752H288.191V29.127H292.088ZM294.764 28.6191V33.6191H293.992V31.5586H292.059V30.9141H293.992V28.6191H294.764ZM294.764 34.0879V37.1738H289.129V34.0879H294.764ZM289.871 34.7129V36.5488H294.002V34.7129H289.871ZM304.158 35.5625V36.2168H296.209V35.5625H299.773V33.5605H296.932V32.9453H298.289V30.0938H296.912V29.459H303.396V30.0938H302.02V32.9453H303.377V33.5605H300.525V35.5625H304.158ZM299.051 32.9453H301.268V30.0938H299.051V32.9453ZM312.049 28.6191V34.9082H311.277V31.1484H308.777V30.5137H311.277V28.6191H312.049ZM312.283 36.4609V37.1055H306.453V34.3906H307.225V36.4609H312.283ZM306.141 29.2637V32.8086C307.498 32.8135 308.636 32.7354 309.9 32.4668L310.008 33.1309C308.66 33.3945 307.479 33.4727 306.033 33.4727H305.369V29.2637H306.141ZM320.525 33.3066V33.9316H314.52V29.3613H320.428V30.0059H315.301V31.2949H320.242V31.9102H315.301V33.3066H320.525ZM321.443 35.5234V36.1582H313.494V35.5234H321.443Z" fill="white"/>
<path opacity="0.5" d="M59.6445 56.5H33.6445C26.4648 56.5 20.6445 62.3203 20.6445 69.5C20.6445 76.6797 26.4648 82.5 33.6445 82.5H59.6445C66.8242 82.5 72.6445 76.6797 72.6445 69.5C72.6445 62.3203 66.8242 56.5 59.6445 56.5Z" fill="#8FAF8A"/>
<path d="M38.0811 65.4883V71.084H34.0771V65.4883H38.0811ZM34.8193 66.1035V70.459H37.3193V66.1035H34.8193ZM40.4346 64.6094V68.0762H41.8896V68.7402H40.4346V73.291H39.6729V64.6094H40.4346ZM46.1865 65.6445C46.1816 66.4648 46.0889 67.2754 45.8447 68.0469H47.2314V64.8438H47.9639V72.8516H47.2314V68.6816H45.5908C45.1025 69.751 44.2529 70.7178 42.8564 71.4844L42.417 70.9375C43.7549 70.21 44.5508 69.2969 44.9951 68.2715L42.5146 68.5254L42.3975 67.8418L45.21 67.666C45.332 67.2168 45.4053 66.7529 45.4346 66.2793H42.8174V65.6445H46.1865ZM49.79 64.6094V73.291H49.0576V64.6094H49.79ZM55.6689 65.2539V65.8789H52.2803V66.9727H55.4248V67.5977H52.2803V68.7402C54.1309 68.7402 55.1562 68.7061 56.3818 68.5059L56.46 69.1309C55.1904 69.3359 54.126 69.375 52.2119 69.375H51.5088V65.2539H55.6689ZM58.1689 64.6191V70H57.4072V64.6191H58.1689ZM55.2881 70.127C57.0947 70.1172 58.208 70.6934 58.208 71.6895C58.208 72.7051 57.0947 73.2715 55.2881 73.2715C53.4424 73.2715 52.3486 72.7051 52.3486 71.6895C52.3486 70.6934 53.4424 70.1172 55.2881 70.127ZM55.2881 70.7324C53.9209 70.7324 53.1104 71.0938 53.1104 71.6895C53.1104 72.3047 53.9209 72.666 55.2881 72.666C56.6162 72.666 57.4561 72.3047 57.4561 71.6895C57.4561 71.0938 56.6162 70.7324 55.2881 70.7324Z" fill="white"/>
<path opacity="0.5" d="M119.332 56.5H93.332C86.1523 56.5 80.332 62.3203 80.332 69.5C80.332 76.6797 86.1523 82.5 93.332 82.5H119.332C126.512 82.5 132.332 76.6797 132.332 69.5C132.332 62.3203 126.512 56.5 119.332 56.5Z" fill="#C4876A"/>
<path d="M101.726 71.4941V72.1387H93.7764V71.4941H101.726ZM95.4854 65.2344V66.8555H99.9971V65.2344H100.749V69.7559H94.7139V65.2344H95.4854ZM95.4854 69.1406H99.9971V67.4707H95.4854V69.1406ZM109.792 64.6191V71.084H109.06V67.8613H107.839V70.8301H107.126V64.7852H107.839V67.2168H109.06V64.6191H109.792ZM110.056 72.4609V73.1055H104.099V70.4883H104.86V72.4609H110.056ZM106.091 65.3613V67.8418H103.562V69.1602C104.704 69.1553 105.578 69.1016 106.608 68.8965L106.696 69.5117C105.573 69.7266 104.646 69.7754 103.386 69.7754H102.819V67.2363H105.358V65.9863H102.8V65.3613H106.091ZM118.229 64.6094V69.9609H117.468V64.6094H118.229ZM115.71 65.293V65.9277H112.36V68.4668C114.226 68.4668 115.31 68.4082 116.569 68.1543L116.657 68.7988C115.349 69.043 114.235 69.0918 112.312 69.1016H111.599V65.293H115.71ZM115.329 69.9609C117.136 69.9609 118.249 70.5762 118.259 71.6211C118.249 72.6758 117.136 73.2812 115.329 73.291C113.503 73.2812 112.399 72.6758 112.399 71.6211C112.399 70.5762 113.503 69.9609 115.329 69.9609ZM115.329 70.5762C113.981 70.5762 113.171 70.9668 113.171 71.6211C113.171 72.2754 113.981 72.666 115.329 72.666C116.667 72.666 117.497 72.2754 117.497 71.6211C117.497 70.9668 116.667 70.5762 115.329 70.5762Z" fill="white"/>
<path opacity="0.6" d="M338.48 36.5C350.48 36.5 356.48 39.8333 356.48 46.5C356.48 53.1667 350.48 56.5 338.48 56.5" stroke="#5FAFFF" stroke-width="1.5" stroke-linecap="round"/>
<path opacity="0.15" d="M328.549 50.5H304.549C302.892 50.5 301.549 51.8431 301.549 53.5V59.5C301.549 61.1569 302.892 62.5 304.549 62.5H328.549C330.206 62.5 331.549 61.1569 331.549 59.5V53.5C331.549 51.8431 330.206 50.5 328.549 50.5Z" fill="#5FAFFF"/>
<path d="M308.937 59.5L307.391 53.8438H308.102L309.281 58.4219H309.336L310.531 53.8438H311.32L312.523 58.4219H312.57L313.75 53.8438H314.461L312.914 59.5H312.187L310.953 55.0234H310.906L309.664 59.5H308.937ZM314.859 59.5V55.2578H315.508V55.9062H315.555C315.711 55.4766 316.148 55.1875 316.648 55.1875C316.75 55.1875 316.922 55.1953 317 55.2031V55.8828C316.953 55.8672 316.766 55.8359 316.594 55.8359C315.984 55.8359 315.531 56.2578 315.531 56.8281V59.5H314.859ZM317.445 58.2969C317.445 57.3203 318.305 57.1016 319.039 57.0469C319.309 57.0273 319.996 56.9922 320.187 56.9844V56.6406C320.187 56.1016 319.867 55.7891 319.227 55.7891C318.687 55.7891 318.367 56.0391 318.273 56.3594H317.57C317.656 55.6797 318.32 55.2031 319.258 55.2031C319.812 55.2031 320.852 55.3672 320.852 56.7031V59.5H320.187V58.9219H320.156C320.016 59.2109 319.625 59.6016 318.891 59.6016C318.086 59.6016 317.445 59.125 317.445 58.2969ZM318.117 58.3281C318.117 58.7734 318.492 59 319.008 59C319.766 59 320.187 58.4922 320.187 57.9609V57.5312L319.117 57.6094C318.508 57.6484 318.117 57.8672 318.117 58.3281ZM321.93 61.0938V55.2578H322.578V55.9297H322.656C322.797 55.7031 323.062 55.2031 323.883 55.2031C324.945 55.2031 325.687 56.0469 325.687 57.3906C325.687 58.7344 324.945 59.5859 323.891 59.5859C323.078 59.5859 322.797 59.0859 322.656 58.8516H322.602V61.0938H321.93ZM322.586 57.375C322.586 58.3281 323.016 58.9844 323.797 58.9844C324.602 58.9844 325.016 58.2812 325.016 57.375C325.016 56.4922 324.609 55.8047 323.797 55.8047C323 55.8047 322.586 56.4375 322.586 57.375Z" fill="#5FAFFF"/>
<path d="M118.812 134.23H119.642V143.29H118.812V134.23ZM116.042 137.21H119.082V137.89H116.042V137.21ZM112.682 135.24H113.512V140.85H112.682V135.24ZM112.682 140.4H113.382C113.849 140.4 114.302 140.39 114.742 140.37C115.189 140.35 115.632 140.313 116.072 140.26C116.512 140.207 116.962 140.133 117.422 140.04L117.522 140.73C117.042 140.823 116.576 140.897 116.122 140.95C115.676 141.003 115.226 141.043 114.772 141.07C114.326 141.09 113.862 141.1 113.382 141.1H112.682V140.4ZM127.962 134.23H128.792V143.29H127.962V134.23ZM121.902 135H122.732V137.38H125.342V135H126.162V141.11H121.902V135ZM122.732 138.04V140.42H125.342V138.04H122.732ZM133.003 141.45H141.203V142.14H133.003V141.45ZM136.683 139.4H137.503V141.82H136.683V139.4ZM136.673 136.13H137.413V136.33C137.413 136.79 137.316 137.21 137.123 137.59C136.93 137.963 136.663 138.297 136.323 138.59C135.983 138.877 135.596 139.117 135.163 139.31C134.73 139.497 134.266 139.63 133.773 139.71L133.453 139.06C133.893 138.987 134.306 138.87 134.693 138.71C135.086 138.55 135.43 138.35 135.723 138.11C136.023 137.87 136.256 137.6 136.423 137.3C136.59 137 136.673 136.677 136.673 136.33V136.13ZM136.783 136.13H137.513V136.33C137.513 136.677 137.596 137 137.763 137.3C137.93 137.6 138.16 137.87 138.453 138.11C138.753 138.35 139.096 138.55 139.483 138.71C139.876 138.87 140.293 138.987 140.733 139.06L140.413 139.71C139.926 139.63 139.463 139.497 139.023 139.31C138.59 139.117 138.203 138.877 137.863 138.59C137.53 138.297 137.266 137.963 137.073 137.59C136.88 137.21 136.783 136.79 136.783 136.33V136.13ZM133.763 135.66H140.423V136.34H133.763V135.66ZM136.683 134.42H137.503V135.91H136.683V134.42ZM142.612 135.22H146.692V135.9H142.612V135.22ZM144.022 137.81H144.842V140.87H144.022V137.81ZM146.352 135.22H147.172V135.71C147.172 136.077 147.159 136.557 147.132 137.15C147.112 137.743 147.039 138.46 146.912 139.3L146.092 139.23C146.225 138.41 146.302 137.71 146.322 137.13C146.342 136.55 146.352 136.077 146.352 135.71V135.22ZM148.302 134.23H149.132V143.28H148.302V134.23ZM148.902 138.01H150.572V138.72H148.902V138.01ZM142.212 141.3L142.112 140.61C142.652 140.603 143.242 140.597 143.882 140.59C144.529 140.577 145.182 140.55 145.842 140.51C146.509 140.47 147.145 140.413 147.752 140.34L147.802 140.96C147.175 141.06 146.532 141.133 145.872 141.18C145.219 141.227 144.579 141.26 143.952 141.28C143.325 141.293 142.745 141.3 142.212 141.3ZM156.193 135.01H156.883V136.63C156.883 137.15 156.817 137.657 156.683 138.15C156.557 138.637 156.373 139.093 156.133 139.52C155.9 139.94 155.623 140.313 155.303 140.64C154.99 140.96 154.647 141.213 154.273 141.4L153.763 140.71C154.103 140.557 154.42 140.337 154.713 140.05C155.007 139.763 155.263 139.44 155.483 139.08C155.703 138.713 155.877 138.32 156.003 137.9C156.13 137.48 156.193 137.057 156.193 136.63V135.01ZM156.333 135.01H157.023V136.63C157.023 137.043 157.083 137.45 157.203 137.85C157.33 138.25 157.503 138.63 157.723 138.99C157.95 139.343 158.207 139.657 158.493 139.93C158.787 140.197 159.1 140.407 159.433 140.56L158.933 141.22C158.567 141.047 158.227 140.803 157.913 140.49C157.6 140.177 157.323 139.817 157.083 139.41C156.85 139.003 156.667 138.563 156.533 138.09C156.4 137.617 156.333 137.13 156.333 136.63V135.01ZM160.383 134.23H161.213V143.29H160.383V134.23ZM167.655 135.53H168.325V136.99C168.325 137.463 168.258 137.933 168.125 138.4C167.991 138.86 167.805 139.297 167.565 139.71C167.331 140.117 167.061 140.48 166.755 140.8C166.448 141.113 166.118 141.36 165.765 141.54L165.275 140.88C165.601 140.72 165.905 140.503 166.185 140.23C166.471 139.95 166.725 139.633 166.945 139.28C167.165 138.92 167.338 138.547 167.465 138.16C167.591 137.767 167.655 137.377 167.655 136.99V135.53ZM167.815 135.53H168.475V136.99C168.475 137.35 168.531 137.713 168.645 138.08C168.765 138.447 168.931 138.797 169.145 139.13C169.358 139.463 169.605 139.763 169.885 140.03C170.171 140.29 170.475 140.5 170.795 140.66L170.325 141.32C169.971 141.14 169.641 140.9 169.335 140.6C169.028 140.293 168.761 139.947 168.535 139.56C168.308 139.173 168.131 138.76 168.005 138.32C167.878 137.88 167.815 137.437 167.815 136.99V135.53ZM165.595 135.16H170.475V135.85H165.595V135.16ZM171.545 134.23H172.375V143.28H171.545V134.23ZM172.185 137.88H173.855V138.58H172.185V137.88ZM174.624 138.69H182.804V139.36H174.624V138.69ZM178.304 137.24H179.114V138.97H178.304V137.24ZM175.654 136.98H181.844V137.65H175.654V136.98ZM175.654 134.65H181.784V135.31H176.474V137.38H175.654V134.65ZM178.704 140.01C179.671 140.01 180.427 140.153 180.974 140.44C181.521 140.72 181.794 141.12 181.794 141.64C181.794 142.16 181.521 142.56 180.974 142.84C180.427 143.127 179.671 143.27 178.704 143.27C177.737 143.27 176.977 143.127 176.424 142.84C175.877 142.56 175.604 142.16 175.604 141.64C175.604 141.12 175.877 140.72 176.424 140.44C176.977 140.153 177.737 140.01 178.704 140.01ZM178.694 140.66C178.227 140.66 177.824 140.7 177.484 140.78C177.151 140.853 176.894 140.963 176.714 141.11C176.534 141.25 176.444 141.427 176.444 141.64C176.444 141.847 176.534 142.023 176.714 142.17C176.894 142.317 177.151 142.427 177.484 142.5C177.824 142.58 178.227 142.62 178.694 142.62C179.174 142.62 179.581 142.58 179.914 142.5C180.254 142.427 180.514 142.317 180.694 142.17C180.874 142.023 180.964 141.847 180.964 141.64C180.964 141.427 180.874 141.25 180.694 141.11C180.514 140.963 180.254 140.853 179.914 140.78C179.581 140.7 179.174 140.66 178.694 140.66ZM187.903 134.81C188.537 134.81 189.1 134.913 189.593 135.12C190.087 135.327 190.477 135.617 190.763 135.99C191.05 136.363 191.193 136.8 191.193 137.3C191.193 137.807 191.05 138.247 190.763 138.62C190.477 138.993 190.087 139.283 189.593 139.49C189.1 139.697 188.537 139.8 187.903 139.8C187.283 139.8 186.723 139.697 186.223 139.49C185.73 139.283 185.34 138.993 185.053 138.62C184.767 138.247 184.623 137.807 184.623 137.3C184.623 136.8 184.767 136.363 185.053 135.99C185.34 135.617 185.73 135.327 186.223 135.12C186.723 134.913 187.283 134.81 187.903 134.81ZM187.903 135.48C187.43 135.48 187.007 135.557 186.633 135.71C186.26 135.863 185.963 136.077 185.743 136.35C185.523 136.617 185.413 136.933 185.413 137.3C185.413 137.66 185.523 137.977 185.743 138.25C185.963 138.523 186.26 138.737 186.633 138.89C187.007 139.043 187.43 139.12 187.903 139.12C188.383 139.12 188.81 139.043 189.183 138.89C189.557 138.737 189.85 138.523 190.063 138.25C190.283 137.977 190.393 137.66 190.393 137.3C190.393 136.933 190.283 136.617 190.063 136.35C189.85 136.077 189.557 135.863 189.183 135.71C188.81 135.557 188.383 135.48 187.903 135.48ZM183.823 141.39H192.023V142.08H183.823V141.39ZM193.022 141.47H201.222V142.16H193.022V141.47ZM196.692 139.54H197.512V141.76H196.692V139.54ZM194.022 134.9H200.202V137.64H194.862V139.45H194.042V136.98H199.382V135.58H194.022V134.9ZM194.042 139.1H200.412V139.78H194.042V139.1ZM210.754 134.23H211.584V143.29H210.754V134.23ZM211.394 137.8H213.064V138.49H211.394V137.8ZM205.024 140.33H205.734C206.287 140.33 206.794 140.323 207.254 140.31C207.72 140.29 208.167 140.257 208.594 140.21C209.027 140.163 209.467 140.1 209.914 140.02L210.014 140.73C209.547 140.81 209.094 140.873 208.654 140.92C208.22 140.967 207.767 140.997 207.294 141.01C206.82 141.023 206.3 141.03 205.734 141.03H205.024V140.33ZM205.024 135.11H209.214V135.79H205.844V140.65H205.024V135.11ZM217.913 134.43C218.566 134.43 219.13 134.5 219.603 134.64C220.083 134.773 220.45 134.967 220.703 135.22C220.963 135.473 221.093 135.783 221.093 136.15C221.093 136.503 220.963 136.81 220.703 137.07C220.45 137.323 220.083 137.517 219.603 137.65C219.13 137.783 218.566 137.85 217.913 137.85C217.266 137.85 216.703 137.783 216.223 137.65C215.75 137.517 215.383 137.323 215.123 137.07C214.863 136.81 214.733 136.503 214.733 136.15C214.733 135.783 214.863 135.473 215.123 135.22C215.383 134.967 215.75 134.773 216.223 134.64C216.703 134.5 217.266 134.43 217.913 134.43ZM217.913 135.09C217.44 135.09 217.026 135.133 216.673 135.22C216.326 135.3 216.056 135.42 215.863 135.58C215.676 135.733 215.583 135.923 215.583 136.15C215.583 136.363 215.676 136.55 215.863 136.71C216.056 136.863 216.326 136.983 216.673 137.07C217.026 137.15 217.44 137.19 217.913 137.19C218.393 137.19 218.806 137.15 219.153 137.07C219.506 136.983 219.776 136.863 219.963 136.71C220.15 136.55 220.243 136.363 220.243 136.15C220.243 135.923 220.15 135.733 219.963 135.58C219.776 135.42 219.506 135.3 219.153 135.22C218.806 135.133 218.393 135.09 217.913 135.09ZM214.833 140.18H221.003V143.16H214.833V140.18ZM220.193 140.85H215.643V142.48H220.193V140.85ZM213.833 138.62H222.003V139.3H213.833V138.62ZM229.114 138.49H229.934V139.87H229.114V138.49ZM225.444 138H233.614V138.67H225.444V138ZM226.434 139.57H232.564V141.64H227.264V142.7H226.454V141.04H231.754V140.2H226.434V139.57ZM226.454 142.53H232.834V143.18H226.454V142.53ZM229.054 134.8H229.774V135.07C229.774 135.35 229.711 135.61 229.584 135.85C229.464 136.09 229.288 136.307 229.054 136.5C228.828 136.693 228.561 136.863 228.254 137.01C227.954 137.15 227.624 137.27 227.264 137.37C226.911 137.463 226.541 137.527 226.154 137.56L225.884 136.93C226.218 136.903 226.538 136.853 226.844 136.78C227.158 136.7 227.448 136.603 227.714 136.49C227.981 136.377 228.214 136.247 228.414 136.1C228.614 135.953 228.771 135.793 228.884 135.62C228.998 135.447 229.054 135.263 229.054 135.07V134.8ZM229.284 134.8H230.004V135.07C230.004 135.263 230.061 135.45 230.174 135.63C230.288 135.803 230.444 135.963 230.644 136.11C230.844 136.25 231.078 136.377 231.344 136.49C231.611 136.603 231.898 136.7 232.204 136.78C232.518 136.853 232.844 136.903 233.184 136.93L232.914 137.56C232.528 137.527 232.154 137.463 231.794 137.37C231.441 137.27 231.111 137.15 230.804 137.01C230.504 136.863 230.238 136.693 230.004 136.5C229.778 136.307 229.601 136.09 229.474 135.85C229.348 135.61 229.284 135.35 229.284 135.07V134.8ZM226.194 134.54H232.874V135.2H226.194V134.54ZM234.644 141.47H242.844V142.16H234.644V141.47ZM238.314 139.54H239.134V141.76H238.314V139.54ZM235.644 134.9H241.824V137.64H236.484V139.45H235.664V136.98H241.004V135.58H235.644V134.9ZM235.664 139.1H242.034V139.78H235.664V139.1ZM256.653 135.571L256.58 135.894C256.499 135.897 256.399 135.916 256.282 135.952C256.165 135.985 256.056 136.029 255.955 136.084C255.822 136.159 255.709 136.245 255.618 136.343C255.527 136.44 255.436 136.574 255.345 136.743C255.009 137.365 254.554 138.216 253.978 139.297C253.405 140.378 252.815 141.475 252.21 142.588H251.775L251.209 137.246L248.177 142.588H247.747C247.672 141.107 247.609 139.862 247.557 138.853C247.505 137.84 247.465 137.074 247.439 136.553C247.433 136.449 247.413 136.361 247.381 136.289C247.348 136.217 247.285 136.144 247.19 136.069C247.122 136.014 247.034 135.973 246.927 135.947C246.823 135.918 246.728 135.9 246.644 135.894L246.717 135.571H249.505L249.432 135.894C249.044 135.916 248.784 135.959 248.65 136.021C248.52 136.079 248.455 136.151 248.455 136.235C248.455 136.3 248.457 136.396 248.46 136.523C248.463 136.65 248.468 136.781 248.475 136.914C248.484 137.139 248.507 137.593 248.543 138.276C248.582 138.957 248.629 139.814 248.685 140.85L251.595 135.669H252.044L252.625 140.962C253.032 140.184 253.387 139.494 253.689 138.892C253.992 138.286 254.262 137.743 254.5 137.261C254.643 136.965 254.743 136.74 254.798 136.587C254.856 136.434 254.886 136.326 254.886 136.265C254.886 136.16 254.811 136.077 254.661 136.016C254.515 135.951 254.301 135.91 254.021 135.894L254.095 135.571H256.653ZM260.169 138.369C260.169 138.46 260.156 138.561 260.13 138.672C260.104 138.779 260.066 138.869 260.018 138.94C259.959 139.028 259.894 139.097 259.822 139.146C259.754 139.191 259.655 139.214 259.524 139.214C259.349 139.214 259.217 139.17 259.129 139.082C259.041 138.994 258.997 138.896 258.997 138.789C258.997 138.688 259.021 138.576 259.07 138.452C259.119 138.325 259.17 138.2 259.222 138.076C259.183 138.076 259.118 138.088 259.026 138.11C258.938 138.13 258.831 138.171 258.704 138.232C258.577 138.294 258.432 138.387 258.27 138.511C258.11 138.634 257.939 138.799 257.757 139.004L256.971 142.5H256.062L256.775 139.336C256.792 139.258 256.814 139.141 256.844 138.984C256.876 138.828 256.893 138.713 256.893 138.638C256.893 138.455 256.862 138.333 256.8 138.271C256.738 138.21 256.614 138.179 256.429 138.179C256.357 138.179 256.266 138.192 256.155 138.218C256.045 138.241 255.958 138.26 255.896 138.276L255.97 137.964C256.224 137.85 256.448 137.765 256.644 137.71C256.839 137.655 257.007 137.627 257.146 137.627C257.407 137.627 257.592 137.699 257.703 137.842C257.814 137.982 257.869 138.193 257.869 138.477H257.898C258.286 138.141 258.579 137.907 258.777 137.773C258.979 137.64 259.189 137.573 259.407 137.573C259.511 137.573 259.612 137.586 259.71 137.612C259.808 137.638 259.891 137.682 259.959 137.744C260.031 137.812 260.083 137.892 260.115 137.983C260.151 138.071 260.169 138.2 260.169 138.369ZM263.528 141.855H263.494C263.423 141.914 263.336 141.989 263.235 142.08C263.138 142.168 263.022 142.253 262.889 142.334C262.762 142.415 262.623 142.485 262.474 142.544C262.324 142.606 262.161 142.637 261.985 142.637C261.513 142.637 261.142 142.467 260.872 142.129C260.605 141.79 260.472 141.328 260.472 140.742C260.472 140.339 260.547 139.946 260.696 139.565C260.846 139.185 261.053 138.843 261.316 138.54C261.567 138.25 261.865 138.018 262.21 137.842C262.555 137.663 262.91 137.573 263.274 137.573C263.506 137.573 263.725 137.604 263.934 137.666C264.145 137.728 264.311 137.798 264.432 137.876L265.325 137.646L265.384 137.72L264.642 140.869C264.616 140.97 264.588 141.094 264.559 141.24C264.533 141.383 264.52 141.489 264.52 141.558C264.52 141.743 264.559 141.868 264.637 141.934C264.715 141.999 264.847 142.031 265.032 142.031C265.094 142.031 265.182 142.021 265.296 142.002C265.41 141.982 265.498 141.961 265.56 141.938L265.486 142.251C265.193 142.368 264.975 142.453 264.832 142.505C264.689 142.557 264.515 142.583 264.31 142.583C264.075 142.583 263.89 142.515 263.753 142.378C263.616 142.241 263.541 142.067 263.528 141.855ZM264.227 138.77C264.227 138.662 264.215 138.56 264.192 138.462C264.17 138.364 264.122 138.273 264.051 138.188C263.986 138.107 263.896 138.042 263.782 137.993C263.668 137.944 263.525 137.92 263.353 137.92C263.115 137.92 262.884 137.998 262.659 138.154C262.435 138.311 262.233 138.521 262.054 138.784C261.884 139.032 261.746 139.331 261.639 139.683C261.531 140.034 261.478 140.391 261.478 140.752C261.478 140.951 261.489 141.126 261.512 141.279C261.535 141.432 261.578 141.572 261.644 141.699C261.705 141.823 261.795 141.919 261.912 141.987C262.029 142.056 262.177 142.09 262.356 142.09C262.539 142.09 262.729 142.039 262.928 141.938C263.13 141.834 263.356 141.654 263.606 141.396L264.227 138.77ZM271.302 139.438C271.302 139.875 271.225 140.288 271.072 140.679C270.919 141.069 270.716 141.408 270.462 141.694C270.179 142.01 269.871 142.244 269.539 142.397C269.21 142.55 268.872 142.627 268.523 142.627C268.243 142.627 268.014 142.593 267.835 142.524C267.656 142.456 267.496 142.371 267.356 142.271L267.073 143.55C267.054 143.631 267.037 143.708 267.024 143.779C267.015 143.851 267.01 143.908 267.01 143.95C267.01 144.038 267.041 144.108 267.103 144.16C267.168 144.212 267.241 144.25 267.322 144.272C267.404 144.299 267.495 144.318 267.596 144.331C267.697 144.344 267.788 144.354 267.869 144.36L267.801 144.668H265.11L265.179 144.36C265.283 144.354 265.381 144.346 265.472 144.336C265.563 144.326 265.649 144.31 265.73 144.287C265.831 144.258 265.911 144.202 265.97 144.121C266.032 144.043 266.076 143.945 266.102 143.828L267.122 139.336C267.148 139.212 267.173 139.089 267.195 138.965C267.218 138.838 267.229 138.729 267.229 138.638C267.229 138.455 267.2 138.333 267.142 138.271C267.086 138.21 266.964 138.179 266.775 138.179C266.704 138.179 266.613 138.193 266.502 138.223C266.391 138.249 266.305 138.27 266.243 138.286L266.316 137.974C266.564 137.863 266.787 137.778 266.985 137.72C267.184 137.658 267.353 137.627 267.493 137.627C267.721 137.627 267.894 137.686 268.011 137.803C268.128 137.917 268.201 138.076 268.23 138.281H268.27C268.491 138.076 268.727 137.907 268.978 137.773C269.231 137.64 269.484 137.573 269.734 137.573C270.229 137.573 270.613 137.743 270.887 138.081C271.163 138.416 271.302 138.869 271.302 139.438ZM269.778 141.455C269.944 141.188 270.071 140.885 270.159 140.547C270.25 140.205 270.296 139.844 270.296 139.463C270.296 139.29 270.28 139.118 270.247 138.945C270.218 138.77 270.169 138.625 270.101 138.511C270.029 138.384 269.931 138.286 269.808 138.218C269.684 138.146 269.521 138.11 269.319 138.11C269.17 138.11 269.004 138.156 268.821 138.247C268.642 138.338 268.423 138.509 268.162 138.76L267.537 141.528C267.56 141.714 267.659 141.888 267.835 142.051C268.014 142.21 268.229 142.29 268.479 142.29C268.737 142.29 268.978 142.215 269.202 142.065C269.427 141.916 269.619 141.712 269.778 141.455Z" fill="#9A9090"/>
<defs>
<linearGradient id="paint0_linear_546_10156" x1="0.5" y1="0.5" x2="114.527" y2="272.74" gradientUnits="userSpaceOnUse">
<stop stop-color="#F3F3F3"/>
<stop offset="1" stop-color="#EBEBEB"/>
</linearGradient>
</defs>
</svg>
