<svg width="383" height="161" viewBox="0 0 383 161" fill="none" xmlns="http://www.w3.org/2000/svg">
<path d="M374.5 0.5H8.5C4.08172 0.5 0.5 4.08172 0.5 8.5V152.5C0.5 156.918 4.08172 160.5 8.5 160.5H374.5C378.918 160.5 382.5 156.918 382.5 152.5V8.5C382.5 4.08172 378.918 0.5 374.5 0.5Z" fill="url(#paint0_linear_546_10401)" stroke="#E2E2E2"/>
<path opacity="0.6" d="M354.645 20.5H28.6445C24.2263 20.5 20.6445 24.0817 20.6445 28.5V132.5C20.6445 136.918 24.2263 140.5 28.6445 140.5H354.645C359.063 140.5 362.645 136.918 362.645 132.5V28.5C362.645 24.0817 359.063 20.5 354.645 20.5Z" stroke="#D4A853" stroke-width="1.5" stroke-dasharray="4 3"/>
<path d="M38.1074 32.5H36.8418L38.8027 26.8438H40.3105L42.2637 32.5H41.0059L40.584 31.1953H38.5371L38.1074 32.5ZM38.834 30.2812H40.2871L39.5762 28.1172H39.5371L38.834 30.2812ZM42.9043 32.5V26.8438H44.0762V31.5312H46.5137V32.5H42.9043ZM49.2637 30.3438C49.2637 28.875 49.7168 27.6562 50.4668 26.6016H51.5684C51.0293 27.3828 50.4668 28.9453 50.4668 30.3438C50.4668 31.75 51.0293 33.3125 51.5684 34.0938H50.4668C49.7168 33.0391 49.2637 31.8125 49.2637 30.3438ZM52.2324 32.5V26.8438H54.4512C55.7402 26.8438 56.4746 27.6328 56.4746 28.75C56.4746 29.8828 55.7246 30.6562 54.4199 30.6562H53.4043V32.5H52.2324ZM53.4043 29.7109H54.2324C54.9277 29.7109 55.2637 29.3203 55.2637 28.75C55.2637 28.1875 54.9277 27.8047 54.2324 27.8047H53.4043V29.7109ZM56.8809 31.3125C56.8809 30.3672 57.6465 30.0547 58.459 30.0078C58.7637 29.9883 59.334 29.9609 59.5137 29.9531V29.6094C59.5059 29.2578 59.2637 29.0469 58.834 29.0469C58.4434 29.0469 58.1934 29.2266 58.1309 29.5156H57.0293C57.0996 28.7812 57.7402 28.2031 58.8652 28.2031C59.7871 28.2031 60.6621 28.6172 60.6621 29.6406V32.5H59.5684V31.9141H59.5371C59.3262 32.3047 58.9277 32.5781 58.2949 32.5781C57.4824 32.5781 56.8809 32.1562 56.8809 31.3125ZM57.9902 31.2812C57.9902 31.6094 58.2559 31.7812 58.623 31.7812C59.1465 31.7812 59.5215 31.4297 59.5137 30.9844V30.6719C59.3379 30.6797 58.8457 30.707 58.6465 30.7266C58.248 30.7656 57.9902 30.9531 57.9902 31.2812ZM63.4512 34.1797C62.2793 34.1797 61.5605 33.6562 61.4902 32.8516H62.6309C62.6934 33.1875 63.0137 33.3438 63.4746 33.3438C64.0137 33.3438 64.373 33.1172 64.373 32.5234V31.75H64.3184C64.1621 32.0938 63.7871 32.4375 63.1074 32.4375C62.1465 32.4375 61.3809 31.7656 61.3809 30.3516C61.3809 28.9141 62.1699 28.2031 63.1074 28.2031C63.8184 28.2031 64.1621 28.625 64.3184 28.9688H64.3652V28.2578H65.5137V32.5469C65.5137 33.625 64.6543 34.1797 63.4512 34.1797ZM63.4668 31.5703C64.0449 31.5703 64.373 31.1172 64.373 30.3672C64.373 29.6094 64.0449 29.125 63.4668 29.125C62.8809 29.125 62.5684 29.6328 62.5684 30.3672C62.5684 31.1016 62.8809 31.5703 63.4668 31.5703ZM68.334 32.5859C67.0371 32.5859 66.2402 31.7422 66.2402 30.3984C66.2402 29.0859 67.0449 28.2031 68.2871 28.2031C69.4043 28.2031 70.2793 28.9062 70.2793 30.3516V30.6797H67.3809C67.3809 31.3203 67.7637 31.7188 68.3574 31.7188C68.748 31.7188 69.0293 31.5469 69.1465 31.2891H70.248C70.084 32.0703 69.3809 32.5859 68.334 32.5859ZM67.3809 29.9531H69.1855C69.1855 29.4375 68.8262 29.0703 68.3105 29.0703C67.7793 29.0703 67.4004 29.4648 67.3809 29.9531ZM72.873 32.5V26.8438H74.0449V31.5312H76.4824V32.5H72.873ZM77.0137 31.3125C77.0137 30.3672 77.7793 30.0547 78.5918 30.0078C78.8965 29.9883 79.4668 29.9609 79.6465 29.9531V29.6094C79.6387 29.2578 79.3965 29.0469 78.9668 29.0469C78.5762 29.0469 78.3262 29.2266 78.2637 29.5156H77.1621C77.2324 28.7812 77.873 28.2031 78.998 28.2031C79.9199 28.2031 80.7949 28.6172 80.7949 29.6406V32.5H79.7012V31.9141H79.6699C79.459 32.3047 79.0605 32.5781 78.4277 32.5781C77.6152 32.5781 77.0137 32.1562 77.0137 31.3125ZM78.123 31.2812C78.123 31.6094 78.3887 31.7812 78.7559 31.7812C79.2793 31.7812 79.6543 31.4297 79.6465 30.9844V30.6719C79.4707 30.6797 78.9785 30.707 78.7793 30.7266C78.3809 30.7656 78.123 30.9531 78.123 31.2812ZM82.2012 34.0938C81.9746 34.0938 81.7637 34.0859 81.6152 34.0703V33.1719C81.7637 33.1797 81.9355 33.1875 82.084 33.1875C82.3105 33.1875 82.498 33.1641 82.6387 32.7969L82.709 32.6172L81.1855 28.2578H82.3965L83.2871 31.3828H83.334L84.2324 28.2578H85.459L83.8027 32.9688C83.5605 33.6484 83.0996 34.0938 82.2012 34.0938ZM87.7871 32.5859C86.5059 32.5859 85.709 31.7031 85.709 30.3906C85.709 29.0781 86.5059 28.2031 87.7871 28.2031C89.0684 28.2031 89.873 29.0781 89.873 30.3906C89.873 31.7031 89.0684 32.5859 87.7871 32.5859ZM87.7949 31.6875C88.3887 31.6875 88.6934 31.1328 88.6934 30.3906C88.6934 29.6406 88.3887 29.0859 87.7949 29.0859C87.1934 29.0859 86.8809 29.6406 86.8809 30.3906C86.8809 31.1328 87.1934 31.6875 87.7949 31.6875ZM93.3184 30.6953V28.2578H94.4746V32.5H93.3652V31.7344H93.3184C93.123 32.2266 92.6699 32.5547 92.0293 32.5547C91.1777 32.5547 90.5996 31.9531 90.5996 30.9609V28.2578H91.7559V30.7578C91.7559 31.2578 92.0449 31.5781 92.498 31.5781C92.9199 31.5781 93.3184 31.2734 93.3184 30.6953ZM97.6074 28.2578V29.125H96.8105V31.1953C96.8105 31.5312 96.9746 31.6172 97.209 31.625C97.3262 31.625 97.5293 31.6172 97.6699 31.6016V32.5156C97.5449 32.5391 97.3418 32.5547 97.0527 32.5547C96.2168 32.5547 95.6465 32.1797 95.6543 31.3594V29.125H95.0684V28.2578H95.6543V27.2422H96.8105V28.2578H97.6074ZM100.373 30.3438C100.373 31.8125 99.9199 33.0391 99.1699 34.0938H98.0684C98.6074 33.3125 99.1699 31.75 99.1699 30.3438C99.1699 28.9453 98.6074 27.3828 98.0684 26.6016H99.1699C99.9199 27.6562 100.373 28.875 100.373 30.3438Z" fill="#D4A853"/>
<path opacity="0.7" d="M174.582 37.5H38.582C35.2683 37.5 32.582 40.1863 32.582 43.5V121.5C32.582 124.814 35.2683 127.5 38.582 127.5H174.582C177.896 127.5 180.582 124.814 180.582 121.5V43.5C180.582 40.1863 177.896 37.5 174.582 37.5Z" stroke="#8FAF8A" stroke-width="1.2" stroke-dasharray="3 2"/>
<path d="M47.8066 49.5H46.541L48.502 43.8438H50.0098L51.9629 49.5H50.7051L50.2832 48.1953H48.2363L47.8066 49.5ZM48.5332 47.2812H49.9863L49.2754 45.1172H49.2363L48.5332 47.2812ZM52.6035 49.5V43.8438H53.7754V48.5312H56.2129V49.5H52.6035ZM58.9629 47.3438C58.9629 45.875 59.416 44.6562 60.166 43.6016H61.2676C60.7285 44.3828 60.166 45.9453 60.166 47.3438C60.166 48.75 60.7285 50.3125 61.2676 51.0938H60.166C59.416 50.0391 58.9629 48.8125 58.9629 47.3438ZM65.7129 45.8125C65.6191 45.1875 65.1348 44.8047 64.4785 44.8047C63.5957 44.8047 63.0176 45.4844 63.0176 46.6719C63.0176 47.8906 63.6035 48.5391 64.4707 48.5391C65.1191 48.5391 65.5957 48.1797 65.7129 47.5703L66.9004 47.5781C66.7676 48.625 65.8926 49.5781 64.4551 49.5781C62.9395 49.5781 61.8223 48.5156 61.8223 46.6719C61.8223 44.8281 62.9629 43.7656 64.4551 43.7656C65.7598 43.7656 66.7441 44.5156 66.9004 45.8125H65.7129ZM67.4941 48.3125C67.4941 47.3672 68.2598 47.0547 69.0723 47.0078C69.377 46.9883 69.9473 46.9609 70.127 46.9531V46.6094C70.1191 46.2578 69.877 46.0469 69.4473 46.0469C69.0566 46.0469 68.8066 46.2266 68.7441 46.5156H67.6426C67.7129 45.7812 68.3535 45.2031 69.4785 45.2031C70.4004 45.2031 71.2754 45.6172 71.2754 46.6406V49.5H70.1816V48.9141H70.1504C69.9395 49.3047 69.541 49.5781 68.9082 49.5781C68.0957 49.5781 67.4941 49.1562 67.4941 48.3125ZM68.6035 48.2812C68.6035 48.6094 68.8691 48.7812 69.2363 48.7812C69.7598 48.7812 70.1348 48.4297 70.127 47.9844V47.6719C69.9512 47.6797 69.459 47.707 69.2598 47.7266C68.8613 47.7656 68.6035 47.9531 68.6035 48.2812ZM72.1582 49.5V45.2578H73.2754V45.9922H73.3223C73.4785 45.4688 73.8691 45.1953 74.3457 45.1953C74.4629 45.1953 74.6113 45.2109 74.7129 45.2344V46.2656C74.6035 46.2344 74.3848 46.2031 74.2207 46.2031C73.6973 46.2031 73.3145 46.5703 73.3145 47.0859V49.5H72.1582ZM76.7051 49.5703C75.7363 49.5703 74.9785 48.7969 74.9785 47.3828C74.9785 45.9297 75.7676 45.2031 76.7051 45.2031C77.416 45.2031 77.752 45.625 77.9082 45.9688H77.9473V43.8438H79.1035V49.5H77.9629V48.8203H77.9082C77.7441 49.1719 77.3926 49.5703 76.7051 49.5703ZM77.0645 48.6484C77.6426 48.6484 77.9707 48.1406 77.9707 47.375C77.9707 46.6094 77.6426 46.125 77.0645 46.125C76.4785 46.125 76.166 46.6328 76.166 47.375C76.166 48.125 76.4785 48.6484 77.0645 48.6484ZM82.0723 47.3438C82.0723 48.8125 81.6191 50.0391 80.8691 51.0938H79.7676C80.3066 50.3125 80.8691 48.75 80.8691 47.3438C80.8691 45.9453 80.3066 44.3828 79.7676 43.6016H80.8691C81.6191 44.6562 82.0723 45.875 82.0723 47.3438Z" fill="#8FAF8A"/>
<path opacity="0.7" d="M96.416 53.5H44.416C42.2069 53.5 40.416 55.2909 40.416 57.5V79.5C40.416 81.7091 42.2069 83.5 44.416 83.5H96.416C98.6252 83.5 100.416 81.7091 100.416 79.5V57.5C100.416 55.2909 98.6252 53.5 96.416 53.5Z" stroke="#5FAFFF" stroke-dasharray="2 2"/>
<path d="M52.4785 64.5H51.8359L53.6475 59.5508H54.2969L56.1084 64.5H55.459L54.9668 63.1055H52.9775L52.4785 64.5ZM53.1621 62.5654H54.7754L53.9893 60.3506H53.9482L53.1621 62.5654ZM56.7783 64.5V59.5508H57.3936V63.9531H59.6904V64.5H56.7783ZM62.3428 62.6133C62.3496 61.3213 62.6982 60.248 63.3271 59.3389H63.8467C63.3818 60.0156 62.9512 61.3965 62.9512 62.6133C62.9512 63.8301 63.3818 65.2178 63.8467 65.8945H63.3271C62.6982 64.9785 62.3496 63.9053 62.3428 62.6133ZM64.6533 64.5V59.5508H65.2686V61.752H67.8867V59.5508H68.5088V64.5H67.8867V62.292H65.2686V64.5H64.6533ZM71.0791 64.5752C70.0059 64.5752 69.3428 63.8164 69.3428 62.6748C69.3428 61.5332 70.0127 60.7402 71.0244 60.7402C71.8037 60.7402 72.624 61.2188 72.624 62.5928V62.8389H69.9307C69.958 63.625 70.416 64.0557 71.0791 64.0557C71.5234 64.0557 71.8037 63.8643 71.9404 63.6318H72.5693C72.3916 64.1924 71.8447 64.5752 71.0791 64.5752ZM69.9375 62.3398H72.0293C72.0293 61.7178 71.6328 61.2598 71.0244 61.2598C70.3818 61.2598 69.9717 61.7656 69.9375 62.3398ZM73.2119 63.4473C73.2119 62.5928 73.9639 62.4014 74.6064 62.3535C74.8423 62.3364 75.4438 62.3057 75.6113 62.2988V61.998C75.6113 61.5264 75.3311 61.2529 74.7705 61.2529C74.2988 61.2529 74.0186 61.4717 73.9365 61.752H73.3213C73.3965 61.1572 73.9775 60.7402 74.7978 60.7402C75.2832 60.7402 76.1924 60.8838 76.1924 62.0527V64.5H75.6113V63.9941H75.584C75.4609 64.2471 75.1191 64.5889 74.4766 64.5889C73.7725 64.5889 73.2119 64.1719 73.2119 63.4473ZM73.7998 63.4746C73.7998 63.8643 74.1279 64.0625 74.5791 64.0625C75.2422 64.0625 75.6113 63.6182 75.6113 63.1533V62.7773L74.6748 62.8457C74.1416 62.8799 73.7998 63.0713 73.7998 63.4746ZM78.5371 64.5752C77.6143 64.5752 76.958 63.8301 76.958 62.6543C76.958 61.4785 77.6143 60.7402 78.5439 60.7402C79.2617 60.7402 79.4941 61.1777 79.6172 61.376H79.6582V59.5508H80.2529V64.5H79.6787V63.9326H79.6172C79.4873 64.1377 79.248 64.5752 78.5371 64.5752ZM78.6191 64.0488C79.2959 64.0488 79.6787 63.4746 79.6787 62.6406C79.6787 61.8203 79.3096 61.2666 78.6191 61.2666C77.9082 61.2666 77.5527 61.8682 77.5527 62.6406C77.5527 63.4336 77.915 64.0488 78.6191 64.0488ZM82.8301 64.5752C81.7568 64.5752 81.0937 63.8164 81.0937 62.6748C81.0937 61.5332 81.7637 60.7402 82.7754 60.7402C83.5547 60.7402 84.375 61.2188 84.375 62.5928V62.8389H81.6816C81.709 63.625 82.167 64.0557 82.8301 64.0557C83.2744 64.0557 83.5547 63.8643 83.6914 63.6318H84.3203C84.1426 64.1924 83.5957 64.5752 82.8301 64.5752ZM81.6885 62.3398H83.7803C83.7803 61.7178 83.3838 61.2598 82.7754 61.2598C82.1328 61.2598 81.7227 61.7656 81.6885 62.3398ZM85.1406 64.5V60.7881H85.708V61.3555H85.749C85.8857 60.9795 86.2686 60.7266 86.7061 60.7266C86.7949 60.7266 86.9453 60.7334 87.0137 60.7402V61.335C86.9727 61.3213 86.8086 61.2939 86.6582 61.2939C86.125 61.2939 85.7285 61.6631 85.7285 62.1621V64.5H85.1406ZM88.8799 62.6133C88.873 63.9053 88.5244 64.9785 87.8955 65.8945H87.376C87.8408 65.2178 88.2715 63.8301 88.2715 62.6133C88.2715 61.3965 87.8408 60.0156 87.376 59.3389H87.8955C88.5244 60.248 88.873 61.3213 88.8799 62.6133Z" fill="#5FAFFF"/>
<path opacity="0.7" d="M166.416 87.5H44.416C42.2069 87.5 40.416 89.2909 40.416 91.5V113.5C40.416 115.709 42.2069 117.5 44.416 117.5H166.416C168.625 117.5 170.416 115.709 170.416 113.5V91.5C170.416 89.2909 168.625 87.5 166.416 87.5Z" stroke="#5FAFFF" stroke-dasharray="2 2"/>
<path opacity="0.6" d="M78.3848 91.5H50.3848C48.1756 91.5 46.3848 93.2909 46.3848 95.5V109.5C46.3848 111.709 48.1756 113.5 50.3848 113.5H78.3848C80.5939 113.5 82.3848 111.709 82.3848 109.5V95.5C82.3848 93.2909 80.5939 91.5 78.3848 91.5Z" fill="#D4A853"/>
<path opacity="0.8" d="M120.539 91.5H92.5391C90.3299 91.5 88.5391 93.2909 88.5391 95.5V109.5C88.5391 111.709 90.3299 113.5 92.5391 113.5H120.539C122.748 113.5 124.539 111.709 124.539 109.5V95.5C124.539 93.2909 122.748 91.5 120.539 91.5Z" fill="#E8E8E8"/>
<path d="M78.0283 98.5H77.3857L79.1973 93.5508H79.8467L81.6582 98.5H81.0088L80.5166 97.1055H78.5273L78.0283 98.5ZM78.7119 96.5654H80.3252L79.5391 94.3506H79.498L78.7119 96.5654ZM82.3281 98.5V93.5508H82.9434V97.9531H85.2402V98.5H82.3281ZM87.8926 96.6133C87.8994 95.3213 88.248 94.248 88.877 93.3389H89.3965C88.9316 94.0156 88.501 95.3965 88.501 96.6133C88.501 97.8301 88.9316 99.2178 89.3965 99.8945H88.877C88.248 98.9785 87.8994 97.9053 87.8926 96.6133ZM90.2031 98.5V93.5508H91.9395C92.9785 93.5508 93.4639 94.1318 93.4639 94.8633C93.4639 95.499 93.0879 95.7861 92.6572 95.9023V95.9502C93.1152 95.9775 93.6621 96.4014 93.6621 97.1875C93.6621 97.9326 93.1699 98.5 92.001 98.5H90.2031ZM91.9941 97.9531C92.7666 97.9531 93.0674 97.6113 93.0674 97.1807C93.0674 96.6748 92.6641 96.251 92.0283 96.251H90.8184V97.9531H91.9941ZM91.9189 95.7178C92.4522 95.7178 92.876 95.3896 92.876 94.8701C92.876 94.4395 92.5889 94.0977 91.9395 94.0977H90.8184V95.7178H91.9189ZM96.8066 96.9756V94.7881H97.3877V98.5H96.8066V97.8711H96.7656C96.5879 98.2471 96.2256 98.5479 95.665 98.5479C94.9609 98.5479 94.4619 98.0898 94.4619 97.1465V94.7881H95.0498V97.1055C95.0498 97.6387 95.3848 97.9805 95.8564 97.9805C96.2734 97.9805 96.8066 97.666 96.8066 96.9756ZM99.9512 94.7881V95.2803H99.1719V97.4336C99.1719 97.9121 99.4043 97.9873 99.6572 97.9873C99.7666 97.9873 99.917 97.9805 100.006 97.9736V98.5205C99.917 98.5342 99.7666 98.5479 99.5957 98.5479C99.1035 98.5479 98.5772 98.2402 98.5772 97.584V95.2803H98.0166V94.7881H98.5772V93.8994H99.1719V94.7881H99.9512ZM102.33 94.7881V95.2803H101.551V97.4336C101.551 97.9121 101.783 97.9873 102.036 97.9873C102.146 97.9873 102.296 97.9805 102.385 97.9736V98.5205C102.296 98.5342 102.146 98.5479 101.975 98.5479C101.482 98.5479 100.956 98.2402 100.956 97.584V95.2803H100.396V94.7881H100.956V93.8994H101.551V94.7881H102.33ZM104.565 98.5752C103.554 98.5752 102.87 97.8164 102.87 96.6611C102.87 95.5059 103.554 94.7402 104.565 94.7402C105.57 94.7402 106.247 95.5059 106.247 96.6611C106.247 97.8164 105.57 98.5752 104.565 98.5752ZM104.565 98.0557C105.311 98.0557 105.659 97.3994 105.659 96.6611C105.659 95.9229 105.311 95.2598 104.565 95.2598C103.807 95.2598 103.458 95.9229 103.458 96.6611C103.458 97.3994 103.807 98.0557 104.565 98.0557ZM107.607 96.2715V98.5H107.02V94.7881H107.587V95.3691H107.635C107.813 94.9932 108.154 94.7402 108.722 94.7402C109.474 94.7402 109.973 95.1982 109.973 96.1416V98.5H109.385V96.1826C109.385 95.6084 109.07 95.2666 108.544 95.2666C108.004 95.2666 107.607 95.6289 107.607 96.2715ZM116.125 95.0957C115.913 94.46 115.428 94.0566 114.724 94.0566C113.849 94.0566 113.151 94.7471 113.151 96.0254C113.151 97.3037 113.849 97.9941 114.765 97.9941C115.602 97.9941 116.173 97.4336 116.187 96.5586H114.895V96.0186H116.788V96.5518C116.788 97.7822 115.94 98.5684 114.765 98.5684C113.445 98.5684 112.557 97.5908 112.557 96.0254C112.557 94.46 113.452 93.4824 114.724 93.4824C115.77 93.4824 116.576 94.1387 116.761 95.0957H116.125ZM117.636 98.5V94.7881H118.203V95.3555H118.244C118.381 94.9795 118.764 94.7266 119.201 94.7266C119.29 94.7266 119.44 94.7334 119.509 94.7402V95.335C119.468 95.3213 119.304 95.2939 119.153 95.2939C118.62 95.2939 118.224 95.6631 118.224 96.1621V98.5H117.636ZM121.478 98.5752C120.466 98.5752 119.782 97.8164 119.782 96.6611C119.782 95.5059 120.466 94.7402 121.478 94.7402C122.482 94.7402 123.159 95.5059 123.159 96.6611C123.159 97.8164 122.482 98.5752 121.478 98.5752ZM121.478 98.0557C122.223 98.0557 122.571 97.3994 122.571 96.6611C122.571 95.9229 122.223 95.2598 121.478 95.2598C120.719 95.2598 120.37 95.9229 120.37 96.6611C120.37 97.3994 120.719 98.0557 121.478 98.0557ZM126.276 96.9756V94.7881H126.857V98.5H126.276V97.8711H126.235C126.058 98.2471 125.695 98.5479 125.135 98.5479C124.431 98.5479 123.932 98.0898 123.932 97.1465V94.7881H124.52V97.1055C124.52 97.6387 124.854 97.9805 125.326 97.9805C125.743 97.9805 126.276 97.666 126.276 96.9756ZM127.801 99.8945V94.7881H128.368V95.376H128.437C128.56 95.1777 128.792 94.7402 129.51 94.7402C130.439 94.7402 131.089 95.4785 131.089 96.6543C131.089 97.8301 130.439 98.5752 129.517 98.5752C128.806 98.5752 128.56 98.1377 128.437 97.9326H128.389V99.8945H127.801ZM128.375 96.6406C128.375 97.4746 128.751 98.0488 129.435 98.0488C130.139 98.0488 130.501 97.4336 130.501 96.6406C130.501 95.8682 130.146 95.2666 129.435 95.2666C128.737 95.2666 128.375 95.8203 128.375 96.6406ZM133.064 96.6133C133.058 97.9053 132.709 98.9785 132.08 99.8945H131.561C132.025 99.2178 132.456 97.8301 132.456 96.6133C132.456 95.3965 132.025 94.0156 131.561 93.3389H132.08C132.709 94.248 133.058 95.3213 133.064 96.6133Z" fill="#5FAFFF"/>
<path opacity="0.7" d="M334.619 37.5H198.619C195.305 37.5 192.619 40.1863 192.619 43.5V121.5C192.619 124.814 195.305 127.5 198.619 127.5H334.619C337.933 127.5 340.619 124.814 340.619 121.5V43.5C340.619 40.1863 337.933 37.5 334.619 37.5Z" stroke="#8FAF8A" stroke-width="1.2" stroke-dasharray="3 2"/>
<path d="M207.844 49.5H206.578L208.539 43.8438H210.047L212 49.5H210.742L210.32 48.1953H208.273L207.844 49.5ZM208.57 47.2812H210.023L209.312 45.1172H209.273L208.57 47.2812ZM212.641 49.5V43.8438H213.812V48.5312H216.25V49.5H212.641ZM219 47.3438C219 45.875 219.453 44.6562 220.203 43.6016H221.305C220.766 44.3828 220.203 45.9453 220.203 47.3438C220.203 48.75 220.766 50.3125 221.305 51.0938H220.203C219.453 50.0391 219 48.8125 219 47.3438ZM225.75 45.8125C225.656 45.1875 225.172 44.8047 224.516 44.8047C223.633 44.8047 223.055 45.4844 223.055 46.6719C223.055 47.8906 223.641 48.5391 224.508 48.5391C225.156 48.5391 225.633 48.1797 225.75 47.5703L226.938 47.5781C226.805 48.625 225.93 49.5781 224.492 49.5781C222.977 49.5781 221.859 48.5156 221.859 46.6719C221.859 44.8281 223 43.7656 224.492 43.7656C225.797 43.7656 226.781 44.5156 226.938 45.8125H225.75ZM227.531 48.3125C227.531 47.3672 228.297 47.0547 229.109 47.0078C229.414 46.9883 229.984 46.9609 230.164 46.9531V46.6094C230.156 46.2578 229.914 46.0469 229.484 46.0469C229.094 46.0469 228.844 46.2266 228.781 46.5156H227.68C227.75 45.7812 228.391 45.2031 229.516 45.2031C230.438 45.2031 231.312 45.6172 231.312 46.6406V49.5H230.219V48.9141H230.188C229.977 49.3047 229.578 49.5781 228.945 49.5781C228.133 49.5781 227.531 49.1562 227.531 48.3125ZM228.641 48.2812C228.641 48.6094 228.906 48.7812 229.273 48.7812C229.797 48.7812 230.172 48.4297 230.164 47.9844V47.6719C229.988 47.6797 229.496 47.707 229.297 47.7266C228.898 47.7656 228.641 47.9531 228.641 48.2812ZM232.195 49.5V45.2578H233.312V45.9922H233.359C233.516 45.4688 233.906 45.1953 234.383 45.1953C234.5 45.1953 234.648 45.2109 234.75 45.2344V46.2656C234.641 46.2344 234.422 46.2031 234.258 46.2031C233.734 46.2031 233.352 46.5703 233.352 47.0859V49.5H232.195ZM236.742 49.5703C235.773 49.5703 235.016 48.7969 235.016 47.3828C235.016 45.9297 235.805 45.2031 236.742 45.2031C237.453 45.2031 237.789 45.625 237.945 45.9688H237.984V43.8438H239.141V49.5H238V48.8203H237.945C237.781 49.1719 237.43 49.5703 236.742 49.5703ZM237.102 48.6484C237.68 48.6484 238.008 48.1406 238.008 47.375C238.008 46.6094 237.68 46.125 237.102 46.125C236.516 46.125 236.203 46.6328 236.203 47.375C236.203 48.125 236.516 48.6484 237.102 48.6484ZM242.109 47.3438C242.109 48.8125 241.656 50.0391 240.906 51.0938H239.805C240.344 50.3125 240.906 48.75 240.906 47.3438C240.906 45.9453 240.344 44.3828 239.805 43.6016H240.906C241.656 44.6562 242.109 45.875 242.109 47.3438Z" fill="#8FAF8A"/>
<path opacity="0.7" d="M328.453 53.5H204.453C202.244 53.5 200.453 55.2909 200.453 57.5V79.5C200.453 81.7091 202.244 83.5 204.453 83.5H328.453C330.662 83.5 332.453 81.7091 332.453 79.5V57.5C332.453 55.2909 330.662 53.5 328.453 53.5Z" stroke="#5FAFFF" stroke-dasharray="2 2"/>
<path d="M239.581 72.5H238.938L240.75 67.5508H241.399L243.21 72.5H242.561L242.069 71.1055H240.08L239.581 72.5ZM240.264 70.5654H241.877L241.091 68.3506H241.05L240.264 70.5654ZM243.88 72.5V67.5508H244.496V71.9531H246.792V72.5H243.88ZM249.445 70.6133C249.452 69.3213 249.8 68.248 250.429 67.3389H250.949C250.484 68.0156 250.053 69.3965 250.053 70.6133C250.053 71.8301 250.484 73.2178 250.949 73.8945H250.429C249.8 72.9785 249.452 71.9053 249.445 70.6133ZM252.371 67.5508V72.5H251.755V67.5508H252.371ZM253.389 72.5V68.7881H253.957V69.3691H254.004C254.162 68.9727 254.517 68.7402 255.002 68.7402C255.488 68.7402 255.816 68.9727 255.994 69.3691H256.035C256.226 68.9863 256.616 68.7402 257.149 68.7402C257.812 68.7402 258.284 69.1436 258.284 70.0186V72.5H257.696V70.0254C257.696 69.4785 257.347 69.2666 256.944 69.2666C256.424 69.2666 256.13 69.6152 256.13 70.0869V72.5H255.536V69.9639C255.536 69.5469 255.235 69.2666 254.811 69.2666C254.367 69.2666 253.977 69.6426 253.977 70.1826V72.5H253.389ZM259.049 71.4473C259.049 70.5928 259.801 70.4014 260.444 70.3535C260.68 70.3364 261.281 70.3057 261.449 70.2988V69.998C261.449 69.5264 261.168 69.2529 260.608 69.2529C260.136 69.2529 259.856 69.4717 259.774 69.752H259.159C259.234 69.1572 259.815 68.7402 260.635 68.7402C261.121 68.7402 262.03 68.8838 262.03 70.0527V72.5H261.449V71.9941H261.421C261.298 72.2471 260.957 72.5889 260.314 72.5889C259.61 72.5889 259.049 72.1719 259.049 71.4473ZM259.637 71.4746C259.637 71.8643 259.965 72.0625 260.417 72.0625C261.08 72.0625 261.449 71.6182 261.449 71.1533V70.7773L260.512 70.8457C259.979 70.8799 259.637 71.0713 259.637 71.4746ZM264.477 73.9697C263.582 73.9697 262.973 73.5801 262.905 72.8896H263.52C263.602 73.2656 263.951 73.457 264.477 73.457C265.113 73.457 265.502 73.1836 265.502 72.5684V71.8164H265.455C265.332 72.0215 265.092 72.4453 264.375 72.4453C263.472 72.4453 262.795 71.7617 262.795 70.5928C262.795 69.4512 263.452 68.7402 264.381 68.7402C265.099 68.7402 265.332 69.1777 265.468 69.376H265.516V68.7881H266.09V72.6025C266.09 73.5596 265.379 73.9697 264.477 73.9697ZM264.457 71.9189C265.133 71.9189 265.516 71.4336 265.516 70.6133C265.516 69.8203 265.147 69.2666 264.457 69.2666C263.746 69.2666 263.39 69.8682 263.39 70.6133C263.39 71.3857 263.752 71.9189 264.457 71.9189ZM268.585 72.5752C267.512 72.5752 266.849 71.8164 266.849 70.6748C266.849 69.5332 267.519 68.7402 268.531 68.7402C269.31 68.7402 270.13 69.2188 270.13 70.5928V70.8389H267.437C267.464 71.625 267.922 72.0557 268.585 72.0557C269.03 72.0557 269.31 71.8643 269.447 71.6318H270.076C269.898 72.1924 269.351 72.5752 268.585 72.5752ZM267.444 70.3398H269.536C269.536 69.7178 269.139 69.2598 268.531 69.2598C267.888 69.2598 267.478 69.7656 267.444 70.3398ZM274.095 72.165V70.8389H272.776V70.2852H274.095V68.9658H274.649V70.2852H275.975V70.8389H274.649V72.165H274.095ZM278.6 68.0977V67.5508H282.333V68.0977H280.781V72.5H280.159V68.0977H278.6ZM284.096 72.5752C283.023 72.5752 282.36 71.8164 282.36 70.6748C282.36 69.5332 283.03 68.7402 284.042 68.7402C284.821 68.7402 285.641 69.2188 285.641 70.5928V70.8389H282.948C282.975 71.625 283.433 72.0557 284.096 72.0557C284.541 72.0557 284.821 71.8643 284.958 71.6318H285.586C285.409 72.1924 284.862 72.5752 284.096 72.5752ZM282.955 70.3398H285.046C285.046 69.7178 284.65 69.2598 284.042 69.2598C283.399 69.2598 282.989 69.7656 282.955 70.3398ZM286.755 68.7881L287.63 70.2988L288.512 68.7881H289.189L287.993 70.6406L289.189 72.5H288.519L287.63 71.0645L286.755 72.5H286.079L287.248 70.6406L286.079 68.7881H286.755ZM291.52 68.7881V69.2803H290.741V71.4336C290.741 71.9121 290.973 71.9873 291.226 71.9873C291.335 71.9873 291.486 71.9805 291.575 71.9736V72.5205C291.486 72.5342 291.335 72.5479 291.165 72.5479C290.672 72.5479 290.146 72.2402 290.146 71.584V69.2803H289.585V68.7881H290.146V67.8994H290.741V68.7881H291.52ZM293.571 70.6133C293.564 71.9053 293.215 72.9785 292.586 73.8945H292.067C292.532 73.2178 292.962 71.8301 292.962 70.6133C292.962 69.3965 292.532 68.0156 292.067 67.3389H292.586C293.215 68.248 293.564 69.3213 293.571 70.6133Z" fill="#5FAFFF"/>
<path opacity="0.7" d="M328.453 89.5H204.453C202.244 89.5 200.453 91.2909 200.453 93.5V115.5C200.453 117.709 202.244 119.5 204.453 119.5H328.453C330.662 119.5 332.453 117.709 332.453 115.5V93.5C332.453 91.2909 330.662 89.5 328.453 89.5Z" stroke="#5FAFFF" stroke-dasharray="2 2"/>
<path d="M237.856 108.5H237.213L239.025 103.551H239.674L241.486 108.5H240.836L240.344 107.105H238.355L237.856 108.5ZM238.54 106.565H240.153L239.367 104.351H239.326L238.54 106.565ZM242.156 108.5V103.551H242.771V107.953H245.068V108.5H242.156ZM247.72 106.613C247.727 105.321 248.076 104.248 248.705 103.339H249.224C248.759 104.016 248.329 105.396 248.329 106.613C248.329 107.83 248.759 109.218 249.224 109.895H248.705C248.076 108.979 247.727 107.905 247.72 106.613ZM249.757 104.098V103.551H253.49V104.098H251.938V108.5H251.316V104.098H249.757ZM253.551 107.447C253.551 106.593 254.303 106.401 254.946 106.354C255.182 106.336 255.783 106.306 255.951 106.299V105.998C255.951 105.526 255.67 105.253 255.11 105.253C254.638 105.253 254.358 105.472 254.276 105.752H253.661C253.736 105.157 254.317 104.74 255.137 104.74C255.623 104.74 256.532 104.884 256.532 106.053V108.5H255.951V107.994H255.923C255.8 108.247 255.458 108.589 254.816 108.589C254.112 108.589 253.551 108.172 253.551 107.447ZM254.139 107.475C254.139 107.864 254.467 108.062 254.918 108.062C255.582 108.062 255.951 107.618 255.951 107.153V106.777L255.014 106.846C254.481 106.88 254.139 107.071 254.139 107.475ZM258.979 109.97C258.083 109.97 257.475 109.58 257.407 108.89H258.022C258.104 109.266 258.453 109.457 258.979 109.457C259.615 109.457 260.004 109.184 260.004 108.568V107.816H259.957C259.833 108.021 259.594 108.445 258.876 108.445C257.974 108.445 257.297 107.762 257.297 106.593C257.297 105.451 257.954 104.74 258.883 104.74C259.601 104.74 259.833 105.178 259.97 105.376H260.018V104.788H260.592V108.603C260.592 109.56 259.881 109.97 258.979 109.97ZM258.958 107.919C259.635 107.919 260.018 107.434 260.018 106.613C260.018 105.82 259.649 105.267 258.958 105.267C258.248 105.267 257.892 105.868 257.892 106.613C257.892 107.386 258.254 107.919 258.958 107.919ZM263.361 108.5V103.551H263.976V107.953H266.273V108.5H263.361ZM267.018 108.5V104.788H267.606V108.5H267.018ZM267.312 104.173C267.086 104.173 266.902 104.002 266.902 103.783C266.902 103.564 267.086 103.394 267.312 103.394C267.538 103.394 267.729 103.564 267.729 103.783C267.729 104.002 267.538 104.173 267.312 104.173ZM270.607 105.752C270.525 105.444 270.292 105.239 269.855 105.239C269.397 105.239 269.069 105.485 269.069 105.8C269.069 106.046 269.267 106.217 269.705 106.319L270.258 106.456C270.921 106.613 271.25 106.941 271.25 107.461C271.25 108.104 270.723 108.575 269.793 108.575C268.959 108.575 268.46 108.206 268.365 107.529H268.98C269.048 107.892 269.315 108.062 269.78 108.062C270.306 108.062 270.641 107.844 270.641 107.495C270.641 107.235 270.457 107.058 270.033 106.962L269.472 106.832C268.823 106.682 268.481 106.326 268.481 105.834C268.481 105.198 269.035 104.74 269.855 104.74C270.621 104.74 271.106 105.15 271.181 105.752H270.607ZM273.635 104.788V105.28H272.856V107.434C272.856 107.912 273.088 107.987 273.341 107.987C273.451 107.987 273.601 107.98 273.69 107.974V108.521C273.601 108.534 273.451 108.548 273.28 108.548C272.788 108.548 272.261 108.24 272.261 107.584V105.28H271.701V104.788H272.261V103.899H272.856V104.788H273.635ZM275.167 108.042L274.633 109.901H274.127L274.503 108.042H275.167ZM278.933 108.5L277.58 103.551H278.202L279.234 107.557H279.282L280.328 103.551H281.018L282.071 107.557H282.112L283.144 103.551H283.766L282.413 108.5H281.777L280.697 104.583H280.656L279.569 108.5H278.933ZM284.115 108.5V104.788H284.682V105.355H284.723C284.86 104.979 285.243 104.727 285.68 104.727C285.769 104.727 285.919 104.733 285.988 104.74V105.335C285.947 105.321 285.783 105.294 285.632 105.294C285.099 105.294 284.703 105.663 284.703 106.162V108.5H284.115ZM286.377 107.447C286.377 106.593 287.129 106.401 287.772 106.354C288.008 106.336 288.609 106.306 288.777 106.299V105.998C288.777 105.526 288.497 105.253 287.936 105.253C287.464 105.253 287.184 105.472 287.102 105.752H286.487C286.562 105.157 287.143 104.74 287.963 104.74C288.449 104.74 289.358 104.884 289.358 106.053V108.5H288.777V107.994H288.75C288.626 108.247 288.285 108.589 287.642 108.589C286.938 108.589 286.377 108.172 286.377 107.447ZM286.965 107.475C286.965 107.864 287.293 108.062 287.745 108.062C288.408 108.062 288.777 107.618 288.777 107.153V106.777L287.84 106.846C287.307 106.88 286.965 107.071 286.965 107.475ZM290.301 109.895V104.788H290.869V105.376H290.937C291.06 105.178 291.292 104.74 292.01 104.74C292.94 104.74 293.589 105.479 293.589 106.654C293.589 107.83 292.94 108.575 292.017 108.575C291.306 108.575 291.06 108.138 290.937 107.933H290.889V109.895H290.301ZM290.875 106.641C290.875 107.475 291.251 108.049 291.935 108.049C292.639 108.049 293.001 107.434 293.001 106.641C293.001 105.868 292.646 105.267 291.935 105.267C291.238 105.267 290.875 105.82 290.875 106.641ZM295.565 106.613C295.558 107.905 295.209 108.979 294.581 109.895H294.061C294.526 109.218 294.957 107.83 294.957 106.613C294.957 105.396 294.526 104.016 294.061 103.339H294.581C295.209 104.248 295.558 105.321 295.565 106.613Z" fill="#5FAFFF"/>
<path d="M101.681 149.36H102.281C102.828 149.36 103.368 149.347 103.901 149.32C104.441 149.287 105.021 149.217 105.641 149.11L105.711 149.79C105.078 149.903 104.488 149.977 103.941 150.01C103.401 150.037 102.848 150.05 102.281 150.05H101.681V149.36ZM101.661 144.23H104.881V147.37H102.481V149.65H101.681V146.7H104.081V144.91H101.661V144.23ZM108.261 143.23H109.051V152.28H108.261V143.23ZM105.311 146.48H106.781V147.17H105.311V146.48ZM106.431 143.45H107.211V151.8H106.431V143.45ZM117.15 143.23H117.98V152.29H117.15V143.23ZM113.21 143.93C113.657 143.93 114.05 144.06 114.39 144.32C114.737 144.573 115.007 144.937 115.2 145.41C115.4 145.883 115.5 146.44 115.5 147.08C115.5 147.72 115.4 148.277 115.2 148.75C115.007 149.223 114.737 149.59 114.39 149.85C114.05 150.11 113.657 150.24 113.21 150.24C112.763 150.24 112.367 150.11 112.02 149.85C111.673 149.59 111.4 149.223 111.2 148.75C111.007 148.277 110.91 147.72 110.91 147.08C110.91 146.44 111.007 145.883 111.2 145.41C111.4 144.937 111.673 144.573 112.02 144.32C112.367 144.06 112.763 143.93 113.21 143.93ZM113.21 144.67C112.91 144.67 112.647 144.77 112.42 144.97C112.2 145.163 112.027 145.443 111.9 145.81C111.773 146.17 111.71 146.593 111.71 147.08C111.71 147.567 111.773 147.993 111.9 148.36C112.027 148.72 112.2 149 112.42 149.2C112.647 149.4 112.91 149.5 113.21 149.5C113.503 149.5 113.76 149.4 113.98 149.2C114.207 149 114.383 148.72 114.51 148.36C114.637 147.993 114.7 147.567 114.7 147.08C114.7 146.593 114.637 146.17 114.51 145.81C114.383 145.443 114.207 145.163 113.98 144.97C113.76 144.77 113.503 144.67 113.21 144.67ZM122.189 143.93C122.629 143.93 123.019 144.06 123.359 144.32C123.699 144.573 123.963 144.937 124.149 145.41C124.343 145.883 124.439 146.44 124.439 147.08C124.439 147.72 124.343 148.277 124.149 148.75C123.963 149.223 123.699 149.59 123.359 149.85C123.019 150.11 122.629 150.24 122.189 150.24C121.756 150.24 121.366 150.11 121.019 149.85C120.679 149.59 120.413 149.223 120.219 148.75C120.033 148.277 119.939 147.72 119.939 147.08C119.939 146.44 120.033 145.883 120.219 145.41C120.413 144.937 120.679 144.573 121.019 144.32C121.366 144.06 121.756 143.93 122.189 143.93ZM122.189 144.67C121.903 144.67 121.649 144.77 121.429 144.97C121.209 145.163 121.036 145.443 120.909 145.81C120.789 146.17 120.729 146.593 120.729 147.08C120.729 147.567 120.789 147.993 120.909 148.36C121.036 148.72 121.209 149 121.429 149.2C121.649 149.4 121.903 149.5 122.189 149.5C122.483 149.5 122.739 149.4 122.959 149.2C123.179 149 123.349 148.72 123.469 148.36C123.596 147.993 123.659 147.567 123.659 147.08C123.659 146.593 123.596 146.17 123.469 145.81C123.349 145.443 123.179 145.163 122.959 144.97C122.739 144.77 122.483 144.67 122.189 144.67ZM126.399 143.23H127.219V152.29H126.399V143.23ZM124.169 146.68H126.769V147.35H124.169V146.68ZM133.249 144.52H135.789V145.16H133.249V144.52ZM133.249 146.16H135.789V146.81H133.249V146.16ZM135.589 143.23H136.409V147.95H135.589V143.23ZM130.589 148.39H136.409V150.54H131.429V151.93H130.609V149.91H135.589V149.05H130.589V148.39ZM130.609 151.49H136.749V152.16H130.609V151.49ZM129.419 143.65H130.249V144.94H132.689V143.65H133.509V147.59H129.419V143.65ZM130.249 145.59V146.92H132.689V145.59H130.249ZM144.362 148.688L143.928 145.982L142.268 148.688H144.362ZM143.615 151.5L143.688 151.178C143.789 151.168 143.907 151.155 144.04 151.139C144.177 151.119 144.283 151.098 144.357 151.075C144.458 151.043 144.533 151.008 144.582 150.973C144.634 150.937 144.66 150.882 144.66 150.807C144.66 150.781 144.641 150.621 144.602 150.328C144.563 150.035 144.507 149.623 144.436 149.093H142.004C141.896 149.262 141.783 149.459 141.662 149.684C141.542 149.905 141.449 150.074 141.384 150.191C141.325 150.296 141.268 150.413 141.213 150.543C141.161 150.67 141.135 150.755 141.135 150.797C141.135 150.904 141.221 150.991 141.394 151.056C141.566 151.121 141.783 151.161 142.043 151.178L141.97 151.5H139.309L139.382 151.178C139.466 151.171 139.577 151.153 139.714 151.124C139.847 151.091 139.96 151.049 140.051 150.997C140.165 150.932 140.274 150.852 140.378 150.758C140.485 150.66 140.599 150.515 140.72 150.323C141.283 149.431 141.9 148.438 142.57 147.345C143.244 146.251 143.837 145.294 144.348 144.474H144.738L145.661 150.475C145.681 150.595 145.713 150.698 145.759 150.782C145.804 150.864 145.873 150.94 145.964 151.012C146.029 151.057 146.117 151.096 146.228 151.129C146.338 151.158 146.436 151.174 146.521 151.178L146.447 151.5H143.615ZM152.712 149.439L152.092 151.5H146.677L146.75 151.178C146.831 151.171 146.947 151.16 147.097 151.144C147.246 151.127 147.355 151.106 147.424 151.08C147.541 151.035 147.629 150.969 147.688 150.885C147.749 150.797 147.792 150.696 147.814 150.582L148.972 145.572C148.978 145.543 148.983 145.514 148.986 145.484C148.993 145.452 148.996 145.421 148.996 145.392C148.996 145.326 148.981 145.268 148.952 145.216C148.926 145.16 148.877 145.113 148.806 145.074C148.741 145.035 148.645 144.998 148.518 144.962C148.394 144.926 148.288 144.903 148.2 144.894L148.273 144.571H151.198L151.125 144.894C151.05 144.897 150.941 144.911 150.798 144.938C150.658 144.96 150.534 144.988 150.427 145.021C150.3 145.063 150.207 145.131 150.148 145.226C150.09 145.32 150.048 145.419 150.021 145.523L148.938 150.226C148.911 150.34 148.89 150.44 148.874 150.528C148.861 150.613 148.854 150.683 148.854 150.738C148.854 150.917 148.926 151.03 149.069 151.075C149.216 151.121 149.481 151.144 149.865 151.144C150.08 151.144 150.324 151.126 150.598 151.09C150.874 151.051 151.066 150.982 151.174 150.885C151.34 150.738 151.548 150.512 151.799 150.206C152.053 149.897 152.242 149.641 152.365 149.439H152.712ZM159.416 147.75H160.236V149.33H159.416V147.75ZM155.746 147.46H163.916V148.14H155.746V147.46ZM159.826 149.08C160.793 149.08 161.549 149.217 162.096 149.49C162.643 149.763 162.916 150.157 162.916 150.67C162.916 151.177 162.643 151.567 162.096 151.84C161.549 152.12 160.793 152.26 159.826 152.26C158.859 152.26 158.099 152.12 157.546 151.84C156.999 151.567 156.726 151.177 156.726 150.67C156.726 150.157 156.999 149.763 157.546 149.49C158.099 149.217 158.859 149.08 159.826 149.08ZM159.826 149.73C159.353 149.73 158.946 149.767 158.606 149.84C158.273 149.913 158.016 150.02 157.836 150.16C157.656 150.3 157.566 150.47 157.566 150.67C157.566 150.87 157.656 151.04 157.836 151.18C158.016 151.32 158.273 151.427 158.606 151.5C158.946 151.58 159.353 151.62 159.826 151.62C160.299 151.62 160.703 151.58 161.036 151.5C161.376 151.427 161.636 151.32 161.816 151.18C161.996 151.04 162.086 150.87 162.086 150.67C162.086 150.47 161.996 150.3 161.816 150.16C161.636 150.02 161.376 149.913 161.036 149.84C160.703 149.767 160.299 149.73 159.826 149.73ZM159.296 143.98H160.026V144.25C160.026 144.543 159.963 144.813 159.836 145.06C159.716 145.307 159.546 145.537 159.326 145.75C159.106 145.957 158.846 146.14 158.546 146.3C158.253 146.46 157.933 146.593 157.586 146.7C157.239 146.8 156.876 146.873 156.496 146.92L156.196 146.26C156.523 146.227 156.836 146.17 157.136 146.09C157.443 146.003 157.726 145.9 157.986 145.78C158.253 145.653 158.483 145.51 158.676 145.35C158.869 145.19 159.019 145.017 159.126 144.83C159.239 144.643 159.296 144.45 159.296 144.25V143.98ZM159.636 143.98H160.366V144.25C160.366 144.457 160.419 144.653 160.526 144.84C160.639 145.02 160.793 145.19 160.986 145.35C161.179 145.503 161.406 145.643 161.666 145.77C161.933 145.89 162.216 145.993 162.516 146.08C162.823 146.167 163.139 146.227 163.466 146.26L163.166 146.92C162.786 146.873 162.423 146.8 162.076 146.7C161.729 146.593 161.406 146.46 161.106 146.3C160.813 146.14 160.556 145.957 160.336 145.75C160.116 145.543 159.943 145.313 159.816 145.06C159.696 144.807 159.636 144.537 159.636 144.25V143.98ZM156.496 143.65H163.176V144.32H156.496V143.65ZM167.205 144.68H167.875V145.06C167.875 145.567 167.769 146.037 167.555 146.47C167.349 146.903 167.052 147.277 166.665 147.59C166.285 147.903 165.842 148.14 165.335 148.3L164.945 147.65C165.392 147.517 165.785 147.32 166.125 147.06C166.465 146.8 166.729 146.5 166.915 146.16C167.109 145.813 167.205 145.447 167.205 145.06V144.68ZM167.345 144.68H168.025V145.06C168.025 145.34 168.079 145.607 168.185 145.86C168.299 146.107 168.455 146.337 168.655 146.55C168.862 146.757 169.105 146.94 169.385 147.1C169.665 147.26 169.972 147.387 170.305 147.48L169.925 148.13C169.419 147.983 168.969 147.763 168.575 147.47C168.189 147.17 167.885 146.817 167.665 146.41C167.452 145.997 167.345 145.547 167.345 145.06V144.68ZM165.195 144.24H170.025V144.9H165.195V144.24ZM167.205 143.19H168.035V144.56H167.205V143.19ZM169.765 145.65H171.775V146.33H169.765V145.65ZM171.555 143.23H172.375V148.24H171.555V143.23ZM166.595 148.65H167.415V149.73H171.555V148.65H172.375V152.16H166.595V148.65ZM167.415 150.38V151.48H171.555V150.38H167.415ZM178.225 143.81C178.858 143.81 179.421 143.913 179.915 144.12C180.408 144.327 180.798 144.617 181.085 144.99C181.371 145.363 181.515 145.8 181.515 146.3C181.515 146.807 181.371 147.247 181.085 147.62C180.798 147.993 180.408 148.283 179.915 148.49C179.421 148.697 178.858 148.8 178.225 148.8C177.605 148.8 177.045 148.697 176.545 148.49C176.051 148.283 175.661 147.993 175.375 147.62C175.088 147.247 174.945 146.807 174.945 146.3C174.945 145.8 175.088 145.363 175.375 144.99C175.661 144.617 176.051 144.327 176.545 144.12C177.045 143.913 177.605 143.81 178.225 143.81ZM178.225 144.48C177.751 144.48 177.328 144.557 176.955 144.71C176.581 144.863 176.285 145.077 176.065 145.35C175.845 145.617 175.735 145.933 175.735 146.3C175.735 146.66 175.845 146.977 176.065 147.25C176.285 147.523 176.581 147.737 176.955 147.89C177.328 148.043 177.751 148.12 178.225 148.12C178.705 148.12 179.131 148.043 179.505 147.89C179.878 147.737 180.171 147.523 180.385 147.25C180.605 146.977 180.715 146.66 180.715 146.3C180.715 145.933 180.605 145.617 180.385 145.35C180.171 145.077 179.878 144.863 179.505 144.71C179.131 144.557 178.705 144.48 178.225 144.48ZM174.145 150.39H182.345V151.08H174.145V150.39ZM183.344 150.47H191.544V151.16H183.344V150.47ZM187.014 148.54H187.834V150.76H187.014V148.54ZM184.344 143.9H190.524V146.64H185.184V148.45H184.364V145.98H189.704V144.58H184.344V143.9ZM184.364 148.1H190.734V148.78H184.364V148.1ZM197.055 148.83H197.905V152.28H197.055V148.83ZM200.165 148.83H201.005V152.28H200.165V148.83ZM194.945 148.38H203.145V149.06H194.945V148.38ZM199.025 143.59C199.658 143.59 200.212 143.673 200.685 143.84C201.158 144 201.528 144.227 201.795 144.52C202.062 144.813 202.195 145.163 202.195 145.57C202.195 145.963 202.062 146.31 201.795 146.61C201.528 146.903 201.158 147.13 200.685 147.29C200.212 147.45 199.658 147.53 199.025 147.53C198.405 147.53 197.855 147.45 197.375 147.29C196.902 147.13 196.532 146.903 196.265 146.61C195.998 146.31 195.865 145.963 195.865 145.57C195.865 145.163 195.998 144.813 196.265 144.52C196.532 144.227 196.902 144 197.375 143.84C197.855 143.673 198.405 143.59 199.025 143.59ZM199.025 144.26C198.572 144.26 198.168 144.313 197.815 144.42C197.468 144.527 197.198 144.68 197.005 144.88C196.812 145.073 196.715 145.303 196.715 145.57C196.715 145.83 196.812 146.06 197.005 146.26C197.198 146.453 197.468 146.603 197.815 146.71C198.168 146.81 198.572 146.86 199.025 146.86C199.492 146.86 199.898 146.81 200.245 146.71C200.592 146.603 200.862 146.453 201.055 146.26C201.248 146.06 201.345 145.83 201.345 145.57C201.345 145.303 201.248 145.073 201.055 144.88C200.862 144.68 200.592 144.527 200.245 144.42C199.898 144.313 199.492 144.26 199.025 144.26ZM206.544 144.53H207.224V145.99C207.224 146.47 207.158 146.943 207.024 147.41C206.891 147.87 206.704 148.307 206.464 148.72C206.231 149.127 205.958 149.487 205.644 149.8C205.331 150.113 204.994 150.36 204.634 150.54L204.154 149.88C204.481 149.72 204.788 149.503 205.074 149.23C205.368 148.957 205.624 148.643 205.844 148.29C206.064 147.937 206.234 147.563 206.354 147.17C206.481 146.777 206.544 146.383 206.544 145.99V144.53ZM206.714 144.53H207.384V145.99C207.384 146.37 207.444 146.75 207.564 147.13C207.691 147.503 207.864 147.857 208.084 148.19C208.311 148.517 208.568 148.807 208.854 149.06C209.148 149.313 209.461 149.513 209.794 149.66L209.334 150.32C208.968 150.147 208.624 149.913 208.304 149.62C207.984 149.327 207.704 148.99 207.464 148.61C207.231 148.223 207.048 147.81 206.914 147.37C206.781 146.923 206.714 146.463 206.714 145.99V144.53ZM204.444 144.16H209.494V144.85H204.444V144.16ZM210.724 143.23H211.554V152.28H210.724V143.23ZM213.354 150.44H221.554V151.13H213.354V150.44ZM217.024 148.27H217.844V150.64H217.024V148.27ZM214.314 143.87H215.144V145.48H219.744V143.87H220.564V148.5H214.314V143.87ZM215.144 146.16V147.82H219.744V146.16H215.144ZM226.213 143.55H226.943V144.06C226.943 144.407 226.876 144.733 226.743 145.04C226.609 145.34 226.426 145.617 226.193 145.87C225.966 146.123 225.699 146.35 225.393 146.55C225.086 146.75 224.753 146.917 224.393 147.05C224.039 147.183 223.676 147.28 223.303 147.34L222.963 146.67C223.296 146.623 223.619 146.543 223.933 146.43C224.253 146.317 224.549 146.18 224.823 146.02C225.096 145.853 225.336 145.667 225.543 145.46C225.756 145.253 225.919 145.033 226.033 144.8C226.153 144.56 226.213 144.313 226.213 144.06V143.55ZM226.353 143.55H227.073V144.06C227.073 144.313 227.133 144.557 227.253 144.79C227.373 145.023 227.536 145.243 227.743 145.45C227.956 145.657 228.199 145.843 228.473 146.01C228.746 146.177 229.039 146.317 229.353 146.43C229.673 146.543 229.996 146.623 230.323 146.67L229.993 147.34C229.619 147.28 229.256 147.183 228.903 147.05C228.549 146.91 228.216 146.74 227.903 146.54C227.596 146.34 227.326 146.113 227.093 145.86C226.866 145.607 226.686 145.33 226.553 145.03C226.419 144.723 226.353 144.4 226.353 144.06V143.55ZM226.213 148.84H227.033V152.28H226.213V148.84ZM222.553 148.32H230.723V149.01H222.553V148.32ZM236.174 146.3H237.004V148H236.174V146.3ZM239.494 146.3H240.314V148H239.494V146.3ZM234.164 147.7H242.334V148.37H234.164V147.7ZM238.244 149.06C239.211 149.06 239.967 149.197 240.514 149.47C241.061 149.743 241.334 150.137 241.334 150.65C241.334 151.17 241.061 151.567 240.514 151.84C239.967 152.12 239.211 152.26 238.244 152.26C237.277 152.26 236.517 152.12 235.964 151.84C235.417 151.567 235.144 151.17 235.144 150.65C235.144 150.137 235.417 149.743 235.964 149.47C236.517 149.197 237.277 149.06 238.244 149.06ZM238.244 149.7C237.771 149.7 237.364 149.737 237.024 149.81C236.691 149.883 236.434 149.993 236.254 150.14C236.074 150.28 235.984 150.45 235.984 150.65C235.984 150.863 236.074 151.043 236.254 151.19C236.434 151.33 236.691 151.437 237.024 151.51C237.364 151.583 237.771 151.62 238.244 151.62C238.717 151.62 239.121 151.583 239.454 151.51C239.794 151.437 240.054 151.33 240.234 151.19C240.414 151.043 240.504 150.863 240.504 150.65C240.504 150.45 240.414 150.28 240.234 150.14C240.054 149.993 239.794 149.883 239.454 149.81C239.121 149.737 238.717 149.7 238.244 149.7ZM238.244 143.4C238.897 143.4 239.461 143.467 239.934 143.6C240.414 143.733 240.781 143.927 241.034 144.18C241.294 144.427 241.424 144.727 241.424 145.08C241.424 145.427 241.294 145.727 241.034 145.98C240.781 146.233 240.414 146.427 239.934 146.56C239.461 146.687 238.897 146.75 238.244 146.75C237.591 146.75 237.024 146.687 236.544 146.56C236.071 146.427 235.704 146.233 235.444 145.98C235.191 145.727 235.064 145.427 235.064 145.08C235.064 144.727 235.191 144.427 235.444 144.18C235.704 143.927 236.071 143.733 236.544 143.6C237.024 143.467 237.591 143.4 238.244 143.4ZM238.244 144.05C237.771 144.05 237.357 144.09 237.004 144.17C236.657 144.25 236.387 144.367 236.194 144.52C236.007 144.673 235.914 144.86 235.914 145.08C235.914 145.293 236.007 145.48 236.194 145.64C236.387 145.793 236.657 145.91 237.004 145.99C237.357 146.07 237.771 146.11 238.244 146.11C238.731 146.11 239.147 146.07 239.494 145.99C239.841 145.91 240.107 145.793 240.294 145.64C240.481 145.48 240.574 145.293 240.574 145.08C240.574 144.86 240.481 144.673 240.294 144.52C240.107 144.367 239.841 144.25 239.494 144.17C239.147 144.09 238.731 144.05 238.244 144.05ZM249.933 143.23H250.763V152.29H249.933V143.23ZM245.993 143.93C246.44 143.93 246.833 144.06 247.173 144.32C247.52 144.573 247.79 144.937 247.983 145.41C248.183 145.883 248.283 146.44 248.283 147.08C248.283 147.72 248.183 148.277 247.983 148.75C247.79 149.223 247.52 149.59 247.173 149.85C246.833 150.11 246.44 150.24 245.993 150.24C245.547 150.24 245.15 150.11 244.803 149.85C244.457 149.59 244.183 149.223 243.983 148.75C243.79 148.277 243.693 147.72 243.693 147.08C243.693 146.44 243.79 145.883 243.983 145.41C244.183 144.937 244.457 144.573 244.803 144.32C245.15 144.06 245.547 143.93 245.993 143.93ZM245.993 144.67C245.693 144.67 245.43 144.77 245.203 144.97C244.983 145.163 244.81 145.443 244.683 145.81C244.557 146.17 244.493 146.593 244.493 147.08C244.493 147.567 244.557 147.993 244.683 148.36C244.81 148.72 244.983 149 245.203 149.2C245.43 149.4 245.693 149.5 245.993 149.5C246.287 149.5 246.543 149.4 246.763 149.2C246.99 149 247.167 148.72 247.293 148.36C247.42 147.993 247.483 147.567 247.483 147.08C247.483 146.593 247.42 146.17 247.293 145.81C247.167 145.443 246.99 145.163 246.763 144.97C246.543 144.77 246.287 144.67 245.993 144.67ZM258.753 143.24H259.583V150.02H258.753V143.24ZM259.323 146.21H260.913V146.9H259.323V146.21ZM252.583 144.34H257.923V145.01H252.583V144.34ZM255.253 145.5C255.679 145.5 256.056 145.573 256.383 145.72C256.709 145.86 256.963 146.057 257.143 146.31C257.323 146.557 257.413 146.85 257.413 147.19C257.413 147.53 257.323 147.827 257.143 148.08C256.963 148.327 256.709 148.52 256.383 148.66C256.056 148.8 255.679 148.87 255.253 148.87C254.826 148.87 254.449 148.8 254.123 148.66C253.796 148.52 253.539 148.327 253.353 148.08C253.173 147.827 253.083 147.53 253.083 147.19C253.083 146.85 253.173 146.557 253.353 146.31C253.539 146.057 253.796 145.86 254.123 145.72C254.449 145.573 254.826 145.5 255.253 145.5ZM255.253 146.15C254.846 146.15 254.516 146.247 254.263 146.44C254.009 146.627 253.883 146.877 253.883 147.19C253.883 147.503 254.009 147.753 254.263 147.94C254.516 148.127 254.846 148.22 255.253 148.22C255.666 148.22 255.996 148.127 256.243 147.94C256.496 147.753 256.623 147.503 256.623 147.19C256.623 146.877 256.496 146.627 256.243 146.44C255.996 146.247 255.666 146.15 255.253 146.15ZM254.843 143.24H255.673V144.68H254.843V143.24ZM253.953 151.4H259.983V152.08H253.953V151.4ZM253.953 149.48H254.773V151.68H253.953V149.48ZM265.194 143.82H270.854V144.49H265.194V143.82ZM264.174 147.7H272.344V148.39H264.174V147.7ZM267.824 148.16H268.654V152.29H267.824V148.16ZM270.454 143.82H271.274V144.61C271.274 144.923 271.267 145.253 271.254 145.6C271.247 145.947 271.22 146.33 271.174 146.75C271.127 147.163 271.047 147.623 270.934 148.13L270.104 148.02C270.284 147.293 270.387 146.657 270.414 146.11C270.44 145.563 270.454 145.063 270.454 144.61V143.82ZM273.373 150.43H281.573V151.12H273.373V150.43ZM277.053 148.24H277.883V150.66H277.053V148.24ZM277.033 144.38H277.743V144.93C277.743 145.303 277.673 145.657 277.533 145.99C277.4 146.317 277.213 146.623 276.973 146.91C276.74 147.19 276.466 147.44 276.153 147.66C275.846 147.873 275.516 148.06 275.163 148.22C274.816 148.373 274.466 148.487 274.113 148.56L273.773 147.9C274.08 147.847 274.39 147.757 274.703 147.63C275.016 147.497 275.31 147.337 275.583 147.15C275.863 146.963 276.11 146.753 276.323 146.52C276.543 146.287 276.716 146.037 276.843 145.77C276.97 145.503 277.033 145.223 277.033 144.93V144.38ZM277.193 144.38H277.893V144.93C277.893 145.223 277.956 145.503 278.083 145.77C278.21 146.03 278.383 146.277 278.603 146.51C278.823 146.743 279.073 146.953 279.353 147.14C279.633 147.32 279.93 147.473 280.243 147.6C280.563 147.727 280.88 147.813 281.193 147.86L280.853 148.52C280.493 148.447 280.136 148.337 279.783 148.19C279.43 148.037 279.096 147.853 278.783 147.64C278.476 147.42 278.203 147.173 277.963 146.9C277.723 146.62 277.533 146.317 277.393 145.99C277.26 145.657 277.193 145.303 277.193 144.93V144.38ZM274.053 144.05H280.873V144.74H274.053V144.05Z" fill="#9A9090"/>
<defs>
<linearGradient id="paint0_linear_546_10401" x1="0.5" y1="0.5" x2="114.527" y2="272.74" gradientUnits="userSpaceOnUse">
<stop stop-color="#F3F3F3"/>
<stop offset="1" stop-color="#EBEBEB"/>
</linearGradient>
</defs>
</svg>
