<svg width="383" height="142" viewBox="0 0 383 142" fill="none" xmlns="http://www.w3.org/2000/svg">
<path d="M374.5 0.5H8.5C4.08172 0.5 0.5 3.65639 0.5 7.55V134.45C0.5 138.344 4.08172 141.5 8.5 141.5H374.5C378.918 141.5 382.5 138.344 382.5 134.45V7.55C382.5 3.65639 378.918 0.5 374.5 0.5Z" fill="url(#paint0_linear_546_10149)" stroke="#E2E2E2"/>
<path d="M170.541 17.5H22.541C19.2273 17.5 16.541 20.1863 16.541 23.5V51.5C16.541 54.8137 19.2273 57.5 22.541 57.5H170.541C173.855 57.5 176.541 54.8137 176.541 51.5V23.5C176.541 20.1863 173.855 17.5 170.541 17.5Z" fill="white" stroke="#E2E2E2"/>
<path opacity="0.7" d="M54.6133 27.5H30.6133C28.4041 27.5 26.6133 29.2909 26.6133 31.5V43.5C26.6133 45.7091 28.4041 47.5 30.6133 47.5H54.6133C56.8224 47.5 58.6133 45.7091 58.6133 43.5V31.5C58.6133 29.2909 56.8224 27.5 54.6133 27.5Z" fill="#D4A853"/>
<path opacity="0.7" d="M92.6641 27.5H68.6641C66.4549 27.5 64.6641 29.2909 64.6641 31.5V43.5C64.6641 45.7091 66.4549 47.5 68.6641 47.5H92.6641C94.8732 47.5 96.6641 45.7091 96.6641 43.5V31.5C96.6641 29.2909 94.8732 27.5 92.6641 27.5Z" fill="#D4A853"/>
<path opacity="0.7" d="M130.342 27.5H106.342C104.133 27.5 102.342 29.2909 102.342 31.5V43.5C102.342 45.7091 104.133 47.5 106.342 47.5H130.342C132.551 47.5 134.342 45.7091 134.342 43.5V31.5C134.342 29.2909 132.551 27.5 130.342 27.5Z" fill="#D4A853"/>
<path d="M80.8389 73.5V66.4297H83.2412C84.9014 66.4297 85.6533 67.416 85.6533 68.6758C85.6533 69.9258 84.9014 70.9316 83.251 70.9316H81.7178V73.5H80.8389ZM81.7178 70.1504H83.2119C84.335 70.1504 84.7842 69.5156 84.7842 68.6758C84.7842 67.8262 84.335 67.2109 83.2021 67.2109H81.7178V70.1504ZM86.5127 71.9961C86.5127 70.7754 87.5869 70.502 88.5049 70.4336C88.8418 70.4092 89.7012 70.3652 89.9404 70.3555V69.9258C89.9404 69.252 89.54 68.8613 88.7393 68.8613C88.0654 68.8613 87.665 69.1738 87.5479 69.5742H86.6689C86.7764 68.7246 87.6064 68.1289 88.7783 68.1289C89.4717 68.1289 90.7705 68.334 90.7705 70.0039V73.5H89.9404V72.7773H89.9014C89.7256 73.1387 89.2373 73.627 88.3193 73.627C87.3135 73.627 86.5127 73.0312 86.5127 71.9961ZM87.3525 72.0352C87.3525 72.5918 87.8213 72.875 88.4658 72.875C89.4131 72.875 89.9404 72.2402 89.9404 71.5762V71.0391L88.6025 71.1367C87.8408 71.1855 87.3525 71.459 87.3525 72.0352ZM94.2861 73.6074C92.7822 73.6074 91.8643 72.4648 91.8643 70.873C91.8643 69.2617 92.8213 68.1289 94.2666 68.1289C95.3994 68.1289 96.2393 68.793 96.376 69.7988H95.5361C95.4189 69.3105 94.9893 68.8711 94.2861 68.8711C93.3389 68.8711 92.7041 69.6523 92.7041 70.8438C92.7041 72.0742 93.3193 72.8555 94.2861 72.8555C94.9111 72.8555 95.3896 72.5234 95.5361 71.9375H96.376C96.2393 72.8848 95.4678 73.6074 94.2861 73.6074ZM97.4111 73.5V66.4297H98.251V70.541H98.3486L100.644 68.1973H101.679L99.4424 70.4629L101.845 73.5H100.78L98.8174 71L98.251 71.5176V73.5H97.4111ZM104.579 73.6074C103.046 73.6074 102.099 72.5234 102.099 70.8926C102.099 69.2617 103.056 68.1289 104.501 68.1289C105.614 68.1289 106.786 68.8125 106.786 70.7754V71.127H102.938C102.978 72.25 103.632 72.8652 104.579 72.8652C105.214 72.8652 105.614 72.5918 105.81 72.2598H106.708C106.454 73.0605 105.673 73.6074 104.579 73.6074ZM102.948 70.4141H105.937C105.937 69.5254 105.37 68.8711 104.501 68.8711C103.583 68.8711 102.997 69.5938 102.948 70.4141ZM109.882 73.6074C108.563 73.6074 107.626 72.543 107.626 70.8633C107.626 69.1836 108.563 68.1289 109.892 68.1289C110.917 68.1289 111.249 68.7539 111.425 69.0371H111.483V66.4297H112.333V73.5H111.513V72.6895H111.425C111.239 72.9824 110.897 73.6074 109.882 73.6074ZM109.999 72.8555C110.966 72.8555 111.513 72.0352 111.513 70.8438C111.513 69.6719 110.985 68.8809 109.999 68.8809C108.983 68.8809 108.476 69.7402 108.476 70.8438C108.476 71.9766 108.993 72.8555 109.999 72.8555Z" fill="#5F5E5E"/>
<path d="M64.5273 80.3984V82.7803H65.7051V83.3604H64.5273V86.1201H63.833V80.3984H64.5273ZM62.418 81.0049C62.418 83.0176 60.9766 84.5117 58.7266 85.2148L58.4277 84.6611C60.2998 84.0767 61.5215 82.9604 61.6709 81.585H58.7529V81.0049H62.418ZM64.8877 87.4648V88.0449H59.6318V85.54H60.3174V87.4648H64.8877ZM70.3193 80.9346C70.3193 81.2378 70.2842 81.5278 70.2227 81.8047H71.9805V80.4072H72.6748V85.0654H71.9805V84.0283H69.9062V83.457H71.9805V82.376H70.0381C69.5063 83.6064 68.2847 84.4941 66.5928 84.96L66.3203 84.4062C68.2275 83.8789 69.436 82.8286 69.5811 81.4971H66.7158V80.9346H70.3193ZM72.6748 85.4082V88.2031H71.9805V85.9619H67.4189V85.4082H72.6748ZM82.501 81.1895V81.9717C82.4922 82.9297 82.4922 84.002 82.2109 85.5752L81.5078 85.4961C81.8066 84.002 81.8066 82.9033 81.8066 81.9717V81.7607H76.9902V81.1895H82.501ZM83.3535 86.5332V87.1045H76.2344V86.5332H79.0293V83.7383H79.7061V86.5332H83.3535ZM90.4902 80.3984V85.0566H89.7959V83.0088H88.2227V82.4375H89.7959V80.3984H90.4902ZM87.8975 85.3027C89.5234 85.3027 90.5166 85.8301 90.5166 86.7529C90.5166 87.6758 89.5234 88.2031 87.8975 88.2119C86.2715 88.2031 85.2783 87.6758 85.2783 86.7529C85.2783 85.8301 86.2715 85.3027 87.8975 85.3027ZM87.8975 85.8389C86.7021 85.8389 85.9551 86.1816 85.9639 86.7529C85.9551 87.3154 86.7021 87.6582 87.8975 87.6582C89.0928 87.6582 89.8311 87.3154 89.8311 86.7529C89.8311 86.1816 89.0928 85.8389 87.8975 85.8389ZM86.7285 81.8311C86.7285 82.8506 87.5107 83.8174 88.6533 84.2129L88.293 84.7666C87.4141 84.4502 86.7329 83.7954 86.4033 82.9824C86.0605 83.9009 85.3354 84.6348 84.4082 84.9863L84.0479 84.4326C85.208 84.0107 86.0342 82.9561 86.0342 81.8398V81.5498H84.2676V80.9697H88.4775V81.5498H86.7285V81.8311ZM94.5332 85.0742C94.542 83.4131 94.9902 82.0332 95.7988 80.8643H96.4668C95.8691 81.7344 95.3154 83.5098 95.3154 85.0742C95.3154 86.6387 95.8691 88.4229 96.4668 89.293H95.7988C94.9902 88.1152 94.542 86.7354 94.5332 85.0742ZM99.3408 89.3896C98.1895 89.3896 97.4072 88.8887 97.3193 88.001H98.1104C98.2158 88.4844 98.6641 88.7305 99.3408 88.7305C100.158 88.7305 100.659 88.3789 100.659 87.5879V86.6211H100.598C100.439 86.8848 100.132 87.4297 99.209 87.4297C98.0488 87.4297 97.1787 86.5508 97.1787 85.0479C97.1787 83.5801 98.0225 82.666 99.2178 82.666C100.141 82.666 100.439 83.2285 100.615 83.4834H100.677V82.7275H101.415V87.6318C101.415 88.8623 100.501 89.3896 99.3408 89.3896ZM99.3145 86.7529C100.185 86.7529 100.677 86.1289 100.677 85.0742C100.677 84.0547 100.202 83.3428 99.3145 83.3428C98.4004 83.3428 97.9434 84.1162 97.9434 85.0742C97.9434 86.0674 98.4092 86.7529 99.3145 86.7529ZM102.391 86.1465C102.391 85.0479 103.357 84.8018 104.184 84.7402C104.487 84.7183 105.26 84.6787 105.476 84.6699V84.2832C105.476 83.6768 105.115 83.3252 104.395 83.3252C103.788 83.3252 103.428 83.6064 103.322 83.9668H102.531C102.628 83.2021 103.375 82.666 104.43 82.666C105.054 82.666 106.223 82.8506 106.223 84.3535V87.5H105.476V86.8496H105.44C105.282 87.1748 104.843 87.6143 104.017 87.6143C103.111 87.6143 102.391 87.0781 102.391 86.1465ZM103.146 86.1816C103.146 86.6826 103.568 86.9375 104.148 86.9375C105.001 86.9375 105.476 86.3662 105.476 85.7686V85.2852L104.271 85.373C103.586 85.417 103.146 85.6631 103.146 86.1816ZM107.436 89.293V82.7275H108.165V83.4834H108.253C108.411 83.2285 108.71 82.666 109.633 82.666C110.828 82.666 111.663 83.6152 111.663 85.127C111.663 86.6387 110.828 87.5967 109.642 87.5967C108.728 87.5967 108.411 87.0342 108.253 86.7705H108.191V89.293H107.436ZM108.174 85.1094C108.174 86.1816 108.657 86.9199 109.536 86.9199C110.441 86.9199 110.907 86.1289 110.907 85.1094C110.907 84.1162 110.45 83.3428 109.536 83.3428C108.64 83.3428 108.174 84.0547 108.174 85.1094ZM113.184 87.5527C112.876 87.5527 112.612 87.2979 112.621 86.9814C112.612 86.6738 112.876 86.4189 113.184 86.4189C113.491 86.4189 113.746 86.6738 113.746 86.9814C113.746 87.2979 113.491 87.5527 113.184 87.5527ZM113.184 84.0195C112.876 84.0195 112.612 83.7646 112.621 83.4482C112.612 83.1406 112.876 82.8857 113.184 82.8857C113.491 82.8857 113.746 83.1406 113.746 83.4482C113.746 83.7646 113.491 84.0195 113.184 84.0195ZM119.397 87.5879C118.29 87.5703 117.077 86.9199 117.077 84.5645C117.077 82.3145 118 81.0488 119.494 81.0488C120.61 81.0488 121.393 81.7344 121.56 82.7363H120.777C120.628 82.1738 120.206 81.752 119.494 81.752C118.448 81.752 117.824 82.6484 117.824 84.1777H117.903C118.272 83.6504 118.853 83.334 119.538 83.334C120.672 83.334 121.612 84.2129 121.612 85.4434C121.612 86.6387 120.733 87.5967 119.397 87.5879ZM119.397 86.8936C120.224 86.8936 120.839 86.2432 120.848 85.4521C120.839 84.6699 120.25 84.0283 119.415 84.0283C118.58 84.0283 117.938 84.7051 117.93 85.4609C117.93 86.208 118.545 86.8936 119.397 86.8936ZM122.711 89.293V82.7275H123.44V83.4834H123.528C123.687 83.2285 123.985 82.666 124.908 82.666C126.104 82.666 126.938 83.6152 126.938 85.127C126.938 86.6387 126.104 87.5967 124.917 87.5967C124.003 87.5967 123.687 87.0342 123.528 86.7705H123.467V89.293H122.711ZM123.449 85.1094C123.449 86.1816 123.933 86.9199 124.812 86.9199C125.717 86.9199 126.183 86.1289 126.183 85.1094C126.183 84.1162 125.726 83.3428 124.812 83.3428C123.915 83.3428 123.449 84.0547 123.449 85.1094ZM128.292 82.7275L129.417 84.6699L130.551 82.7275H131.421L129.883 85.1094L131.421 87.5H130.56L129.417 85.6543L128.292 87.5H127.422L128.925 85.1094L127.422 82.7275H128.292ZM133.996 85.0742C133.987 86.7354 133.539 88.1152 132.73 89.293H132.062C132.66 88.4229 133.214 86.6387 133.214 85.0742C133.214 83.5098 132.66 81.7344 132.062 80.8643H132.73C133.539 82.0332 133.987 83.4131 133.996 85.0742Z" fill="#9A9090"/>
<path d="M366.318 17.5H208.318C205.005 17.5 202.318 20.1863 202.318 23.5V51.5C202.318 54.8137 205.005 57.5 208.318 57.5H366.318C369.632 57.5 372.318 54.8137 372.318 51.5V23.5C372.318 20.1863 369.632 17.5 366.318 17.5Z" fill="white" stroke="#E2E2E2"/>
<path opacity="0.7" d="M238.525 27.5H214.525C212.316 27.5 210.525 29.2909 210.525 31.5V43.5C210.525 45.7091 212.316 47.5 214.525 47.5H238.525C240.735 47.5 242.525 45.7091 242.525 43.5V31.5C242.525 29.2909 240.735 27.5 238.525 27.5Z" fill="#8FAF8A"/>
<path opacity="0.7" d="M299.332 27.5H275.332C273.123 27.5 271.332 29.2909 271.332 31.5V43.5C271.332 45.7091 273.123 47.5 275.332 47.5H299.332C301.541 47.5 303.332 45.7091 303.332 43.5V31.5C303.332 29.2909 301.541 27.5 299.332 27.5Z" fill="#8FAF8A"/>
<path opacity="0.7" d="M360.512 27.5H336.512C334.303 27.5 332.512 29.2909 332.512 31.5V43.5C332.512 45.7091 334.303 47.5 336.512 47.5H360.512C362.721 47.5 364.512 45.7091 364.512 43.5V31.5C364.512 29.2909 362.721 27.5 360.512 27.5Z" fill="#8FAF8A"/>
<path opacity="0.7" d="M242.607 37.5H271.607" stroke="#5FAFFF" stroke-width="0.8" stroke-dasharray="2 2"/>
<path opacity="0.7" d="M303.414 37.5H332.414" stroke="#5FAFFF" stroke-width="0.8" stroke-dasharray="2 2"/>
<path d="M257.377 68.207C257.299 67.5137 256.664 67.1133 255.814 67.1133C254.877 67.1133 254.262 67.6016 254.262 68.2754C254.262 69.0176 255.092 69.291 255.629 69.4277L256.332 69.623C257.094 69.8184 258.334 70.2578 258.334 71.5762C258.334 72.7285 257.406 73.627 255.766 73.627C254.242 73.627 253.295 72.8359 253.217 71.6641H254.115C254.193 72.4551 254.926 72.8262 255.766 72.8262C256.742 72.8262 257.475 72.3281 257.475 71.5566C257.475 70.873 256.82 70.6094 256.078 70.3945L255.209 70.1602C254.096 69.8379 253.412 69.2715 253.412 68.3145C253.412 67.123 254.477 66.332 255.844 66.332C257.211 66.332 258.197 67.1328 258.236 68.207H257.377ZM259.486 75.4922V68.1973H260.297V69.0371H260.395C260.57 68.7539 260.902 68.1289 261.928 68.1289C263.256 68.1289 264.184 69.1836 264.184 70.8633C264.184 72.543 263.256 73.6074 261.937 73.6074C260.922 73.6074 260.57 72.9824 260.395 72.6895H260.326V75.4922H259.486ZM260.307 70.8438C260.307 72.0352 260.844 72.8555 261.82 72.8555C262.826 72.8555 263.344 71.9766 263.344 70.8438C263.344 69.7402 262.836 68.8809 261.82 68.8809C260.824 68.8809 260.307 69.6719 260.307 70.8438ZM265.023 71.9961C265.023 70.7754 266.098 70.502 267.016 70.4336C267.353 70.4092 268.212 70.3652 268.451 70.3555V69.9258C268.451 69.252 268.051 68.8613 267.25 68.8613C266.576 68.8613 266.176 69.1738 266.059 69.5742H265.18C265.287 68.7246 266.117 68.1289 267.289 68.1289C267.982 68.1289 269.281 68.334 269.281 70.0039V73.5H268.451V72.7773H268.412C268.236 73.1387 267.748 73.627 266.83 73.627C265.824 73.627 265.023 73.0312 265.023 71.9961ZM265.863 72.0352C265.863 72.5918 266.332 72.875 266.977 72.875C267.924 72.875 268.451 72.2402 268.451 71.5762V71.0391L267.113 71.1367C266.352 71.1855 265.863 71.459 265.863 72.0352ZM272.797 73.6074C271.293 73.6074 270.375 72.4648 270.375 70.873C270.375 69.2617 271.332 68.1289 272.777 68.1289C273.91 68.1289 274.75 68.793 274.887 69.7988H274.047C273.93 69.3105 273.5 68.8711 272.797 68.8711C271.85 68.8711 271.215 69.6523 271.215 70.8438C271.215 72.0742 271.83 72.8555 272.797 72.8555C273.422 72.8555 273.9 72.5234 274.047 71.9375H274.887C274.75 72.8848 273.979 73.6074 272.797 73.6074ZM278.148 73.6074C276.615 73.6074 275.668 72.5234 275.668 70.8926C275.668 69.2617 276.625 68.1289 278.07 68.1289C279.184 68.1289 280.355 68.8125 280.355 70.7754V71.127H276.508C276.547 72.25 277.201 72.8652 278.148 72.8652C278.783 72.8652 279.184 72.5918 279.379 72.2598H280.277C280.023 73.0605 279.242 73.6074 278.148 73.6074ZM276.518 70.4141H279.506C279.506 69.5254 278.939 68.8711 278.07 68.8711C277.152 68.8711 276.566 69.5938 276.518 70.4141ZM284.066 73.5V66.4297H286.547C288.031 66.4297 288.725 67.2598 288.725 68.3047C288.725 69.2129 288.187 69.623 287.572 69.7891V69.8574C288.227 69.8965 289.008 70.502 289.008 71.625C289.008 72.6895 288.305 73.5 286.635 73.5H284.066ZM286.625 72.7188C287.729 72.7188 288.158 72.2305 288.158 71.6152C288.158 70.8926 287.582 70.2871 286.674 70.2871H284.945V72.7188H286.625ZM286.518 69.5254C287.279 69.5254 287.885 69.0566 287.885 68.3145C287.885 67.6992 287.475 67.2109 286.547 67.2109H284.945V69.5254H286.518ZM292.377 73.6074C290.844 73.6074 289.896 72.5234 289.896 70.8926C289.896 69.2617 290.854 68.1289 292.299 68.1289C293.412 68.1289 294.584 68.8125 294.584 70.7754V71.127H290.736C290.775 72.25 291.43 72.8652 292.377 72.8652C293.012 72.8652 293.412 72.5918 293.607 72.2598H294.506C294.252 73.0605 293.471 73.6074 292.377 73.6074ZM290.746 70.4141H293.734C293.734 69.5254 293.168 68.8711 292.299 68.8711C291.381 68.8711 290.795 69.5938 290.746 70.4141ZM297.992 68.1973V68.9004H296.879V71.9766C296.879 72.6602 297.211 72.7676 297.572 72.7676C297.729 72.7676 297.943 72.7578 298.07 72.748V73.5293C297.943 73.5488 297.729 73.5684 297.484 73.5684C296.781 73.5684 296.029 73.1289 296.029 72.1914V68.9004H295.229V68.1973H296.029V66.9277H296.879V68.1973H297.992ZM300.268 73.5L298.656 68.1973H299.545L300.678 72.2402H300.727L301.85 68.1973H302.748L303.852 72.2207H303.91L305.043 68.1973H305.922L304.311 73.5H303.48L302.328 69.457H302.25L301.107 73.5H300.268ZM308.9 73.6074C307.367 73.6074 306.42 72.5234 306.42 70.8926C306.42 69.2617 307.377 68.1289 308.822 68.1289C309.936 68.1289 311.107 68.8125 311.107 70.7754V71.127H307.26C307.299 72.25 307.953 72.8652 308.9 72.8652C309.535 72.8652 309.936 72.5918 310.131 72.2598H311.029C310.775 73.0605 309.994 73.6074 308.9 73.6074ZM307.27 70.4141H310.258C310.258 69.5254 309.691 68.8711 308.822 68.8711C307.904 68.8711 307.318 69.5938 307.27 70.4141ZM314.428 73.6074C312.895 73.6074 311.947 72.5234 311.947 70.8926C311.947 69.2617 312.904 68.1289 314.35 68.1289C315.463 68.1289 316.635 68.8125 316.635 70.7754V71.127H312.787C312.826 72.25 313.48 72.8652 314.428 72.8652C315.062 72.8652 315.463 72.5918 315.658 72.2598H316.557C316.303 73.0605 315.521 73.6074 314.428 73.6074ZM312.797 70.4141H315.785C315.785 69.5254 315.219 68.8711 314.35 68.8711C313.432 68.8711 312.846 69.5938 312.797 70.4141ZM318.568 70.3164V73.5H317.729V68.1973H318.539V69.0273H318.607C318.861 68.4902 319.35 68.1289 320.16 68.1289C321.234 68.1289 321.947 68.7832 321.947 70.1309V73.5H321.107V70.1895C321.107 69.3691 320.658 68.8809 319.906 68.8809C319.135 68.8809 318.568 69.3984 318.568 70.3164Z" fill="#5F5E5E"/>
<path d="M277.43 80.8291V81.418C277.43 82.042 277.43 82.7759 277.246 83.7559H278.371V84.3271H276.367V86.2168H275.699V84.3271H274.266V86.2168H273.589V84.3271H271.216V83.7559H276.56C276.745 82.7671 276.745 82.042 276.745 81.418V81.3916H272.122V80.8291H277.43ZM277.641 87.4648V88.0449H272.095V85.6016H272.781V87.4648H277.641ZM286.123 84.1162V84.6963H278.995V84.1162H286.123ZM285.288 82.8066V83.3691H279.9V80.7148H285.235V81.2949H280.577V82.8066H285.288ZM282.554 85.3818C284.233 85.3818 285.235 85.8916 285.244 86.7881C285.235 87.6934 284.233 88.1943 282.554 88.1943C280.867 88.1943 279.856 87.6934 279.856 86.7881C279.856 85.8916 280.867 85.3818 282.554 85.3818ZM282.554 85.918C281.297 85.9268 280.55 86.2432 280.559 86.7881C280.55 87.3418 281.297 87.6494 282.554 87.6494C283.793 87.6494 284.549 87.3418 284.549 86.7881C284.549 86.2432 283.793 85.9268 282.554 85.918ZM296.177 84.5381V85.1006H292.996V86.6299H292.31V85.1006H289.023V84.5381H296.177ZM295.377 87.4648V88.0449H289.937V85.9092H290.623V87.4648H295.377ZM290.667 80.6533V81.6553H294.534V80.6533H295.219V83.7734H289.981V80.6533H290.667ZM290.667 83.2109H294.534V82.1826H290.667V83.2109ZM297.759 81.1455V83.0527H299.456V81.1455H300.097V86.2607H297.1V81.1455H297.759ZM297.759 85.6895H299.456V83.6152H297.759V85.6895ZM303.507 80.3984V88.2119H302.839V84.0723H301.75V87.8164H301.09V80.5654H301.75V83.501H302.839V80.3984H303.507Z" fill="#9A9090"/>
<path d="M114.554 119.3H115.384V121H114.554V119.3ZM117.874 119.3H118.694V121H117.874V119.3ZM112.544 120.7H120.714V121.37H112.544V120.7ZM116.624 122.06C117.591 122.06 118.347 122.197 118.894 122.47C119.441 122.743 119.714 123.137 119.714 123.65C119.714 124.17 119.441 124.567 118.894 124.84C118.347 125.12 117.591 125.26 116.624 125.26C115.657 125.26 114.897 125.12 114.344 124.84C113.797 124.567 113.524 124.17 113.524 123.65C113.524 123.137 113.797 122.743 114.344 122.47C114.897 122.197 115.657 122.06 116.624 122.06ZM116.624 122.7C116.151 122.7 115.744 122.737 115.404 122.81C115.071 122.883 114.814 122.993 114.634 123.14C114.454 123.28 114.364 123.45 114.364 123.65C114.364 123.863 114.454 124.043 114.634 124.19C114.814 124.33 115.071 124.437 115.404 124.51C115.744 124.583 116.151 124.62 116.624 124.62C117.097 124.62 117.501 124.583 117.834 124.51C118.174 124.437 118.434 124.33 118.614 124.19C118.794 124.043 118.884 123.863 118.884 123.65C118.884 123.45 118.794 123.28 118.614 123.14C118.434 122.993 118.174 122.883 117.834 122.81C117.501 122.737 117.097 122.7 116.624 122.7ZM116.624 116.4C117.277 116.4 117.841 116.467 118.314 116.6C118.794 116.733 119.161 116.927 119.414 117.18C119.674 117.427 119.804 117.727 119.804 118.08C119.804 118.427 119.674 118.727 119.414 118.98C119.161 119.233 118.794 119.427 118.314 119.56C117.841 119.687 117.277 119.75 116.624 119.75C115.971 119.75 115.404 119.687 114.924 119.56C114.451 119.427 114.084 119.233 113.824 118.98C113.571 118.727 113.444 118.427 113.444 118.08C113.444 117.727 113.571 117.427 113.824 117.18C114.084 116.927 114.451 116.733 114.924 116.6C115.404 116.467 115.971 116.4 116.624 116.4ZM116.624 117.05C116.151 117.05 115.737 117.09 115.384 117.17C115.037 117.25 114.767 117.367 114.574 117.52C114.387 117.673 114.294 117.86 114.294 118.08C114.294 118.293 114.387 118.48 114.574 118.64C114.767 118.793 115.037 118.91 115.384 118.99C115.737 119.07 116.151 119.11 116.624 119.11C117.111 119.11 117.527 119.07 117.874 118.99C118.221 118.91 118.487 118.793 118.674 118.64C118.861 118.48 118.954 118.293 118.954 118.08C118.954 117.86 118.861 117.673 118.674 117.52C118.487 117.367 118.221 117.25 117.874 117.17C117.527 117.09 117.111 117.05 116.624 117.05ZM122.783 120.46H128.993V121.13H122.783V120.46ZM121.743 123.45H129.943V124.14H121.743V123.45ZM125.413 120.75H126.233V123.72H125.413V120.75ZM122.783 116.95H128.903V117.64H123.613V120.76H122.783V116.95ZM134.612 119.75H136.312V120.43H134.612V119.75ZM137.832 116.23H138.632V125.28H137.832V116.23ZM136.032 116.42H136.822V124.82H136.032V116.42ZM132.972 116.99C133.366 116.99 133.706 117.117 133.992 117.37C134.286 117.623 134.512 117.987 134.672 118.46C134.832 118.933 134.912 119.49 134.912 120.13C134.912 120.777 134.832 121.337 134.672 121.81C134.512 122.283 134.286 122.65 133.992 122.91C133.706 123.163 133.366 123.29 132.972 123.29C132.592 123.29 132.256 123.163 131.962 122.91C131.676 122.65 131.452 122.283 131.292 121.81C131.132 121.337 131.052 120.777 131.052 120.13C131.052 119.49 131.132 118.933 131.292 118.46C131.452 117.987 131.676 117.623 131.962 117.37C132.256 117.117 132.592 116.99 132.972 116.99ZM132.972 117.76C132.739 117.76 132.536 117.857 132.362 118.05C132.189 118.243 132.056 118.517 131.962 118.87C131.869 119.223 131.822 119.643 131.822 120.13C131.822 120.617 131.869 121.04 131.962 121.4C132.056 121.753 132.189 122.027 132.362 122.22C132.536 122.413 132.739 122.51 132.972 122.51C133.212 122.51 133.419 122.413 133.592 122.22C133.772 122.027 133.909 121.753 134.002 121.4C134.096 121.04 134.142 120.617 134.142 120.13C134.142 119.643 134.096 119.223 134.002 118.87C133.909 118.517 133.772 118.243 133.592 118.05C133.419 117.857 133.212 117.76 132.972 117.76ZM148.824 116.22H149.654V125.28H148.824V116.22ZM149.284 119.78H150.954V120.48H149.284V119.78ZM142.814 122.22H143.214C143.474 122.22 143.77 122.21 144.104 122.19C144.444 122.17 144.807 122.117 145.194 122.03L145.274 122.72C144.86 122.807 144.484 122.86 144.144 122.88C143.804 122.9 143.494 122.91 143.214 122.91H142.814V122.22ZM142.814 117.18H145.104V117.86H143.644V122.55H142.814V117.18ZM145.614 122.22H146.044C146.344 122.22 146.617 122.217 146.864 122.21C147.11 122.197 147.347 122.177 147.574 122.15C147.807 122.117 148.044 122.07 148.284 122.01L148.364 122.7C148.11 122.76 147.867 122.807 147.634 122.84C147.4 122.867 147.154 122.887 146.894 122.9C146.64 122.907 146.357 122.91 146.044 122.91H145.614V122.22ZM145.614 117.18H148.004V117.86H146.424V122.56H145.614V117.18ZM157.883 116.23H158.703V125.29H157.883V116.23ZM158.513 119.82H160.183V120.52H158.513V119.82ZM152.123 122.41H152.843C153.403 122.41 153.916 122.403 154.383 122.39C154.856 122.37 155.313 122.34 155.753 122.3C156.193 122.253 156.64 122.187 157.093 122.1L157.173 122.78C156.706 122.867 156.25 122.933 155.803 122.98C155.363 123.027 154.903 123.06 154.423 123.08C153.943 123.1 153.416 123.11 152.843 123.11H152.123V122.41ZM152.103 117.07H156.183V120.32H152.943V122.69H152.123V119.63H155.363V117.75H152.103V117.07ZM168.194 118.58H170.224V119.27H168.194V118.58ZM169.974 116.23H170.804V121.62H169.974V116.23ZM167.824 121.9C168.451 121.9 168.988 121.967 169.434 122.1C169.888 122.233 170.234 122.427 170.474 122.68C170.714 122.927 170.834 123.23 170.834 123.59C170.834 124.123 170.564 124.537 170.024 124.83C169.491 125.123 168.758 125.27 167.824 125.27C166.891 125.27 166.154 125.123 165.614 124.83C165.081 124.537 164.814 124.123 164.814 123.59C164.814 123.23 164.934 122.927 165.174 122.68C165.421 122.427 165.768 122.233 166.214 122.1C166.668 121.967 167.204 121.9 167.824 121.9ZM167.824 122.55C167.371 122.55 166.981 122.59 166.654 122.67C166.328 122.75 166.074 122.867 165.894 123.02C165.721 123.173 165.634 123.363 165.634 123.59C165.634 123.803 165.721 123.987 165.894 124.14C166.074 124.293 166.328 124.413 166.654 124.5C166.981 124.58 167.371 124.62 167.824 124.62C168.284 124.62 168.674 124.58 168.994 124.5C169.321 124.413 169.571 124.293 169.744 124.14C169.924 123.987 170.014 123.803 170.014 123.59C170.014 123.363 169.924 123.173 169.744 123.02C169.571 122.867 169.321 122.75 168.994 122.67C168.674 122.59 168.284 122.55 167.824 122.55ZM165.664 117.15H166.344V117.88C166.344 118.433 166.238 118.953 166.024 119.44C165.818 119.92 165.524 120.343 165.144 120.71C164.764 121.07 164.324 121.347 163.824 121.54L163.394 120.88C163.734 120.76 164.041 120.597 164.314 120.39C164.594 120.183 164.834 119.947 165.034 119.68C165.241 119.413 165.398 119.127 165.504 118.82C165.611 118.513 165.664 118.2 165.664 117.88V117.15ZM165.824 117.15H166.504V117.87C166.504 118.257 166.594 118.633 166.774 119C166.954 119.367 167.211 119.69 167.544 119.97C167.878 120.25 168.261 120.47 168.694 120.63L168.274 121.29C167.781 121.11 167.351 120.85 166.984 120.51C166.618 120.163 166.331 119.763 166.124 119.31C165.924 118.857 165.824 118.377 165.824 117.87V117.15ZM163.654 116.89H168.484V117.57H163.654V116.89ZM177.413 117.34H179.363V118.01H177.413V117.34ZM177.413 118.95H179.363V119.63H177.413V118.95ZM172.943 120.03H173.583C174.05 120.03 174.483 120.027 174.883 120.02C175.29 120.007 175.69 119.983 176.083 119.95C176.483 119.917 176.9 119.87 177.333 119.81L177.403 120.46C176.957 120.52 176.53 120.57 176.123 120.61C175.723 120.643 175.317 120.667 174.903 120.68C174.497 120.687 174.057 120.69 173.583 120.69H172.943V120.03ZM172.923 116.67H176.813V118.94H173.763V120.32H172.943V118.32H175.993V117.31H172.923V116.67ZM174.123 121.43H180.003V123.57H174.963V124.86H174.143V122.96H179.183V122.07H174.123V121.43ZM174.143 124.56H180.343V125.21H174.143V124.56ZM179.173 116.23H180.003V120.98H179.173V116.23ZM188.315 121.91C188.928 121.91 189.455 121.977 189.895 122.11C190.341 122.243 190.685 122.433 190.925 122.68C191.165 122.927 191.285 123.227 191.285 123.58C191.285 123.933 191.165 124.237 190.925 124.49C190.685 124.743 190.341 124.937 189.895 125.07C189.455 125.203 188.928 125.27 188.315 125.27C187.701 125.27 187.171 125.203 186.725 125.07C186.278 124.937 185.935 124.743 185.695 124.49C185.455 124.237 185.335 123.933 185.335 123.58C185.335 123.227 185.455 122.927 185.695 122.68C185.935 122.433 186.278 122.243 186.725 122.11C187.171 121.977 187.701 121.91 188.315 121.91ZM188.315 122.57C187.868 122.57 187.481 122.61 187.155 122.69C186.835 122.77 186.588 122.887 186.415 123.04C186.241 123.187 186.155 123.367 186.155 123.58C186.155 123.8 186.241 123.987 186.415 124.14C186.588 124.293 186.835 124.41 187.155 124.49C187.481 124.57 187.868 124.61 188.315 124.61C188.761 124.61 189.145 124.57 189.465 124.49C189.785 124.41 190.031 124.293 190.205 124.14C190.378 123.987 190.465 123.8 190.465 123.58C190.465 123.367 190.378 123.187 190.205 123.04C190.031 122.887 189.785 122.77 189.465 122.69C189.145 122.61 188.761 122.57 188.315 122.57ZM190.365 116.23H191.195V121.66H190.365V116.23ZM190.965 118.5H192.525V119.2H190.965V118.5ZM184.545 116.8H185.365V118.16H187.915V116.8H188.735V120.97H184.545V116.8ZM185.365 118.82V120.3H187.915V118.82H185.365ZM195.724 116.66H196.414V117.54C196.414 118.113 196.307 118.65 196.094 119.15C195.887 119.65 195.591 120.087 195.204 120.46C194.824 120.827 194.381 121.107 193.874 121.3L193.454 120.64C193.794 120.513 194.101 120.347 194.374 120.14C194.654 119.927 194.894 119.683 195.094 119.41C195.301 119.137 195.457 118.84 195.564 118.52C195.671 118.2 195.724 117.873 195.724 117.54V116.66ZM195.874 116.66H196.564V117.54C196.564 117.867 196.617 118.18 196.724 118.48C196.837 118.78 196.994 119.06 197.194 119.32C197.394 119.58 197.631 119.81 197.904 120.01C198.184 120.21 198.491 120.367 198.824 120.48L198.414 121.14C197.914 120.953 197.471 120.687 197.084 120.34C196.704 119.987 196.407 119.57 196.194 119.09C195.981 118.61 195.874 118.093 195.874 117.54V116.66ZM194.744 122.13H200.784V125.28H199.954V122.81H194.744V122.13ZM199.954 116.23H200.784V121.67H199.954V116.23ZM209.775 118.73H212.065V119.41H209.775V118.73ZM211.595 116.24H212.425V122.87H211.595V116.24ZM206.655 124.4H212.675V125.08H206.655V124.4ZM206.655 122.28H207.475V124.74H206.655V122.28ZM207.285 117.36H207.965V118.09C207.965 118.637 207.859 119.153 207.645 119.64C207.439 120.12 207.145 120.54 206.765 120.9C206.385 121.253 205.945 121.527 205.445 121.72L205.015 121.05C205.349 120.93 205.652 120.77 205.925 120.57C206.205 120.37 206.449 120.14 206.655 119.88C206.862 119.62 207.019 119.337 207.125 119.03C207.232 118.723 207.285 118.41 207.285 118.09V117.36ZM207.445 117.36H208.125V118.09C208.125 118.477 208.215 118.853 208.395 119.22C208.575 119.587 208.832 119.913 209.165 120.2C209.499 120.48 209.882 120.697 210.315 120.85L209.895 121.51C209.402 121.33 208.972 121.07 208.605 120.73C208.239 120.383 207.952 119.983 207.745 119.53C207.545 119.077 207.445 118.597 207.445 118.09V117.36ZM205.275 116.97H210.105V117.65H205.275V116.97ZM220.945 117.67H222.535V118.36H220.945V117.67ZM220.945 119.57H222.535V120.26H220.945V119.57ZM214.575 120.57H215.285C215.831 120.57 216.335 120.563 216.795 120.55C217.261 120.53 217.711 120.5 218.145 120.46C218.585 120.413 219.038 120.35 219.505 120.27L219.585 120.96C219.105 121.04 218.641 121.103 218.195 121.15C217.755 121.19 217.298 121.22 216.825 121.24C216.358 121.253 215.845 121.26 215.285 121.26H214.575V120.57ZM214.555 116.77H218.625V119.28H215.395V120.91H214.575V118.63H217.815V117.45H214.555V116.77ZM220.375 116.24H221.205V121.73H220.375V116.24ZM215.325 122.21H221.205V125.27H220.375V122.89H215.325V122.21ZM225.684 117.15H226.364V117.89C226.364 118.437 226.257 118.95 226.044 119.43C225.837 119.91 225.544 120.33 225.164 120.69C224.784 121.043 224.344 121.313 223.844 121.5L223.414 120.84C223.747 120.72 224.05 120.56 224.324 120.36C224.604 120.16 224.847 119.93 225.054 119.67C225.26 119.403 225.417 119.12 225.524 118.82C225.63 118.513 225.684 118.203 225.684 117.89V117.15ZM225.844 117.15H226.524V117.88C226.524 118.267 226.614 118.643 226.794 119.01C226.974 119.37 227.23 119.693 227.564 119.98C227.897 120.26 228.28 120.48 228.714 120.64L228.294 121.29C227.8 121.11 227.37 120.85 227.004 120.51C226.637 120.17 226.35 119.773 226.144 119.32C225.944 118.867 225.844 118.387 225.844 117.88V117.15ZM228.224 118.59H230.234V119.28H228.224V118.59ZM223.674 116.85H228.504V117.53H223.674V116.85ZM224.784 122.13H230.824V125.28H229.994V122.81H224.784V122.13ZM229.994 116.23H230.824V121.64H229.994V116.23ZM236.663 116.81C237.296 116.81 237.86 116.913 238.353 117.12C238.846 117.327 239.236 117.617 239.523 117.99C239.81 118.363 239.953 118.8 239.953 119.3C239.953 119.807 239.81 120.247 239.523 120.62C239.236 120.993 238.846 121.283 238.353 121.49C237.86 121.697 237.296 121.8 236.663 121.8C236.043 121.8 235.483 121.697 234.983 121.49C234.49 121.283 234.1 120.993 233.813 120.62C233.526 120.247 233.383 119.807 233.383 119.3C233.383 118.8 233.526 118.363 233.813 117.99C234.1 117.617 234.49 117.327 234.983 117.12C235.483 116.913 236.043 116.81 236.663 116.81ZM236.663 117.48C236.19 117.48 235.766 117.557 235.393 117.71C235.02 117.863 234.723 118.077 234.503 118.35C234.283 118.617 234.173 118.933 234.173 119.3C234.173 119.66 234.283 119.977 234.503 120.25C234.723 120.523 235.02 120.737 235.393 120.89C235.766 121.043 236.19 121.12 236.663 121.12C237.143 121.12 237.57 121.043 237.943 120.89C238.316 120.737 238.61 120.523 238.823 120.25C239.043 119.977 239.153 119.66 239.153 119.3C239.153 118.933 239.043 118.617 238.823 118.35C238.61 118.077 238.316 117.863 237.943 117.71C237.57 117.557 237.143 117.48 236.663 117.48ZM232.583 123.39H240.783V124.08H232.583V123.39ZM241.782 123.47H249.982V124.16H241.782V123.47ZM245.452 121.54H246.272V123.76H245.452V121.54ZM242.782 116.9H248.962V119.64H243.622V121.45H242.802V118.98H248.142V117.58H242.782V116.9ZM242.802 121.1H249.172V121.78H242.802V121.1ZM258.034 118.36H260.304V119.05H258.034V118.36ZM255.664 116.78H256.334V117.89C256.334 118.47 256.23 119.013 256.024 119.52C255.817 120.027 255.527 120.47 255.154 120.85C254.78 121.223 254.344 121.51 253.844 121.71L253.404 121.05C253.744 120.923 254.05 120.753 254.324 120.54C254.604 120.327 254.84 120.08 255.034 119.8C255.234 119.52 255.387 119.22 255.494 118.9C255.607 118.573 255.664 118.237 255.664 117.89V116.78ZM255.814 116.78H256.484V117.92C256.484 118.233 256.537 118.54 256.644 118.84C256.75 119.14 256.9 119.42 257.094 119.68C257.287 119.94 257.517 120.17 257.784 120.37C258.057 120.57 258.357 120.73 258.684 120.85L258.234 121.5C257.754 121.307 257.33 121.033 256.964 120.68C256.604 120.327 256.32 119.913 256.114 119.44C255.914 118.967 255.814 118.46 255.814 117.92V116.78ZM260.004 116.24H260.834V123H260.004V116.24ZM255.024 124.4H261.044V125.08H255.024V124.4ZM255.024 122.25H255.854V124.71H255.024V122.25ZM262.983 120.56H263.553C264.033 120.56 264.453 120.557 264.813 120.55C265.179 120.537 265.523 120.513 265.843 120.48C266.163 120.44 266.489 120.387 266.823 120.32L266.913 121C266.566 121.067 266.226 121.12 265.893 121.16C265.566 121.193 265.216 121.217 264.843 121.23C264.469 121.243 264.039 121.25 263.553 121.25H262.983V120.56ZM262.983 116.89H266.473V117.57H263.783V120.93H262.983V116.89ZM263.533 118.69H266.373V119.34H263.533V118.69ZM269.423 116.24H270.213V121.72H269.423V116.24ZM267.963 118.59H269.663V119.27H267.963V118.59ZM267.423 116.41H268.203V121.66H267.423V116.41ZM264.153 122.19H270.213V125.28H269.393V122.87H264.153V122.19Z" fill="#9A9090"/>
<defs>
<linearGradient id="paint0_linear_546_10149" x1="0.5" y1="0.5" x2="92.1081" y2="248.687" gradientUnits="userSpaceOnUse">
<stop stop-color="#F3F3F3"/>
<stop offset="1" stop-color="#EBEBEB"/>
</linearGradient>
</defs>
</svg>
