<svg width="383" height="161" viewBox="0 0 383 161" fill="none" xmlns="http://www.w3.org/2000/svg">
<path d="M374.5 0.5H8.5C4.08172 0.5 0.5 4.08172 0.5 8.5V152.5C0.5 156.918 4.08172 160.5 8.5 160.5H374.5C378.918 160.5 382.5 156.918 382.5 152.5V8.5C382.5 4.08172 378.918 0.5 374.5 0.5Z" fill="url(#paint0_linear_546_10152)" stroke="#E2E2E2"/>
<path d="M266.373 30.5H106.373C100.85 30.5 96.373 34.9772 96.373 40.5V110.5C96.373 116.023 100.85 120.5 106.373 120.5H266.373C271.896 120.5 276.373 116.023 276.373 110.5V40.5C276.373 34.9772 271.896 30.5 266.373 30.5Z" fill="white" stroke="#E2E2E2"/>
<path d="M158.58 38.5H110.58C107.266 38.5 104.58 41.1863 104.58 44.5V72.5C104.58 75.8137 107.266 78.5 110.58 78.5H158.58C161.894 78.5 164.58 75.8137 164.58 72.5V44.5C164.58 41.1863 161.894 38.5 158.58 38.5Z" fill="#E8E8E8"/>
<path d="M172.475 46.5H264.475" stroke="#D0D0D0" stroke-width="1.2"/>
<path d="M172.475 56.5H256.475" stroke="#D0D0D0" stroke-width="1.2"/>
<path d="M172.475 66.5H260.475" stroke="#D0D0D0" stroke-width="1.2"/>
<path opacity="0.8" d="M248.414 84.5H124.414C117.787 84.5 112.414 89.8726 112.414 96.5C112.414 103.127 117.787 108.5 124.414 108.5H248.414C255.041 108.5 260.414 103.127 260.414 96.5C260.414 89.8726 255.041 84.5 248.414 84.5Z" fill="#D4A853"/>
<path d="M167.308 94.9336C167.298 96.291 168.021 97.8535 169.485 98.5273L168.792 99.5039C167.801 99.0498 167.093 98.1416 166.702 97.0723C166.302 98.249 165.574 99.2451 164.544 99.7285L163.821 98.7422C165.306 98.0488 166.048 96.3984 166.058 94.9336V94.3867H164.173V93.3711H169.095V94.3867H167.308V94.9336ZM171.038 92.5117V95.9004H172.347V96.9453H171.038V101.398H169.788V92.5117H171.038ZM175.521 94.748C175.521 96.1836 175.921 97.668 177.132 98.4492L176.458 99.416C175.691 98.9521 175.203 98.1904 174.925 97.2773C174.603 98.2832 174.07 99.123 173.265 99.6113L172.503 98.6934C173.821 97.873 174.31 96.3105 174.31 94.8066V93.2734H175.521V94.748ZM180.374 92.5117V101.398H179.183V92.5117H180.374ZM178.509 92.6387V100.988H177.347V96.5254H176.194V95.5098H177.347V92.6387H178.509ZM188.753 92.5117V101.398H187.493V92.5117H188.753ZM186.81 93.8496V94.8457H181.497V93.8496H183.519V92.6289H184.788V93.8496H186.81ZM184.173 95.334C185.481 95.334 186.458 96.2129 186.458 97.4531C186.458 98.6934 185.481 99.5723 184.173 99.5723C182.854 99.5723 181.878 98.6934 181.878 97.4531C181.878 96.2129 182.854 95.334 184.173 95.334ZM184.173 96.3398C183.519 96.3496 183.069 96.7695 183.069 97.4531C183.069 98.1465 183.519 98.5566 184.173 98.5469C184.817 98.5566 185.267 98.1465 185.267 97.4531C185.267 96.7695 184.817 96.3496 184.173 96.3398ZM200.394 99.3477V100.363H192.259V99.3477H195.687V97.707H193.118V93.0781H194.368V94.4551H198.245V93.0781H199.485V97.707H196.927V99.3477H200.394ZM194.368 96.7109H198.245V95.4512H194.368V96.7109ZM208.372 92.5117V101.398H207.112V92.5117H208.372ZM205.706 93.4395C205.706 96.1348 204.759 98.3711 201.585 99.875L200.931 98.8789C203.226 97.7949 204.236 96.3887 204.437 94.416H201.409V93.4395H205.706Z" fill="#1A1C1E"/>
<path opacity="0.9" d="M267.426 48.5C275.158 48.5 281.426 42.232 281.426 34.5C281.426 26.768 275.158 20.5 267.426 20.5C259.694 20.5 253.426 26.768 253.426 34.5C253.426 42.232 259.694 48.5 267.426 48.5Z" fill="#C4876A"/>
<path d="M270.025 32.1367V38.5H268.883L266.088 34.457H266.035V38.5H264.717V32.1367H265.877L268.654 36.1797H268.716V32.1367H270.025Z" fill="white"/>
<path opacity="0.7" d="M267.602 50.5V74.5" stroke="#5FAFFF" stroke-dasharray="2 2"/>
<path opacity="0.15" d="M295.639 4.5H239.639C237.982 4.5 236.639 5.84315 236.639 7.5V15.5C236.639 17.1569 237.982 18.5 239.639 18.5H295.639C297.296 18.5 298.639 17.1569 298.639 15.5V7.5C298.639 5.84315 297.296 4.5 295.639 4.5Z" fill="#5FAFFF"/>
<path d="M252.607 14.5H251.873L253.943 8.84375H254.686L256.756 14.5H256.014L255.451 12.9062H253.178L252.607 14.5ZM253.389 12.2891H255.232L254.334 9.75781H254.287L253.389 12.2891ZM257.521 14.5V8.84375H258.193V10.9297H258.248C258.396 10.7031 258.646 10.2031 259.475 10.2031C260.537 10.2031 261.287 11.0469 261.287 12.3906C261.287 13.7344 260.537 14.5859 259.482 14.5859C258.67 14.5859 258.396 14.0859 258.248 13.8516H258.17V14.5H257.521ZM258.178 12.375C258.178 13.3281 258.607 13.9844 259.381 13.9844C260.186 13.9844 260.607 13.2812 260.607 12.375C260.607 11.4922 260.201 10.8047 259.381 10.8047C258.6 10.8047 258.178 11.4375 258.178 12.375ZM264.521 11.3594C264.428 11.0078 264.162 10.7734 263.662 10.7734C263.139 10.7734 262.764 11.0547 262.764 11.4141C262.764 11.6953 262.99 11.8906 263.49 12.0078L264.123 12.1641C264.881 12.3438 265.256 12.7188 265.256 13.3125C265.256 14.0469 264.654 14.5859 263.592 14.5859C262.639 14.5859 262.068 14.1641 261.959 13.3906H262.662C262.74 13.8047 263.045 14 263.576 14C264.178 14 264.561 13.75 264.561 13.3516C264.561 13.0547 264.35 12.8516 263.865 12.7422L263.225 12.5938C262.482 12.4219 262.092 12.0156 262.092 11.4531C262.092 10.7266 262.725 10.2031 263.662 10.2031C264.537 10.2031 265.092 10.6719 265.178 11.3594H264.521ZM267.865 14.5859C266.709 14.5859 265.928 13.7188 265.928 12.3984C265.928 11.0781 266.709 10.2031 267.865 10.2031C269.014 10.2031 269.787 11.0781 269.787 12.3984C269.787 13.7188 269.014 14.5859 267.865 14.5859ZM267.865 13.9922C268.717 13.9922 269.115 13.2422 269.115 12.3984C269.115 11.5547 268.717 10.7969 267.865 10.7969C266.998 10.7969 266.6 11.5547 266.6 12.3984C266.6 13.2422 266.998 13.9922 267.865 13.9922ZM271.342 8.84375V14.5H270.67V8.84375H271.342ZM275.092 12.7578V10.2578H275.756V14.5H275.092V13.7812H275.045C274.842 14.2109 274.428 14.5547 273.787 14.5547C272.982 14.5547 272.412 14.0312 272.412 12.9531V10.2578H273.084V12.9062C273.084 13.5156 273.467 13.9062 274.006 13.9062C274.482 13.9062 275.092 13.5469 275.092 12.7578ZM278.686 10.2578V10.8203H277.795V13.2812C277.795 13.8281 278.061 13.9141 278.35 13.9141C278.475 13.9141 278.646 13.9062 278.748 13.8984V14.5234C278.646 14.5391 278.475 14.5547 278.279 14.5547C277.717 14.5547 277.115 14.2031 277.115 13.4531V10.8203H276.475V10.2578H277.115V9.24219H277.795V10.2578H278.686ZM281.287 14.5859C280.061 14.5859 279.303 13.7188 279.303 12.4141C279.303 11.1094 280.068 10.2031 281.225 10.2031C282.115 10.2031 283.053 10.75 283.053 12.3203V12.6016H279.975C280.006 13.5 280.529 13.9922 281.287 13.9922C281.795 13.9922 282.115 13.7734 282.271 13.5078H282.99C282.787 14.1484 282.162 14.5859 281.287 14.5859ZM279.982 12.0312H282.373C282.373 11.3203 281.92 10.7969 281.225 10.7969C280.49 10.7969 280.021 11.375 279.982 12.0312Z" fill="#5FAFFF"/>
<path d="M109.742 141.04H110.452V141.33C110.452 141.717 110.355 142.073 110.162 142.4C109.975 142.72 109.719 143.007 109.392 143.26C109.065 143.513 108.692 143.723 108.272 143.89C107.859 144.057 107.422 144.173 106.962 144.24L106.662 143.59C106.982 143.55 107.292 143.483 107.592 143.39C107.892 143.29 108.172 143.17 108.432 143.03C108.692 142.89 108.919 142.733 109.112 142.56C109.312 142.38 109.465 142.187 109.572 141.98C109.685 141.773 109.742 141.557 109.742 141.33V141.04ZM109.862 141.04H110.572V141.33C110.572 141.557 110.625 141.773 110.732 141.98C110.845 142.187 110.999 142.38 111.192 142.56C111.392 142.733 111.622 142.89 111.882 143.03C112.142 143.17 112.422 143.29 112.722 143.39C113.022 143.483 113.335 143.55 113.662 143.59L113.352 144.24C112.985 144.187 112.629 144.1 112.282 143.98C111.942 143.86 111.625 143.713 111.332 143.54C111.039 143.367 110.782 143.17 110.562 142.95C110.342 142.723 110.169 142.473 110.042 142.2C109.922 141.927 109.862 141.637 109.862 141.33V141.04ZM105.942 135.85H106.732V137.27H108.662V135.85H109.442V140.06H105.942V135.85ZM106.732 137.93V139.4H108.662V137.93H106.732ZM112.372 135.24H113.172V141.38H112.372V135.24ZM110.952 137.58H112.652V138.26H110.952V137.58ZM110.432 135.41H111.212V140.58H110.432V135.41ZM117.131 136.53H117.811V137.99C117.811 138.47 117.745 138.943 117.611 139.41C117.478 139.87 117.291 140.307 117.051 140.72C116.818 141.127 116.545 141.487 116.231 141.8C115.918 142.113 115.581 142.36 115.221 142.54L114.741 141.88C115.068 141.72 115.375 141.503 115.661 141.23C115.955 140.957 116.211 140.643 116.431 140.29C116.651 139.937 116.821 139.563 116.941 139.17C117.068 138.777 117.131 138.383 117.131 137.99V136.53ZM117.301 136.53H117.971V137.99C117.971 138.37 118.031 138.75 118.151 139.13C118.278 139.503 118.451 139.857 118.671 140.19C118.898 140.517 119.155 140.807 119.441 141.06C119.735 141.313 120.048 141.513 120.381 141.66L119.921 142.32C119.555 142.147 119.211 141.913 118.891 141.62C118.571 141.327 118.291 140.99 118.051 140.61C117.818 140.223 117.635 139.81 117.501 139.37C117.368 138.923 117.301 138.463 117.301 137.99V136.53ZM115.031 136.16H120.081V136.85H115.031V136.16ZM121.311 135.23H122.141V144.28H121.311V135.23ZM123.93 139.43H132.13V140.07H123.93V139.43ZM124.91 140.79H131.11V142.72H125.75V143.78H124.93V142.15H130.29V141.39H124.91V140.79ZM124.93 143.56H131.4V144.16H124.93V143.56ZM124.97 135.5H131.08V137.38H125.81V138.36H124.99V136.82H130.26V136.09H124.97V135.5ZM124.99 138.16H131.24V138.76H124.99V138.16ZM139.222 140.34H140.042V142.59H139.222V140.34ZM139.632 135.82C140.272 135.82 140.838 135.92 141.332 136.12C141.825 136.313 142.212 136.587 142.492 136.94C142.778 137.293 142.922 137.71 142.922 138.19C142.922 138.67 142.778 139.09 142.492 139.45C142.212 139.803 141.825 140.077 141.332 140.27C140.838 140.463 140.272 140.56 139.632 140.56C138.998 140.56 138.432 140.463 137.932 140.27C137.438 140.077 137.052 139.803 136.772 139.45C136.492 139.09 136.352 138.67 136.352 138.19C136.352 137.71 136.492 137.293 136.772 136.94C137.052 136.587 137.438 136.313 137.932 136.12C138.432 135.92 138.998 135.82 139.632 135.82ZM139.632 136.49C139.152 136.49 138.725 136.56 138.352 136.7C137.978 136.84 137.685 137.04 137.472 137.3C137.258 137.553 137.152 137.85 137.152 138.19C137.152 138.53 137.258 138.83 137.472 139.09C137.685 139.35 137.978 139.55 138.352 139.69C138.725 139.83 139.152 139.9 139.632 139.9C140.112 139.9 140.538 139.83 140.912 139.69C141.285 139.55 141.578 139.35 141.792 139.09C142.012 138.83 142.122 138.53 142.122 138.19C142.122 137.85 142.012 137.553 141.792 137.3C141.578 137.04 141.285 136.84 140.912 136.7C140.538 136.56 140.112 136.49 139.632 136.49ZM135.552 142.43H143.752V143.12H135.552V142.43ZM145.801 139.93H152.011V140.6H145.801V139.93ZM144.751 142.47H152.951V143.15H144.751V142.47ZM148.421 140.27H149.251V142.78H148.421V140.27ZM145.801 135.97H151.921V136.65H146.641V140.18H145.801V135.97ZM146.381 137.91H151.721V138.58H146.381V137.91ZM154.25 141.36H154.85C155.397 141.36 155.937 141.347 156.47 141.32C157.01 141.287 157.59 141.217 158.21 141.11L158.28 141.79C157.647 141.903 157.057 141.977 156.51 142.01C155.97 142.037 155.417 142.05 154.85 142.05H154.25V141.36ZM154.23 136.23H157.45V139.37H155.05V141.65H154.25V138.7H156.65V136.91H154.23V136.23ZM160.83 135.23H161.62V144.28H160.83V135.23ZM157.88 138.48H159.35V139.17H157.88V138.48ZM159 135.45H159.78V143.8H159V135.45ZM169.719 135.23H170.549V144.29H169.719V135.23ZM165.779 135.93C166.226 135.93 166.619 136.06 166.959 136.32C167.306 136.573 167.576 136.937 167.769 137.41C167.969 137.883 168.069 138.44 168.069 139.08C168.069 139.72 167.969 140.277 167.769 140.75C167.576 141.223 167.306 141.59 166.959 141.85C166.619 142.11 166.226 142.24 165.779 142.24C165.333 142.24 164.936 142.11 164.589 141.85C164.243 141.59 163.969 141.223 163.769 140.75C163.576 140.277 163.479 139.72 163.479 139.08C163.479 138.44 163.576 137.883 163.769 137.41C163.969 136.937 164.243 136.573 164.589 136.32C164.936 136.06 165.333 135.93 165.779 135.93ZM165.779 136.67C165.479 136.67 165.216 136.77 164.989 136.97C164.769 137.163 164.596 137.443 164.469 137.81C164.343 138.17 164.279 138.593 164.279 139.08C164.279 139.567 164.343 139.993 164.469 140.36C164.596 140.72 164.769 141 164.989 141.2C165.216 141.4 165.479 141.5 165.779 141.5C166.073 141.5 166.329 141.4 166.549 141.2C166.776 141 166.953 140.72 167.079 140.36C167.206 139.993 167.269 139.567 167.269 139.08C167.269 138.593 167.206 138.17 167.079 137.81C166.953 137.443 166.776 137.163 166.549 136.97C166.329 136.77 166.073 136.67 165.779 136.67ZM174.749 135.93C175.195 135.93 175.589 136.06 175.929 136.32C176.269 136.573 176.535 136.937 176.729 137.41C176.922 137.883 177.019 138.44 177.019 139.08C177.019 139.72 176.922 140.277 176.729 140.75C176.535 141.223 176.269 141.59 175.929 141.85C175.589 142.11 175.195 142.24 174.749 142.24C174.309 142.24 173.915 142.11 173.569 141.85C173.229 141.59 172.962 141.223 172.769 140.75C172.575 140.277 172.479 139.72 172.479 139.08C172.479 138.44 172.575 137.883 172.769 137.41C172.962 136.937 173.229 136.573 173.569 136.32C173.915 136.06 174.309 135.93 174.749 135.93ZM174.749 136.67C174.462 136.67 174.205 136.77 173.979 136.97C173.759 137.163 173.585 137.443 173.459 137.81C173.332 138.17 173.269 138.593 173.269 139.08C173.269 139.567 173.332 139.993 173.459 140.36C173.585 140.72 173.759 141 173.979 141.2C174.205 141.4 174.465 141.5 174.759 141.5C175.045 141.5 175.299 141.4 175.519 141.2C175.745 141 175.919 140.72 176.039 140.36C176.165 139.993 176.229 139.567 176.229 139.08C176.229 138.593 176.165 138.17 176.039 137.81C175.919 137.443 175.745 137.163 175.519 136.97C175.299 136.77 175.042 136.67 174.749 136.67ZM178.469 135.23H179.299V144.28H178.469V135.23ZM179.109 138.84H180.779V139.54H179.109V138.84ZM181.548 139.36H189.738V140.05H181.548V139.36ZM185.208 139.66H186.028V141.04H185.208V139.66ZM185.188 141.46H185.898V141.74C185.898 142.08 185.808 142.393 185.628 142.68C185.448 142.96 185.195 143.21 184.868 143.43C184.541 143.643 184.168 143.817 183.748 143.95C183.328 144.09 182.881 144.187 182.408 144.24L182.138 143.6C182.551 143.56 182.941 143.487 183.308 143.38C183.675 143.273 183.998 143.137 184.278 142.97C184.558 142.803 184.778 142.617 184.938 142.41C185.105 142.197 185.188 141.973 185.188 141.74V141.46ZM185.338 141.46H186.038V141.74C186.038 141.987 186.118 142.213 186.278 142.42C186.445 142.627 186.668 142.813 186.948 142.98C187.235 143.14 187.561 143.273 187.928 143.38C188.295 143.487 188.681 143.56 189.088 143.6L188.828 144.24C188.355 144.187 187.908 144.09 187.488 143.95C187.068 143.817 186.695 143.647 186.368 143.44C186.048 143.227 185.795 142.977 185.608 142.69C185.428 142.403 185.338 142.087 185.338 141.74V141.46ZM185.628 135.37C186.281 135.37 186.845 135.433 187.318 135.56C187.798 135.687 188.165 135.877 188.418 136.13C188.678 136.377 188.808 136.677 188.808 137.03C188.808 137.377 188.678 137.673 188.418 137.92C188.165 138.167 187.798 138.357 187.318 138.49C186.845 138.623 186.281 138.69 185.628 138.69C184.975 138.69 184.408 138.623 183.928 138.49C183.455 138.357 183.088 138.167 182.828 137.92C182.575 137.673 182.448 137.377 182.448 137.03C182.448 136.677 182.575 136.377 182.828 136.13C183.088 135.877 183.455 135.687 183.928 135.56C184.408 135.433 184.975 135.37 185.628 135.37ZM185.628 136C185.148 136 184.735 136.043 184.388 136.13C184.041 136.21 183.771 136.327 183.578 136.48C183.391 136.627 183.298 136.81 183.298 137.03C183.298 137.243 183.391 137.427 183.578 137.58C183.771 137.727 184.041 137.84 184.388 137.92C184.735 138 185.148 138.04 185.628 138.04C186.115 138.04 186.531 138 186.878 137.92C187.225 137.84 187.491 137.727 187.678 137.58C187.865 137.427 187.958 137.243 187.958 137.03C187.958 136.81 187.865 136.627 187.678 136.48C187.491 136.327 187.225 136.21 186.878 136.13C186.531 136.043 186.115 136 185.628 136ZM194.417 138.75H196.117V139.43H194.417V138.75ZM197.637 135.23H198.437V144.28H197.637V135.23ZM195.837 135.42H196.627V143.82H195.837V135.42ZM192.777 135.99C193.17 135.99 193.51 136.117 193.797 136.37C194.09 136.623 194.317 136.987 194.477 137.46C194.637 137.933 194.717 138.49 194.717 139.13C194.717 139.777 194.637 140.337 194.477 140.81C194.317 141.283 194.09 141.65 193.797 141.91C193.51 142.163 193.17 142.29 192.777 142.29C192.397 142.29 192.06 142.163 191.767 141.91C191.48 141.65 191.257 141.283 191.097 140.81C190.937 140.337 190.857 139.777 190.857 139.13C190.857 138.49 190.937 137.933 191.097 137.46C191.257 136.987 191.48 136.623 191.767 136.37C192.06 136.117 192.397 135.99 192.777 135.99ZM192.777 136.76C192.544 136.76 192.34 136.857 192.167 137.05C191.994 137.243 191.86 137.517 191.767 137.87C191.674 138.223 191.627 138.643 191.627 139.13C191.627 139.617 191.674 140.04 191.767 140.4C191.86 140.753 191.994 141.027 192.167 141.22C192.34 141.413 192.544 141.51 192.777 141.51C193.017 141.51 193.224 141.413 193.397 141.22C193.577 141.027 193.714 140.753 193.807 140.4C193.9 140.04 193.947 139.617 193.947 139.13C193.947 138.643 193.9 138.223 193.807 137.87C193.714 137.517 193.577 137.243 193.397 137.05C193.224 136.857 193.017 136.76 192.777 136.76ZM204.466 138.3H206.976V138.98H204.466V138.3ZM202.276 136.01H202.956V137.63C202.956 138.13 202.893 138.623 202.766 139.11C202.646 139.597 202.473 140.05 202.246 140.47C202.02 140.89 201.753 141.263 201.446 141.59C201.146 141.917 200.816 142.177 200.456 142.37L199.936 141.7C200.27 141.54 200.576 141.317 200.856 141.03C201.143 140.743 201.393 140.417 201.606 140.05C201.82 139.677 201.983 139.287 202.096 138.88C202.216 138.467 202.276 138.05 202.276 137.63V136.01ZM202.446 136.01H203.116V137.63C203.116 138.037 203.173 138.44 203.286 138.84C203.406 139.24 203.573 139.617 203.786 139.97C204 140.317 204.246 140.627 204.526 140.9C204.813 141.173 205.12 141.387 205.446 141.54L204.946 142.21C204.586 142.023 204.253 141.773 203.946 141.46C203.64 141.147 203.373 140.787 203.146 140.38C202.926 139.973 202.753 139.537 202.626 139.07C202.506 138.603 202.446 138.123 202.446 137.63V136.01ZM206.566 135.23H207.386V144.29H206.566V135.23ZM211.558 139.74H219.728V140.41H211.558V139.74ZM215.228 138.19H216.058V140.01H215.228V138.19ZM212.468 141.29H218.728V144.35H217.908V141.96H212.468V141.29ZM212.588 137.98H218.798V138.66H212.588V137.98ZM212.588 135.6H218.718V136.27H213.418V138.33H212.588V135.6ZM227.337 135.24H228.167V140.21H227.337V135.24ZM221.227 139.33H221.957C222.504 139.33 223.01 139.323 223.477 139.31C223.95 139.297 224.41 139.27 224.857 139.23C225.304 139.183 225.767 139.123 226.247 139.05L226.347 139.73C225.847 139.81 225.367 139.87 224.907 139.91C224.454 139.95 223.987 139.98 223.507 140C223.034 140.013 222.517 140.02 221.957 140.02H221.227V139.33ZM221.207 135.67H225.307V138.13H222.037V139.78H221.227V137.48H224.497V136.35H221.207V135.67ZM222.327 140.66H223.147V141.72H227.347V140.66H228.167V144.16H222.327V140.66ZM223.147 142.38V143.48H227.347V142.38H223.147ZM232.256 136.15H232.936V136.89C232.936 137.437 232.829 137.95 232.616 138.43C232.409 138.91 232.116 139.33 231.736 139.69C231.356 140.043 230.916 140.313 230.416 140.5L229.986 139.84C230.319 139.72 230.623 139.56 230.896 139.36C231.176 139.16 231.419 138.93 231.626 138.67C231.833 138.403 231.989 138.12 232.096 137.82C232.203 137.513 232.256 137.203 232.256 136.89V136.15ZM232.416 136.15H233.096V136.88C233.096 137.267 233.186 137.643 233.366 138.01C233.546 138.37 233.803 138.693 234.136 138.98C234.469 139.26 234.853 139.48 235.286 139.64L234.866 140.29C234.373 140.11 233.943 139.85 233.576 139.51C233.209 139.17 232.923 138.773 232.716 138.32C232.516 137.867 232.416 137.387 232.416 136.88V136.15ZM234.796 137.59H236.806V138.28H234.796V137.59ZM230.246 135.85H235.076V136.53H230.246V135.85ZM231.356 141.13H237.396V144.28H236.566V141.81H231.356V141.13ZM236.566 135.23H237.396V140.64H236.566V135.23ZM243.235 135.81C243.869 135.81 244.432 135.913 244.925 136.12C245.419 136.327 245.809 136.617 246.095 136.99C246.382 137.363 246.525 137.8 246.525 138.3C246.525 138.807 246.382 139.247 246.095 139.62C245.809 139.993 245.419 140.283 244.925 140.49C244.432 140.697 243.869 140.8 243.235 140.8C242.615 140.8 242.055 140.697 241.555 140.49C241.062 140.283 240.672 139.993 240.385 139.62C240.099 139.247 239.955 138.807 239.955 138.3C239.955 137.8 240.099 137.363 240.385 136.99C240.672 136.617 241.062 136.327 241.555 136.12C242.055 135.913 242.615 135.81 243.235 135.81ZM243.235 136.48C242.762 136.48 242.339 136.557 241.965 136.71C241.592 136.863 241.295 137.077 241.075 137.35C240.855 137.617 240.745 137.933 240.745 138.3C240.745 138.66 240.855 138.977 241.075 139.25C241.295 139.523 241.592 139.737 241.965 139.89C242.339 140.043 242.762 140.12 243.235 140.12C243.715 140.12 244.142 140.043 244.515 139.89C244.889 139.737 245.182 139.523 245.395 139.25C245.615 138.977 245.725 138.66 245.725 138.3C245.725 137.933 245.615 137.617 245.395 137.35C245.182 137.077 244.889 136.863 244.515 136.71C244.142 136.557 243.715 136.48 243.235 136.48ZM239.155 142.39H247.355V143.08H239.155V142.39ZM248.354 142.47H256.554V143.16H248.354V142.47ZM252.024 140.54H252.844V142.76H252.024V140.54ZM249.354 135.9H255.534V138.64H250.194V140.45H249.374V137.98H254.714V136.58H249.354V135.9ZM249.374 140.1H255.744V140.78H249.374V140.1ZM260.286 136.09H261.076V138.29H262.976V136.09H263.746V142.02H260.286V136.09ZM261.076 138.96V141.34H262.976V138.96H261.076ZM266.856 135.23H267.656V144.28H266.856V135.23ZM265.406 138.81H267.146V139.5H265.406V138.81ZM264.846 135.42H265.636V143.82H264.846V135.42ZM275.735 135.23H276.575V144.28H275.735V135.23ZM271.675 137.38H272.345V138.16C272.345 138.64 272.282 139.107 272.155 139.56C272.028 140.007 271.848 140.423 271.615 140.81C271.388 141.197 271.118 141.537 270.805 141.83C270.498 142.123 270.162 142.357 269.795 142.53L269.335 141.89C269.668 141.737 269.975 141.53 270.255 141.27C270.542 141.01 270.788 140.717 270.995 140.39C271.208 140.057 271.375 139.7 271.495 139.32C271.615 138.94 271.675 138.553 271.675 138.16V137.38ZM271.825 137.38H272.495V138.16C272.495 138.533 272.555 138.903 272.675 139.27C272.795 139.63 272.962 139.97 273.175 140.29C273.388 140.603 273.638 140.883 273.925 141.13C274.212 141.377 274.525 141.577 274.865 141.73L274.405 142.37C274.038 142.203 273.698 141.98 273.385 141.7C273.072 141.413 272.798 141.087 272.565 140.72C272.332 140.347 272.148 139.943 272.015 139.51C271.888 139.077 271.825 138.627 271.825 138.16V137.38ZM269.575 136.8H274.555V137.47H269.575V136.8ZM271.665 135.4H272.495V137.17H271.665V135.4Z" fill="#9A9090"/>
<defs>
<linearGradient id="paint0_linear_546_10152" x1="0.5" y1="0.5" x2="114.527" y2="272.74" gradientUnits="userSpaceOnUse">
<stop stop-color="#F3F3F3"/>
<stop offset="1" stop-color="#EBEBEB"/>
</linearGradient>
</defs>
</svg>
