<svg width="66" height="33" viewBox="0 0 66 33" fill="none" xmlns="http://www.w3.org/2000/svg">
<path opacity="0.38" d="M1.50343 12.879C2.33374 12.879 3.00685 12.2058 3.00685 11.3755C3.00685 10.5452 2.33374 9.8721 1.50343 9.8721C0.673107 9.8721 0 10.5452 0 11.3755C0 12.2058 0.673107 12.879 1.50343 12.879Z" fill="#D4A853"/>
<path opacity="0.32" d="M23.5535 5.56211C24.2177 5.56211 24.7562 5.02361 24.7562 4.35936C24.7562 3.6951 24.2177 3.15661 23.5535 3.15661C22.8892 3.15661 22.3507 3.6951 22.3507 4.35936C22.3507 5.02361 22.8892 5.56211 23.5535 5.56211Z" fill="#D4A853"/>
<path opacity="0.35" d="M41.595 20.1958C42.5913 20.1958 43.3991 19.3881 43.3991 18.3917C43.3991 17.3953 42.5913 16.5876 41.595 16.5876C40.5986 16.5876 39.7909 17.3953 39.7909 18.3917C39.7909 19.3881 40.5986 20.1958 41.595 20.1958Z" fill="#D4A853"/>
<path opacity="0.28" d="M18.5421 32.6238C19.2063 32.6238 19.7448 32.0853 19.7448 31.421C19.7448 30.7568 19.2063 30.2183 18.5421 30.2183C17.8778 30.2183 17.3393 30.7568 17.3393 31.421C17.3393 32.0853 17.8778 32.6238 18.5421 32.6238Z" fill="#8FAF8A"/>
<path opacity="0.22" d="M1.50343 11.3755L23.5537 4.35954" stroke="#D4A853" stroke-width="0.6"/>
<path opacity="0.22" d="M23.5537 4.35954L41.5948 18.3915" stroke="#D4A853" stroke-width="0.6"/>
<path opacity="0.2" d="M41.5948 18.3915L18.5423 31.4212" stroke="#D4A853" stroke-width="0.6"/>
<path opacity="0.4" d="M55.6268 6.36411L57.6313 0.350408L59.6359 6.36411L65.6496 8.36868L59.6359 10.3732L57.6313 16.3869L55.6268 10.3732L49.6131 8.36868L55.6268 6.36411Z" stroke="#D4A853" stroke-width="0.7" stroke-linejoin="round"/>
</svg>
