<svg width="24" height="24" viewBox="0 0 24 24" fill="none" xmlns="http://www.w3.org/2000/svg">
<path d="M2 17L14 8" stroke="#D1D1D1"/>
<path d="M14 8L22 15" stroke="#D1D1D1"/>
<path d="M14 5L14.5729 7.00762L16.5981 6.5L15.1459 8L16.5981 9.5L14.5729 8.99238L14 11L13.4271 8.99238L11.4019 9.5L12.8541 8L11.4019 6.5L13.4271 7.00762L14 5Z" fill="#D1D1D1"/>
<path d="M2 15L2.38197 16.3384L3.73205 16L2.76393 17L3.73205 18L2.38197 17.6616L2 19L1.61803 17.6616L0.267949 18L1.23607 17L0.267949 16L1.61803 16.3384L2 15Z" fill="#D1D1D1"/>
<path d="M22 13L22.382 14.3384L23.7321 14L22.7639 15L23.7321 16L22.382 15.6616L22 17L21.618 15.6616L20.2679 16L21.2361 15L20.2679 14L21.618 14.3384L22 13Z" fill="#D1D1D1"/>
</svg>
