<svg width="430" height="932" viewBox="0 0 430 932" fill="none" xmlns="http://www.w3.org/2000/svg">
<path d="M430 0H0V932H430V0Z" fill="white"/>
<g opacity="0.04">
<path d="M0 40H430" stroke="#1A1C1E" stroke-width="0.5"/>
<path d="M0 80H430" stroke="#1A1C1E" stroke-width="0.5"/>
<path d="M0 120H430" stroke="#1A1C1E" stroke-width="0.5"/>
<path d="M0 160H430" stroke="#1A1C1E" stroke-width="0.5"/>
<path d="M0 200H430" stroke="#1A1C1E" stroke-width="0.5"/>
<path d="M0 240H430" stroke="#1A1C1E" stroke-width="0.5"/>
<path d="M0 280H430" stroke="#1A1C1E" stroke-width="0.5"/>
<path d="M0 320H430" stroke="#1A1C1E" stroke-width="0.5"/>
<path d="M0 360H430" stroke="#1A1C1E" stroke-width="0.5"/>
<path d="M0 400H430" stroke="#1A1C1E" stroke-width="0.5"/>
<path d="M0 440H430" stroke="#1A1C1E" stroke-width="0.5"/>
<path d="M0 480H430" stroke="#1A1C1E" stroke-width="0.5"/>
<path d="M0 520H430" stroke="#1A1C1E" stroke-width="0.5"/>
<path d="M0 560H430" stroke="#1A1C1E" stroke-width="0.5"/>
<path d="M0 600H430" stroke="#1A1C1E" stroke-width="0.5"/>
<path d="M40 0V932" stroke="#1A1C1E" stroke-width="0.5"/>
<path d="M80 0V932" stroke="#1A1C1E" stroke-width="0.5"/>
<path d="M120 0V932" stroke="#1A1C1E" stroke-width="0.5"/>
<path d="M160 0V932" stroke="#1A1C1E" stroke-width="0.5"/>
<path d="M200 0V932" stroke="#1A1C1E" stroke-width="0.5"/>
<path d="M240 0V932" stroke="#1A1C1E" stroke-width="0.5"/>
<path d="M280 0V932" stroke="#1A1C1E" stroke-width="0.5"/>
<path d="M320 0V932" stroke="#1A1C1E" stroke-width="0.5"/>
<path d="M360 0V932" stroke="#1A1C1E" stroke-width="0.5"/>
<path d="M400 0V932" stroke="#1A1C1E" stroke-width="0.5"/>
</g>
<path opacity="0.12" d="M48.0002 83.3001C48.7182 83.3001 49.3002 82.718 49.3002 82.0001C49.3002 81.2821 48.7182 80.7001 48.0002 80.7001C47.2822 80.7001 46.7002 81.2821 46.7002 82.0001C46.7002 82.718 47.2822 83.3001 48.0002 83.3001Z" fill="#1A1C1E"/>
<path opacity="0.1" d="M195 52.1C196.16 52.1 197.1 51.1598 197.1 50C197.1 48.8402 196.16 47.9 195 47.9C193.841 47.9 192.9 48.8402 192.9 50C192.9 51.1598 193.841 52.1 195 52.1Z" fill="#1A1C1E"/>
<path opacity="0.12" d="M355 105.8C355.442 105.8 355.8 105.442 355.8 105C355.8 104.558 355.442 104.2 355 104.2C354.558 104.2 354.2 104.558 354.2 105C354.2 105.442 354.558 105.8 355 105.8Z" fill="#1A1C1E"/>
<path opacity="0.11" d="M275.001 61.7001C275.94 61.7001 276.701 60.9389 276.701 60C276.701 59.0612 275.94 58.3 275.001 58.3C274.062 58.3 273.301 59.0612 273.301 60C273.301 60.9389 274.062 61.7001 275.001 61.7001Z" fill="#1A1C1E"/>
<path opacity="0.1" d="M38.0004 422.1C39.1602 422.1 40.1004 421.16 40.1004 420C40.1004 418.84 39.1602 417.9 38.0004 417.9C36.8406 417.9 35.9004 418.84 35.9004 420C35.9004 421.16 36.8406 422.1 38.0004 422.1Z" fill="#1A1C1E"/>
<path opacity="0.12" d="M400 356C400.552 356 401 355.552 401 355C401 354.448 400.552 354 400 354C399.448 354 399 354.448 399 355C399 355.552 399.448 356 400 356Z" fill="#1A1C1E"/>
<path opacity="0.11" d="M88.0008 251.7C88.9397 251.7 89.7008 250.939 89.7008 250C89.7008 249.061 88.9397 248.3 88.0008 248.3C87.0619 248.3 86.3008 249.061 86.3008 250C86.3008 250.939 87.0619 251.7 88.0008 251.7Z" fill="#1A1C1E"/>
<path opacity="0.11" d="M352 236.3C352.718 236.3 353.3 235.718 353.3 235C353.3 234.282 352.718 233.7 352 233.7C351.282 233.7 350.7 234.282 350.7 235C350.7 235.718 351.282 236.3 352 236.3Z" fill="#1A1C1E"/>
<path opacity="0.36" d="M298.001 80.8C298.664 80.8001 299.201 81.3376 299.201 82.0002C299.201 82.6628 298.664 83.2003 298.001 83.2004C297.338 83.2004 296.801 82.6629 296.801 82.0002C296.801 81.3375 297.338 80.8 298.001 80.8Z" fill="#D4A853" stroke="#D4A853"/>
<path opacity="0.28" d="M45.0004 342.1C46.1602 342.1 47.1004 341.16 47.1004 340C47.1004 338.84 46.1602 337.9 45.0004 337.9C43.8406 337.9 42.9004 338.84 42.9004 340C42.9004 341.16 43.8406 342.1 45.0004 342.1Z" fill="#8FAF8A"/>
<path opacity="0.28" d="M392 179.3C392.718 179.3 393.3 178.718 393.3 178C393.3 177.282 392.718 176.7 392 176.7C391.282 176.7 390.7 177.282 390.7 178C390.7 178.718 391.282 179.3 392 179.3Z" fill="#C4876A"/>
<path opacity="0.45" d="M55 178L58 169L61 178L70 181L61 184L58 193L55 184L46 181L55 178Z" fill="#D4A853" stroke="#D4A853" stroke-width="1.1" stroke-linejoin="round"/>
<path opacity="0.38" d="M375 140L377 134L379 140L385 142L379 144L377 150L375 144L369 142L375 140Z" stroke="#8FAF8A" stroke-width="0.9" stroke-linejoin="round"/>
<path opacity="0.35" d="M400 420L402 414L404 420L410 422L404 424L402 430L400 424L394 422L400 420Z" stroke="#C4876A" stroke-width="0.9" stroke-linejoin="round"/>
<g opacity="0.09">
<path d="M54.9998 146.2C55.6625 146.2 56.1998 145.663 56.1998 145C56.1998 144.337 55.6625 143.8 54.9998 143.8C54.3371 143.8 53.7998 144.337 53.7998 145C53.7998 145.663 54.3371 146.2 54.9998 146.2Z" fill="#1A1C1E"/>
<path d="M90 119.5C90.8284 119.5 91.5 118.828 91.5 118C91.5 117.172 90.8284 116.5 90 116.5C89.1716 116.5 88.5 117.172 88.5 118C88.5 118.828 89.1716 119.5 90 119.5Z" fill="#1A1C1E"/>
<path d="M130 139.2C130.663 139.2 131.2 138.663 131.2 138C131.2 137.337 130.663 136.8 130 136.8C129.337 136.8 128.8 137.337 128.8 138C128.8 138.663 129.337 139.2 130 139.2Z" fill="#1A1C1E"/>
<path d="M55 145L90 118" stroke="#1A1C1E" stroke-width="0.6"/>
<path d="M90 118L130 138" stroke="#1A1C1E" stroke-width="0.6"/>
</g>
<g opacity="0.07">
<path d="M310 161.2C310.663 161.2 311.2 160.663 311.2 160C311.2 159.337 310.663 158.8 310 158.8C309.337 158.8 308.8 159.337 308.8 160C308.8 160.663 309.337 161.2 310 161.2Z" fill="#1A1C1E"/>
<path d="M348 139.5C348.828 139.5 349.5 138.828 349.5 138C349.5 137.172 348.828 136.5 348 136.5C347.172 136.5 346.5 137.172 346.5 138C346.5 138.828 347.172 139.5 348 139.5Z" fill="#1A1C1E"/>
<path d="M385 156.2C385.663 156.2 386.2 155.663 386.2 155C386.2 154.337 385.663 153.8 385 153.8C384.337 153.8 383.8 154.337 383.8 155C383.8 155.663 384.337 156.2 385 156.2Z" fill="#1A1C1E"/>
<path d="M412 133.5C412.828 133.5 413.5 132.828 413.5 132C413.5 131.172 412.828 130.5 412 130.5C411.172 130.5 410.5 131.172 410.5 132C410.5 132.828 411.172 133.5 412 133.5Z" fill="#1A1C1E"/>
<path d="M310 160L348 138" stroke="#1A1C1E" stroke-width="0.6"/>
<path d="M348 138L385 155" stroke="#1A1C1E" stroke-width="0.6"/>
<path d="M385 155L412 132" stroke="#1A1C1E" stroke-width="0.6"/>
</g>
<path opacity="0.22" d="M82 455C115 435 155 425 175 400C195 375 195 350 225 335C255 320 290 318 308 295C326 272 322 245 348 198" stroke="#1A1C1E" stroke-width="1.2" stroke-linecap="round" stroke-dasharray="5 5"/>
<path opacity="0.7" d="M82 460.5C85.0376 460.5 87.5 458.038 87.5 455C87.5 451.962 85.0376 449.5 82 449.5C78.9624 449.5 76.5 451.962 76.5 455C76.5 458.038 78.9624 460.5 82 460.5Z" fill="white" stroke="#999999" stroke-width="1.2"/>
<path opacity="0.75" d="M152 425.5C155.038 425.5 157.5 423.038 157.5 420C157.5 416.962 155.038 414.5 152 414.5C148.962 414.5 146.5 416.962 146.5 420C146.5 423.038 148.962 425.5 152 425.5Z" fill="#E8941A"/>
<path opacity="0.75" d="M199 364.5C202.038 364.5 204.5 362.038 204.5 359C204.5 355.962 202.038 353.5 199 353.5C195.962 353.5 193.5 355.962 193.5 359C193.5 362.038 195.962 364.5 199 364.5Z" fill="#8FAF8A"/>
<path opacity="0.75" d="M265 325.5C268.038 325.5 270.5 323.038 270.5 320C270.5 316.962 268.038 314.5 265 314.5C261.962 314.5 259.5 316.962 259.5 320C259.5 323.038 261.962 325.5 265 325.5Z" fill="#C4876A"/>
<path opacity="0.75" d="M320 266C322.761 266 325 268.239 325 271C325 273.761 322.761 276 320 276C317.239 276 315 273.761 315 271C315 268.239 317.239 266 320 266Z" fill="#D4A853" stroke="#D4A853"/>
<path opacity="0.9" d="M348 190.5C352.142 190.5 355.5 193.858 355.5 198C355.5 202.142 352.142 205.5 348 205.5C343.858 205.5 340.5 202.142 340.5 198C340.5 193.858 343.858 190.5 348 190.5Z" fill="#D4A853" stroke="#D4A853"/>
<path opacity="0.3" d="M348 212C355.732 212 362 205.732 362 198C362 190.268 355.732 184 348 184C340.268 184 334 190.268 334 198C334 205.732 340.268 212 348 212Z" fill="#D4A853" stroke="#D4A853"/>
<path opacity="0.15" d="M348 218C359.046 218 368 209.046 368 198C368 186.954 359.046 178 348 178C336.954 178 328 186.954 328 198C328 209.046 336.954 218 348 218Z" fill="#D4A853" stroke="#D4A853" stroke-width="0.6"/>
<path opacity="0.6" d="M348 178L352 192L366 196L352 200L348 214L344 200L330 196L344 192L348 178Z" fill="#D4A853" stroke="#D4A853" stroke-width="1.3" stroke-linejoin="round"/>
</svg>
