<svg width="330" height="14" viewBox="0 0 330 14" fill="none" xmlns="http://www.w3.org/2000/svg">
<path d="M327.499 4.42955L2.50164 4.40279C1.12002 4.40279 0 5.52282 0 6.90444C0 8.28606 1.12002 9.40608 2.50164 9.40608L327.499 9.43284C328.88 9.43284 330 8.31281 330 6.93119C330 5.54957 328.88 4.42955 327.499 4.42955Z" fill="#E8E8E8"/>
<path d="M127.584 4.40279H2.50164C1.12002 4.40279 0 5.52282 0 6.90444C0 8.28606 1.12002 9.40608 2.50164 9.40608H127.584C128.965 9.40608 130.085 8.28606 130.085 6.90444C130.085 5.52282 128.965 4.40279 127.584 4.40279Z" fill="#D4A853"/>
<path d="M130.085 12.9084C133.401 12.9084 136.089 10.2203 136.089 6.90444C136.089 3.58855 133.401 0.900494 130.085 0.900494C126.77 0.900494 124.082 3.58855 124.082 6.90444C124.082 10.2203 126.77 12.9084 130.085 12.9084Z" fill="white" stroke="#D4A853" stroke-width="1.8"/>
</svg>
