<svg xmlns="http://www.w3.org/2000/svg" width="180" height="120" viewBox="0 0 180 120">

  <rect width="180" height="120" fill="#F2EFF9"/>
  <!-- 페르소나 카드 배경 -->
  <rect x="8" y="8" width="74" height="104" rx="8"
        fill="#FFFFFF" stroke="#B8A8D4" stroke-width="1"/>
  <!-- 아바타 영역 -->
  <circle cx="45" cy="38" r="20" fill="#E8E4F0"/>
  <circle cx="45" cy="32" r="7" fill="#B8A8D4" opacity="0.75"/>
  <path d="M28 58 Q32 48 45 48 Q58 48 62 58"
        fill="#B8A8D4" opacity="0.75"/>
  <!-- 이름 -->
  <rect x="18" y="68" width="54" height="6" rx="2" fill="#B8A8D4" opacity="0.60"/>
  <rect x="24" y="78" width="42" height="4" rx="2" fill="#B8A8D4" opacity="0.35"/>
  <!-- 태그 -->
  <rect x="18" y="88" width="26" height="12" rx="6" fill="#B8A8D4" opacity="0.30"/>
  <text x="31" y="97" font-family="sans-serif" font-size="6" fill="#6A5A9A"
        text-anchor="middle">32세</text>
  <rect x="48" y="88" width="26" height="12" rx="6" fill="#D4A853" opacity="0.25"/>
  <text x="61" y="97" font-family="sans-serif" font-size="6" fill="#8A6A2A"
        text-anchor="middle">디자인</text>
  <!-- 우측: 데이터 바 차트 -->
  <!-- 항목들 -->
  <text x="92" y="22" font-family="sans-serif" font-size="7" fill="#555">관심도</text>
  <rect x="92" y="25" width="76" height="6" rx="3" fill="#E8E4F0"/>
  <rect x="92" y="25" width="58" height="6" rx="3" fill="#B8A8D4" opacity="0.80"/>
  <text x="92" y="42" font-family="sans-serif" font-size="7" fill="#555">전문성</text>
  <rect x="92" y="45" width="76" height="6" rx="3" fill="#E8E4F0"/>
  <rect x="92" y="45" width="44" height="6" rx="3" fill="#B8A8D4" opacity="0.65"/>
  <text x="92" y="62" font-family="sans-serif" font-size="7" fill="#555">동기부여</text>
  <rect x="92" y="65" width="76" height="6" rx="3" fill="#E8E4F0"/>
  <rect x="92" y="65" width="66" height="6" rx="3" fill="#B8A8D4" opacity="0.55"/>
  <text x="92" y="82" font-family="sans-serif" font-size="7" fill="#555">목표 명확성</text>
  <rect x="92" y="85" width="76" height="6" rx="3" fill="#E8E4F0"/>
  <rect x="92" y="85" width="52" height="6" rx="3" fill="#D4A853" opacity="0.70"/>
  <!-- 장식 -->
  <circle cx="164" cy="108" r="2" fill="#B8A8D4" opacity="0.42"/>
</svg>